<?xml version="1.0" encoding="utf-8"?>
<!-- Generator: Adobe Illustrator 18.1.1, SVG Export Plug-In . SVG Version: 6.00 Build 0)  -->
<!DOCTYPE svg PUBLIC "-//W3C//DTD SVG 1.1//EN" "http://www.w3.org/Graphics/SVG/1.1/DTD/svg11.dtd">
<svg version="1.1" id="Layer_1" xmlns="http://www.w3.org/2000/svg" xmlns:xlink="http://www.w3.org/1999/xlink" x="0px" y="0px"
	 width="300px" height="300px" viewBox="0 0 300 300" enable-background="new 0 0 300 300" xml:space="preserve">
<g>
	<defs>
		<rect id="SVGID_1_" x="0" y="0" width="300" height="300"/>
	</defs>
	<clipPath id="SVGID_2_">
		<use xlink:href="#SVGID_1_"  overflow="visible"/>
	</clipPath>
	<rect x="-7" y="-8" clip-path="url(#SVGID_2_)" fill="#FFFEFC" width="317.1" height="316"/>
	<g clip-path="url(#SVGID_2_)">
		<defs>
			<rect id="SVGID_3_" x="-24.1" y="-25" width="350" height="350"/>
		</defs>
		<clipPath id="SVGID_4_">
			<use xlink:href="#SVGID_3_"  overflow="visible"/>
		</clipPath>
		<g clip-path="url(#SVGID_4_)">
			<g opacity="0.5">
				<path fill="#FFFFFF" stroke="#282828" stroke-miterlimit="10" d="M543.1,54l-1.2-2l-1.4-5.7L532.1,34l-2.6-8.1l-5.9-9l-1.5-8.1
					l-2.4-19.2l-1.7-19.5L516-50.3l-4-1.8l-6.5,2.1l-5.1-3l-5.7-2.6l-7.2-1.8l-6-3.1l-3-3.6l-3.4-0.4l-4.7,2.8l-8.6,0.4l-0.9-2.2
					l-1.3,0.1l-6,3.5l-3.9-1.3l-7.5,0.4l-1.4,5.2l-4.3,1.7l-6.7-1.2l-6.9-2.1l-9-1.6l-2.5-3.7l-0.7,0l-3.6,8.5l-5.3,0.7l-9.6-3.5
					l-1.1-3.7l-4.8-0.1l-3.1-0.6l-5.4,3.9l-6.3-2l0.1-4l-2.2-0.5l-4.4-5.4l-5.7-0.4l-6.4,3.5l-4.6-3.5l-8-0.7l-5.5-1.4l-8.7-1.6
					l0.2-6.9l-2.3-0.7l-3.2,1.6l-3.6-0.8l-1.9-1.7l-1.3,2.6l-3.7-0.3l-3.6-1.5l-9.2-7.3l-0.4-4.2l-1.3-33.2l1.1-42h-110l-0.2,33.4
					L186-23.5l-2.2,47.3l-58.7-0.7l-58.8-2.8l-16.2-0.7l1.8,9.3l4,0.7l5.5,5.6l3.4,8.6l9.7,4.1l2.9,6.4l15.2,15.2l2.8,3.1l10.3,3.7
					l2.5,4.1l3.4,1.8l1.3,5.5l7.2,12.7l0.8,16.3l5,9.2l15.8,14.9l10.6,3.7l3.8,3.7l0.1,1.3l8.1,4.2l4,1.1l3.7,2.1l5.3,1.7l4.6-5.1
					l8.2-12.8l1.6-7.6l4.2-6.8l7-3.3l8.9-4.1l6.4,4.2l15.1,0.5l13.8,1.6l5.4,4l0.1,2.3l5.5,5.9l12.6,10.1l0.5,2.9l3.8,3.7l2.1,8.4
					l12,24.2l-0.1,3.9l8.7,4.8l7.9,13l7.3,8.4l6.7,2.3l3.5,4.4l-2.2,8.9l1.4,1.9l2.7,1.2l-0.3,6.9l-1.2,1.4l1.5,4.5l6.7,3.6
					l3.3,12.9l4.6,7.6l15.7,6.1l10.5,1.7l8.8,5.8l6.6,1l2.6-1.1l11.2,1.7l11.8,7.2l6-4.2l1.8-3l-3.9-5.4l-2.6-12.3l-4.3-13.8
					l-1.9-4.8l1.2-9.2l1.9-7.9l2.1-9.3l2.4-11.2l-4.8-3.7l1.8-4l8.1-1.1l7.3-11.5l6.8-1.7l11.4-7.8l3.4-3.1l12.4-7.5l11.2-5.5
					l10.4-7.1l5.3-4.5l10.9-11.3l2.5-1.8l4.1-3.2l5-4.2l1.8-4l19.4-10.1l11.3-3.8l-1.7-8.8l2.5-5.6l0.9-14.8l0.5-5.1l-2.2-5.7
					l4.9-9.1L543.1,54z"/>
			</g>
			<g>
				<path fill="#8ABABA" stroke="#8ABABA" stroke-linecap="round" stroke-linejoin="round" stroke-miterlimit="10" d="M99.8,80.9
					c0,0,0.9-1.6,0.9-1.6l0-0.7c0,0-0.5-0.3-0.5-0.3l-0.2,2.1l-0.2,2.2h0l-0.1-2.3c0,0,0-1.2,0-1.2l-0.1-0.6c0,0,0-0.3,0-0.3
					l-0.2-0.2c0,0-0.2-0.1-0.2-0.1l0-0.1l0-0.1l0.1-0.1c0,0,0.1,0,0.1,0l0-0.1c0,0,0,0,0,0l0-0.1l0,0l0,0c0,0,0,0,0,0l-0.1,0
					L99,77.2c0,0-0.1,0-0.1,0l0-0.1c0,0,0,0,0,0l0-0.1l0-0.1l-0.2-0.1c0,0,0,0,0,0l-0.1,0c0,0,0,0,0,0l0-0.1l0-0.1l-0.1,0l-0.2,0
					l-0.1,0l-0.1,0.1c0,0,0,0,0,0l-0.1,0c0,0,0,0,0,0l0-0.1c0,0,0,0,0,0l0-0.1l0-0.1l-0.1-0.1l-0.1-0.1l0-0.1l0,0l-0.1,0
					c0,0,0,1.2,0,1.2l-0.2,1.2h0l-0.2-1.3c0,0,0-0.6,0-0.6L97,76.3l0-0.2c0,0,0-0.1,0-0.2l0-0.4l0-0.4l-0.1,0l-0.2,0.3
					c0,0,0,0.2,0,0.2l-0.1,0.1l-0.1,0l-0.1,0.1l-0.1,0c0,0,0,0,0,0l-0.1,0c0,0,0,0,0,0l0,0c0,0-0.1,0-0.1,0l-0.1-0.1c0,0,0,0,0,0
					l0-0.1c0,0,0,0,0,0l0-0.1c0,0,0,0,0,0l0-0.1c0,0,0,0,0,0l0.1-0.1l0.1,0l0-0.1l0-0.1l0,0c0,0,0-0.1,0-0.1l0.1-0.1l0,0l0-0.1
					c0,0,0,0,0,0l-1.4,0l-1.4-0.1v0l1.3,0l0.6,0c0,0,0.3,0,0.3,0l0-0.1c0,0,0.1,0,0.1,0l0-0.1c0,0,0-0.1,0-0.1l0,0l0.1-0.1l0,0
					l0-0.1L96,74c0,0,0,0,0,0l0,0l-0.1,0l-0.1,0c0,0,0,0,0,0l-0.1,0c0,0,0,0,0,0l0,0c0,0,0,0,0,0l0,0c0,0-1,0-1,0l-1-0.1v0l1-0.1
					c0,0-0.5,0-0.5,0l-0.5-0.1v-0.3l1-0.3l0.5,0l0.1,0.2l-0.1,0.1c0,0,0,0,0,0l0,0c0,0,0,0,0,0l0-0.1l-0.1,0L94.7,73l-0.2,0
					c0,0,0,0,0,0l-0.1-0.1c0,0,0,0,0,0l0-0.1c0,0,0,2,0,2l0,1.8h0l-0.1-2l-0.1-1c0,0,0-0.5,0-0.5L94,72.8c0,0,0-0.1,0-0.1l0-0.1
					c0,0,0,0,0-0.1l0-0.1c0,0,0,0,0-0.1l0.1-0.1l0,0l0,0.3l-0.1,0.3l-0.1,0l-0.1-0.3l-0.2-0.2l-0.1-0.1c0,0,0-0.1-0.1-0.1l0-0.1
					c0,0,0,0,0,0l0-0.1l0-0.1l-0.1-0.1l0,0L93,71.6c0,0,0,0,0,0l-0.1-0.2l-0.1-0.4l-0.1-0.3l-0.1,0L92.4,71c0,0,0,0.1-0.1,0.1l0,0
					c0,0,0,0,0,0c0,0,0,0,0,0l0,0l0,0L92.3,71l-0.1,0l-0.1,0c0,0,0,0,0,0l0,0c0,0-0.3,0-0.3,0l-0.3-0.1c0,0,0,0,0,0l0.3-0.1
					c0,0,0.2,0,0.2,0l0.8-0.1l0.7-0.1v-0.1l-0.7-0.2l-0.4,0.1L92,70.5h-0.1l-0.1-0.2l-0.1-0.1c0,0,0,0.2,0,0.2l-0.1,0.2l-0.1,0
					l-0.1-0.3c0,0,0-0.2,0-0.2l0-0.1l0-0.1l0-0.1l-0.1-0.2l-0.1-0.1l-0.1-0.1l-0.1,0l-0.1,0c0,0,0,0,0,0l0-0.1l0-0.1l-0.1-0.1
					l-0.2-0.1l-0.2,0l-0.1,0L90,69l-0.2-0.1c0,0,0,0,0,0l-0.2-0.2c0,0,0,0,0,0l-0.1-0.1c0,0-2-0.1-2-0.1l-2-0.1c0,0,0,0,0,0l1.1,0
					l0.9,0v-0.1c0,0,0.9,0,0.9,0l0.4-0.1c0,0-0.7,0-0.7,0l-0.6-0.1v-0.1c0,0,0,0,0,0l0-0.1v-0.1l0.9,1.5l0.6,1.5H89
					c0,0,0.1-1.5,0.1-1.5L89,68.2L89,67.8c0,0,0-0.2,0-0.2l0-0.2l0-0.1c0,0-0.7,0-0.7-0.1l-0.7-0.1c0,0,0,0,0,0l0.7-0.1l0.4-0.1
					c0,0,0.2,0,0.2,0l0.1-0.1l0-0.1l0-0.1l0-0.2l0-0.2l0-0.3l-0.1-0.2l-0.1-0.1l-0.1-0.1l-0.1-0.1l-0.1-0.1c0,0,0,0,0,0l0-0.1l0-0.2
					l0-0.2l-0.1-0.3l-0.2-0.2l-0.2-0.1l-0.4-0.3l-0.1-0.3l-0.1-0.3l-0.1,0l-0.1,0.2l-0.1,0.1l-0.2,0.1l-0.1,0c0,0,0,0,0,0l0,0
					c0,0,0,0,0,0l0,0c0,0,0,0,0,0l0-0.1l0-0.1l0-0.1l0-0.1l0-0.2l0-0.1l0,0l0,0L86,62.6l-0.3-0.1l-0.4-0.2l-0.8-0.3L84,61.7
					l-0.4-0.2c0,0,0,0,0,0l-0.1-0.1c0,0,0,0,0,0l0-0.1c0,0,0,0,0,0l-1-0.1l-1,0V61l0.9-0.1l0.4-0.1l-0.2-0.4l-0.2-0.2l-0.1,0.2
					l-0.1,0.3l-0.1,0L82,60.5l-0.2-0.1l-0.2-0.1l-0.2-0.1c0,0,0,0,0,0L81.2,60l-0.1-0.1c0,0,0,0,0,0l0-0.1L81,59.6l-0.1-0.2
					l-0.1-0.2c0,0,0,0,0,0l-0.5-0.1c0,0-0.5,0-0.5-0.1l0-0.1l0.5-0.1l0.3-0.2l0-0.2l0,0l0,0l-0.2-0.1c0,0,0,0,0,0l-0.1-0.1l-0.1-0.2
					l-0.1-0.2L80,57.7l-0.3-0.4L79.5,57c0,0,0,0,0,0l0-0.1L79,56.3l-0.3-0.4l-0.2-0.3l-0.3-0.3l-0.1-0.1c0,0,0,0,0,0l0-0.1l0-0.1
					l0-0.1L78,54.7l-0.2-0.2c0,0,0,0,0,0l-0.1-0.2l-0.1-0.2L77.4,54l-0.1,0.1l-0.1,0.2l-0.1,0l-0.4-0.2L76.5,54c0,0,0-0.1,0-0.1
					l-0.1-0.1c0,0,0,0,0,0l-0.1-0.1c0,0,0,0,0,0l0-0.1L76,53.1l-0.1-0.3l-0.1,1.8l-0.1,1.9h-0.1l-0.2-1.9l-0.2-0.9L75,53.2l-0.1-0.3
					l-0.2-0.2c0,0,0-0.1,0-0.1l-0.1-0.1c0,0,0,0,0,0l-0.1-0.1l-0.1-0.2l-0.5-0.6l-0.4-0.2c0,0,0,0,0,0l0.3-0.1l0.2-0.1L73.8,51
					l-0.3-0.1v-0.1v-0.3v-0.1l0.2,1l0.1,1.2h-0.3c0,0,0,0,0,0h-0.1c0,0,0-1.2,0-1.2l-0.2-0.7L73,50.1l-0.3-0.4l-0.5-0.6L72,48.8
					l-0.5-0.1l-0.6-0.1l-1.5-0.2l-0.5-0.1l-0.2,0c0,0,0,0,0,0l-0.1-0.1c0,0,0,0,0,0l-0.1-0.1l-0.3-0.4L68,47.4l-0.3-0.3L67.6,47
					l-0.2,0.2L67.2,48L67,48.5c0,0,0,0,0,0l-0.3-0.8c0,0,0-0.4,0-0.4L66.5,47l-0.5-0.4l-0.4-0.3c0,0,0,0,0,0L65.5,46l-0.3-0.4
					L65,45.4l-0.1-0.1l-0.2-0.1l-0.2-0.1L64,44.9l-0.3-0.2l-0.1-0.1c0,0,0,0,0,0l-0.1-0.2l-0.2-0.2l-0.1-0.2l-0.1-0.2c0,0,0,0,0,0
					L63,43.4l0-0.3l0,0l-0.1-0.1l-0.2-0.2l-0.2-0.2c0,0,0,0,0,0l0-0.1l-0.1-0.2l-0.2-1l0-0.1L62.1,41L62,40.9l-0.3-0.2l-0.5-0.4
					l-0.5-0.3c0,0,0,0,0,0l0-0.4l-0.1-0.3L60.6,39l-0.1-0.2l-0.2-0.4l-0.1-0.3l-0.1-0.2L60,37.7c0,0,0,0,0,0l0-0.1l0-0.1l0-0.1
					l0-0.1l0-0.1L59.9,37l-0.2-0.3l-0.2-0.4l-0.3-0.4l-0.2-0.4L59,35.4l-0.1-0.1l-0.1-0.1c0,0,0,0,0,0l0-0.1l-0.1-0.3l-0.1-0.3
					l-0.1-0.3l-0.1-0.3l-0.1-0.2l-0.1-0.1L58,33.3l-0.2-0.2l-0.3-0.3l-0.2-0.1c0,0,0,0,0,0l-0.1-0.1c0,0,0,0,0,0l0-0.2l-0.1-0.2
					l0-0.2l-0.1-0.2L57,31.8l-0.1-0.1l-0.2-0.1l-0.1,0l-0.1,0l-0.2-0.1l-0.7-0.5l-0.1-0.1l-0.1,0c0,0,0,0,0,0l-0.2-0.1l-0.2-0.1
					l-0.2-0.1l-0.1-0.1l-0.2-0.2l-0.2,0.7l-0.2,0.7h-0.1L54,30.8L53.8,30l-0.1-0.5h-0.1l0,0.4l-0.1,0.5l-0.1,0.2c0,0,0,0.1,0,0.1
					l-0.1,0l-0.2,0l-0.2,0l-0.2,0c0,0,0,0,0,0l-0.3-0.1l-0.1-0.1c0,0,0,0,0,0l-0.1-0.1l-0.1-0.1l-0.2-0.2l-0.1,0l-0.1,0c0,0,0,0,0,0
					L51.6,30c0,0,0,0,0,0l0-0.1c0,0,0,0,0,0l0-0.2l0-0.1l0,0l-0.1,0l-0.1,0c0,0,0,0.1,0,0.1l-0.2-0.1H51c0,0,0,0,0,0h0l0-0.2
					c0,0,0-0.1,0-0.1l0-0.1c0,0,0,0,0-0.1l0-0.1c0,0,0,0,0,0l0-0.1l0-0.1l0-0.1l0,0l0,0l-0.1,0l-0.1,0c0,0,0,0,0-0.1l0,0l0-0.1
					l-0.2-0.3L50.4,28c0,0,0,0,0-0.1l0,0l-0.1-0.1c0,0-0.1,0-0.1,0l0-0.1l0,0l0,0l-0.3,0l-0.1,0c0,0,0,0,0,0l-0.4-0.1l0,0l-0.1,0
					c0,0,0,0,0,0h-0.1l-0.1,0c0,0,0,0,0,0H49c0,0,0,0,0,0l-0.1-0.1c0,0,0,0,0,0l-0.1-0.1l-0.2-0.2L48.5,27l-0.1,1.2l-0.2,1.3H48
					c0,0,0.2-1.3,0.2-1.4l0.3-1.4c0,0,0,0,0,0l-0.2-0.5L48.2,26L48.1,26l-0.2-0.1l-0.2,0c0,0,0,0,0,0L47,25.2c0,0,0,0,0,0L46.9,25
					l-0.1,0c0,0,0,0,0,0l-0.1-0.1c0,0,0,0,0,0l-0.1-0.2c0,0,0,0,0-0.1l0.1-0.1l0.1-0.2l0.1-0.2l0.1-0.1l0-0.1l-0.1-0.1l-0.1-0.1
					l-0.1-0.1l-0.1,0l-0.1-0.1c0,0,0,0,0,0l-0.1-0.1c0,0,0,0,0,0l0-0.1c0,0,0,0,0,0l0-0.1c0,0,0,0,0,0l0.1-0.1c0,0,0,0,0,0l0.4-0.3
					c0,0,0,0,0,0l0.3,0l0.2,0l0.3-0.3c0,0,0.4,0,0.4,0l0.5-0.1c0,0,0,0,0,0l-0.8-0.6h0h0c0,0,0,0,0,0h-0.1l-0.1,0.3l-0.1,0.8
					l-0.1,0.8h-0.1l-0.1-0.7c0,0,0-0.3,0-0.3l-0.1-0.2c0,0,0-0.1,0-0.2l0-0.2c0,0,0-0.1,0.1-0.1l0,0l0.1,0l0.1-0.1l0-0.1l0-0.1
					c0,0,0,0,0,0l0,0l0.5-0.1l0.5-0.2c0,0,0,0,0,0l-1.1-0.1c0,0-0.9,0-0.9,0v0c0,0,0.5,0,0.5,0l0.3,0l0.2,0l0.1-0.1l0.1-0.1l0.6,0
					l0.5,0l0,0l-0.6,0l-0.4,0c0,0-0.2,0-0.2,0l-0.2,0c0,0-0.1,0-0.1,0l-0.1-0.1c0,0,0,0,0,0l0-0.1c0,0,0,0,0,0l0-0.1c0,0,0,0,0,0
					l0.1-0.1c0,0,0,0,0,0l0.1-0.1l0.1-0.1l0-0.1l0-0.1l0,0l-0.1,0c0,0,0,0,0,0l-0.1,0c0,0,0,0,0,0l-0.2-0.1c0,0,0,0,0,0l-0.1-0.1
					c0,0,0,0,0,0L47,19.7l-0.1,0l-0.1-0.1c0,0,0,0,0-0.1l0-0.1c0,0,0,0,0,0l0.1-0.1l0.1-0.1c0,0,0,0,0,0l0.1-0.1c0,0,0,0,0,0
					l0.2-0.1l0.2,0l0.1-0.1l0.1-0.1l0.1-0.1l0-0.1l0-0.2c0,0,0-0.1,0.1-0.1l2.7,0.2l0,0c0,0,0,0,0,0l0,0.1c0,0-0.1,0-0.1,0v0.1
					c0,0,0.1,0,0.1,0l0,0.2l-0.1,0.1l0,0c0,0,0,0,0,0l0,0c0,0,0,0,0,0.1l0,0c0,0,0,0,0,0l0,0c0,0,0,0,0,0l0,0l0,0l0.1,0l0.1,0l0,0
					l0,0l0-0.1l0-0.1c0,0,0,0,0,0l0.1-0.1l0,0c0,0,0,0,0,0l0.1,0l0,0c0,0,0,1.3,0,1.3l0,1.3c0,0,0,0,0,0l0-1.3c0,0,0-0.6,0-0.6
					l0.1-0.3l0.1-0.1c0,0,0-0.1,0-0.1l0,0l0,0c0,0,0,0,0,0l0,0l0,0l0,0c0,0,0,0,0,0l0,0c0,0,0,0,0,0l0.1,0c0,0,0.1,0,0.1,0l0,0l0,0
					l0,0l-0.1,0.1l0,0.2l0,0.1l0,0.1l0,0.4l0.1,0.3l0,0.1c0,0,0,0,0,0l0.4,0.1l0.4,0.1v0l-0.4,0.2c0,0-0.2,0-0.2,0c0,0-0.1,0-0.2,0
					l-0.1,0l0.4,0l0.5,0v0l-0.4,0c0,0-0.2,0.1-0.2,0.1l-0.1,0c0,0-0.1,0-0.1,0l-0.6,0l-0.5,0v0c0,0,0.5,0,0.5,0l0.2,0
					c0,0,0.1,0,0.1,0l-0.1,0l0,0l0,0l0,0.1c0,0,0,0,0,0l0,0l0,0c0,0,0,0,0,0l-0.1,0l0,0l0,0l0,0.1c0,0,0,0,0,0l0,0l-0.1,0l-0.1,0.2
					l0.1,0l0,0l0.1,0l0,0l0.1,0l0-0.3c0,0,0-0.3,0-0.3h0l0.1,0.3l0.1,0.2l0,0.1l0,0.1c0,0,0,0,0,0l0.1,0.1l0.1,0.1l0.1,0.2l0.2-0.4
					l0-0.7h0.1l0,0.7c0,0,0,0.4,0,0.4l0,0.2l0,0.1l0.1,0.1c0,0,0,0,0,0l0,0c0,0,0,0,0,0l0,0.1l0.2,0.1l0.2,0.1v0.1l-0.2,0.1l0.1,0.1
					l0.1,0.1v0.1c0,0-0.2,0-0.2,0l-0.1,0.1c0,0-0.1,0-0.1,0l0,0c0,0,0,0,0,0l-0.1,0l-0.1,0l-0.1,0l-0.1,0l-0.1-0.1l-0.2-0.1l0,0h0h0
					l0,0l0.1,0.3l0,0.1c0,0,0,0,0,0l0,0.1l0,0.1c0,0,0,0,0,0l0,0L51,24.2l0.7,0l0.8,0v0l-0.1,0.1l0.1,0.1v0l-0.6,0.1l0.4,0l0.3,0.1
					v0v0l-0.4,0c0,0-0.2,0-0.2,0l0,0.1c0,0,0,0,0,0l0,0.1l0,0l0,0l0,0l0.1-0.1l0,0c0,0,0,0,0,0l0,0c0,0,0,0,0,0l0,0c0,0,0,0,0,0l0,0
					c0,0,0,0,0,0l0,0.1l0,0.1l0.1,0l0.1,0.2v0.4l-0.1,0.3l-0.1,0.6l0,0.1l0.1,0.2c0,0,1.1,0,1.1,0l1,0.1V27l-1,0.1L53,27.2l-0.2,0.2
					l-0.1,0.1l0.9,0.1l0.9,0.2v0.1l0,0.1c0,0,0,0,0,0v0c0,0,0,0,0,0v0.1v0v0.1l0,0.1c0,0,0,0,0,0v0.3l-1,0L53,28.7c0,0-0.3,0-0.3,0
					l-0.2,0.1V29l0.1,0.1l0.1,0l0,0l0,0c0,0,0,0,0,0l0,0c0,0,0,0,0,0l0,0c0,0,0,0,0,0l0,0.1c0,0,0,0.1,0,0.1l0,0c0,0,0-0.1,0-0.1
					l0,0c0,0,0,0,0,0l0,0c0,0,0,0,0,0l0,0.1l0,0.1l0,0.1l0,0l0.1,0l0,0l0,0c0,0,0,0,0,0l0.2-0.2l0.1-0.2l0,0l0.1-0.3l0.4-0.1
					c0,0,0.4,0,0.4,0v0c0,0-0.4,0-0.4,0l-0.2-0.1l-0.3,0c0,0-0.1,0-0.1,0l-0.1,0c0,0,0,0,0,0l0,0c0,0,0,0,0,0l0,0l0-0.1l0,0l0,0
					c0,0,0,0,0,0l0.5,0c0,0,0.5,0,0.5-0.1v0l-0.8,0c0,0-0.4,0-0.4,0l-0.2,0c0,0,0.1,0,0.1,0l0.1,0l0.1,1c0,0,0,1,0,1h0c0,0,0-1,0-1
					l0.1,0.5c0,0,0,0.5,0,0.5h0h0l0.4-1l0.4-1v0l-0.4,0l-0.2,0l-0.2,0c0,0-0.1,0-0.1,0l-0.1,0c0,0,0,0,0,0l0,0c0,0,0,0,0,0l-0.3,1.1
					c0,0-0.2,1.1-0.2,1.1h0c0,0,0.2,0,0.3,0h0.1c0,0,0.1-0.1,0.1-0.1l0.1,0.1h0.1l0,0l0.1,0h0l0.1-1.1l0.2-0.7l0-0.3l0-0.3l0-0.1
					l0,0l-0.1-0.1l0-0.1c0,0,0.2,0,0.2,0l0.2,0v-0.4l-0.3-0.3l-0.2,0c0,0-0.1,0.3-0.1,0.3l-0.1,0.1c0,0,0,0.1,0,0.1l-0.1-0.2l0,0
					l-0.1,0l-0.1,0c0,0,0,0,0,0l0,0c0,0,0,0,0-0.1l0,0c0,0,0,1.7,0,1.7l0.1,1.7h0l0-1.7l0-0.8l0.1-0.4l0.3-0.1l0-0.1l0-0.1l-0.1-0.1
					c0,0,0,0,0,0l0,0c0,0,0,0,0,0l-0.1-0.2l0,0l-0.1,0c0,0,0,0,0,0l-0.1-0.1c0,0,0,0,0,0l0,0c0,0,0,0,0,0l0-0.1c0,0,0,0,0,0l0,0
					l0.1,0l0.1-0.1l0.1,0l0.1,0l0.1,0l0.1,0l-0.1,0l-0.1,0l0,0l0.1,0c0,0,0,0,0,0l0,0c0,0,0,0,0-0.1l0-0.1l-0.5-0.1l-0.5-0.1l0-0.1
					l0.5-0.2l0.2,0l0.1-0.3c0,0,0.1,0,0.1,0l-0.8-0.1l-0.8-0.1v0l0.8,0l0.3,0L53,24.4c0,0-0.5,0-0.5,0v0l0.6,1.5l0.5,1.5h0l-0.1-1.7
					c0,0,0-1,0-1l0-0.4c0,0,0,0,0,0l0,0c0,0,0.5,0,0.5,0l0.5-0.1c0,0,0,0,0,0l-0.5,0c0,0-0.3,0-0.3,0l0.4,0c0,0,0.4,0,0.4,0v0
					c0,0-0.5,0-0.5,0l-0.2,0l0.3,0l0.3,0v0c0,0-0.3,0-0.3,0l-0.1,0c0,0-0.1,0-0.1,0l0.1,0l0.1,0l0,0l0.3-0.1v0v-0.1v0l0-0.2
					c0,0,0,0,0,0v0v0l-0.1,0l0,0c0,0,0,0,0,0l0,0c0,0,0,0,0,0l0,0c0,0,0,0,0,0l0.1,0c0,0,0.1,0,0.1,0v0c0,0-0.1,0-0.1,0l0-0.9
					c0,0,0-0.9,0-0.9h0c0,0,0,0.9,0,0.9l0.1,0.5l0,0.2l0,0.1l0,0l-0.1,0l-0.1-0.1c0,0,0,0,0,0l0,0l0-0.1l0,0l0,0l-0.1,0L54,23
					c0,0,0,0,0,0l0,0c0,0,0,0,0,0l0,0c0,0,0,0,0,0l-0.1,0c0,0,0,0,0,0l0,0c0,0,0,0,0,0l0,0c0,0,0,0,0,0l0,0c0,0,0,0,0,0l0.1,0l0.2,0
					l0.1,0l0.1,0l0.1-0.1c0,0,0,0,0,0l0,0c0,0,0,0,0,0l0,0c0,0,0,0,0,0l0,0c0,0,0-0.6,0-0.5l0-0.5h0h0h0l0,0.8v0.1l0,0.5l0,0.6h0
					l-0.1-0.6l0-0.3l-0.1-0.1l-0.1-0.1c0,0,0,0,0-0.1l-0.1-0.1l0,0l-0.1,0.6l-0.2,0.7h0l0-0.7c0,0,0-0.3,0-0.3l0-0.2
					c0,0,0-0.1,0-0.1l0-0.1c0,0,0,0,0,0l0-0.1c0,0,0,0,0,0l0-0.1l-0.2-0.1l-0.2,0l0,0l0.2-0.1l0.1-0.1l0,0l0,0c0,0,0,0,0,0l0.3-0.1
					c0,0,0.4,0,0.4-0.1v0c0,0-0.4,0-0.4,0l-0.2,0l-0.1,0c0,0-0.1,0-0.1,0l-0.1,0c0,0,0,0,0-0.1c0,0,0,0,0,0l0.1,0l0.4,0l0.4-0.1
					c0,0,0,0,0,0v-0.2v-0.1l-0.3-0.1l-0.4-0.1c0,0-0.2,0-0.2-0.1l0,0c0,0,0.1,0,0.1,0l0.4-0.1l0.1,0l0.1-0.1l0,0l0,0l-0.9-0.1
					c0,0-0.8-0.1-0.8-0.1v0c0,0,0.8,0,0.8,0l0.4,0l0.2,0l-0.7,0c0,0-0.7,0-0.7,0v0c0,0,1,0,1,0l1,0c0,0,0,0,0,0L54,19.8l0.1,0l0.4,0
					v0c0,0-0.3,0-0.3,0l-0.2,0l-0.2,0l-0.1,0c0,0,0,0,0,0l-0.1,0l0,0l-0.2,0.8c0,0,0,0.7,0,0.7h0l0-0.7c0,0,0-0.4,0-0.4l0-0.2
					c0,0,0-0.1,0-0.1l-0.3-0.3c0,0-0.2,0.9-0.2,0.9l0,0.8h0.2l0.1-0.9c0,0,0.1-0.5,0.1-0.5l0.1-0.3c0,0,0-0.1,0-0.1l0.7-0.1
					c0,0,0.7-0.1,0.7-0.1v0c0,0-0.7,0-0.6,0l-0.3-0.3c0,0-0.1-0.3-0.1-0.3l-0.1,0l0,0.3l1.5,0.2l1.1,0.1h0l-1.1-0.1l-0.5,0l-0.3,0
					l-0.2,0l-0.2,0l-0.1,0c0,0,0,0,0,0l0,0c0,0,0,0,0,0l0-0.1l0,0l0-0.3c0,0,0,0,0,0c0,0,0,0,0,0l0,0l15.8,1.1c0,0,0,0,0,0l0.2,0.5
					c0,0,0,0,0,0L69,20.5c0,0-0.5,0-0.5,0v0.1c0,0,0,0,0,0l0.1,0.1c0,0-0.1,0-0.1,0V21c0,0,0.4,0,0.4,0l0.1,0.2c0,0,0.1,0,0.1,0
					l0,0.1L69,21.4c0,0,0,0,0,0l-0.4,0.1l-0.1,0.1l-0.1,0.1l0,0.1l0,0.1l0,0l0.1,0.1c0,0,0,0,0,0l0,0.2c0,0,0,0,0,0l-0.1,0.3
					l-0.9,0.1l-0.9,0.1c0,0,0,0,0,0l0.9,0.1l0.4,0.1l0.4,0.1c0,0,0.3,0,0.3,0v0.1l-0.4,0.5l-0.2,0.1c0,0-0.1,0-0.1,0l-0.1,0.1
					l-0.1,0.1L67.6,24l-0.3,0.2L67,24.3L67,24.5l-0.1,0.2l-0.1,0.2l-1.1,0.2l-1.1,0.2v0.2l1.1,0.2l0.5,0.2l0.3,0.2l0.2,0.1l0.2,0.1
					l0.1,0l0.1,0l0.1,0c0,0,0,0,0,0l0.1,0.1c0,0,0,0,0,0l0.1,0.1l0.1,0.1l0.1,0.1l0.1,0l0.2,0l0.1,0.1c0,0,0,0,0,0L68,27
					c0,0,0,0,0,0l0,0.1c0,0,0.2,0,0.2,0l0.2,0.1v0.3v0.2c0,0,0,0,0,0l-0.1,0.6l0.1,0.2v0.2l-0.2,0.5l-0.1,0.2c0,0-0.1,0-0.1,0
					l-0.1,0.2l0,0.2l0,0.2l0,0.2l0,0.2l0,0.2l0,0.2l0,0.1l0,0.2l0,0.2l0,0.2l0.2,0.3l0.1,0.1l0.4,0.2l0.1,0.1l0.4,0.3l0.2,0.1
					c0,0,0,0,0,0l0.1,0.2l0.2,0.2l0.1,0.2l0.2,0.2l0.2,0.1l0.3,0.1l0.4,0.1l0.3,0l0.3,0.2l0.3,0.3L72,36l0.2,1.5h0.2h0.2
					c0,0,0-1.5,0-1.5l0.1-1l0.2-0.4c0,0,0-0.3,0-0.2l0.1,0l0.2,0.1l0.2,0.1l0.1,0.1c0,0,0,0,0,0.1c0,0,0,0,0,0l0.1,0.1l0.1,0.2
					c0,0,0,0,0,0l0,0.1l0.1,0.1c0,0,0,0,0,0l0,0.2l0,0.1c0,0-0.2,0-0.2,0l-0.2,0.1c0,0,0,0,0,0l0,0.3l0,0.1v0.1c0,0,0,0,0,0l0.2,0.1
					l0.1,0.1l0.1,0.3l0.1,0.3l0.2,0.5l0.1,0.2c0,0,0,0,0,0l0,0.2l0.1,0.1l0.1,0.1l0.2,0.2l0.1,0.1l0,0.1l0.1,0l0.1,0l0.2,0.1
					l0.3,0.1l0.3,0l0.2,0l0.3-0.1l0.1,0c0,0,0,0,0,0l0.2,0c0,0,0,0,0,0l0.3,0.1l0.3,0.2l0.2,0.1l0.2,0.1l0.2,0.1l0.2,0.1l0.2,0.1
					l0.4,0.3l0.2,0.1L79,40l0.3,0.3l0.1,0.1l0.1,0.1l0.1,0.1c0,0,0,0,0,0l0,0.1c0,0,0,0,0,0l0,0.1c0,0,0,0,0,0L79.5,41c0,0,0,0,0,0
					l-0.1,0.1c0,0,0,0,0,0l-0.1,0.1c0,0,0,0,0,0l-0.6,0.1l-0.2,0l-0.1,0.1l-0.1,0.1l0,0.1l0.1,0.1l0,0.3L78.3,42l0.1,0.2l0.1,0.1
					l0.2,0.1l0.2,0l0.2,0.1l0.2,0.1c0,0,0,0,0,0l0,0.1c0,0,0,0,0,0l0,0.1l0,0.1l0,0.1l0,0.1l0.2,0.3l0.1,0.1l0.1,0.3l0.1,0.1
					l0.1,0.1l0.1,0.1l0.1,0.1l0.4,0.2l0.2,0.1l0.2,0.2l0.2,0.1l0.2,0.1l0.2,0.1l0.2,0.2l0.1,0.2l0.1,0.1l0.1,0.2l0.2,0.2l0.2,0.1
					l0.1,0.1l0.1,0.1l0.2,0.1h0.1l0.1,0l0.1,0l0.1-0.1l0.2-0.2l0.1-0.1c0,0,0,0,0,0l0.1-0.1c0,0,0,0,0,0l0.2,0c0,0,0,0,0,0l0.1,0
					c0,0,0,0,0,0l0.2,0.3l0,0.1l0,0.1l0.1,0.1l0.1,0.2l0.2,0.2l0.1,0.1l0.1,0.1l0.1,0.1l0.2,0.1l0.1,0l0.2,0.1l0.1,0.1c0,0,0,0,0,0
					l0.1,0.1c0,0,0,0,0,0l0.1,0.2l0.1,0.3c0,0,0,0,0,0l0,0.1l0,0.1l0.1,0.2l0.2,0.2l0.1,0.1l0.1,0.1l0.1,0.1l0.1,0.2l0.1,0.2
					l0.1,0.3l0.1,0.6l0,0.6l0,0.2l0,0.1l0,0.2l0.1,0.4l0,0.1l0.1,0.1l0.1,0.1l0.2,0.3l0.2,0.2l0.1,0.1l0.2,0.1l0.7,0.4l0.2,0.1
					l0.4,0.2l0.4,0.2l0.2,0.1c0,0,0,0,0,0l0.1,0.1l0.3,0.2l0.1,0.1l0.1,0.1l0.1,0.1l0.1,0.1l0.1,0.2c0,0,0,0,0,0l0,0.1l0.1,0.2
					l0,0.2l0,0.1c0,0,0,0,0,0l0,0.1l-0.1,0.1l-0.1,0.1l-0.1,0.1l-0.2,0.1c0,0,0,0,0,0l-0.2,0l-0.2,0.1l-0.2,0l-1.1,0.3l-0.2,0
					l-0.2,0l-0.2,0l-0.2,0.1l-0.1,0l-0.3,0.1L87,56.5l-0.1,0l-0.1,0.1l0,0.1l0,0.1l0,0.1l0.1,0.1L87,57l0.2,0.1l0.2,0.1l0.2,0.1
					l0.2,0.1l0.2,0.1c0,0,0,0,0,0l0.2,0.1c0,0,0,0,0,0l0.2,0.3l0.1,0.2l0.1,0.1l0.1,0.1l0.2,0l0.3,0l0.4,0l0.2,0l0.2,0l0.2,0.1
					c0,0,0,0,0,0l0.2,0.1l0.2,0.1l0.2,0.1c0,0,0,0,0,0l0.2,0.2l0.2,0.2l0.1,0.2l0.2,0.3l0.2,0.4l0.1,0.1c0,0,0,0,0,0l0,0.1l0,0.1
					l0,0.2c0,0,0,0,0,0l-0.1,0.1L91.8,61l-0.1,0.1l-0.1,0.2l-0.2,0.3l-0.1,0.1L91.2,62l0,0.4l0.1,0.3l0.1,0.2l0.1,0.2l0.1,0.2
					l0.1,0.2l0.2,0.2l0.3,0.4l0.2,0.2l0.5,0.4l0.2,0.1l0.2,0.2c0,0,0,0,0,0l0.3,0.6l0.2,0.4l0.2,0.3l0.2,0.4l0.2,0.4l0.1,0.3
					l0.3,0.7l0.3,0.5l0.2,0.1c0,0,0,0,0,0l0.1,0.2l0.1,0.2l0.2,0.2l0.2,0.2c0,0,0,0,0,0l0,0c0,0,0,0,0,0l0,0c0,0,0,0,0,0l0,0l0,0
					c0,0,0,0,0.1,0l0,0c0,0,0,0,0,0.1l0,0l0,0c0,0,0,0,0,0l0,0.1l0.1,0c0,0,0,0,0,0l0,0c0,0,0,0,0,0l0,0.1c0,0,0,0,0,0.1l0,0
					c0,0,0,0,0,0l0,0l0,0c0,0-0.3,0-0.3,0c0,0-0.3,0.1-0.3,0.1v0c0,0,0.4,0,0.3,0l0.1,0l0,0l0,0.1l0,0l0,0.1l0.1,0.2c0,0,0,0,0,0
					l0,0.1l0,0.1l0.1,0.1l0.1,0.1c0,0,0,0,0,0l0,0.1l0.1,0.1l0.1,0.1l0.1,0.2l0.1,0.1l0,0.1l0.1,0c0,0,0,0,0,0l0.1,0.1l0,0.1
					l0.1,0.1l0,0.1c0,0,0,0,0,0l0.1,0.2l0,0.1l0,0.1l0.1,0.2l0.1,0.3l0.2,0.2c0,0,0,0,0,0l0.1,0.2l0.1,0.1l0.1,0.1c0,0,0,0,0,0l0,0
					l0.1,0.1l0,0l0.1,0l0,0l0.1,0c0,0,0,0,0,0l0,0.1l0,0c0,0,0,0,0,0l0.1,0.1c0,0-0.5,0-0.5,0l-0.5,0v0.1l0.5,0.1l-0.2,0l-0.2,0
					c0,0,0,0,0,0l0.5,0.1l0.4,0c0,0,0.2,0,0.2,0.1l0.1,0.1c0,0,0,0,0,0l0,0.1l0.1,0c0,0,0,0,0,0l0,0c0,0,0,0,0,0l0,0.1c0,0,0,0,0,0
					l0,0.1c0,0,0,0,0,0.1l0,0l-0.1,0l-0.1,0c0,0,0,2.8,0,2.8l0,2.8h0l-0.1-2.8l0-1.4l-0.5-0.7l-0.6-0.3v-0.2l0.5,0.1l0.3,0.1l0.1,0
					l0.1,0l0.1,0.1l0.1,0.1l0.1,0.2l0,0.1l0.1,0.2l0.1,0.1l0,0c0,0,0,0,0,0l0,0.1l0,0.1l0,0l0,0c0,0,0,0,0,0l0.1,0.2l0.1,0.2l0,0
					l0,0c0,0,0,0,0,0l0.1,0.1c0,0,0,0,0,0l0,0.1l0,0.1l0,0.1l0,0l0,0.1l0,0.1l0,0l0,0c0,0,0,0,0,0l0,0l0.2,0l0-0.1
					c0,0-0.1,0.1,0,0.1l0,0.1c0,0,0,0,0,0.1l0,0l0,0c0,0,0,0,0,0l0,0c0,0,0,0,0,0.1l0,0l0,0.1c0,0,0,0,0,0l0,0.1c0,0,0,0,0,0l0,0
					c0,0,0,2,0,2l-0.1,2C99.8,80.9,99.8,80.9,99.8,80.9z M99.8,77.8L99.8,77.8L99.8,77.8L99.8,77.8L99.8,77.8l0.1-0.1c0,0,0,0,0,0
					l0,0l0,0c0,0,0,0,0,0l0,0c0,0,0,0,0,0l0,0l0,0l0,0c0,0,0,0,0,0l0,0c0,0,0,0,0,0l0-0.1l0,0l-0.1,0c0,0,0,0,0,0l0,0c0,0,0,0,0,0
					l-0.1-0.1l0,0c0,0,0,0,0,0l0-0.1c0,0,0,0,0,0l0,0.1l0,0.1l0,0.1c0,0,0,0,0,0l0,0.1l0,0.1l0,0l0,0l0.2-0.1c0,0,0.1,0,0.1,0l0,0.1
					c0,0,0,0,0,0L99.8,77.8z M53.5,24.4L53.5,24.4L53.5,24.4L53.5,24.4c0.1,0,0.1-0.1,0.1-0.1l0,0c0,0,0,0,0,0l0.1,0l0,0l0.1,0l0,0
					l0.1-0.1c0,0,0,0,0,0l0,0l-0.1,0l0,0l-0.1,0.1l0,0c0,0,0,0,0,0l-0.2,0l-0.1,0L53.5,24.4L53.5,24.4z M53.9,22.9L53.9,22.9
					L53.9,22.9l0.2-0.1L53.9,22.9L53.9,22.9L53.9,22.9z"/>
			</g>
			<g>
				<path fill="#FDBA12" stroke="#212121" stroke-width="0.25" stroke-miterlimit="10" d="M45.1,10.6c0.3-0.7,0.7-1.2,1.1-1.7
					c0.5-0.5,1.1-0.9,1.7-1.1c0.6-0.3,1.3-0.4,2.1-0.4H50h0h0.1c0.7,0,1.4,0.1,2.1,0.4c0.7,0.3,1.2,0.7,1.7,1.1
					c0.5,0.5,0.9,1.1,1.1,1.7c0.3,0.7,0.4,1.3,0.4,2.1c0,0.5-0.1,1.1-0.2,1.5c-0.1,0.5-0.4,0.9-0.6,1.3c0,0-4.2,6.3-4.2,6.3L50,22.3
					l0,0l-0.4-0.6l-4.1-6.1c0,0,0,0,0-0.1c-0.3-0.4-0.5-0.9-0.6-1.3c-0.1-0.5-0.2-1-0.2-1.5C44.6,12,44.8,11.3,45.1,10.6z"/>
				<ellipse opacity="0.25" fill="#505150" cx="50.1" cy="23.5" rx="1.6" ry="0.7"/>
			</g>
		</g>
	</g>
</g>
<g>
	<g>
		<path opacity="0.5" fill="#B4B4B4" d="M286.4,250.1l-0.2-0.3l-0.2-0.8l-1.1-1.7l-0.4-1.1l-0.8-1.2l-0.2-1.1l-0.3-2.6l-0.2-2.6
			l-0.3-2.8l-0.5-0.2l-0.9,0.3l-0.7-0.4l-0.8-0.3l-1-0.2l-0.8-0.4l-0.4-0.5l-0.5-0.1l-0.6,0.4l-1.2,0.1l-0.1-0.3l-0.2,0l-0.8,0.5
			l-0.5-0.2l-1.2,0.8l-0.6,0.2l-0.9-0.2l-0.9-0.3l-2.1,0.4l-0.7,0.1l-1.3-0.5L264,235l-0.9-0.3l-0.3-0.6l-2.2-0.3l-0.6-0.5l-1.1-0.1
			l-0.7-0.2l-1.2-0.2l-0.7-0.8l-0.5-0.1l-0.4,0.1l-0.5,0l-0.5-0.2l-1.2-1l0-0.6l-0.2-4.5l0.1-5.7h-14.9l0,4.6l-0.1,15l-0.3,6.4
			l-8.4-0.1l-7.3-0.3v0.1v0.2v0v0.2v0.1v0v0v0v0v0v0v0v0v0v0v0.1v0v0v0.1v0.2v0v0.1v0.1v0.1v0v0v0.3v0.1v0.1v0v0v0.1v0v0.1v0.1v0v0
			v0.1v0.2v0.1v0.3v0v0.1l0.3,0.2l0.4,0l0.1,0.2l0.4,0.7l2.1,2.1l0.4,0.4l1.4,0.5l0.1,0.1l0.3,0.4l0.5,0.2l0.2,0.7l1,1.7l0.1,2.2
			l0.7,1.3l2.1,2l0.3,0.1l0,0h0l0.1,0l0.1,0.1l0.5,0.4l0,0.5v0.2l1.5,0.6l0.8,0.1l0.6,0.3l0.8,0.2l0.7-0.7l1.1-1.7l0.2-1l0.6-0.9
			l1-0.4l1.2-0.5l0.9,0.6l2,0.1l1.9,0.2l0.7,0.5l0,0.3l0.8,0.8l1.7,1.4l0.1,0.4l0.5,0.5l0.3,1.1l1.6,3.3l0,0.6l0.3,0.2l0.9,0.4
			l1.1,1.7l1,1.1l0.9,0.3l0.5,0.6l-0.3,1.2l0.2,0.3l0.2,0.1l0,0l0.2,0.1l0,0.9l-0.2,0.2l0.2,0.6l0.9,0.5l0.4,1.8l0.1,0.2v0l0.5,0.8
			l2.1,0.8l0.7,0.1l0,0l0,0l0,0l0-0.1l0,0l0,0l0,0.1l0,0l0,0l0,0l0.7,0.1l1.2,0.8l0.9,0.1l0.3-0.2l1.5,0.2l1.6,1l0.8-0.6l0.2-0.4
			l-0.5-0.7l-0.4-1.7l-0.6-1.9l-0.3-0.7l0.2-1.2l0.3-1.1l0.3-1.3l0.3-1.5l-0.6-0.5l0.2-0.5l1.1-0.1l1-1.6l0.9-0.2l1.5-1.1l0.5-0.4
			l1.7-1l1.5-0.7l1.4-1l0.7-0.6l1.5-1.5l0.3-0.2l0.6-0.4l0.7-0.6l0.2-0.5l2.6-1.4l1.5-0.5l-0.2-1.2l0.3-0.8l0.1-2l0.1-0.7l-0.3-0.8
			l0.7-1.2L286.4,250.1z"/>
		<polygon fill="#282828" points="222.3,249.2 222,249.1 222,249 222,248.9 222,248.6 222,248.5 222,248.3 222,248.2 222,248.1 
			222,248.1 222,248 222,247.8 222,247.8 222,247.8 222,247.7 222,247.7 222,247.6 222,247.5 222,247.3 222,247.2 222,247.2 
			222,247.1 222,247 222,246.9 222,246.9 222,246.7 222,246.5 222,246.5 222,246.4 222,246.3 222,246.3 222,246.3 222,246.3 
			222,246.3 222,246.2 222,246.2 222,246.2 222,246.2 222,246.1 222,246.1 222,246.1 222,245.9 222,245.9 222,245.7 222,245.6 
			221.3,245.6 219.3,245.5 219.7,246.7 220.2,246.8 221,247.6 221.5,248.8 222.8,249.3 222.9,249.4 222.7,249.3 		"/>
	</g>
</g>
<g>
	<g>
		<path d="M17.6,195.3l-5.9-16.7h2.4l4.8,14.5h0l4.8-14.5H26l-5.9,16.7H17.6z"/>
		<path d="M27.6,181v-2.4h2v2.4H27.6z M29.6,183.2v12.1h-2v-12.1H29.6z"/>
		<path d="M34.4,183.2v1.9h0c0.8-1.5,2.1-2.2,3.9-2.2c0.8,0,1.5,0.1,2,0.3s1,0.5,1.3,0.9c0.3,0.4,0.6,0.9,0.7,1.4
			c0.1,0.5,0.2,1.1,0.2,1.8v8h-2v-8.2c0-0.7-0.2-1.3-0.7-1.8c-0.4-0.4-1-0.7-1.8-0.7c-0.6,0-1.1,0.1-1.6,0.3
			c-0.4,0.2-0.8,0.5-1.1,0.8c-0.3,0.3-0.5,0.7-0.7,1.2c-0.1,0.5-0.2,1-0.2,1.5v6.8h-2v-12.1H34.4z"/>
		<path d="M50.4,183.2v1.8H48v7.5c0,0.2,0,0.4,0.1,0.6c0,0.1,0.1,0.2,0.2,0.3s0.3,0.1,0.5,0.2s0.4,0,0.8,0h0.9v1.8h-1.5
			c-0.5,0-1,0-1.3-0.1c-0.4-0.1-0.7-0.2-0.9-0.4c-0.2-0.2-0.4-0.5-0.5-0.8c-0.1-0.3-0.2-0.8-0.2-1.4V185H44v-1.8H46v-3.6h2v3.6H50.4
			z"/>
		<path d="M51.8,186.8c0.2-0.8,0.6-1.4,1.1-2s1.1-1,1.8-1.3c0.7-0.3,1.6-0.5,2.5-0.5c1,0,1.8,0.2,2.5,0.5s1.3,0.8,1.8,1.3
			c0.5,0.6,0.9,1.2,1.1,2c0.2,0.8,0.4,1.6,0.4,2.5s-0.1,1.7-0.4,2.5c-0.2,0.8-0.6,1.4-1.1,2c-0.5,0.6-1.1,1-1.8,1.3
			c-0.7,0.3-1.6,0.5-2.5,0.5c-1,0-1.8-0.2-2.5-0.5c-0.7-0.3-1.3-0.8-1.8-1.3c-0.5-0.6-0.9-1.2-1.1-2c-0.2-0.8-0.4-1.6-0.4-2.5
			S51.6,187.6,51.8,186.8z M53.8,191.2c0.2,0.6,0.5,1,0.8,1.4c0.3,0.4,0.7,0.7,1.2,0.9c0.5,0.2,0.9,0.3,1.5,0.3s1-0.1,1.5-0.3
			c0.5-0.2,0.9-0.5,1.2-0.9c0.3-0.4,0.6-0.9,0.8-1.4c0.2-0.6,0.3-1.2,0.3-2c0-0.7-0.1-1.4-0.3-2s-0.5-1-0.8-1.4
			c-0.3-0.4-0.7-0.7-1.2-0.9s-0.9-0.3-1.5-0.3s-1,0.1-1.5,0.3s-0.9,0.5-1.2,0.9c-0.3,0.4-0.6,0.9-0.8,1.4s-0.3,1.2-0.3,2
			C53.5,190,53.6,190.7,53.8,191.2z"/>
		<path d="M67.3,183.2v1.9h0c0.8-1.5,2.1-2.2,3.9-2.2c0.8,0,1.5,0.1,2,0.3s1,0.5,1.3,0.9c0.3,0.4,0.6,0.9,0.7,1.4
			c0.1,0.5,0.2,1.1,0.2,1.8v8h-2v-8.2c0-0.7-0.2-1.3-0.7-1.8c-0.4-0.4-1-0.7-1.8-0.7c-0.6,0-1.1,0.1-1.6,0.3
			c-0.4,0.2-0.8,0.5-1.1,0.8c-0.3,0.3-0.5,0.7-0.7,1.2c-0.1,0.5-0.2,1-0.2,1.5v6.8h-2v-12.1H67.3z"/>
	</g>
</g>
<g>
	<circle fill="#8ABABA" stroke="#212121" stroke-width="0.25" stroke-miterlimit="10" cx="14.7" cy="213.7" r="3"/>
	<g>
		<g>
			<path d="M23.6,207.5v4.3h5.3v-4.3h1.3v10h-1.3v-4.6h-5.3v4.6h-1.3v-10H23.6z"/>
			<path d="M37,217.5v-1.1h0c-0.3,0.4-0.6,0.8-1,1c-0.4,0.2-0.9,0.3-1.4,0.3c-0.5,0-0.9-0.1-1.2-0.2s-0.6-0.3-0.8-0.5
				c-0.2-0.2-0.3-0.5-0.4-0.8c-0.1-0.3-0.1-0.7-0.1-1.1v-4.8h1.2v4.9c0,0.4,0.1,0.8,0.4,1.1c0.3,0.3,0.6,0.4,1.1,0.4
				c0.4,0,0.7-0.1,0.9-0.2c0.3-0.1,0.5-0.3,0.7-0.5c0.2-0.2,0.3-0.4,0.4-0.7c0.1-0.3,0.1-0.6,0.1-0.9v-4.1h1.2v7.2H37z"/>
			<path d="M45,217.1c-0.5,0.4-1.2,0.6-2,0.6c-0.6,0-1.1-0.1-1.5-0.3s-0.8-0.4-1.1-0.8c-0.3-0.3-0.5-0.7-0.7-1.2s-0.2-1-0.2-1.5
				c0-0.6,0.1-1.1,0.3-1.5c0.2-0.5,0.4-0.9,0.7-1.2c0.3-0.3,0.7-0.6,1.1-0.8c0.4-0.2,0.9-0.3,1.4-0.3c0.6,0,1.2,0.1,1.6,0.4
				c0.4,0.3,0.8,0.6,1,1c0.3,0.4,0.4,0.9,0.5,1.3c0.1,0.5,0.1,0.9,0.1,1.4h-5.4c0,0.3,0,0.6,0.1,0.9s0.2,0.5,0.4,0.8
				c0.2,0.2,0.4,0.4,0.7,0.5c0.3,0.1,0.6,0.2,1,0.2c0.5,0,0.9-0.1,1.2-0.4s0.5-0.6,0.6-1.1H46C45.9,216,45.5,216.6,45,217.1z
				 M44.7,212.4c-0.1-0.3-0.3-0.5-0.4-0.7c-0.2-0.2-0.4-0.3-0.6-0.4c-0.2-0.1-0.5-0.2-0.8-0.2c-0.3,0-0.6,0.1-0.8,0.2
				s-0.5,0.3-0.6,0.4c-0.2,0.2-0.3,0.4-0.4,0.7c-0.1,0.2-0.2,0.5-0.2,0.8h4.2C44.9,212.9,44.8,212.7,44.7,212.4z"/>
			<path d="M51.8,211.5c-0.3-0.3-0.7-0.4-1.2-0.4c-0.4,0-0.8,0.1-1.1,0.2c-0.3,0.2-0.5,0.4-0.7,0.6s-0.3,0.6-0.4,0.9
				c-0.1,0.3-0.1,0.7-0.1,1.1c0,0.3,0,0.7,0.1,1s0.2,0.6,0.4,0.8c0.2,0.2,0.4,0.4,0.7,0.6s0.6,0.2,1,0.2c0.6,0,1-0.2,1.4-0.5
				c0.3-0.3,0.5-0.7,0.6-1.3h1.2c-0.1,0.9-0.5,1.6-1,2.1c-0.5,0.5-1.3,0.7-2.2,0.7c-0.6,0-1-0.1-1.5-0.3s-0.8-0.4-1.1-0.8
				c-0.3-0.3-0.5-0.7-0.6-1.2c-0.1-0.5-0.2-0.9-0.2-1.5c0-0.5,0.1-1,0.2-1.5s0.4-0.9,0.6-1.2c0.3-0.4,0.6-0.6,1.1-0.8
				s0.9-0.3,1.5-0.3c0.4,0,0.8,0,1.2,0.1c0.4,0.1,0.7,0.2,1,0.5c0.3,0.2,0.5,0.5,0.7,0.8c0.2,0.3,0.3,0.7,0.3,1.1h-1.2
				C52.3,212.1,52.1,211.8,51.8,211.5z"/>
			<path d="M54.8,212.4c0.1-0.5,0.4-0.9,0.7-1.2c0.3-0.3,0.7-0.6,1.1-0.8c0.4-0.2,0.9-0.3,1.5-0.3c0.6,0,1.1,0.1,1.5,0.3
				c0.4,0.2,0.8,0.5,1.1,0.8c0.3,0.3,0.5,0.7,0.7,1.2s0.2,1,0.2,1.5c0,0.5-0.1,1-0.2,1.5c-0.1,0.5-0.4,0.9-0.7,1.2
				c-0.3,0.3-0.7,0.6-1.1,0.8c-0.4,0.2-0.9,0.3-1.5,0.3c-0.6,0-1.1-0.1-1.5-0.3c-0.4-0.2-0.8-0.5-1.1-0.8c-0.3-0.3-0.5-0.7-0.7-1.2
				c-0.1-0.5-0.2-1-0.2-1.5C54.6,213.4,54.7,212.9,54.8,212.4z M56,215.1c0.1,0.3,0.3,0.6,0.5,0.9s0.4,0.4,0.7,0.5
				c0.3,0.1,0.6,0.2,0.9,0.2c0.3,0,0.6-0.1,0.9-0.2c0.3-0.1,0.5-0.3,0.7-0.5c0.2-0.2,0.4-0.5,0.5-0.9c0.1-0.3,0.2-0.7,0.2-1.2
				c0-0.4-0.1-0.8-0.2-1.2c-0.1-0.3-0.3-0.6-0.5-0.9c-0.2-0.2-0.4-0.4-0.7-0.5c-0.3-0.1-0.6-0.2-0.9-0.2c-0.3,0-0.6,0.1-0.9,0.2
				c-0.3,0.1-0.5,0.3-0.7,0.5c-0.2,0.2-0.4,0.5-0.5,0.9c-0.1,0.3-0.2,0.7-0.2,1.2C55.8,214.3,55.9,214.7,56,215.1z"/>
			<path d="M67,213.1v1.1h-4v-1.1H67z"/>
			<path d="M72.5,207.5c0.2,0,0.4,0,0.7,0c0.2,0,0.5,0,0.7,0c0.2,0,0.5,0.1,0.7,0.1c0.2,0,0.4,0.1,0.5,0.2c0.3,0.2,0.6,0.5,0.8,0.8
				c0.2,0.3,0.3,0.8,0.3,1.3c0,0.5-0.1,1-0.4,1.4c-0.3,0.4-0.6,0.7-1.1,0.9v0c0.6,0.1,1.1,0.4,1.4,0.8c0.3,0.4,0.5,1,0.5,1.6
				c0,0.4-0.1,0.7-0.2,1.1c-0.1,0.3-0.3,0.7-0.6,0.9c-0.3,0.3-0.6,0.5-1,0.6c-0.4,0.2-0.8,0.2-1.3,0.2h-4.8v-10H72.5z M72.9,211.8
				c0.8,0,1.3-0.1,1.6-0.4c0.3-0.3,0.5-0.7,0.5-1.2c0-0.4-0.1-0.6-0.2-0.8c-0.1-0.2-0.3-0.4-0.5-0.5c-0.2-0.1-0.4-0.2-0.7-0.2
				c-0.3,0-0.5,0-0.8,0h-2.7v3.2H72.9z M73.6,216.4c0.6,0,1-0.2,1.4-0.5c0.3-0.3,0.5-0.8,0.5-1.3c0-0.3-0.1-0.6-0.2-0.8
				c-0.1-0.2-0.3-0.4-0.5-0.5c-0.2-0.1-0.4-0.2-0.7-0.3c-0.3-0.1-0.5-0.1-0.8-0.1h-3v3.5H73.6z"/>
			<path d="M78.1,212.4c0.1-0.5,0.4-0.9,0.7-1.2c0.3-0.3,0.7-0.6,1.1-0.8c0.4-0.2,0.9-0.3,1.5-0.3c0.6,0,1.1,0.1,1.5,0.3
				c0.4,0.2,0.8,0.5,1.1,0.8c0.3,0.3,0.5,0.7,0.7,1.2s0.2,1,0.2,1.5c0,0.5-0.1,1-0.2,1.5c-0.1,0.5-0.4,0.9-0.7,1.2
				c-0.3,0.3-0.7,0.6-1.1,0.8c-0.4,0.2-0.9,0.3-1.5,0.3c-0.6,0-1.1-0.1-1.5-0.3c-0.4-0.2-0.8-0.5-1.1-0.8c-0.3-0.3-0.5-0.7-0.7-1.2
				c-0.1-0.5-0.2-1-0.2-1.5C77.9,213.4,78,212.9,78.1,212.4z M79.3,215.1c0.1,0.3,0.3,0.6,0.5,0.9s0.4,0.4,0.7,0.5
				c0.3,0.1,0.6,0.2,0.9,0.2c0.3,0,0.6-0.1,0.9-0.2c0.3-0.1,0.5-0.3,0.7-0.5c0.2-0.2,0.4-0.5,0.5-0.9c0.1-0.3,0.2-0.7,0.2-1.2
				c0-0.4-0.1-0.8-0.2-1.2c-0.1-0.3-0.3-0.6-0.5-0.9c-0.2-0.2-0.4-0.4-0.7-0.5c-0.3-0.1-0.6-0.2-0.9-0.2c-0.3,0-0.6,0.1-0.9,0.2
				c-0.3,0.1-0.5,0.3-0.7,0.5c-0.2,0.2-0.4,0.5-0.5,0.9c-0.1,0.3-0.2,0.7-0.2,1.2C79.2,214.3,79.2,214.7,79.3,215.1z"/>
			<path d="M87.5,207.5v10h-1.2v-10H87.5z"/>
			<path d="M90.3,215.9c0.1,0.2,0.3,0.3,0.4,0.4c0.2,0.1,0.4,0.2,0.6,0.2c0.2,0,0.5,0.1,0.7,0.1c0.2,0,0.4,0,0.6,0
				c0.2,0,0.4-0.1,0.6-0.2s0.3-0.2,0.4-0.3c0.1-0.1,0.2-0.3,0.2-0.6c0-0.3-0.1-0.5-0.4-0.7c-0.2-0.2-0.5-0.3-0.9-0.4
				c-0.3-0.1-0.7-0.2-1.1-0.3c-0.4-0.1-0.8-0.2-1.1-0.3c-0.4-0.1-0.6-0.3-0.9-0.6c-0.2-0.3-0.4-0.6-0.4-1.1c0-0.4,0.1-0.7,0.2-0.9
				c0.2-0.3,0.4-0.5,0.6-0.6c0.3-0.2,0.5-0.3,0.9-0.4c0.3-0.1,0.6-0.1,1-0.1c0.4,0,0.8,0,1.1,0.1c0.3,0.1,0.7,0.2,0.9,0.4
				c0.3,0.2,0.5,0.4,0.6,0.7c0.2,0.3,0.3,0.7,0.3,1.1h-1.2c0-0.2-0.1-0.4-0.2-0.6c-0.1-0.2-0.2-0.3-0.4-0.4
				c-0.2-0.1-0.3-0.2-0.5-0.2s-0.4-0.1-0.6-0.1c-0.2,0-0.4,0-0.5,0c-0.2,0-0.3,0.1-0.5,0.1s-0.3,0.2-0.4,0.3
				c-0.1,0.1-0.1,0.3-0.1,0.5c0,0.2,0.1,0.4,0.2,0.5c0.1,0.1,0.3,0.2,0.6,0.3c0.2,0.1,0.5,0.2,0.8,0.2s0.6,0.1,0.8,0.2
				c0.3,0.1,0.6,0.1,0.9,0.2s0.5,0.2,0.8,0.4c0.2,0.2,0.4,0.3,0.5,0.6c0.1,0.2,0.2,0.5,0.2,0.9c0,0.4-0.1,0.8-0.3,1.1
				c-0.2,0.3-0.4,0.5-0.7,0.7s-0.6,0.3-1,0.4c-0.4,0.1-0.7,0.1-1.1,0.1c-0.4,0-0.8,0-1.1-0.1c-0.4-0.1-0.7-0.2-1-0.4
				c-0.3-0.2-0.5-0.4-0.7-0.8c-0.2-0.3-0.3-0.7-0.3-1.1h1.2C90.1,215.5,90.2,215.7,90.3,215.9z"/>
			<path d="M96.2,212.4c0.1-0.5,0.4-0.9,0.7-1.2c0.3-0.3,0.7-0.6,1.1-0.8c0.4-0.2,0.9-0.3,1.5-0.3c0.6,0,1.1,0.1,1.5,0.3
				c0.4,0.2,0.8,0.5,1.1,0.8c0.3,0.3,0.5,0.7,0.7,1.2s0.2,1,0.2,1.5c0,0.5-0.1,1-0.2,1.5c-0.1,0.5-0.4,0.9-0.7,1.2
				c-0.3,0.3-0.7,0.6-1.1,0.8c-0.4,0.2-0.9,0.3-1.5,0.3c-0.6,0-1.1-0.1-1.5-0.3c-0.4-0.2-0.8-0.5-1.1-0.8c-0.3-0.3-0.5-0.7-0.7-1.2
				c-0.1-0.5-0.2-1-0.2-1.5C96,213.4,96,212.9,96.2,212.4z M97.4,215.1c0.1,0.3,0.3,0.6,0.5,0.9s0.4,0.4,0.7,0.5
				c0.3,0.1,0.6,0.2,0.9,0.2c0.3,0,0.6-0.1,0.9-0.2c0.3-0.1,0.5-0.3,0.7-0.5c0.2-0.2,0.4-0.5,0.5-0.9c0.1-0.3,0.2-0.7,0.2-1.2
				c0-0.4-0.1-0.8-0.2-1.2c-0.1-0.3-0.3-0.6-0.5-0.9c-0.2-0.2-0.4-0.4-0.7-0.5c-0.3-0.1-0.6-0.2-0.9-0.2c-0.3,0-0.6,0.1-0.9,0.2
				c-0.3,0.1-0.5,0.3-0.7,0.5c-0.2,0.2-0.4,0.5-0.5,0.9c-0.1,0.3-0.2,0.7-0.2,1.2C97.2,214.3,97.3,214.7,97.4,215.1z"/>
			<path d="M105.5,210.3v1.1h0c0.5-0.9,1.3-1.3,2.4-1.3c0.5,0,0.9,0.1,1.2,0.2s0.6,0.3,0.8,0.5c0.2,0.2,0.3,0.5,0.4,0.8
				c0.1,0.3,0.1,0.7,0.1,1.1v4.8h-1.2v-4.9c0-0.4-0.1-0.8-0.4-1.1c-0.3-0.3-0.6-0.4-1.1-0.4c-0.4,0-0.7,0.1-0.9,0.2
				c-0.3,0.1-0.5,0.3-0.7,0.5c-0.2,0.2-0.3,0.4-0.4,0.7c-0.1,0.3-0.1,0.6-0.1,0.9v4.1h-1.2v-7.2H105.5z"/>
			<path d="M122.5,217.5c-0.2,0.1-0.5,0.2-0.9,0.2c-0.3,0-0.6-0.1-0.7-0.3c-0.2-0.2-0.3-0.5-0.3-0.8c-0.3,0.4-0.7,0.7-1.1,0.8
				c-0.4,0.2-0.9,0.3-1.4,0.3c-0.3,0-0.6,0-0.9-0.1s-0.5-0.2-0.8-0.4s-0.4-0.4-0.5-0.6c-0.1-0.3-0.2-0.6-0.2-0.9
				c0-0.4,0.1-0.7,0.2-1c0.1-0.3,0.3-0.5,0.6-0.6c0.2-0.2,0.5-0.3,0.8-0.4s0.6-0.2,0.9-0.2c0.3-0.1,0.6-0.1,0.9-0.1s0.6-0.1,0.8-0.1
				c0.2-0.1,0.4-0.1,0.5-0.3c0.1-0.1,0.2-0.3,0.2-0.5c0-0.3,0-0.5-0.1-0.6c-0.1-0.2-0.2-0.3-0.4-0.4c-0.2-0.1-0.3-0.1-0.5-0.2
				s-0.4,0-0.6,0c-0.5,0-0.9,0.1-1.3,0.3c-0.3,0.2-0.5,0.6-0.5,1.1h-1.2c0-0.4,0.1-0.8,0.3-1.1c0.2-0.3,0.4-0.6,0.7-0.7
				c0.3-0.2,0.6-0.3,1-0.4c0.4-0.1,0.7-0.1,1.2-0.1c0.3,0,0.7,0,1,0.1c0.3,0,0.6,0.1,0.9,0.3c0.3,0.1,0.5,0.3,0.6,0.6
				c0.2,0.3,0.2,0.6,0.2,1v3.7c0,0.3,0,0.5,0,0.6c0,0.1,0.1,0.2,0.3,0.2c0.1,0,0.2,0,0.4-0.1V217.5z M120.5,213.8
				c-0.1,0.1-0.3,0.2-0.6,0.2c-0.2,0.1-0.5,0.1-0.8,0.1c-0.3,0-0.5,0.1-0.8,0.1c-0.3,0-0.5,0.1-0.7,0.2s-0.4,0.2-0.5,0.4
				c-0.1,0.2-0.2,0.4-0.2,0.7c0,0.2,0,0.4,0.1,0.5s0.2,0.2,0.3,0.3s0.3,0.1,0.4,0.2s0.3,0.1,0.5,0.1c0.4,0,0.7-0.1,1-0.2
				s0.5-0.2,0.7-0.4c0.2-0.2,0.3-0.3,0.4-0.5c0.1-0.2,0.1-0.4,0.1-0.5V213.8z"/>
			<path d="M128.8,220.3v-3.7h0c-0.2,0.4-0.5,0.7-0.9,0.9c-0.4,0.2-0.9,0.3-1.4,0.3c-0.6,0-1-0.1-1.5-0.3c-0.4-0.2-0.8-0.5-1-0.8
				s-0.5-0.7-0.6-1.2c-0.1-0.5-0.2-0.9-0.2-1.5c0-0.5,0.1-1,0.2-1.5c0.1-0.5,0.3-0.9,0.6-1.2s0.6-0.6,1-0.8c0.4-0.2,0.9-0.3,1.4-0.3
				c0.2,0,0.4,0,0.6,0.1c0.2,0,0.4,0.1,0.6,0.2c0.2,0.1,0.4,0.2,0.6,0.4c0.2,0.1,0.4,0.3,0.5,0.5h0v-1h1.2v10H128.8z M124.5,214.9
				c0.1,0.3,0.2,0.6,0.4,0.9c0.2,0.3,0.4,0.5,0.7,0.6c0.3,0.1,0.6,0.2,1,0.2c0.4,0,0.7-0.1,1-0.2c0.3-0.2,0.5-0.4,0.7-0.6
				c0.2-0.3,0.3-0.5,0.4-0.9c0.1-0.3,0.1-0.7,0.1-1c0-0.4,0-0.7-0.1-1c-0.1-0.3-0.2-0.6-0.4-0.9c-0.2-0.3-0.4-0.5-0.7-0.6
				c-0.3-0.2-0.6-0.2-1.1-0.2c-0.4,0-0.7,0.1-1,0.2c-0.3,0.2-0.5,0.4-0.7,0.6s-0.3,0.6-0.4,0.9c-0.1,0.3-0.1,0.7-0.1,1
				C124.4,214.3,124.4,214.6,124.5,214.9z"/>
			<path d="M136.6,217.5v-1.1h0c-0.3,0.4-0.6,0.8-1,1c-0.4,0.2-0.9,0.3-1.4,0.3c-0.5,0-0.9-0.1-1.2-0.2s-0.6-0.3-0.8-0.5
				c-0.2-0.2-0.3-0.5-0.4-0.8c-0.1-0.3-0.1-0.7-0.1-1.1v-4.8h1.2v4.9c0,0.4,0.1,0.8,0.4,1.1c0.3,0.3,0.6,0.4,1.1,0.4
				c0.4,0,0.7-0.1,0.9-0.2c0.3-0.1,0.5-0.3,0.7-0.5c0.2-0.2,0.3-0.4,0.4-0.7c0.1-0.3,0.1-0.6,0.1-0.9v-4.1h1.2v7.2H136.6z"/>
			<path d="M139.5,209v-1.5h1.2v1.5H139.5z M140.7,210.3v7.2h-1.2v-7.2H140.7z"/>
			<path d="M141.8,211.3v-1h1.2v-1.1c0-0.6,0.2-1,0.5-1.3c0.3-0.3,0.8-0.5,1.5-0.5c0.1,0,0.2,0,0.4,0c0.1,0,0.3,0,0.4,0.1v1
				c-0.1,0-0.2-0.1-0.3-0.1c-0.1,0-0.2,0-0.3,0c-0.3,0-0.5,0.1-0.7,0.2c-0.2,0.1-0.2,0.3-0.2,0.6v1h1.4v1h-1.4v6.2H143v-6.2H141.8z"
				/>
			<path d="M151.6,217.1c-0.5,0.4-1.2,0.6-2,0.6c-0.6,0-1.1-0.1-1.5-0.3s-0.8-0.4-1.1-0.8c-0.3-0.3-0.5-0.7-0.7-1.2s-0.2-1-0.2-1.5
				c0-0.6,0.1-1.1,0.3-1.5c0.2-0.5,0.4-0.9,0.7-1.2c0.3-0.3,0.7-0.6,1.1-0.8c0.4-0.2,0.9-0.3,1.4-0.3c0.6,0,1.2,0.1,1.6,0.4
				c0.4,0.3,0.8,0.6,1,1c0.3,0.4,0.4,0.9,0.5,1.3c0.1,0.5,0.1,0.9,0.1,1.4h-5.4c0,0.3,0,0.6,0.1,0.9s0.2,0.5,0.4,0.8
				c0.2,0.2,0.4,0.4,0.7,0.5c0.3,0.1,0.6,0.2,1,0.2c0.5,0,0.9-0.1,1.2-0.4s0.5-0.6,0.6-1.1h1.2C152.5,216,152.1,216.6,151.6,217.1z
				 M151.3,212.4c-0.1-0.3-0.3-0.5-0.4-0.7c-0.2-0.2-0.4-0.3-0.6-0.4c-0.2-0.1-0.5-0.2-0.8-0.2c-0.3,0-0.6,0.1-0.8,0.2
				s-0.5,0.3-0.6,0.4c-0.2,0.2-0.3,0.4-0.4,0.7c-0.1,0.2-0.2,0.5-0.2,0.8h4.2C151.5,212.9,151.4,212.7,151.3,212.4z"/>
			<path d="M155.1,210.3v1.5h0c0.3-0.6,0.6-1,1.1-1.3c0.4-0.3,1-0.4,1.6-0.4v1.3c-0.5,0-0.9,0.1-1.2,0.2c-0.3,0.1-0.6,0.3-0.8,0.6
				s-0.4,0.6-0.4,0.9c-0.1,0.4-0.1,0.8-0.1,1.2v3.2H154v-7.2H155.1z"/>
		</g>
	</g>
</g>
</svg>
