<?xml version="1.0" encoding="utf-8"?>
<!-- Generator: Adobe Illustrator 18.1.1, SVG Export Plug-In . SVG Version: 6.00 Build 0)  -->
<!DOCTYPE svg PUBLIC "-//W3C//DTD SVG 1.1//EN" "http://www.w3.org/Graphics/SVG/1.1/DTD/svg11.dtd">
<svg version="1.1" xmlns="http://www.w3.org/2000/svg" xmlns:xlink="http://www.w3.org/1999/xlink" x="0px" y="0px" width="300px"
	 height="300px" viewBox="0 0 300 300" enable-background="new 0 0 300 300" xml:space="preserve">
<g id="Layer_1">
	<g>
		<defs>
			<rect id="SVGID_13_" x="0" y="0" width="300" height="300"/>
		</defs>
		<clipPath id="SVGID_2_">
			<use xlink:href="#SVGID_13_"  overflow="visible"/>
		</clipPath>
		<rect x="-7" y="-8" clip-path="url(#SVGID_2_)" fill="#FFFCF8" width="317.1" height="316"/>
		<g clip-path="url(#SVGID_2_)">
			<defs>
				<rect id="SVGID_15_" x="-24.1" y="-25" width="350" height="350"/>
			</defs>
			<clipPath id="SVGID_4_">
				<use xlink:href="#SVGID_15_"  overflow="visible"/>
			</clipPath>
			<g clip-path="url(#SVGID_4_)">
				<g opacity="0.5">
					<path fill="#FFFFFF" stroke="#282828" stroke-miterlimit="10" d="M268.1-45l-1.2-2l-1.4-5.7L257.1-65l-2.6-8.1l-5.9-9l-1.5-8.1
						l-2.4-19.2l-1.7-19.5l-2.1-20.4l-4-1.8l-6.5,2.1l-5.1-3l-5.7-2.6l-7.2-1.8l-6-3.1l-3-3.6l-3.4-0.4l-4.7,2.8l-8.6,0.4l-0.9-2.2
						l-1.3,0.1l-6,3.5l-3.9-1.3l-7.5,0.4l-1.4,5.2l-4.3,1.7l-6.7-1.2l-6.9-2.1l-9-1.6l-2.5-3.7l-0.7,0l-3.6,8.5l-5.3,0.7l-9.6-3.5
						l-1.1-3.7l-4.8-0.1l-3.1-0.6l-5.4,3.9l-6.3-2l0.1-4l-2.2-0.5l-4.4-5.4l-5.7-0.4l-6.4,3.5l-4.6-3.5l-8-0.7l-5.5-1.4l-8.7-1.6
						l0.2-6.9l-2.3-0.7l-3.2,1.6l-3.6-0.8l-1.9-1.7l-1.3,2.6l-3.7-0.3l-3.6-1.5l-9.2-7.3l-0.4-4.2l-1.3-32.9l1.1-41.8h-110
						l-0.2,33.1L-89-122.3l-2.2,47.3l-58.7-0.7l-58.8-2.8l-16.2-0.7l1.8,9.3l4,0.7l5.5,5.6l3.4,8.6l9.7,4.1l2.9,6.4l15.2,15.2
						l2.8,3.1l10.3,3.7l2.5,4.1l3.4,1.8l1.3,5.5l7.2,12.7l0.8,16.3l5,9.2l15.8,14.9l10.6,3.7l3.8,3.7l0.1,1.3l8.1,4.2l4,1.1l3.7,2.1
						l5.3,1.7l4.6-5.1l8.2-12.8l1.6-7.6l4.2-6.8l7-3.3l8.9-4.1l6.4,4.2l15.1,0.5l13.8,1.6l5.4,4l0.1,2.3l5.5,5.9l12.6,10.1l0.5,2.9
						L0,55.5l2.1,8.4l12,24.2L14,92.1l8.7,4.8l7.9,13l7.3,8.4l6.7,2.3L48,125l-2.2,8.9l1.4,1.9L50,137l-0.3,6.9l-1.2,1.4l1.5,4.5
						l6.7,3.6l3.3,12.9l4.6,7.6l15.7,6.1l10.5,1.7l8.8,5.8l6.6,1l2.6-1.1l11.2,1.7l11.8,7.2l6-4.2l1.8-3l-3.9-5.4l-2.6-12.3
						l-4.3-13.8l-1.9-4.8l1.2-9.2l1.9-7.9l2.1-9.3l2.4-11.2l-4.8-3.7l1.8-4l8.1-1.1l7.3-11.5l6.8-1.7l11.4-7.8l3.4-3.1l12.4-7.5
						l11.2-5.5l10.4-7.1l5.3-4.5l10.9-11.3l2.5-1.8l4.1-3.2l5-4.2l1.8-4l19.4-10.1l11.3-3.8l-1.7-8.8l2.5-5.6l0.9-14.8l0.5-5.1
						l-2.2-5.7l4.9-9.1L268.1-45z"/>
				</g>
				<g>
					<path fill="#174F65" d="M131.7,199.2c-0.4,0-0.9-0.1-1.3-0.4l-11.4-7l-10-1.5l-1.9,0.8c-0.4,0.2-0.9,0.2-1.3,0.2l-6.6-1
						c-0.4-0.1-0.7-0.2-1-0.4l-8.4-5.5l-10-1.7c-0.2,0-0.3-0.1-0.5-0.1l-15.7-6.1c-0.5-0.2-0.9-0.5-1.2-1l-4.6-7.6
						c-0.1-0.2-0.2-0.4-0.3-0.7l-3-11.9l-5.8-3.1c-0.5-0.3-1-0.8-1.2-1.4l-1.5-4.5c-0.3-0.8-0.1-1.8,0.5-2.4l0.6-0.7l0.2-4.3
						l-1.1-0.5c-0.4-0.2-0.7-0.4-1-0.8l-1.4-1.9c-0.4-0.6-0.6-1.3-0.4-2l1.9-7.8l-2.3-2.9l-6-2c-0.4-0.1-0.8-0.4-1.1-0.7l-7.3-8.4
						c-0.1-0.1-0.2-0.2-0.2-0.3L21,99.3l-8.2-4.5c-0.8-0.4-1.3-1.3-1.3-2.2l0.1-3.3L-0.1,65.6c-0.1-0.2-0.1-0.3-0.2-0.5l-1.9-7.7
						l-3.3-3.2c-0.4-0.4-0.6-0.8-0.7-1.4l-0.3-2l-11.9-9.6c-0.1-0.1-0.2-0.2-0.3-0.2l-5.5-5.9c-0.4-0.4-0.6-1-0.7-1.5l-0.1-1.1
						l-4-2.9L-41.9,28l-15-0.5c-0.4,0-0.9-0.2-1.3-0.4l-5.3-3.5l-7.7,3.5l-6.3,3l-3.6,5.8l-1.5,7.2c-0.1,0.3-0.2,0.6-0.3,0.8
						l-8.2,12.8c-0.1,0.1-0.2,0.2-0.2,0.3l-4.6,5.1c-0.6,0.7-1.6,1-2.6,0.7l-5.3-1.7c-0.2-0.1-0.3-0.1-0.5-0.2l-3.4-2l-3.7-1
						c-0.2,0-0.3-0.1-0.5-0.2l-8.1-4.2c-0.8-0.4-1.3-1.2-1.3-2l0-0.4l-2.7-2.7l-10.1-3.5c-0.3-0.1-0.6-0.3-0.9-0.5l-15.8-14.9
						c-0.2-0.2-0.3-0.4-0.5-0.6l-5-9.2c-0.2-0.3-0.3-0.7-0.3-1.1L-157.4,3l-6.9-12.2c-0.1-0.2-0.2-0.4-0.3-0.7l-1-4.4l-2.4-1.3
						c-0.4-0.2-0.7-0.5-0.9-0.9l-2-3.4l-9.5-3.4c-0.4-0.1-0.7-0.4-1-0.7l-2.7-3.1l-15.1-15.2c-0.2-0.2-0.4-0.4-0.5-0.7l-2.5-5.5
						l-8.8-3.7c-0.6-0.3-1.1-0.7-1.3-1.4l-3.2-8.2l-4.6-4.7l-3.2-0.6c-1-0.2-1.8-1-1.9-1.9l-1.8-9.3c-0.3-1.3,0.6-2.6,1.9-2.9
						c1.3-0.3,2.6,0.6,2.9,1.9l1.5,7.7l2.3,0.4c0.5,0.1,0.9,0.3,1.3,0.7l5.5,5.6c0.2,0.2,0.4,0.5,0.5,0.8l3,7.7l8.7,3.7
						c0.6,0.2,1,0.7,1.3,1.2l2.8,6l14.9,14.9c0,0,0.1,0.1,0.1,0.1l2.4,2.7l9.7,3.5c0.5,0.2,1,0.6,1.3,1l2.1,3.5l2.8,1.5
						c0.6,0.3,1.1,0.9,1.2,1.6l1.2,5.1l7,12.4c0.2,0.3,0.3,0.7,0.3,1.1l0.8,15.7l4.6,8.4l15.1,14.3l10.2,3.5
						c0.3,0.1,0.7,0.3,0.9,0.6l3.8,3.7c0.4,0.4,0.7,0.9,0.7,1.5l6.6,3.4l3.7,1c0.2,0.1,0.4,0.1,0.6,0.2l3.5,2l3.6,1.1l3.4-3.8
						l7.8-12.3l1.5-7.2c0.1-0.3,0.2-0.6,0.3-0.8l4.2-6.8c0.2-0.4,0.6-0.7,1-0.9l7-3.3l9-4.1c0.8-0.3,1.7-0.3,2.4,0.2l5.9,3.9
						l14.4,0.5c0.1,0,0.1,0,0.2,0l13.8,1.6c0.4,0,0.8,0.2,1.2,0.5l5.4,4c0.6,0.4,1,1.1,1,1.9l0.1,1.4l4.8,5.1l12.5,10
						c0.5,0.4,0.8,0.9,0.9,1.5l0.3,2.1l3.2,3.2c0.3,0.3,0.6,0.7,0.7,1.2l2,8.1l11.9,24c0.2,0.4,0.3,0.8,0.3,1.2l-0.1,2.4l7.4,4.1
						c0.4,0.2,0.7,0.5,0.9,0.9l7.7,12.8l6.7,7.8l6,2.1c0.4,0.2,0.8,0.4,1.1,0.8l3.5,4.4c0.5,0.6,0.6,1.4,0.5,2.1l-1.9,7.8l0.3,0.4
						l2.1,0.9c0.9,0.4,1.5,1.3,1.5,2.3l-0.3,6.9c0,0.6-0.2,1.1-0.6,1.5l-0.3,0.3l0.8,2.2l5.9,3.1c0.6,0.3,1.1,0.9,1.2,1.6l3.2,12.5
						l4,6.6l14.7,5.7l10.3,1.7c0.3,0.1,0.7,0.2,0.9,0.4l8.3,5.5l5.4,0.8l1.9-0.8c0.4-0.2,0.9-0.2,1.3-0.2l11.2,1.7
						c0.3,0,0.6,0.2,0.9,0.3l10.4,6.4l4.3-3l1.5-2.6c0.7-1.2,2.2-1.5,3.4-0.9c1.2,0.7,1.5,2.2,0.9,3.4l-1.8,3
						c-0.2,0.3-0.4,0.6-0.7,0.7l-6,4.2C132.7,199.1,132.2,199.2,131.7,199.2z"/>
				</g>
				<g>
					<path fill="#FDBA12" stroke="#212121" stroke-width="0.25" stroke-miterlimit="10" d="M75,163.3c0.3-0.7,0.7-1.2,1.1-1.7
						c0.5-0.5,1.1-0.9,1.7-1.1c0.6-0.3,1.3-0.4,2.1-0.4H80h0H80c0.7,0,1.4,0.1,2.1,0.4c0.7,0.3,1.2,0.7,1.7,1.1
						c0.5,0.5,0.9,1.1,1.1,1.7c0.3,0.7,0.4,1.3,0.4,2.1c0,0.5-0.1,1.1-0.2,1.5c-0.1,0.5-0.4,0.9-0.6,1.3c0,0-4.2,6.3-4.2,6.3L80,175
						l0,0l-0.4-0.6l-4.1-6.1c0,0,0,0,0-0.1c-0.3-0.4-0.5-0.9-0.6-1.3c-0.1-0.5-0.2-1-0.2-1.5C74.6,164.7,74.7,164,75,163.3z"/>
					<ellipse opacity="0.25" fill="#505150" cx="80" cy="176.2" rx="1.6" ry="0.7"/>
				</g>
			</g>
		</g>
	</g>
	<g>
		<g>
			<polygon fill="#282828" points="261.9,278.5 261.9,278.5 262,278.4 262,278.4 262,278.4 262,278.4 262,278.3 262.1,278.2 
				262.3,278.2 262.6,278.2 262.6,278.2 262.3,278.1 262.5,278 262.6,278 262.6,278 262.4,277.9 262.3,277.9 262.4,277.9 
				262.6,277.9 262.6,277.8 263.6,277.8 263.6,277.8 263.6,277.8 263.6,277.8 263.6,277.7 263.6,277.7 263.6,277.7 263.6,277.7 
				263.6,277.7 263.6,277.6 262.9,277.6 263.3,277.5 263.6,277.5 263.6,277.5 263,277.5 262.7,277.4 262.6,277.3 262.6,277.2 
				262.6,277.1 262.6,277.1 262.6,277 262.6,276.9 262.7,276.8 262.7,276.8 262.7,276.7 262.8,276.7 263.2,276.5 263.6,276.4 
				263.6,276.4 263.3,276.3 263.1,276.3 263,276.2 263,276.2 263,276.2 263.3,276.1 263.6,276.1 263.6,276.1 263.6,276 263.6,275.9 
				263.6,275.9 263.3,276.2 263.1,276.4 263.2,276.4 263.2,276.4 263.2,276.4 263.1,276.4 263.1,276.4 262.9,276.4 262.9,276.4 
				262.8,276.4 262.8,276.4 262.7,276.4 262.7,276.4 262.7,276.4 262.7,276.4 262.6,276.4 262.6,276.4 262.6,276.4 262.6,276.4 
				262.6,276.4 262.5,276.4 262.5,276.4 262.3,276.4 262.3,276.4 262.3,276.4 262.2,276.4 262.2,276.4 262.2,276.4 262.2,276.4 
				262.1,276.4 262.1,276.4 262.1,276.4 262,276.4 262,276.4 262,276.4 262,276.4 261.8,276.4 261.7,276.4 261.7,276.4 261.6,276.4 
				261.6,276.4 261.5,276.4 261.4,276.4 261.4,276.4 261.4,276.4 261.3,276.4 261.3,276.4 261.2,276.4 261,276.4 261,276.4 
				260.9,276.4 260.9,276.4 260.9,276.4 260.7,276.4 260.6,276.4 260.6,276.4 260.6,276.4 260.5,276.4 260.5,276.4 260.5,276.4 
				260.4,276.4 260.4,276.4 260.4,276.4 260.3,276.4 260.3,276.4 260.2,276.4 260.2,276.4 260.2,276.4 260.1,276.4 260.1,276.4 
				260,276.4 260,276.4 260,276.4 259.8,276.4 259.8,276.4 259.7,276.4 259.7,276.4 259.7,276.4 259.6,276.4 259.6,276.4 
				259.5,276.4 259.5,276.4 259.5,276.1 259.6,275.9 259.6,275.9 259.6,276 259.6,276 259.6,276 259.6,276.1 259.6,276.1 
				259.4,276.1 259.5,276.2 259.6,276.2 259.6,276.3 259.6,276.4 259.2,276.4 259.2,276.4 259.1,276.4 259.1,276.4 259,276.4 
				259,276.4 259,276.5 258.9,276.5 258.8,276.5 258.8,276.6 258.8,276.6 258.7,276.6 258.6,276.7 259.1,277.6 261.2,278.4 
				261.9,278.5 261.9,278.5 			"/>
			<path opacity="0.5" fill="#B4B4B4" d="M286.7,247.9l-0.2-0.3l-0.2-0.8l-1.1-1.7l-0.4-1.1l-0.8-1.2l-0.2-1.1l-0.3-2.6l-0.2-2.6
				l-0.3-2.8l-0.5-0.2l-0.9,0.3l-0.7-0.4l-0.8-0.3l-1-0.2l-0.8-0.4l-0.4-0.5l-0.5-0.1l-0.6,0.4l-1.2,0.1l-0.1-0.3l-0.2,0l-0.8,0.5
				l-0.5-0.2l-1.2,0.8l-0.6,0.2l-0.9-0.2l-0.9-0.3l-2.1,0.4l-0.7,0.1l-1.3-0.5l-1.9-0.1l-0.9-0.3l-0.3-0.6l-2.2-0.3l-0.6-0.5
				l-1.1-0.1l-0.7-0.2l-1.2-0.2l-0.7-0.8l-0.5-0.1l-0.4,0.1l-0.5,0l-0.5-0.2l-1.2-1l0-0.6l-0.2-4.2l0.1-5.4h-14.9l0,4.2l-0.1,14.9
				l-0.3,6.3l-8-0.1l-6.9-0.3l-1.1-0.1l-2.2-0.1l0.2,1.3l0.5,0.1l0.7,0.8l0.5,1.2l1.5,0.6l0.2,0.1v0l0.2,0.7l2,2.1l0.3,0.4l1.4,0.5
				l0.1,0.1l0.2,0.4l0.5,0.2l0.2,0.7l1,1.7l0.1,2.2l0.7,1.3l2.1,2l0.3,0.4l0,0.3h0l0.1-0.3l0.1-0.1l1.2,0.3l0.7,0.4v0.2l0.9,0.6
				l0.5,0.1l0.5,0.3l0.7,0.2l0.6-0.7l1.1-1.7l0.2-1l0.6-0.9l1-0.4l1.2-0.5l0.9,0.6l2,0.1l1.9,0.2l0.7,0.5l0,0.3l0.8,0.8l1.7,1.4
				l0.1,0.4l0.5,0.5l0.3,1.1l1.6,3.3l0,0.6l0.3,0.2l0.9,0.4l1.1,1.7l1,1.1l0.9,0.3l0.5,0.6l-0.3,1.2l0.2,0.3l0.2,0.1l0,0l0.2,0.1
				l0,0.9l-0.2,0.2l0.2,0.6l0.9,0.5l0.4,1.8l0.1,0.2l0.1-0.1l0.1,0l0,0l0,0l0,0l0.1-0.1l0,0l0,0l0.1-0.1l0,0l0,0.1l0,0.1h0l0-0.1
				l0-0.1l0-0.1l0.1,0l0.2,0v0V276v0v0v0v0l0-0.1l0,0l0.1,0.2l0,0.4h0.1h0h0.1h0h0.1h0h0.1h0.1h0h0h0.1h0h0.1h0h0.1h0h0h0h0h0.1h0h0
				h0h0h0.1h0.1h0.1h0.1h0h0h0.1h0.2h0h0.1h0h0h0h0h0.1h0h0.1h0.1h0.1h0.2h0h0h0.1h0h0h0.1h0h0h0h0h0.1h0h0h0.1h0h0.1h0h0h0h0h0h0h0
				h0h0.1h0h0.1h0h0.1h0h0.1h0.1l0-0.4l-0.1-0.1l0.2,0l0.2-0.1v0l0,0.1l0,0.1v0l-0.3,0l-0.2,0.1l-0.1,0l0,0l0,0.1l0.3,0l0.3,0.1v0
				l-0.4,0.1l-0.2,0.1l-0.1,0l-0.1,0.1l0,0l-0.1,0.1l0,0.1l0,0.1l0,0.1l0,0.1l-0.1,0.1l0,0l0.6,0.1l0.6,0v0l-0.6,0l0.3,0.1l0.3,0v0
				v0v0v0v0v0v0v0v0l-1,0v0l-0.2,0l-0.1,0l0.2,0l0.1,0.1v0l-0.2,0l0.1,0.1l0.1,0.1v0l-0.3,0l-0.1,0l-0.1,0.1l-0.1,0.1h0h0l0,0l0,0
				l0,0l0,0h0l0.7,0.2l1.2,0.8l0.9,0.1l0.3-0.1l1.5,0.2l1.6,1l0.8-0.6l0.2-0.4l-0.5-0.7l-0.4-1.7l-0.6-1.9l-0.3-0.7l0.2-1.2l0.3-1.1
				l0.3-1.3l0.3-1.5l-0.6-0.5l0.2-0.5l1.1-0.1l1-1.6l0.9-0.2l1.5-1.1l0.5-0.4l1.7-1l1.5-0.7l1.4-1l0.7-0.6l1.5-1.5l0.3-0.2l0.6-0.4
				l0.7-0.6l0.2-0.5l2.6-1.4l1.5-0.5l-0.2-1.2l0.3-0.8l0.1-2l0.1-0.7l-0.3-0.8l0.7-1.2L286.7,247.9z M257.4,272.6L257.4,272.6
				L257.4,272.6l-0.1-0.1l0,0l0,0l0-0.1l-0.1-0.1l0,0l0,0l0.1,0.1l0,0.1l0,0l0,0L257.4,272.6L257.4,272.6L257.4,272.6L257.4,272.6
				L257.4,272.6z"/>
		</g>
	</g>
	<g>
		<text transform="matrix(1 0 0 1 11.699 230.9098)" font-family="'HelveticaNeue'" font-size="23.3979">Rio Grande City</text>
	</g>
	<g>
		<circle fill="#174F65" stroke="#212121" stroke-width="0.25" stroke-miterlimit="10" cx="14.7" cy="250.7" r="3"/>
		<g>
			<text transform="matrix(1 0 0 1 21.1557 254.5184)" font-family="'HelveticaNeue'" font-size="14">Rio Grande River</text>
		</g>
	</g>
</g>
<g id="Layer_2">
</g>
</svg>
