<?xml version="1.0" encoding="utf-8"?>
<!-- Generator: Adobe Illustrator 18.1.1, SVG Export Plug-In . SVG Version: 6.00 Build 0)  -->
<!DOCTYPE svg PUBLIC "-//W3C//DTD SVG 1.1//EN" "http://www.w3.org/Graphics/SVG/1.1/DTD/svg11.dtd">
<svg version="1.1" xmlns="http://www.w3.org/2000/svg" xmlns:xlink="http://www.w3.org/1999/xlink" x="0px" y="0px" width="300px"
	 height="300px" viewBox="0 0 300 300" enable-background="new 0 0 300 300" xml:space="preserve">
<g id="Layer_1">
	<g>
		<defs>
			<rect id="SVGID_9_" x="0" y="0" width="300" height="300"/>
		</defs>
		<clipPath id="SVGID_2_">
			<use xlink:href="#SVGID_9_"  overflow="visible"/>
		</clipPath>
		<g clip-path="url(#SVGID_2_)">
			<defs>
				<rect id="SVGID_11_" x="-24.1" y="-25" width="350" height="350"/>
			</defs>
			<clipPath id="SVGID_4_">
				<use xlink:href="#SVGID_11_"  overflow="visible"/>
			</clipPath>
			<g clip-path="url(#SVGID_4_)">
				<g opacity="0.5">
					<path fill="#FFFFFF" stroke="#282828" stroke-miterlimit="10" d="M268.1-45l-1.2-2l-1.4-5.7L257.1-65l-2.6-8.1l-5.9-9l-1.5-8.1
						l-2.4-19.2l-1.7-19.5l-2.1-20.4l-4-1.8l-6.5,2.1l-5.1-3l-5.7-2.6l-7.2-1.8l-6-3.1l-3-3.6l-3.4-0.4l-4.7,2.8l-8.6,0.4l-0.9-2.2
						l-1.3,0.1l-6,3.5l-3.9-1.3l-7.5,0.4l-1.4,5.2l-4.3,1.7l-6.7-1.2l-6.9-2.1l-9-1.6l-2.5-3.7l-0.7,0l-3.6,8.5l-5.3,0.7l-9.6-3.5
						l-1.1-3.7l-4.8-0.1l-3.1-0.6l-5.4,3.9l-6.3-2l0.1-4l-2.2-0.5l-4.4-5.4l-5.7-0.4l-6.4,3.5l-4.6-3.5l-8-0.7l-5.5-1.4l-8.7-1.6
						l0.2-6.9l-2.3-0.7l-3.2,1.6l-3.6-0.8l-1.9-1.7l-1.3,2.6l-3.7-0.3l-3.6-1.5l-9.2-7.3l-0.4-4.2l-1.3-33.2l1.1-42h-110l-0.2,33.4
						L-89-122.5l-2.2,47.3l-58.7-0.7l-58.8-2.8l-16.2-0.7l1.8,9.3l4,0.7l5.5,5.6l3.4,8.6l9.7,4.1l2.9,6.4l15.2,15.2l2.8,3.1
						l10.3,3.7l2.5,4.1l3.4,1.8l1.3,5.5l7.2,12.7l0.8,16.3l5,9.2l15.8,14.9l10.6,3.7l3.8,3.7l0.1,1.3l8.1,4.2l4,1.1l3.7,2.1l5.3,1.7
						l4.6-5.1l8.2-12.8l1.6-7.6l4.2-6.8l7-3.3l8.9-4.1l6.4,4.2l15.1,0.5l13.8,1.6l5.4,4l0.1,2.3l5.5,5.9l12.6,10.1l0.5,2.9L0,55.5
						l2.1,8.4l12,24.2L14,92.1l8.7,4.8l7.9,13l7.3,8.4l6.7,2.3L48,125l-2.2,8.9l1.4,1.9L50,137l-0.3,6.9l-1.2,1.4l1.5,4.5l6.7,3.6
						l3.3,12.9l4.6,7.6l15.7,6.1l10.5,1.7l8.8,5.8l6.6,1l2.6-1.1l11.2,1.7l11.8,7.2l6-4.2l1.8-3l-3.9-5.4l-2.6-12.3l-4.3-13.8
						l-1.9-4.8l1.2-9.2l1.9-7.9l2.1-9.3l2.4-11.2l-4.8-3.7l1.8-4l8.1-1.1l7.3-11.5l6.8-1.7l11.4-7.8l3.4-3.1l12.4-7.5l11.2-5.5
						l10.4-7.1l5.3-4.5l10.9-11.3l2.5-1.8l4.1-3.2l5-4.2l1.8-4l19.4-10.1l11.3-3.8l-1.7-8.8l2.5-5.6l0.9-14.8l0.5-5.1l-2.2-5.7
						l4.9-9.1L268.1-45z"/>
				</g>
				<g>
					<path fill="#174F65" d="M131.7,199.2c-0.4,0-0.9-0.1-1.3-0.4l-11.4-7l-10-1.5l-1.9,0.8c-0.4,0.2-0.9,0.2-1.3,0.2l-6.6-1
						c-0.4-0.1-0.7-0.2-1-0.4l-8.4-5.5l-10-1.7c-0.2,0-0.3-0.1-0.5-0.1l-15.7-6.1c-0.5-0.2-0.9-0.5-1.2-1l-4.6-7.6
						c-0.1-0.2-0.2-0.4-0.3-0.7l-3-11.9l-5.8-3.1c-0.5-0.3-1-0.8-1.2-1.4l-1.5-4.5c-0.3-0.8-0.1-1.8,0.5-2.4l0.6-0.7l0.2-4.3
						l-1.1-0.5c-0.4-0.2-0.7-0.4-1-0.8l-1.4-1.9c-0.4-0.6-0.6-1.3-0.4-2l1.9-7.8l-2.3-2.9l-6-2c-0.4-0.1-0.8-0.4-1.1-0.7l-7.3-8.4
						c-0.1-0.1-0.2-0.2-0.2-0.3L21,99.3l-8.2-4.5c-0.8-0.4-1.3-1.3-1.3-2.2l0.1-3.3L-0.1,65.6c-0.1-0.2-0.1-0.3-0.2-0.5l-1.9-7.7
						l-3.3-3.2c-0.4-0.4-0.6-0.8-0.7-1.4l-0.3-2l-11.9-9.6c-0.1-0.1-0.2-0.2-0.3-0.2l-5.5-5.9c-0.4-0.4-0.6-1-0.7-1.5l-0.1-1.1
						l-4-2.9L-41.9,28l-15-0.5c-0.4,0-0.9-0.2-1.3-0.4l-5.3-3.5l-7.7,3.5l-6.3,3l-3.6,5.8l-1.5,7.2c-0.1,0.3-0.2,0.6-0.3,0.8
						l-8.2,12.8c-0.1,0.1-0.2,0.2-0.2,0.3l-4.6,5.1c-0.6,0.7-1.6,1-2.6,0.7l-5.3-1.7c-0.2-0.1-0.3-0.1-0.5-0.2l-3.4-2l-3.7-1
						c-0.2,0-0.3-0.1-0.5-0.2l-8.1-4.2c-0.8-0.4-1.3-1.2-1.3-2l0-0.4l-2.7-2.7l-10.1-3.5c-0.3-0.1-0.6-0.3-0.9-0.5l-15.8-14.9
						c-0.2-0.2-0.3-0.4-0.5-0.6l-5-9.2c-0.2-0.3-0.3-0.7-0.3-1.1L-157.4,3l-6.9-12.2c-0.1-0.2-0.2-0.4-0.3-0.7l-1-4.4l-2.4-1.3
						c-0.4-0.2-0.7-0.5-0.9-0.9l-2-3.4l-9.5-3.4c-0.4-0.1-0.7-0.4-1-0.7l-2.7-3.1l-15.1-15.2c-0.2-0.2-0.4-0.4-0.5-0.7l-2.5-5.5
						l-8.8-3.7c-0.6-0.3-1.1-0.7-1.3-1.4l-3.2-8.2l-4.6-4.7l-3.2-0.6c-1-0.2-1.8-1-1.9-1.9l-1.8-9.3c-0.3-1.3,0.6-2.6,1.9-2.9
						c1.3-0.3,2.6,0.6,2.9,1.9l1.5,7.7l2.3,0.4c0.5,0.1,0.9,0.3,1.3,0.7l5.5,5.6c0.2,0.2,0.4,0.5,0.5,0.8l3,7.7l8.7,3.7
						c0.6,0.2,1,0.7,1.3,1.2l2.8,6l14.9,14.9c0,0,0.1,0.1,0.1,0.1l2.4,2.7l9.7,3.5c0.5,0.2,1,0.6,1.3,1l2.1,3.5l2.8,1.5
						c0.6,0.3,1.1,0.9,1.2,1.6l1.2,5.1l7,12.4c0.2,0.3,0.3,0.7,0.3,1.1l0.8,15.7l4.6,8.4l15.1,14.3l10.2,3.5
						c0.3,0.1,0.7,0.3,0.9,0.6l3.8,3.7c0.4,0.4,0.7,0.9,0.7,1.5l6.6,3.4l3.7,1c0.2,0.1,0.4,0.1,0.6,0.2l3.5,2l3.6,1.1l3.4-3.8
						l7.8-12.3l1.5-7.2c0.1-0.3,0.2-0.6,0.3-0.8l4.2-6.8c0.2-0.4,0.6-0.7,1-0.9l7-3.3l9-4.1c0.8-0.3,1.7-0.3,2.4,0.2l5.9,3.9
						l14.4,0.5c0.1,0,0.1,0,0.2,0l13.8,1.6c0.4,0,0.8,0.2,1.2,0.5l5.4,4c0.6,0.4,1,1.1,1,1.9l0.1,1.4l4.8,5.1l12.5,10
						c0.5,0.4,0.8,0.9,0.9,1.5l0.3,2.1l3.2,3.2c0.3,0.3,0.6,0.7,0.7,1.2l2,8.1l11.9,24c0.2,0.4,0.3,0.8,0.3,1.2l-0.1,2.4l7.4,4.1
						c0.4,0.2,0.7,0.5,0.9,0.9l7.7,12.8l6.7,7.8l6,2.1c0.4,0.2,0.8,0.4,1.1,0.8l3.5,4.4c0.5,0.6,0.6,1.4,0.5,2.1l-1.9,7.8l0.3,0.4
						l2.1,0.9c0.9,0.4,1.5,1.3,1.5,2.3l-0.3,6.9c0,0.6-0.2,1.1-0.6,1.5l-0.3,0.3l0.8,2.2l5.9,3.1c0.6,0.3,1.1,0.9,1.2,1.6l3.2,12.5
						l4,6.6l14.7,5.7l10.3,1.7c0.3,0.1,0.7,0.2,0.9,0.4l8.3,5.5l5.4,0.8l1.9-0.8c0.4-0.2,0.9-0.2,1.3-0.2l11.2,1.7
						c0.3,0,0.6,0.2,0.9,0.3l10.4,6.4l4.3-3l1.5-2.6c0.7-1.2,2.2-1.5,3.4-0.9c1.2,0.7,1.5,2.2,0.9,3.4l-1.8,3
						c-0.2,0.3-0.4,0.6-0.7,0.7l-6,4.2C132.7,199.1,132.2,199.2,131.7,199.2z"/>
				</g>
				<path fill="#FDBA12" stroke="#212121" stroke-width="0.25" stroke-miterlimit="10" d="M46.9,116c0.3-0.7,0.7-1.2,1.1-1.7
					c0.5-0.5,1.1-0.9,1.7-1.1c0.6-0.3,1.3-0.4,2.1-0.4h0.1h0h0.1c0.7,0,1.4,0.1,2.1,0.4c0.7,0.3,1.2,0.7,1.7,1.1
					c0.5,0.5,0.9,1.1,1.1,1.7c0.3,0.7,0.4,1.3,0.4,2.1c0,0.5-0.1,1.1-0.2,1.5c-0.1,0.5-0.4,0.9-0.6,1.3c0,0-4.2,6.3-4.2,6.3
					l-0.3,0.4l0,0l-0.4-0.6l-4.1-6.1c0,0,0,0,0-0.1c-0.3-0.4-0.5-0.9-0.6-1.3c-0.1-0.5-0.2-1-0.2-1.5
					C46.5,117.4,46.6,116.7,46.9,116z"/>
				<ellipse opacity="0.25" fill="#505150" cx="51.9" cy="128.9" rx="1.6" ry="0.7"/>
			</g>
		</g>
	</g>
	<g>
		<defs>
			<rect id="SVGID_13_" x="340.9" y="0.5" width="300" height="300"/>
		</defs>
		<clipPath id="SVGID_6_">
			<use xlink:href="#SVGID_13_"  overflow="visible"/>
		</clipPath>
		<g clip-path="url(#SVGID_6_)">
			<defs>
				<rect id="SVGID_15_" x="316.8" y="-24.5" width="350" height="350"/>
			</defs>
			<clipPath id="SVGID_8_">
				<use xlink:href="#SVGID_15_"  overflow="visible"/>
			</clipPath>
			<g clip-path="url(#SVGID_8_)">
				<g opacity="0.5">
					<path fill="#FFFFFF" stroke="#282828" stroke-miterlimit="10" d="M609-44.5l-1.2-2l-1.4-5.7L598-64.5l-2.6-8.1l-5.9-9l-1.5-8.1
						l-2.4-19.2l-1.7-19.5l-2.1-20.4l-4-1.8l-6.5,2.1l-5.1-3l-5.7-2.6l-7.2-1.8l-6-3.1l-3-3.6L541-163l-4.7,2.8l-8.6,0.4l-0.9-2.2
						l-1.3,0.1l-6,3.5l-3.9-1.3l-7.5,0.4l-1.4,5.2l-4.3,1.7l-6.7-1.2l-6.9-2.1l-9-1.6l-2.5-3.7l-0.7,0l-3.6,8.5l-5.3,0.7l-9.6-3.5
						L457-159l-4.8-0.1l-3.1-0.6l-5.4,3.9l-6.3-2l0.1-4l-2.2-0.5l-4.4-5.4l-5.7-0.4l-6.4,3.5l-4.6-3.5l-8-0.7l-5.5-1.4l-8.7-1.6
						l0.2-6.9l-2.3-0.7l-3.2,1.6l-3.6-0.8l-1.9-1.7l-1.3,2.6l-3.7-0.3l-3.6-1.5l-9.2-7.3l-0.4-4.2l-1.3-32.9l1.1-41.8h-110
						l-0.2,33.1L252-121.9l-2.2,47.3l-58.7-0.7l-58.8-2.8l-16.2-0.7l1.8,9.3l4,0.7l5.5,5.6l3.4,8.6l9.7,4.1l2.9,6.4l15.2,15.2
						l2.8,3.1l10.3,3.7l2.5,4.1l3.4,1.8l1.3,5.5l7.2,12.7l0.8,16.3l5,9.2l15.8,14.9l10.6,3.7L222,50l0.1,1.3l8.1,4.2l4,1.1l3.7,2.1
						l5.3,1.7l4.6-5.1l8.2-12.8l1.6-7.6l4.2-6.8l7-3.3l8.9-4.1l6.4,4.2l15.1,0.5l13.8,1.6l5.4,4l0.1,2.3l5.5,5.9l12.6,10.1l0.5,2.9
						l3.8,3.7l2.1,8.4l12,24.2l-0.1,3.9l8.7,4.8l7.9,13l7.3,8.4l6.7,2.3l3.5,4.4l-2.2,8.9l1.4,1.9l2.7,1.2l-0.3,6.9l-1.2,1.4
						l1.5,4.5l6.7,3.6l3.3,12.9l4.6,7.6l15.7,6.1l10.5,1.7l8.8,5.8l6.6,1l2.6-1.1l11.2,1.7l11.8,7.2l6-4.2l1.8-3l-3.9-5.4l-2.6-12.3
						l-4.3-13.8l-1.9-4.8l1.2-9.2l1.9-7.9l2.1-9.3l2.4-11.2l-4.8-3.7l1.8-4l8.1-1.1l7.3-11.5l6.8-1.7l11.4-7.8l3.4-3.1l12.4-7.5
						l11.2-5.5l10.4-7.1l5.3-4.5l10.9-11.3l2.5-1.8l4.1-3.2l5-4.2l1.8-4l19.4-10.1l11.3-3.8l-1.7-8.8l2.5-5.6l0.9-14.8l0.5-5.1
						l-2.2-5.7l4.9-9.1L609-44.5z"/>
				</g>
				<polygon opacity="0.1" fill="#CBB17F" points="220.7,-4.6 220.7,-4.2 220.7,-3 220.7,-2.6 220.7,-2.4 220.7,-2.2 220.7,-1.9 
					220.7,-1.7 220.7,-1.6 220.7,-1 220.7,-0.8 220.7,-0.3 220.7,-0.2 220.7,-0.1 220.7,0 220.7,0.4 220.6,0.9 220.6,1.2 220.6,1.3 
					220.6,1.4 220.6,1.5 220.6,1.6 220.6,2 220.6,2.2 220.6,2.3 220.6,2.6 220.6,2.7 220.6,2.8 220.6,3.5 220.6,3.7 220.5,3.9 
					220.5,4.2 220.5,5 220.5,5.6 220.5,6.2 220.4,6.9 220.4,7 220.4,7.5 220.4,8.2 220.4,8.6 220.3,9.1 220.2,11.8 220.2,12.7 
					220.2,13.3 220.2,13.7 220.2,14.4 220.2,14.5 220.1,15.7 220.1,16.5 220.1,16.6 220.1,17.2 220.1,18 220,18.1 220,18.9 
					220,19.1 220,19.7 220,20.2 220,20.3 220,20.6 220,20.7 220,20.8 220,20.9 220,21.3 220,21.9 220,22.1 220,22.7 220,23.1 
					220,23.5 220,23.6 220,23.8 220,24.1 220,24.3 220,24.4 220,24.4 219.9,24.8 219.9,24.9 219.9,25 219.9,25.2 219.9,25.3 
					219.9,25.5 219.9,25.7 219.9,25.8 219.9,26 219.9,27.1 219.9,27.3 219.9,27.4 219.9,27.5 219.8,29 219.8,29.7 219.8,30.2 
					219.8,30.4 219.8,31.6 219.8,31.8 219.8,32.2 219.8,32.3 219.8,32.9 219.8,33 219.7,33.1 219.7,33.7 219.7,34 219.7,34.8 
					219.7,35 219.7,35.3 219.7,35.9 219.7,36.6 219.7,36.7 219.6,36.8 219.6,37.5 219.6,37.6 219.6,37.8 219.6,38.3 219.6,38.5 
					219.6,38.7 219.6,38.8 219.4,43.2 219.4,43.4 219.4,43.8 219.4,44.4 219.4,44.6 219.4,44.8 219.4,44.9 219.3,45.7 219.3,46.1 
					219.3,46.5 219.3,47.5 219.3,48.2 219.3,48.6 219.3,48.7 219.3,48.8 219.2,48.8 219.2,48.9 219.1,48.9 219,48.9 218.9,48.9 
					218.9,48.8 218.8,48.8 218.7,48.8 218.7,48.7 218.7,48.6 218.6,48.6 218.6,48.5 218.7,48.4 218.7,48.3 218.6,48.2 218.5,48.2 
					218.5,48.1 218.5,48.1 218.4,48.2 218.3,48.2 218.2,48.3 218.1,48.3 218,48.3 217.9,48.3 217.8,48.2 217.8,48.2 217.7,48.2 
					217.7,48.1 217.6,48 217.6,47.9 217.5,47.9 217.4,47.9 217.4,47.8 217.3,47.8 217.2,47.8 217.1,47.8 217,47.7 216.9,47.7 
					216.8,47.7 216.7,47.8 216.6,47.8 216.5,47.7 216.5,47.6 216.4,47.7 216.3,47.7 216.3,47.7 216.3,47.6 216.2,47.6 216.2,47.5 
					216.1,47.5 216,47.5 215.9,47.5 215.8,47.5 215.7,47.5 215.7,47.6 215.7,47.7 215.6,47.7 215.6,47.8 215.5,47.7 215.5,47.7 
					215.5,47.6 215.4,47.6 215.4,47.5 215.3,47.5 215.3,47.4 215.2,47.4 215.1,47.4 215,47.5 214.9,47.5 214.8,47.5 214.8,47.5 
					214.7,47.5 214.6,47.5 214.5,47.5 214.5,47.4 214.5,47.3 214.5,47.2 214.4,47.2 214.3,47.2 214.3,47.1 214.2,47.1 214.1,47.1 
					214,47.1 214,47.1 213.9,47.1 213.8,47.1 213.7,47.1 213.6,47 213.5,47 213.4,47 213.3,47 213.3,46.9 213.2,46.8 213.2,46.9 
					213.1,46.9 213,46.8 212.9,46.8 212.8,46.8 212.7,46.8 212.6,46.7 212.5,46.7 212.5,46.8 212.5,46.9 212.5,46.9 212.4,46.9 
					212.3,46.9 212.2,46.8 212.1,46.8 212,46.7 211.9,46.7 211.9,46.6 211.8,46.6 211.7,46.5 211.5,46.4 211.4,46.4 211.1,46.3 
					211,46.2 211,46.1 210.9,46.1 210.9,46.1 210.8,46.1 210.7,46.1 210.6,46.1 210.5,46 210.4,46 210.3,46 210.3,45.9 210.3,45.8 
					210.2,45.8 210.1,45.8 210.1,45.7 210,45.7 209.9,45.6 209.8,45.6 209.8,45.5 209.6,45.4 209.5,45.4 209.5,45.3 209.5,45.3 
					209.5,45.2 209.4,45.2 209.3,45.1 209.3,45 209.3,44.9 209.3,44.8 209.2,44.8 209.1,44.8 209,44.7 208.9,44.6 208.8,44.6 
					208.8,44.6 208.7,44.6 208.7,44.5 208.7,44.5 208.7,44.4 208.6,44.4 208.6,44.5 208.5,44.5 208.4,44.5 208.3,44.5 208.3,44.4 
					208.2,44.3 208.1,44.2 208,44.2 208,44.1 208,44 208,44 208,43.9 208,43.8 208,43.7 207.9,43.7 207.9,43.6 207.8,43.6 
					207.7,43.6 207.7,43.5 207.7,43.4 207.7,43.3 207.6,43.3 207.5,43.2 207.4,43.2 207.4,43.1 207.3,43.1 207.2,43.1 207.2,43.1 
					207.2,43.2 207.1,43.2 207,43.2 206.9,43.2 206.8,43.2 206.8,43.1 206.8,43 206.8,42.9 206.8,42.8 206.8,42.7 206.7,42.7 
					206.6,42.8 206.5,42.8 206.5,42.8 206.5,42.7 206.4,42.7 206.4,42.6 206.3,42.5 206.3,42.6 206.2,42.7 206.1,42.7 206,42.7 
					206,42.6 206,42.5 206,42.4 205.9,42.3 205.9,42.4 205.8,42.4 205.7,42.4 205.7,42.3 205.7,42.2 205.7,42.1 205.6,42 205.5,42 
					205.5,42.1 205.4,42.1 205.3,42.1 205.2,42.1 205.2,42 205.1,42 205.1,41.9 205,41.9 205.1,41.9 205.1,41.8 205.1,41.7 
					205.1,41.7 205.1,41.6 205,41.6 205,41.6 205,41.5 205,41.4 205,41.3 204.9,41.3 204.8,41.3 204.8,41.2 204.7,41.2 204.6,41.1 
					204.6,41 204.6,40.8 204.6,40.7 204.6,40.6 204.6,40.5 204.6,40.4 204.5,40.4 204.5,40.3 204.4,40.3 204.3,40.3 204.2,40.2 
					204.2,40.1 204.2,40.1 204.2,40 204.2,39.9 204.2,39.8 204.1,39.8 204.1,39.7 204,39.7 203.9,39.7 203.9,39.6 203.8,39.6 
					203.7,39.5 203.6,39.5 203.5,39.4 203.5,39.3 203.5,39.2 203.4,39.2 203.4,39.1 203.3,39.1 203.3,39 203.3,38.9 203.5,38.8 
					203.5,38.8 203.5,38.6 203.5,38.6 203.5,38.5 203.5,38.4 203.5,38.3 203.5,38.2 203.5,38.1 203.6,37.9 203.6,37.8 203.5,37.8 
					203.5,37.7 203.5,37.7 203.4,37.7 203.3,37.8 203.2,37.8 203.1,37.9 203,37.9 202.9,37.9 202.9,38 202.8,38 202.7,37.9 
					202.7,37.8 202.7,37.7 202.7,37.6 202.7,37.5 202.7,37.4 202.7,37.4 202.7,37.2 202.6,37.2 202.6,37.1 202.5,37.2 202.4,37.1 
					202.3,37 202.2,36.9 202.2,36.8 202.1,36.8 202,36.7 202,36.7 201.9,36.7 201.8,36.7 201.7,36.7 201.7,36.6 201.7,36.5 
					201.7,36.4 201.7,36.3 201.6,36.3 201.5,36.3 201.4,36.3 201.3,36.2 201.2,36.2 201.2,36.2 201.2,36.1 201.1,36.1 201,36.1 
					200.9,36.1 200.8,36.1 200.8,36 200.7,36 200.6,36 200.5,36 200.5,35.9 200.5,35.9 200.5,35.9 200.5,35.9 200.4,35.9 
					200.3,35.8 200.1,35.8 200,35.8 199.9,35.9 199.8,35.9 199.8,35.8 199.8,35.7 199.8,35.6 199.8,35.5 199.7,35.5 199.7,35.4 
					199.7,35.4 199.6,35.4 199.5,35.5 199.5,35.6 199.4,35.6 199.5,35.7 199.5,35.8 199.4,35.9 199.3,35.9 199.2,35.9 199.2,35.8 
					199.1,35.9 199,35.9 199,35.9 198.9,35.9 198.8,35.9 198.5,35.7 198.2,35.5 197.9,35.2 197.7,35 197.6,34.8 197.5,34.8 
					197.5,34.8 197.4,34.8 197.3,34.8 197.2,34.8 197.2,34.7 197.1,34.7 196.7,34.2 196.7,34.1 196.7,34.1 196.7,34 196.7,34 
					196.7,33.9 196.7,33.8 196.7,33.7 196.7,33.6 196.6,33.6 196.6,33.5 196.6,33.4 196.5,33.4 196.5,33.3 195.4,32.5 195.3,32.5 
					195.2,32.4 195.2,32.3 195.1,32.2 194.7,32 194.5,31.8 194.4,31.7 194.4,31.6 194.4,31.6 194.3,31.6 194.2,31.6 194.1,31.6 
					194,31.6 194,31.5 194,31.4 194.1,31.3 194.1,31.2 194,31.1 193.9,31.1 193.9,31.2 193.8,31.2 193.7,31.2 193.7,31.1 193.7,31 
					193.7,30.9 193.7,30.8 193.7,30.7 193.7,30.6 193.6,30.7 193.5,30.7 193.4,30.7 193.3,30.6 193.3,30.5 193.3,30.4 193.2,30.4 
					193.1,30.3 193,30.4 192.9,30.4 192.9,30.3 192.9,30.2 192.9,30.2 192.9,30.2 192.8,30.2 192.7,30.2 192.7,30.2 192.6,30.2 
					192.5,30.2 192.5,30.3 192.6,30.3 192.6,30.4 192.5,30.4 192.4,30.4 192.4,30.3 192.3,30.2 192.2,30.2 192.2,30.1 192.2,30.1 
					192.2,30.1 192.2,30 192.2,30.1 192.3,30.1 192.3,30 192.4,30 192.4,29.9 192.3,29.9 192.3,29.8 192.2,29.8 192.2,29.8 
					192.2,29.7 192.2,29.6 192.2,29.5 192.2,29.4 192.1,29.4 192,29.3 192,29.2 191.9,29.2 191.9,29.1 191.9,29 191.9,28.9 
					191.9,28.8 191.9,28.7 191.8,28.7 191.7,28.7 191.7,28.7 191.6,28.7 191.5,28.7 191.6,28.7 191.6,28.8 191.5,28.8 191.4,28.8 
					191.4,28.7 191.5,28.6 191.4,28.5 191.4,28.4 191.4,28.3 191.3,28.2 191.2,28.2 191.2,28.1 191.2,28 191.3,28 191.4,28 
					191.4,28 191.5,27.9 191.6,27.9 191.7,27.8 191.7,27.7 191.7,27.6 191.5,27.6 191.4,27.5 191.4,27.5 191.3,27.4 191.2,27.3 
					191.2,27.3 191.2,27.2 191.3,27.1 191.2,27 191.2,26.9 191.2,26.8 191.3,26.8 191.3,26.7 191.2,26.7 191.2,26.6 191.1,26.6 
					191.2,26.6 191.2,26.5 191.1,26.4 191.1,26.5 191,26.5 190.9,26.5 190.9,26.4 191,26.3 191.1,26.3 191,26.2 190.9,26.2 
					190.9,26.1 190.9,26 191,26 191.1,26 191.1,25.9 191.1,25.8 191,25.8 190.9,25.8 190.8,25.8 190.8,25.7 190.8,25.6 190.7,25.6 
					190.7,25.6 190.7,25.5 190.7,25.5 190.8,25.5 190.9,25.5 191,25.5 191.1,25.5 191.1,25.4 191.1,25.3 191,25.3 191,25.4 
					191,25.3 190.9,25.3 190.8,25.3 190.8,25.2 190.8,25.1 190.7,25.1 190.7,25.1 190.7,25 190.6,25 190.6,24.9 190.5,24.9 
					190.4,24.8 190.3,24.8 190.3,24.7 190.3,24.6 190.4,24.6 190.4,24.5 190.5,24.5 190.5,24.4 190.6,24.4 190.5,24.4 190.5,24.3 
					190.5,24.2 190.4,24.2 190.5,24.1 190.5,24 190.6,24 190.5,23.9 190.5,23.8 190.4,23.8 190.4,23.7 190.3,23.6 190.3,23.5 
					190.2,23.5 190.2,23.4 190.1,23.4 190,23.3 190,23.2 190,23.1 190,23 190,22.9 189.9,22.9 189.9,22.9 189.9,22.8 189.9,22.8 
					189.7,22.8 189.7,22.7 189.6,22.7 189.6,22.6 189.7,22.6 189.8,22.6 189.8,22.5 189.8,22.4 189.7,22.3 189.7,22.2 189.6,22.1 
					189.6,22 189.5,22.1 189.6,22.1 189.6,22.2 189.6,22.3 189.5,22.3 189.4,22.3 189.4,22.2 189.4,22.1 189.3,22 189.3,21.9 
					189.2,21.8 189.2,21.7 189.2,21.7 189.1,21.7 189.1,21.6 189,21.6 188.9,21.6 188.9,21.5 189,21.5 189,21.4 189,21.3 189,21.2 
					189,21.3 188.9,21.3 188.8,21.3 188.8,21.2 188.7,21.1 188.6,21.1 188.5,21.1 188.5,21 188.6,21 188.7,21 188.8,20.9 
					188.9,20.9 188.9,20.8 188.9,20.7 189,20.7 189,20.6 188.9,20.6 188.9,20.5 188.8,20.4 188.8,20.3 188.7,20.3 188.6,20.4 
					188.6,20.5 188.5,20.5 188.5,20.4 188.4,20.5 188.5,20.5 188.4,20.5 188.4,20.5 188.4,20.4 188.4,20.4 188.4,20.3 188.5,20.3 
					188.5,20.2 188.5,20.1 188.4,20.1 188.4,20.1 188.3,20 188.2,20 188.2,19.9 188.2,19.8 188.2,19.7 188.2,19.6 188.2,19.5 
					188.2,19.4 188.2,19.3 188.1,19.2 188.1,19.1 188,19.1 188,19 187.9,19 187.8,19 187.8,18.9 187.7,18.9 187.7,18.8 187.7,18.8 
					187.7,18.7 187.7,18.6 187.7,18.6 187.6,18.5 187.5,18.5 187.5,18.4 187.4,18.4 187.4,18.3 187.5,18.2 187.4,18.2 187.4,18.3 
					187.3,18.3 187.2,18.3 187.2,18.2 187.2,18 187.2,17.9 187.2,17.8 187.2,17.7 187.3,17.7 187.4,17.6 187.4,17.5 187.3,17.5 
					187.2,17.5 187.1,17.5 187,17.5 187,17.6 187.1,17.6 187.1,17.7 187,17.7 186.9,17.7 186.9,17.6 186.9,17.5 186.9,17.4 
					186.9,17.3 186.9,17.2 186.8,17.2 186.7,17.2 186.6,17.2 186.5,17.2 186.5,17.1 186.6,17.1 186.6,17 186.5,17 186.5,16.9 
					186.4,16.8 186.4,16.7 186.4,16.6 186.5,16.6 186.5,16.5 186.4,16.5 186.4,16.4 186.3,16.4 186.3,16.3 186.4,16.3 186.5,16.3 
					186.5,16.2 186.4,16.2 186.4,16.1 186.3,16.1 186.3,16 186.4,16 186.4,15.9 186.4,15.8 186.4,15.9 186.5,15.9 186.5,15.8 
					186.5,15.7 186.5,15.7 186.4,15.7 186.4,15.6 186.5,15.6 186.5,15.5 186.6,15.4 186.5,15.4 186.6,15.4 186.7,15.4 186.7,15.3 
					186.8,15.3 186.8,15.2 186.8,15.1 186.7,15.1 186.6,15.2 186.5,15.2 186.5,15.1 186.4,15.1 186.3,15.1 186.3,15 186.3,14.9 
					186.4,14.8 186.4,14.7 186.4,14.6 186.4,14.5 186.3,14.4 186.4,14.4 186.4,14.3 186.5,14.3 186.5,14.3 186.6,14.3 186.5,14.3 
					186.5,14.2 186.4,14.2 186.4,14.3 186.3,14.3 186.2,14.3 186.2,14.3 186.2,14.3 186.1,14.3 186.1,14.2 186.2,14.1 186.2,14.1 
					186.2,14 186.2,13.9 186.2,13.8 186.3,13.8 186.3,13.6 186.3,13.5 186.2,13.6 186.2,13.5 186.1,13.5 186,13.4 186.1,13.3 
					186.2,13.3 186.2,13.4 186.2,13.4 186.2,13.3 186.3,13.3 186.3,13.2 186.2,13.2 186.2,13.1 186.2,13 186.2,12.9 186.2,12.9 
					186.2,13 186.1,13 186.1,12.9 186.1,12.8 186.1,12.8 186.1,12.7 186.2,12.7 186.2,12.8 186.2,12.8 186.2,12.7 186.2,12.6 
					186.2,12.5 186.2,12.4 186.2,12.3 186.2,12.2 186.1,12.2 186,12.2 185.9,12.2 185.9,12.1 185.8,12.1 185.7,12 185.7,11.9 
					185.7,11.8 185.8,11.8 185.8,11.7 185.8,11.6 185.8,11.5 185.9,11.5 185.9,11.4 185.8,11.4 185.9,11.4 186,11.4 186.1,11.4 
					186.1,11.4 186.1,11.4 186.1,11.3 186,11.3 186,11.2 185.9,11.1 185.9,11 185.8,11 185.8,10.9 185.7,10.9 185.7,10.8 
					185.6,10.7 185.7,10.6 185.7,10.5 185.8,10.5 185.8,10.4 185.7,10.4 185.8,10.4 185.7,10.3 185.8,10.3 185.9,10.3 185.9,10.2 
					185.8,10.2 185.8,10.1 185.8,10 185.9,10 186,10 186.1,10 186.1,9.9 186.2,9.9 186.2,9.9 186.2,9.9 186.3,9.9 186.3,9.8 
					186.2,9.8 186.2,9.7 186.3,9.7 186.4,9.7 186.4,9.6 186.5,9.6 186.5,9.5 186.4,9.5 186.4,9.6 186.3,9.6 186.3,9.5 186.3,9.4 
					186.4,9.4 186.5,9.3 186.5,9.2 186.6,9.1 186.5,9.1 186.5,9 186.4,9 186.4,9.1 186.5,9.1 186.4,9.1 186.4,9 186.3,9 186.3,8.9 
					186.4,8.9 186.5,8.9 186.5,8.8 186.5,8.7 186.5,8.6 186.6,8.5 186.6,8.5 186.5,8.5 186.5,8.5 186.4,8.6 186.5,8.6 186.4,8.6 
					186.3,8.6 186.2,8.6 186.3,8.5 186.2,8.5 186.2,8.4 186.2,8.3 186.3,8.2 186.3,8.1 186.4,8.1 186.4,8.2 186.5,8.2 186.6,8.1 
					186.6,8 186.5,8 186.5,7.9 186.4,7.9 186.3,7.9 186.3,7.8 186.3,7.7 186.4,7.7 186.4,7.6 186.3,7.6 186.2,7.6 186.3,7.6 
					186.2,7.7 186.2,7.6 186.2,7.5 186.2,7.4 186.2,7.3 186.2,7.2 186.2,7.1 186.2,7 186.2,7 186.2,6.9 186.2,6.9 186.2,6.9 
					186.3,6.9 186.3,6.8 186.3,6.7 186.4,6.7 186.5,6.7 186.5,6.6 186.5,6.5 186.6,6.5 186.6,6.4 186.7,6.4 186.7,6.3 186.6,6.3 
					186.6,6.4 186.5,6.3 186.5,6.2 186.5,6.1 186.6,6.1 186.6,6 186.5,6 186.5,5.9 186.6,5.7 186.6,5.6 186.6,5.6 186.6,5.5 
					186.6,5.4 186.6,5.3 186.7,5.2 186.7,5.1 186.7,5 186.6,5 186.6,4.9 186.7,4.8 186.6,4.8 186.6,4.7 186.5,4.6 186.5,4.5 
					186.4,4.4 186.4,4.3 186.3,4.2 186.3,4.2 186.2,4.2 186.3,4.1 186.3,4 186.3,3.9 186.2,3.9 186.2,3.9 186.2,3.8 186.2,3.6 
					186.2,3.5 186.1,3.5 186.1,3.4 186,3.4 186.1,3.3 186.1,3.2 186.2,3.2 186.1,3.1 186.1,3 186,3 186,2.9 185.9,2.9 185.9,2.8 
					185.9,2.7 185.8,2.7 185.8,2.7 185.9,2.6 186,2.6 186,2.5 186,2.3 186,2.2 186,2.1 185.9,2.1 185.8,2 185.7,2 185.7,1.9 
					185.7,1.8 185.6,1.8 185.6,1.7 185.5,1.7 185.5,1.6 185.5,1.5 185.4,1.5 185.4,1.4 185.4,1.3 185.4,1.3 185.3,1.3 185.2,1.2 
					185.2,1.1 185.1,1 185,1 185,0.9 184.9,0.9 184.9,1 184.8,1.1 184.9,1.1 184.9,1.2 184.8,1.2 184.8,1.1 184.7,1.1 184.7,1 
					184.7,1 184.6,0.9 184.5,0.9 184.4,0.9 184.4,0.8 184.4,0.7 184.4,0.6 184.5,0.6 184.5,0.5 184.5,0.4 184.5,0.3 184.5,0.2 
					184.5,0.3 184.5,0.4 184.4,0.4 184.4,0.3 184.3,0.3 184.2,0.3 184.2,0.2 184.1,0.2 184.1,0.3 184.1,0.4 184,0.4 184,0.3 
					184,0.2 183.9,0.2 184,0.1 184,0 184.1,0 184.1,-0.1 184.1,-0.2 184.1,-0.2 184.1,-0.3 184.1,-0.4 184.1,-0.6 184.1,-0.7 
					184,-0.8 184,-0.9 184,-1 183.9,-1.1 183.9,-1.1 183.9,-1.2 183.9,-1.2 183.9,-1.3 183.9,-1.3 183.8,-1.2 183.7,-1.1 
					183.6,-1.1 183.5,-1.2 183.4,-1.2 183.4,-1.1 183.3,-1.1 183.3,-1.2 183.3,-1.3 183.4,-1.3 183.5,-1.3 183.5,-1.4 183.5,-1.5 
					183.4,-1.5 183.4,-1.6 183.3,-1.6 183.2,-1.7 183.2,-1.7 183.1,-1.8 183.1,-1.9 183.1,-2 183,-2 183,-2.1 183,-2.2 182.9,-2.2 
					182.8,-2.2 182.8,-2.3 182.8,-2.4 182.7,-2.4 182.6,-2.4 182.5,-2.5 182.4,-2.5 182.4,-2.6 182.4,-2.6 182.3,-2.6 182.2,-2.6 
					182.2,-2.7 182.3,-2.8 182.3,-2.9 182.3,-3 182.2,-3.1 182.1,-3.1 182.1,-3.1 182,-3.1 182,-3.2 181.9,-3.2 181.8,-3.3 
					181.8,-3.4 181.9,-3.4 182,-3.4 182.1,-3.5 182.2,-3.5 182.2,-3.6 182.2,-3.7 182.2,-3.8 182.2,-3.9 182.3,-3.9 182.3,-4 
					182.3,-4.1 182.3,-4.2 182.2,-4.2 182.2,-4.1 182.1,-4.1 182,-4.1 182,-4.2 181.9,-4.3 182,-4.3 182,-4.4 182.1,-4.4 
					182.1,-4.5 182.1,-4.5 182,-4.5 181.9,-4.5 181.7,-4.5 181.6,-4.5 181.6,-4.5 181.5,-4.5 181.4,-4.5 181.4,-4.5 181.3,-4.5 
					181.3,-4.6 181.2,-4.6 181.1,-4.6 181.1,-4.7 181,-4.7 180.9,-4.8 180.9,-4.9 180.9,-5 180.8,-5 180.7,-5.1 180.6,-5.2 
					180.5,-5.3 180.5,-5.4 180.6,-5.5 180.6,-5.6 180.7,-5.7 180.7,-5.8 180.7,-5.9 180.7,-6 180.6,-6 180.7,-6 180.6,-6 
					180.6,-6.1 180.6,-6.2 180.7,-6.2 180.7,-6.3 180.8,-6.3 180.9,-6.3 180.9,-6.4 180.9,-6.3 180.9,-6.4 180.9,-6.5 180.9,-6.6 
					181,-6.7 180.9,-6.7 180.9,-6.7 180.9,-6.7 180.9,-6.6 180.9,-6.6 180.8,-6.6 180.8,-6.7 180.7,-6.7 180.7,-6.8 180.7,-6.9 
					180.6,-6.9 180.6,-7 180.5,-7 180.5,-7.1 180.5,-7.2 180.6,-7.2 180.6,-7.3 180.6,-7.4 180.6,-7.4 180.6,-7.5 180.6,-7.6 
					180.5,-7.6 180.4,-7.6 180.4,-7.7 180.3,-7.6 180.2,-7.6 180.2,-7.7 180.3,-7.8 180.3,-7.9 180.4,-7.9 180.3,-7.9 180.3,-8 
					180.4,-8 180.4,-8.1 180.4,-8.2 180.3,-8.2 180.3,-8.3 180.2,-8.3 180.2,-8.4 180.2,-8.5 180.2,-8.6 180.2,-8.7 180.3,-8.7 
					180.3,-8.8 180.4,-8.8 180.4,-8.8 180.4,-8.9 180.3,-9 180.3,-9.1 180.3,-9.2 180.2,-9.2 180.3,-9.3 180.3,-9.4 180.2,-9.5 
					180.2,-9.6 180.2,-9.7 180.3,-9.7 180.4,-9.7 180.4,-9.9 180.4,-10 180.4,-10.1 180.4,-10.2 180.3,-10.2 180.2,-10.2 
					180.1,-10.2 180.1,-10.3 180.2,-10.3 180.2,-10.4 180.2,-10.5 180.1,-10.6 180.1,-10.7 180.2,-10.8 180.2,-10.9 180.2,-11 
					180.2,-11.1 180.1,-11.1 180.1,-11 180.1,-11 180.1,-10.9 180.1,-11 180.1,-11.1 180,-11.1 180,-11.2 180,-11.3 179.9,-11.2 
					179.8,-11.2 179.8,-11.3 179.7,-11.3 179.8,-11.4 179.9,-11.4 180,-11.4 179.9,-11.5 179.8,-11.5 179.8,-11.6 179.8,-11.7 
					179.9,-11.7 179.9,-11.6 180,-11.6 180,-11.7 180,-11.7 180,-11.8 179.9,-11.9 179.8,-11.9 179.7,-12 179.6,-12 179.6,-12.1 
					179.6,-12.2 179.6,-12.3 179.6,-12.4 179.7,-12.5 179.7,-12.6 179.6,-12.6 179.6,-12.7 179.6,-12.8 179.5,-12.8 179.5,-12.9 
					179.5,-12.8 179.5,-12.9 179.4,-12.9 179.4,-13 179.4,-13.1 179.4,-13.2 179.4,-13.2 179.4,-13.3 179.4,-13.4 179.4,-13.5 
					179.4,-13.5 179.4,-13.6 179.4,-13.7 179.3,-13.8 179.3,-13.9 179.2,-13.9 179.1,-14 179.1,-14.1 179,-14.1 179,-14.2 
					179,-14.3 179,-14.4 178.9,-14.5 178.8,-14.5 178.7,-14.5 178.6,-14.5 178.6,-14.5 178.6,-14.6 178.6,-14.6 178.6,-14.7 
					178.6,-14.8 178.6,-14.9 178.6,-15 178.6,-15 178.6,-15.1 178.6,-15.2 178.6,-15.3 178.5,-15.3 178.5,-15.4 178.4,-15.4 
					178.4,-15.3 178.3,-15.3 178.3,-15.2 178.3,-15.1 178.2,-15.1 178.1,-15.1 178,-15.1 178,-15.2 178,-15.3 178,-15.4 178,-15.5 
					177.9,-15.4 177.9,-15.4 177.8,-15.4 177.7,-15.3 177.7,-15.4 177.6,-15.4 177.5,-15.4 177.4,-15.4 177.4,-15.5 177.3,-15.5 
					177.3,-15.6 177.3,-15.7 177.2,-15.7 177.1,-15.7 177.1,-15.7 177,-15.6 176.9,-15.6 176.8,-15.6 176.7,-15.7 176.6,-15.7 
					176.6,-15.8 176.5,-15.9 176.6,-16 176.5,-16.1 176.4,-16.1 176.4,-16.1 176.4,-16.2 176.4,-16.2 176.4,-16.3 176.4,-16.4 
					176.4,-16.5 176.4,-16.6 176.4,-16.6 176.4,-16.6 176.5,-16.6 177.2,-16.3 177.3,-16.3 177.8,-16.2 177.9,-16.1 177.9,-16.1 
					178,-16.1 178.1,-16.1 178.7,-16 179,-15.9 179.1,-15.9 179.3,-15.8 179.5,-15.7 180.3,-15.5 180.7,-15.3 180.9,-15.3 
					181.2,-15.2 182.1,-14.9 182.9,-14.6 183.8,-14.5 183.9,-14.4 183.9,-14.4 184.1,-14.4 184.9,-14.1 185,-14.1 185.4,-14 
					185.4,-13.9 185.6,-13.9 186.7,-13.6 188.3,-13.2 188.4,-13.1 188.4,-13.1 188.6,-13 189.2,-12.9 189.7,-12.7 190.2,-12.5 
					190.5,-12.5 190.8,-12.3 191,-12.3 191.2,-12.2 191.4,-12.1 191.7,-12.1 191.9,-12 192,-12 192.2,-11.9 192.3,-11.9 
					192.5,-11.8 193,-11.7 193.6,-11.6 194.2,-11.4 194.4,-11.3 194.8,-11.2 194.9,-11.2 195.4,-11 195.8,-10.9 196.7,-10.6 
					197.4,-10.4 198,-10.3 198.1,-10.3 198.2,-10.3 198.8,-10.1 199,-10 200.2,-9.6 200.5,-9.5 201.2,-9.3 201.3,-9.3 202.2,-9 
					202.4,-8.9 202.8,-8.8 203.1,-8.8 203.3,-8.8 203.6,-8.7 203.7,-8.6 204.6,-8.4 204.9,-8.3 205,-8.3 205,-8.2 205.7,-8 
					205.8,-8 206.5,-7.8 207.2,-7.5 207.7,-7.4 207.9,-7.4 208,-7.4 208.5,-7.3 208.7,-7.2 208.7,-7.2 208.8,-7.1 209,-7.1 
					209.4,-7 209.5,-6.9 209.6,-6.9 209.8,-6.9 210,-6.8 210.2,-6.7 210.7,-6.6 210.8,-6.5 211,-6.5 212.2,-6.1 212.3,-6.1 
					212.6,-6 213.2,-5.9 213.3,-5.8 213.6,-5.7 213.7,-5.7 213.8,-5.7 214.1,-5.6 214.5,-5.5 214.8,-5.4 214.8,-5.4 215,-5.3 
					215.5,-5.2 216.2,-5 216.3,-4.9 216.8,-4.8 216.9,-4.8 217.3,-4.8 217.5,-4.8 217.8,-4.7 218,-4.7 218.4,-4.7 				"/>
				<g>
					<path fill="#174F65" d="M472.7,199.7c-0.4,0-0.9-0.1-1.3-0.4l-11.4-7l-10-1.5l-1.9,0.8c-0.4,0.2-0.9,0.2-1.3,0.2l-6.6-1
						c-0.4-0.1-0.7-0.2-1-0.4l-8.4-5.5l-10-1.7c-0.2,0-0.3-0.1-0.5-0.1l-15.7-6.1c-0.5-0.2-0.9-0.5-1.2-1l-4.6-7.6
						c-0.1-0.2-0.2-0.4-0.3-0.7l-3-11.9l-5.8-3.1c-0.5-0.3-1-0.8-1.2-1.4l-1.5-4.5c-0.3-0.8-0.1-1.8,0.5-2.4l0.6-0.7l0.2-4.3
						l-1.1-0.5c-0.4-0.2-0.7-0.4-1-0.8l-1.4-1.9c-0.4-0.6-0.6-1.3-0.4-2l1.9-7.8l-2.3-2.9l-6-2c-0.4-0.1-0.8-0.4-1.1-0.7l-7.3-8.4
						c-0.1-0.1-0.2-0.2-0.2-0.3l-7.5-12.4l-8.2-4.5c-0.8-0.4-1.3-1.3-1.3-2.2l0.1-3.3l-11.8-23.7c-0.1-0.2-0.1-0.3-0.2-0.5l-1.9-7.7
						l-3.3-3.2c-0.4-0.4-0.6-0.8-0.7-1.4l-0.3-2l-11.9-9.6c-0.1-0.1-0.2-0.2-0.3-0.2l-5.5-5.9c-0.4-0.4-0.6-1-0.7-1.5l-0.1-1.1
						l-4-2.9L299,28.5L284,28c-0.4,0-0.9-0.2-1.3-0.4l-5.3-3.5l-7.7,3.5l-6.3,3l-3.6,5.8l-1.5,7.2c-0.1,0.3-0.2,0.6-0.3,0.8
						l-8.2,12.8c-0.1,0.1-0.2,0.2-0.2,0.3l-4.6,5.1c-0.6,0.7-1.6,1-2.6,0.7l-5.3-1.7c-0.2-0.1-0.3-0.1-0.5-0.2l-3.4-2l-3.7-1
						c-0.2,0-0.3-0.1-0.5-0.2l-8.1-4.2c-0.8-0.4-1.3-1.2-1.3-2l0-0.4l-2.7-2.7l-10.1-3.5c-0.3-0.1-0.6-0.3-0.9-0.5l-15.8-14.9
						c-0.2-0.2-0.3-0.4-0.5-0.6l-5-9.2c-0.2-0.3-0.3-0.7-0.3-1.1l-0.8-15.7l-6.9-12.2c-0.1-0.2-0.2-0.4-0.3-0.7l-1-4.4l-2.4-1.3
						c-0.4-0.2-0.7-0.5-0.9-0.9l-2-3.4l-9.5-3.4c-0.4-0.1-0.7-0.4-1-0.7l-2.7-3.1l-15.1-15.2c-0.2-0.2-0.4-0.4-0.5-0.7l-2.5-5.5
						l-8.8-3.7c-0.6-0.3-1.1-0.7-1.3-1.4l-3.2-8.2l-4.6-4.7l-3.2-0.6c-1-0.2-1.8-1-1.9-1.9l-1.8-9.3c-0.3-1.3,0.6-2.6,1.9-2.9
						c1.3-0.3,2.6,0.6,2.9,1.9l1.5,7.7l2.3,0.4c0.5,0.1,0.9,0.3,1.3,0.7l5.5,5.6c0.2,0.2,0.4,0.5,0.5,0.8l3,7.7l8.7,3.7
						c0.6,0.2,1,0.7,1.3,1.2l2.8,6l14.9,14.9c0,0,0.1,0.1,0.1,0.1l2.4,2.7l9.7,3.5c0.5,0.2,1,0.6,1.3,1l2.1,3.5l2.8,1.5
						c0.6,0.3,1.1,0.9,1.2,1.6l1.2,5.1l7,12.4c0.2,0.3,0.3,0.7,0.3,1.1l0.8,15.7l4.6,8.4l15.1,14.3l10.2,3.5
						c0.3,0.1,0.7,0.3,0.9,0.6l3.8,3.7c0.4,0.4,0.7,0.9,0.7,1.5l6.6,3.4l3.7,1c0.2,0.1,0.4,0.1,0.6,0.2l3.5,2l3.6,1.1l3.4-3.8
						l7.8-12.3l1.5-7.2c0.1-0.3,0.2-0.6,0.3-0.8l4.2-6.8c0.2-0.4,0.6-0.7,1-0.9l7-3.3l9-4.1c0.8-0.3,1.7-0.3,2.4,0.2l5.9,3.9
						l14.4,0.5c0.1,0,0.1,0,0.2,0l13.8,1.6c0.4,0,0.8,0.2,1.2,0.5l5.4,4c0.6,0.4,1,1.1,1,1.9l0.1,1.4l4.8,5.1l12.5,10
						c0.5,0.4,0.8,0.9,0.9,1.5l0.3,2.1l3.2,3.2c0.3,0.3,0.6,0.7,0.7,1.2l2,8.1l11.9,24c0.2,0.4,0.3,0.8,0.3,1.2l-0.1,2.4l7.4,4.1
						c0.4,0.2,0.7,0.5,0.9,0.9l7.7,12.8l6.7,7.8l6,2.1c0.4,0.2,0.8,0.4,1.1,0.8l3.5,4.4c0.5,0.6,0.6,1.4,0.5,2.1l-1.9,7.8l0.3,0.4
						l2.1,0.9c0.9,0.4,1.5,1.3,1.5,2.3l-0.3,6.9c0,0.6-0.2,1.1-0.6,1.5l-0.3,0.3l0.8,2.2l5.9,3.1c0.6,0.3,1.1,0.9,1.2,1.6l3.2,12.5
						l4,6.6l14.7,5.7l10.3,1.7c0.3,0.1,0.7,0.2,0.9,0.4l8.3,5.5l5.4,0.8l1.9-0.8c0.4-0.2,0.9-0.2,1.3-0.2l11.2,1.7
						c0.3,0,0.6,0.2,0.9,0.3l10.4,6.4l4.3-3l1.5-2.6c0.7-1.2,2.2-1.5,3.4-0.9c1.2,0.7,1.5,2.2,0.9,3.4l-1.8,3
						c-0.2,0.3-0.4,0.6-0.7,0.7l-6,4.2C473.6,199.6,473.1,199.7,472.7,199.7z"/>
				</g>
				<g>
					<text transform="matrix(1 0 0 1 78.5022 66.8954)"><tspan x="0" y="0" font-family="'HelveticaNeue'" font-size="23.3979">Las Pampas</tspan><tspan x="0" y="28.1" font-family="'HelveticaNeue'" font-size="23.3979">(Presidio)</tspan></text>
				</g>
			</g>
		</g>
	</g>
	<g>
		<g>
			<polygon fill="#282828" points="256.3,273.4 256.3,272.9 256.4,272.9 256.4,273.3 256.5,273.6 256.5,273.7 256.5,273.8 
				256.5,273.8 256.6,273.9 256.6,273.9 256.6,274 256.6,274 256.6,273.9 256.7,273.9 256.8,273.9 256.9,273.9 256.9,273.9 
				257,273.9 257,273.9 257,273.9 257.2,273.9 257.2,273.9 257.2,273.9 257.2,273.9 257.2,273.9 257.3,273.9 257.3,273.9 
				257.4,273.9 257.4,273.9 257.4,273.9 257.5,273.9 257.5,273.9 257.6,273.9 257.6,273.9 257.6,273.9 257.7,273.9 258,273.9 
				258,273.9 258.2,273.9 258.2,273.9 258.3,273.9 258.4,273.9 258.5,273.9 258.5,273.9 258.5,273.9 258.5,273.9 258.8,273.9 
				258.8,273.9 258.9,273.9 258.9,273.9 259.1,273.9 259.1,273.9 259.1,273.9 259.1,273.9 259.2,273.9 259.3,273.9 259.4,273.9 
				259.4,273.9 259.4,273.9 259.5,273.9 259.7,273.9 259.5,273.9 259.5,274 259.5,273.9 259.5,273.9 259.5,273.9 259.5,273.7 
				259.5,273.6 259.5,273.6 259.5,273.5 259.5,273.4 259.5,273.3 259.5,273.2 259.5,273.2 259.5,273.2 259.5,273.2 259.5,273.2 
				259.5,273.2 259.5,273.1 259.5,273.1 259.5,273.1 259.5,273 259.5,273 259.5,273 259.5,273 259.5,272.8 259.5,272.8 259.5,272.8 
				259.5,272.8 259.5,272.7 259.5,272.6 259.5,272.5 259.5,272.5 259.5,272.4 259.5,272.4 259.5,272.3 259.5,272.2 259.5,272.1 
				259.5,272 259.5,272 259.5,272 259.5,272 259.5,272 259.5,271.9 259.5,271.9 259.5,271.9 259.5,271.8 259.5,271.8 259.5,271.7 
				259.5,271.7 259.5,271.6 259.5,271.6 259.5,271.6 259.5,271.5 259.5,271.4 259.5,271.3 259.5,271.2 259.5,271.2 259.5,271.2 
				259.5,271.2 259.5,271.1 259.5,271.1 259.5,271.1 259.5,270.8 259.5,270.7 259.5,270.7 259.5,270.6 259.5,270.6 259.5,270.6 
				259.5,270.6 259.5,270.5 259.5,270.2 259.5,270.1 259.5,270.1 259.5,270 259.5,270 259.5,269.8 259.5,269.8 259.5,269.8 
				259.5,269.7 259.5,269.7 259.5,269.7 259.5,269.6 259.5,269.6 259.5,269.6 259.5,269.3 259.5,269.2 259.5,269.2 259.5,269.2 
				259.5,269.1 259.5,269.1 259.5,269 259.5,269 259.5,268.9 259.5,268.9 259.6,268.9 259.6,268.9 259.5,268.9 259.5,268.9 
				259.5,268.9 259.4,268.9 259.3,268.9 259.3,268.9 259.3,268.9 259.3,268.9 259.2,268.9 259.2,268.9 259.1,268.9 259.1,268.9 
				259.1,268.9 259.1,268.9 259,268.9 258.9,268.9 258.7,268.9 258.7,268.9 258.7,268.9 258.6,268.9 258.5,268.9 258.4,268.9 
				258.4,268.9 258.3,268.9 258.3,268.9 258.2,268.9 258.2,268.9 258.1,268.9 258.1,268.9 258,268.9 258,268.9 258,268.9 
				257.9,268.9 257.9,268.9 257.9,268.9 257.8,268.9 257.8,268.9 257.8,268.9 257.8,268.9 257.8,268.9 257.7,268.9 257.7,268.9 
				257.7,268.9 257.6,268.9 257.6,268.9 257.6,268.9 257.6,268.9 257.6,268.9 257.5,268.9 257.5,268.9 257.3,268.9 257.3,268.9 
				257.1,268.9 257,268.9 257,268.9 257,268.9 256.9,268.9 256.9,268.9 256.9,268.9 256.8,268.9 256.8,268.9 256.7,268.9 
				256.7,268.9 256.6,268.9 256.6,268.9 256.6,268.9 256.5,268.9 256.4,268.9 256.3,268.9 256.3,268.9 256.3,268.9 256.2,268.9 
				256.2,268.9 256.2,268.9 256.2,268.9 256.2,268.9 256.2,268.9 255.5,269.1 255.5,269 255.5,269 255.5,268.9 255.5,268.9 
				255.5,268.8 255.5,268.8 255.5,268.8 255.5,268.7 255.5,268.7 255.5,268.5 255.5,268.5 255.5,268.5 255.5,268.5 255.5,268.4 
				255.5,268.3 255.5,268.3 255.5,268.2 255.5,268.1 255.5,268.1 255.5,268.1 255.5,268 255.5,268 256,266.9 256,266.9 256,266.9 
				256,266.9 255.8,266.9 255.6,266.9 255.5,266.9 255.4,266.9 255.3,266.9 255.1,266.9 255,266.9 254.9,266.9 254.8,266.9 
				254.8,266.9 254.8,266.9 254.8,266.9 254.7,266.9 254.6,266.9 254.6,266.9 254.5,266.9 254.5,266.9 254.5,266.9 254.4,266.9 
				254.4,266.9 254.3,266.9 254.2,266.9 254.2,266.9 254.2,266.9 254.1,266.9 254,266.9 254,266.9 254,266.9 253.9,267.9 
				253.8,267.9 253.7,267.9 253.7,267.9 253.6,267.9 253.6,267.9 253.5,267.9 253.5,267.9 253.4,267.9 253.4,267.9 253.4,267.9 
				253.4,267.9 253.3,267.9 253.3,267.9 253.2,267.9 253.2,267.9 253.1,267.9 253.1,267.9 253,267.9 253,267.9 252.9,267.9 
				252.9,267.9 252.7,267.9 252.6,267.9 252.4,267.9 252.4,267.9 252.2,267.9 252.2,267.9 252,267.9 252,267.9 252,267.9 
				251.9,267.9 251.9,267.9 251.9,267.9 251.8,267.9 251.8,267.9 252.6,268.4 253.7,270.2 254.7,271.4 255.6,271.7 256.1,272.3 
				255.8,273.5 256,273.8 256.2,273.9 256.2,273.6 			"/>
			<path opacity="0.5" fill="#B4B4B4" d="M285.9,249.2l-0.2-0.3l-0.2-0.8l-1.1-1.7l-0.4-1.1l-0.8-1.2l-0.2-1.1l-0.3-2.6l-0.2-2.6
				l-0.3-2.8l-0.5-0.2l-0.9,0.3l-0.7-0.4l-0.8-0.3l-1-0.2l-0.8-0.4l-0.4-0.5l-0.5-0.1l-0.6,0.4l-1.2,0.1l-0.1-0.3l-0.2,0l-0.8,0.5
				l-0.5-0.2l-1.2,0.8l-0.6,0.2l-0.9-0.2l-0.9-0.3l-2.1,0.4l-0.7,0.1l-1.3-0.5l-1.9-0.1l-0.9-0.3l-0.3-0.6l-2.2-0.3l-0.6-0.5
				l-1.1-0.1l-0.7-0.2l-1.2-0.2l-0.7-0.8l-0.5-0.1l-0.4,0.1l-0.5,0l-0.5-0.2l-1.2-1l0-0.6l-0.2-4.6l0.1-5.8h-14.9l0,4.7l-0.1,15.1
				l-0.3,6.5l-8-0.1l-6.9-0.3l-1.1-0.1l-2.2-0.1l0.2,1.3l0.5,0.1l0.7,0.8l0.5,1.2l1.4,0.6l0.1,0.1v0l0.3,0.7l2,2.1l0.4,0.4l1.4,0.5
				l0.1,0.1l0.3,0.4l0.5,0.2l0.2,0.7l1,1.7l0.1,2.2l0.7,1.3l2.1,1.9l0.3,0h0h0l0.1,0.1l0.1,0.1l0.5,0.4l0,0.5v0.2l1.6,0.6l0.8,0.1
				l0.6,0.3l0.8,0.2l0.7-0.7l1.1-1.7l0.2-1l0.6-0.9l1-0.4l1.2-0.5l0.9,0.6l2,0.1l1.9,0.2l0.7,0.5l0,0.3l0.8,0.8l1.7,1.4l0.1,0.4
				l0.5,0.5l0.3,1.1l1.6,3.3l0,0.5l0.3,0.1h0.1h0.1h0h0h0h0.1h0h0.2h0h0.1h0.1h0.1h0.2h0.1h0.1h0.1h0.1h0h0.1h0.1h0.1h0h0h0h0h0h0
				h0.1h0.1h0.1h0h0.1h0h0.1h0.1l0.1-1h0h0h0.1h0h0h0h0.1h0.1h0h0.1h0h0h0.1h0h0.1h0h0h0h0h0.1h0.1h0.2h0.1h0.2h0.1h0.1h0.2h0.2h0h0
				h0l-0.6,1.1v0.1v0v0v0v0v0.1v0v0.1v0v0v0v0.1v0.1v0v0.1v0v0v0.1v0v0.1v0v0.1l0.7-0.2h0h0h0h0h0h0h0h0.1h0h0.1h0h0h0h0h0h0.1h0.1
				h0h0h0.1h0h0.1h0h0h0.2h0h0.2h0.1h0h0h0h0h0h0h0h0h0.1h0h0h0h0h0.1h0h0h0h0h0h0.1h0.1h0.1h0h0h0.1h0h0.1h0h0.1h0.1h0.1h0h0.2h0
				h0.1h0h0h0h0h0h0.1h0h0h0h0h0.1h0h0h0h0h-0.1v0.6v0v0.1v0v0v0v0.1v0v0v0.2v0v0.1v0v0.1v0.3v0.1v0v0v0v0.1v0v0v0.3v0v0v0v0v0v0
				v0.1v0.1v0.1v0.1v0.1v0v0.1v0.1v0.1v0v0v0v0v0.1v0v0v0v0v0.1v0.1v0.1v0.1v0v0.1v0v0.1v0v0.1v0v0v0v0.1v0v0v0v0v0v0v0v0v0v0v0v0
				v0.1v0.1v0.1v0.1v0v0.1v0.1v0v0v0.1v0h0.1h-0.1h0h0h-0.1h-0.1h-0.1h0h0h0h-0.2h0h-0.1h0h-0.2h0h0h0h0h-0.1h-0.1h0H258h0h-0.3
				h-0.1h0h0h-0.1h0h0h0h-0.1h-0.1h0h0h0h0h0h0H257h0h0h0h-0.1h-0.1h-0.1h0l0,0l0,0l0,0l0,0l0,0l0,0l0,0l0-0.1l-0.1-0.5l0-0.4h0
				l-0.1,0.4l-0.1,0.3l0,0.1l0.2,0.1l0,1l-0.2,0.2l0.2,0.6l0.9,0.5l0.4,1.8l0.1,0.2v0l0.5,0.8l2.1,0.8l0.7,0.1l0,0l0,0l0,0l0-0.1
				l0,0l0,0l0,0.1l0,0l0,0l0,0l0.7,0.1l1.2,0.8l0.9,0.1l0.3-0.2l1.5,0.2l1.6,1l0.8-0.6l0.2-0.4l-0.5-0.7l-0.4-1.7l-0.6-1.9l-0.3-0.7
				l0.2-1.2l0.3-1.1l0.3-1.3l0.3-1.5l-0.6-0.5l0.2-0.5l1.1-0.1l1-1.6l0.9-0.2l1.5-1.1l0.5-0.4l1.7-1l1.5-0.7l1.4-1l0.7-0.6l1.5-1.5
				l0.3-0.2l0.6-0.4l0.7-0.6l0.2-0.5l2.6-1.4l1.5-0.5l-0.2-1.2l0.3-0.8l0.1-2l0.1-0.7l-0.3-0.8l0.7-1.2L285.9,249.2z M222.4,248.4
				l-0.2,0L222.4,248.4L222.4,248.4L222.4,248.4z"/>
		</g>
	</g>
	<g>
		<text transform="matrix(1 0 0 1 11.2425 231.4036)" font-family="'HelveticaNeue'" font-size="23.3979">Rio Bravo/El Cenizo </text>
	</g>
	<g>
		<circle fill="#174F65" stroke="#212121" stroke-width="0.25" stroke-miterlimit="10" cx="14.2" cy="251.2" r="3"/>
		<g>
			<text transform="matrix(1 0 0 1 20.6999 255.0126)" font-family="'HelveticaNeue'" font-size="14">Rio Grande River</text>
		</g>
	</g>
</g>
<g id="Layer_2">
</g>
</svg>
