<?xml version="1.0" encoding="utf-8"?>
<!-- Generator: Adobe Illustrator 18.1.1, SVG Export Plug-In . SVG Version: 6.00 Build 0)  -->
<!DOCTYPE svg PUBLIC "-//W3C//DTD SVG 1.1//EN" "http://www.w3.org/Graphics/SVG/1.1/DTD/svg11.dtd">
<svg version="1.1" id="Layer_1" xmlns="http://www.w3.org/2000/svg" xmlns:xlink="http://www.w3.org/1999/xlink" x="0px" y="0px"
	 width="300px" height="300px" viewBox="0 0 300 300" enable-background="new 0 0 300 300" xml:space="preserve">
<g>
	<defs>
		<rect id="SVGID_1_" x="0" y="0" width="300" height="300"/>
	</defs>
	<clipPath id="SVGID_2_">
		<use xlink:href="#SVGID_1_"  overflow="visible"/>
	</clipPath>
	<rect x="-7" y="-8" clip-path="url(#SVGID_2_)" fill="#FFFEFC" width="317.1" height="316"/>
	<g clip-path="url(#SVGID_2_)">
		<defs>
			<rect id="SVGID_3_" x="-24.1" y="-25" width="350" height="350"/>
		</defs>
		<clipPath id="SVGID_4_">
			<use xlink:href="#SVGID_3_"  overflow="visible"/>
		</clipPath>
		<g clip-path="url(#SVGID_4_)">
			<g opacity="0.5">
				<path fill="#FFFFFF" stroke="#282828" stroke-miterlimit="10" d="M268.1-45l-1.2-2l-1.4-5.7L257.1-65l-2.6-8.1l-5.9-9l-1.5-8.1
					l-2.4-19.2l-1.7-19.5l-2.1-20.4l-4-1.8l-6.5,2.1l-5.1-3l-5.7-2.6l-7.2-1.8l-6-3.1l-3-3.6l-3.4-0.4l-4.7,2.8l-8.6,0.4l-0.9-2.2
					l-1.3,0.1l-6,3.5l-3.9-1.3l-7.5,0.4l-1.4,5.2l-4.3,1.7l-6.7-1.2l-6.9-2.1l-9-1.6l-2.5-3.7l-0.7,0l-3.6,8.5l-5.3,0.7l-9.6-3.5
					l-1.1-3.7l-4.8-0.1l-3.1-0.6l-5.4,3.9l-6.3-2l0.1-4l-2.2-0.5l-4.4-5.4l-5.7-0.4l-6.4,3.5l-4.6-3.5l-8-0.7l-5.5-1.4l-8.7-1.6
					l0.2-6.9l-2.3-0.7l-3.2,1.6l-3.6-0.8l-1.9-1.7l-1.3,2.6l-3.7-0.3l-3.6-1.5l-9.2-7.3l-0.4-4.2l-1.3-32.9l1.1-41.7h-110l-0.2,33.1
					L-89-122.3l-2.2,47.2l-58.7-0.7l-58.8-2.8l-16.2-0.7l1.8,9.3l4,0.7l5.5,5.6l3.4,8.6l9.7,4.1l2.9,6.4l15.2,15.2l2.8,3.1l10.3,3.7
					l2.5,4.1l3.4,1.8l1.3,5.5l7.2,12.7l0.8,16.3l5,9.2l15.8,14.9l10.6,3.7l3.8,3.7l0.1,1.3l8.1,4.2l4,1.1l3.7,2.1l5.3,1.7l4.6-5.1
					l8.2-12.8l1.6-7.6l4.2-6.8l7-3.3l8.9-4.1l6.4,4.2l15.1,0.5l13.8,1.6l5.4,4l0.1,2.3l5.5,5.9l12.6,10.1l0.5,2.9L0,55.5l2.1,8.4
					l12,24.2L14,92.1l8.7,4.8l7.9,13l7.3,8.4l6.7,2.3L48,125l-2.2,8.9l1.4,1.9L50,137l-0.3,6.9l-1.2,1.4l1.5,4.5l6.7,3.6l3.3,12.9
					l4.6,7.6l15.7,6.1l10.5,1.7l8.8,5.8l6.6,1l2.6-1.1l11.2,1.7l11.8,7.2l6-4.2l1.8-3l-3.9-5.4l-2.6-12.3l-4.3-13.8l-1.9-4.8
					l1.2-9.2l1.9-7.9l2.1-9.3l2.4-11.2l-4.8-3.7l1.8-4l8.1-1.1l7.3-11.5l6.8-1.7l11.4-7.8l3.4-3.1l12.4-7.5l11.2-5.5l10.4-7.1
					l5.3-4.5l10.9-11.3l2.5-1.8l4.1-3.2l5-4.2l1.8-4l19.4-10.1l11.3-3.8l-1.7-8.8l2.5-5.6l0.9-14.8l0.5-5.1l-2.2-5.7l4.9-9.1
					L268.1-45z"/>
			</g>
			<polyline opacity="0.1" fill="#CBB17F" points="-222.9,-80.3 -222.6,-80.3 -222.5,-80.3 -222.4,-80.3 -222.3,-80.3 -222.2,-80.3 
				-222.1,-80.3 -222,-80.3 -221.9,-80.3 -221.8,-80.2 -221.8,-80.2 -221.6,-80.2 -221.1,-80.2 -221,-80.2 -220.9,-80.2 
				-220.8,-80.2 -219.1,-80.1 -218.5,-80.1 -217.8,-80.1 -217.7,-80.1 -217.1,-80 -216.6,-80 -216.5,-80 -216.4,-80 -216,-80 
				-215.8,-80 -215.8,-80 -215.6,-80 -215.4,-79.9 -215.3,-79.9 -215.1,-79.9 -214.5,-79.9 -213.9,-79.8 -213.8,-79.8 -213.3,-79.8 
				-212.3,-79.8 -212.2,-79.7 -212.1,-79.7 -212,-79.7 -211.9,-79.7 -211.5,-79.7 -211,-79.7 -210.3,-79.6 -210.2,-79.6 
				-209.9,-79.6 -209.2,-79.6 -207.9,-79.5 -207.5,-79.5 -207.5,-79.5 -207.4,-79.4 -207.3,-79.5 -207.2,-79.4 -206.7,-79.4 
				-205.2,-79.3 -205.1,-79.3 -204.9,-79.3 -204.5,-79.3 -204.3,-79.3 -203,-79.3 -202.2,-79.3 -201.7,-79.2 -200,-79.1 
				-199.9,-79.1 -199.8,-79.1 -199.8,-79 -199.8,-78.8 -199.8,-77.9 -199.9,-77.9 -199.9,-77.8 -199.9,-77.2 -199.9,-76.3 
				-199.9,-76.1 -200,-75.1 -200,-74.7 -200,-74.6 -200,-74.4 -200,-74.3 -200,-74.2 -200,-74.1 -200,-73.9 -200,-73.8 -200,-73.7 
				-200,-73.6 -200,-73.5 -200,-72.8 -200,-72.6 -200,-72.4 -200.1,-71.5 -200.2,-70.3 -200.2,-70.1 -200.2,-69.5 -200.2,-68.8 
				-200.3,-68.3 -200.3,-68 -200.3,-68 -200.4,-66.3 -200.4,-65.8 -200.4,-65.2 -200.4,-65.1 -200.4,-65 -200.4,-64.5 -200.5,-64.4 
				-200.5,-63.7 -200.5,-63.1 -200.5,-62.8 -200.6,-62.6 -200.6,-61.8 -200.6,-60.6 -200.7,-59.9 -200.8,-57.9 -200.8,-57.6 
				-200.8,-57.1 -200.8,-56.1 -199.6,-56 -199.7,-54.2 -199.7,-53.8 -199.7,-53.7 -199.5,-53.7 -200.2,-53 -200.7,-52.7 -201,-52.3 
				-201.1,-52.2 -201.2,-52.2 -201.4,-52.2 -201.4,-52.3 -201.5,-52.4 -201.5,-52.4 -201.9,-52.5 -202.1,-52.5 -202.5,-52.6 
				-203,-52.6 -203,-52.6 -204.1,-52.8 -204.2,-52.8 -204.3,-52.9 -204.4,-52.9 -204.5,-52.9 -204.7,-53.3 -204.9,-53.5 -205,-53.6 
				-205.1,-53.7 -205.3,-53.9 -205.3,-53.9 -205.4,-54 -205.5,-54 -205.9,-54 -206,-54 -206.1,-54.1 -206.2,-54.1 -206.6,-54.4 
				-207.1,-54.7 -207.1,-54.8 -207.5,-55.2 -207.5,-55.2 -207.5,-55.3 -207.5,-55.4 -207.6,-55.4 -207.6,-55.5 -207.7,-55.5 
				-207.7,-55.6 -207.8,-55.6 -207.9,-55.6 -208,-55.7 -208.1,-55.7 -208.3,-55.8 -208.3,-55.8 -208.6,-55.9 -208.6,-55.9 
				-208.7,-55.9 -208.8,-55.9 -208.9,-56 -208.9,-56.1 -209,-56.2 -209.1,-56.4 -209.1,-56.4 -209.2,-56.6 -209.2,-56.7 
				-209.3,-56.7 -209.3,-56.7 -209.4,-57.5 -209.4,-57.5 -209.4,-57.6 -209.5,-57.6 -209.5,-57.7 -209.8,-58.1 -209.8,-58.1 
				-209.8,-58.2 -209.9,-58.2 -210,-58.7 -210.1,-59.1 -210.1,-59.3 -210.2,-59.4 -210.2,-59.5 -210.3,-59.5 -210.3,-59.6 
				-210.4,-59.7 -210.5,-59.7 -210.6,-59.7 -210.6,-59.8 -210.6,-59.8 -211.4,-60.4 -211.4,-60.5 -211.6,-61.3 -211.6,-61.4 
				-211.8,-61.9 -211.9,-62.1 -211.9,-62.2 -212,-62.3 -212.1,-62.5 -212.1,-62.6 -212.1,-62.7 -212.1,-63 -212.2,-63.2 
				-212.3,-63.4 -212.7,-64.2 -213,-64.8 -213.2,-65 -213.3,-65.3 -213.6,-66.2 -213.6,-66.5 -213.9,-66.7 -214.3,-67.1 
				-214.5,-67.2 -214.6,-67.9 -214.7,-68 -214.9,-68.2 -215.2,-68.4 -215.6,-68.7 -216.1,-69 -216.2,-69.1 -216.6,-69.1 
				-216.7,-69.2 -216.7,-69.3 -217,-69.5 -217.2,-69.5 -217.3,-69.6 -217.3,-69.6 -217.9,-69.5 -218,-69.4 -218.1,-69.2 
				-218.1,-69.1 -218.2,-69 -218.5,-69 -218.6,-69 -218.6,-68.9 -218.7,-68.9 -218.7,-69 -218.8,-69 -218.8,-69.2 -219,-69.2 
				-219,-69.3 -219.2,-69.5 -219.4,-69.6 -219.5,-69.6 -219.6,-69.7 -219.6,-70 -219.6,-70.1 -219.7,-70.1 -220,-70.3 -220.2,-70.5 
				-220.1,-70.6 -220.1,-70.7 -220.1,-70.8 -220.1,-70.9 -220.1,-71 -220.2,-71 -220.3,-71 -220.3,-71.1 -220.3,-71.2 -220.3,-71.3 
				-220.4,-71.3 -220.4,-71.4 -220.5,-71.5 -220.6,-71.5 -220.6,-71.6 -220.7,-71.6 -220.7,-71.7 -220.8,-71.8 -220.9,-71.8 
				-221.1,-71.8 -221.2,-71.9 -221.3,-71.9 -221.3,-72 -221.5,-72 -221.6,-71.9 -221.7,-71.9 -221.8,-71.9 -221.8,-71.9 -221.9,-72 
				-222,-72.1 -222,-72.2 -222.2,-72.4 -222.2,-72.5 -222.3,-72.5 -222.5,-72.5 -222.6,-72.5 -222.8,-72.6 -222.9,-72.7 
				-222.8,-72.8 -222.8,-72.9 -222.8,-73 -222.8,-73.1 -222.7,-73.2 -222.7,-73.3 -222.7,-73.3 -222.7,-73.4 -222.8,-73.5 
				-222.9,-73.5 -222.9,-73.6 -223,-73.6 -223.1,-73.6 -223.2,-73.6 -223.3,-73.7 -223.4,-73.8 -223.4,-73.9 -223.5,-74 
				-223.6,-74.2 -223.7,-74.2 -223.7,-74.3 -223.8,-74.4 -223.9,-74.4 -223.9,-74.5 -223.9,-74.7 -223.9,-74.8 -223.9,-74.8 
				-223.8,-74.8 -223.8,-74.9 -223.7,-75 -223.7,-75.1 -223.6,-75.1 -223.6,-75.2 -223.6,-75.3 -223.6,-75.4 -223.7,-75.4 
				-223.7,-75.5 -223.8,-75.5 -223.8,-75.5 -223.9,-75.5 -224,-75.6 -224.1,-75.6 -224.1,-75.6 -224.1,-75.7 -224.2,-75.7 
				-224.2,-75.8 -224.1,-75.9 -224.1,-76 -224.1,-76.1 -224,-76.2 -224,-76.3 -223.9,-76.3 -223.8,-76.3 -223.7,-76.3 -223.7,-76.4 
				-223.6,-76.4 -223.5,-76.4 -223.4,-76.4 -223.4,-76.5 -223.4,-76.5 -223.3,-76.6 -223.2,-76.6 -223.2,-76.7 -223.1,-76.7 
				-223,-76.7 -222.9,-76.8 -223,-76.9 -223.1,-76.9 -223.2,-77 -223.3,-77 -223.3,-77 -223.4,-77 -223.4,-77 -223.5,-77 
				-223.5,-77.1 -223.4,-77.1 -223.4,-77.2 -223.4,-77.3 -223.3,-77.3 -223.3,-77.4 -223.3,-77.5 -223.2,-77.5 -223.2,-77.6 
				-223.2,-77.8 -223.3,-77.9 -223.1,-78 -223,-78 -222.9,-78 -222.9,-78.1 -222.9,-78.2 -222.9,-78.3 -222.9,-78.4 -223,-78.4 
				-223.2,-78.3 -223.3,-78.3 -223.3,-78.5 -223.3,-78.6 -223.2,-78.6 -223.1,-78.6 -223.1,-78.7 -223,-78.7 -223,-78.8 -223,-79 
				-223,-79.1 -223.1,-79.1 -223.2,-79.2 -223.3,-79.1 -223.3,-79 -223.4,-79.1 -223.4,-79.1 -223.5,-79.2 -223.6,-79.3 
				-223.7,-79.3 -223.7,-79.3 -223.7,-79.4 -223.8,-79.5 -223.7,-79.5 -223.6,-79.7 -223.4,-79.9 -223.4,-79.9 -223.3,-79.9 
				-223.1,-79.9 -223.1,-80 -223,-80.1 -222.9,-80.1 -222.9,-80.2 -222.9,-80.3 			"/>
			<polygon opacity="0.1" fill="#CBB17F" points="-120.2,-5.1 -120.2,-4.7 -120.2,-3.5 -120.2,-3.1 -120.2,-2.9 -120.2,-2.7 
				-120.2,-2.4 -120.2,-2.2 -120.2,-2.1 -120.2,-1.5 -120.2,-1.3 -120.2,-0.8 -120.2,-0.6 -120.2,-0.6 -120.2,-0.5 -120.2,-0.1 
				-120.3,0.4 -120.3,0.7 -120.3,0.9 -120.3,0.9 -120.3,1 -120.3,1.1 -120.3,1.5 -120.3,1.7 -120.3,1.8 -120.3,2.1 -120.3,2.2 
				-120.3,2.3 -120.3,3 -120.3,3.2 -120.4,3.4 -120.4,3.7 -120.4,4.5 -120.4,5.2 -120.4,5.7 -120.5,6.4 -120.5,6.6 -120.5,7 
				-120.5,7.7 -120.5,8.1 -120.6,8.6 -120.7,11.3 -120.7,12.2 -120.7,12.8 -120.7,13.2 -120.7,13.9 -120.7,14 -120.8,15.2 
				-120.8,16 -120.8,16.1 -120.8,16.8 -120.8,17.5 -120.9,17.6 -120.9,18.4 -120.9,18.6 -120.9,19.2 -120.9,19.7 -120.9,19.8 
				-120.9,20.1 -120.9,20.2 -121,20.3 -121,20.4 -121,20.8 -121,21.4 -121,21.6 -121,22.2 -121,22.6 -121,23 -121,23.1 -121,23.3 
				-121,23.6 -121,23.8 -121,23.9 -121,24 -121,24.3 -121,24.4 -121,24.5 -121,24.7 -121,24.8 -121,25 -121,25.2 -121,25.4 
				-121,25.5 -121,26.6 -121,26.8 -121,26.9 -121,27 -121.1,28.5 -121.1,29.2 -121.1,29.7 -121.1,29.9 -121.1,31.2 -121.1,31.3 
				-121.1,31.7 -121.1,31.8 -121.1,32.4 -121.1,32.6 -121.2,32.6 -121.2,33.2 -121.2,33.5 -121.2,34.3 -121.2,34.5 -121.2,34.8 
				-121.2,35.5 -121.2,36.1 -121.2,36.2 -121.3,36.3 -121.3,37 -121.3,37.1 -121.3,37.3 -121.3,37.8 -121.3,38 -121.3,38.2 
				-121.3,38.3 -121.5,42.8 -121.5,42.9 -121.5,43.3 -121.5,43.9 -121.5,44.1 -121.5,44.3 -121.5,44.4 -121.6,45.2 -121.6,45.6 
				-121.6,46 -121.6,47 -121.7,47.7 -121.7,48.1 -121.7,48.2 -121.7,48.3 -121.7,48.3 -121.7,48.4 -121.8,48.4 -121.9,48.4 
				-122,48.4 -122,48.3 -122.1,48.3 -122.2,48.3 -122.2,48.2 -122.2,48.1 -122.3,48.1 -122.3,48 -122.2,47.9 -122.2,47.8 
				-122.3,47.7 -122.4,47.7 -122.4,47.6 -122.5,47.6 -122.5,47.7 -122.6,47.7 -122.7,47.8 -122.8,47.8 -122.9,47.8 -123,47.8 
				-123.1,47.7 -123.2,47.7 -123.2,47.7 -123.2,47.6 -123.3,47.5 -123.3,47.4 -123.4,47.4 -123.5,47.4 -123.5,47.3 -123.6,47.3 
				-123.7,47.3 -123.8,47.3 -124,47.2 -124,47.2 -124.1,47.2 -124.2,47.3 -124.3,47.3 -124.4,47.2 -124.4,47.1 -124.5,47.2 
				-124.6,47.2 -124.7,47.2 -124.7,47.1 -124.7,47.1 -124.7,47.1 -124.8,47.1 -124.9,47.1 -125,47.1 -125.1,47.1 -125.2,47.1 
				-125.2,47.1 -125.2,47.2 -125.3,47.2 -125.3,47.3 -125.4,47.2 -125.5,47.2 -125.5,47.1 -125.5,47.1 -125.5,47.1 -125.6,47 
				-125.6,46.9 -125.7,46.9 -125.8,46.9 -125.9,47 -126,47 -126.1,47.1 -126.2,47.1 -126.2,47.1 -126.3,47.1 -126.4,47 -126.4,46.9 
				-126.4,46.8 -126.4,46.7 -126.5,46.7 -126.6,46.7 -126.6,46.6 -126.7,46.6 -126.8,46.6 -126.9,46.6 -127,46.6 -127,46.6 
				-127.1,46.6 -127.2,46.6 -127.3,46.5 -127.4,46.5 -127.5,46.5 -127.6,46.5 -127.7,46.4 -127.7,46.3 -127.7,46.4 -127.8,46.4 
				-127.9,46.3 -128,46.3 -128.1,46.3 -128.2,46.3 -128.3,46.2 -128.4,46.2 -128.4,46.3 -128.4,46.4 -128.5,46.4 -128.5,46.4 
				-128.6,46.4 -128.7,46.3 -128.8,46.3 -128.9,46.2 -129,46.2 -129,46.1 -129.1,46.1 -129.3,46 -129.4,45.9 -129.5,45.9 
				-129.8,45.8 -129.9,45.7 -130,45.6 -130,45.6 -130,45.6 -130.1,45.6 -130.2,45.6 -130.3,45.6 -130.4,45.5 -130.5,45.5 
				-130.6,45.5 -130.6,45.4 -130.7,45.3 -130.8,45.3 -130.8,45.3 -130.8,45.2 -130.9,45.2 -131,45.1 -131.1,45.1 -131.1,45 
				-131.3,44.9 -131.4,44.9 -131.4,44.8 -131.5,44.8 -131.5,44.7 -131.5,44.7 -131.6,44.6 -131.6,44.5 -131.6,44.4 -131.6,44.3 
				-131.7,44.3 -131.8,44.3 -131.9,44.2 -132,44.2 -132.1,44.2 -132.1,44.1 -132.2,44.1 -132.2,44 -132.3,44 -132.3,43.9 
				-132.3,43.9 -132.3,44 -132.4,44 -132.5,44 -132.6,44 -132.6,43.9 -132.7,43.8 -132.8,43.7 -132.9,43.7 -132.9,43.6 -133,43.5 
				-132.9,43.5 -132.9,43.4 -132.9,43.3 -133,43.2 -133,43.2 -133,43.1 -133.1,43.1 -133.2,43.1 -133.2,43 -133.2,42.9 -133.2,42.8 
				-133.3,42.8 -133.4,42.8 -133.5,42.7 -133.5,42.6 -133.6,42.6 -133.7,42.6 -133.8,42.6 -133.8,42.7 -133.8,42.7 -133.9,42.7 
				-134,42.7 -134.1,42.7 -134.1,42.6 -134.1,42.5 -134.1,42.4 -134.1,42.3 -134.1,42.2 -134.2,42.2 -134.3,42.3 -134.4,42.3 
				-134.5,42.3 -134.5,42.2 -134.5,42.2 -134.5,42.1 -134.6,42 -134.6,42.1 -134.7,42.2 -134.8,42.2 -134.9,42.2 -134.9,42.1 
				-134.9,42 -134.9,41.9 -135,41.8 -135,41.9 -135.1,41.9 -135.2,41.9 -135.2,41.8 -135.3,41.7 -135.3,41.6 -135.3,41.5 
				-135.4,41.5 -135.4,41.6 -135.5,41.6 -135.6,41.6 -135.7,41.6 -135.7,41.5 -135.8,41.5 -135.8,41.4 -135.9,41.4 -135.8,41.4 
				-135.8,41.3 -135.8,41.3 -135.8,41.2 -135.8,41.1 -135.9,41.1 -136,41.1 -136,41 -136,40.9 -136,40.8 -136,40.8 -136.1,40.8 
				-136.1,40.7 -136.2,40.7 -136.3,40.6 -136.3,40.5 -136.3,40.3 -136.3,40.2 -136.3,40.1 -136.3,40 -136.3,39.9 -136.4,39.9 
				-136.4,39.9 -136.5,39.9 -136.6,39.8 -136.7,39.7 -136.7,39.6 -136.8,39.6 -136.8,39.5 -136.8,39.4 -136.8,39.3 -136.8,39.3 
				-136.8,39.2 -136.9,39.2 -137,39.2 -137,39.1 -137.1,39.1 -137.2,39 -137.3,39 -137.4,38.9 -137.5,38.8 -137.5,38.7 -137.5,38.7 
				-137.5,38.6 -137.6,38.6 -137.6,38.5 -137.6,38.4 -137.5,38.4 -137.5,38.3 -137.5,38.1 -137.4,38.1 -137.4,38 -137.4,37.9 
				-137.4,37.8 -137.4,37.7 -137.4,37.6 -137.3,37.4 -137.3,37.3 -137.4,37.3 -137.4,37.2 -137.5,37.2 -137.5,37.2 -137.6,37.3 
				-137.7,37.3 -137.8,37.4 -137.9,37.4 -138,37.4 -138,37.5 -138.1,37.5 -138.2,37.4 -138.2,37.3 -138.2,37.2 -138.2,37.1 
				-138.2,37 -138.2,37 -138.2,36.9 -138.3,36.7 -138.3,36.7 -138.3,36.6 -138.4,36.7 -138.5,36.6 -138.6,36.5 -138.7,36.4 
				-138.7,36.3 -138.8,36.3 -138.9,36.2 -139,36.2 -139,36.2 -139.1,36.2 -139.2,36.2 -139.2,36.1 -139.2,36 -139.2,35.9 
				-139.2,35.8 -139.3,35.8 -139.4,35.8 -139.5,35.8 -139.6,35.7 -139.7,35.7 -139.8,35.7 -139.8,35.6 -139.8,35.6 -139.9,35.6 
				-140,35.6 -140.1,35.6 -140.1,35.5 -140.2,35.5 -140.3,35.5 -140.4,35.5 -140.5,35.5 -140.4,35.5 -140.4,35.4 -140.5,35.4 
				-140.5,35.4 -140.6,35.3 -140.8,35.3 -140.9,35.3 -141,35.4 -141.1,35.4 -141.1,35.3 -141.1,35.2 -141.1,35.1 -141.1,35 
				-141.2,35 -141.2,34.9 -141.3,34.9 -141.3,34.9 -141.4,35 -141.4,35.1 -141.5,35.1 -141.4,35.2 -141.4,35.3 -141.5,35.4 
				-141.6,35.4 -141.7,35.4 -141.7,35.3 -141.8,35.4 -141.9,35.4 -142,35.5 -142.1,35.5 -142.1,35.5 -142.4,35.2 -142.7,35 
				-143,34.7 -143.2,34.5 -143.3,34.3 -143.4,34.3 -143.5,34.3 -143.6,34.3 -143.6,34.3 -143.7,34.3 -143.7,34.2 -143.8,34.2 
				-144.3,33.7 -144.3,33.6 -144.2,33.6 -144.2,33.5 -144.3,33.5 -144.3,33.4 -144.3,33.3 -144.3,33.2 -144.3,33.1 -144.3,33.1 
				-144.3,33 -144.3,32.9 -144.4,32.9 -144.4,32.8 -145.5,32 -145.6,32 -145.7,31.9 -145.8,31.8 -145.8,31.7 -146.2,31.5 
				-146.4,31.3 -146.5,31.2 -146.5,31.2 -146.6,31.2 -146.6,31.2 -146.7,31.1 -146.8,31.1 -146.9,31.1 -146.9,31 -146.9,30.9 
				-146.8,30.8 -146.8,30.7 -146.9,30.6 -147,30.6 -147,30.7 -147.1,30.7 -147.2,30.7 -147.2,30.6 -147.2,30.5 -147.2,30.4 
				-147.3,30.3 -147.3,30.2 -147.3,30.1 -147.3,30.2 -147.4,30.2 -147.5,30.2 -147.6,30.1 -147.6,30 -147.6,29.9 -147.7,29.9 
				-147.8,29.8 -147.9,29.9 -148,29.9 -148,29.8 -148,29.8 -148,29.7 -148.1,29.7 -148.1,29.7 -148.2,29.7 -148.2,29.8 -148.3,29.8 
				-148.4,29.8 -148.4,29.8 -148.3,29.8 -148.3,29.9 -148.4,29.9 -148.5,29.9 -148.5,29.8 -148.6,29.8 -148.7,29.7 -148.7,29.6 
				-148.8,29.6 -148.7,29.6 -148.7,29.5 -148.7,29.6 -148.6,29.6 -148.6,29.5 -148.5,29.5 -148.5,29.4 -148.6,29.4 -148.6,29.3 
				-148.7,29.3 -148.8,29.3 -148.8,29.2 -148.8,29.1 -148.8,29 -148.8,28.9 -148.8,28.9 -148.9,28.8 -148.9,28.7 -149,28.7 
				-149,28.6 -149,28.5 -149,28.4 -149,28.3 -149,28.3 -149.1,28.3 -149.2,28.3 -149.2,28.2 -149.3,28.2 -149.4,28.3 -149.3,28.3 
				-149.3,28.3 -149.4,28.3 -149.5,28.3 -149.5,28.3 -149.4,28.1 -149.5,28 -149.5,27.9 -149.6,27.8 -149.6,27.7 -149.7,27.7 
				-149.7,27.6 -149.7,27.5 -149.6,27.5 -149.6,27.5 -149.5,27.5 -149.4,27.4 -149.3,27.4 -149.2,27.3 -149.2,27.2 -149.2,27.1 
				-149.4,27.1 -149.5,27 -149.6,27 -149.6,26.9 -149.7,26.9 -149.7,26.8 -149.7,26.7 -149.6,26.6 -149.7,26.5 -149.7,26.4 
				-149.7,26.3 -149.6,26.3 -149.6,26.2 -149.7,26.2 -149.7,26.1 -149.8,26.1 -149.7,26.1 -149.7,26 -149.8,25.9 -149.8,26 
				-149.9,26 -150,26 -150,25.9 -149.9,25.8 -149.8,25.8 -149.9,25.7 -150,25.7 -150,25.6 -150,25.5 -149.9,25.5 -149.8,25.5 
				-149.8,25.4 -149.8,25.4 -149.9,25.3 -150,25.3 -150.1,25.3 -150.1,25.2 -150.1,25.1 -150.2,25.1 -150.3,25.1 -150.3,25 
				-150.2,25 -150.1,25 -150,25 -149.9,25 -149.8,25 -149.8,24.9 -149.8,24.8 -149.9,24.8 -149.9,24.9 -149.9,24.8 -150,24.8 
				-150.1,24.8 -150.1,24.7 -150.1,24.6 -150.2,24.6 -150.3,24.6 -150.3,24.5 -150.3,24.5 -150.3,24.4 -150.4,24.4 -150.5,24.3 
				-150.6,24.3 -150.6,24.2 -150.6,24.1 -150.5,24.1 -150.5,24 -150.4,24 -150.4,24 -150.3,23.9 -150.4,23.9 -150.4,23.8 
				-150.4,23.7 -150.5,23.7 -150.4,23.6 -150.4,23.5 -150.3,23.5 -150.4,23.4 -150.4,23.3 -150.5,23.3 -150.5,23.2 -150.6,23.1 
				-150.6,23 -150.7,23 -150.7,22.9 -150.8,22.9 -150.9,22.8 -150.9,22.7 -150.9,22.6 -150.9,22.5 -150.9,22.5 -151,22.5 -151,22.4 
				-151,22.3 -151.1,22.3 -151.2,22.3 -151.2,22.2 -151.3,22.2 -151.3,22.1 -151.2,22.1 -151.1,22.1 -151.1,22 -151.1,21.9 
				-151.2,21.8 -151.2,21.7 -151.3,21.6 -151.3,21.5 -151.4,21.6 -151.3,21.6 -151.3,21.7 -151.3,21.8 -151.4,21.8 -151.5,21.8 
				-151.5,21.7 -151.5,21.6 -151.6,21.5 -151.6,21.4 -151.7,21.3 -151.7,21.2 -151.8,21.2 -151.8,21.2 -151.8,21.1 -151.9,21.1 
				-152,21.1 -152,21.1 -151.9,21 -151.9,20.9 -151.9,20.8 -151.9,20.7 -151.9,20.8 -152,20.8 -152.1,20.8 -152.1,20.7 -152.2,20.6 
				-152.3,20.6 -152.4,20.6 -152.4,20.5 -152.3,20.5 -152.2,20.5 -152.1,20.4 -152,20.4 -152,20.3 -152,20.2 -151.9,20.2 
				-151.9,20.1 -152,20.1 -152,20 -152.1,19.9 -152.1,19.8 -152.2,19.8 -152.3,19.9 -152.3,20 -152.4,20 -152.4,19.9 -152.5,20 
				-152.4,20 -152.5,20 -152.6,20 -152.6,19.9 -152.5,19.9 -152.5,19.8 -152.4,19.8 -152.4,19.7 -152.4,19.6 -152.5,19.6 
				-152.6,19.6 -152.6,19.6 -152.7,19.5 -152.7,19.4 -152.7,19.3 -152.7,19.2 -152.7,19.1 -152.7,19 -152.7,18.9 -152.7,18.8 
				-152.8,18.7 -152.8,18.6 -152.9,18.6 -152.9,18.5 -153,18.5 -153.1,18.5 -153.1,18.4 -153.2,18.4 -153.2,18.3 -153.3,18.3 
				-153.3,18.2 -153.3,18.2 -153.3,18.1 -153.3,18 -153.4,18 -153.4,17.9 -153.5,17.9 -153.5,17.8 -153.4,17.7 -153.5,17.7 
				-153.5,17.8 -153.6,17.8 -153.7,17.8 -153.7,17.7 -153.7,17.5 -153.7,17.4 -153.7,17.3 -153.7,17.2 -153.6,17.2 -153.5,17.1 
				-153.5,17 -153.6,17 -153.7,17 -153.8,17 -153.9,17 -153.9,17.1 -153.8,17.1 -153.8,17.2 -153.9,17.2 -154,17.2 -154,17.1 
				-154,17 -154,16.9 -154,16.8 -154.1,16.8 -154.1,16.8 -154.2,16.8 -154.3,16.8 -154.4,16.7 -154.4,16.6 -154.3,16.6 -154.3,16.5 
				-154.4,16.5 -154.4,16.4 -154.5,16.3 -154.5,16.2 -154.5,16.1 -154.4,16.1 -154.4,16 -154.5,16 -154.5,15.9 -154.6,15.9 
				-154.6,15.8 -154.5,15.8 -154.4,15.8 -154.4,15.7 -154.5,15.7 -154.5,15.6 -154.6,15.6 -154.6,15.5 -154.5,15.5 -154.5,15.4 
				-154.5,15.3 -154.5,15.4 -154.4,15.4 -154.4,15.3 -154.4,15.3 -154.4,15.2 -154.5,15.2 -154.5,15.1 -154.4,15.1 -154.4,15 
				-154.3,14.9 -154.4,14.9 -154.3,14.9 -154.2,14.9 -154.2,14.8 -154.1,14.8 -154.1,14.7 -154.1,14.6 -154.2,14.6 -154.3,14.7 
				-154.4,14.7 -154.4,14.6 -154.5,14.6 -154.6,14.6 -154.6,14.5 -154.6,14.4 -154.5,14.3 -154.5,14.2 -154.5,14.1 -154.5,14 
				-154.6,13.9 -154.5,13.9 -154.5,13.9 -154.4,13.9 -154.4,13.8 -154.3,13.8 -154.4,13.8 -154.4,13.7 -154.5,13.7 -154.5,13.8 
				-154.6,13.8 -154.7,13.9 -154.8,13.9 -154.8,13.8 -154.8,13.8 -154.8,13.7 -154.8,13.6 -154.7,13.6 -154.7,13.5 -154.7,13.4 
				-154.7,13.3 -154.6,13.3 -154.6,13.1 -154.6,13 -154.7,13.1 -154.8,13 -154.8,13 -154.9,12.9 -154.8,12.8 -154.8,12.8 
				-154.8,12.9 -154.7,12.9 -154.7,12.8 -154.6,12.8 -154.6,12.7 -154.7,12.7 -154.7,12.6 -154.7,12.5 -154.7,12.4 -154.8,12.4 
				-154.8,12.5 -154.8,12.5 -154.8,12.4 -154.8,12.4 -154.8,12.3 -154.8,12.2 -154.8,12.2 -154.8,12.3 -154.7,12.3 -154.7,12.2 
				-154.7,12.1 -154.7,12 -154.7,11.9 -154.8,11.8 -154.8,11.7 -154.8,11.7 -154.9,11.7 -155,11.7 -155,11.6 -155.1,11.6 
				-155.2,11.5 -155.2,11.4 -155.2,11.3 -155.1,11.3 -155.1,11.2 -155.1,11.1 -155.1,11 -155,11 -155,11 -155.1,11 -155,11 
				-154.9,10.9 -154.8,10.9 -154.8,11 -154.8,10.9 -154.8,10.8 -154.9,10.8 -154.9,10.7 -155,10.6 -155,10.5 -155.1,10.5 
				-155.1,10.4 -155.2,10.4 -155.2,10.3 -155.3,10.2 -155.2,10.1 -155.2,10 -155.1,10 -155.1,9.9 -155.2,9.9 -155.1,9.9 -155.2,9.8 
				-155.1,9.8 -155,9.8 -155,9.7 -155.1,9.7 -155.1,9.6 -155.1,9.5 -155,9.5 -154.9,9.5 -154.8,9.5 -154.8,9.5 -154.8,9.5 
				-154.8,9.4 -154.7,9.4 -154.6,9.4 -154.6,9.3 -154.7,9.3 -154.7,9.2 -154.6,9.2 -154.5,9.2 -154.5,9.1 -154.4,9.1 -154.4,9 
				-154.5,9 -154.5,9.1 -154.6,9.1 -154.6,9 -154.6,8.9 -154.5,8.9 -154.4,8.8 -154.4,8.7 -154.3,8.6 -154.4,8.6 -154.4,8.5 
				-154.5,8.5 -154.5,8.6 -154.4,8.6 -154.5,8.6 -154.5,8.5 -154.6,8.5 -154.6,8.4 -154.5,8.4 -154.4,8.4 -154.4,8.3 -154.4,8.2 
				-154.4,8.1 -154.3,8.1 -154.3,8 -154.4,8 -154.4,8.1 -154.5,8.1 -154.4,8.1 -154.5,8.1 -154.6,8.1 -154.7,8.1 -154.6,8 -154.7,8 
				-154.7,7.9 -154.7,7.8 -154.6,7.7 -154.6,7.6 -154.5,7.6 -154.5,7.7 -154.4,7.7 -154.3,7.6 -154.3,7.5 -154.4,7.5 -154.4,7.4 
				-154.5,7.4 -154.6,7.4 -154.6,7.3 -154.6,7.2 -154.5,7.2 -154.5,7.1 -154.6,7.1 -154.7,7.1 -154.6,7.1 -154.7,7.2 -154.7,7.1 
				-154.7,7 -154.7,6.9 -154.7,6.8 -154.7,6.7 -154.7,6.6 -154.7,6.6 -154.7,6.5 -154.7,6.4 -154.8,6.4 -154.7,6.4 -154.6,6.4 
				-154.6,6.3 -154.6,6.2 -154.5,6.2 -154.4,6.2 -154.4,6.1 -154.4,6 -154.3,6 -154.3,5.9 -154.2,5.9 -154.2,5.8 -154.3,5.8 
				-154.3,5.9 -154.4,5.8 -154.4,5.7 -154.4,5.6 -154.3,5.6 -154.3,5.5 -154.4,5.5 -154.4,5.4 -154.3,5.2 -154.3,5.2 -154.3,5.1 
				-154.3,5 -154.3,4.9 -154.3,4.8 -154.2,4.7 -154.2,4.6 -154.2,4.5 -154.3,4.5 -154.3,4.4 -154.2,4.3 -154.3,4.3 -154.3,4.2 
				-154.4,4.1 -154.4,4 -154.5,3.9 -154.5,3.8 -154.6,3.8 -154.6,3.7 -154.7,3.7 -154.6,3.6 -154.6,3.5 -154.6,3.4 -154.7,3.4 
				-154.8,3.4 -154.8,3.3 -154.8,3.1 -154.8,3 -154.8,3 -154.8,2.9 -154.9,2.9 -154.8,2.8 -154.8,2.7 -154.8,2.7 -154.8,2.6 
				-154.8,2.5 -154.9,2.5 -154.9,2.4 -155,2.4 -155,2.3 -155,2.3 -155.1,2.3 -155.1,2.2 -155,2.1 -154.9,2.1 -154.9,2 -154.9,1.8 
				-154.9,1.7 -154.9,1.6 -155,1.6 -155.1,1.5 -155.2,1.5 -155.2,1.4 -155.2,1.3 -155.3,1.3 -155.3,1.2 -155.4,1.2 -155.4,1.1 
				-155.4,1 -155.5,1 -155.6,0.9 -155.6,0.9 -155.6,0.8 -155.6,0.8 -155.7,0.7 -155.7,0.6 -155.8,0.5 -155.9,0.5 -155.9,0.4 
				-156,0.4 -156,0.5 -156.1,0.6 -156,0.6 -156,0.7 -156.1,0.7 -156.1,0.6 -156.2,0.6 -156.2,0.5 -156.3,0.5 -156.4,0.4 -156.4,0.4 
				-156.5,0.4 -156.5,0.3 -156.5,0.2 -156.5,0.1 -156.4,0.1 -156.4,0 -156.4,-0.1 -156.4,-0.2 -156.4,-0.3 -156.4,-0.2 -156.4,-0.1 
				-156.5,-0.1 -156.5,-0.2 -156.6,-0.2 -156.7,-0.2 -156.7,-0.3 -156.8,-0.3 -156.8,-0.2 -156.8,-0.1 -156.9,-0.1 -156.9,-0.2 
				-156.9,-0.3 -157,-0.3 -156.9,-0.4 -156.9,-0.5 -156.8,-0.5 -156.8,-0.6 -156.8,-0.6 -156.8,-0.7 -156.8,-0.8 -156.8,-0.9 
				-156.8,-1.1 -156.8,-1.2 -156.9,-1.3 -156.9,-1.4 -156.9,-1.5 -157,-1.6 -157.1,-1.6 -157.1,-1.7 -157,-1.7 -157,-1.8 
				-157.1,-1.8 -157.1,-1.7 -157.2,-1.6 -157.3,-1.6 -157.4,-1.7 -157.5,-1.7 -157.5,-1.6 -157.6,-1.6 -157.6,-1.7 -157.6,-1.8 
				-157.5,-1.8 -157.4,-1.8 -157.4,-1.9 -157.4,-2 -157.5,-2 -157.5,-2 -157.6,-2.1 -157.7,-2.2 -157.8,-2.2 -157.9,-2.3 
				-157.9,-2.4 -157.9,-2.5 -157.9,-2.5 -157.9,-2.6 -157.9,-2.7 -158,-2.7 -158.1,-2.7 -158.1,-2.8 -158.1,-2.9 -158.2,-2.9 
				-158.3,-2.9 -158.4,-3 -158.5,-3 -158.5,-3.1 -158.6,-3.1 -158.6,-3.1 -158.7,-3.1 -158.7,-3.2 -158.6,-3.3 -158.6,-3.4 
				-158.6,-3.5 -158.7,-3.5 -158.8,-3.5 -158.8,-3.6 -158.9,-3.6 -158.9,-3.7 -159,-3.7 -159.1,-3.8 -159.1,-3.9 -159,-3.9 
				-158.9,-3.9 -158.8,-4 -158.7,-4 -158.7,-4.1 -158.7,-4.2 -158.7,-4.3 -158.7,-4.4 -158.6,-4.4 -158.6,-4.5 -158.6,-4.6 
				-158.6,-4.7 -158.7,-4.7 -158.7,-4.6 -158.8,-4.6 -158.9,-4.6 -158.9,-4.7 -159,-4.8 -158.9,-4.8 -158.9,-4.9 -158.8,-4.9 
				-158.8,-4.9 -158.8,-5 -158.9,-5 -159,-5 -159.2,-4.9 -159.3,-4.9 -159.4,-4.9 -159.4,-4.9 -159.5,-4.9 -159.5,-5 -159.6,-5 
				-159.6,-5.1 -159.7,-5.1 -159.8,-5.1 -159.8,-5.2 -159.9,-5.2 -160,-5.3 -160,-5.4 -160.1,-5.5 -160.1,-5.5 -160.2,-5.6 
				-160.3,-5.7 -160.4,-5.8 -160.4,-5.9 -160.3,-6 -160.3,-6.1 -160.2,-6.2 -160.2,-6.3 -160.2,-6.4 -160.2,-6.4 -160.3,-6.5 
				-160.2,-6.5 -160.3,-6.5 -160.3,-6.6 -160.3,-6.7 -160.2,-6.7 -160.2,-6.8 -160.1,-6.8 -160.1,-6.8 -160.1,-6.9 -160,-6.8 
				-160,-6.9 -160,-7 -160,-7.1 -159.9,-7.2 -160,-7.2 -160.1,-7.2 -160,-7.2 -160,-7.1 -160.1,-7.1 -160.1,-7.1 -160.1,-7.2 
				-160.2,-7.2 -160.2,-7.3 -160.2,-7.4 -160.3,-7.4 -160.3,-7.5 -160.4,-7.5 -160.4,-7.6 -160.4,-7.7 -160.3,-7.7 -160.3,-7.8 
				-160.3,-7.8 -160.3,-7.9 -160.3,-8 -160.3,-8.1 -160.4,-8.1 -160.5,-8.1 -160.5,-8.2 -160.6,-8.1 -160.7,-8.1 -160.7,-8.2 
				-160.6,-8.3 -160.6,-8.4 -160.5,-8.4 -160.6,-8.4 -160.6,-8.5 -160.5,-8.5 -160.5,-8.6 -160.5,-8.7 -160.6,-8.7 -160.6,-8.8 
				-160.7,-8.8 -160.7,-8.9 -160.7,-9 -160.7,-9.1 -160.7,-9.2 -160.6,-9.2 -160.6,-9.3 -160.5,-9.3 -160.5,-9.3 -160.5,-9.4 
				-160.6,-9.5 -160.6,-9.6 -160.6,-9.7 -160.7,-9.7 -160.6,-9.8 -160.6,-9.9 -160.7,-10 -160.7,-10.1 -160.7,-10.2 -160.6,-10.2 
				-160.5,-10.2 -160.5,-10.4 -160.5,-10.5 -160.5,-10.6 -160.5,-10.7 -160.6,-10.7 -160.7,-10.7 -160.8,-10.7 -160.8,-10.7 
				-160.7,-10.8 -160.7,-10.9 -160.7,-11 -160.8,-11.1 -160.8,-11.2 -160.7,-11.3 -160.7,-11.4 -160.7,-11.5 -160.7,-11.6 
				-160.8,-11.6 -160.8,-11.5 -160.9,-11.5 -160.9,-11.4 -160.9,-11.5 -160.9,-11.6 -160.9,-11.6 -160.9,-11.7 -160.9,-11.8 
				-161,-11.7 -161.1,-11.7 -161.1,-11.8 -161.2,-11.8 -161.1,-11.9 -161,-11.9 -160.9,-11.9 -161,-12 -161.1,-12 -161.1,-12.1 
				-161.1,-12.1 -161,-12.1 -161,-12.1 -160.9,-12.1 -160.9,-12.1 -160.9,-12.2 -160.9,-12.3 -161,-12.4 -161.1,-12.4 -161.2,-12.5 
				-161.3,-12.5 -161.3,-12.6 -161.3,-12.7 -161.3,-12.8 -161.3,-12.9 -161.2,-13 -161.2,-13.1 -161.3,-13.1 -161.3,-13.2 
				-161.3,-13.3 -161.4,-13.3 -161.4,-13.4 -161.4,-13.3 -161.4,-13.4 -161.5,-13.4 -161.6,-13.5 -161.6,-13.6 -161.5,-13.6 
				-161.5,-13.7 -161.5,-13.8 -161.5,-13.9 -161.5,-14 -161.6,-14 -161.6,-14.1 -161.6,-14.2 -161.6,-14.3 -161.6,-14.4 
				-161.7,-14.4 -161.8,-14.5 -161.8,-14.6 -161.9,-14.6 -161.9,-14.7 -161.9,-14.8 -161.9,-14.9 -162,-15 -162.1,-15 -162.2,-15 
				-162.3,-15 -162.4,-15 -162.4,-15 -162.4,-15.1 -162.4,-15.2 -162.3,-15.3 -162.3,-15.4 -162.3,-15.5 -162.4,-15.5 -162.4,-15.6 
				-162.4,-15.7 -162.4,-15.8 -162.4,-15.8 -162.4,-15.9 -162.5,-15.9 -162.5,-15.8 -162.6,-15.8 -162.6,-15.7 -162.6,-15.6 
				-162.7,-15.6 -162.8,-15.6 -162.9,-15.6 -162.9,-15.7 -162.9,-15.8 -162.9,-15.9 -162.9,-16 -163,-15.9 -163.1,-15.9 
				-163.1,-15.9 -163.2,-15.8 -163.2,-15.9 -163.3,-15.9 -163.4,-15.9 -163.5,-15.9 -163.5,-16 -163.6,-16 -163.6,-16.1 
				-163.6,-16.2 -163.7,-16.2 -163.8,-16.2 -163.9,-16.2 -163.9,-16.1 -164,-16.1 -164.1,-16.1 -164.2,-16.2 -164.3,-16.2 
				-164.3,-16.3 -164.4,-16.4 -164.3,-16.5 -164.4,-16.5 -164.5,-16.5 -164.5,-16.6 -164.5,-16.7 -164.6,-16.7 -164.6,-16.8 
				-164.6,-16.9 -164.5,-17 -164.5,-17.1 -164.6,-17.1 -164.5,-17.1 -164.4,-17.1 -163.7,-16.8 -163.6,-16.8 -163.1,-16.7 
				-163.1,-16.6 -163,-16.6 -162.9,-16.6 -162.8,-16.5 -162.2,-16.5 -161.9,-16.4 -161.8,-16.4 -161.6,-16.3 -161.4,-16.2 
				-160.6,-16 -160.2,-15.8 -160.1,-15.8 -159.7,-15.7 -158.8,-15.4 -158,-15.1 -157.1,-15 -157.1,-14.9 -157,-14.9 -156.8,-14.9 
				-156,-14.6 -155.9,-14.6 -155.5,-14.5 -155.5,-14.4 -155.3,-14.4 -154.2,-14.1 -152.6,-13.6 -152.6,-13.6 -152.5,-13.6 
				-152.3,-13.5 -151.8,-13.4 -151.2,-13.2 -150.7,-13 -150.4,-13 -150.1,-12.8 -149.9,-12.8 -149.7,-12.7 -149.5,-12.6 
				-149.2,-12.6 -149,-12.5 -148.9,-12.5 -148.7,-12.4 -148.6,-12.4 -148.4,-12.3 -147.9,-12.2 -147.3,-12.1 -146.7,-11.9 
				-146.6,-11.8 -146.1,-11.7 -146,-11.7 -145.5,-11.5 -145.1,-11.4 -144.2,-11.1 -143.6,-10.9 -142.9,-10.7 -142.8,-10.7 
				-142.8,-10.7 -142.1,-10.6 -141.9,-10.5 -140.7,-10.1 -140.4,-10 -139.7,-9.8 -139.6,-9.8 -138.7,-9.5 -138.5,-9.4 -138.1,-9.3 
				-137.8,-9.3 -137.6,-9.3 -137.3,-9.2 -137.2,-9.1 -136.3,-8.9 -136,-8.8 -136,-8.8 -135.9,-8.7 -135.2,-8.5 -135.1,-8.5 
				-134.4,-8.3 -133.7,-8 -133.2,-7.9 -133,-7.8 -132.9,-7.8 -132.4,-7.8 -132.3,-7.7 -132.2,-7.7 -132.1,-7.6 -131.9,-7.6 
				-131.5,-7.5 -131.5,-7.4 -131.3,-7.4 -131.1,-7.4 -130.9,-7.3 -130.8,-7.2 -130.2,-7.1 -130.1,-7 -129.9,-7 -128.7,-6.6 
				-128.6,-6.6 -128.3,-6.5 -127.7,-6.4 -127.6,-6.3 -127.3,-6.2 -127.2,-6.2 -127.1,-6.2 -126.8,-6.1 -126.4,-6 -126.2,-5.9 
				-126.1,-5.9 -125.9,-5.8 -125.4,-5.7 -124.7,-5.5 -124.6,-5.4 -124.1,-5.3 -124,-5.3 -123.6,-5.3 -123.4,-5.3 -123.1,-5.2 
				-122.9,-5.2 -122.5,-5.2 			"/>
			<g>
				<path fill="#174F65" d="M131.7,199.2c-0.4,0-0.9-0.1-1.3-0.4l-11.4-7l-10-1.5l-1.9,0.8c-0.4,0.2-0.9,0.2-1.3,0.2l-6.6-1
					c-0.4-0.1-0.7-0.2-1-0.4l-8.4-5.5l-10-1.7c-0.2,0-0.3-0.1-0.5-0.1l-15.7-6.1c-0.5-0.2-0.9-0.5-1.2-1l-4.6-7.6
					c-0.1-0.2-0.2-0.4-0.3-0.7l-3-11.9l-5.8-3.1c-0.5-0.3-1-0.8-1.2-1.4l-1.5-4.5c-0.3-0.8-0.1-1.8,0.5-2.4l0.6-0.7l0.2-4.3
					l-1.1-0.5c-0.4-0.2-0.7-0.4-1-0.8l-1.4-1.9c-0.4-0.6-0.6-1.3-0.4-2l1.9-7.8l-2.3-2.9l-6-2c-0.4-0.1-0.8-0.4-1.1-0.7l-7.3-8.4
					c-0.1-0.1-0.2-0.2-0.2-0.3L21,99.3l-8.2-4.5c-0.8-0.4-1.3-1.3-1.3-2.2l0.1-3.3L-0.1,65.6c-0.1-0.2-0.1-0.3-0.2-0.5l-1.9-7.7
					l-3.3-3.2c-0.4-0.4-0.6-0.8-0.7-1.4l-0.3-2l-11.9-9.6c-0.1-0.1-0.2-0.2-0.3-0.2l-5.5-5.9c-0.4-0.4-0.6-1-0.7-1.5l-0.1-1.1
					l-4-2.9L-41.9,28l-15-0.5c-0.4,0-0.9-0.2-1.3-0.4l-5.3-3.5l-7.7,3.5l-6.3,3l-3.6,5.8l-1.5,7.2c-0.1,0.3-0.2,0.6-0.3,0.8
					l-8.2,12.8c-0.1,0.1-0.2,0.2-0.2,0.3l-4.6,5.1c-0.6,0.7-1.6,1-2.6,0.7l-5.3-1.7c-0.2-0.1-0.3-0.1-0.5-0.2l-3.4-2l-3.7-1
					c-0.2,0-0.3-0.1-0.5-0.2l-8.1-4.2c-0.8-0.4-1.3-1.2-1.3-2l0-0.4l-2.7-2.7l-10.1-3.5c-0.3-0.1-0.6-0.3-0.9-0.5l-15.8-14.9
					c-0.2-0.2-0.3-0.4-0.5-0.6l-5-9.2c-0.2-0.3-0.3-0.7-0.3-1.1L-157.4,3l-6.9-12.2c-0.1-0.2-0.2-0.4-0.3-0.7l-1-4.4l-2.4-1.3
					c-0.4-0.2-0.7-0.5-0.9-0.9l-2-3.4l-9.5-3.4c-0.4-0.1-0.7-0.4-1-0.7l-2.7-3.1l-15.1-15.2c-0.2-0.2-0.4-0.4-0.5-0.7l-2.5-5.5
					l-8.8-3.7c-0.6-0.3-1.1-0.7-1.3-1.4l-3.2-8.2l-4.6-4.7l-3.2-0.6c-1-0.2-1.8-1-1.9-1.9l-1.8-9.3c-0.3-1.3,0.6-2.6,1.9-2.9
					c1.3-0.3,2.6,0.6,2.9,1.9l1.5,7.7l2.3,0.4c0.5,0.1,0.9,0.3,1.3,0.7l5.5,5.6c0.2,0.2,0.4,0.5,0.5,0.8l3,7.7l8.7,3.7
					c0.6,0.2,1,0.7,1.3,1.2l2.8,6l14.9,14.9c0,0,0.1,0.1,0.1,0.1l2.4,2.7l9.7,3.5c0.5,0.2,1,0.6,1.3,1l2.1,3.5l2.8,1.5
					c0.6,0.3,1.1,0.9,1.2,1.6l1.2,5.1l7,12.4c0.2,0.3,0.3,0.7,0.3,1.1l0.8,15.7l4.6,8.4l15.1,14.3l10.2,3.5c0.3,0.1,0.7,0.3,0.9,0.6
					l3.8,3.7c0.4,0.4,0.7,0.9,0.7,1.5l6.6,3.4l3.7,1c0.2,0.1,0.4,0.1,0.6,0.2l3.5,2l3.6,1.1l3.4-3.8l7.8-12.3l1.5-7.2
					c0.1-0.3,0.2-0.6,0.3-0.8l4.2-6.8c0.2-0.4,0.6-0.7,1-0.9l7-3.3l9-4.1c0.8-0.3,1.7-0.3,2.4,0.2l5.9,3.9l14.4,0.5
					c0.1,0,0.1,0,0.2,0l13.8,1.6c0.4,0,0.8,0.2,1.2,0.5l5.4,4c0.6,0.4,1,1.1,1,1.9l0.1,1.4l4.8,5.1l12.5,10c0.5,0.4,0.8,0.9,0.9,1.5
					l0.3,2.1l3.2,3.2c0.3,0.3,0.6,0.7,0.7,1.2l2,8.1l11.9,24c0.2,0.4,0.3,0.8,0.3,1.2l-0.1,2.4l7.4,4.1c0.4,0.2,0.7,0.5,0.9,0.9
					l7.7,12.8l6.7,7.8l6,2.1c0.4,0.2,0.8,0.4,1.1,0.8l3.5,4.4c0.5,0.6,0.6,1.4,0.5,2.1l-1.9,7.8l0.3,0.4l2.1,0.9
					c0.9,0.4,1.5,1.3,1.5,2.3l-0.3,6.9c0,0.6-0.2,1.1-0.6,1.5l-0.3,0.3l0.8,2.2l5.9,3.1c0.6,0.3,1.1,0.9,1.2,1.6l3.2,12.5l4,6.6
					l14.7,5.7l10.3,1.7c0.3,0.1,0.7,0.2,0.9,0.4l8.3,5.5l5.4,0.8l1.9-0.8c0.4-0.2,0.9-0.2,1.3-0.2l11.2,1.7c0.3,0,0.6,0.2,0.9,0.3
					l10.4,6.4l4.3-3l1.5-2.6c0.7-1.2,2.2-1.5,3.4-0.9c1.2,0.7,1.5,2.2,0.9,3.4l-1.8,3c-0.2,0.3-0.4,0.6-0.7,0.7l-6,4.2
					C132.7,199.1,132.2,199.2,131.7,199.2z"/>
			</g>
			<g>
				<g>
					<path d="M-258.4,49.7v14.8h8.8v1.9h-11.1V49.7H-258.4z"/>
					<path d="M-236.9,66.4c-0.3,0.2-0.8,0.3-1.4,0.3c-0.5,0-0.9-0.1-1.2-0.4c-0.3-0.3-0.5-0.8-0.5-1.4c-0.5,0.7-1.2,1.1-1.9,1.4
						c-0.7,0.3-1.5,0.4-2.4,0.4c-0.5,0-1.1-0.1-1.6-0.2c-0.5-0.1-0.9-0.3-1.3-0.6c-0.4-0.3-0.6-0.6-0.9-1c-0.2-0.4-0.3-0.9-0.3-1.6
						c0-0.7,0.1-1.2,0.4-1.7s0.5-0.8,0.9-1.1c0.4-0.3,0.8-0.5,1.3-0.6s1-0.3,1.5-0.4c0.5-0.1,1.1-0.2,1.6-0.2s0.9-0.1,1.3-0.2
						c0.4-0.1,0.7-0.2,0.9-0.4c0.2-0.2,0.3-0.5,0.3-0.9c0-0.4-0.1-0.8-0.2-1.1c-0.2-0.3-0.4-0.5-0.6-0.6c-0.3-0.1-0.5-0.2-0.9-0.3
						c-0.3,0-0.6-0.1-0.9-0.1c-0.8,0-1.5,0.2-2.1,0.5c-0.6,0.3-0.9,0.9-0.9,1.8h-2c0-0.7,0.2-1.4,0.5-1.9c0.3-0.5,0.7-0.9,1.1-1.3
						c0.5-0.3,1-0.5,1.6-0.7s1.2-0.2,1.9-0.2c0.5,0,1.1,0,1.6,0.1s1,0.2,1.5,0.5c0.4,0.2,0.8,0.6,1.1,1c0.3,0.4,0.4,1,0.4,1.7v6.2
						c0,0.5,0,0.8,0.1,1s0.2,0.3,0.5,0.3c0.2,0,0.4,0,0.6-0.1V66.4z M-240.1,60.2c-0.2,0.2-0.6,0.3-1,0.4s-0.8,0.2-1.3,0.2
						c-0.4,0.1-0.9,0.1-1.3,0.2c-0.5,0.1-0.9,0.2-1.2,0.3c-0.4,0.2-0.7,0.4-0.9,0.7c-0.2,0.3-0.3,0.7-0.3,1.2c0,0.3,0.1,0.6,0.2,0.8
						c0.1,0.2,0.3,0.4,0.5,0.5c0.2,0.1,0.5,0.2,0.7,0.3c0.3,0.1,0.6,0.1,0.9,0.1c0.7,0,1.2-0.1,1.7-0.3c0.5-0.2,0.8-0.4,1.1-0.7
						c0.3-0.3,0.5-0.6,0.7-0.9s0.2-0.6,0.2-0.9V60.2z"/>
					<path d="M-233.6,63.7c0.2,0.3,0.4,0.5,0.7,0.7c0.3,0.2,0.6,0.3,1,0.4c0.4,0.1,0.8,0.1,1.2,0.1c0.3,0,0.6,0,1-0.1
						c0.3,0,0.7-0.1,0.9-0.3c0.3-0.1,0.5-0.3,0.7-0.5c0.2-0.2,0.3-0.5,0.3-0.9c0-0.5-0.2-0.9-0.6-1.2c-0.4-0.3-0.9-0.5-1.5-0.6
						c-0.6-0.2-1.2-0.3-1.9-0.4c-0.7-0.1-1.3-0.3-1.9-0.6c-0.6-0.2-1.1-0.6-1.5-1s-0.6-1-0.6-1.8c0-0.6,0.1-1.1,0.4-1.6
						c0.3-0.4,0.6-0.8,1.1-1.1c0.4-0.3,0.9-0.5,1.5-0.6s1.1-0.2,1.6-0.2c0.7,0,1.3,0.1,1.9,0.2s1.1,0.3,1.5,0.6
						c0.4,0.3,0.8,0.7,1.1,1.2c0.3,0.5,0.4,1.1,0.5,1.8h-2c0-0.4-0.1-0.7-0.3-1c-0.2-0.3-0.4-0.5-0.7-0.6c-0.3-0.2-0.6-0.3-0.9-0.3
						c-0.3-0.1-0.6-0.1-1-0.1c-0.3,0-0.6,0-0.9,0.1c-0.3,0-0.6,0.1-0.8,0.2c-0.2,0.1-0.5,0.3-0.6,0.5s-0.2,0.4-0.2,0.8
						c0,0.3,0.1,0.6,0.4,0.9c0.2,0.2,0.5,0.4,0.9,0.6c0.4,0.1,0.8,0.3,1.3,0.4c0.5,0.1,0.9,0.2,1.4,0.3c0.5,0.1,1,0.2,1.5,0.4
						c0.5,0.2,0.9,0.4,1.3,0.6c0.4,0.3,0.7,0.6,0.9,1c0.2,0.4,0.3,0.9,0.3,1.5c0,0.7-0.2,1.3-0.5,1.8c-0.3,0.5-0.7,0.9-1.2,1.2
						c-0.5,0.3-1,0.5-1.7,0.6c-0.6,0.1-1.2,0.2-1.8,0.2c-0.7,0-1.3-0.1-1.9-0.2c-0.6-0.1-1.1-0.4-1.6-0.7s-0.8-0.7-1.1-1.3
						c-0.3-0.5-0.4-1.2-0.5-1.9h2C-233.9,63-233.8,63.4-233.6,63.7z"/>
					<path d="M-209.2,49.7c1.7,0,3,0.4,3.8,1.3c0.9,0.9,1.3,2.1,1.3,3.6c0,1.6-0.4,2.8-1.3,3.7c-0.9,0.9-2.1,1.3-3.8,1.3h-5.1v6.8
						h-2.2V49.7H-209.2z M-210,57.7c1.3,0,2.2-0.2,2.8-0.8s0.9-1.3,0.9-2.3c0-1-0.3-1.8-0.9-2.3s-1.5-0.8-2.8-0.8h-4.4v6.1H-210z"/>
					<path d="M-191.5,66.4c-0.3,0.2-0.8,0.3-1.4,0.3c-0.5,0-0.9-0.1-1.2-0.4c-0.3-0.3-0.5-0.8-0.5-1.4c-0.5,0.7-1.2,1.1-1.9,1.4
						c-0.7,0.3-1.5,0.4-2.4,0.4c-0.5,0-1.1-0.1-1.6-0.2c-0.5-0.1-0.9-0.3-1.3-0.6c-0.4-0.3-0.6-0.6-0.9-1c-0.2-0.4-0.3-0.9-0.3-1.6
						c0-0.7,0.1-1.2,0.4-1.7s0.5-0.8,0.9-1.1c0.4-0.3,0.8-0.5,1.3-0.6s1-0.3,1.5-0.4c0.5-0.1,1.1-0.2,1.6-0.2s0.9-0.1,1.3-0.2
						c0.4-0.1,0.7-0.2,0.9-0.4c0.2-0.2,0.3-0.5,0.3-0.9c0-0.4-0.1-0.8-0.2-1.1c-0.2-0.3-0.4-0.5-0.6-0.6c-0.3-0.1-0.5-0.2-0.9-0.3
						c-0.3,0-0.6-0.1-0.9-0.1c-0.8,0-1.5,0.2-2.1,0.5c-0.6,0.3-0.9,0.9-0.9,1.8h-2c0-0.7,0.2-1.4,0.5-1.9c0.3-0.5,0.7-0.9,1.1-1.3
						c0.5-0.3,1-0.5,1.6-0.7s1.2-0.2,1.9-0.2c0.5,0,1.1,0,1.6,0.1s1,0.2,1.5,0.5c0.4,0.2,0.8,0.6,1.1,1c0.3,0.4,0.4,1,0.4,1.7v6.2
						c0,0.5,0,0.8,0.1,1s0.2,0.3,0.5,0.3c0.2,0,0.4,0,0.6-0.1V66.4z M-194.8,60.2c-0.2,0.2-0.6,0.3-1,0.4s-0.8,0.2-1.3,0.2
						c-0.4,0.1-0.9,0.1-1.3,0.2c-0.5,0.1-0.9,0.2-1.2,0.3c-0.4,0.2-0.7,0.4-0.9,0.7c-0.2,0.3-0.3,0.7-0.3,1.2c0,0.3,0.1,0.6,0.2,0.8
						c0.1,0.2,0.3,0.4,0.5,0.5c0.2,0.1,0.5,0.2,0.7,0.3c0.3,0.1,0.6,0.1,0.9,0.1c0.7,0,1.2-0.1,1.7-0.3c0.5-0.2,0.8-0.4,1.1-0.7
						c0.3-0.3,0.5-0.6,0.7-0.9s0.2-0.6,0.2-0.9V60.2z"/>
					<path d="M-187.8,54.3v1.8h0c0.9-1.4,2.2-2.1,3.9-2.1c0.7,0,1.4,0.2,2,0.5c0.6,0.3,1,0.8,1.3,1.6c0.4-0.7,0.9-1.2,1.6-1.5
						c0.7-0.4,1.4-0.5,2.2-0.5c0.6,0,1.2,0.1,1.6,0.2s0.9,0.3,1.3,0.6c0.4,0.3,0.6,0.6,0.8,1.1c0.2,0.4,0.3,1,0.3,1.6v8.9h-2v-7.9
						c0-0.4,0-0.7-0.1-1.1c-0.1-0.3-0.2-0.6-0.4-0.9s-0.4-0.4-0.7-0.6c-0.3-0.1-0.7-0.2-1.2-0.2c-1,0-1.8,0.3-2.3,0.8
						s-0.8,1.3-0.8,2.2v7.5h-2v-7.9c0-0.4,0-0.7-0.1-1.1c-0.1-0.3-0.2-0.6-0.4-0.9s-0.4-0.4-0.7-0.6c-0.3-0.1-0.7-0.2-1.1-0.2
						c-0.6,0-1.1,0.1-1.5,0.4c-0.4,0.2-0.7,0.5-1,0.8c-0.3,0.3-0.4,0.7-0.6,1c-0.1,0.4-0.2,0.6-0.2,0.9v7.5h-2V54.3H-187.8z"/>
					<path d="M-167.9,54.3v1.6h0c0.3-0.7,0.8-1.2,1.5-1.5c0.7-0.3,1.5-0.5,2.3-0.5c0.9,0,1.8,0.2,2.4,0.5c0.7,0.3,1.3,0.8,1.7,1.4
						s0.8,1.3,1,2c0.2,0.8,0.4,1.6,0.4,2.4c0,0.9-0.1,1.7-0.3,2.4c-0.2,0.8-0.6,1.4-1,2c-0.5,0.6-1,1-1.7,1.3
						c-0.7,0.3-1.5,0.5-2.4,0.5c-0.3,0-0.6,0-1-0.1c-0.4-0.1-0.7-0.2-1.1-0.3c-0.4-0.1-0.7-0.3-1-0.6c-0.3-0.2-0.6-0.5-0.8-0.9h0V71
						h-2V54.3H-167.9z M-160.7,58.6c-0.1-0.5-0.4-1-0.7-1.4c-0.3-0.4-0.7-0.8-1.2-1c-0.5-0.2-1-0.4-1.7-0.4c-0.7,0-1.2,0.1-1.7,0.4
						c-0.5,0.3-0.9,0.6-1.1,1c-0.3,0.4-0.5,0.9-0.6,1.5c-0.1,0.5-0.2,1.1-0.2,1.7c0,0.6,0.1,1.2,0.2,1.7c0.1,0.6,0.4,1,0.7,1.5
						c0.3,0.4,0.7,0.8,1.2,1s1.1,0.4,1.8,0.4s1.3-0.1,1.7-0.4c0.5-0.3,0.8-0.6,1.1-1.1c0.3-0.4,0.5-0.9,0.6-1.5s0.2-1.1,0.2-1.7
						C-160.5,59.7-160.6,59.1-160.7,58.6z"/>
					<path d="M-145.5,66.4c-0.3,0.2-0.8,0.3-1.4,0.3c-0.5,0-0.9-0.1-1.2-0.4c-0.3-0.3-0.5-0.8-0.5-1.4c-0.5,0.7-1.2,1.1-1.9,1.4
						c-0.7,0.3-1.5,0.4-2.4,0.4c-0.5,0-1.1-0.1-1.6-0.2c-0.5-0.1-0.9-0.3-1.3-0.6c-0.4-0.3-0.6-0.6-0.9-1c-0.2-0.4-0.3-0.9-0.3-1.6
						c0-0.7,0.1-1.2,0.4-1.7s0.5-0.8,0.9-1.1c0.4-0.3,0.8-0.5,1.3-0.6s1-0.3,1.5-0.4c0.5-0.1,1.1-0.2,1.6-0.2s0.9-0.1,1.3-0.2
						c0.4-0.1,0.7-0.2,0.9-0.4c0.2-0.2,0.3-0.5,0.3-0.9c0-0.4-0.1-0.8-0.2-1.1c-0.2-0.3-0.4-0.5-0.6-0.6c-0.3-0.1-0.5-0.2-0.9-0.3
						c-0.3,0-0.6-0.1-0.9-0.1c-0.8,0-1.5,0.2-2.1,0.5c-0.6,0.3-0.9,0.9-0.9,1.8h-2c0-0.7,0.2-1.4,0.5-1.9c0.3-0.5,0.7-0.9,1.1-1.3
						c0.5-0.3,1-0.5,1.6-0.7s1.2-0.2,1.9-0.2c0.5,0,1.1,0,1.6,0.1s1,0.2,1.5,0.5c0.4,0.2,0.8,0.6,1.1,1c0.3,0.4,0.4,1,0.4,1.7v6.2
						c0,0.5,0,0.8,0.1,1s0.2,0.3,0.5,0.3c0.2,0,0.4,0,0.6-0.1V66.4z M-148.7,60.2c-0.2,0.2-0.6,0.3-1,0.4s-0.8,0.2-1.3,0.2
						c-0.4,0.1-0.9,0.1-1.3,0.2c-0.5,0.1-0.9,0.2-1.2,0.3c-0.4,0.2-0.7,0.4-0.9,0.7c-0.2,0.3-0.3,0.7-0.3,1.2c0,0.3,0.1,0.6,0.2,0.8
						c0.1,0.2,0.3,0.4,0.5,0.5c0.2,0.1,0.5,0.2,0.7,0.3c0.3,0.1,0.6,0.1,0.9,0.1c0.7,0,1.2-0.1,1.7-0.3c0.5-0.2,0.8-0.4,1.1-0.7
						c0.3-0.3,0.5-0.6,0.7-0.9s0.2-0.6,0.2-0.9V60.2z"/>
					<path d="M-142.1,63.7c0.2,0.3,0.4,0.5,0.7,0.7c0.3,0.2,0.6,0.3,1,0.4c0.4,0.1,0.8,0.1,1.2,0.1c0.3,0,0.6,0,1-0.1
						c0.3,0,0.7-0.1,0.9-0.3c0.3-0.1,0.5-0.3,0.7-0.5c0.2-0.2,0.3-0.5,0.3-0.9c0-0.5-0.2-0.9-0.6-1.2c-0.4-0.3-0.9-0.5-1.5-0.6
						c-0.6-0.2-1.2-0.3-1.9-0.4c-0.7-0.1-1.3-0.3-1.9-0.6c-0.6-0.2-1.1-0.6-1.5-1s-0.6-1-0.6-1.8c0-0.6,0.1-1.1,0.4-1.6
						c0.3-0.4,0.6-0.8,1.1-1.1c0.4-0.3,0.9-0.5,1.5-0.6s1.1-0.2,1.6-0.2c0.7,0,1.3,0.1,1.9,0.2s1.1,0.3,1.5,0.6
						c0.4,0.3,0.8,0.7,1.1,1.2c0.3,0.5,0.4,1.1,0.5,1.8h-2c0-0.4-0.1-0.7-0.3-1c-0.2-0.3-0.4-0.5-0.7-0.6c-0.3-0.2-0.6-0.3-0.9-0.3
						c-0.3-0.1-0.6-0.1-1-0.1c-0.3,0-0.6,0-0.9,0.1c-0.3,0-0.6,0.1-0.8,0.2c-0.2,0.1-0.5,0.3-0.6,0.5s-0.2,0.4-0.2,0.8
						c0,0.3,0.1,0.6,0.4,0.9c0.2,0.2,0.5,0.4,0.9,0.6c0.4,0.1,0.8,0.3,1.3,0.4c0.5,0.1,0.9,0.2,1.4,0.3c0.5,0.1,1,0.2,1.5,0.4
						c0.5,0.2,0.9,0.4,1.3,0.6c0.4,0.3,0.7,0.6,0.9,1c0.2,0.4,0.3,0.9,0.3,1.5c0,0.7-0.2,1.3-0.5,1.8c-0.3,0.5-0.7,0.9-1.2,1.2
						c-0.5,0.3-1,0.5-1.7,0.6c-0.6,0.1-1.2,0.2-1.8,0.2c-0.7,0-1.3-0.1-1.9-0.2c-0.6-0.1-1.1-0.4-1.6-0.7s-0.8-0.7-1.1-1.3
						c-0.3-0.5-0.4-1.2-0.5-1.9h2C-142.4,63-142.3,63.4-142.1,63.7z"/>
					<path d="M-259.2,96.5c-0.5-0.9-0.8-1.7-1.2-2.6c-0.3-0.9-0.6-1.8-0.7-2.7c-0.2-0.9-0.3-1.9-0.3-2.9c0-1.8,0.3-3.7,0.9-5.6
						s1.5-3.6,2.8-5.2h1.5c-1.1,1.8-1.9,3.5-2.4,5.3s-0.7,3.6-0.7,5.5c0,2,0.2,3.8,0.7,5.6c0.5,1.8,1.3,3.5,2.4,5.3h-1.5
						C-258.2,98.2-258.7,97.3-259.2,96.5z"/>
					<path d="M-247.3,77.8c1.7,0,3,0.4,3.8,1.3c0.9,0.9,1.3,2.1,1.3,3.6s-0.4,2.8-1.3,3.6c-0.9,0.9-2.1,1.3-3.8,1.3h-5.1v6.8h-2.2
						V77.8H-247.3z M-248,85.8c1.3,0,2.2-0.2,2.8-0.8s0.9-1.3,0.9-2.3s-0.3-1.8-0.9-2.3s-1.5-0.8-2.8-0.8h-4.4v6.1H-248z"/>
					<path d="M-238.4,82.4v2.6h0c0.5-1,1.1-1.7,1.8-2.2c0.7-0.5,1.6-0.7,2.7-0.7v2.1c-0.8,0-1.5,0.1-2,0.3c-0.6,0.2-1,0.5-1.4,1
						c-0.3,0.4-0.6,0.9-0.7,1.5c-0.2,0.6-0.2,1.3-0.2,2.1v5.4h-2V82.4H-238.4z"/>
					<path d="M-224,93.7c-0.9,0.7-2,1-3.4,1c-1,0-1.8-0.2-2.5-0.5c-0.7-0.3-1.3-0.7-1.8-1.3s-0.8-1.2-1.1-2
						c-0.2-0.8-0.4-1.6-0.4-2.5c0-0.9,0.1-1.8,0.4-2.5c0.3-0.8,0.7-1.4,1.2-2s1.1-1,1.8-1.3c0.7-0.3,1.5-0.5,2.3-0.5
						c1.1,0,2,0.2,2.7,0.7c0.7,0.4,1.3,1,1.7,1.7s0.7,1.4,0.9,2.2c0.2,0.8,0.2,1.6,0.2,2.3h-9.1c0,0.5,0,1,0.2,1.5
						c0.1,0.5,0.4,0.9,0.7,1.3c0.3,0.4,0.7,0.7,1.2,0.9c0.5,0.2,1.1,0.3,1.7,0.3c0.8,0,1.5-0.2,2.1-0.6s0.9-1,1.1-1.8h2
						C-222.5,92-223.1,93-224,93.7z M-224.5,85.9c-0.2-0.4-0.4-0.8-0.7-1.1c-0.3-0.3-0.7-0.5-1.1-0.7c-0.4-0.2-0.9-0.3-1.4-0.3
						c-0.5,0-1,0.1-1.4,0.3c-0.4,0.2-0.8,0.4-1.1,0.7c-0.3,0.3-0.5,0.7-0.7,1.1s-0.3,0.9-0.3,1.3h6.9
						C-224.2,86.8-224.3,86.4-224.5,85.9z"/>
					<path d="M-218.4,91.8c0.2,0.3,0.4,0.5,0.7,0.7c0.3,0.2,0.6,0.3,1,0.4c0.4,0.1,0.8,0.1,1.2,0.1c0.3,0,0.6,0,1-0.1
						c0.3,0,0.7-0.1,0.9-0.3c0.3-0.1,0.5-0.3,0.7-0.5c0.2-0.2,0.3-0.5,0.3-0.9c0-0.5-0.2-0.9-0.6-1.2c-0.4-0.3-0.9-0.5-1.5-0.6
						s-1.2-0.3-1.9-0.4s-1.3-0.3-1.9-0.6s-1.1-0.6-1.5-1s-0.6-1-0.6-1.8c0-0.6,0.1-1.1,0.4-1.6c0.3-0.4,0.6-0.8,1.1-1.1
						c0.4-0.3,0.9-0.5,1.5-0.6c0.5-0.1,1.1-0.2,1.6-0.2c0.7,0,1.3,0.1,1.9,0.2c0.6,0.1,1.1,0.3,1.5,0.6c0.4,0.3,0.8,0.7,1.1,1.2
						c0.3,0.5,0.4,1.1,0.5,1.8h-2c0-0.4-0.1-0.7-0.3-1c-0.2-0.3-0.4-0.5-0.7-0.6c-0.3-0.2-0.6-0.3-0.9-0.3c-0.3-0.1-0.6-0.1-1-0.1
						c-0.3,0-0.6,0-0.9,0.1c-0.3,0-0.6,0.1-0.8,0.2c-0.2,0.1-0.5,0.3-0.6,0.5c-0.2,0.2-0.2,0.4-0.2,0.8c0,0.3,0.1,0.6,0.4,0.9
						c0.2,0.2,0.5,0.4,0.9,0.6c0.4,0.1,0.8,0.3,1.3,0.4s0.9,0.2,1.4,0.3c0.5,0.1,1,0.2,1.5,0.4c0.5,0.2,0.9,0.4,1.3,0.6
						c0.4,0.3,0.7,0.6,0.9,1c0.2,0.4,0.3,0.9,0.3,1.5c0,0.7-0.2,1.3-0.5,1.8c-0.3,0.5-0.7,0.9-1.2,1.2c-0.5,0.3-1,0.5-1.7,0.6
						c-0.6,0.1-1.2,0.2-1.8,0.2c-0.7,0-1.3-0.1-1.9-0.2s-1.1-0.4-1.6-0.7c-0.5-0.3-0.8-0.7-1.1-1.3c-0.3-0.5-0.4-1.2-0.5-1.9h2
						C-218.7,91.1-218.6,91.5-218.4,91.8z"/>
					<path d="M-208.2,80.2v-2.4h2v2.4H-208.2z M-206.2,82.4v12.1h-2V82.4H-206.2z"/>
					<path d="M-194.4,94.5v-1.6h0c-0.3,0.7-0.8,1.2-1.5,1.5c-0.7,0.3-1.5,0.4-2.3,0.4c-0.9,0-1.8-0.2-2.4-0.5s-1.3-0.8-1.7-1.4
						s-0.8-1.2-1-2c-0.2-0.8-0.4-1.6-0.4-2.4s0.1-1.7,0.3-2.4c0.2-0.8,0.6-1.4,1-2c0.5-0.6,1-1,1.7-1.4s1.5-0.5,2.4-0.5
						c0.3,0,0.6,0,1,0.1s0.7,0.2,1.1,0.3c0.4,0.1,0.7,0.3,1,0.6c0.3,0.2,0.6,0.5,0.8,0.9h0v-6.2h2v16.7H-194.4z M-201.5,90.2
						c0.1,0.5,0.4,1,0.7,1.4c0.3,0.4,0.7,0.8,1.2,1c0.5,0.2,1,0.4,1.7,0.4c0.7,0,1.2-0.1,1.7-0.4c0.5-0.3,0.9-0.6,1.1-1
						c0.3-0.4,0.5-0.9,0.6-1.5s0.2-1.1,0.2-1.7c0-0.6-0.1-1.2-0.2-1.7c-0.1-0.6-0.4-1-0.7-1.5c-0.3-0.4-0.7-0.8-1.2-1
						c-0.5-0.3-1.1-0.4-1.8-0.4c-0.7,0-1.2,0.1-1.7,0.4c-0.5,0.3-0.8,0.6-1.1,1.1c-0.3,0.4-0.5,0.9-0.6,1.5
						c-0.1,0.6-0.2,1.1-0.2,1.7C-201.7,89.1-201.7,89.6-201.5,90.2z"/>
					<path d="M-189.4,80.2v-2.4h2v2.4H-189.4z M-187.4,82.4v12.1h-2V82.4H-187.4z"/>
					<path d="M-184.8,86c0.2-0.8,0.6-1.4,1.1-2s1.1-1,1.8-1.3c0.7-0.3,1.6-0.5,2.5-0.5c1,0,1.8,0.2,2.5,0.5c0.7,0.3,1.3,0.8,1.8,1.3
						c0.5,0.6,0.9,1.2,1.1,2c0.2,0.8,0.4,1.6,0.4,2.5c0,0.9-0.1,1.7-0.4,2.5c-0.2,0.8-0.6,1.4-1.1,2c-0.5,0.6-1.1,1-1.8,1.3
						c-0.7,0.3-1.6,0.5-2.5,0.5c-1,0-1.8-0.2-2.5-0.5c-0.7-0.3-1.3-0.8-1.8-1.3s-0.9-1.2-1.1-2c-0.2-0.8-0.4-1.6-0.4-2.5
						C-185.1,87.6-185,86.7-184.8,86z M-182.7,90.4c0.2,0.6,0.5,1,0.8,1.4c0.3,0.4,0.7,0.7,1.2,0.9c0.5,0.2,0.9,0.3,1.5,0.3
						s1-0.1,1.5-0.3c0.5-0.2,0.9-0.5,1.2-0.9c0.3-0.4,0.6-0.9,0.8-1.4c0.2-0.6,0.3-1.2,0.3-2s-0.1-1.4-0.3-2s-0.5-1-0.8-1.4
						c-0.3-0.4-0.7-0.7-1.2-0.9c-0.5-0.2-0.9-0.3-1.5-0.3s-1,0.1-1.5,0.3c-0.5,0.2-0.9,0.5-1.2,0.9c-0.3,0.4-0.6,0.9-0.8,1.4
						s-0.3,1.2-0.3,2S-182.9,89.8-182.7,90.4z"/>
					<path d="M-171.1,93.8c0.5-1.8,0.7-3.6,0.7-5.5c0-2-0.2-3.8-0.7-5.6s-1.3-3.6-2.4-5.3h1.5c0.6,0.9,1.1,1.7,1.5,2.6
						c0.5,0.9,0.8,1.7,1.2,2.6c0.3,0.9,0.6,1.8,0.7,2.7c0.2,0.9,0.3,1.9,0.3,2.9c0,1.8-0.3,3.7-0.9,5.6c-0.6,1.9-1.5,3.6-2.7,5.2
						h-1.5C-172.3,97.3-171.6,95.6-171.1,93.8z"/>
				</g>
			</g>
			<g>
				<path fill="#FDBA12" stroke="#212121" stroke-width="0.25" stroke-miterlimit="10" d="M75,163.3c0.3-0.7,0.7-1.2,1.1-1.7
					c0.5-0.5,1.1-0.9,1.7-1.1c0.6-0.3,1.3-0.4,2.1-0.4H80h0H80c0.7,0,1.4,0.1,2.1,0.4c0.7,0.3,1.2,0.7,1.7,1.1
					c0.5,0.5,0.9,1.1,1.1,1.7c0.3,0.7,0.4,1.3,0.4,2.1c0,0.5-0.1,1.1-0.2,1.5c-0.1,0.5-0.4,0.9-0.6,1.3c0,0-4.2,6.3-4.2,6.3L80,175
					l0,0l-0.4-0.6l-4.1-6.1c0,0,0,0,0-0.1c-0.3-0.4-0.5-0.9-0.6-1.3c-0.1-0.5-0.2-1-0.2-1.5C74.6,164.7,74.7,164,75,163.3z"/>
				<ellipse opacity="0.25" fill="#505150" cx="80" cy="176.2" rx="1.6" ry="0.7"/>
			</g>
		</g>
	</g>
</g>
<g>
	<g>
		<polygon fill="#282828" points="261.9,278.5 261.9,278.5 262,278.4 262,278.5 262,278.5 262,278.5 262,278.4 262.1,278.3 
			262.1,278.2 262.1,278.2 262.1,278.2 262.1,278.1 262.1,278 262.1,278 262.1,278 262.1,277.9 262.2,277.9 262.1,277.9 
			262.1,277.9 262.1,277.8 263.1,277.8 263.1,277.8 263.1,277.8 263.1,277.8 263.1,277.7 263.1,277.7 263.1,277.7 263.1,277.7 
			263.1,277.7 263.1,277.6 262.7,277.6 262.9,277.5 263.1,277.5 263.1,277.5 262.7,277.5 262.6,277.4 262.5,277.3 262.5,277.2 
			262.6,277.1 262.6,277.1 262.6,277 262.6,276.9 262.7,276.8 262.7,276.8 262.7,276.7 262.8,276.7 262.9,276.5 263.1,276.4 
			263.1,276.4 263,276.3 263,276.3 263,276.2 263,276.2 263,276.2 263,276.1 263.1,276.1 263.1,276.1 263.1,276 263.1,275.9 
			263.1,275.9 263.1,276.3 263.1,276.5 263.2,276.5 263.2,276.5 263.2,276.5 263.1,276.5 263.1,276.5 262.9,276.5 262.9,276.5 
			262.8,276.5 262.8,276.5 262.7,276.5 262.7,276.5 262.7,276.5 262.7,276.5 262.6,276.5 262.6,276.5 262.6,276.5 262.6,276.5 
			262.6,276.5 262.5,276.5 262.5,276.5 262.3,276.5 262.3,276.5 262.3,276.5 262.2,276.5 262.2,276.5 262.2,276.5 262.2,276.5 
			262.1,276.5 262.1,276.5 262.1,276.5 262,276.5 262,276.5 262,276.5 262,276.5 261.8,276.5 261.7,276.5 261.7,276.5 261.6,276.5 
			261.6,276.5 261.5,276.5 261.4,276.5 261.4,276.5 261.4,276.5 261.3,276.5 261.3,276.5 261.2,276.5 261,276.5 261,276.5 
			260.9,276.5 260.9,276.5 260.9,276.5 260.7,276.5 260.6,276.5 260.6,276.5 260.6,276.5 260.5,276.5 260.5,276.5 260.5,276.5 
			260.4,276.5 260.4,276.5 260.4,276.5 260.3,276.5 260.3,276.5 260.2,276.5 260.2,276.5 260.2,276.5 260.1,276.5 260.1,276.5 
			260,276.5 260,276.5 260,276.5 259.8,276.5 259.8,276.5 259.7,276.5 259.7,276.5 259.7,276.5 259.6,276.5 259.6,276.5 
			259.5,276.5 259.5,276.5 259.3,276.2 259.1,275.9 259.1,275.9 259.1,276 259.1,276 259.1,276 259.1,276.1 259.1,276.1 
			259.2,276.1 259.1,276.2 259.1,276.2 259.1,276.3 259.1,276.5 259.2,276.5 259.2,276.4 259.1,276.4 259.1,276.4 259,276.4 
			259,276.4 259,276.5 258.9,276.5 258.8,276.5 258.8,276.6 258.8,276.6 258.7,276.6 258.6,276.7 259.1,277.6 261.2,278.4 
			261.9,278.5 261.9,278.5 		"/>
		<path opacity="0.5" fill="#B4B4B4" d="M286.7,247.9l-0.2-0.3l-0.2-0.8l-1.1-1.7l-0.4-1.1l-0.8-1.2l-0.2-1.1l-0.3-2.6l-0.2-2.6
			l-0.3-2.8l-0.5-0.2l-0.9,0.3l-0.7-0.4l-0.8-0.3l-1-0.2l-0.8-0.4l-0.4-0.5l-0.5-0.1l-0.6,0.4l-1.2,0.1l-0.1-0.3l-0.2,0l-0.8,0.5
			l-0.5-0.2l-1.2,0.8l-0.6,0.2l-0.9-0.2l-0.9-0.3l-2.1,0.4l-0.7,0.1l-1.3-0.5l-1.9-0.1l-0.9-0.3l-0.3-0.6l-2.2-0.3l-0.6-0.5
			l-1.1-0.1l-0.7-0.2l-1.2-0.2l-0.7-0.8l-0.5-0.1l-0.4,0.1l-0.5,0l-0.5-0.2l-1.2-1l0-0.6l-0.2-4.2l0.1-5.4h-14.9l0,4.2l-0.1,14.8
			l-0.3,6.3l-8-0.1l-6.9-0.3l-1.1-0.1l-2.2-0.1l0.2,1.3l0.5,0.1l0.7,0.8l0.5,1.2l1.3,0.6l0,0.1v0l0.4,0.7l2.1,2.1l0.4,0.4l1.4,0.5
			l0.1,0.1l0.3,0.4l0.5,0.2l0.2,0.7l1,1.7l0.1,2.2l0.7,1.3l2.1,2l0.3,0.5l0,0.3h0l0.1-0.3l0.1-0.1l0.9,0.3l0.4,0.4v0.2l1.2,0.6
			l0.6,0.1l0.5,0.3l0.7,0.2l0.6-0.7l1.1-1.7l0.2-1l0.6-0.9l1-0.4l1.2-0.5l0.9,0.6l2,0.1l1.9,0.2l0.7,0.5l0,0.3l0.8,0.8l1.7,1.4
			l0.1,0.4l0.5,0.5l0.3,1.1l1.6,3.3l0,0.6l0.3,0.2l0.9,0.4l1.1,1.7l1,1.1l0.9,0.3l0.5,0.6l-0.3,1.2l0.2,0.3l0.2,0.1l0,0l0.2,0.1
			l0,0.9l-0.2,0.2l0.2,0.6l0.9,0.5l0.4,1.8l0.1,0.2l0.1-0.1l0.1,0l0,0l0,0l0,0l0.1-0.1l0,0l0,0l0.1-0.1l0,0l0,0.1l0,0.1h0l0-0.1
			l0-0.1l0-0.1l-0.1,0l-0.1-0.1v0V276v0v0v0v0l0.2-0.1l0.1,0l0.1,0.3l0,0.5h0.1h0h0.1h0h0.1h0h0.1h0.1h0h0h0.1h0h0.1h0h0.1h0h0h0h0
			h0.1h0h0h0h0h0.1h0.1h0.1h0.1h0h0h0.1h0.2h0h0.1h0h0h0h0h0.1h0h0.1h0.1h0.1h0.2h0h0h0.1h0h0h0.1h0h0h0h0h0.1h0h0h0.1h0h0.1h0h0h0
			h0h0h0h0h0h0.1h0h0.1h0h0.1h0h0.1h0.1l0-0.4l-0.1-0.1l-0.1,0l0-0.1v0l0,0.1l0,0.1v0l-0.1,0l0,0.1l0,0l0,0l0,0.1l0.1,0l0.1,0.1v0
			l-0.1,0.1l-0.1,0.1l0,0l-0.1,0.1l0,0l0,0.1l0,0.1l0,0.1l0,0.1l0,0.1l-0.1,0.1l0,0l0.3,0.1l0.3,0v0l-0.4,0l0.2,0.1l0.2,0v0v0v0v0v0
			v0v0v0v0l-1,0v0l0,0l0,0l0,0l0,0.1v0l0,0l0,0.1l0,0.1v0l0,0l0,0l0,0.2l0,0.1h0h0l0,0l0,0l0,0l0,0h0l0.7,0.1l1.2,0.8l0.9,0.1
			l0.3-0.2l1.5,0.2l1.6,1l0.8-0.6l0.2-0.4l-0.5-0.7l-0.4-1.7l-0.6-1.9l-0.3-0.7l0.2-1.2l0.3-1.1l0.3-1.3l0.3-1.5l-0.6-0.5l0.2-0.5
			l1.1-0.1l1-1.6l0.9-0.2l1.5-1.1l0.5-0.4l1.7-1l1.5-0.7l1.4-1l0.7-0.6l1.5-1.5l0.3-0.2l0.6-0.4l0.7-0.6l0.2-0.5l2.6-1.4l1.5-0.5
			l-0.2-1.2l0.3-0.8l0.1-2l0.1-0.7l-0.3-0.8l0.7-1.2L286.7,247.9z M257.4,272.6L257.4,272.6L257.4,272.6l-0.1-0.1l0,0l0,0l0-0.1
			l-0.1-0.1l0,0l0,0l0.1,0.1l0,0.1l0,0l0,0L257.4,272.6L257.4,272.6L257.4,272.6L257.4,272.6L257.4,272.6z"/>
	</g>
</g>
<g>
	<g>
		<path d="M21.4,214.2c1.6,0,2.8,0.4,3.7,1.2c0.9,0.8,1.3,1.8,1.3,3.2c0,1-0.2,1.9-0.7,2.7c-0.5,0.8-1.2,1.3-2.2,1.6v0
			c0.5,0.1,0.9,0.2,1.2,0.5c0.3,0.2,0.5,0.5,0.7,0.8s0.3,0.6,0.4,1c0.1,0.4,0.2,0.8,0.2,1.2c0,0.4,0.1,0.8,0.1,1.2s0.1,0.8,0.1,1.2
			c0.1,0.4,0.2,0.8,0.3,1.2c0.1,0.4,0.3,0.7,0.5,1h-2.5c-0.2-0.2-0.3-0.4-0.3-0.7c-0.1-0.3-0.1-0.6-0.1-1c0-0.4,0-0.8,0-1.2
			c0-0.4-0.1-0.8-0.1-1.2c-0.1-0.4-0.1-0.8-0.2-1.2c-0.1-0.4-0.2-0.7-0.4-1c-0.2-0.3-0.5-0.5-0.8-0.7c-0.3-0.2-0.8-0.2-1.3-0.2h-5.4
			v7.1h-2.2v-16.7H21.4z M21.9,221.8c0.5-0.1,0.9-0.2,1.2-0.5c0.4-0.2,0.6-0.5,0.8-0.9c0.2-0.4,0.3-0.9,0.3-1.5
			c0-0.8-0.2-1.5-0.7-2.1c-0.5-0.5-1.2-0.8-2.3-0.8h-5.5v5.8h4.6C20.9,221.9,21.4,221.9,21.9,221.8z"/>
		<path d="M29.2,216.6v-2.4h2v2.4H29.2z M31.2,218.8v12.1h-2v-12.1H31.2z"/>
		<path d="M33.9,222.4c0.2-0.8,0.6-1.4,1.1-2s1.1-1,1.8-1.3c0.7-0.3,1.6-0.5,2.5-0.5c1,0,1.8,0.2,2.5,0.5c0.7,0.3,1.3,0.8,1.8,1.3
			c0.5,0.6,0.9,1.2,1.1,2c0.2,0.8,0.4,1.6,0.4,2.5c0,0.9-0.1,1.7-0.4,2.5c-0.2,0.8-0.6,1.4-1.1,2c-0.5,0.6-1.1,1-1.8,1.3
			c-0.7,0.3-1.6,0.5-2.5,0.5c-1,0-1.8-0.2-2.5-0.5c-0.7-0.3-1.3-0.8-1.8-1.3s-0.9-1.2-1.1-2c-0.2-0.8-0.4-1.6-0.4-2.5
			C33.5,224,33.7,223.2,33.9,222.4z M35.9,226.8c0.2,0.6,0.5,1,0.8,1.4c0.3,0.4,0.7,0.7,1.2,0.9c0.5,0.2,0.9,0.3,1.5,0.3
			s1-0.1,1.5-0.3c0.5-0.2,0.9-0.5,1.2-0.9c0.3-0.4,0.6-0.9,0.8-1.4c0.2-0.6,0.3-1.2,0.3-2s-0.1-1.4-0.3-2s-0.5-1-0.8-1.4
			c-0.3-0.4-0.7-0.7-1.2-0.9c-0.5-0.2-0.9-0.3-1.5-0.3s-1,0.1-1.5,0.3c-0.5,0.2-0.9,0.5-1.2,0.9c-0.3,0.4-0.6,0.9-0.8,1.4
			s-0.3,1.2-0.3,2S35.7,226.3,35.9,226.8z"/>
		<path d="M64.5,230.7c-1,0.4-1.9,0.6-2.9,0.6c-1.2,0-2.4-0.2-3.3-0.7c-1-0.5-1.8-1.1-2.5-1.9c-0.7-0.8-1.2-1.7-1.6-2.7
			c-0.4-1-0.5-2.1-0.5-3.2c0-1.2,0.2-2.4,0.5-3.5c0.3-1.1,0.8-2.1,1.5-2.9c0.7-0.8,1.5-1.5,2.5-2c1-0.5,2.1-0.7,3.5-0.7
			c0.9,0,1.8,0.1,2.6,0.3c0.8,0.2,1.5,0.5,2.2,1s1.2,1,1.6,1.7c0.4,0.7,0.7,1.5,0.9,2.5h-2.2c-0.1-0.6-0.3-1.2-0.6-1.6
			c-0.3-0.5-0.7-0.8-1.1-1.1c-0.4-0.3-0.9-0.5-1.5-0.7c-0.6-0.1-1.1-0.2-1.8-0.2c-1,0-1.9,0.2-2.6,0.6c-0.7,0.4-1.3,0.9-1.8,1.6
			s-0.8,1.4-1,2.3c-0.2,0.9-0.3,1.7-0.3,2.6c0,0.9,0.1,1.7,0.4,2.5c0.2,0.8,0.6,1.5,1.1,2.1s1.1,1.1,1.8,1.5
			c0.7,0.4,1.5,0.5,2.5,0.5c0.9,0,1.6-0.1,2.3-0.4c0.7-0.3,1.2-0.7,1.7-1.2c0.5-0.5,0.8-1.1,1-1.7c0.2-0.7,0.3-1.4,0.3-2.1h-5.3
			v-1.9h7.3v8.8h-1.4l-0.6-2.1C66.3,229.7,65.5,230.3,64.5,230.7z"/>
		<path d="M73.7,218.8v2.6h0c0.5-1,1.1-1.7,1.8-2.2c0.7-0.5,1.6-0.7,2.7-0.7v2.1c-0.8,0-1.5,0.1-2,0.3c-0.6,0.2-1,0.5-1.4,1
			c-0.3,0.4-0.6,0.9-0.7,1.5c-0.2,0.6-0.2,1.3-0.2,2.1v5.4h-2v-12.1H73.7z"/>
		<path d="M90.4,230.9c-0.3,0.2-0.8,0.3-1.4,0.3c-0.5,0-0.9-0.1-1.2-0.4c-0.3-0.3-0.5-0.8-0.5-1.4c-0.5,0.7-1.2,1.1-1.9,1.4
			c-0.7,0.3-1.5,0.4-2.4,0.4c-0.5,0-1.1-0.1-1.6-0.2s-0.9-0.3-1.3-0.6c-0.4-0.3-0.6-0.6-0.9-1s-0.3-0.9-0.3-1.6
			c0-0.7,0.1-1.2,0.4-1.7s0.5-0.8,0.9-1.1c0.4-0.3,0.8-0.5,1.3-0.6c0.5-0.1,1-0.3,1.5-0.4c0.5-0.1,1.1-0.2,1.6-0.2s0.9-0.1,1.3-0.2
			c0.4-0.1,0.7-0.2,0.9-0.4c0.2-0.2,0.3-0.5,0.3-0.9c0-0.4-0.1-0.8-0.2-1.1c-0.2-0.3-0.4-0.5-0.6-0.6c-0.3-0.1-0.5-0.2-0.9-0.3
			c-0.3,0-0.6-0.1-0.9-0.1c-0.8,0-1.5,0.2-2.1,0.5s-0.9,0.9-0.9,1.8h-2c0-0.7,0.2-1.4,0.5-1.9c0.3-0.5,0.7-0.9,1.1-1.3
			c0.5-0.3,1-0.5,1.6-0.7c0.6-0.1,1.2-0.2,1.9-0.2c0.5,0,1.1,0,1.6,0.1c0.5,0.1,1,0.2,1.5,0.5c0.4,0.2,0.8,0.6,1.1,1
			c0.3,0.4,0.4,1,0.4,1.7v6.2c0,0.5,0,0.8,0.1,1s0.2,0.3,0.5,0.3c0.2,0,0.4,0,0.6-0.1V230.9z M87.2,224.7c-0.2,0.2-0.6,0.3-1,0.4
			c-0.4,0.1-0.8,0.2-1.3,0.2c-0.4,0.1-0.9,0.1-1.3,0.2c-0.5,0.1-0.9,0.2-1.2,0.3c-0.4,0.2-0.7,0.4-0.9,0.7c-0.2,0.3-0.3,0.7-0.3,1.2
			c0,0.3,0.1,0.6,0.2,0.8c0.1,0.2,0.3,0.4,0.5,0.5c0.2,0.1,0.5,0.2,0.7,0.3c0.3,0.1,0.6,0.1,0.9,0.1c0.7,0,1.2-0.1,1.7-0.3
			c0.5-0.2,0.8-0.4,1.1-0.7c0.3-0.3,0.5-0.6,0.7-0.9c0.1-0.3,0.2-0.6,0.2-0.9V224.7z"/>
		<path d="M94.1,218.8v1.9h0c0.8-1.5,2.1-2.2,3.9-2.2c0.8,0,1.5,0.1,2,0.3c0.5,0.2,1,0.5,1.3,0.9c0.3,0.4,0.6,0.9,0.7,1.4
			c0.1,0.5,0.2,1.1,0.2,1.8v8h-2v-8.2c0-0.7-0.2-1.3-0.7-1.8c-0.4-0.4-1-0.7-1.8-0.7c-0.6,0-1.1,0.1-1.6,0.3
			c-0.4,0.2-0.8,0.5-1.1,0.8c-0.3,0.3-0.5,0.7-0.7,1.2c-0.1,0.5-0.2,1-0.2,1.5v6.8h-2v-12.1H94.1z"/>
		<path d="M113.9,230.9v-1.6h0c-0.3,0.7-0.8,1.2-1.5,1.5c-0.7,0.3-1.5,0.4-2.3,0.4c-0.9,0-1.8-0.2-2.4-0.5s-1.3-0.8-1.7-1.4
			s-0.8-1.2-1-2c-0.2-0.8-0.4-1.6-0.4-2.4s0.1-1.7,0.3-2.4c0.2-0.8,0.6-1.4,1-2c0.5-0.6,1-1,1.7-1.4s1.5-0.5,2.4-0.5
			c0.3,0,0.6,0,1,0.1s0.7,0.2,1.1,0.3c0.4,0.1,0.7,0.3,1,0.6c0.3,0.2,0.6,0.5,0.8,0.9h0v-6.2h2v16.7H113.9z M106.8,226.6
			c0.1,0.5,0.4,1,0.7,1.4c0.3,0.4,0.7,0.8,1.2,1c0.5,0.2,1,0.4,1.7,0.4c0.7,0,1.2-0.1,1.7-0.4c0.5-0.3,0.9-0.6,1.1-1
			c0.3-0.4,0.5-0.9,0.6-1.5s0.2-1.1,0.2-1.7c0-0.6-0.1-1.2-0.2-1.7c-0.1-0.6-0.4-1-0.7-1.5c-0.3-0.4-0.7-0.8-1.2-1
			c-0.5-0.3-1.1-0.4-1.8-0.4c-0.7,0-1.2,0.1-1.7,0.4c-0.5,0.3-0.8,0.6-1.1,1.1c-0.3,0.4-0.5,0.9-0.6,1.5c-0.1,0.6-0.2,1.1-0.2,1.7
			C106.6,225.5,106.6,226.1,106.8,226.6z"/>
		<path d="M127.4,230.1c-0.9,0.7-2,1-3.4,1c-1,0-1.8-0.2-2.5-0.5c-0.7-0.3-1.3-0.7-1.8-1.3s-0.8-1.2-1.1-2c-0.2-0.8-0.4-1.6-0.4-2.5
			c0-0.9,0.1-1.8,0.4-2.5c0.3-0.8,0.7-1.4,1.2-2s1.1-1,1.8-1.3c0.7-0.3,1.5-0.5,2.3-0.5c1.1,0,2,0.2,2.7,0.7c0.7,0.4,1.3,1,1.7,1.7
			c0.4,0.7,0.7,1.4,0.9,2.2c0.2,0.8,0.2,1.6,0.2,2.3h-9.1c0,0.5,0,1,0.2,1.5c0.1,0.5,0.4,0.9,0.7,1.3c0.3,0.4,0.7,0.7,1.2,0.9
			c0.5,0.2,1.1,0.3,1.7,0.3c0.8,0,1.5-0.2,2.1-0.6s0.9-1,1.1-1.8h2C128.9,228.4,128.3,229.5,127.4,230.1z M126.9,222.4
			c-0.2-0.4-0.4-0.8-0.7-1.1c-0.3-0.3-0.7-0.5-1.1-0.7c-0.4-0.2-0.9-0.3-1.4-0.3c-0.5,0-1,0.1-1.4,0.3c-0.4,0.2-0.8,0.4-1.1,0.7
			c-0.3,0.3-0.5,0.7-0.7,1.1s-0.3,0.9-0.3,1.3h6.9C127.2,223.2,127.1,222.8,126.9,222.4z"/>
		<path d="M148.3,216.6c-0.8-0.6-1.9-0.9-3-0.9c-1,0-1.9,0.2-2.6,0.6c-0.7,0.4-1.3,0.9-1.8,1.5s-0.8,1.4-1,2.2
			c-0.2,0.8-0.3,1.7-0.3,2.5c0,1,0.1,1.9,0.3,2.7c0.2,0.9,0.6,1.6,1,2.2s1,1.1,1.8,1.5c0.7,0.4,1.6,0.6,2.6,0.6c0.7,0,1.4-0.1,2-0.4
			c0.6-0.2,1.1-0.6,1.5-1c0.4-0.4,0.7-0.9,1-1.5s0.4-1.2,0.4-1.9h2.2c-0.2,2.1-0.9,3.7-2.2,4.9s-2.9,1.8-5.1,1.8
			c-1.3,0-2.4-0.2-3.4-0.7c-1-0.4-1.8-1.1-2.4-1.8s-1.1-1.7-1.4-2.8c-0.3-1.1-0.5-2.2-0.5-3.4s0.2-2.4,0.5-3.4
			c0.3-1.1,0.8-2,1.5-2.8c0.7-0.8,1.5-1.4,2.5-1.9c1-0.5,2.1-0.7,3.4-0.7c0.9,0,1.7,0.1,2.5,0.4c0.8,0.2,1.5,0.6,2.1,1
			c0.6,0.5,1.1,1,1.5,1.7c0.4,0.7,0.7,1.5,0.8,2.4H150C149.7,218,149.2,217.2,148.3,216.6z"/>
		<path d="M154.7,216.6v-2.4h2v2.4H154.7z M156.7,218.8v12.1h-2v-12.1H156.7z"/>
		<path d="M164.8,218.8v1.8h-2.4v7.5c0,0.2,0,0.4,0.1,0.6c0,0.1,0.1,0.2,0.2,0.3s0.3,0.1,0.5,0.2s0.4,0,0.8,0h0.9v1.8h-1.5
			c-0.5,0-1,0-1.3-0.1c-0.4-0.1-0.7-0.2-0.9-0.4c-0.2-0.2-0.4-0.5-0.5-0.8c-0.1-0.3-0.2-0.8-0.2-1.4v-7.7h-2.1v-1.8h2.1v-3.6h2v3.6
			H164.8z"/>
		<path d="M172.1,232.5c-0.2,0.6-0.5,1.1-0.7,1.5c-0.2,0.4-0.5,0.7-0.7,1c-0.3,0.3-0.6,0.4-0.9,0.6c-0.3,0.1-0.7,0.2-1.2,0.2
			c-0.2,0-0.5,0-0.7,0c-0.2,0-0.5-0.1-0.7-0.2v-1.8c0.2,0.1,0.4,0.1,0.6,0.2c0.2,0.1,0.4,0.1,0.6,0.1c0.4,0,0.7-0.1,1-0.3
			c0.3-0.2,0.5-0.5,0.6-0.8l0.8-2l-4.8-12h2.2l3.5,9.9h0l3.4-9.9h2.1L172.1,232.5z"/>
	</g>
</g>
<g>
	<circle fill="#174F65" stroke="#212121" stroke-width="0.25" stroke-miterlimit="10" cx="14.7" cy="250.7" r="3"/>
	<g>
		<g>
			<path d="M27,244.5c1,0,1.7,0.2,2.2,0.7c0.5,0.5,0.8,1.1,0.8,1.9c0,0.6-0.1,1.1-0.4,1.6s-0.7,0.8-1.3,0.9v0
				c0.3,0.1,0.5,0.1,0.7,0.3c0.2,0.1,0.3,0.3,0.4,0.5c0.1,0.2,0.2,0.4,0.2,0.6c0.1,0.2,0.1,0.5,0.1,0.7c0,0.2,0,0.5,0,0.7
				c0,0.3,0,0.5,0.1,0.7c0,0.2,0.1,0.5,0.2,0.7c0.1,0.2,0.2,0.4,0.3,0.6h-1.5c-0.1-0.1-0.2-0.2-0.2-0.4c0-0.2-0.1-0.4-0.1-0.6
				c0-0.2,0-0.5,0-0.7c0-0.3,0-0.5-0.1-0.7c0-0.2-0.1-0.5-0.1-0.7c-0.1-0.2-0.1-0.4-0.3-0.6c-0.1-0.2-0.3-0.3-0.5-0.4
				c-0.2-0.1-0.5-0.1-0.8-0.1h-3.2v4.3h-1.3v-10H27z M27.2,249.1c0.3,0,0.5-0.1,0.7-0.3c0.2-0.1,0.4-0.3,0.5-0.5s0.2-0.5,0.2-0.9
				c0-0.5-0.1-0.9-0.4-1.2s-0.7-0.5-1.4-0.5h-3.3v3.5h2.8C26.7,249.1,27,249.1,27.2,249.1z"/>
			<path d="M31.7,246v-1.5h1.2v1.5H31.7z M32.9,247.3v7.2h-1.2v-7.2H32.9z"/>
			<path d="M34.5,249.4c0.1-0.5,0.4-0.9,0.7-1.2c0.3-0.3,0.7-0.6,1.1-0.8s0.9-0.3,1.5-0.3c0.6,0,1.1,0.1,1.5,0.3
				c0.4,0.2,0.8,0.5,1.1,0.8c0.3,0.3,0.5,0.7,0.7,1.2s0.2,1,0.2,1.5s-0.1,1-0.2,1.5s-0.4,0.9-0.7,1.2c-0.3,0.3-0.7,0.6-1.1,0.8
				c-0.4,0.2-0.9,0.3-1.5,0.3c-0.6,0-1.1-0.1-1.5-0.3c-0.4-0.2-0.8-0.5-1.1-0.8c-0.3-0.3-0.5-0.7-0.7-1.2s-0.2-1-0.2-1.5
				S34.4,249.9,34.5,249.4z M35.7,252.1c0.1,0.3,0.3,0.6,0.5,0.9s0.4,0.4,0.7,0.5c0.3,0.1,0.6,0.2,0.9,0.2c0.3,0,0.6-0.1,0.9-0.2
				c0.3-0.1,0.5-0.3,0.7-0.5c0.2-0.2,0.4-0.5,0.5-0.9c0.1-0.3,0.2-0.7,0.2-1.2s-0.1-0.8-0.2-1.2c-0.1-0.3-0.3-0.6-0.5-0.9
				c-0.2-0.2-0.4-0.4-0.7-0.5c-0.3-0.1-0.6-0.2-0.9-0.2c-0.3,0-0.6,0.1-0.9,0.2c-0.3,0.1-0.5,0.3-0.7,0.5c-0.2,0.2-0.4,0.5-0.5,0.9
				c-0.1,0.3-0.2,0.7-0.2,1.2S35.6,251.7,35.7,252.1z"/>
			<path d="M52.8,254.4c-0.6,0.2-1.2,0.3-1.8,0.3c-0.7,0-1.4-0.1-2-0.4s-1.1-0.6-1.5-1.1c-0.4-0.5-0.7-1-0.9-1.6s-0.3-1.2-0.3-1.9
				c0-0.7,0.1-1.4,0.3-2.1c0.2-0.7,0.5-1.2,0.9-1.7c0.4-0.5,0.9-0.9,1.5-1.2s1.3-0.4,2.1-0.4c0.5,0,1.1,0.1,1.5,0.2
				c0.5,0.1,0.9,0.3,1.3,0.6s0.7,0.6,1,1c0.3,0.4,0.4,0.9,0.5,1.5h-1.3c-0.1-0.4-0.2-0.7-0.4-1c-0.2-0.3-0.4-0.5-0.7-0.7
				c-0.3-0.2-0.6-0.3-0.9-0.4s-0.7-0.1-1.1-0.1c-0.6,0-1.1,0.1-1.6,0.4c-0.4,0.2-0.8,0.6-1.1,1c-0.3,0.4-0.5,0.8-0.6,1.4
				c-0.1,0.5-0.2,1-0.2,1.6c0,0.5,0.1,1,0.2,1.5s0.4,0.9,0.7,1.3c0.3,0.4,0.6,0.7,1.1,0.9c0.4,0.2,0.9,0.3,1.5,0.3
				c0.5,0,1-0.1,1.4-0.3s0.7-0.4,1-0.7s0.5-0.6,0.6-1c0.1-0.4,0.2-0.8,0.2-1.3h-3.2v-1.1h4.4v5.3h-0.8l-0.3-1.2
				C53.9,253.8,53.4,254.2,52.8,254.4z"/>
			<path d="M58.4,247.3v1.5h0c0.3-0.6,0.6-1,1.1-1.3c0.4-0.3,1-0.4,1.6-0.4v1.3c-0.5,0-0.9,0.1-1.2,0.2s-0.6,0.3-0.8,0.6
				s-0.4,0.6-0.4,0.9c-0.1,0.4-0.1,0.8-0.1,1.2v3.2h-1.2v-7.2H58.4z"/>
			<path d="M68.4,254.5c-0.2,0.1-0.5,0.2-0.9,0.2c-0.3,0-0.6-0.1-0.7-0.3c-0.2-0.2-0.3-0.5-0.3-0.8c-0.3,0.4-0.7,0.7-1.1,0.8
				c-0.4,0.2-0.9,0.3-1.4,0.3c-0.3,0-0.6,0-0.9-0.1c-0.3-0.1-0.5-0.2-0.8-0.4c-0.2-0.2-0.4-0.4-0.5-0.6c-0.1-0.3-0.2-0.6-0.2-0.9
				c0-0.4,0.1-0.7,0.2-1s0.3-0.5,0.6-0.6c0.2-0.2,0.5-0.3,0.8-0.4s0.6-0.2,0.9-0.2c0.3-0.1,0.6-0.1,0.9-0.1c0.3,0,0.6-0.1,0.8-0.1
				s0.4-0.1,0.5-0.3c0.1-0.1,0.2-0.3,0.2-0.5c0-0.3,0-0.5-0.1-0.6c-0.1-0.2-0.2-0.3-0.4-0.4c-0.2-0.1-0.3-0.1-0.5-0.2
				c-0.2,0-0.4,0-0.6,0c-0.5,0-0.9,0.1-1.3,0.3c-0.3,0.2-0.5,0.6-0.5,1.1h-1.2c0-0.4,0.1-0.8,0.3-1.1s0.4-0.6,0.7-0.7
				c0.3-0.2,0.6-0.3,1-0.4c0.4-0.1,0.7-0.1,1.2-0.1c0.3,0,0.7,0,1,0.1c0.3,0,0.6,0.1,0.9,0.3c0.3,0.1,0.5,0.3,0.6,0.6
				c0.2,0.3,0.2,0.6,0.2,1v3.7c0,0.3,0,0.5,0,0.6c0,0.1,0.1,0.2,0.3,0.2c0.1,0,0.2,0,0.4-0.1V254.5z M66.5,250.8
				c-0.1,0.1-0.3,0.2-0.6,0.2c-0.2,0.1-0.5,0.1-0.8,0.1c-0.3,0-0.5,0.1-0.8,0.1c-0.3,0-0.5,0.1-0.7,0.2s-0.4,0.2-0.5,0.4
				c-0.1,0.2-0.2,0.4-0.2,0.7c0,0.2,0,0.4,0.1,0.5s0.2,0.2,0.3,0.3c0.1,0.1,0.3,0.1,0.4,0.2s0.3,0.1,0.5,0.1c0.4,0,0.7-0.1,1-0.2
				c0.3-0.1,0.5-0.2,0.7-0.4c0.2-0.2,0.3-0.3,0.4-0.5c0.1-0.2,0.1-0.4,0.1-0.5V250.8z"/>
			<path d="M70.6,247.3v1.1h0c0.5-0.9,1.3-1.3,2.4-1.3c0.5,0,0.9,0.1,1.2,0.2s0.6,0.3,0.8,0.5c0.2,0.2,0.3,0.5,0.4,0.8
				c0.1,0.3,0.1,0.7,0.1,1.1v4.8h-1.2v-4.9c0-0.4-0.1-0.8-0.4-1.1c-0.3-0.3-0.6-0.4-1.1-0.4c-0.4,0-0.7,0.1-0.9,0.2
				c-0.3,0.1-0.5,0.3-0.7,0.5c-0.2,0.2-0.3,0.4-0.4,0.7s-0.1,0.6-0.1,0.9v4.1h-1.2v-7.2H70.6z"/>
			<path d="M82.6,254.5v-1h0c-0.2,0.4-0.5,0.7-0.9,0.9c-0.4,0.2-0.9,0.3-1.4,0.3c-0.6,0-1-0.1-1.5-0.3s-0.8-0.5-1-0.8
				c-0.3-0.3-0.5-0.7-0.6-1.2c-0.1-0.5-0.2-0.9-0.2-1.5c0-0.5,0.1-1,0.2-1.5c0.1-0.5,0.3-0.9,0.6-1.2s0.6-0.6,1-0.8
				c0.4-0.2,0.9-0.3,1.4-0.3c0.2,0,0.4,0,0.6,0.1c0.2,0,0.4,0.1,0.6,0.2s0.4,0.2,0.6,0.3c0.2,0.1,0.4,0.3,0.5,0.5h0v-3.7h1.2v10
				H82.6z M78.3,251.9c0.1,0.3,0.2,0.6,0.4,0.9c0.2,0.3,0.4,0.5,0.7,0.6c0.3,0.1,0.6,0.2,1,0.2c0.4,0,0.7-0.1,1-0.2
				c0.3-0.2,0.5-0.4,0.7-0.6s0.3-0.5,0.4-0.9s0.1-0.7,0.1-1c0-0.4,0-0.7-0.1-1c-0.1-0.3-0.2-0.6-0.4-0.9c-0.2-0.3-0.4-0.5-0.7-0.6
				c-0.3-0.2-0.6-0.2-1.1-0.2c-0.4,0-0.7,0.1-1,0.2c-0.3,0.2-0.5,0.4-0.7,0.6c-0.2,0.3-0.3,0.6-0.4,0.9c-0.1,0.3-0.1,0.7-0.1,1
				C78.2,251.3,78.2,251.6,78.3,251.9z"/>
			<path d="M90.7,254.1c-0.5,0.4-1.2,0.6-2,0.6c-0.6,0-1.1-0.1-1.5-0.3s-0.8-0.4-1.1-0.8c-0.3-0.3-0.5-0.7-0.7-1.2s-0.2-1-0.2-1.5
				c0-0.5,0.1-1.1,0.3-1.5s0.4-0.9,0.7-1.2c0.3-0.3,0.7-0.6,1.1-0.8s0.9-0.3,1.4-0.3c0.6,0,1.2,0.1,1.6,0.4c0.4,0.3,0.8,0.6,1,1
				c0.3,0.4,0.4,0.9,0.5,1.3c0.1,0.5,0.1,0.9,0.1,1.4h-5.4c0,0.3,0,0.6,0.1,0.9c0.1,0.3,0.2,0.5,0.4,0.8c0.2,0.2,0.4,0.4,0.7,0.5
				s0.6,0.2,1,0.2c0.5,0,0.9-0.1,1.2-0.4s0.5-0.6,0.6-1.1h1.2C91.6,253,91.2,253.6,90.7,254.1z M90.4,249.4
				c-0.1-0.3-0.3-0.5-0.4-0.7c-0.2-0.2-0.4-0.3-0.6-0.4c-0.2-0.1-0.5-0.2-0.8-0.2c-0.3,0-0.6,0.1-0.8,0.2s-0.5,0.3-0.6,0.4
				c-0.2,0.2-0.3,0.4-0.4,0.7c-0.1,0.2-0.2,0.5-0.2,0.8h4.2C90.6,249.9,90.5,249.7,90.4,249.4z"/>
		</g>
	</g>
</g>
</svg>
