<?xml version="1.0" encoding="utf-8"?>
<!-- Generator: Adobe Illustrator 18.1.1, SVG Export Plug-In . SVG Version: 6.00 Build 0)  -->
<!DOCTYPE svg PUBLIC "-//W3C//DTD SVG 1.1//EN" "http://www.w3.org/Graphics/SVG/1.1/DTD/svg11.dtd">
<svg version="1.1" xmlns="http://www.w3.org/2000/svg" xmlns:xlink="http://www.w3.org/1999/xlink" x="0px" y="0px" width="300px"
	 height="300px" viewBox="0 0 300 300" enable-background="new 0 0 300 300" xml:space="preserve">
<g id="Layer_1">
	<g>
		<defs>
			<rect id="SVGID_1_" x="0" y="0" width="300" height="300"/>
		</defs>
		<clipPath id="SVGID_2_">
			<use xlink:href="#SVGID_1_"  overflow="visible"/>
		</clipPath>
		<rect x="-7" y="-8" clip-path="url(#SVGID_2_)" fill="#FFFCF8" width="317.1" height="316"/>
		<g clip-path="url(#SVGID_2_)">
			<defs>
				<rect id="SVGID_3_" x="-24.1" y="-25" width="350" height="350"/>
			</defs>
			<clipPath id="SVGID_4_">
				<use xlink:href="#SVGID_3_"  overflow="visible"/>
			</clipPath>
			<g clip-path="url(#SVGID_4_)">
				<g opacity="0.5">
					<path fill="#FFFFFF" stroke="#282828" stroke-miterlimit="10" d="M543.1,54l-1.2-2l-1.4-5.7L532.1,34l-2.6-8.1l-5.9-9l-1.5-8.1
						l-2.4-19.2l-1.7-19.5L516-50.3l-4-1.8l-6.5,2.1l-5.1-3l-5.7-2.6l-7.2-1.8l-6-3.1l-3-3.6l-3.4-0.4l-4.7,2.8l-8.6,0.4l-0.9-2.2
						l-1.3,0.1l-6,3.5l-3.9-1.3l-7.5,0.4l-1.4,5.2l-4.3,1.7l-6.7-1.2l-6.9-2.1l-9-1.6l-2.5-3.7l-0.7,0l-3.6,8.5l-5.3,0.7l-9.6-3.5
						l-1.1-3.7l-4.8-0.1l-3.1-0.6l-5.4,3.9l-6.3-2l0.1-4l-2.2-0.5l-4.4-5.4l-5.7-0.4l-6.4,3.5l-4.6-3.5l-8-0.7l-5.5-1.4l-8.7-1.6
						l0.2-6.9l-2.3-0.7l-3.2,1.6l-3.6-0.8l-1.9-1.7l-1.3,2.6l-3.7-0.3l-3.6-1.5l-9.2-7.3l-0.4-4.2l-1.3-33.2l1.1-42h-110l-0.2,33.4
						L186-23.5l-2.2,47.3l-58.7-0.7l-58.8-2.8l-16.2-0.7l1.8,9.3l4,0.7l5.5,5.6l3.4,8.6l9.7,4.1l2.9,6.4l15.2,15.2l2.8,3.1l10.3,3.7
						l2.5,4.1l3.4,1.8l1.3,5.5l7.2,12.7l0.8,16.3l5,9.2l15.8,14.9l10.6,3.7l3.8,3.7l0.1,1.3l8.1,4.2l4,1.1l3.7,2.1l5.3,1.7l4.6-5.1
						l8.2-12.8l1.6-7.6l4.2-6.8l7-3.3l8.9-4.1l6.4,4.2l15.1,0.5l13.8,1.6l5.4,4l0.1,2.3l5.5,5.9l12.6,10.1l0.5,2.9l3.8,3.7l2.1,8.4
						l12,24.2l-0.1,3.9l8.7,4.8l7.9,13l7.3,8.4l6.7,2.3l3.5,4.4l-2.2,8.9l1.4,1.9l2.7,1.2l-0.3,6.9l-1.2,1.4l1.5,4.5l6.7,3.6
						l3.3,12.9l4.6,7.6l15.7,6.1l10.5,1.7l8.8,5.8l6.6,1l2.6-1.1l11.2,1.7l11.8,7.2l6-4.2l1.8-3l-3.9-5.4l-2.6-12.3l-4.3-13.8
						l-1.9-4.8l1.2-9.2l1.9-7.9l2.1-9.3l2.4-11.2l-4.8-3.7l1.8-4l8.1-1.1l7.3-11.5l6.8-1.7l11.4-7.8l3.4-3.1l12.4-7.5l11.2-5.5
						l10.4-7.1l5.3-4.5l10.9-11.3l2.5-1.8l4.1-3.2l5-4.2l1.8-4l19.4-10.1l11.3-3.8l-1.7-8.8l2.5-5.6l0.9-14.8l0.5-5.1l-2.2-5.7
						l4.9-9.1L543.1,54z"/>
				</g>
				<g>
					<path fill="#8ABABA" stroke="#8ABABA" stroke-linecap="round" stroke-linejoin="round" stroke-miterlimit="10" d="M99.8,80.9
						c0,0,0.9-1.6,0.9-1.6l0-0.7c0,0-0.5-0.3-0.5-0.3l-0.2,2.1l-0.2,2.2h0l-0.1-2.3c0,0,0-1.2,0-1.2l-0.1-0.6c0,0,0-0.3,0-0.3
						l-0.2-0.2c0,0-0.2-0.1-0.2-0.1l0-0.1l0-0.1l0.1-0.1c0,0,0.1,0,0.1,0l0-0.1c0,0,0,0,0,0l0-0.1l0,0l0,0c0,0,0,0,0,0l-0.1,0
						L99,77.2c0,0-0.1,0-0.1,0l0-0.1c0,0,0,0,0,0l0-0.1l0-0.1l-0.2-0.1c0,0,0,0,0,0l-0.1,0c0,0,0,0,0,0l0-0.1l0-0.1l-0.1,0l-0.2,0
						l-0.1,0l-0.1,0.1c0,0,0,0,0,0l-0.1,0c0,0,0,0,0,0l0-0.1c0,0,0,0,0,0l0-0.1l0-0.1l-0.1-0.1l-0.1-0.1l0-0.1l0,0l-0.1,0
						c0,0,0,1.2,0,1.2l-0.2,1.2c0,0,0,0,0,0l-0.2-1.3c0,0,0-0.6,0-0.6L97,76.3l0-0.2c0,0,0-0.1,0-0.2l0-0.4l0-0.4l-0.1,0l-0.2,0.3
						c0,0,0,0.2,0,0.2l-0.1,0.1l-0.1,0l-0.1,0.1l-0.1,0c0,0,0,0,0,0l-0.1,0c0,0,0,0,0,0l0,0c0,0-0.1,0-0.1,0l-0.1-0.1c0,0,0,0,0,0
						l0-0.1c0,0,0,0,0,0l0-0.1c0,0,0,0,0,0l0-0.1c0,0,0,0,0,0l0.1-0.1l0.1,0l0-0.1l0-0.1l0,0c0,0,0-0.1,0-0.1l0.1-0.1l0,0l0-0.1
						c0,0,0,0,0,0l-1.4,0l-1.4-0.1v0l1.4,0l0.7,0c0,0,0.4,0,0.4,0l0-0.1c0,0,0.1,0,0.1,0l0-0.1c0,0,0-0.1,0-0.1l0,0l0.1-0.1l0,0
						l0-0.1L96,74c0,0,0,0,0,0l0,0l-0.1,0l-0.1,0c0,0,0,0,0,0l-0.1,0c0,0,0,0,0,0l0,0c0,0,0,0,0,0l0,0c0,0-1.1,0-1.1,0l-1-0.1v0
						l1-0.1c0,0-0.5,0-0.5,0l-0.5-0.1v-0.3l1-0.3l0.5,0l0.1,0.2l-0.1,0.1c0,0,0,0,0,0l0,0c0,0,0,0,0,0l0-0.1l-0.1,0L94.7,73l-0.2,0
						c0,0,0,0,0,0l-0.1-0.1c0,0,0,0,0,0l0-0.1c0,0,0,2,0,2l0,1.8h0l-0.1-2l-0.1-0.9c0,0,0-0.5,0-0.5L94,72.8c0,0,0-0.1,0-0.1l0-0.1
						c0,0,0,0,0-0.1l0-0.1c0,0,0,0,0-0.1l0.1-0.1l0,0l0,0.3l-0.1,0.3l-0.1,0l-0.1-0.3l-0.2-0.2l-0.1-0.1c0,0,0-0.1-0.1-0.1l0-0.1
						c0,0,0,0,0,0l0-0.1l0-0.1l-0.1-0.1l0,0L93,71.6c0,0,0,0,0,0l-0.1-0.2l-0.1-0.4l-0.1-0.3l-0.1,0L92.4,71c0,0,0,0.1-0.1,0.1l0,0
						c0,0,0,0,0,0c0,0,0,0,0,0l0,0l0,0L92.3,71l-0.1,0l-0.1,0c0,0,0,0,0,0l0,0c0,0-0.3,0-0.3,0l-0.3-0.1c0,0,0,0,0,0l0.4-0.1
						c0,0,0.2,0,0.2,0l0.7-0.1l0.7-0.1v-0.1l-0.7-0.2l-0.4,0.1L92,70.5h-0.1l-0.1-0.2l-0.1-0.1c0,0,0,0.2,0,0.2l-0.1,0.2l-0.1,0
						l-0.1-0.3c0,0,0-0.2,0-0.2l0-0.1l0-0.1l0-0.1l-0.1-0.2l-0.1-0.1l-0.1-0.1l-0.1,0l-0.1,0c0,0,0,0,0,0l0-0.1l0-0.1l-0.1-0.1
						l-0.2-0.1l-0.2,0l-0.1,0L90,69l-0.2-0.1c0,0,0,0,0,0l-0.2-0.2c0,0,0,0,0,0l-0.1-0.1c0,0-2-0.1-2-0.1l-2-0.1c0,0,0,0,0,0l1.1,0
						l0.9,0v-0.1c0,0,1,0,0.9,0l0.4-0.1c0,0-0.7,0-0.7,0l-0.7-0.1v-0.1c0,0,0,0,0,0l0-0.1v-0.1l0.9,1.4l0.6,1.5H89
						c0,0,0.1-1.5,0.1-1.5L89,68.2L89,67.8c0,0,0-0.2,0-0.2l0-0.2l0-0.1c0,0-0.7,0-0.7-0.1l-0.7-0.1c0,0,0,0,0,0l0.7-0.1l0.4-0.1
						c0,0,0.2,0,0.2,0l0.1-0.1l0-0.1l0-0.1l0-0.2l0-0.2l0-0.3l-0.1-0.2l-0.1-0.1l-0.1-0.1l-0.1-0.1l-0.1-0.1c0,0,0,0,0,0l0-0.1
						l0-0.2l0-0.2l-0.1-0.3l-0.2-0.2l-0.2-0.1l-0.4-0.3l-0.1-0.3l-0.1-0.3l-0.1,0l-0.1,0.2l-0.1,0.1l-0.2,0.1l-0.1,0c0,0,0,0,0,0
						l0,0c0,0,0,0,0,0l0,0c0,0,0,0,0,0l0-0.1l0-0.1l0-0.1l0-0.1l0-0.2l0-0.1l0,0l0,0L86,62.6l-0.3-0.1l-0.4-0.2l-0.8-0.3L84,61.7
						l-0.4-0.2c0,0,0,0,0,0l-0.1-0.1c0,0,0,0,0,0l0-0.1c0,0,0,0,0,0l-1-0.1l-1,0V61l0.9-0.1l0.4-0.1l-0.1-0.4l-0.2-0.2l-0.1,0.2
						l-0.1,0.3l-0.1,0L82,60.5l-0.2-0.1l-0.2-0.1l-0.2-0.1c0,0,0,0,0,0L81.2,60l-0.1-0.1c0,0,0,0,0,0l0-0.1L81,59.6l-0.1-0.2
						l-0.1-0.2c0,0,0,0,0,0l-0.5-0.1c0,0-0.5,0-0.5-0.1l0-0.1l0.5-0.1l0.3-0.2l0-0.2l0,0l0,0l-0.2-0.1c0,0,0,0,0,0l-0.1-0.1
						l-0.1-0.2l-0.1-0.2L80,57.7l-0.3-0.4L79.5,57c0,0,0,0,0,0l0-0.1L79,56.3l-0.3-0.4l-0.2-0.3l-0.3-0.3l-0.1-0.1c0,0,0,0,0,0
						l0-0.1l0-0.1l0-0.1L78,54.7l-0.2-0.2c0,0,0,0,0,0l-0.1-0.2l-0.1-0.2L77.4,54l-0.1,0.1l-0.1,0.2l-0.1,0l-0.4-0.2L76.5,54
						c0,0,0-0.1,0-0.1l-0.1-0.1c0,0,0,0,0,0l-0.1-0.1c0,0,0,0,0,0l0-0.1L76,53.1l-0.1-0.3l-0.1,1.8l-0.1,1.8h-0.1l-0.2-1.9l-0.2-0.9
						L75,53.2l-0.1-0.3l-0.2-0.2c0,0,0-0.1,0-0.1l-0.1-0.1c0,0,0,0,0,0l-0.1-0.1l-0.1-0.2l-0.6-0.6l-0.4-0.2c0,0,0,0,0,0l0.4-0.1
						l0.2-0.1L73.7,51l-0.3-0.1v-0.1v-0.3v-0.1l0.2,1l0.2,1.2h-0.3c0,0,0,0,0,0h-0.1c0,0,0-1.2,0-1.2l-0.2-0.7L73,50.1l-0.3-0.4
						l-0.5-0.6L72,48.8l-0.5-0.1l-0.6-0.1l-1.5-0.2l-0.5-0.1l-0.2,0c0,0,0,0,0,0l-0.1-0.1c0,0,0,0,0,0l-0.1-0.1l-0.3-0.4L68,47.4
						l-0.3-0.3L67.6,47l-0.2,0.2L67.2,48L67,48.5c0,0,0,0,0,0l-0.3-0.8c0,0,0-0.4,0-0.4L66.5,47l-0.5-0.4l-0.4-0.3c0,0,0,0,0,0
						L65.5,46l-0.3-0.4L65,45.4l-0.1-0.1l-0.2-0.1l-0.2-0.1L64,44.9l-0.3-0.2l-0.1-0.1c0,0,0,0,0,0l-0.1-0.2l-0.2-0.2l-0.1-0.2
						l-0.1-0.2c0,0,0,0,0,0L63,43.4l0-0.3l0,0l-0.1-0.1l-0.2-0.2l-0.2-0.2c0,0,0,0,0,0l0-0.1l-0.1-0.2l-0.2-1l0-0.1L62.1,41L62,40.9
						l-0.3-0.2l-0.5-0.4l-0.5-0.3c0,0,0,0,0,0l0-0.4l-0.1-0.3L60.6,39l-0.1-0.2l-0.2-0.4l-0.1-0.3l-0.1-0.2L60,37.7c0,0,0,0,0,0
						l0-0.1l0-0.1l0-0.1l0-0.1l0-0.1L59.9,37l-0.2-0.3l-0.2-0.4l-0.3-0.4l-0.2-0.4L59,35.4l-0.1-0.1l-0.1-0.1c0,0,0,0,0,0l0-0.1
						l-0.1-0.3l-0.1-0.3l-0.1-0.3l-0.1-0.3l-0.1-0.2l-0.1-0.1L58,33.3l-0.2-0.2l-0.3-0.3l-0.2-0.1c0,0,0,0,0,0l-0.1-0.1c0,0,0,0,0,0
						l0-0.2l-0.1-0.2l0-0.2l-0.1-0.2L57,31.8l-0.1-0.1l-0.2-0.1l-0.1,0l-0.1,0l-0.2-0.1l-0.7-0.5l-0.1-0.1l-0.1,0c0,0,0,0,0,0
						l-0.2-0.1l-0.2-0.1l-0.2-0.1l-0.1-0.1l-0.2-0.2l-0.2,0.7l-0.2,0.7h-0.1L54,30.7L53.8,30l-0.1-0.5h-0.1l0,0.5l-0.1,0.5l-0.1,0.2
						c0,0,0,0.1,0,0.1l-0.1,0l-0.2,0l-0.2,0l-0.2,0c0,0,0,0,0,0l-0.3-0.1l-0.1-0.1c0,0,0,0,0,0l-0.1-0.1l-0.1-0.1l-0.2-0.2l-0.1,0
						l-0.1,0c0,0,0,0,0,0L51.6,30c0,0,0,0,0,0l0-0.1c0,0,0,0,0,0l0-0.2l0-0.1l0,0l-0.1,0l-0.1,0c0,0,0,0.1,0,0.1l-0.2-0.1H51
						c0,0,0,0,0,0h0l0-0.2c0,0,0-0.1,0-0.1l0-0.1c0,0,0,0,0-0.1l0-0.1c0,0,0,0,0,0l0-0.1l0-0.1l0-0.1l0,0l0,0l-0.1,0l-0.1,0
						c0,0,0,0,0-0.1l0,0l0-0.1l-0.2-0.3L50.4,28c0,0,0,0,0-0.1l0,0l-0.1-0.1c0,0-0.1,0-0.1,0l0-0.1l0,0l0,0l-0.3,0l-0.1,0
						c0,0,0,0,0,0l-0.4-0.1l0,0l-0.1,0c0,0,0,0,0,0h-0.1l-0.1,0c0,0,0,0,0,0H49c0,0,0,0,0,0l-0.1-0.1c0,0,0,0,0,0l-0.1-0.1l-0.2-0.2
						L48.5,27l-0.1,1.2l-0.2,1.3H48c0,0,0.2-1.3,0.2-1.4l0.3-1.4c0,0,0,0,0,0l-0.2-0.5L48.1,26L48.1,26l-0.2-0.1l-0.2,0c0,0,0,0,0,0
						L47,25.2c0,0,0,0,0,0L46.9,25l-0.1,0c0,0,0,0,0,0l-0.1-0.1c0,0,0,0,0,0l-0.1-0.2c0,0,0,0,0-0.1l0.1-0.1l0.1-0.2l0.1-0.2
						l0.1-0.1l0-0.1l-0.1-0.1l-0.1-0.1l-0.1-0.1l-0.1,0l-0.1-0.1c0,0,0,0,0,0l-0.1-0.1c0,0,0,0,0,0l0-0.1c0,0,0,0,0,0l0-0.1
						c0,0,0,0,0,0l0.1-0.1c0,0,0,0,0,0l0.4-0.3c0,0,0,0,0,0l0.3,0l0.2,0l0.3-0.3c0,0,0.4,0,0.4,0l0.4-0.1c0,0,0,0,0,0l-0.7-0.7h0h0
						c0,0,0,0,0,0h-0.1l-0.1,0.4l-0.1,0.8l-0.1,0.8h-0.1l-0.1-0.6c0,0,0-0.3,0-0.3l-0.1-0.2c0,0,0-0.1,0-0.1l0-0.2
						c0,0,0-0.1,0.1-0.1l0,0l0.1,0l0.1-0.1l0-0.1l0-0.1c0,0,0,0,0,0l0,0l0.5-0.1l0.5-0.2c0,0,0,0,0,0l-1.1-0.1c0,0-0.9,0-0.9,0v0
						c0,0,0.5,0,0.5,0l0.3,0l0.2,0l0.1-0.1l0.1-0.1l0.6,0l0.5,0l0,0l-0.6,0l-0.4,0c0,0-0.2,0-0.2,0l-0.2,0c0,0-0.1,0-0.1,0l-0.1-0.1
						c0,0,0,0,0,0l0-0.1c0,0,0,0,0,0l0-0.1c0,0,0,0,0,0l0.1-0.1c0,0,0,0,0,0l0.1-0.1l0.1-0.1l0-0.1l0-0.1l0,0l-0.1,0c0,0,0,0,0,0
						l-0.1,0c0,0,0,0,0,0l-0.2-0.1c0,0,0,0,0,0l-0.1-0.1c0,0,0,0,0,0L47,19.7l-0.1,0l-0.1-0.1c0,0,0,0,0-0.1l0-0.1c0,0,0,0,0,0
						l0.1-0.1l0.1-0.1c0,0,0,0,0,0l0.1-0.1c0,0,0,0,0,0l0.2-0.1l0.2,0l0.1-0.1l0.1-0.1l0.1-0.1l0-0.1l0-0.2c0,0,0-0.1,0.1-0.1
						l2.7,0.2l0,0c0,0,0,0,0,0l0,0.1c0,0-0.1,0-0.1,0v0.1c0,0,0.1,0,0.1,0l0,0.2l0,0.1l0.1,0c0,0,0,0,0,0l0,0c0,0,0,0,0,0.1l0,0
						c0,0,0,0,0,0l0,0c0,0,0,0,0,0l0,0l0,0l0.1,0l0.1,0l0,0l0,0l0-0.1l0-0.1c0,0,0,0,0,0l0.1-0.1l0,0c0,0,0,0,0,0l0.1,0l0,0
						c0,0,0,1.3,0,1.3l0,1.3c0,0,0,0,0,0l0-1.3c0,0,0-0.6,0-0.6l0.1-0.3l0.1-0.1c0,0,0-0.1,0-0.1l0,0l0,0c0,0,0,0,0,0l0,0l0,0l0,0
						c0,0,0,0,0,0l0,0c0,0,0,0,0,0l0.1,0c0,0,0.1,0,0.1,0l0,0l0,0l0,0l-0.1,0.1l0,0.2l0,0.1l0,0.1l0,0.4l0.1,0.3l0,0.1c0,0,0,0,0,0
						l0.4,0.1l0.4,0.1v0l-0.4,0.2c0,0-0.2,0-0.2,0c0,0-0.1,0-0.1,0l-0.1,0l0.4,0l0.4,0v0l-0.4,0c0,0-0.2,0.1-0.2,0.1l-0.1,0
						c0,0-0.1,0-0.1,0l-0.6,0l-0.5,0v0c0,0,0.5,0,0.5,0l0.2,0c0,0,0.1,0,0.1,0l-0.1,0l0,0l0,0l0,0.1c0,0,0,0,0,0l0,0l0,0
						c0,0,0,0,0,0l-0.1,0l0,0l0,0l0,0.1c0,0,0,0,0,0l0,0l-0.1,0l-0.1,0.2l0.1,0l0,0l0.1,0l0,0l0.1,0l0-0.3c0,0,0-0.3,0-0.3h0
						l0.1,0.3l0.1,0.2l0,0.1l0,0.1c0,0,0,0,0,0l0.1,0.1l0.1,0.1l0.1,0.2l0.2-0.4l0-0.7h0.1l0,0.7c0,0,0,0.4,0,0.4l0,0.2l0,0.1
						l0.1,0.1c0,0,0,0,0,0l0,0c0,0,0,0,0,0l0,0.1l0.2,0.1l0.2,0.1v0.1l-0.2,0.1l0.1,0.1l0.1,0.1v0.1c0,0-0.2,0-0.2,0l-0.1,0.1
						c0,0-0.1,0-0.1,0l0,0c0,0,0,0,0,0l-0.1,0l-0.1,0l-0.1,0l-0.1,0l-0.1-0.1l-0.2-0.1l0,0h0h0l0,0.1l0.1,0.3l0,0.1c0,0,0,0,0,0
						l0,0.1l0,0.1c0,0,0,0,0,0l0,0L51,24.2l0.7,0l0.7,0v0l-0.1,0.1l0.1,0.1v0l-0.6,0.1l0.4,0l0.2,0.1v0v0l-0.4,0c0,0-0.2,0-0.2,0
						l0,0.1c0,0,0,0,0,0l0,0.1l0,0l0,0l0,0l0.1-0.1l0,0c0,0,0,0,0,0l0,0c0,0,0,0,0,0l0,0c0,0,0,0,0,0l0,0c0,0,0,0,0,0l0,0.1l0,0.1
						l0.1,0l0.1,0.2v0.4l-0.1,0.3l-0.1,0.6l0,0.1l0.1,0.2c0,0,1.1,0,1.1,0l1,0.1V27l-1,0.1L53,27.2l-0.2,0.2l-0.1,0.1l0.9,0.1
						l0.9,0.2v0.1l0,0.1c0,0,0,0,0,0v0c0,0,0,0,0,0v0.1v0v0.1l0,0.1c0,0,0,0,0,0v0.3l-1,0L53,28.7c0,0-0.4,0-0.4,0l-0.2,0.1V29
						l0.1,0.1l0.1,0l0.1,0l0,0c0,0,0,0,0,0l0,0c0,0,0,0,0,0l0,0c0,0,0,0,0,0l0,0.1c0,0,0,0.1,0,0.1l0,0c0,0,0-0.1,0-0.1l0,0
						c0,0,0,0,0,0l0,0c0,0,0,0,0,0l0,0.1l0,0.1l0,0.1l0,0l0.1,0l0,0l0,0c0,0,0,0,0,0l0.2-0.2l0.1-0.2l0,0l0.1-0.3l0.4-0.1
						c0,0,0.4,0,0.4,0v0c0,0-0.4,0-0.4,0l-0.1-0.1l-0.2,0c0,0-0.1,0-0.1,0l0,0c0,0,0,0,0,0l0,0c0,0,0,0,0,0l0,0l0-0.1l0,0l0,0
						c0,0,0,0,0,0l0.5,0c0,0,0.5,0,0.5-0.1v0l-0.7,0c0,0-0.4,0-0.4,0l-0.2,0c0,0,0.1,0,0.1,0l0.1,0l0.1,0.9c0,0,0,1,0,1h0
						c0,0,0-1,0-1l0.1,0.5c0,0,0,0.5,0,0.5h0h0l0.4-0.9l0.4-1v0l-0.4,0l-0.2,0l-0.2,0c0,0-0.1,0-0.1,0l-0.1,0c0,0,0,0,0,0l0,0
						c0,0,0,0,0,0l-0.3,1c0,0-0.2,1.1-0.2,1.1h0c0,0,0.2,0,0.3,0h0.1c0,0,0.1-0.1,0.1-0.1l0.1,0.1h0.1l0,0l0.1,0h0l0.1-1.1l0.2-0.6
						l0-0.3l0-0.3l0-0.1l0,0l-0.1-0.1l0-0.1c0,0,0.2,0,0.2,0l0.2,0v-0.4l-0.2-0.3l-0.1,0c0,0-0.1,0.3-0.1,0.3l-0.1,0.1
						c0,0,0,0.1,0,0.1l-0.1-0.2l0,0l-0.1,0l-0.1,0c0,0,0,0,0,0l0,0c0,0,0,0,0-0.1l0,0c0,0,0,1.6,0,1.6l0.1,1.7c0,0,0,0,0,0l0-1.7
						l0-0.8l0.1-0.4l0.3-0.1l0-0.1l0-0.1l-0.1-0.1c0,0,0,0,0,0l0,0c0,0,0,0,0,0l-0.1-0.2l0,0l-0.1,0c0,0,0,0,0,0l-0.1-0.1
						c0,0,0,0,0,0l0,0c0,0,0,0,0,0l0-0.1c0,0,0,0,0,0l0,0l0.1,0l0.1-0.1l0.1,0l0.1,0l0.1,0l0.1,0l-0.1,0l-0.1,0l0,0l0.1,0
						c0,0,0,0,0,0l0,0c0,0,0,0,0-0.1l0-0.1l-0.5-0.1l-0.5-0.1l0-0.1l0.5-0.2l0.2,0l0.1-0.3c0,0,0.1,0,0.1,0l-0.8-0.1l-0.8-0.1v0
						l0.8,0l0.4,0L53,24.4c0,0-0.6,0-0.6,0v0l0.6,1.5l0.6,1.5h0l-0.1-1.7c0,0,0-1,0-1l0-0.4c0,0,0,0,0,0l0,0c0,0,0.5,0,0.5,0
						l0.5-0.1c0,0,0,0,0,0l-0.5,0c0,0-0.3,0-0.3,0l0.3,0c0,0,0.4,0,0.4,0v0c0,0-0.5,0-0.5,0l-0.2,0l0.3,0l0.3,0v0c0,0-0.3,0-0.3,0
						l-0.1,0c0,0-0.1,0,0,0l0.1,0l0.1,0l0,0l0.3-0.1v0v-0.1v0l0-0.2c0,0,0,0,0,0v0v0l0,0l0,0c0,0,0,0,0,0l0,0c0,0,0,0,0,0l0,0
						c0,0,0,0,0,0l0.1,0c0,0,0.1,0,0.1,0v0c0,0-0.1,0-0.1,0l0-0.9c0,0,0-0.9,0-0.9h0c0,0,0,0.9,0,0.9l0.1,0.5l0,0.2l0,0.1l0,0
						l-0.1,0l-0.1-0.1c0,0,0,0,0,0l0,0l0-0.1l0,0l0,0l-0.1,0L54,23c0,0,0,0,0,0l0,0c0,0,0,0,0,0l0,0c0,0,0,0,0,0l-0.1,0c0,0,0,0,0,0
						l0,0c0,0,0,0,0,0l0,0c0,0,0,0,0,0l0,0c0,0,0,0,0,0l0.1,0l0.2,0l0.1,0l0.1,0l0.1-0.1c0,0,0,0,0,0l0,0c0,0,0,0,0,0l0,0
						c0,0,0,0,0,0l0,0c0,0,0-0.6,0-0.6l0-0.5h0h0h0l-0.1,0.9v0.1l0.1,0.5l0.1,0.5h0l-0.1-0.6l0-0.3l-0.1-0.1l-0.1-0.1c0,0,0,0,0-0.1
						l-0.1-0.1l0,0l-0.1,0.6l-0.2,0.7h0l0-0.7c0,0,0-0.3,0-0.3l0-0.2c0,0,0-0.1,0-0.1l0-0.1c0,0,0,0,0,0l0-0.1c0,0,0,0,0,0l0-0.1
						l-0.2-0.1l-0.2,0l0,0l0.2-0.1l0.1-0.1l0,0l0,0c0,0,0,0,0,0l0.3-0.1c0,0,0.4,0,0.4-0.1v0c0,0-0.4,0-0.4,0l-0.2,0l-0.1,0
						c0,0-0.1,0-0.1,0l0,0c0,0,0,0,0-0.1c0,0,0,0,0,0l0.1,0l0.4,0l0.3-0.1c0,0,0,0,0,0v-0.2v-0.1l-0.3-0.1l-0.3-0.1
						c0,0-0.2,0-0.2-0.1l0,0c0,0,0.1,0,0.1,0l0.4-0.1l0.1,0l0.1-0.1l0,0l0,0l-0.9-0.1c0,0-0.9-0.1-0.9-0.1v0c0,0,0.9,0,0.9,0l0.4,0
						l0.2,0l-0.8,0c0,0-0.7,0-0.7,0v0c0,0,1,0,1,0l1,0c0,0,0,0,0,0L54,19.8l0.1,0l0.4,0v0c0,0-0.3,0-0.3,0l-0.2,0l-0.2,0l-0.1,0
						c0,0,0,0,0,0l-0.1,0l0,0l-0.2,0.8c0,0,0,0.7,0,0.7h0l0-0.7c0,0,0-0.4,0-0.4l0-0.2c0,0,0-0.1,0-0.1l-0.3-0.3
						c0,0-0.2,0.9-0.2,0.9l0,0.8c0,0,0.2,0,0.2,0l0.1-0.9c0,0,0.1-0.5,0.1-0.5l0.1-0.3c0,0,0-0.1,0-0.1l0.7-0.1c0,0,0.6-0.1,0.6-0.1
						v0c0,0-0.6,0-0.6,0l-0.3-0.3c0,0-0.1-0.3-0.1-0.3l-0.1,0l0,0.3l1.5,0.2l1.1,0.1h0l-1.1,0l-0.5,0l-0.3,0l-0.2,0l-0.2,0l-0.1,0
						c0,0,0,0,0,0l0,0c0,0,0,0,0,0l0-0.1l0,0l0-0.3c0,0,0,0,0,0c0,0,0,0,0,0h0l15.8,1.1c0,0,0,0,0,0l0.2,0.5c0,0,0,0,0,0L69,20.5
						c0,0-0.5,0-0.5,0v0.1c0,0,0,0,0,0l0.1,0.1c0,0-0.1,0-0.1,0V21c0,0,0.5,0,0.5,0l0.1,0.2c0,0,0.1,0,0.1,0l0,0.1L69,21.4
						c0,0,0,0,0,0l-0.4,0.1l-0.1,0.1l-0.1,0.1l0,0.1l0,0.1l0,0l0.1,0.1c0,0,0,0,0,0l0,0.2c0,0,0,0,0,0l-0.1,0.3l-0.9,0.1l-0.9,0.1
						c0,0,0,0,0,0l0.9,0.1l0.4,0.1l0.4,0.1c0,0,0.3,0,0.3,0v0.1L68,23.7l-0.1,0.1c0,0,0,0,0,0l-0.1,0.1l-0.1,0.1L67.6,24l-0.3,0.2
						L67,24.3L67,24.5l-0.1,0.2l-0.1,0.2l-1.2,0.2l-1.1,0.2v0.2l1.1,0.2l0.6,0.2l0.3,0.2l0.2,0.1l0.2,0.1l0.1,0l0.1,0l0.1,0
						c0,0,0,0,0,0l0.1,0.1c0,0,0,0,0,0l0.1,0.1l0.1,0.1l0.1,0.1l0.1,0l0.2,0l0.1,0.1c0,0,0,0,0,0L68,27c0,0,0,0,0,0l0,0.1
						c0,0,0.2,0,0.2,0l0.2,0.1v0.3v0.2c0,0,0,0,0,0l-0.1,0.6l0.1,0.2v0.2l-0.2,0.5l-0.1,0.2c0,0,0,0,0,0l-0.1,0.2l0,0.2l0,0.2l0,0.2
						l0,0.2l0,0.2l0,0.2l0,0.1l0,0.2l0,0.2l0,0.2l0.2,0.3l0.1,0.1l0.4,0.2l0.1,0.1l0.4,0.3l0.2,0.1c0,0,0,0,0,0l0.1,0.2l0.2,0.2
						l0.1,0.2l0.2,0.2l0.2,0.1l0.3,0.1l0.4,0.1l0.3,0l0.3,0.2l0.3,0.3L72,36l0.2,1.5h0.2h0.2c0,0,0-1.5,0-1.5l0.1-1l0.2-0.4
						c0,0,0-0.2,0-0.2l0.1,0l0.2,0.1l0.2,0.1l0.1,0.1c0,0,0,0,0,0.1c0,0,0,0,0,0l0.1,0.1l0.1,0.2c0,0,0,0,0,0l0,0.1l0.1,0.1
						c0,0,0,0,0,0l0,0.2l0,0.1c0,0-0.3,0-0.3,0l-0.3,0.1c0,0,0,0,0,0l0,0.3l0,0.1v0.1c0,0,0,0,0,0l0.2,0.1l0.1,0.1l0.1,0.3l0.1,0.3
						l0.2,0.5l0.1,0.2c0,0,0,0,0,0l0,0.2l0.1,0.1l0.1,0.1l0.2,0.2l0.1,0.1l0,0.1l0.1,0l0.1,0l0.2,0.1l0.3,0.1l0.3,0l0.2,0l0.3-0.1
						l0.1,0c0,0,0,0,0,0l0.2,0c0,0,0,0,0,0l0.3,0.1l0.3,0.2l0.2,0.1l0.2,0.1l0.2,0.1l0.2,0.1l0.2,0.1l0.4,0.3l0.2,0.1L79,40l0.3,0.3
						l0.1,0.1l0.1,0.1l0.1,0.1c0,0,0,0,0,0l0,0.1c0,0,0,0,0,0l0,0.1c0,0,0,0,0,0L79.5,41c0,0,0,0,0,0l-0.1,0.1c0,0,0,0,0,0l-0.1,0.1
						c0,0,0,0,0,0l-0.6,0.1l-0.2,0l-0.1,0.1l-0.1,0.1l0,0.1l0.1,0.1l0,0.3L78.3,42l0.1,0.2l0.1,0.1l0.2,0.1l0.2,0l0.2,0.1l0.2,0.1
						c0,0,0,0,0,0l0,0.1c0,0,0,0,0,0l0,0.1l0,0.1l0,0.1l0,0.1l0.2,0.3l0.1,0.1l0.1,0.3l0.1,0.1l0.1,0.1l0.1,0.1l0.1,0.1l0.4,0.2
						l0.2,0.1l0.2,0.2l0.2,0.1l0.2,0.1l0.2,0.1l0.2,0.2l0.1,0.2l0.1,0.1l0.1,0.2l0.2,0.2l0.2,0.1l0.1,0.1l0.1,0.1l0.2,0.1h0.1l0.1,0
						l0.1,0l0.1-0.1l0.2-0.2l0.1-0.1c0,0,0,0,0,0l0.1-0.1c0,0,0,0,0,0l0.2,0c0,0,0,0,0,0l0.1,0c0,0,0,0,0,0l0.2,0.3l0,0.1l0,0.1
						l0.1,0.1l0.1,0.2l0.2,0.2l0.1,0.1l0.1,0.1l0.1,0.1l0.2,0.1l0.1,0l0.2,0.1l0.1,0.1c0,0,0,0,0,0l0.1,0.1c0,0,0,0,0,0l0.1,0.2
						l0.1,0.3c0,0,0,0,0,0l0,0.1l0,0.1l0.1,0.2l0.2,0.2l0.1,0.1l0.1,0.1l0.1,0.1l0.1,0.2l0.1,0.2l0.1,0.3l0.1,0.6l0,0.6l0,0.2l0,0.1
						l0,0.2l0.1,0.4l0,0.1l0.1,0.1l0.1,0.1l0.2,0.3l0.2,0.2l0.1,0.1l0.2,0.1l0.7,0.4l0.2,0.1l0.4,0.2l0.4,0.2l0.2,0.1c0,0,0,0,0,0
						l0.1,0.1l0.3,0.2l0.1,0.1l0.1,0.1l0.1,0.1l0.1,0.1l0.1,0.2c0,0,0,0,0,0l0,0.1l0.1,0.2l0,0.2l0,0.1c0,0,0,0,0,0l0,0.1l-0.1,0.1
						l-0.1,0.1l-0.1,0.1l-0.2,0.1c0,0,0,0,0,0l-0.2,0l-0.2,0.1l-0.2,0l-1.1,0.3l-0.2,0l-0.2,0l-0.2,0l-0.2,0.1l-0.1,0l-0.3,0.1
						L87,56.5l-0.1,0l-0.1,0.1l0,0.1l0,0.1l0,0.1l0.1,0.1L87,57l0.2,0.1l0.2,0.1l0.2,0.1l0.2,0.1l0.2,0.1c0,0,0,0,0,0l0.2,0.1
						c0,0,0,0,0,0l0.2,0.3l0.1,0.2l0.1,0.1l0.1,0.1l0.2,0l0.3,0l0.4,0l0.2,0l0.2,0l0.2,0.1c0,0,0,0,0,0l0.2,0.1l0.2,0.1l0.2,0.1
						c0,0,0,0,0,0l0.2,0.2l0.2,0.2l0.1,0.2l0.2,0.3l0.2,0.4l0.1,0.1c0,0,0,0,0,0l0,0.1l0,0.1l0,0.2c0,0,0,0,0,0l-0.1,0.1L91.8,61
						l-0.1,0.1l-0.1,0.2l-0.2,0.3l-0.1,0.1L91.2,62l0,0.4l0.1,0.3l0.1,0.2l0.1,0.2l0.1,0.2l0.1,0.2l0.2,0.2l0.3,0.4l0.2,0.2l0.5,0.4
						l0.2,0.1l0.2,0.2c0,0,0,0,0,0l0.3,0.6l0.2,0.4l0.2,0.3l0.2,0.4l0.2,0.4l0.1,0.3l0.3,0.7l0.3,0.5l0.2,0.1c0,0,0,0,0,0l0.1,0.2
						l0.1,0.2l0.2,0.2l0.2,0.2c0,0,0,0,0,0l0,0c0,0,0,0,0,0l0,0c0,0,0,0,0,0l0,0l0,0c0,0,0,0,0.1,0l0,0c0,0,0,0,0,0.1l0,0l0,0
						c0,0,0,0,0,0l0,0.1l0.1,0c0,0,0,0,0,0l0,0c0,0,0,0,0,0l0,0.1c0,0,0,0,0,0.1l0,0c0,0,0,0,0,0l0,0l0,0c0,0-0.4,0-0.3,0
						c0,0-0.4,0.1-0.4,0.1v0c0,0,0.4,0,0.4,0l0.2,0l0,0l0,0.1l0,0l0,0.1l0.1,0.2c0,0,0,0,0,0l0,0.1l0,0.1l0.1,0.1l0.1,0.1
						c0,0,0,0,0,0l0,0.1l0.1,0.1l0.1,0.1l0.1,0.2l0.1,0.1l0,0.1l0.1,0c0,0,0,0,0,0l0.1,0.1l0,0.1l0.1,0.1l0,0.1c0,0,0,0,0,0l0.1,0.2
						l0,0.1l0,0.1l0.1,0.2l0.1,0.3l0.2,0.2c0,0,0,0,0,0l0.1,0.2l0.1,0.1l0.1,0.1c0,0,0,0,0,0l0,0l0.1,0.1l0,0l0.1,0l0,0l0.1,0
						c0,0,0,0,0,0l0,0.1l0,0c0,0,0,0,0,0l0.1,0.1c0,0-0.5,0-0.5,0l-0.5,0v0.1l0.5,0.1l-0.3,0l-0.3,0c0,0,0,0,0,0l0.5,0.1l0.4,0
						c0,0,0.2,0,0.2,0.1l0.1,0.1c0,0,0,0,0,0l0,0.1l0.1,0c0,0,0,0,0,0l0,0c0,0,0,0,0,0l0,0.1c0,0,0,0,0,0l0,0.1c0,0,0,0,0,0.1l0,0
						l-0.1,0l-0.1,0c0,0,0,2.8,0,2.8l0,2.8c0,0,0,0,0,0l-0.1-2.8l0-1.4L98,75.7l-0.6-0.3v-0.2l0.6,0.1l0.3,0.1l0.2,0l0.1,0l0.1,0.1
						l0.1,0.1l0.1,0.2l0,0.1l0.1,0.2l0.1,0.1l0,0c0,0,0,0,0,0l0,0.1l0,0.1l0,0l0,0c0,0,0,0,0,0l0.1,0.2l0.1,0.2l0,0l0,0c0,0,0,0,0,0
						l0.1,0.1c0,0,0,0,0,0l0,0.1l0,0.1l0,0.1l0,0l0,0.1l0,0.1l0,0l0,0c0,0,0,0,0,0l0,0l0.2,0l0-0.1c0,0-0.1,0.1,0,0.1l0,0.1
						c0,0,0,0,0,0.1l0,0l0,0c0,0,0,0,0,0l0,0c0,0,0,0,0,0.1l0,0l0,0.1c0,0,0,0,0,0l0,0.1c0,0,0,0,0,0l0,0c0,0,0,2,0,2l-0.1,2
						C99.8,80.9,99.8,80.9,99.8,80.9z M99.8,77.8L99.8,77.8L99.8,77.8L99.8,77.8L99.8,77.8l0.1-0.1c0,0,0,0,0,0l0,0l0,0c0,0,0,0,0,0
						l0,0c0,0,0,0,0,0l0,0l0,0l0,0c0,0,0,0,0,0l0,0c0,0,0,0,0,0l0-0.1l0,0l-0.1,0c0,0,0,0,0,0l0,0c0,0,0,0,0,0l-0.1-0.1l0,0
						c0,0,0,0,0,0l0-0.1c0,0,0,0,0,0l0,0.1l0,0.1l0,0.1c0,0,0,0,0,0l0,0.1l0,0.1l0,0l0,0l0.2-0.1c0,0,0.1,0,0.1,0l0,0.1c0,0,0,0,0,0
						L99.8,77.8z M53.5,24.4L53.5,24.4L53.5,24.4L53.5,24.4c0.1,0,0.1-0.1,0.1-0.1l0,0c0,0,0,0,0,0l0.1,0l0,0l0.1,0l0,0l0.1-0.1
						c0,0,0,0,0,0l0,0l-0.1,0l0,0l-0.1,0.1l0,0c0,0,0,0,0,0l-0.2,0l-0.1,0L53.5,24.4L53.5,24.4z M53.9,22.9L53.9,22.9L53.9,22.9
						l0.2-0.1L53.9,22.9L53.9,22.9L53.9,22.9z"/>
				</g>
				<g>
					<path fill="#FDBA12" stroke="#212121" stroke-width="0.25" stroke-miterlimit="10" d="M45.1,10.6c0.3-0.7,0.7-1.2,1.1-1.7
						c0.5-0.5,1.1-0.9,1.7-1.1c0.6-0.3,1.3-0.4,2.1-0.4H50h0h0.1c0.7,0,1.4,0.1,2.1,0.4c0.7,0.3,1.2,0.7,1.7,1.1
						c0.5,0.5,0.9,1.1,1.1,1.7c0.3,0.7,0.4,1.3,0.4,2.1c0,0.5-0.1,1.1-0.2,1.5c-0.1,0.5-0.4,0.9-0.6,1.3c0,0-4.2,6.3-4.2,6.3
						L50,22.3l0,0l-0.4-0.6l-4.1-6.1c0,0,0,0,0-0.1c-0.3-0.4-0.5-0.9-0.6-1.3c-0.1-0.5-0.2-1-0.2-1.5C44.6,12,44.8,11.3,45.1,10.6z"
						/>
					<ellipse opacity="0.25" fill="#505150" cx="50.1" cy="23.5" rx="1.6" ry="0.7"/>
				</g>
			</g>
		</g>
	</g>
	<g>
		<defs>
			<rect id="SVGID_9_" x="0.5" y="338" width="300" height="300"/>
		</defs>
		<clipPath id="SVGID_6_">
			<use xlink:href="#SVGID_9_"  overflow="visible"/>
		</clipPath>
		<g clip-path="url(#SVGID_6_)">
			<defs>
				<rect id="SVGID_11_" x="-23.6" y="313" width="350" height="350"/>
			</defs>
			<clipPath id="SVGID_8_">
				<use xlink:href="#SVGID_11_"  overflow="visible"/>
			</clipPath>
			<g clip-path="url(#SVGID_8_)">
				<g opacity="0.5">
					<path fill="#FFFFFF" stroke="#282828" stroke-miterlimit="10" d="M268.5,293l-1.2-2l-1.4-5.7l-8.4-12.3l-2.6-8.1l-5.9-9
						l-1.5-8.1l-2.4-19.2l-1.7-19.5l-2.1-20.4l-4-1.8l-6.5,2.1l-5.1-3l-5.7-2.6l-7.2-1.8l-6-3.1l-3-3.6l-3.4-0.4l-4.7,2.8l-8.6,0.4
						l-0.9-2.2l-1.3,0.1l-6,3.5l-3.9-1.3l-7.5,0.4l-1.4,5.2l-4.3,1.7l-6.7-1.2l-6.9-2.1l-9-1.6l-2.5-3.7l-0.7,0l-3.6,8.5l-5.3,0.7
						l-9.6-3.5l-1.1-3.7l-4.8-0.1l-3.1-0.6l-5.4,3.9l-6.3-2l0.1-4l-2.2-0.5l-4.4-5.4l-5.7-0.4l-6.4,3.5l-4.6-3.5l-8-0.7l-5.5-1.4
						l-8.7-1.6l0.2-6.9l-2.3-0.7l-3.2,1.6l-3.6-0.8l-1.9-1.7l-1.3,2.6l-3.7-0.3l-3.6-1.5l-9.2-7.3l-0.4-4.2l-1.3-33.2l1.1-42h-110
						l-0.2,33.4l-1.1,110.7l-2.2,47.3l-58.7-0.7l-58.8-2.8l-16.2-0.7l1.8,9.3l4,0.7l5.5,5.6l3.4,8.6l9.7,4.1l2.9,6.4l15.2,15.2
						l2.8,3.1l10.3,3.7l2.5,4.1l3.4,1.8l1.3,5.5l7.2,12.7l0.8,16.3l5,9.2l15.8,14.9l10.6,3.7l3.8,3.7l0.1,1.3l8.1,4.2l4,1.1l3.7,2.1
						l5.3,1.7l4.6-5.1l8.2-12.8l1.6-7.6l4.2-6.8l7-3.3l8.9-4.1l6.4,4.2l15.1,0.5l13.8,1.6l5.4,4l0.1,2.3l5.5,5.9l12.6,10.1l0.5,2.9
						l3.8,3.7l2.1,8.4l12,24.2l-0.1,3.9l8.7,4.8l7.9,13l7.3,8.4l6.7,2.3l3.5,4.4l-2.2,8.9l1.4,1.9l2.7,1.2l-0.3,6.9l-1.2,1.4
						l1.5,4.5l6.7,3.6l3.3,12.9l4.6,7.6l15.7,6.1l10.5,1.7l8.8,5.8l6.6,1l2.6-1.1l11.2,1.7l11.8,7.2l6-4.2l1.8-3l-3.9-5.4l-2.6-12.3
						l-4.3-13.8l-1.9-4.8l1.2-9.2l1.9-7.9l2.1-9.3l2.4-11.2l-4.8-3.7l1.8-4l8.1-1.1l7.3-11.5l6.8-1.7l11.4-7.8l3.4-3.1l12.4-7.5
						l11.2-5.5l10.4-7.1l5.3-4.5l10.9-11.3l2.5-1.8l4.1-3.2l5-4.2l1.8-4l19.4-10.1l11.3-3.8l-1.7-8.8l2.5-5.6l0.9-14.8l0.5-5.1
						l-2.2-5.7l4.9-9.1L268.5,293z"/>
				</g>
				<g>
					<path fill="#174F65" d="M132.2,537.3c-0.4,0-0.9-0.1-1.3-0.4l-11.4-7l-10-1.5l-1.9,0.8c-0.4,0.2-0.9,0.2-1.3,0.2l-6.6-1
						c-0.4-0.1-0.7-0.2-1-0.4l-8.4-5.5l-10-1.7c-0.2,0-0.3-0.1-0.5-0.1l-15.7-6.1c-0.5-0.2-0.9-0.5-1.2-1l-4.6-7.6
						c-0.1-0.2-0.2-0.4-0.3-0.7l-3-11.9l-5.8-3.1c-0.5-0.3-1-0.8-1.2-1.4l-1.5-4.5c-0.3-0.8-0.1-1.8,0.5-2.4l0.6-0.7l0.2-4.3
						l-1.1-0.5c-0.4-0.2-0.7-0.4-1-0.8l-1.4-1.9c-0.4-0.6-0.6-1.3-0.4-2l1.9-7.8l-2.3-2.9l-6-2c-0.4-0.1-0.8-0.4-1.1-0.7l-7.3-8.4
						c-0.1-0.1-0.2-0.2-0.2-0.3l-7.5-12.4l-8.2-4.5c-0.8-0.4-1.3-1.3-1.3-2.2l0.1-3.3L0.4,403.7c-0.1-0.2-0.1-0.3-0.2-0.5l-1.9-7.7
						l-3.3-3.2c-0.4-0.4-0.6-0.8-0.7-1.4l-0.3-2l-11.9-9.6c-0.1-0.1-0.2-0.2-0.3-0.2l-5.5-5.9c-0.4-0.4-0.6-1-0.7-1.5l-0.1-1.1
						l-4-2.9l-13.1-1.5l-15-0.5c-0.4,0-0.9-0.2-1.3-0.4l-5.3-3.5l-7.7,3.5l-6.3,3l-3.6,5.8l-1.5,7.2c-0.1,0.3-0.2,0.6-0.3,0.8
						l-8.2,12.8c-0.1,0.1-0.2,0.2-0.2,0.3l-4.6,5.1c-0.6,0.7-1.6,1-2.6,0.7l-5.3-1.7c-0.2-0.1-0.3-0.1-0.5-0.2l-3.4-2l-3.7-1
						c-0.2,0-0.3-0.1-0.5-0.2l-8.1-4.2c-0.8-0.4-1.3-1.2-1.3-2l0-0.4l-2.7-2.7l-10.1-3.5c-0.3-0.1-0.6-0.3-0.9-0.5l-15.8-14.9
						c-0.2-0.2-0.3-0.4-0.5-0.6l-5-9.2c-0.2-0.3-0.3-0.7-0.3-1.1l-0.8-15.7l-6.9-12.2c-0.1-0.2-0.2-0.4-0.3-0.7l-1-4.4l-2.4-1.3
						c-0.4-0.2-0.7-0.5-0.9-0.9l-2-3.4l-9.5-3.4c-0.4-0.1-0.7-0.4-1-0.7l-2.7-3.1l-15.1-15.2c-0.2-0.2-0.4-0.4-0.5-0.7l-2.5-5.5
						l-8.8-3.7c-0.6-0.3-1.1-0.7-1.3-1.4l-3.2-8.2l-4.6-4.7l-3.2-0.6c-1-0.2-1.8-1-1.9-1.9l-1.8-9.3c-0.3-1.3,0.6-2.6,1.9-2.9
						c1.3-0.3,2.6,0.6,2.9,1.9l1.5,7.7l2.3,0.4c0.5,0.1,0.9,0.3,1.3,0.7l5.5,5.6c0.2,0.2,0.4,0.5,0.5,0.8l3,7.7l8.7,3.7
						c0.6,0.2,1,0.7,1.3,1.2l2.8,6l14.9,14.9c0,0,0.1,0.1,0.1,0.1l2.4,2.7l9.7,3.5c0.5,0.2,1,0.6,1.3,1l2.1,3.5l2.8,1.5
						c0.6,0.3,1.1,0.9,1.2,1.6l1.2,5.1l7,12.4c0.2,0.3,0.3,0.7,0.3,1.1l0.8,15.7l4.6,8.4l15.1,14.3l10.2,3.5
						c0.3,0.1,0.7,0.3,0.9,0.6l3.8,3.7c0.4,0.4,0.7,0.9,0.7,1.5l6.6,3.4l3.7,1c0.2,0.1,0.4,0.1,0.6,0.2l3.5,2l3.6,1.1l3.4-3.8
						l7.8-12.3l1.5-7.2c0.1-0.3,0.2-0.6,0.3-0.8l4.2-6.8c0.2-0.4,0.6-0.7,1-0.9l7-3.3l9-4.1c0.8-0.3,1.7-0.3,2.4,0.2l5.9,3.9
						l14.4,0.5c0.1,0,0.1,0,0.2,0l13.8,1.6c0.4,0,0.8,0.2,1.2,0.5l5.4,4c0.6,0.4,1,1.1,1,1.9l0.1,1.4l4.8,5.1l12.5,10
						c0.5,0.4,0.8,0.9,0.9,1.5l0.3,2.1l3.2,3.2c0.3,0.3,0.6,0.7,0.7,1.2l2,8.1l11.9,24c0.2,0.4,0.3,0.8,0.3,1.2l-0.1,2.4l7.4,4.1
						c0.4,0.2,0.7,0.5,0.9,0.9l7.7,12.8l6.7,7.8l6,2.1c0.4,0.2,0.8,0.4,1.1,0.8l3.5,4.4c0.5,0.6,0.6,1.4,0.5,2.1L49,472l0.3,0.4
						l2.1,0.9c0.9,0.4,1.5,1.3,1.5,2.3l-0.3,6.9c0,0.6-0.2,1.1-0.6,1.5l-0.3,0.3l0.8,2.2l5.9,3.1c0.6,0.3,1.1,0.9,1.2,1.6l3.2,12.5
						l4,6.6l14.7,5.7l10.3,1.7c0.3,0.1,0.7,0.2,0.9,0.4l8.3,5.5l5.4,0.8l1.9-0.8c0.4-0.2,0.9-0.2,1.3-0.2l11.2,1.7
						c0.3,0,0.6,0.2,0.9,0.3l10.4,6.4l4.3-3l1.5-2.6c0.7-1.2,2.2-1.5,3.4-0.9c1.2,0.7,1.5,2.2,0.9,3.4l-1.8,3
						c-0.2,0.3-0.4,0.6-0.7,0.7l-6,4.2C133.2,537.1,132.7,537.3,132.2,537.3z"/>
				</g>
			</g>
		</g>
	</g>
	<g>
		<defs>
			<rect id="SVGID_13_" x="341.4" y="338.5" width="300" height="300"/>
		</defs>
		<clipPath id="SVGID_10_">
			<use xlink:href="#SVGID_13_"  overflow="visible"/>
		</clipPath>
		<g clip-path="url(#SVGID_10_)">
			<defs>
				<rect id="SVGID_15_" x="317.3" y="313.5" width="350" height="350"/>
			</defs>
			<clipPath id="SVGID_12_">
				<use xlink:href="#SVGID_15_"  overflow="visible"/>
			</clipPath>
			<g clip-path="url(#SVGID_12_)">
				<g opacity="0.5">
					<path fill="#FFFFFF" stroke="#282828" stroke-miterlimit="10" d="M609.5,293.5l-1.2-2l-1.4-5.7l-8.4-12.3l-2.6-8.1l-5.9-9
						l-1.5-8.1l-2.4-19.2l-1.7-19.5l-2.1-20.4l-4-1.8l-6.5,2.1l-5.1-3l-5.7-2.6l-7.2-1.8l-6-3.1l-3-3.6l-3.4-0.4l-4.7,2.8l-8.6,0.4
						l-0.9-2.2l-1.3,0.1l-6,3.5l-3.9-1.3l-7.5,0.4l-1.4,5.2l-4.3,1.7l-6.7-1.2l-6.9-2.1l-9-1.6l-2.5-3.7l-0.7,0l-3.6,8.5l-5.3,0.7
						l-9.6-3.5l-1.1-3.7l-4.8-0.1l-3.1-0.6l-5.4,3.9l-6.3-2l0.1-4l-2.2-0.5l-4.4-5.4l-5.7-0.4l-6.4,3.5l-4.6-3.5l-8-0.7l-5.5-1.4
						l-8.7-1.6l0.2-6.9l-2.3-0.7l-3.2,1.6l-3.6-0.8l-1.9-1.7l-1.3,2.6l-3.7-0.3l-3.6-1.5l-9.2-7.3l-0.4-4.2l-1.3-32.9l1.1-41.8h-110
						l-0.2,33.1l-1.1,110.6l-2.2,47.3l-58.7-0.7l-58.8-2.8l-16.2-0.7l1.8,9.3l4,0.7l5.5,5.6l3.4,8.6l9.7,4.1l2.9,6.4l15.2,15.2
						l2.8,3.1l10.3,3.7l2.5,4.1l3.4,1.8l1.3,5.5l7.2,12.7l0.8,16.3l5,9.2l15.8,14.9l10.6,3.7l3.8,3.7l0.1,1.3l8.1,4.2l4,1.1l3.7,2.1
						l5.3,1.7l4.6-5.1l8.2-12.8l1.6-7.6l4.2-6.8l7-3.3l8.9-4.1l6.4,4.2l15.1,0.5l13.8,1.6l5.4,4l0.1,2.3l5.5,5.9l12.6,10.1l0.5,2.9
						l3.8,3.7l2.1,8.4l12,24.2l-0.1,3.9l8.7,4.8l7.9,13l7.3,8.4l6.7,2.3l3.5,4.4l-2.2,8.9l1.4,1.9l2.7,1.2l-0.3,6.9l-1.2,1.4
						l1.5,4.5l6.7,3.6l3.3,12.9l4.6,7.6l15.7,6.1l10.5,1.7l8.8,5.8l6.6,1l2.6-1.1l11.2,1.7l11.8,7.2l6-4.2l1.8-3l-3.9-5.4l-2.6-12.3
						l-4.3-13.8l-1.9-4.8l1.2-9.2l1.9-7.9l2.1-9.3l2.4-11.2l-4.8-3.7l1.8-4l8.1-1.1l7.3-11.5l6.8-1.7l11.4-7.8l3.4-3.1l12.4-7.5
						l11.2-5.5l10.4-7.1l5.3-4.5l10.9-11.3l2.5-1.8l4.1-3.2l5-4.2l1.8-4l19.4-10.1l11.3-3.8l-1.7-8.8l2.5-5.6l0.9-14.8l0.5-5.1
						l-2.2-5.7l4.9-9.1L609.5,293.5z"/>
				</g>
				<polyline opacity="0.1" fill="#CBB17F" points="118.5,258.2 118.8,258.2 118.9,258.2 119,258.2 119.1,258.2 119.2,258.2 
					119.3,258.2 119.3,258.2 119.4,258.2 119.5,258.3 119.6,258.3 119.8,258.3 120.3,258.3 120.4,258.3 120.5,258.3 120.6,258.3 
					122.3,258.4 122.9,258.5 123.6,258.5 123.7,258.5 124.3,258.6 124.7,258.6 124.9,258.6 125,258.6 125.3,258.6 125.5,258.6 
					125.6,258.6 125.8,258.6 126,258.7 126,258.7 126.2,258.7 126.8,258.7 127.5,258.8 127.5,258.8 128.1,258.8 129.1,258.8 
					129.1,258.8 129.2,258.8 129.4,258.8 129.5,258.8 129.8,258.8 130.4,258.8 131.1,258.9 131.2,258.9 131.4,258.9 132.1,258.9 
					133.5,259 133.8,259 133.9,259 134,259.1 134.1,259 134.2,259.1 134.7,259.1 136.2,259.2 136.3,259.2 136.5,259.2 136.8,259.2 
					137.1,259.2 138.4,259.3 139.2,259.3 139.6,259.4 141.4,259.5 141.5,259.5 141.6,259.5 141.6,259.5 141.6,259.7 141.6,260.6 
					141.5,260.6 141.5,260.8 141.5,261.3 141.5,262.3 141.5,262.5 141.4,263.4 141.4,263.9 141.4,264 141.4,264.1 141.4,264.2 
					141.4,264.3 141.4,264.4 141.3,264.7 141.3,264.8 141.3,264.8 141.3,264.9 141.3,265 141.3,265.7 141.3,265.9 141.3,266.2 
					141.2,267.1 141.1,268.3 141.1,268.5 141.1,269 141.1,269.8 141.1,270.2 141.1,270.5 141.1,270.6 141,272.3 141,272.7 
					141,273.3 141,273.4 141,273.6 141,274 140.9,274.1 140.9,274.8 140.9,275.4 140.9,275.7 140.8,276 140.8,276.8 140.8,277.9 
					140.7,278.6 140.6,280.6 140.6,280.9 140.6,281.4 140.5,282.4 141.8,282.5 141.7,284.4 141.7,284.7 141.7,284.9 141.8,284.9 
					141.1,285.5 140.7,285.9 140.3,286.2 140.3,286.3 140.2,286.4 140,286.3 140,286.2 139.9,286.1 139.8,286.1 139.5,286 
					139.3,286 138.8,285.9 138.4,285.9 138.3,285.9 137.3,285.8 137.2,285.8 137.1,285.7 137,285.7 136.9,285.6 136.6,285.2 
					136.5,285.1 136.4,285 136.3,284.8 136.1,284.6 136,284.6 135.9,284.5 135.8,284.5 135.5,284.5 135.4,284.5 135.2,284.4 
					135.1,284.4 134.8,284.2 134.3,283.8 134.3,283.7 133.9,283.4 133.9,283.3 133.8,283.2 133.8,283.1 133.7,283.1 133.7,283 
					133.6,283 133.6,282.9 133.6,282.9 133.5,282.9 133.4,282.9 133.3,282.9 133.1,282.8 133,282.8 132.8,282.7 132.8,282.6 
					132.7,282.6 132.6,282.6 132.5,282.5 132.5,282.4 132.4,282.3 132.3,282.1 132.2,282.1 132.1,282 132.1,281.9 132.1,281.9 
					132.1,281.8 132,281.1 132,281 132,280.9 131.9,280.9 131.9,280.8 131.6,280.5 131.5,280.5 131.5,280.4 131.4,280.3 
					131.3,279.9 131.3,279.4 131.3,279.2 131.2,279.1 131.2,279.1 131.1,279.1 131.1,279 131,278.9 130.9,278.8 130.8,278.8 
					130.8,278.7 130.7,278.7 129.9,278.2 129.9,278.1 129.8,277.2 129.8,277.1 129.6,276.7 129.5,276.4 129.5,276.3 129.4,276.2 
					129.3,276.1 129.3,276 129.3,275.9 129.2,275.5 129.1,275.3 129.1,275.2 128.7,274.4 128.3,273.8 128.2,273.6 128.1,273.2 
					127.8,272.3 127.7,272.1 127.5,271.8 127,271.5 126.8,271.3 126.8,270.7 126.7,270.5 126.5,270.3 126.1,270.1 125.8,269.9 
					125.3,269.5 125.2,269.4 124.8,269.4 124.6,269.3 124.6,269.3 124.4,269.1 124.2,269 124.1,268.9 124,268.9 123.5,269.1 
					123.4,269.2 123.3,269.3 123.2,269.4 123.1,269.5 122.9,269.5 122.8,269.5 122.8,269.6 122.7,269.6 122.7,269.5 122.6,269.5 
					122.5,269.3 122.3,269.3 122.3,269.3 122.2,269.1 122,268.9 121.9,268.9 121.8,268.8 121.8,268.6 121.7,268.5 121.6,268.5 
					121.4,268.2 121.2,268 121.3,267.9 121.3,267.8 121.3,267.8 121.3,267.7 121.3,267.6 121.2,267.5 121.1,267.5 121,267.4 
					121,267.3 121,267.2 120.9,267.2 120.9,267.1 120.8,267.1 120.8,267.1 120.8,267 120.7,267 120.7,266.9 120.6,266.8 
					120.5,266.8 120.2,266.7 120.1,266.6 120,266.6 120,266.5 119.9,266.5 119.8,266.6 119.7,266.6 119.6,266.6 119.5,266.6 
					119.4,266.5 119.3,266.4 119.3,266.3 119.2,266.2 119.2,266.1 119.1,266.1 118.9,266 118.8,266 118.5,265.9 118.5,265.8 
					118.5,265.7 118.5,265.6 118.5,265.6 118.5,265.5 118.6,265.4 118.6,265.3 118.6,265.2 118.6,265.1 118.5,265 118.5,265 
					118.5,264.9 118.4,264.9 118.3,264.9 118.2,264.9 118.1,264.8 118,264.8 117.9,264.7 117.8,264.5 117.8,264.3 117.7,264.3 
					117.7,264.2 117.6,264.1 117.5,264.1 117.5,264 117.5,263.9 117.5,263.8 117.5,263.7 117.6,263.7 117.6,263.6 117.7,263.5 
					117.7,263.4 117.8,263.4 117.8,263.3 117.8,263.3 117.8,263.2 117.7,263.2 117.7,263.1 117.6,263.1 117.6,263 117.5,263 
					117.4,262.9 117.3,262.9 117.2,262.9 117.2,262.8 117.1,262.8 117.1,262.7 117.2,262.6 117.2,262.5 117.3,262.5 117.4,262.4 
					117.4,262.3 117.5,262.3 117.6,262.2 117.7,262.2 117.7,262.1 117.8,262.1 117.8,262.1 117.9,262.1 117.9,262 118,262 
					118.1,261.9 118.2,261.9 118.2,261.8 118.3,261.8 118.4,261.8 118.5,261.8 118.4,261.7 118.3,261.7 118.2,261.6 118.1,261.6 
					118.1,261.5 118,261.5 117.9,261.6 117.8,261.6 117.8,261.4 117.9,261.4 118,261.3 118,261.2 118.1,261.2 118.1,261.1 
					118.1,261 118.2,261 118.2,261 118.2,260.8 118.1,260.6 118.3,260.5 118.4,260.5 118.5,260.5 118.5,260.4 118.5,260.3 
					118.5,260.3 118.5,260.2 118.4,260.2 118.2,260.3 118.1,260.3 118.1,260.1 118.1,259.9 118.2,259.9 118.3,259.9 118.3,259.8 
					118.4,259.8 118.4,259.7 118.4,259.5 118.4,259.5 118.3,259.5 118.2,259.4 118.1,259.5 118.1,259.5 118,259.5 117.9,259.5 
					117.8,259.4 117.8,259.3 117.7,259.3 117.7,259.2 117.7,259.1 117.6,259 117.7,259 117.8,258.8 117.9,258.7 118,258.7 
					118.1,258.7 118.3,258.7 118.3,258.6 118.4,258.5 118.5,258.4 118.5,258.3 118.5,258.2 				"/>
				<g>
					<path fill="#174F65" d="M473.1,537.8c-0.4,0-0.9-0.1-1.3-0.4l-11.4-7l-10-1.5l-1.9,0.8c-0.4,0.2-0.9,0.2-1.3,0.2l-6.6-1
						c-0.4-0.1-0.7-0.2-1-0.4l-8.4-5.5l-10-1.7c-0.2,0-0.3-0.1-0.5-0.1l-15.7-6.1c-0.5-0.2-0.9-0.5-1.2-1l-4.6-7.6
						c-0.1-0.2-0.2-0.4-0.3-0.7l-3-11.9l-5.8-3.1c-0.5-0.3-1-0.8-1.2-1.4l-1.5-4.5c-0.3-0.8-0.1-1.8,0.5-2.4l0.6-0.7l0.2-4.3
						l-1.1-0.5c-0.4-0.2-0.7-0.4-1-0.8l-1.4-1.9c-0.4-0.6-0.6-1.3-0.4-2l1.9-7.8l-2.3-2.9l-6-2c-0.4-0.1-0.8-0.4-1.1-0.7l-7.3-8.4
						c-0.1-0.1-0.2-0.2-0.2-0.3l-7.5-12.4l-8.2-4.5c-0.8-0.4-1.3-1.3-1.3-2.2l0.1-3.3l-11.8-23.7c-0.1-0.2-0.1-0.3-0.2-0.5l-1.9-7.7
						l-3.3-3.2c-0.4-0.4-0.6-0.8-0.7-1.4l-0.3-2l-11.9-9.6c-0.1-0.1-0.2-0.2-0.3-0.2l-5.5-5.9c-0.4-0.4-0.6-1-0.7-1.5l-0.1-1.1
						l-4-2.9l-13.1-1.5l-15-0.5c-0.4,0-0.9-0.2-1.3-0.4l-5.3-3.5l-7.7,3.5l-6.3,3l-3.6,5.8l-1.5,7.2c-0.1,0.3-0.2,0.6-0.3,0.8
						l-8.2,12.8c-0.1,0.1-0.2,0.2-0.2,0.3l-4.6,5.1c-0.6,0.7-1.6,1-2.6,0.7l-5.3-1.7c-0.2-0.1-0.3-0.1-0.5-0.2l-3.4-2l-3.7-1
						c-0.2,0-0.3-0.1-0.5-0.2l-8.1-4.2c-0.8-0.4-1.3-1.2-1.3-2l0-0.4l-2.7-2.7l-10.1-3.5c-0.3-0.1-0.6-0.3-0.9-0.5l-15.8-14.9
						c-0.2-0.2-0.3-0.4-0.5-0.6l-5-9.2c-0.2-0.3-0.3-0.7-0.3-1.1l-0.8-15.7l-6.9-12.2c-0.1-0.2-0.2-0.4-0.3-0.7l-1-4.4l-2.4-1.3
						c-0.4-0.2-0.7-0.5-0.9-0.9l-2-3.4l-9.5-3.4c-0.4-0.1-0.7-0.4-1-0.7l-2.7-3.1l-15.1-15.2c-0.2-0.2-0.4-0.4-0.5-0.7l-2.5-5.5
						l-8.8-3.7c-0.6-0.3-1.1-0.7-1.3-1.4l-3.2-8.2l-4.6-4.7l-3.2-0.6c-1-0.2-1.8-1-1.9-1.9l-1.8-9.3c-0.3-1.3,0.6-2.6,1.9-2.9
						c1.3-0.3,2.6,0.6,2.9,1.9l1.5,7.7l2.3,0.4c0.5,0.1,0.9,0.3,1.3,0.7l5.5,5.6c0.2,0.2,0.4,0.5,0.5,0.8l3,7.7l8.7,3.7
						c0.6,0.2,1,0.7,1.3,1.2l2.8,6l14.9,14.9c0,0,0.1,0.1,0.1,0.1l2.4,2.7l9.7,3.5c0.5,0.2,1,0.6,1.3,1l2.1,3.5l2.8,1.5
						c0.6,0.3,1.1,0.9,1.2,1.6l1.2,5.1l7,12.4c0.2,0.3,0.3,0.7,0.3,1.1l0.8,15.7l4.6,8.4l15.1,14.3l10.2,3.5
						c0.3,0.1,0.7,0.3,0.9,0.6l3.8,3.7c0.4,0.4,0.7,0.9,0.7,1.5l6.6,3.4l3.7,1c0.2,0.1,0.4,0.1,0.6,0.2l3.5,2l3.6,1.1l3.4-3.8
						l7.8-12.3l1.5-7.2c0.1-0.3,0.2-0.6,0.3-0.8l4.2-6.8c0.2-0.4,0.6-0.7,1-0.9l7-3.3l9-4.1c0.8-0.3,1.7-0.3,2.4,0.2l5.9,3.9
						l14.4,0.5c0.1,0,0.1,0,0.2,0l13.8,1.6c0.4,0,0.8,0.2,1.2,0.5l5.4,4c0.6,0.4,1,1.1,1,1.9l0.1,1.4l4.8,5.1l12.5,10
						c0.5,0.4,0.8,0.9,0.9,1.5l0.3,2.1l3.2,3.2c0.3,0.3,0.6,0.7,0.7,1.2l2,8.1l11.9,24c0.2,0.4,0.3,0.8,0.3,1.2l-0.1,2.4l7.4,4.1
						c0.4,0.2,0.7,0.5,0.9,0.9l7.7,12.8l6.7,7.8l6,2.1c0.4,0.2,0.8,0.4,1.1,0.8l3.5,4.4c0.5,0.6,0.6,1.4,0.5,2.1l-1.9,7.8l0.3,0.4
						l2.1,0.9c0.9,0.4,1.5,1.3,1.5,2.3l-0.3,6.9c0,0.6-0.2,1.1-0.6,1.5l-0.3,0.3l0.8,2.2l5.9,3.1c0.6,0.3,1.1,0.9,1.2,1.6l3.2,12.5
						l4,6.6l14.7,5.7l10.3,1.7c0.3,0.1,0.7,0.2,0.9,0.4l8.3,5.5l5.4,0.8l1.9-0.8c0.4-0.2,0.9-0.2,1.3-0.2l11.2,1.7
						c0.3,0,0.6,0.2,0.9,0.3l10.4,6.4l4.3-3l1.5-2.6c0.7-1.2,2.2-1.5,3.4-0.9c1.2,0.7,1.5,2.2,0.9,3.4l-1.8,3
						c-0.2,0.3-0.4,0.6-0.7,0.7l-6,4.2C474.1,537.6,473.6,537.8,473.1,537.8z"/>
				</g>
			</g>
		</g>
	</g>
	<g>
		<g>
			<path opacity="0.5" fill="#B4B4B4" d="M286.4,250.1l-0.2-0.3l-0.2-0.8l-1.1-1.7l-0.4-1.1l-0.8-1.2l-0.2-1.1l-0.3-2.6l-0.2-2.6
				l-0.3-2.8l-0.5-0.2l-0.9,0.3l-0.7-0.4l-0.8-0.3l-1-0.2l-0.8-0.4l-0.4-0.5l-0.5-0.1l-0.6,0.4l-1.2,0.1l-0.1-0.3l-0.2,0l-0.8,0.5
				l-0.5-0.2l-1.2,0.8l-0.6,0.2l-0.9-0.2l-0.9-0.3l-2.1,0.4l-0.7,0.1l-1.3-0.5L264,235l-0.9-0.3l-0.3-0.6l-2.2-0.3l-0.6-0.5
				l-1.1-0.1l-0.7-0.2l-1.2-0.2l-0.7-0.8l-0.5-0.1l-0.4,0.1l-0.5,0l-0.5-0.2l-1.2-1l0-0.6l-0.2-4.5l0.1-5.7h-14.9l0,4.6l-0.1,15
				l-0.3,6.4l-8.4-0.1l-7.3-0.3v0.1v0.2v0v0.2v0.1v0v0v0v0v0v0v0v0v0v0v0.1v0v0v0.1v0.2v0v0.1v0.1v0.1v0v0v0.3v0.1v0.1v0v0v0.1v0
				v0.1v0.1v0v0v0.1v0.2v0.1v0.3v0v0.1l0.4,0.2l0.4,0l0.1,0.2l0.4,0.7l2.1,2.1l0.4,0.4l1.4,0.5l0.1,0.1l0.3,0.4l0.5,0.2l0.2,0.7
				l1,1.7l0.1,2.2l0.7,1.3l2.1,2l0.3,0.1l0,0h0l0.1,0l0.1,0.1l0.5,0.4l0,0.5v0.2l1.6,0.6l0.8,0.1l0.6,0.3l0.8,0.2l0.7-0.7l1.1-1.7
				l0.2-1l0.6-0.9l1-0.4l1.2-0.5l0.9,0.6l2,0.1l1.9,0.2l0.7,0.5l0,0.3l0.8,0.8l1.7,1.4l0.1,0.4l0.5,0.5l0.3,1.1l1.6,3.3l0,0.6
				l0.3,0.2l0.9,0.4l1.1,1.7l1,1.1l0.9,0.3l0.5,0.6l-0.3,1.2l0.2,0.3l0.2,0.1l0,0l0.2,0.1l0,0.9l-0.2,0.2l0.2,0.6l0.9,0.5l0.4,1.8
				l0.1,0.2v0l0.5,0.8l2.1,0.8l0.7,0.1l0,0l0,0l0,0l0-0.1l0,0l0,0l0,0.1l0,0l0,0l0,0l0.7,0.1l1.2,0.8l0.9,0.1l0.3-0.2l1.5,0.2l1.6,1
				l0.8-0.6l0.2-0.4l-0.5-0.7l-0.4-1.7l-0.6-1.9l-0.3-0.7l0.2-1.2l0.3-1.1l0.3-1.3l0.3-1.5l-0.6-0.5l0.2-0.5l1.1-0.1l1-1.6l0.9-0.2
				l1.5-1.1l0.5-0.4l1.7-1l1.5-0.7l1.4-1l0.7-0.6l1.5-1.5l0.3-0.2l0.6-0.4l0.7-0.6l0.2-0.5l2.6-1.4l1.5-0.5l-0.2-1.2l0.3-0.8l0.1-2
				l0.1-0.7l-0.3-0.8l0.7-1.2L286.4,250.1z"/>
			<polygon fill="#282828" points="222.3,249.2 221.9,249.1 221.9,249 221.9,248.9 221.9,248.6 221.9,248.5 221.9,248.3 
				221.9,248.2 221.9,248.1 221.9,248.1 221.9,248 221.9,247.8 221.9,247.8 221.9,247.8 221.9,247.7 221.9,247.7 221.9,247.6 
				221.9,247.5 221.9,247.3 221.9,247.2 221.9,247.2 221.9,247.1 221.9,247 221.9,246.9 221.9,246.9 221.9,246.7 221.9,246.5 
				221.9,246.5 221.9,246.4 221.9,246.3 221.9,246.3 221.9,246.3 221.9,246.3 221.9,246.3 221.9,246.2 221.9,246.2 221.9,246.2 
				221.9,246.2 221.9,246.1 221.9,246.1 221.9,246.1 221.9,245.9 221.9,245.9 221.9,245.7 221.9,245.6 221.3,245.6 219.3,245.5 
				219.6,246.7 220.2,246.8 221,247.6 221.5,248.8 222.8,249.3 222.9,249.4 222.7,249.3 			"/>
		</g>
	</g>
	<g>
		<text transform="matrix(1 0 0 1 11.6957 195.31)" font-family="'HelveticaNeue'" font-size="23.3979">Vinton</text>
	</g>
	<g>
		<circle fill="#8ABABA" stroke="#212121" stroke-width="0.25" stroke-miterlimit="10" cx="14.7" cy="213.7" r="3"/>
		<g>
			<text transform="matrix(1 0 0 1 21.1529 217.5184)" font-family="'HelveticaNeue'" font-size="14">Hueco-Bolson aquifer</text>
		</g>
	</g>
</g>
<g id="Layer_2">
</g>
</svg>
