<?xml version="1.0" encoding="utf-8"?>
<!-- Generator: Adobe Illustrator 18.1.1, SVG Export Plug-In . SVG Version: 6.00 Build 0)  -->
<!DOCTYPE svg PUBLIC "-//W3C//DTD SVG 1.1//EN" "http://www.w3.org/Graphics/SVG/1.1/DTD/svg11.dtd">
<svg version="1.1" xmlns="http://www.w3.org/2000/svg" xmlns:xlink="http://www.w3.org/1999/xlink" x="0px" y="0px" width="184px"
	 height="94.7px" viewBox="0 0 184 94.7" enable-background="new 0 0 184 94.7" xml:space="preserve">
<g id="Layer_1">
	<g>
		<g>
			
				<line fill="none" stroke="#FFFCF8" stroke-width="4" stroke-linecap="round" stroke-linejoin="round" stroke-miterlimit="10" x1="2" y1="12" x2="182" y2="12"/>
			
				<line fill="none" stroke="#FFFCF8" stroke-width="4" stroke-linecap="round" stroke-linejoin="round" stroke-miterlimit="10" x1="2" y1="33" x2="182" y2="33"/>
			
				<line fill="none" stroke="#FFFCF8" stroke-width="4" stroke-linecap="round" stroke-linejoin="round" stroke-miterlimit="10" x1="2" y1="53" x2="182" y2="53"/>
		</g>
		
			<rect x="6.8" y="1.7" fill="#FFFCF8" stroke="#FFFCF8" stroke-width="2" stroke-linecap="round" stroke-linejoin="round" stroke-miterlimit="10" width="6.2" height="92"/>
		
			<rect x="171.8" y="1" fill="#FFFCF8" stroke="#FFFCF8" stroke-width="2" stroke-linecap="round" stroke-linejoin="round" stroke-miterlimit="10" width="6.2" height="92"/>
		<g>
			<g>
				<path fill="#8ABABA" d="M24.4,4.4c1,0,1.9,0.2,2.7,0.5s1.6,0.9,2.2,1.5c0.6,0.6,1.1,1.4,1.5,2.2c0.4,0.8,0.5,1.8,0.5,2.7
					s-0.2,1.9-0.5,2.7c-0.4,0.8-0.9,1.6-1.5,2.2c-0.6,0.6-1.4,1.1-2.2,1.5c-0.8,0.4-1.7,0.5-2.7,0.5s-1.9-0.2-2.7-0.5
					c-0.8-0.4-1.6-0.9-2.2-1.5c-0.6-0.6-1.1-1.4-1.5-2.2c-0.4-0.8-0.5-1.8-0.5-2.7s0.2-1.9,0.5-2.7c0.4-0.8,0.9-1.6,1.5-2.2
					c0.6-0.6,1.4-1.1,2.2-1.5C22.5,4.6,23.4,4.4,24.4,4.4z"/>
				<path fill="#8ABABA" d="M54.4,4.4c1,0,1.9,0.2,2.7,0.5s1.6,0.9,2.2,1.5c0.6,0.6,1.1,1.4,1.5,2.2c0.4,0.8,0.5,1.8,0.5,2.7
					s-0.2,1.9-0.5,2.7c-0.4,0.8-0.9,1.6-1.5,2.2c-0.6,0.6-1.4,1.1-2.2,1.5c-0.8,0.4-1.7,0.5-2.7,0.5s-1.9-0.2-2.7-0.5
					c-0.8-0.4-1.6-0.9-2.2-1.5c-0.6-0.6-1.1-1.4-1.5-2.2c-0.4-0.8-0.5-1.8-0.5-2.7s0.2-1.9,0.5-2.7c0.4-0.8,0.9-1.6,1.5-2.2
					c0.6-0.6,1.4-1.1,2.2-1.5C52.5,4.6,53.4,4.4,54.4,4.4z"/>
				<path fill="#8ABABA" d="M114.4,4.4c1,0,1.9,0.2,2.7,0.5s1.6,0.9,2.2,1.5c0.6,0.6,1.1,1.4,1.5,2.2c0.4,0.8,0.5,1.8,0.5,2.7
					s-0.2,1.9-0.5,2.7c-0.4,0.8-0.9,1.6-1.5,2.2c-0.6,0.6-1.4,1.1-2.2,1.5c-0.8,0.4-1.7,0.5-2.7,0.5s-1.9-0.2-2.7-0.5
					c-0.8-0.4-1.6-0.9-2.2-1.5c-0.6-0.6-1.1-1.4-1.5-2.2c-0.4-0.8-0.5-1.8-0.5-2.7s0.2-1.9,0.5-2.7c0.4-0.8,0.9-1.6,1.5-2.2
					c0.6-0.6,1.4-1.1,2.2-1.5C112.5,4.6,113.4,4.4,114.4,4.4z"/>
				<path fill="#8ABABA" d="M137.4,4.4c1,0,1.9,0.2,2.7,0.5s1.6,0.9,2.2,1.5c0.6,0.6,1.1,1.4,1.5,2.2c0.4,0.8,0.5,1.8,0.5,2.7
					s-0.2,1.9-0.5,2.7c-0.4,0.8-0.9,1.6-1.5,2.2c-0.6,0.6-1.4,1.1-2.2,1.5c-0.8,0.4-1.7,0.5-2.7,0.5s-1.9-0.2-2.7-0.5
					c-0.8-0.4-1.6-0.9-2.2-1.5c-0.6-0.6-1.1-1.4-1.5-2.2c-0.4-0.8-0.5-1.8-0.5-2.7s0.2-1.9,0.5-2.7c0.4-0.8,0.9-1.6,1.5-2.2
					c0.6-0.6,1.4-1.1,2.2-1.5C135.5,4.6,136.4,4.4,137.4,4.4z"/>
				<path fill="#8ABABA" d="M39.4,4.4c1,0,1.9,0.2,2.7,0.5s1.6,0.9,2.2,1.5c0.6,0.6,1.1,1.4,1.5,2.2c0.4,0.8,0.5,1.8,0.5,2.7
					s-0.2,1.9-0.5,2.7c-0.4,0.8-0.9,1.6-1.5,2.2c-0.6,0.6-1.4,1.1-2.2,1.5c-0.8,0.4-1.7,0.5-2.7,0.5s-1.9-0.2-2.7-0.5
					c-0.8-0.4-1.6-0.9-2.2-1.5c-0.6-0.6-1.1-1.4-1.5-2.2c-0.4-0.8-0.5-1.8-0.5-2.7s0.2-1.9,0.5-2.7c0.4-0.8,0.9-1.6,1.5-2.2
					c0.6-0.6,1.4-1.1,2.2-1.5C37.5,4.6,38.4,4.4,39.4,4.4z"/>
				<path fill="#8ABABA" d="M69.4,4.4c1,0,1.9,0.2,2.7,0.5s1.6,0.9,2.2,1.5c0.6,0.6,1.1,1.4,1.5,2.2c0.4,0.8,0.5,1.8,0.5,2.7
					s-0.2,1.9-0.5,2.7c-0.4,0.8-0.9,1.6-1.5,2.2c-0.6,0.6-1.4,1.1-2.2,1.5c-0.8,0.4-1.7,0.5-2.7,0.5s-1.9-0.2-2.7-0.5
					c-0.8-0.4-1.6-0.9-2.2-1.5c-0.6-0.6-1.1-1.4-1.5-2.2c-0.4-0.8-0.5-1.8-0.5-2.7s0.2-1.9,0.5-2.7c0.4-0.8,0.9-1.6,1.5-2.2
					c0.6-0.6,1.4-1.1,2.2-1.5C67.5,4.6,68.4,4.4,69.4,4.4z"/>
				<path fill="#8ABABA" d="M159.4,4.4c1,0,1.9,0.2,2.7,0.5s1.6,0.9,2.2,1.5c0.6,0.6,1.1,1.4,1.5,2.2c0.4,0.8,0.5,1.8,0.5,2.7
					s-0.2,1.9-0.5,2.7c-0.4,0.8-0.9,1.6-1.5,2.2c-0.6,0.6-1.4,1.1-2.2,1.5c-0.8,0.4-1.7,0.5-2.7,0.5c-1,0-1.9-0.2-2.7-0.5
					c-0.8-0.4-1.6-0.9-2.2-1.5c-0.6-0.6-1.1-1.4-1.5-2.2c-0.4-0.8-0.5-1.8-0.5-2.7s0.2-1.9,0.5-2.7c0.4-0.8,0.9-1.6,1.5-2.2
					c0.6-0.6,1.4-1.1,2.2-1.5C157.5,4.6,158.4,4.4,159.4,4.4z"/>
				<path fill="#8ABABA" d="M99.4,4.4c1,0,1.9,0.2,2.7,0.5s1.6,0.9,2.2,1.5c0.6,0.6,1.1,1.4,1.5,2.2c0.4,0.8,0.5,1.8,0.5,2.7
					s-0.2,1.9-0.5,2.7c-0.4,0.8-0.9,1.6-1.5,2.2c-0.6,0.6-1.4,1.1-2.2,1.5c-0.8,0.4-1.7,0.5-2.7,0.5s-1.9-0.2-2.7-0.5
					c-0.8-0.4-1.6-0.9-2.2-1.5c-0.6-0.6-1.1-1.4-1.5-2.2c-0.4-0.8-0.5-1.8-0.5-2.7s0.2-1.9,0.5-2.7c0.4-0.8,0.9-1.6,1.5-2.2
					c0.6-0.6,1.4-1.1,2.2-1.5C97.5,4.6,98.4,4.4,99.4,4.4z"/>
			</g>
			<g>
				<path fill="#8ABABA" d="M24.4,24.9c1,0,1.9,0.2,2.7,0.5c0.8,0.4,1.6,0.9,2.2,1.5c0.6,0.6,1.1,1.4,1.5,2.2
					c0.4,0.8,0.5,1.8,0.5,2.7c0,1-0.2,1.9-0.5,2.7c-0.4,0.8-0.9,1.6-1.5,2.2c-0.6,0.6-1.4,1.1-2.2,1.5c-0.8,0.4-1.7,0.5-2.7,0.5
					s-1.9-0.2-2.7-0.5c-0.8-0.4-1.6-0.9-2.2-1.5c-0.6-0.6-1.1-1.4-1.5-2.2c-0.4-0.8-0.5-1.8-0.5-2.7c0-1,0.2-1.9,0.5-2.7
					c0.4-0.8,0.9-1.6,1.5-2.2c0.6-0.6,1.4-1.1,2.2-1.5C22.5,25.1,23.4,24.9,24.4,24.9z"/>
				<path fill="#8ABABA" d="M114.4,24.9c1,0,1.9,0.2,2.7,0.5c0.8,0.4,1.6,0.9,2.2,1.5c0.6,0.6,1.1,1.4,1.5,2.2
					c0.4,0.8,0.5,1.8,0.5,2.7c0,1-0.2,1.9-0.5,2.7c-0.4,0.8-0.9,1.6-1.5,2.2c-0.6,0.6-1.4,1.1-2.2,1.5c-0.8,0.4-1.7,0.5-2.7,0.5
					s-1.9-0.2-2.7-0.5c-0.8-0.4-1.6-0.9-2.2-1.5c-0.6-0.6-1.1-1.4-1.5-2.2c-0.4-0.8-0.5-1.8-0.5-2.7c0-1,0.2-1.9,0.5-2.7
					c0.4-0.8,0.9-1.6,1.5-2.2c0.6-0.6,1.4-1.1,2.2-1.5C112.5,25.1,113.4,24.9,114.4,24.9z"/>
				<path fill="#8ABABA" d="M144.4,24.9c1,0,1.9,0.2,2.7,0.5c0.8,0.4,1.6,0.9,2.2,1.5c0.6,0.6,1.1,1.4,1.5,2.2
					c0.4,0.8,0.5,1.8,0.5,2.7c0,1-0.2,1.9-0.5,2.7c-0.4,0.8-0.9,1.6-1.5,2.2c-0.6,0.6-1.4,1.1-2.2,1.5c-0.8,0.4-1.7,0.5-2.7,0.5
					s-1.9-0.2-2.7-0.5c-0.8-0.4-1.6-0.9-2.2-1.5c-0.6-0.6-1.1-1.4-1.5-2.2c-0.4-0.8-0.5-1.8-0.5-2.7c0-1,0.2-1.9,0.5-2.7
					c0.4-0.8,0.9-1.6,1.5-2.2c0.6-0.6,1.4-1.1,2.2-1.5C142.5,25.1,143.4,24.9,144.4,24.9z"/>
				<path fill="#8ABABA" d="M84.4,24.9c1,0,1.9,0.2,2.7,0.5c0.8,0.4,1.6,0.9,2.2,1.5c0.6,0.6,1.1,1.4,1.5,2.2
					c0.4,0.8,0.5,1.8,0.5,2.7c0,1-0.2,1.9-0.5,2.7c-0.4,0.8-0.9,1.6-1.5,2.2c-0.6,0.6-1.4,1.1-2.2,1.5c-0.8,0.4-1.7,0.5-2.7,0.5
					s-1.9-0.2-2.7-0.5c-0.8-0.4-1.6-0.9-2.2-1.5c-0.6-0.6-1.1-1.4-1.5-2.2c-0.4-0.8-0.5-1.8-0.5-2.7c0-1,0.2-1.9,0.5-2.7
					c0.4-0.8,0.9-1.6,1.5-2.2c0.6-0.6,1.4-1.1,2.2-1.5C82.5,25.1,83.4,24.9,84.4,24.9z"/>
				<path fill="#8ABABA" d="M39.4,24.9c1,0,1.9,0.2,2.7,0.5c0.8,0.4,1.6,0.9,2.2,1.5c0.6,0.6,1.1,1.4,1.5,2.2
					c0.4,0.8,0.5,1.8,0.5,2.7c0,1-0.2,1.9-0.5,2.7c-0.4,0.8-0.9,1.6-1.5,2.2c-0.6,0.6-1.4,1.1-2.2,1.5c-0.8,0.4-1.7,0.5-2.7,0.5
					s-1.9-0.2-2.7-0.5c-0.8-0.4-1.6-0.9-2.2-1.5c-0.6-0.6-1.1-1.4-1.5-2.2c-0.4-0.8-0.5-1.8-0.5-2.7c0-1,0.2-1.9,0.5-2.7
					c0.4-0.8,0.9-1.6,1.5-2.2c0.6-0.6,1.4-1.1,2.2-1.5C37.5,25.1,38.4,24.9,39.4,24.9z"/>
				<path fill="#8ABABA" d="M129.4,24.9c1,0,1.9,0.2,2.7,0.5c0.8,0.4,1.6,0.9,2.2,1.5c0.6,0.6,1.1,1.4,1.5,2.2
					c0.4,0.8,0.5,1.8,0.5,2.7c0,1-0.2,1.9-0.5,2.7c-0.4,0.8-0.9,1.6-1.5,2.2c-0.6,0.6-1.4,1.1-2.2,1.5c-0.8,0.4-1.7,0.5-2.7,0.5
					c-1,0-1.9-0.2-2.7-0.5c-0.8-0.4-1.6-0.9-2.2-1.5c-0.6-0.6-1.1-1.4-1.5-2.2c-0.4-0.8-0.5-1.8-0.5-2.7c0-1,0.2-1.9,0.5-2.7
					c0.4-0.8,0.9-1.6,1.5-2.2c0.6-0.6,1.4-1.1,2.2-1.5C127.5,25.1,128.4,24.9,129.4,24.9z"/>
				<path fill="#8ABABA" d="M159.4,24.9c1,0,1.9,0.2,2.7,0.5c0.8,0.4,1.6,0.9,2.2,1.5c0.6,0.6,1.1,1.4,1.5,2.2
					c0.4,0.8,0.5,1.8,0.5,2.7c0,1-0.2,1.9-0.5,2.7c-0.4,0.8-0.9,1.6-1.5,2.2c-0.6,0.6-1.4,1.1-2.2,1.5c-0.8,0.4-1.7,0.5-2.7,0.5
					c-1,0-1.9-0.2-2.7-0.5c-0.8-0.4-1.6-0.9-2.2-1.5c-0.6-0.6-1.1-1.4-1.5-2.2c-0.4-0.8-0.5-1.8-0.5-2.7c0-1,0.2-1.9,0.5-2.7
					c0.4-0.8,0.9-1.6,1.5-2.2c0.6-0.6,1.4-1.1,2.2-1.5C157.5,25.1,158.4,24.9,159.4,24.9z"/>
				<path fill="#8ABABA" d="M99.4,24.9c1,0,1.9,0.2,2.7,0.5c0.8,0.4,1.6,0.9,2.2,1.5c0.6,0.6,1.1,1.4,1.5,2.2
					c0.4,0.8,0.5,1.8,0.5,2.7c0,1-0.2,1.9-0.5,2.7c-0.4,0.8-0.9,1.6-1.5,2.2c-0.6,0.6-1.4,1.1-2.2,1.5c-0.8,0.4-1.7,0.5-2.7,0.5
					s-1.9-0.2-2.7-0.5c-0.8-0.4-1.6-0.9-2.2-1.5c-0.6-0.6-1.1-1.4-1.5-2.2c-0.4-0.8-0.5-1.8-0.5-2.7c0-1,0.2-1.9,0.5-2.7
					c0.4-0.8,0.9-1.6,1.5-2.2c0.6-0.6,1.4-1.1,2.2-1.5C97.5,25.1,98.4,24.9,99.4,24.9z"/>
			</g>
			<g>
				<path fill="#8ABABA" d="M24.4,45.4c1,0,1.9,0.2,2.7,0.5c0.8,0.4,1.6,0.9,2.2,1.5c0.6,0.6,1.1,1.4,1.5,2.2
					c0.4,0.8,0.5,1.8,0.5,2.7s-0.2,1.9-0.5,2.7c-0.4,0.8-0.9,1.6-1.5,2.2c-0.6,0.6-1.4,1.1-2.2,1.5c-0.8,0.4-1.7,0.5-2.7,0.5
					s-1.9-0.2-2.7-0.5c-0.8-0.4-1.6-0.9-2.2-1.5c-0.6-0.6-1.1-1.4-1.5-2.2c-0.4-0.8-0.5-1.8-0.5-2.7s0.2-1.9,0.5-2.7
					c0.4-0.8,0.9-1.6,1.5-2.2c0.6-0.6,1.4-1.1,2.2-1.5C22.5,45.6,23.4,45.4,24.4,45.4z"/>
				<path fill="#8ABABA" d="M54.4,45.4c1,0,1.9,0.2,2.7,0.5c0.8,0.4,1.6,0.9,2.2,1.5c0.6,0.6,1.1,1.4,1.5,2.2
					c0.4,0.8,0.5,1.8,0.5,2.7s-0.2,1.9-0.5,2.7c-0.4,0.8-0.9,1.6-1.5,2.2c-0.6,0.6-1.4,1.1-2.2,1.5c-0.8,0.4-1.7,0.5-2.7,0.5
					s-1.9-0.2-2.7-0.5c-0.8-0.4-1.6-0.9-2.2-1.5c-0.6-0.6-1.1-1.4-1.5-2.2c-0.4-0.8-0.5-1.8-0.5-2.7s0.2-1.9,0.5-2.7
					c0.4-0.8,0.9-1.6,1.5-2.2c0.6-0.6,1.4-1.1,2.2-1.5C52.5,45.6,53.4,45.4,54.4,45.4z"/>
				<path fill="#8ABABA" d="M114.4,45.4c1,0,1.9,0.2,2.7,0.5c0.8,0.4,1.6,0.9,2.2,1.5c0.6,0.6,1.1,1.4,1.5,2.2
					c0.4,0.8,0.5,1.8,0.5,2.7s-0.2,1.9-0.5,2.7c-0.4,0.8-0.9,1.6-1.5,2.2c-0.6,0.6-1.4,1.1-2.2,1.5c-0.8,0.4-1.7,0.5-2.7,0.5
					s-1.9-0.2-2.7-0.5c-0.8-0.4-1.6-0.9-2.2-1.5c-0.6-0.6-1.1-1.4-1.5-2.2c-0.4-0.8-0.5-1.8-0.5-2.7s0.2-1.9,0.5-2.7
					c0.4-0.8,0.9-1.6,1.5-2.2c0.6-0.6,1.4-1.1,2.2-1.5C112.5,45.6,113.4,45.4,114.4,45.4z"/>
				<path fill="#8ABABA" d="M84.4,45.4c1,0,1.9,0.2,2.7,0.5c0.8,0.4,1.6,0.9,2.2,1.5c0.6,0.6,1.1,1.4,1.5,2.2
					c0.4,0.8,0.5,1.8,0.5,2.7s-0.2,1.9-0.5,2.7c-0.4,0.8-0.9,1.6-1.5,2.2c-0.6,0.6-1.4,1.1-2.2,1.5c-0.8,0.4-1.7,0.5-2.7,0.5
					s-1.9-0.2-2.7-0.5c-0.8-0.4-1.6-0.9-2.2-1.5c-0.6-0.6-1.1-1.4-1.5-2.2c-0.4-0.8-0.5-1.8-0.5-2.7s0.2-1.9,0.5-2.7
					c0.4-0.8,0.9-1.6,1.5-2.2c0.6-0.6,1.4-1.1,2.2-1.5C82.5,45.6,83.4,45.4,84.4,45.4z"/>
				<path fill="#8ABABA" d="M39.4,45.4c1,0,1.9,0.2,2.7,0.5c0.8,0.4,1.6,0.9,2.2,1.5c0.6,0.6,1.1,1.4,1.5,2.2
					c0.4,0.8,0.5,1.8,0.5,2.7s-0.2,1.9-0.5,2.7c-0.4,0.8-0.9,1.6-1.5,2.2c-0.6,0.6-1.4,1.1-2.2,1.5c-0.8,0.4-1.7,0.5-2.7,0.5
					s-1.9-0.2-2.7-0.5c-0.8-0.4-1.6-0.9-2.2-1.5c-0.6-0.6-1.1-1.4-1.5-2.2c-0.4-0.8-0.5-1.8-0.5-2.7s0.2-1.9,0.5-2.7
					c0.4-0.8,0.9-1.6,1.5-2.2c0.6-0.6,1.4-1.1,2.2-1.5C37.5,45.6,38.4,45.4,39.4,45.4z"/>
				<path fill="#8ABABA" d="M69.4,45.4c1,0,1.9,0.2,2.7,0.5c0.8,0.4,1.6,0.9,2.2,1.5c0.6,0.6,1.1,1.4,1.5,2.2
					c0.4,0.8,0.5,1.8,0.5,2.7s-0.2,1.9-0.5,2.7c-0.4,0.8-0.9,1.6-1.5,2.2c-0.6,0.6-1.4,1.1-2.2,1.5c-0.8,0.4-1.7,0.5-2.7,0.5
					s-1.9-0.2-2.7-0.5c-0.8-0.4-1.6-0.9-2.2-1.5c-0.6-0.6-1.1-1.4-1.5-2.2c-0.4-0.8-0.5-1.8-0.5-2.7s0.2-1.9,0.5-2.7
					c0.4-0.8,0.9-1.6,1.5-2.2c0.6-0.6,1.4-1.1,2.2-1.5C67.5,45.6,68.4,45.4,69.4,45.4z"/>
				<path fill="#8ABABA" d="M129.4,45.4c1,0,1.9,0.2,2.7,0.5c0.8,0.4,1.6,0.9,2.2,1.5c0.6,0.6,1.1,1.4,1.5,2.2
					c0.4,0.8,0.5,1.8,0.5,2.7s-0.2,1.9-0.5,2.7c-0.4,0.8-0.9,1.6-1.5,2.2c-0.6,0.6-1.4,1.1-2.2,1.5c-0.8,0.4-1.7,0.5-2.7,0.5
					c-1,0-1.9-0.2-2.7-0.5c-0.8-0.4-1.6-0.9-2.2-1.5c-0.6-0.6-1.1-1.4-1.5-2.2c-0.4-0.8-0.5-1.8-0.5-2.7s0.2-1.9,0.5-2.7
					c0.4-0.8,0.9-1.6,1.5-2.2c0.6-0.6,1.4-1.1,2.2-1.5C127.5,45.6,128.4,45.4,129.4,45.4z"/>
				<path fill="#8ABABA" d="M159.4,45.4c1,0,1.9,0.2,2.7,0.5c0.8,0.4,1.6,0.9,2.2,1.5c0.6,0.6,1.1,1.4,1.5,2.2
					c0.4,0.8,0.5,1.8,0.5,2.7s-0.2,1.9-0.5,2.7c-0.4,0.8-0.9,1.6-1.5,2.2c-0.6,0.6-1.4,1.1-2.2,1.5c-0.8,0.4-1.7,0.5-2.7,0.5
					c-1,0-1.9-0.2-2.7-0.5c-0.8-0.4-1.6-0.9-2.2-1.5c-0.6-0.6-1.1-1.4-1.5-2.2c-0.4-0.8-0.5-1.8-0.5-2.7s0.2-1.9,0.5-2.7
					c0.4-0.8,0.9-1.6,1.5-2.2c0.6-0.6,1.4-1.1,2.2-1.5C157.5,45.6,158.4,45.4,159.4,45.4z"/>
			</g>
		</g>
	</g>
</g>
<g id="Layer_2" display="none">
</g>
</svg>
