<?xml version="1.0" encoding="utf-8"?>
<!-- Generator: Adobe Illustrator 18.1.1, SVG Export Plug-In . SVG Version: 6.00 Build 0)  -->
<!DOCTYPE svg PUBLIC "-//W3C//DTD SVG 1.1//EN" "http://www.w3.org/Graphics/SVG/1.1/DTD/svg11.dtd">
<svg version="1.1" id="Layer_1" xmlns="http://www.w3.org/2000/svg" xmlns:xlink="http://www.w3.org/1999/xlink" x="0px" y="0px"
	 width="305px" height="305px" viewBox="0 0 305 305" enable-background="new 0 0 305 305" xml:space="preserve">
<g>
	<path fill="none" stroke="#8ABABA" stroke-width="5" stroke-miterlimit="10" d="M297.5,302.5H7.5c-2.8,0-5-2.2-5-5V7.5
		c0-2.8,2.2-5,5-5h290c2.8,0,5,2.2,5,5v290C302.5,300.3,300.3,302.5,297.5,302.5z"/>
	<g>
		<path fill="#E8513A" d="M125.5,68.2l42.7,123.1H134l-7.1-23.6H85.4l-6.9,23.6H45.2L87.9,68.2H125.5z M93.5,141.2h25.3l-12.6-42.4
			L93.5,141.2z"/>
		<path fill="#E8513A" d="M201.9,162.3c0.7,3.6,2.3,6,4.8,7.3c2.5,1.3,5.7,2,9.7,2c4,0,6.9-0.6,8.6-1.7c1.7-1.1,2.6-2.9,2.6-5.3
			c0-1.8-0.6-3.3-1.8-4.5c-1.2-1.1-3.5-2-7-2.6l-10.5-1.7c-11.7-2-20.3-5.2-25.8-9.7c-5.5-4.5-8.2-10.7-8.2-18.6
			c0-9.7,3.5-17,10.6-22c7.1-5,17-7.5,29.9-7.5c7.2,0,13.4,0.7,18.4,2.2c5.1,1.5,9.2,3.5,12.5,6.1c3.3,2.6,5.8,5.5,7.5,8.9
			c1.7,3.3,2.9,6.8,3.6,10.3l-28.8,2.9c-0.7-3.1-2-5.4-4-7c-2-1.6-5.1-2.3-9.3-2.3c-4,0-6.9,0.7-8.6,2c-1.7,1.3-2.6,3-2.6,4.9
			c0,1.8,0.7,3.3,2.2,4.3c1.4,1,4.2,1.9,8.2,2.6l10.3,1.9c6.4,1.1,11.8,2.6,16.1,4.3c4.3,1.7,7.8,3.7,10.3,6c2.6,2.3,4.4,5,5.5,8
			c1.1,3,1.6,6.5,1.6,10.3c0,10.1-3.4,17.7-10.2,22.8c-6.8,5.1-17.1,7.7-31,7.7c-5.5,0-10.9-0.5-16-1.5c-5.2-1-9.8-2.7-13.9-5.1
			c-4.1-2.4-7.4-5.7-10-9.7c-2.6-4.1-4.1-9.2-4.4-15.4H201.9z"/>
	</g>
	<g>
		<path fill="#174F65" d="M30.7,223.9h4.4l8.2,22h-4.9l-1.8-5.1H29l-1.8,5.1h-4.7L30.7,223.9z M35.5,237l-2.7-7.9l-2.6,7.9H35.5z"/>
		<path fill="#174F65" d="M45.9,229.8H50v2.2c0.5-0.8,1.2-1.5,1.9-1.9c0.8-0.4,1.6-0.6,2.4-0.6c0.4,0,0.7,0,1,0
			c0.3,0,0.5,0.1,0.7,0.1l-0.5,3.9c-0.5-0.1-1.1-0.2-1.8-0.2c-0.5,0-0.9,0.1-1.4,0.2s-0.8,0.3-1.2,0.6c-0.4,0.3-0.6,0.7-0.8,1.1
			c-0.2,0.4-0.3,0.8-0.3,1.3v9.3h-4.3V229.8z"/>
		<path fill="#174F65" d="M62,240.7c0.1,0.9,0.5,1.6,1.1,1.8c0.6,0.3,1.4,0.4,2.2,0.4c1,0,1.8-0.1,2.2-0.4c0.4-0.3,0.7-0.7,0.7-1.2
			c0-0.4-0.1-0.8-0.4-1.1c-0.3-0.3-0.8-0.5-1.6-0.6l-2.2-0.4c-1.9-0.3-3.4-0.8-4.4-1.6c-1-0.7-1.4-1.9-1.4-3.4
			c0-0.8,0.2-1.5,0.5-2.1c0.3-0.6,0.8-1.1,1.4-1.6c0.6-0.4,1.3-0.8,2.2-1c0.9-0.2,1.8-0.4,2.8-0.4c1.3,0,2.3,0.1,3.2,0.4
			s1.6,0.6,2.1,1c0.5,0.4,1,0.9,1.2,1.5c0.3,0.6,0.5,1.2,0.6,1.9l-3.8,0.5c-0.2-0.7-0.5-1.3-1-1.6s-1.2-0.5-2.2-0.5
			c-0.6,0-1.1,0-1.4,0.1c-0.4,0.1-0.7,0.2-0.9,0.4c-0.2,0.1-0.4,0.3-0.5,0.5c-0.1,0.2-0.1,0.4-0.1,0.5c0,0.5,0.2,0.9,0.5,1.1
			s0.9,0.4,1.9,0.6l2,0.3c1.1,0.2,2.1,0.4,2.8,0.7c0.7,0.3,1.3,0.6,1.8,1.1c0.4,0.4,0.7,0.9,0.9,1.5c0.2,0.6,0.3,1.2,0.3,2
			c0,1.5-0.6,2.7-1.7,3.6c-1.1,0.9-2.9,1.4-5.3,1.4c-1,0-1.9-0.1-2.8-0.3c-0.9-0.2-1.7-0.5-2.3-0.9c-0.7-0.4-1.3-1-1.7-1.7
			c-0.4-0.7-0.7-1.6-0.8-2.7H62z"/>
		<path fill="#174F65" d="M90.1,240.8c-0.3,1.8-1,3.2-2.2,4.1c-1.2,0.9-2.8,1.4-5.1,1.4c-2.7,0-4.7-0.7-6-2.2c-1.3-1.5-2-3.6-2-6.3
			c0-1.4,0.2-2.6,0.6-3.6c0.4-1.1,0.9-2,1.6-2.7c0.7-0.7,1.6-1.3,2.5-1.7c1-0.4,2.1-0.6,3.3-0.6c2.5,0,4.3,0.7,5.6,2.1
			c1.2,1.4,1.9,3.3,1.9,5.7v1.7H79.2c0,1.3,0.4,2.3,1,3c0.6,0.7,1.5,1.1,2.8,1.1c1.7,0,2.7-0.7,3-2.2H90.1z M86.2,236
			c0-1.1-0.3-2-0.8-2.6c-0.5-0.6-1.4-0.9-2.5-0.9c-0.6,0-1.1,0.1-1.5,0.3c-0.4,0.2-0.8,0.4-1.1,0.8c-0.3,0.3-0.5,0.7-0.7,1.1
			c-0.2,0.4-0.3,0.9-0.3,1.4H86.2z"/>
		<path fill="#174F65" d="M93.7,229.8h4.2v2.2c0.6-0.9,1.4-1.6,2.3-2.1c0.9-0.4,1.8-0.6,2.7-0.6c1.8,0,3.2,0.5,4.1,1.4
			c0.9,1,1.3,2.5,1.3,4.5v10.6h-4.3v-10c0-1.1-0.2-1.9-0.6-2.3c-0.4-0.4-1-0.6-1.7-0.6c-0.6,0-1,0.1-1.4,0.2s-0.8,0.4-1.1,0.7
			c-0.3,0.3-0.5,0.6-0.7,1c-0.2,0.4-0.3,0.8-0.3,1.3v9.7h-4.3V229.8z"/>
		<path fill="#174F65" d="M112,223.9h4.4v3.9H112V223.9z M112,229.8h4.3v16.1H112V229.8z"/>
		<path fill="#174F65" d="M134.6,240c-0.2,1.9-0.8,3.5-2,4.6c-1.2,1.1-2.9,1.7-5.2,1.7c-1.4,0-2.5-0.2-3.5-0.6c-1-0.4-1.8-1-2.4-1.7
			c-0.6-0.7-1.1-1.6-1.4-2.7c-0.3-1-0.5-2.2-0.5-3.5c0-1.3,0.2-2.4,0.5-3.5c0.4-1.1,0.9-2,1.6-2.7c0.7-0.7,1.5-1.3,2.5-1.7
			c1-0.4,2.1-0.6,3.4-0.6c1.1,0,2,0.1,2.8,0.4c0.8,0.3,1.5,0.7,2,1.2c0.6,0.5,1,1.1,1.3,1.8c0.3,0.7,0.5,1.4,0.6,2.3l-4.3,0.6
			c-0.1-0.8-0.3-1.5-0.7-2c-0.4-0.5-1-0.8-1.9-0.8c-0.7,0-1.2,0.1-1.6,0.4c-0.4,0.3-0.8,0.7-1,1.1c-0.3,0.5-0.4,1-0.5,1.6
			s-0.2,1.2-0.2,1.9c0,0.7,0.1,1.3,0.2,1.9s0.3,1.2,0.5,1.6c0.2,0.5,0.6,0.8,1,1.1c0.4,0.3,1,0.4,1.6,0.4c0.9,0,1.5-0.2,2-0.7
			s0.7-1.2,0.8-2.1H134.6z"/>
		<path fill="#174F65" d="M27.4,278.8c1-3.3,2.1-6.5,3.4-9.7C32,266,33.4,263,35,260H23.5v-2.5H38v2.3c-1.6,3-3.1,6.1-4.4,9.2
			c-1.3,3.1-2.4,6.4-3.3,9.8H27.4z"/>
		<path fill="#174F65" d="M38.9,271.5l10.1-14h2.6v13.8h2.9l-0.4,2.2h-2.6v5.3H49v-5.3H38.9V271.5z M49,271.3v-10.2l-7.4,10.2
			L49,271.3z"/>
		<path fill="#174F65" d="M57.7,275.2h3.1v3.6h-3.1V275.2z"/>
		<path fill="#174F65" d="M67.5,274.1c0.2,1,0.6,1.8,1.2,2.3c0.6,0.5,1.5,0.7,2.7,0.7c0.8,0,1.5-0.2,2.2-0.5
			c0.6-0.3,1.1-0.8,1.6-1.5c0.4-0.7,0.7-1.6,0.9-2.7c0.2-1.1,0.3-2.4,0.3-4c-1.3,1.9-3.1,2.8-5.5,2.8c-1.1,0-2.1-0.2-2.9-0.5
			c-0.8-0.4-1.5-0.9-2-1.5c-0.5-0.6-0.9-1.4-1.2-2.2c-0.2-0.9-0.4-1.8-0.4-2.8c0-1.1,0.2-2,0.5-2.9c0.3-0.9,0.8-1.7,1.5-2.3
			c0.6-0.6,1.4-1.1,2.3-1.5c0.9-0.3,1.9-0.5,3-0.5c1.5,0,2.7,0.3,3.6,0.9s1.7,1.4,2.2,2.3c0.6,1,0.9,2.1,1.2,3.3
			c0.2,1.2,0.3,2.4,0.3,3.6c0,1.7-0.1,3.3-0.3,4.8c-0.2,1.5-0.6,2.8-1.2,3.9c-0.6,1.1-1.3,2-2.3,2.6s-2.2,1-3.8,1
			c-2,0-3.5-0.4-4.7-1.3c-1.1-0.8-1.8-2.2-2-4H67.5z M71.4,269c1.4,0,2.5-0.4,3.4-1.2s1.3-2,1.3-3.6c0-0.6-0.1-1.2-0.3-1.8
			c-0.2-0.6-0.4-1.1-0.8-1.6c-0.4-0.5-0.8-0.8-1.4-1.1c-0.6-0.3-1.2-0.4-1.9-0.4c-1.4,0-2.5,0.4-3.4,1.3c-0.8,0.9-1.2,2.1-1.2,3.6
			c0,0.7,0.1,1.3,0.2,1.9c0.1,0.6,0.4,1.1,0.7,1.5c0.3,0.4,0.8,0.8,1.3,1C69.9,268.9,70.6,269,71.4,269z"/>
		<path fill="#174F65" d="M82.6,276.6c0.8-0.7,1.6-1.4,2.5-2.2s1.8-1.6,2.7-2.4c1-0.9,1.8-1.6,2.6-2.3c0.7-0.7,1.4-1.4,1.8-2
			c0.5-0.7,0.9-1.3,1.1-2c0.2-0.7,0.4-1.4,0.4-2.2c0-1.3-0.3-2.3-1-3c-0.7-0.7-1.7-1-2.9-1c-0.8,0-1.4,0.1-1.9,0.2
			c-0.5,0.2-1,0.4-1.4,0.7c-0.4,0.3-0.7,0.7-0.9,1.2c-0.2,0.5-0.4,1-0.6,1.7l-2.6-0.4c0.2-0.7,0.4-1.5,0.8-2.2
			c0.3-0.7,0.8-1.3,1.4-1.9c0.6-0.6,1.3-1,2.2-1.3c0.9-0.3,1.9-0.5,3.2-0.5c1.1,0,2.1,0.2,2.9,0.5c0.8,0.3,1.5,0.7,2.1,1.3
			c0.6,0.5,1,1.2,1.3,2c0.3,0.8,0.5,1.6,0.5,2.5c0,0.9-0.1,1.8-0.4,2.6s-0.7,1.6-1.2,2.4c-0.5,0.8-1.2,1.6-2,2.4
			c-0.8,0.8-1.8,1.7-2.9,2.7c-0.6,0.5-1.2,1-1.8,1.6c-0.6,0.5-1.2,1.1-1.8,1.6h10.4l-0.4,2.5H82.6V276.6z"/>
		<path fill="#174F65" d="M106.9,260.5l-4.9,3l-1.2-2l6.3-3.9h2.5v21.3h-2.8V260.5z"/>
		<path fill="#174F65" d="M127.9,262.2c-0.2-0.5-0.3-0.9-0.5-1.3c-0.2-0.4-0.4-0.7-0.7-0.9c-0.3-0.2-0.7-0.4-1.1-0.5
			c-0.4-0.1-0.9-0.2-1.5-0.2c-0.8,0-1.5,0.1-2.1,0.4c-0.6,0.3-1.2,0.8-1.6,1.5c-0.5,0.7-0.8,1.6-1.1,2.7c-0.3,1.1-0.4,2.5-0.5,4.1
			c0.7-1,1.4-1.7,2.4-2.1c0.9-0.4,2-0.7,3.2-0.7c1.1,0,2.1,0.2,2.9,0.5c0.8,0.4,1.5,0.9,2,1.5c0.5,0.6,0.9,1.4,1.2,2.2
			c0.2,0.9,0.4,1.8,0.4,2.8c0,1.1-0.2,2.1-0.5,3c-0.3,0.9-0.8,1.6-1.5,2.3c-0.6,0.6-1.4,1.1-2.3,1.5c-0.9,0.4-1.9,0.5-3,0.5
			c-1.5,0-2.7-0.3-3.7-0.9c-1-0.6-1.7-1.3-2.3-2.3c-0.6-0.9-0.9-2-1.2-3.1c-0.2-1.2-0.3-2.3-0.3-3.5c0-2.5,0.2-4.5,0.7-6.2
			c0.5-1.6,1-2.9,1.8-3.9c0.7-1,1.6-1.6,2.6-2c1-0.4,2-0.6,3-0.6c1.9,0,3.4,0.4,4.4,1.2s1.6,2,1.9,3.6L127.9,262.2z M123.4,277.2
			c1.4,0,2.5-0.4,3.4-1.3c0.8-0.9,1.3-2.1,1.3-3.6c0-0.7-0.1-1.3-0.2-1.9c-0.2-0.6-0.4-1.1-0.7-1.6c-0.3-0.4-0.8-0.8-1.3-1
			s-1.2-0.4-2-0.4c-0.6,0-1.2,0.1-1.8,0.3c-0.6,0.2-1.1,0.5-1.5,0.8c-0.4,0.4-0.8,0.9-1.1,1.5c-0.3,0.6-0.4,1.3-0.4,2.2
			c0,0.7,0.1,1.4,0.3,2c0.2,0.6,0.5,1.2,0.9,1.6c0.4,0.5,0.9,0.8,1.4,1.1C122.1,277,122.7,277.2,123.4,277.2z"/>
		<path fill="#174F65" d="M141.6,279.4c-2.4,0-4.3-0.9-5.7-2.7c-1.4-1.8-2-4.6-2-8.5c0-1.9,0.2-3.6,0.6-5c0.4-1.4,0.9-2.6,1.6-3.5
			c0.7-0.9,1.5-1.6,2.5-2c1-0.4,2.1-0.7,3.3-0.7s2.3,0.2,3.2,0.7c1,0.4,1.8,1.1,2.4,2c0.7,0.9,1.2,2.1,1.5,3.5
			c0.3,1.4,0.5,3.1,0.5,5c0,1.9-0.2,3.6-0.5,5c-0.3,1.4-0.9,2.6-1.5,3.5c-0.7,0.9-1.5,1.6-2.5,2
			C143.9,279.2,142.8,279.4,141.6,279.4z M141.6,277c0.9,0,1.7-0.2,2.3-0.6c0.6-0.4,1.1-1,1.5-1.7c0.4-0.7,0.7-1.7,0.8-2.7
			c0.2-1.1,0.3-2.3,0.3-3.7s-0.1-2.6-0.3-3.7c-0.2-1.1-0.5-2-0.8-2.8c-0.4-0.8-0.9-1.3-1.5-1.7c-0.6-0.4-1.4-0.6-2.3-0.6
			c-0.9,0-1.7,0.2-2.3,0.6s-1.1,1-1.5,1.7c-0.4,0.8-0.7,1.7-0.8,2.8c-0.2,1.1-0.3,2.3-0.3,3.7s0.1,2.6,0.3,3.7
			c0.2,1.1,0.5,2,0.8,2.7c0.4,0.7,0.9,1.3,1.5,1.7S140.7,277,141.6,277z"/>
	</g>
	<g>
		<g>
			<path fill="#174F65" d="M27.7,42.4c0.1,1.3,0.4,2.3,1,2.8c0.6,0.5,1.4,0.8,2.5,0.8c1,0,1.8-0.2,2.4-0.7c0.6-0.5,0.9-1.2,0.9-2.3
				c0-1-0.3-1.8-0.8-2.3c-0.5-0.5-1.4-0.7-2.6-0.7H29v-3.8h2.4c1.8,0,2.7-0.9,2.7-2.7c0-0.4-0.1-0.7-0.2-1c-0.1-0.3-0.3-0.6-0.5-0.8
				c-0.2-0.2-0.5-0.4-0.9-0.6C32.3,31,31.8,31,31.3,31c-1,0-1.8,0.2-2.4,0.7c-0.6,0.5-1,1.3-1.3,2.4l-4.1-0.6
				c0.2-0.9,0.5-1.7,0.8-2.5c0.4-0.8,0.9-1.4,1.5-2c0.6-0.6,1.4-1,2.3-1.3c0.9-0.3,2-0.5,3.2-0.5c1.2,0,2.3,0.1,3.2,0.4
				c0.9,0.3,1.7,0.7,2.3,1.2c0.6,0.5,1.1,1.1,1.4,1.8c0.3,0.7,0.4,1.5,0.4,2.3c0,1-0.2,2-0.7,2.8c-0.5,0.8-1.2,1.5-2.2,2
				c1.2,0.5,2.1,1.2,2.6,2.1c0.5,0.9,0.8,1.9,0.8,2.9c0,1-0.1,1.9-0.4,2.8c-0.3,0.8-0.7,1.6-1.4,2.2c-0.6,0.6-1.4,1.1-2.4,1.4
				c-1,0.3-2.1,0.5-3.5,0.5c-1.5,0-2.8-0.2-3.8-0.7c-1-0.4-1.8-1-2.4-1.7c-0.6-0.7-1.1-1.5-1.3-2.4c-0.3-0.9-0.4-1.7-0.5-2.6H27.7z"
				/>
			<path fill="#174F65" d="M46.2,42.4c0.1,1.3,0.4,2.3,1,2.8c0.6,0.5,1.4,0.8,2.5,0.8c1,0,1.8-0.2,2.4-0.7c0.6-0.5,0.9-1.2,0.9-2.3
				c0-1-0.3-1.8-0.8-2.3c-0.5-0.5-1.4-0.7-2.6-0.7h-2.2v-3.8h2.4c1.8,0,2.7-0.9,2.7-2.7c0-0.4-0.1-0.7-0.2-1
				c-0.1-0.3-0.3-0.6-0.5-0.8c-0.2-0.2-0.5-0.4-0.9-0.6C50.7,31,50.3,31,49.7,31c-1,0-1.8,0.2-2.4,0.7c-0.6,0.5-1,1.3-1.3,2.4
				l-4.1-0.6c0.2-0.9,0.5-1.7,0.8-2.5c0.4-0.8,0.9-1.4,1.5-2c0.6-0.6,1.4-1,2.3-1.3c0.9-0.3,2-0.5,3.2-0.5c1.2,0,2.3,0.1,3.2,0.4
				c0.9,0.3,1.7,0.7,2.3,1.2c0.6,0.5,1.1,1.1,1.4,1.8c0.3,0.7,0.4,1.5,0.4,2.3c0,1-0.2,2-0.7,2.8s-1.2,1.5-2.2,2
				c1.2,0.5,2.1,1.2,2.6,2.1c0.5,0.9,0.8,1.9,0.8,2.9c0,1-0.1,1.9-0.4,2.8c-0.3,0.8-0.7,1.6-1.4,2.2c-0.6,0.6-1.4,1.1-2.4,1.4
				c-1,0.3-2.1,0.5-3.5,0.5c-1.5,0-2.8-0.2-3.8-0.7c-1-0.4-1.8-1-2.4-1.7c-0.6-0.7-1.1-1.5-1.3-2.4c-0.3-0.9-0.4-1.7-0.5-2.6H46.2z"
				/>
		</g>
	</g>
</g>
</svg>
