<?xml version="1.0" encoding="utf-8"?>
<!-- Generator: Adobe Illustrator 18.1.1, SVG Export Plug-In . SVG Version: 6.00 Build 0)  -->
<!DOCTYPE svg PUBLIC "-//W3C//DTD SVG 1.1//EN" "http://www.w3.org/Graphics/SVG/1.1/DTD/svg11.dtd">
<svg version="1.1" xmlns="http://www.w3.org/2000/svg" xmlns:xlink="http://www.w3.org/1999/xlink" x="0px" y="0px" width="790.2px"
	 height="227.7px" viewBox="0 0 790.2 227.7" enable-background="new 0 0 790.2 227.7" xml:space="preserve">
<g id="Layer_1">
	<g id="Layer_1_1_">
		<g>
			<g opacity="0.35">
				<g>
					<g>
						<path fill="#282828" d="M327.1,4.5c0-0.3,0.2-0.5,0.5-0.5l0,0c0.3,0,0.5,0.2,0.5,0.5l0,0c0,0.3-0.2,0.5-0.5,0.5l0,0
							C327.3,5,327.1,4.8,327.1,4.5z M327.1,2.5c0-0.3,0.2-0.5,0.5-0.5l0,0c0.3,0,0.5,0.2,0.5,0.5l0,0c0,0.3-0.2,0.5-0.5,0.5l0,0
							C327.3,3,327.1,2.8,327.1,2.5z M327.1,0.5c0-0.3,0.2-0.5,0.5-0.5l0,0c0.3,0,0.5,0.2,0.5,0.5l0,0c0,0.3-0.2,0.5-0.5,0.5l0,0
							C327.3,1,327.1,0.8,327.1,0.5z"/>
					</g>
					<g>
						<path fill="#282828" d="M327.1,198.5c0-0.3,0.2-0.5,0.5-0.5l0,0c0.3,0,0.5,0.2,0.5,0.5l0,0c0,0.3-0.2,0.5-0.5,0.5l0,0
							C327.3,199,327.1,198.8,327.1,198.5z M327.1,196.5c0-0.3,0.2-0.5,0.5-0.5l0,0c0.3,0,0.5,0.2,0.5,0.5l0,0
							c0,0.3-0.2,0.5-0.5,0.5l0,0C327.3,197,327.1,196.8,327.1,196.5z M327.1,194.5c0-0.3,0.2-0.5,0.5-0.5l0,0
							c0.3,0,0.5,0.2,0.5,0.5l0,0c0,0.3-0.2,0.5-0.5,0.5l0,0C327.3,195,327.1,194.8,327.1,194.5z M327.1,192.5
							c0-0.3,0.2-0.5,0.5-0.5l0,0c0.3,0,0.5,0.2,0.5,0.5l0,0c0,0.3-0.2,0.5-0.5,0.5l0,0C327.3,193,327.1,192.8,327.1,192.5z
							 M327.1,190.5c0-0.3,0.2-0.5,0.5-0.5l0,0c0.3,0,0.5,0.2,0.5,0.5l0,0c0,0.3-0.2,0.5-0.5,0.5l0,0
							C327.3,191,327.1,190.8,327.1,190.5z M327.1,188.5c0-0.3,0.2-0.5,0.5-0.5l0,0c0.3,0,0.5,0.2,0.5,0.5l0,0
							c0,0.3-0.2,0.5-0.5,0.5l0,0C327.3,189,327.1,188.8,327.1,188.5z M327.1,186.5c0-0.3,0.2-0.5,0.5-0.5l0,0
							c0.3,0,0.5,0.2,0.5,0.5l0,0c0,0.3-0.2,0.5-0.5,0.5l0,0C327.3,187,327.1,186.8,327.1,186.5z M327.1,184.5
							c0-0.3,0.2-0.5,0.5-0.5l0,0c0.3,0,0.5,0.2,0.5,0.5l0,0c0,0.3-0.2,0.5-0.5,0.5l0,0C327.3,185,327.1,184.8,327.1,184.5z
							 M327.1,182.5c0-0.3,0.2-0.5,0.5-0.5l0,0c0.3,0,0.5,0.2,0.5,0.5l0,0c0,0.3-0.2,0.5-0.5,0.5l0,0
							C327.3,183,327.1,182.8,327.1,182.5z M327.1,180.5c0-0.3,0.2-0.5,0.5-0.5l0,0c0.3,0,0.5,0.2,0.5,0.5l0,0
							c0,0.3-0.2,0.5-0.5,0.5l0,0C327.3,181,327.1,180.8,327.1,180.5z M327.1,178.5c0-0.3,0.2-0.5,0.5-0.5l0,0
							c0.3,0,0.5,0.2,0.5,0.5l0,0c0,0.3-0.2,0.5-0.5,0.5l0,0C327.3,179,327.1,178.8,327.1,178.5z M327.1,176.5
							c0-0.3,0.2-0.5,0.5-0.5l0,0c0.3,0,0.5,0.2,0.5,0.5l0,0c0,0.3-0.2,0.5-0.5,0.5l0,0C327.3,177,327.1,176.8,327.1,176.5z
							 M327.1,174.5c0-0.3,0.2-0.5,0.5-0.5l0,0c0.3,0,0.5,0.2,0.5,0.5l0,0c0,0.3-0.2,0.5-0.5,0.5l0,0
							C327.3,175,327.1,174.8,327.1,174.5z M327.1,172.5c0-0.3,0.2-0.5,0.5-0.5l0,0c0.3,0,0.5,0.2,0.5,0.5l0,0
							c0,0.3-0.2,0.5-0.5,0.5l0,0C327.3,173,327.1,172.8,327.1,172.5z M327.1,170.5c0-0.3,0.2-0.5,0.5-0.5l0,0
							c0.3,0,0.5,0.2,0.5,0.5l0,0c0,0.3-0.2,0.5-0.5,0.5l0,0C327.3,171,327.1,170.8,327.1,170.5z M327.1,168.5
							c0-0.3,0.2-0.5,0.5-0.5l0,0c0.3,0,0.5,0.2,0.5,0.5l0,0c0,0.3-0.2,0.5-0.5,0.5l0,0C327.3,169,327.1,168.8,327.1,168.5z
							 M327.1,166.5c0-0.3,0.2-0.5,0.5-0.5l0,0c0.3,0,0.5,0.2,0.5,0.5l0,0c0,0.3-0.2,0.5-0.5,0.5l0,0
							C327.3,167,327.1,166.8,327.1,166.5z M327.1,164.5c0-0.3,0.2-0.5,0.5-0.5l0,0c0.3,0,0.5,0.2,0.5,0.5l0,0
							c0,0.3-0.2,0.5-0.5,0.5l0,0C327.3,165,327.1,164.8,327.1,164.5z M327.1,162.5c0-0.3,0.2-0.5,0.5-0.5l0,0
							c0.3,0,0.5,0.2,0.5,0.5l0,0c0,0.3-0.2,0.5-0.5,0.5l0,0C327.3,163,327.1,162.8,327.1,162.5z M327.1,160.5
							c0-0.3,0.2-0.5,0.5-0.5l0,0c0.3,0,0.5,0.2,0.5,0.5l0,0c0,0.3-0.2,0.5-0.5,0.5l0,0C327.3,161,327.1,160.8,327.1,160.5z
							 M327.1,158.5c0-0.3,0.2-0.5,0.5-0.5l0,0c0.3,0,0.5,0.2,0.5,0.5l0,0c0,0.3-0.2,0.5-0.5,0.5l0,0
							C327.3,159,327.1,158.8,327.1,158.5z M327.1,156.5c0-0.3,0.2-0.5,0.5-0.5l0,0c0.3,0,0.5,0.2,0.5,0.5l0,0
							c0,0.3-0.2,0.5-0.5,0.5l0,0C327.3,157,327.1,156.8,327.1,156.5z M327.1,154.5c0-0.3,0.2-0.5,0.5-0.5l0,0
							c0.3,0,0.5,0.2,0.5,0.5l0,0c0,0.3-0.2,0.5-0.5,0.5l0,0C327.3,155,327.1,154.8,327.1,154.5z M327.1,152.5
							c0-0.3,0.2-0.5,0.5-0.5l0,0c0.3,0,0.5,0.2,0.5,0.5l0,0c0,0.3-0.2,0.5-0.5,0.5l0,0C327.3,153,327.1,152.8,327.1,152.5z
							 M327.1,150.5c0-0.3,0.2-0.5,0.5-0.5l0,0c0.3,0,0.5,0.2,0.5,0.5l0,0c0,0.3-0.2,0.5-0.5,0.5l0,0
							C327.3,151,327.1,150.8,327.1,150.5z M327.1,148.5c0-0.3,0.2-0.5,0.5-0.5l0,0c0.3,0,0.5,0.2,0.5,0.5l0,0
							c0,0.3-0.2,0.5-0.5,0.5l0,0C327.3,149,327.1,148.8,327.1,148.5z M327.1,146.5c0-0.3,0.2-0.5,0.5-0.5l0,0
							c0.3,0,0.5,0.2,0.5,0.5l0,0c0,0.3-0.2,0.5-0.5,0.5l0,0C327.3,147,327.1,146.8,327.1,146.5z M327.1,144.5
							c0-0.3,0.2-0.5,0.5-0.5l0,0c0.3,0,0.5,0.2,0.5,0.5l0,0c0,0.3-0.2,0.5-0.5,0.5l0,0C327.3,145,327.1,144.8,327.1,144.5z
							 M327.1,142.5c0-0.3,0.2-0.5,0.5-0.5l0,0c0.3,0,0.5,0.2,0.5,0.5l0,0c0,0.3-0.2,0.5-0.5,0.5l0,0
							C327.3,143,327.1,142.8,327.1,142.5z M327.1,140.5c0-0.3,0.2-0.5,0.5-0.5l0,0c0.3,0,0.5,0.2,0.5,0.5l0,0
							c0,0.3-0.2,0.5-0.5,0.5l0,0C327.3,141,327.1,140.8,327.1,140.5z M327.1,138.5c0-0.3,0.2-0.5,0.5-0.5l0,0
							c0.3,0,0.5,0.2,0.5,0.5l0,0c0,0.3-0.2,0.5-0.5,0.5l0,0C327.3,139,327.1,138.8,327.1,138.5z M327.1,136.5
							c0-0.3,0.2-0.5,0.5-0.5l0,0c0.3,0,0.5,0.2,0.5,0.5l0,0c0,0.3-0.2,0.5-0.5,0.5l0,0C327.3,137,327.1,136.8,327.1,136.5z
							 M327.1,134.5c0-0.3,0.2-0.5,0.5-0.5l0,0c0.3,0,0.5,0.2,0.5,0.5l0,0c0,0.3-0.2,0.5-0.5,0.5l0,0
							C327.3,135,327.1,134.8,327.1,134.5z M327.1,132.5c0-0.3,0.2-0.5,0.5-0.5l0,0c0.3,0,0.5,0.2,0.5,0.5l0,0
							c0,0.3-0.2,0.5-0.5,0.5l0,0C327.3,133,327.1,132.8,327.1,132.5z M327.1,130.5c0-0.3,0.2-0.5,0.5-0.5l0,0
							c0.3,0,0.5,0.2,0.5,0.5l0,0c0,0.3-0.2,0.5-0.5,0.5l0,0C327.3,131,327.1,130.8,327.1,130.5z M327.1,128.5
							c0-0.3,0.2-0.5,0.5-0.5l0,0c0.3,0,0.5,0.2,0.5,0.5l0,0c0,0.3-0.2,0.5-0.5,0.5l0,0C327.3,129,327.1,128.8,327.1,128.5z
							 M327.1,126.5c0-0.3,0.2-0.5,0.5-0.5l0,0c0.3,0,0.5,0.2,0.5,0.5l0,0c0,0.3-0.2,0.5-0.5,0.5l0,0
							C327.3,127,327.1,126.8,327.1,126.5z M327.1,124.5c0-0.3,0.2-0.5,0.5-0.5l0,0c0.3,0,0.5,0.2,0.5,0.5l0,0
							c0,0.3-0.2,0.5-0.5,0.5l0,0C327.3,125,327.1,124.8,327.1,124.5z M327.1,122.5c0-0.3,0.2-0.5,0.5-0.5l0,0
							c0.3,0,0.5,0.2,0.5,0.5l0,0c0,0.3-0.2,0.5-0.5,0.5l0,0C327.3,123,327.1,122.8,327.1,122.5z M327.1,120.5
							c0-0.3,0.2-0.5,0.5-0.5l0,0c0.3,0,0.5,0.2,0.5,0.5l0,0c0,0.3-0.2,0.5-0.5,0.5l0,0C327.3,121,327.1,120.8,327.1,120.5z
							 M327.1,118.5c0-0.3,0.2-0.5,0.5-0.5l0,0c0.3,0,0.5,0.2,0.5,0.5l0,0c0,0.3-0.2,0.5-0.5,0.5l0,0
							C327.3,119,327.1,118.8,327.1,118.5z M327.1,116.5c0-0.3,0.2-0.5,0.5-0.5l0,0c0.3,0,0.5,0.2,0.5,0.5l0,0
							c0,0.3-0.2,0.5-0.5,0.5l0,0C327.3,117,327.1,116.8,327.1,116.5z M327.1,114.5c0-0.3,0.2-0.5,0.5-0.5l0,0
							c0.3,0,0.5,0.2,0.5,0.5l0,0c0,0.3-0.2,0.5-0.5,0.5l0,0C327.3,115,327.1,114.8,327.1,114.5z M327.1,112.5
							c0-0.3,0.2-0.5,0.5-0.5l0,0c0.3,0,0.5,0.2,0.5,0.5l0,0c0,0.3-0.2,0.5-0.5,0.5l0,0C327.3,113,327.1,112.8,327.1,112.5z
							 M327.1,110.5c0-0.3,0.2-0.5,0.5-0.5l0,0c0.3,0,0.5,0.2,0.5,0.5l0,0c0,0.3-0.2,0.5-0.5,0.5l0,0
							C327.3,111,327.1,110.8,327.1,110.5z M327.1,108.5c0-0.3,0.2-0.5,0.5-0.5l0,0c0.3,0,0.5,0.2,0.5,0.5l0,0
							c0,0.3-0.2,0.5-0.5,0.5l0,0C327.3,109,327.1,108.8,327.1,108.5z M327.1,106.5c0-0.3,0.2-0.5,0.5-0.5l0,0
							c0.3,0,0.5,0.2,0.5,0.5l0,0c0,0.3-0.2,0.5-0.5,0.5l0,0C327.3,107,327.1,106.8,327.1,106.5z M327.1,104.5
							c0-0.3,0.2-0.5,0.5-0.5l0,0c0.3,0,0.5,0.2,0.5,0.5l0,0c0,0.3-0.2,0.5-0.5,0.5l0,0C327.3,105,327.1,104.8,327.1,104.5z
							 M327.1,102.5c0-0.3,0.2-0.5,0.5-0.5l0,0c0.3,0,0.5,0.2,0.5,0.5l0,0c0,0.3-0.2,0.5-0.5,0.5l0,0
							C327.3,103,327.1,102.8,327.1,102.5z M327.1,100.5c0-0.3,0.2-0.5,0.5-0.5l0,0c0.3,0,0.5,0.2,0.5,0.5l0,0
							c0,0.3-0.2,0.5-0.5,0.5l0,0C327.3,101,327.1,100.8,327.1,100.5z M327.1,98.5c0-0.3,0.2-0.5,0.5-0.5l0,0c0.3,0,0.5,0.2,0.5,0.5
							l0,0c0,0.3-0.2,0.5-0.5,0.5l0,0C327.3,99,327.1,98.8,327.1,98.5z M327.1,96.5c0-0.3,0.2-0.5,0.5-0.5l0,0
							c0.3,0,0.5,0.2,0.5,0.5l0,0c0,0.3-0.2,0.5-0.5,0.5l0,0C327.3,97,327.1,96.8,327.1,96.5z M327.1,94.5c0-0.3,0.2-0.5,0.5-0.5
							l0,0c0.3,0,0.5,0.2,0.5,0.5l0,0c0,0.3-0.2,0.5-0.5,0.5l0,0C327.3,95,327.1,94.8,327.1,94.5z M327.1,92.5
							c0-0.3,0.2-0.5,0.5-0.5l0,0c0.3,0,0.5,0.2,0.5,0.5l0,0c0,0.3-0.2,0.5-0.5,0.5l0,0C327.3,93,327.1,92.8,327.1,92.5z
							 M327.1,90.5c0-0.3,0.2-0.5,0.5-0.5l0,0c0.3,0,0.5,0.2,0.5,0.5l0,0c0,0.3-0.2,0.5-0.5,0.5l0,0C327.3,91,327.1,90.8,327.1,90.5
							z M327.1,88.5c0-0.3,0.2-0.5,0.5-0.5l0,0c0.3,0,0.5,0.2,0.5,0.5l0,0c0,0.3-0.2,0.5-0.5,0.5l0,0
							C327.3,89,327.1,88.8,327.1,88.5z M327.1,86.5c0-0.3,0.2-0.5,0.5-0.5l0,0c0.3,0,0.5,0.2,0.5,0.5l0,0c0,0.3-0.2,0.5-0.5,0.5
							l0,0C327.3,87,327.1,86.8,327.1,86.5z M327.1,84.5c0-0.3,0.2-0.5,0.5-0.5l0,0c0.3,0,0.5,0.2,0.5,0.5l0,0
							c0,0.3-0.2,0.5-0.5,0.5l0,0C327.3,85,327.1,84.8,327.1,84.5z M327.1,82.5c0-0.3,0.2-0.5,0.5-0.5l0,0c0.3,0,0.5,0.2,0.5,0.5
							l0,0c0,0.3-0.2,0.5-0.5,0.5l0,0C327.3,83,327.1,82.8,327.1,82.5z M327.1,80.5c0-0.3,0.2-0.5,0.5-0.5l0,0
							c0.3,0,0.5,0.2,0.5,0.5l0,0c0,0.3-0.2,0.5-0.5,0.5l0,0C327.3,81,327.1,80.8,327.1,80.5z M327.1,78.5c0-0.3,0.2-0.5,0.5-0.5
							l0,0c0.3,0,0.5,0.2,0.5,0.5l0,0c0,0.3-0.2,0.5-0.5,0.5l0,0C327.3,79,327.1,78.8,327.1,78.5z M327.1,76.5
							c0-0.3,0.2-0.5,0.5-0.5l0,0c0.3,0,0.5,0.2,0.5,0.5l0,0c0,0.3-0.2,0.5-0.5,0.5l0,0C327.3,77,327.1,76.8,327.1,76.5z
							 M327.1,74.5c0-0.3,0.2-0.5,0.5-0.5l0,0c0.3,0,0.5,0.2,0.5,0.5l0,0c0,0.3-0.2,0.5-0.5,0.5l0,0C327.3,75,327.1,74.8,327.1,74.5
							z M327.1,72.5c0-0.3,0.2-0.5,0.5-0.5l0,0c0.3,0,0.5,0.2,0.5,0.5l0,0c0,0.3-0.2,0.5-0.5,0.5l0,0
							C327.3,73,327.1,72.8,327.1,72.5z M327.1,70.5c0-0.3,0.2-0.5,0.5-0.5l0,0c0.3,0,0.5,0.2,0.5,0.5l0,0c0,0.3-0.2,0.5-0.5,0.5
							l0,0C327.3,71,327.1,70.8,327.1,70.5z M327.1,68.5c0-0.3,0.2-0.5,0.5-0.5l0,0c0.3,0,0.5,0.2,0.5,0.5l0,0
							c0,0.3-0.2,0.5-0.5,0.5l0,0C327.3,69,327.1,68.8,327.1,68.5z M327.1,66.5c0-0.3,0.2-0.5,0.5-0.5l0,0c0.3,0,0.5,0.2,0.5,0.5
							l0,0c0,0.3-0.2,0.5-0.5,0.5l0,0C327.3,67,327.1,66.8,327.1,66.5z M327.1,64.5c0-0.3,0.2-0.5,0.5-0.5l0,0
							c0.3,0,0.5,0.2,0.5,0.5l0,0c0,0.3-0.2,0.5-0.5,0.5l0,0C327.3,65,327.1,64.8,327.1,64.5z M327.1,62.5c0-0.3,0.2-0.5,0.5-0.5
							l0,0c0.3,0,0.5,0.2,0.5,0.5l0,0c0,0.3-0.2,0.5-0.5,0.5l0,0C327.3,63,327.1,62.8,327.1,62.5z M327.1,60.5
							c0-0.3,0.2-0.5,0.5-0.5l0,0c0.3,0,0.5,0.2,0.5,0.5l0,0c0,0.3-0.2,0.5-0.5,0.5l0,0C327.3,61,327.1,60.8,327.1,60.5z
							 M327.1,58.5c0-0.3,0.2-0.5,0.5-0.5l0,0c0.3,0,0.5,0.2,0.5,0.5l0,0c0,0.3-0.2,0.5-0.5,0.5l0,0C327.3,59,327.1,58.8,327.1,58.5
							z M327.1,56.5c0-0.3,0.2-0.5,0.5-0.5l0,0c0.3,0,0.5,0.2,0.5,0.5l0,0c0,0.3-0.2,0.5-0.5,0.5l0,0
							C327.3,57,327.1,56.8,327.1,56.5z M327.1,54.5c0-0.3,0.2-0.5,0.5-0.5l0,0c0.3,0,0.5,0.2,0.5,0.5l0,0c0,0.3-0.2,0.5-0.5,0.5
							l0,0C327.3,55,327.1,54.8,327.1,54.5z M327.1,52.5c0-0.3,0.2-0.5,0.5-0.5l0,0c0.3,0,0.5,0.2,0.5,0.5l0,0
							c0,0.3-0.2,0.5-0.5,0.5l0,0C327.3,53,327.1,52.8,327.1,52.5z M327.1,50.5c0-0.3,0.2-0.5,0.5-0.5l0,0c0.3,0,0.5,0.2,0.5,0.5
							l0,0c0,0.3-0.2,0.5-0.5,0.5l0,0C327.3,51,327.1,50.8,327.1,50.5z M327.1,48.5c0-0.3,0.2-0.5,0.5-0.5l0,0
							c0.3,0,0.5,0.2,0.5,0.5l0,0c0,0.3-0.2,0.5-0.5,0.5l0,0C327.3,49,327.1,48.8,327.1,48.5z M327.1,46.5c0-0.3,0.2-0.5,0.5-0.5
							l0,0c0.3,0,0.5,0.2,0.5,0.5l0,0c0,0.3-0.2,0.5-0.5,0.5l0,0C327.3,47,327.1,46.8,327.1,46.5z M327.1,44.5
							c0-0.3,0.2-0.5,0.5-0.5l0,0c0.3,0,0.5,0.2,0.5,0.5l0,0c0,0.3-0.2,0.5-0.5,0.5l0,0C327.3,45,327.1,44.8,327.1,44.5z
							 M327.1,42.5c0-0.3,0.2-0.5,0.5-0.5l0,0c0.3,0,0.5,0.2,0.5,0.5l0,0c0,0.3-0.2,0.5-0.5,0.5l0,0C327.3,43,327.1,42.8,327.1,42.5
							z M327.1,40.5c0-0.3,0.2-0.5,0.5-0.5l0,0c0.3,0,0.5,0.2,0.5,0.5l0,0c0,0.3-0.2,0.5-0.5,0.5l0,0
							C327.3,41,327.1,40.8,327.1,40.5z M327.1,38.5c0-0.3,0.2-0.5,0.5-0.5l0,0c0.3,0,0.5,0.2,0.5,0.5l0,0c0,0.3-0.2,0.5-0.5,0.5
							l0,0C327.3,39,327.1,38.8,327.1,38.5z M327.1,36.5c0-0.3,0.2-0.5,0.5-0.5l0,0c0.3,0,0.5,0.2,0.5,0.5l0,0
							c0,0.3-0.2,0.5-0.5,0.5l0,0C327.3,37,327.1,36.8,327.1,36.5z M327.1,34.5c0-0.3,0.2-0.5,0.5-0.5l0,0c0.3,0,0.5,0.2,0.5,0.5
							l0,0c0,0.3-0.2,0.5-0.5,0.5l0,0C327.3,35,327.1,34.8,327.1,34.5z M327.1,32.5c0-0.3,0.2-0.5,0.5-0.5l0,0
							c0.3,0,0.5,0.2,0.5,0.5l0,0c0,0.3-0.2,0.5-0.5,0.5l0,0C327.3,33,327.1,32.8,327.1,32.5z M327.1,30.5c0-0.3,0.2-0.5,0.5-0.5
							l0,0c0.3,0,0.5,0.2,0.5,0.5l0,0c0,0.3-0.2,0.5-0.5,0.5l0,0C327.3,31,327.1,30.8,327.1,30.5z M327.1,28.5
							c0-0.3,0.2-0.5,0.5-0.5l0,0c0.3,0,0.5,0.2,0.5,0.5l0,0c0,0.3-0.2,0.5-0.5,0.5l0,0C327.3,29,327.1,28.8,327.1,28.5z
							 M327.1,26.5c0-0.3,0.2-0.5,0.5-0.5l0,0c0.3,0,0.5,0.2,0.5,0.5l0,0c0,0.3-0.2,0.5-0.5,0.5l0,0C327.3,27,327.1,26.8,327.1,26.5
							z M327.1,24.5c0-0.3,0.2-0.5,0.5-0.5l0,0c0.3,0,0.5,0.2,0.5,0.5l0,0c0,0.3-0.2,0.5-0.5,0.5l0,0
							C327.3,25,327.1,24.8,327.1,24.5z M327.1,22.5c0-0.3,0.2-0.5,0.5-0.5l0,0c0.3,0,0.5,0.2,0.5,0.5l0,0c0,0.3-0.2,0.5-0.5,0.5
							l0,0C327.3,23,327.1,22.8,327.1,22.5z M327.1,20.5c0-0.3,0.2-0.5,0.5-0.5l0,0c0.3,0,0.5,0.2,0.5,0.5l0,0
							c0,0.3-0.2,0.5-0.5,0.5l0,0C327.3,21,327.1,20.8,327.1,20.5z M327.1,18.5c0-0.3,0.2-0.5,0.5-0.5l0,0c0.3,0,0.5,0.2,0.5,0.5
							l0,0c0,0.3-0.2,0.5-0.5,0.5l0,0C327.3,19,327.1,18.8,327.1,18.5z M327.1,16.5c0-0.3,0.2-0.5,0.5-0.5l0,0
							c0.3,0,0.5,0.2,0.5,0.5l0,0c0,0.3-0.2,0.5-0.5,0.5l0,0C327.3,17,327.1,16.8,327.1,16.5z M327.1,14.5c0-0.3,0.2-0.5,0.5-0.5
							l0,0c0.3,0,0.5,0.2,0.5,0.5l0,0c0,0.3-0.2,0.5-0.5,0.5l0,0C327.3,15,327.1,14.8,327.1,14.5z M327.1,12.5
							c0-0.3,0.2-0.5,0.5-0.5l0,0c0.3,0,0.5,0.2,0.5,0.5l0,0c0,0.3-0.2,0.5-0.5,0.5l0,0C327.3,13,327.1,12.8,327.1,12.5z
							 M327.1,10.5c0-0.3,0.2-0.5,0.5-0.5l0,0c0.3,0,0.5,0.2,0.5,0.5l0,0c0,0.3-0.2,0.5-0.5,0.5l0,0C327.3,11,327.1,10.8,327.1,10.5
							z M327.1,8.5c0-0.3,0.2-0.5,0.5-0.5l0,0c0.3,0,0.5,0.2,0.5,0.5l0,0c0,0.3-0.2,0.5-0.5,0.5l0,0C327.3,9,327.1,8.8,327.1,8.5z
							 M327.1,6.5c0-0.3,0.2-0.5,0.5-0.5l0,0c0.3,0,0.5,0.2,0.5,0.5l0,0c0,0.3-0.2,0.5-0.5,0.5l0,0C327.3,7,327.1,6.8,327.1,6.5z"/>
					</g>
					<g>
						<path fill="#282828" d="M327.6,202c-0.1,0-0.3-0.1-0.3-0.1c-0.1-0.1-0.2-0.2-0.2-0.4c0-0.1,0-0.3,0.1-0.3
							c0.2-0.2,0.5-0.2,0.7,0c0.1,0.1,0.2,0.2,0.2,0.4s0,0.2-0.1,0.4C327.9,202,327.8,202,327.6,202z"/>
					</g>
				</g>
			</g>
			<g opacity="0.35">
				<g>
					<g>
						<path fill="#282828" d="M400.1,4.5c0-0.3,0.2-0.5,0.5-0.5l0,0c0.3,0,0.5,0.2,0.5,0.5l0,0c0,0.3-0.2,0.5-0.5,0.5l0,0
							C400.3,5,400.1,4.8,400.1,4.5z M400.1,2.5c0-0.3,0.2-0.5,0.5-0.5l0,0c0.3,0,0.5,0.2,0.5,0.5l0,0c0,0.3-0.2,0.5-0.5,0.5l0,0
							C400.3,3,400.1,2.8,400.1,2.5z M400.1,0.5c0-0.3,0.2-0.5,0.5-0.5l0,0c0.3,0,0.5,0.2,0.5,0.5l0,0c0,0.3-0.2,0.5-0.5,0.5l0,0
							C400.3,1,400.1,0.8,400.1,0.5z"/>
					</g>
					<g>
						<path fill="#282828" d="M400.1,200.5c0-0.3,0.2-0.5,0.5-0.5l0,0c0.3,0,0.5,0.2,0.5,0.5l0,0c0,0.3-0.2,0.5-0.5,0.5l0,0
							C400.3,201,400.1,200.8,400.1,200.5z M400.1,198.5c0-0.3,0.2-0.5,0.5-0.5l0,0c0.3,0,0.5,0.2,0.5,0.5l0,0
							c0,0.3-0.2,0.5-0.5,0.5l0,0C400.3,199,400.1,198.8,400.1,198.5z M400.1,196.5c0-0.3,0.2-0.5,0.5-0.5l0,0
							c0.3,0,0.5,0.2,0.5,0.5l0,0c0,0.3-0.2,0.5-0.5,0.5l0,0C400.3,197,400.1,196.8,400.1,196.5z M400.1,194.5
							c0-0.3,0.2-0.5,0.5-0.5l0,0c0.3,0,0.5,0.2,0.5,0.5l0,0c0,0.3-0.2,0.5-0.5,0.5l0,0C400.3,195,400.1,194.8,400.1,194.5z
							 M400.1,192.5c0-0.3,0.2-0.5,0.5-0.5l0,0c0.3,0,0.5,0.2,0.5,0.5l0,0c0,0.3-0.2,0.5-0.5,0.5l0,0
							C400.3,193,400.1,192.8,400.1,192.5z M400.1,190.5c0-0.3,0.2-0.5,0.5-0.5l0,0c0.3,0,0.5,0.2,0.5,0.5l0,0
							c0,0.3-0.2,0.5-0.5,0.5l0,0C400.3,191,400.1,190.8,400.1,190.5z M400.1,188.5c0-0.3,0.2-0.5,0.5-0.5l0,0
							c0.3,0,0.5,0.2,0.5,0.5l0,0c0,0.3-0.2,0.5-0.5,0.5l0,0C400.3,189,400.1,188.8,400.1,188.5z M400.1,186.5
							c0-0.3,0.2-0.5,0.5-0.5l0,0c0.3,0,0.5,0.2,0.5,0.5l0,0c0,0.3-0.2,0.5-0.5,0.5l0,0C400.3,187,400.1,186.8,400.1,186.5z
							 M400.1,184.5c0-0.3,0.2-0.5,0.5-0.5l0,0c0.3,0,0.5,0.2,0.5,0.5l0,0c0,0.3-0.2,0.5-0.5,0.5l0,0
							C400.3,185,400.1,184.8,400.1,184.5z M400.1,182.5c0-0.3,0.2-0.5,0.5-0.5l0,0c0.3,0,0.5,0.2,0.5,0.5l0,0
							c0,0.3-0.2,0.5-0.5,0.5l0,0C400.3,183,400.1,182.8,400.1,182.5z M400.1,180.5c0-0.3,0.2-0.5,0.5-0.5l0,0
							c0.3,0,0.5,0.2,0.5,0.5l0,0c0,0.3-0.2,0.5-0.5,0.5l0,0C400.3,181,400.1,180.8,400.1,180.5z M400.1,178.5
							c0-0.3,0.2-0.5,0.5-0.5l0,0c0.3,0,0.5,0.2,0.5,0.5l0,0c0,0.3-0.2,0.5-0.5,0.5l0,0C400.3,179,400.1,178.8,400.1,178.5z
							 M400.1,176.5c0-0.3,0.2-0.5,0.5-0.5l0,0c0.3,0,0.5,0.2,0.5,0.5l0,0c0,0.3-0.2,0.5-0.5,0.5l0,0
							C400.3,177,400.1,176.8,400.1,176.5z M400.1,174.5c0-0.3,0.2-0.5,0.5-0.5l0,0c0.3,0,0.5,0.2,0.5,0.5l0,0
							c0,0.3-0.2,0.5-0.5,0.5l0,0C400.3,175,400.1,174.8,400.1,174.5z M400.1,172.5c0-0.3,0.2-0.5,0.5-0.5l0,0
							c0.3,0,0.5,0.2,0.5,0.5l0,0c0,0.3-0.2,0.5-0.5,0.5l0,0C400.3,173,400.1,172.8,400.1,172.5z M400.1,170.5
							c0-0.3,0.2-0.5,0.5-0.5l0,0c0.3,0,0.5,0.2,0.5,0.5l0,0c0,0.3-0.2,0.5-0.5,0.5l0,0C400.3,171,400.1,170.8,400.1,170.5z
							 M400.1,168.5c0-0.3,0.2-0.5,0.5-0.5l0,0c0.3,0,0.5,0.2,0.5,0.5l0,0c0,0.3-0.2,0.5-0.5,0.5l0,0
							C400.3,169,400.1,168.8,400.1,168.5z M400.1,166.5c0-0.3,0.2-0.5,0.5-0.5l0,0c0.3,0,0.5,0.2,0.5,0.5l0,0
							c0,0.3-0.2,0.5-0.5,0.5l0,0C400.3,167,400.1,166.8,400.1,166.5z M400.1,164.5c0-0.3,0.2-0.5,0.5-0.5l0,0
							c0.3,0,0.5,0.2,0.5,0.5l0,0c0,0.3-0.2,0.5-0.5,0.5l0,0C400.3,165,400.1,164.8,400.1,164.5z M400.1,162.5
							c0-0.3,0.2-0.5,0.5-0.5l0,0c0.3,0,0.5,0.2,0.5,0.5l0,0c0,0.3-0.2,0.5-0.5,0.5l0,0C400.3,163,400.1,162.8,400.1,162.5z
							 M400.1,160.5c0-0.3,0.2-0.5,0.5-0.5l0,0c0.3,0,0.5,0.2,0.5,0.5l0,0c0,0.3-0.2,0.5-0.5,0.5l0,0
							C400.3,161,400.1,160.8,400.1,160.5z M400.1,158.5c0-0.3,0.2-0.5,0.5-0.5l0,0c0.3,0,0.5,0.2,0.5,0.5l0,0
							c0,0.3-0.2,0.5-0.5,0.5l0,0C400.3,159,400.1,158.8,400.1,158.5z M400.1,156.5c0-0.3,0.2-0.5,0.5-0.5l0,0
							c0.3,0,0.5,0.2,0.5,0.5l0,0c0,0.3-0.2,0.5-0.5,0.5l0,0C400.3,157,400.1,156.8,400.1,156.5z M400.1,154.5
							c0-0.3,0.2-0.5,0.5-0.5l0,0c0.3,0,0.5,0.2,0.5,0.5l0,0c0,0.3-0.2,0.5-0.5,0.5l0,0C400.3,155,400.1,154.8,400.1,154.5z
							 M400.1,152.5c0-0.3,0.2-0.5,0.5-0.5l0,0c0.3,0,0.5,0.2,0.5,0.5l0,0c0,0.3-0.2,0.5-0.5,0.5l0,0
							C400.3,153,400.1,152.8,400.1,152.5z M400.1,150.5c0-0.3,0.2-0.5,0.5-0.5l0,0c0.3,0,0.5,0.2,0.5,0.5l0,0
							c0,0.3-0.2,0.5-0.5,0.5l0,0C400.3,151,400.1,150.8,400.1,150.5z M400.1,148.5c0-0.3,0.2-0.5,0.5-0.5l0,0
							c0.3,0,0.5,0.2,0.5,0.5l0,0c0,0.3-0.2,0.5-0.5,0.5l0,0C400.3,149,400.1,148.8,400.1,148.5z M400.1,146.5
							c0-0.3,0.2-0.5,0.5-0.5l0,0c0.3,0,0.5,0.2,0.5,0.5l0,0c0,0.3-0.2,0.5-0.5,0.5l0,0C400.3,147,400.1,146.8,400.1,146.5z
							 M400.1,144.5c0-0.3,0.2-0.5,0.5-0.5l0,0c0.3,0,0.5,0.2,0.5,0.5l0,0c0,0.3-0.2,0.5-0.5,0.5l0,0
							C400.3,145,400.1,144.8,400.1,144.5z M400.1,142.5c0-0.3,0.2-0.5,0.5-0.5l0,0c0.3,0,0.5,0.2,0.5,0.5l0,0
							c0,0.3-0.2,0.5-0.5,0.5l0,0C400.3,143,400.1,142.8,400.1,142.5z M400.1,140.5c0-0.3,0.2-0.5,0.5-0.5l0,0
							c0.3,0,0.5,0.2,0.5,0.5l0,0c0,0.3-0.2,0.5-0.5,0.5l0,0C400.3,141,400.1,140.8,400.1,140.5z M400.1,138.5
							c0-0.3,0.2-0.5,0.5-0.5l0,0c0.3,0,0.5,0.2,0.5,0.5l0,0c0,0.3-0.2,0.5-0.5,0.5l0,0C400.3,139,400.1,138.8,400.1,138.5z
							 M400.1,136.5c0-0.3,0.2-0.5,0.5-0.5l0,0c0.3,0,0.5,0.2,0.5,0.5l0,0c0,0.3-0.2,0.5-0.5,0.5l0,0
							C400.3,137,400.1,136.8,400.1,136.5z M400.1,134.5c0-0.3,0.2-0.5,0.5-0.5l0,0c0.3,0,0.5,0.2,0.5,0.5l0,0
							c0,0.3-0.2,0.5-0.5,0.5l0,0C400.3,135,400.1,134.8,400.1,134.5z M400.1,132.5c0-0.3,0.2-0.5,0.5-0.5l0,0
							c0.3,0,0.5,0.2,0.5,0.5l0,0c0,0.3-0.2,0.5-0.5,0.5l0,0C400.3,133,400.1,132.8,400.1,132.5z M400.1,130.5
							c0-0.3,0.2-0.5,0.5-0.5l0,0c0.3,0,0.5,0.2,0.5,0.5l0,0c0,0.3-0.2,0.5-0.5,0.5l0,0C400.3,131,400.1,130.8,400.1,130.5z
							 M400.1,128.5c0-0.3,0.2-0.5,0.5-0.5l0,0c0.3,0,0.5,0.2,0.5,0.5l0,0c0,0.3-0.2,0.5-0.5,0.5l0,0
							C400.3,129,400.1,128.8,400.1,128.5z M400.1,126.5c0-0.3,0.2-0.5,0.5-0.5l0,0c0.3,0,0.5,0.2,0.5,0.5l0,0
							c0,0.3-0.2,0.5-0.5,0.5l0,0C400.3,127,400.1,126.8,400.1,126.5z M400.1,124.5c0-0.3,0.2-0.5,0.5-0.5l0,0
							c0.3,0,0.5,0.2,0.5,0.5l0,0c0,0.3-0.2,0.5-0.5,0.5l0,0C400.3,125,400.1,124.8,400.1,124.5z M400.1,122.5
							c0-0.3,0.2-0.5,0.5-0.5l0,0c0.3,0,0.5,0.2,0.5,0.5l0,0c0,0.3-0.2,0.5-0.5,0.5l0,0C400.3,123,400.1,122.8,400.1,122.5z
							 M400.1,120.5c0-0.3,0.2-0.5,0.5-0.5l0,0c0.3,0,0.5,0.2,0.5,0.5l0,0c0,0.3-0.2,0.5-0.5,0.5l0,0
							C400.3,121,400.1,120.8,400.1,120.5z M400.1,118.5c0-0.3,0.2-0.5,0.5-0.5l0,0c0.3,0,0.5,0.2,0.5,0.5l0,0
							c0,0.3-0.2,0.5-0.5,0.5l0,0C400.3,119,400.1,118.8,400.1,118.5z M400.1,116.5c0-0.3,0.2-0.5,0.5-0.5l0,0
							c0.3,0,0.5,0.2,0.5,0.5l0,0c0,0.3-0.2,0.5-0.5,0.5l0,0C400.3,117,400.1,116.8,400.1,116.5z M400.1,114.5
							c0-0.3,0.2-0.5,0.5-0.5l0,0c0.3,0,0.5,0.2,0.5,0.5l0,0c0,0.3-0.2,0.5-0.5,0.5l0,0C400.3,115,400.1,114.8,400.1,114.5z
							 M400.1,112.5c0-0.3,0.2-0.5,0.5-0.5l0,0c0.3,0,0.5,0.2,0.5,0.5l0,0c0,0.3-0.2,0.5-0.5,0.5l0,0
							C400.3,113,400.1,112.8,400.1,112.5z M400.1,110.5c0-0.3,0.2-0.5,0.5-0.5l0,0c0.3,0,0.5,0.2,0.5,0.5l0,0
							c0,0.3-0.2,0.5-0.5,0.5l0,0C400.3,111,400.1,110.8,400.1,110.5z M400.1,108.5c0-0.3,0.2-0.5,0.5-0.5l0,0
							c0.3,0,0.5,0.2,0.5,0.5l0,0c0,0.3-0.2,0.5-0.5,0.5l0,0C400.3,109,400.1,108.8,400.1,108.5z M400.1,106.5
							c0-0.3,0.2-0.5,0.5-0.5l0,0c0.3,0,0.5,0.2,0.5,0.5l0,0c0,0.3-0.2,0.5-0.5,0.5l0,0C400.3,107,400.1,106.8,400.1,106.5z
							 M400.1,104.5c0-0.3,0.2-0.5,0.5-0.5l0,0c0.3,0,0.5,0.2,0.5,0.5l0,0c0,0.3-0.2,0.5-0.5,0.5l0,0
							C400.3,105,400.1,104.8,400.1,104.5z M400.1,102.5c0-0.3,0.2-0.5,0.5-0.5l0,0c0.3,0,0.5,0.2,0.5,0.5l0,0
							c0,0.3-0.2,0.5-0.5,0.5l0,0C400.3,103,400.1,102.8,400.1,102.5z M400.1,100.5c0-0.3,0.2-0.5,0.5-0.5l0,0
							c0.3,0,0.5,0.2,0.5,0.5l0,0c0,0.3-0.2,0.5-0.5,0.5l0,0C400.3,101,400.1,100.8,400.1,100.5z M400.1,98.5c0-0.3,0.2-0.5,0.5-0.5
							l0,0c0.3,0,0.5,0.2,0.5,0.5l0,0c0,0.3-0.2,0.5-0.5,0.5l0,0C400.3,99,400.1,98.8,400.1,98.5z M400.1,96.5
							c0-0.3,0.2-0.5,0.5-0.5l0,0c0.3,0,0.5,0.2,0.5,0.5l0,0c0,0.3-0.2,0.5-0.5,0.5l0,0C400.3,97,400.1,96.8,400.1,96.5z
							 M400.1,94.5c0-0.3,0.2-0.5,0.5-0.5l0,0c0.3,0,0.5,0.2,0.5,0.5l0,0c0,0.3-0.2,0.5-0.5,0.5l0,0C400.3,95,400.1,94.8,400.1,94.5
							z M400.1,92.5c0-0.3,0.2-0.5,0.5-0.5l0,0c0.3,0,0.5,0.2,0.5,0.5l0,0c0,0.3-0.2,0.5-0.5,0.5l0,0
							C400.3,93,400.1,92.8,400.1,92.5z M400.1,90.5c0-0.3,0.2-0.5,0.5-0.5l0,0c0.3,0,0.5,0.2,0.5,0.5l0,0c0,0.3-0.2,0.5-0.5,0.5
							l0,0C400.3,91,400.1,90.8,400.1,90.5z M400.1,88.5c0-0.3,0.2-0.5,0.5-0.5l0,0c0.3,0,0.5,0.2,0.5,0.5l0,0
							c0,0.3-0.2,0.5-0.5,0.5l0,0C400.3,89,400.1,88.8,400.1,88.5z M400.1,86.5c0-0.3,0.2-0.5,0.5-0.5l0,0c0.3,0,0.5,0.2,0.5,0.5
							l0,0c0,0.3-0.2,0.5-0.5,0.5l0,0C400.3,87,400.1,86.8,400.1,86.5z M400.1,84.5c0-0.3,0.2-0.5,0.5-0.5l0,0
							c0.3,0,0.5,0.2,0.5,0.5l0,0c0,0.3-0.2,0.5-0.5,0.5l0,0C400.3,85,400.1,84.8,400.1,84.5z M400.1,82.5c0-0.3,0.2-0.5,0.5-0.5
							l0,0c0.3,0,0.5,0.2,0.5,0.5l0,0c0,0.3-0.2,0.5-0.5,0.5l0,0C400.3,83,400.1,82.8,400.1,82.5z M400.1,80.5
							c0-0.3,0.2-0.5,0.5-0.5l0,0c0.3,0,0.5,0.2,0.5,0.5l0,0c0,0.3-0.2,0.5-0.5,0.5l0,0C400.3,81,400.1,80.8,400.1,80.5z
							 M400.1,78.5c0-0.3,0.2-0.5,0.5-0.5l0,0c0.3,0,0.5,0.2,0.5,0.5l0,0c0,0.3-0.2,0.5-0.5,0.5l0,0C400.3,79,400.1,78.8,400.1,78.5
							z M400.1,76.5c0-0.3,0.2-0.5,0.5-0.5l0,0c0.3,0,0.5,0.2,0.5,0.5l0,0c0,0.3-0.2,0.5-0.5,0.5l0,0
							C400.3,77,400.1,76.8,400.1,76.5z M400.1,74.5c0-0.3,0.2-0.5,0.5-0.5l0,0c0.3,0,0.5,0.2,0.5,0.5l0,0c0,0.3-0.2,0.5-0.5,0.5
							l0,0C400.3,75,400.1,74.8,400.1,74.5z M400.1,72.5c0-0.3,0.2-0.5,0.5-0.5l0,0c0.3,0,0.5,0.2,0.5,0.5l0,0
							c0,0.3-0.2,0.5-0.5,0.5l0,0C400.3,73,400.1,72.8,400.1,72.5z M400.1,70.5c0-0.3,0.2-0.5,0.5-0.5l0,0c0.3,0,0.5,0.2,0.5,0.5
							l0,0c0,0.3-0.2,0.5-0.5,0.5l0,0C400.3,71,400.1,70.8,400.1,70.5z M400.1,68.5c0-0.3,0.2-0.5,0.5-0.5l0,0
							c0.3,0,0.5,0.2,0.5,0.5l0,0c0,0.3-0.2,0.5-0.5,0.5l0,0C400.3,69,400.1,68.8,400.1,68.5z M400.1,66.5c0-0.3,0.2-0.5,0.5-0.5
							l0,0c0.3,0,0.5,0.2,0.5,0.5l0,0c0,0.3-0.2,0.5-0.5,0.5l0,0C400.3,67,400.1,66.8,400.1,66.5z M400.1,64.5
							c0-0.3,0.2-0.5,0.5-0.5l0,0c0.3,0,0.5,0.2,0.5,0.5l0,0c0,0.3-0.2,0.5-0.5,0.5l0,0C400.3,65,400.1,64.8,400.1,64.5z
							 M400.1,62.5c0-0.3,0.2-0.5,0.5-0.5l0,0c0.3,0,0.5,0.2,0.5,0.5l0,0c0,0.3-0.2,0.5-0.5,0.5l0,0C400.3,63,400.1,62.8,400.1,62.5
							z M400.1,60.5c0-0.3,0.2-0.5,0.5-0.5l0,0c0.3,0,0.5,0.2,0.5,0.5l0,0c0,0.3-0.2,0.5-0.5,0.5l0,0
							C400.3,61,400.1,60.8,400.1,60.5z M400.1,58.5c0-0.3,0.2-0.5,0.5-0.5l0,0c0.3,0,0.5,0.2,0.5,0.5l0,0c0,0.3-0.2,0.5-0.5,0.5
							l0,0C400.3,59,400.1,58.8,400.1,58.5z M400.1,56.5c0-0.3,0.2-0.5,0.5-0.5l0,0c0.3,0,0.5,0.2,0.5,0.5l0,0
							c0,0.3-0.2,0.5-0.5,0.5l0,0C400.3,57,400.1,56.8,400.1,56.5z M400.1,54.5c0-0.3,0.2-0.5,0.5-0.5l0,0c0.3,0,0.5,0.2,0.5,0.5
							l0,0c0,0.3-0.2,0.5-0.5,0.5l0,0C400.3,55,400.1,54.8,400.1,54.5z M400.1,52.5c0-0.3,0.2-0.5,0.5-0.5l0,0
							c0.3,0,0.5,0.2,0.5,0.5l0,0c0,0.3-0.2,0.5-0.5,0.5l0,0C400.3,53,400.1,52.8,400.1,52.5z M400.1,50.5c0-0.3,0.2-0.5,0.5-0.5
							l0,0c0.3,0,0.5,0.2,0.5,0.5l0,0c0,0.3-0.2,0.5-0.5,0.5l0,0C400.3,51,400.1,50.8,400.1,50.5z M400.1,48.5
							c0-0.3,0.2-0.5,0.5-0.5l0,0c0.3,0,0.5,0.2,0.5,0.5l0,0c0,0.3-0.2,0.5-0.5,0.5l0,0C400.3,49,400.1,48.8,400.1,48.5z
							 M400.1,46.5c0-0.3,0.2-0.5,0.5-0.5l0,0c0.3,0,0.5,0.2,0.5,0.5l0,0c0,0.3-0.2,0.5-0.5,0.5l0,0C400.3,47,400.1,46.8,400.1,46.5
							z M400.1,44.5c0-0.3,0.2-0.5,0.5-0.5l0,0c0.3,0,0.5,0.2,0.5,0.5l0,0c0,0.3-0.2,0.5-0.5,0.5l0,0
							C400.3,45,400.1,44.8,400.1,44.5z M400.1,42.5c0-0.3,0.2-0.5,0.5-0.5l0,0c0.3,0,0.5,0.2,0.5,0.5l0,0c0,0.3-0.2,0.5-0.5,0.5
							l0,0C400.3,43,400.1,42.8,400.1,42.5z M400.1,40.5c0-0.3,0.2-0.5,0.5-0.5l0,0c0.3,0,0.5,0.2,0.5,0.5l0,0
							c0,0.3-0.2,0.5-0.5,0.5l0,0C400.3,41,400.1,40.8,400.1,40.5z M400.1,38.5c0-0.3,0.2-0.5,0.5-0.5l0,0c0.3,0,0.5,0.2,0.5,0.5
							l0,0c0,0.3-0.2,0.5-0.5,0.5l0,0C400.3,39,400.1,38.8,400.1,38.5z M400.1,36.5c0-0.3,0.2-0.5,0.5-0.5l0,0
							c0.3,0,0.5,0.2,0.5,0.5l0,0c0,0.3-0.2,0.5-0.5,0.5l0,0C400.3,37,400.1,36.8,400.1,36.5z M400.1,34.5c0-0.3,0.2-0.5,0.5-0.5
							l0,0c0.3,0,0.5,0.2,0.5,0.5l0,0c0,0.3-0.2,0.5-0.5,0.5l0,0C400.3,35,400.1,34.8,400.1,34.5z M400.1,32.5
							c0-0.3,0.2-0.5,0.5-0.5l0,0c0.3,0,0.5,0.2,0.5,0.5l0,0c0,0.3-0.2,0.5-0.5,0.5l0,0C400.3,33,400.1,32.8,400.1,32.5z
							 M400.1,30.5c0-0.3,0.2-0.5,0.5-0.5l0,0c0.3,0,0.5,0.2,0.5,0.5l0,0c0,0.3-0.2,0.5-0.5,0.5l0,0C400.3,31,400.1,30.8,400.1,30.5
							z M400.1,28.5c0-0.3,0.2-0.5,0.5-0.5l0,0c0.3,0,0.5,0.2,0.5,0.5l0,0c0,0.3-0.2,0.5-0.5,0.5l0,0
							C400.3,29,400.1,28.8,400.1,28.5z M400.1,26.5c0-0.3,0.2-0.5,0.5-0.5l0,0c0.3,0,0.5,0.2,0.5,0.5l0,0c0,0.3-0.2,0.5-0.5,0.5
							l0,0C400.3,27,400.1,26.8,400.1,26.5z M400.1,24.5c0-0.3,0.2-0.5,0.5-0.5l0,0c0.3,0,0.5,0.2,0.5,0.5l0,0
							c0,0.3-0.2,0.5-0.5,0.5l0,0C400.3,25,400.1,24.8,400.1,24.5z M400.1,22.5c0-0.3,0.2-0.5,0.5-0.5l0,0c0.3,0,0.5,0.2,0.5,0.5
							l0,0c0,0.3-0.2,0.5-0.5,0.5l0,0C400.3,23,400.1,22.8,400.1,22.5z M400.1,20.5c0-0.3,0.2-0.5,0.5-0.5l0,0
							c0.3,0,0.5,0.2,0.5,0.5l0,0c0,0.3-0.2,0.5-0.5,0.5l0,0C400.3,21,400.1,20.8,400.1,20.5z M400.1,18.5c0-0.3,0.2-0.5,0.5-0.5
							l0,0c0.3,0,0.5,0.2,0.5,0.5l0,0c0,0.3-0.2,0.5-0.5,0.5l0,0C400.3,19,400.1,18.8,400.1,18.5z M400.1,16.5
							c0-0.3,0.2-0.5,0.5-0.5l0,0c0.3,0,0.5,0.2,0.5,0.5l0,0c0,0.3-0.2,0.5-0.5,0.5l0,0C400.3,17,400.1,16.8,400.1,16.5z
							 M400.1,14.5c0-0.3,0.2-0.5,0.5-0.5l0,0c0.3,0,0.5,0.2,0.5,0.5l0,0c0,0.3-0.2,0.5-0.5,0.5l0,0C400.3,15,400.1,14.8,400.1,14.5
							z M400.1,12.5c0-0.3,0.2-0.5,0.5-0.5l0,0c0.3,0,0.5,0.2,0.5,0.5l0,0c0,0.3-0.2,0.5-0.5,0.5l0,0
							C400.3,13,400.1,12.8,400.1,12.5z M400.1,10.5c0-0.3,0.2-0.5,0.5-0.5l0,0c0.3,0,0.5,0.2,0.5,0.5l0,0c0,0.3-0.2,0.5-0.5,0.5
							l0,0C400.3,11,400.1,10.8,400.1,10.5z M400.1,8.5c0-0.3,0.2-0.5,0.5-0.5l0,0c0.3,0,0.5,0.2,0.5,0.5l0,0c0,0.3-0.2,0.5-0.5,0.5
							l0,0C400.3,9,400.1,8.8,400.1,8.5z M400.1,6.5c0-0.3,0.2-0.5,0.5-0.5l0,0c0.3,0,0.5,0.2,0.5,0.5l0,0c0,0.3-0.2,0.5-0.5,0.5
							l0,0C400.3,7,400.1,6.8,400.1,6.5z"/>
					</g>
				</g>
			</g>
			<g opacity="0.35">
				<g>
					<g>
						<path fill="#282828" d="M472.1,4.5c0-0.3,0.2-0.5,0.5-0.5l0,0c0.3,0,0.5,0.2,0.5,0.5l0,0c0,0.3-0.2,0.5-0.5,0.5l0,0
							C472.3,5,472.1,4.8,472.1,4.5z M472.1,2.5c0-0.3,0.2-0.5,0.5-0.5l0,0c0.3,0,0.5,0.2,0.5,0.5l0,0c0,0.3-0.2,0.5-0.5,0.5l0,0
							C472.3,3,472.1,2.8,472.1,2.5z M472.1,0.5c0-0.3,0.2-0.5,0.5-0.5l0,0c0.3,0,0.5,0.2,0.5,0.5l0,0c0,0.3-0.2,0.5-0.5,0.5l0,0
							C472.3,1,472.1,0.8,472.1,0.5z"/>
					</g>
					<g>
						<path fill="#282828" d="M472.1,200.5c0-0.3,0.2-0.5,0.5-0.5l0,0c0.3,0,0.5,0.2,0.5,0.5l0,0c0,0.3-0.2,0.5-0.5,0.5l0,0
							C472.3,201,472.1,200.8,472.1,200.5z M472.1,198.5c0-0.3,0.2-0.5,0.5-0.5l0,0c0.3,0,0.5,0.2,0.5,0.5l0,0
							c0,0.3-0.2,0.5-0.5,0.5l0,0C472.3,199,472.1,198.8,472.1,198.5z M472.1,196.5c0-0.3,0.2-0.5,0.5-0.5l0,0
							c0.3,0,0.5,0.2,0.5,0.5l0,0c0,0.3-0.2,0.5-0.5,0.5l0,0C472.3,197,472.1,196.8,472.1,196.5z M472.1,194.5
							c0-0.3,0.2-0.5,0.5-0.5l0,0c0.3,0,0.5,0.2,0.5,0.5l0,0c0,0.3-0.2,0.5-0.5,0.5l0,0C472.3,195,472.1,194.8,472.1,194.5z
							 M472.1,192.5c0-0.3,0.2-0.5,0.5-0.5l0,0c0.3,0,0.5,0.2,0.5,0.5l0,0c0,0.3-0.2,0.5-0.5,0.5l0,0
							C472.3,193,472.1,192.8,472.1,192.5z M472.1,190.5c0-0.3,0.2-0.5,0.5-0.5l0,0c0.3,0,0.5,0.2,0.5,0.5l0,0
							c0,0.3-0.2,0.5-0.5,0.5l0,0C472.3,191,472.1,190.8,472.1,190.5z M472.1,188.5c0-0.3,0.2-0.5,0.5-0.5l0,0
							c0.3,0,0.5,0.2,0.5,0.5l0,0c0,0.3-0.2,0.5-0.5,0.5l0,0C472.3,189,472.1,188.8,472.1,188.5z M472.1,186.5
							c0-0.3,0.2-0.5,0.5-0.5l0,0c0.3,0,0.5,0.2,0.5,0.5l0,0c0,0.3-0.2,0.5-0.5,0.5l0,0C472.3,187,472.1,186.8,472.1,186.5z
							 M472.1,184.5c0-0.3,0.2-0.5,0.5-0.5l0,0c0.3,0,0.5,0.2,0.5,0.5l0,0c0,0.3-0.2,0.5-0.5,0.5l0,0
							C472.3,185,472.1,184.8,472.1,184.5z M472.1,182.5c0-0.3,0.2-0.5,0.5-0.5l0,0c0.3,0,0.5,0.2,0.5,0.5l0,0
							c0,0.3-0.2,0.5-0.5,0.5l0,0C472.3,183,472.1,182.8,472.1,182.5z M472.1,180.5c0-0.3,0.2-0.5,0.5-0.5l0,0
							c0.3,0,0.5,0.2,0.5,0.5l0,0c0,0.3-0.2,0.5-0.5,0.5l0,0C472.3,181,472.1,180.8,472.1,180.5z M472.1,178.5
							c0-0.3,0.2-0.5,0.5-0.5l0,0c0.3,0,0.5,0.2,0.5,0.5l0,0c0,0.3-0.2,0.5-0.5,0.5l0,0C472.3,179,472.1,178.8,472.1,178.5z
							 M472.1,176.5c0-0.3,0.2-0.5,0.5-0.5l0,0c0.3,0,0.5,0.2,0.5,0.5l0,0c0,0.3-0.2,0.5-0.5,0.5l0,0
							C472.3,177,472.1,176.8,472.1,176.5z M472.1,174.5c0-0.3,0.2-0.5,0.5-0.5l0,0c0.3,0,0.5,0.2,0.5,0.5l0,0
							c0,0.3-0.2,0.5-0.5,0.5l0,0C472.3,175,472.1,174.8,472.1,174.5z M472.1,172.5c0-0.3,0.2-0.5,0.5-0.5l0,0
							c0.3,0,0.5,0.2,0.5,0.5l0,0c0,0.3-0.2,0.5-0.5,0.5l0,0C472.3,173,472.1,172.8,472.1,172.5z M472.1,170.5
							c0-0.3,0.2-0.5,0.5-0.5l0,0c0.3,0,0.5,0.2,0.5,0.5l0,0c0,0.3-0.2,0.5-0.5,0.5l0,0C472.3,171,472.1,170.8,472.1,170.5z
							 M472.1,168.5c0-0.3,0.2-0.5,0.5-0.5l0,0c0.3,0,0.5,0.2,0.5,0.5l0,0c0,0.3-0.2,0.5-0.5,0.5l0,0
							C472.3,169,472.1,168.8,472.1,168.5z M472.1,166.5c0-0.3,0.2-0.5,0.5-0.5l0,0c0.3,0,0.5,0.2,0.5,0.5l0,0
							c0,0.3-0.2,0.5-0.5,0.5l0,0C472.3,167,472.1,166.8,472.1,166.5z M472.1,164.5c0-0.3,0.2-0.5,0.5-0.5l0,0
							c0.3,0,0.5,0.2,0.5,0.5l0,0c0,0.3-0.2,0.5-0.5,0.5l0,0C472.3,165,472.1,164.8,472.1,164.5z M472.1,162.5
							c0-0.3,0.2-0.5,0.5-0.5l0,0c0.3,0,0.5,0.2,0.5,0.5l0,0c0,0.3-0.2,0.5-0.5,0.5l0,0C472.3,163,472.1,162.8,472.1,162.5z
							 M472.1,160.5c0-0.3,0.2-0.5,0.5-0.5l0,0c0.3,0,0.5,0.2,0.5,0.5l0,0c0,0.3-0.2,0.5-0.5,0.5l0,0
							C472.3,161,472.1,160.8,472.1,160.5z M472.1,158.5c0-0.3,0.2-0.5,0.5-0.5l0,0c0.3,0,0.5,0.2,0.5,0.5l0,0
							c0,0.3-0.2,0.5-0.5,0.5l0,0C472.3,159,472.1,158.8,472.1,158.5z M472.1,156.5c0-0.3,0.2-0.5,0.5-0.5l0,0
							c0.3,0,0.5,0.2,0.5,0.5l0,0c0,0.3-0.2,0.5-0.5,0.5l0,0C472.3,157,472.1,156.8,472.1,156.5z M472.1,154.5
							c0-0.3,0.2-0.5,0.5-0.5l0,0c0.3,0,0.5,0.2,0.5,0.5l0,0c0,0.3-0.2,0.5-0.5,0.5l0,0C472.3,155,472.1,154.8,472.1,154.5z
							 M472.1,152.5c0-0.3,0.2-0.5,0.5-0.5l0,0c0.3,0,0.5,0.2,0.5,0.5l0,0c0,0.3-0.2,0.5-0.5,0.5l0,0
							C472.3,153,472.1,152.8,472.1,152.5z M472.1,150.5c0-0.3,0.2-0.5,0.5-0.5l0,0c0.3,0,0.5,0.2,0.5,0.5l0,0
							c0,0.3-0.2,0.5-0.5,0.5l0,0C472.3,151,472.1,150.8,472.1,150.5z M472.1,148.5c0-0.3,0.2-0.5,0.5-0.5l0,0
							c0.3,0,0.5,0.2,0.5,0.5l0,0c0,0.3-0.2,0.5-0.5,0.5l0,0C472.3,149,472.1,148.8,472.1,148.5z M472.1,146.5
							c0-0.3,0.2-0.5,0.5-0.5l0,0c0.3,0,0.5,0.2,0.5,0.5l0,0c0,0.3-0.2,0.5-0.5,0.5l0,0C472.3,147,472.1,146.8,472.1,146.5z
							 M472.1,144.5c0-0.3,0.2-0.5,0.5-0.5l0,0c0.3,0,0.5,0.2,0.5,0.5l0,0c0,0.3-0.2,0.5-0.5,0.5l0,0
							C472.3,145,472.1,144.8,472.1,144.5z M472.1,142.5c0-0.3,0.2-0.5,0.5-0.5l0,0c0.3,0,0.5,0.2,0.5,0.5l0,0
							c0,0.3-0.2,0.5-0.5,0.5l0,0C472.3,143,472.1,142.8,472.1,142.5z M472.1,140.5c0-0.3,0.2-0.5,0.5-0.5l0,0
							c0.3,0,0.5,0.2,0.5,0.5l0,0c0,0.3-0.2,0.5-0.5,0.5l0,0C472.3,141,472.1,140.8,472.1,140.5z M472.1,138.5
							c0-0.3,0.2-0.5,0.5-0.5l0,0c0.3,0,0.5,0.2,0.5,0.5l0,0c0,0.3-0.2,0.5-0.5,0.5l0,0C472.3,139,472.1,138.8,472.1,138.5z
							 M472.1,136.5c0-0.3,0.2-0.5,0.5-0.5l0,0c0.3,0,0.5,0.2,0.5,0.5l0,0c0,0.3-0.2,0.5-0.5,0.5l0,0
							C472.3,137,472.1,136.8,472.1,136.5z M472.1,134.5c0-0.3,0.2-0.5,0.5-0.5l0,0c0.3,0,0.5,0.2,0.5,0.5l0,0
							c0,0.3-0.2,0.5-0.5,0.5l0,0C472.3,135,472.1,134.8,472.1,134.5z M472.1,132.5c0-0.3,0.2-0.5,0.5-0.5l0,0
							c0.3,0,0.5,0.2,0.5,0.5l0,0c0,0.3-0.2,0.5-0.5,0.5l0,0C472.3,133,472.1,132.8,472.1,132.5z M472.1,130.5
							c0-0.3,0.2-0.5,0.5-0.5l0,0c0.3,0,0.5,0.2,0.5,0.5l0,0c0,0.3-0.2,0.5-0.5,0.5l0,0C472.3,131,472.1,130.8,472.1,130.5z
							 M472.1,128.5c0-0.3,0.2-0.5,0.5-0.5l0,0c0.3,0,0.5,0.2,0.5,0.5l0,0c0,0.3-0.2,0.5-0.5,0.5l0,0
							C472.3,129,472.1,128.8,472.1,128.5z M472.1,126.5c0-0.3,0.2-0.5,0.5-0.5l0,0c0.3,0,0.5,0.2,0.5,0.5l0,0
							c0,0.3-0.2,0.5-0.5,0.5l0,0C472.3,127,472.1,126.8,472.1,126.5z M472.1,124.5c0-0.3,0.2-0.5,0.5-0.5l0,0
							c0.3,0,0.5,0.2,0.5,0.5l0,0c0,0.3-0.2,0.5-0.5,0.5l0,0C472.3,125,472.1,124.8,472.1,124.5z M472.1,122.5
							c0-0.3,0.2-0.5,0.5-0.5l0,0c0.3,0,0.5,0.2,0.5,0.5l0,0c0,0.3-0.2,0.5-0.5,0.5l0,0C472.3,123,472.1,122.8,472.1,122.5z
							 M472.1,120.5c0-0.3,0.2-0.5,0.5-0.5l0,0c0.3,0,0.5,0.2,0.5,0.5l0,0c0,0.3-0.2,0.5-0.5,0.5l0,0
							C472.3,121,472.1,120.8,472.1,120.5z M472.1,118.5c0-0.3,0.2-0.5,0.5-0.5l0,0c0.3,0,0.5,0.2,0.5,0.5l0,0
							c0,0.3-0.2,0.5-0.5,0.5l0,0C472.3,119,472.1,118.8,472.1,118.5z M472.1,116.5c0-0.3,0.2-0.5,0.5-0.5l0,0
							c0.3,0,0.5,0.2,0.5,0.5l0,0c0,0.3-0.2,0.5-0.5,0.5l0,0C472.3,117,472.1,116.8,472.1,116.5z M472.1,114.5
							c0-0.3,0.2-0.5,0.5-0.5l0,0c0.3,0,0.5,0.2,0.5,0.5l0,0c0,0.3-0.2,0.5-0.5,0.5l0,0C472.3,115,472.1,114.8,472.1,114.5z
							 M472.1,112.5c0-0.3,0.2-0.5,0.5-0.5l0,0c0.3,0,0.5,0.2,0.5,0.5l0,0c0,0.3-0.2,0.5-0.5,0.5l0,0
							C472.3,113,472.1,112.8,472.1,112.5z M472.1,110.5c0-0.3,0.2-0.5,0.5-0.5l0,0c0.3,0,0.5,0.2,0.5,0.5l0,0
							c0,0.3-0.2,0.5-0.5,0.5l0,0C472.3,111,472.1,110.8,472.1,110.5z M472.1,108.5c0-0.3,0.2-0.5,0.5-0.5l0,0
							c0.3,0,0.5,0.2,0.5,0.5l0,0c0,0.3-0.2,0.5-0.5,0.5l0,0C472.3,109,472.1,108.8,472.1,108.5z M472.1,106.5
							c0-0.3,0.2-0.5,0.5-0.5l0,0c0.3,0,0.5,0.2,0.5,0.5l0,0c0,0.3-0.2,0.5-0.5,0.5l0,0C472.3,107,472.1,106.8,472.1,106.5z
							 M472.1,104.5c0-0.3,0.2-0.5,0.5-0.5l0,0c0.3,0,0.5,0.2,0.5,0.5l0,0c0,0.3-0.2,0.5-0.5,0.5l0,0
							C472.3,105,472.1,104.8,472.1,104.5z M472.1,102.5c0-0.3,0.2-0.5,0.5-0.5l0,0c0.3,0,0.5,0.2,0.5,0.5l0,0
							c0,0.3-0.2,0.5-0.5,0.5l0,0C472.3,103,472.1,102.8,472.1,102.5z M472.1,100.5c0-0.3,0.2-0.5,0.5-0.5l0,0
							c0.3,0,0.5,0.2,0.5,0.5l0,0c0,0.3-0.2,0.5-0.5,0.5l0,0C472.3,101,472.1,100.8,472.1,100.5z M472.1,98.5c0-0.3,0.2-0.5,0.5-0.5
							l0,0c0.3,0,0.5,0.2,0.5,0.5l0,0c0,0.3-0.2,0.5-0.5,0.5l0,0C472.3,99,472.1,98.8,472.1,98.5z M472.1,96.5
							c0-0.3,0.2-0.5,0.5-0.5l0,0c0.3,0,0.5,0.2,0.5,0.5l0,0c0,0.3-0.2,0.5-0.5,0.5l0,0C472.3,97,472.1,96.8,472.1,96.5z
							 M472.1,94.5c0-0.3,0.2-0.5,0.5-0.5l0,0c0.3,0,0.5,0.2,0.5,0.5l0,0c0,0.3-0.2,0.5-0.5,0.5l0,0C472.3,95,472.1,94.8,472.1,94.5
							z M472.1,92.5c0-0.3,0.2-0.5,0.5-0.5l0,0c0.3,0,0.5,0.2,0.5,0.5l0,0c0,0.3-0.2,0.5-0.5,0.5l0,0
							C472.3,93,472.1,92.8,472.1,92.5z M472.1,90.5c0-0.3,0.2-0.5,0.5-0.5l0,0c0.3,0,0.5,0.2,0.5,0.5l0,0c0,0.3-0.2,0.5-0.5,0.5
							l0,0C472.3,91,472.1,90.8,472.1,90.5z M472.1,88.5c0-0.3,0.2-0.5,0.5-0.5l0,0c0.3,0,0.5,0.2,0.5,0.5l0,0
							c0,0.3-0.2,0.5-0.5,0.5l0,0C472.3,89,472.1,88.8,472.1,88.5z M472.1,86.5c0-0.3,0.2-0.5,0.5-0.5l0,0c0.3,0,0.5,0.2,0.5,0.5
							l0,0c0,0.3-0.2,0.5-0.5,0.5l0,0C472.3,87,472.1,86.8,472.1,86.5z M472.1,84.5c0-0.3,0.2-0.5,0.5-0.5l0,0
							c0.3,0,0.5,0.2,0.5,0.5l0,0c0,0.3-0.2,0.5-0.5,0.5l0,0C472.3,85,472.1,84.8,472.1,84.5z M472.1,82.5c0-0.3,0.2-0.5,0.5-0.5
							l0,0c0.3,0,0.5,0.2,0.5,0.5l0,0c0,0.3-0.2,0.5-0.5,0.5l0,0C472.3,83,472.1,82.8,472.1,82.5z M472.1,80.5
							c0-0.3,0.2-0.5,0.5-0.5l0,0c0.3,0,0.5,0.2,0.5,0.5l0,0c0,0.3-0.2,0.5-0.5,0.5l0,0C472.3,81,472.1,80.8,472.1,80.5z
							 M472.1,78.5c0-0.3,0.2-0.5,0.5-0.5l0,0c0.3,0,0.5,0.2,0.5,0.5l0,0c0,0.3-0.2,0.5-0.5,0.5l0,0C472.3,79,472.1,78.8,472.1,78.5
							z M472.1,76.5c0-0.3,0.2-0.5,0.5-0.5l0,0c0.3,0,0.5,0.2,0.5,0.5l0,0c0,0.3-0.2,0.5-0.5,0.5l0,0
							C472.3,77,472.1,76.8,472.1,76.5z M472.1,74.5c0-0.3,0.2-0.5,0.5-0.5l0,0c0.3,0,0.5,0.2,0.5,0.5l0,0c0,0.3-0.2,0.5-0.5,0.5
							l0,0C472.3,75,472.1,74.8,472.1,74.5z M472.1,72.5c0-0.3,0.2-0.5,0.5-0.5l0,0c0.3,0,0.5,0.2,0.5,0.5l0,0
							c0,0.3-0.2,0.5-0.5,0.5l0,0C472.3,73,472.1,72.8,472.1,72.5z M472.1,70.5c0-0.3,0.2-0.5,0.5-0.5l0,0c0.3,0,0.5,0.2,0.5,0.5
							l0,0c0,0.3-0.2,0.5-0.5,0.5l0,0C472.3,71,472.1,70.8,472.1,70.5z M472.1,68.5c0-0.3,0.2-0.5,0.5-0.5l0,0
							c0.3,0,0.5,0.2,0.5,0.5l0,0c0,0.3-0.2,0.5-0.5,0.5l0,0C472.3,69,472.1,68.8,472.1,68.5z M472.1,66.5c0-0.3,0.2-0.5,0.5-0.5
							l0,0c0.3,0,0.5,0.2,0.5,0.5l0,0c0,0.3-0.2,0.5-0.5,0.5l0,0C472.3,67,472.1,66.8,472.1,66.5z M472.1,64.5
							c0-0.3,0.2-0.5,0.5-0.5l0,0c0.3,0,0.5,0.2,0.5,0.5l0,0c0,0.3-0.2,0.5-0.5,0.5l0,0C472.3,65,472.1,64.8,472.1,64.5z
							 M472.1,62.5c0-0.3,0.2-0.5,0.5-0.5l0,0c0.3,0,0.5,0.2,0.5,0.5l0,0c0,0.3-0.2,0.5-0.5,0.5l0,0C472.3,63,472.1,62.8,472.1,62.5
							z M472.1,60.5c0-0.3,0.2-0.5,0.5-0.5l0,0c0.3,0,0.5,0.2,0.5,0.5l0,0c0,0.3-0.2,0.5-0.5,0.5l0,0
							C472.3,61,472.1,60.8,472.1,60.5z M472.1,58.5c0-0.3,0.2-0.5,0.5-0.5l0,0c0.3,0,0.5,0.2,0.5,0.5l0,0c0,0.3-0.2,0.5-0.5,0.5
							l0,0C472.3,59,472.1,58.8,472.1,58.5z M472.1,56.5c0-0.3,0.2-0.5,0.5-0.5l0,0c0.3,0,0.5,0.2,0.5,0.5l0,0
							c0,0.3-0.2,0.5-0.5,0.5l0,0C472.3,57,472.1,56.8,472.1,56.5z M472.1,54.5c0-0.3,0.2-0.5,0.5-0.5l0,0c0.3,0,0.5,0.2,0.5,0.5
							l0,0c0,0.3-0.2,0.5-0.5,0.5l0,0C472.3,55,472.1,54.8,472.1,54.5z M472.1,52.5c0-0.3,0.2-0.5,0.5-0.5l0,0
							c0.3,0,0.5,0.2,0.5,0.5l0,0c0,0.3-0.2,0.5-0.5,0.5l0,0C472.3,53,472.1,52.8,472.1,52.5z M472.1,50.5c0-0.3,0.2-0.5,0.5-0.5
							l0,0c0.3,0,0.5,0.2,0.5,0.5l0,0c0,0.3-0.2,0.5-0.5,0.5l0,0C472.3,51,472.1,50.8,472.1,50.5z M472.1,48.5
							c0-0.3,0.2-0.5,0.5-0.5l0,0c0.3,0,0.5,0.2,0.5,0.5l0,0c0,0.3-0.2,0.5-0.5,0.5l0,0C472.3,49,472.1,48.8,472.1,48.5z
							 M472.1,46.5c0-0.3,0.2-0.5,0.5-0.5l0,0c0.3,0,0.5,0.2,0.5,0.5l0,0c0,0.3-0.2,0.5-0.5,0.5l0,0C472.3,47,472.1,46.8,472.1,46.5
							z M472.1,44.5c0-0.3,0.2-0.5,0.5-0.5l0,0c0.3,0,0.5,0.2,0.5,0.5l0,0c0,0.3-0.2,0.5-0.5,0.5l0,0
							C472.3,45,472.1,44.8,472.1,44.5z M472.1,42.5c0-0.3,0.2-0.5,0.5-0.5l0,0c0.3,0,0.5,0.2,0.5,0.5l0,0c0,0.3-0.2,0.5-0.5,0.5
							l0,0C472.3,43,472.1,42.8,472.1,42.5z M472.1,40.5c0-0.3,0.2-0.5,0.5-0.5l0,0c0.3,0,0.5,0.2,0.5,0.5l0,0
							c0,0.3-0.2,0.5-0.5,0.5l0,0C472.3,41,472.1,40.8,472.1,40.5z M472.1,38.5c0-0.3,0.2-0.5,0.5-0.5l0,0c0.3,0,0.5,0.2,0.5,0.5
							l0,0c0,0.3-0.2,0.5-0.5,0.5l0,0C472.3,39,472.1,38.8,472.1,38.5z M472.1,36.5c0-0.3,0.2-0.5,0.5-0.5l0,0
							c0.3,0,0.5,0.2,0.5,0.5l0,0c0,0.3-0.2,0.5-0.5,0.5l0,0C472.3,37,472.1,36.8,472.1,36.5z M472.1,34.5c0-0.3,0.2-0.5,0.5-0.5
							l0,0c0.3,0,0.5,0.2,0.5,0.5l0,0c0,0.3-0.2,0.5-0.5,0.5l0,0C472.3,35,472.1,34.8,472.1,34.5z M472.1,32.5
							c0-0.3,0.2-0.5,0.5-0.5l0,0c0.3,0,0.5,0.2,0.5,0.5l0,0c0,0.3-0.2,0.5-0.5,0.5l0,0C472.3,33,472.1,32.8,472.1,32.5z
							 M472.1,30.5c0-0.3,0.2-0.5,0.5-0.5l0,0c0.3,0,0.5,0.2,0.5,0.5l0,0c0,0.3-0.2,0.5-0.5,0.5l0,0C472.3,31,472.1,30.8,472.1,30.5
							z M472.1,28.5c0-0.3,0.2-0.5,0.5-0.5l0,0c0.3,0,0.5,0.2,0.5,0.5l0,0c0,0.3-0.2,0.5-0.5,0.5l0,0
							C472.3,29,472.1,28.8,472.1,28.5z M472.1,26.5c0-0.3,0.2-0.5,0.5-0.5l0,0c0.3,0,0.5,0.2,0.5,0.5l0,0c0,0.3-0.2,0.5-0.5,0.5
							l0,0C472.3,27,472.1,26.8,472.1,26.5z M472.1,24.5c0-0.3,0.2-0.5,0.5-0.5l0,0c0.3,0,0.5,0.2,0.5,0.5l0,0
							c0,0.3-0.2,0.5-0.5,0.5l0,0C472.3,25,472.1,24.8,472.1,24.5z M472.1,22.5c0-0.3,0.2-0.5,0.5-0.5l0,0c0.3,0,0.5,0.2,0.5,0.5
							l0,0c0,0.3-0.2,0.5-0.5,0.5l0,0C472.3,23,472.1,22.8,472.1,22.5z M472.1,20.5c0-0.3,0.2-0.5,0.5-0.5l0,0
							c0.3,0,0.5,0.2,0.5,0.5l0,0c0,0.3-0.2,0.5-0.5,0.5l0,0C472.3,21,472.1,20.8,472.1,20.5z M472.1,18.5c0-0.3,0.2-0.5,0.5-0.5
							l0,0c0.3,0,0.5,0.2,0.5,0.5l0,0c0,0.3-0.2,0.5-0.5,0.5l0,0C472.3,19,472.1,18.8,472.1,18.5z M472.1,16.5
							c0-0.3,0.2-0.5,0.5-0.5l0,0c0.3,0,0.5,0.2,0.5,0.5l0,0c0,0.3-0.2,0.5-0.5,0.5l0,0C472.3,17,472.1,16.8,472.1,16.5z
							 M472.1,14.5c0-0.3,0.2-0.5,0.5-0.5l0,0c0.3,0,0.5,0.2,0.5,0.5l0,0c0,0.3-0.2,0.5-0.5,0.5l0,0C472.3,15,472.1,14.8,472.1,14.5
							z M472.1,12.5c0-0.3,0.2-0.5,0.5-0.5l0,0c0.3,0,0.5,0.2,0.5,0.5l0,0c0,0.3-0.2,0.5-0.5,0.5l0,0
							C472.3,13,472.1,12.8,472.1,12.5z M472.1,10.5c0-0.3,0.2-0.5,0.5-0.5l0,0c0.3,0,0.5,0.2,0.5,0.5l0,0c0,0.3-0.2,0.5-0.5,0.5
							l0,0C472.3,11,472.1,10.8,472.1,10.5z M472.1,8.5c0-0.3,0.2-0.5,0.5-0.5l0,0c0.3,0,0.5,0.2,0.5,0.5l0,0c0,0.3-0.2,0.5-0.5,0.5
							l0,0C472.3,9,472.1,8.8,472.1,8.5z M472.1,6.5c0-0.3,0.2-0.5,0.5-0.5l0,0c0.3,0,0.5,0.2,0.5,0.5l0,0c0,0.3-0.2,0.5-0.5,0.5
							l0,0C472.3,7,472.1,6.8,472.1,6.5z"/>
					</g>
				</g>
			</g>
			<g opacity="0.35">
				<g>
					<g>
						<path fill="#282828" d="M545.1,4.5c0-0.3,0.2-0.5,0.5-0.5l0,0c0.3,0,0.5,0.2,0.5,0.5l0,0c0,0.3-0.2,0.5-0.5,0.5l0,0
							C545.3,5,545.1,4.8,545.1,4.5z M545.1,2.5c0-0.3,0.2-0.5,0.5-0.5l0,0c0.3,0,0.5,0.2,0.5,0.5l0,0c0,0.3-0.2,0.5-0.5,0.5l0,0
							C545.3,3,545.1,2.8,545.1,2.5z M545.1,0.5c0-0.3,0.2-0.5,0.5-0.5l0,0c0.3,0,0.5,0.2,0.5,0.5l0,0c0,0.3-0.2,0.5-0.5,0.5l0,0
							C545.3,1,545.1,0.8,545.1,0.5z"/>
					</g>
					<g>
						<path fill="#282828" d="M545.1,200.5c0-0.3,0.2-0.5,0.5-0.5l0,0c0.3,0,0.5,0.2,0.5,0.5l0,0c0,0.3-0.2,0.5-0.5,0.5l0,0
							C545.3,201,545.1,200.8,545.1,200.5z M545.1,198.5c0-0.3,0.2-0.5,0.5-0.5l0,0c0.3,0,0.5,0.2,0.5,0.5l0,0
							c0,0.3-0.2,0.5-0.5,0.5l0,0C545.3,199,545.1,198.8,545.1,198.5z M545.1,196.5c0-0.3,0.2-0.5,0.5-0.5l0,0
							c0.3,0,0.5,0.2,0.5,0.5l0,0c0,0.3-0.2,0.5-0.5,0.5l0,0C545.3,197,545.1,196.8,545.1,196.5z M545.1,194.5
							c0-0.3,0.2-0.5,0.5-0.5l0,0c0.3,0,0.5,0.2,0.5,0.5l0,0c0,0.3-0.2,0.5-0.5,0.5l0,0C545.3,195,545.1,194.8,545.1,194.5z
							 M545.1,192.5c0-0.3,0.2-0.5,0.5-0.5l0,0c0.3,0,0.5,0.2,0.5,0.5l0,0c0,0.3-0.2,0.5-0.5,0.5l0,0
							C545.3,193,545.1,192.8,545.1,192.5z M545.1,190.5c0-0.3,0.2-0.5,0.5-0.5l0,0c0.3,0,0.5,0.2,0.5,0.5l0,0
							c0,0.3-0.2,0.5-0.5,0.5l0,0C545.3,191,545.1,190.8,545.1,190.5z M545.1,188.5c0-0.3,0.2-0.5,0.5-0.5l0,0
							c0.3,0,0.5,0.2,0.5,0.5l0,0c0,0.3-0.2,0.5-0.5,0.5l0,0C545.3,189,545.1,188.8,545.1,188.5z M545.1,186.5
							c0-0.3,0.2-0.5,0.5-0.5l0,0c0.3,0,0.5,0.2,0.5,0.5l0,0c0,0.3-0.2,0.5-0.5,0.5l0,0C545.3,187,545.1,186.8,545.1,186.5z
							 M545.1,184.5c0-0.3,0.2-0.5,0.5-0.5l0,0c0.3,0,0.5,0.2,0.5,0.5l0,0c0,0.3-0.2,0.5-0.5,0.5l0,0
							C545.3,185,545.1,184.8,545.1,184.5z M545.1,182.5c0-0.3,0.2-0.5,0.5-0.5l0,0c0.3,0,0.5,0.2,0.5,0.5l0,0
							c0,0.3-0.2,0.5-0.5,0.5l0,0C545.3,183,545.1,182.8,545.1,182.5z M545.1,180.5c0-0.3,0.2-0.5,0.5-0.5l0,0
							c0.3,0,0.5,0.2,0.5,0.5l0,0c0,0.3-0.2,0.5-0.5,0.5l0,0C545.3,181,545.1,180.8,545.1,180.5z M545.1,178.5
							c0-0.3,0.2-0.5,0.5-0.5l0,0c0.3,0,0.5,0.2,0.5,0.5l0,0c0,0.3-0.2,0.5-0.5,0.5l0,0C545.3,179,545.1,178.8,545.1,178.5z
							 M545.1,176.5c0-0.3,0.2-0.5,0.5-0.5l0,0c0.3,0,0.5,0.2,0.5,0.5l0,0c0,0.3-0.2,0.5-0.5,0.5l0,0
							C545.3,177,545.1,176.8,545.1,176.5z M545.1,174.5c0-0.3,0.2-0.5,0.5-0.5l0,0c0.3,0,0.5,0.2,0.5,0.5l0,0
							c0,0.3-0.2,0.5-0.5,0.5l0,0C545.3,175,545.1,174.8,545.1,174.5z M545.1,172.5c0-0.3,0.2-0.5,0.5-0.5l0,0
							c0.3,0,0.5,0.2,0.5,0.5l0,0c0,0.3-0.2,0.5-0.5,0.5l0,0C545.3,173,545.1,172.8,545.1,172.5z M545.1,170.5
							c0-0.3,0.2-0.5,0.5-0.5l0,0c0.3,0,0.5,0.2,0.5,0.5l0,0c0,0.3-0.2,0.5-0.5,0.5l0,0C545.3,171,545.1,170.8,545.1,170.5z
							 M545.1,168.5c0-0.3,0.2-0.5,0.5-0.5l0,0c0.3,0,0.5,0.2,0.5,0.5l0,0c0,0.3-0.2,0.5-0.5,0.5l0,0
							C545.3,169,545.1,168.8,545.1,168.5z M545.1,166.5c0-0.3,0.2-0.5,0.5-0.5l0,0c0.3,0,0.5,0.2,0.5,0.5l0,0
							c0,0.3-0.2,0.5-0.5,0.5l0,0C545.3,167,545.1,166.8,545.1,166.5z M545.1,164.5c0-0.3,0.2-0.5,0.5-0.5l0,0
							c0.3,0,0.5,0.2,0.5,0.5l0,0c0,0.3-0.2,0.5-0.5,0.5l0,0C545.3,165,545.1,164.8,545.1,164.5z M545.1,162.5
							c0-0.3,0.2-0.5,0.5-0.5l0,0c0.3,0,0.5,0.2,0.5,0.5l0,0c0,0.3-0.2,0.5-0.5,0.5l0,0C545.3,163,545.1,162.8,545.1,162.5z
							 M545.1,160.5c0-0.3,0.2-0.5,0.5-0.5l0,0c0.3,0,0.5,0.2,0.5,0.5l0,0c0,0.3-0.2,0.5-0.5,0.5l0,0
							C545.3,161,545.1,160.8,545.1,160.5z M545.1,158.5c0-0.3,0.2-0.5,0.5-0.5l0,0c0.3,0,0.5,0.2,0.5,0.5l0,0
							c0,0.3-0.2,0.5-0.5,0.5l0,0C545.3,159,545.1,158.8,545.1,158.5z M545.1,156.5c0-0.3,0.2-0.5,0.5-0.5l0,0
							c0.3,0,0.5,0.2,0.5,0.5l0,0c0,0.3-0.2,0.5-0.5,0.5l0,0C545.3,157,545.1,156.8,545.1,156.5z M545.1,154.5
							c0-0.3,0.2-0.5,0.5-0.5l0,0c0.3,0,0.5,0.2,0.5,0.5l0,0c0,0.3-0.2,0.5-0.5,0.5l0,0C545.3,155,545.1,154.8,545.1,154.5z
							 M545.1,152.5c0-0.3,0.2-0.5,0.5-0.5l0,0c0.3,0,0.5,0.2,0.5,0.5l0,0c0,0.3-0.2,0.5-0.5,0.5l0,0
							C545.3,153,545.1,152.8,545.1,152.5z M545.1,150.5c0-0.3,0.2-0.5,0.5-0.5l0,0c0.3,0,0.5,0.2,0.5,0.5l0,0
							c0,0.3-0.2,0.5-0.5,0.5l0,0C545.3,151,545.1,150.8,545.1,150.5z M545.1,148.5c0-0.3,0.2-0.5,0.5-0.5l0,0
							c0.3,0,0.5,0.2,0.5,0.5l0,0c0,0.3-0.2,0.5-0.5,0.5l0,0C545.3,149,545.1,148.8,545.1,148.5z M545.1,146.5
							c0-0.3,0.2-0.5,0.5-0.5l0,0c0.3,0,0.5,0.2,0.5,0.5l0,0c0,0.3-0.2,0.5-0.5,0.5l0,0C545.3,147,545.1,146.8,545.1,146.5z
							 M545.1,144.5c0-0.3,0.2-0.5,0.5-0.5l0,0c0.3,0,0.5,0.2,0.5,0.5l0,0c0,0.3-0.2,0.5-0.5,0.5l0,0
							C545.3,145,545.1,144.8,545.1,144.5z M545.1,142.5c0-0.3,0.2-0.5,0.5-0.5l0,0c0.3,0,0.5,0.2,0.5,0.5l0,0
							c0,0.3-0.2,0.5-0.5,0.5l0,0C545.3,143,545.1,142.8,545.1,142.5z M545.1,140.5c0-0.3,0.2-0.5,0.5-0.5l0,0
							c0.3,0,0.5,0.2,0.5,0.5l0,0c0,0.3-0.2,0.5-0.5,0.5l0,0C545.3,141,545.1,140.8,545.1,140.5z M545.1,138.5
							c0-0.3,0.2-0.5,0.5-0.5l0,0c0.3,0,0.5,0.2,0.5,0.5l0,0c0,0.3-0.2,0.5-0.5,0.5l0,0C545.3,139,545.1,138.8,545.1,138.5z
							 M545.1,136.5c0-0.3,0.2-0.5,0.5-0.5l0,0c0.3,0,0.5,0.2,0.5,0.5l0,0c0,0.3-0.2,0.5-0.5,0.5l0,0
							C545.3,137,545.1,136.8,545.1,136.5z M545.1,134.5c0-0.3,0.2-0.5,0.5-0.5l0,0c0.3,0,0.5,0.2,0.5,0.5l0,0
							c0,0.3-0.2,0.5-0.5,0.5l0,0C545.3,135,545.1,134.8,545.1,134.5z M545.1,132.5c0-0.3,0.2-0.5,0.5-0.5l0,0
							c0.3,0,0.5,0.2,0.5,0.5l0,0c0,0.3-0.2,0.5-0.5,0.5l0,0C545.3,133,545.1,132.8,545.1,132.5z M545.1,130.5
							c0-0.3,0.2-0.5,0.5-0.5l0,0c0.3,0,0.5,0.2,0.5,0.5l0,0c0,0.3-0.2,0.5-0.5,0.5l0,0C545.3,131,545.1,130.8,545.1,130.5z
							 M545.1,128.5c0-0.3,0.2-0.5,0.5-0.5l0,0c0.3,0,0.5,0.2,0.5,0.5l0,0c0,0.3-0.2,0.5-0.5,0.5l0,0
							C545.3,129,545.1,128.8,545.1,128.5z M545.1,126.5c0-0.3,0.2-0.5,0.5-0.5l0,0c0.3,0,0.5,0.2,0.5,0.5l0,0
							c0,0.3-0.2,0.5-0.5,0.5l0,0C545.3,127,545.1,126.8,545.1,126.5z M545.1,124.5c0-0.3,0.2-0.5,0.5-0.5l0,0
							c0.3,0,0.5,0.2,0.5,0.5l0,0c0,0.3-0.2,0.5-0.5,0.5l0,0C545.3,125,545.1,124.8,545.1,124.5z M545.1,122.5
							c0-0.3,0.2-0.5,0.5-0.5l0,0c0.3,0,0.5,0.2,0.5,0.5l0,0c0,0.3-0.2,0.5-0.5,0.5l0,0C545.3,123,545.1,122.8,545.1,122.5z
							 M545.1,120.5c0-0.3,0.2-0.5,0.5-0.5l0,0c0.3,0,0.5,0.2,0.5,0.5l0,0c0,0.3-0.2,0.5-0.5,0.5l0,0
							C545.3,121,545.1,120.8,545.1,120.5z M545.1,118.5c0-0.3,0.2-0.5,0.5-0.5l0,0c0.3,0,0.5,0.2,0.5,0.5l0,0
							c0,0.3-0.2,0.5-0.5,0.5l0,0C545.3,119,545.1,118.8,545.1,118.5z M545.1,116.5c0-0.3,0.2-0.5,0.5-0.5l0,0
							c0.3,0,0.5,0.2,0.5,0.5l0,0c0,0.3-0.2,0.5-0.5,0.5l0,0C545.3,117,545.1,116.8,545.1,116.5z M545.1,114.5
							c0-0.3,0.2-0.5,0.5-0.5l0,0c0.3,0,0.5,0.2,0.5,0.5l0,0c0,0.3-0.2,0.5-0.5,0.5l0,0C545.3,115,545.1,114.8,545.1,114.5z
							 M545.1,112.5c0-0.3,0.2-0.5,0.5-0.5l0,0c0.3,0,0.5,0.2,0.5,0.5l0,0c0,0.3-0.2,0.5-0.5,0.5l0,0
							C545.3,113,545.1,112.8,545.1,112.5z M545.1,110.5c0-0.3,0.2-0.5,0.5-0.5l0,0c0.3,0,0.5,0.2,0.5,0.5l0,0
							c0,0.3-0.2,0.5-0.5,0.5l0,0C545.3,111,545.1,110.8,545.1,110.5z M545.1,108.5c0-0.3,0.2-0.5,0.5-0.5l0,0
							c0.3,0,0.5,0.2,0.5,0.5l0,0c0,0.3-0.2,0.5-0.5,0.5l0,0C545.3,109,545.1,108.8,545.1,108.5z M545.1,106.5
							c0-0.3,0.2-0.5,0.5-0.5l0,0c0.3,0,0.5,0.2,0.5,0.5l0,0c0,0.3-0.2,0.5-0.5,0.5l0,0C545.3,107,545.1,106.8,545.1,106.5z
							 M545.1,104.5c0-0.3,0.2-0.5,0.5-0.5l0,0c0.3,0,0.5,0.2,0.5,0.5l0,0c0,0.3-0.2,0.5-0.5,0.5l0,0
							C545.3,105,545.1,104.8,545.1,104.5z M545.1,102.5c0-0.3,0.2-0.5,0.5-0.5l0,0c0.3,0,0.5,0.2,0.5,0.5l0,0
							c0,0.3-0.2,0.5-0.5,0.5l0,0C545.3,103,545.1,102.8,545.1,102.5z M545.1,100.5c0-0.3,0.2-0.5,0.5-0.5l0,0
							c0.3,0,0.5,0.2,0.5,0.5l0,0c0,0.3-0.2,0.5-0.5,0.5l0,0C545.3,101,545.1,100.8,545.1,100.5z M545.1,98.5c0-0.3,0.2-0.5,0.5-0.5
							l0,0c0.3,0,0.5,0.2,0.5,0.5l0,0c0,0.3-0.2,0.5-0.5,0.5l0,0C545.3,99,545.1,98.8,545.1,98.5z M545.1,96.5
							c0-0.3,0.2-0.5,0.5-0.5l0,0c0.3,0,0.5,0.2,0.5,0.5l0,0c0,0.3-0.2,0.5-0.5,0.5l0,0C545.3,97,545.1,96.8,545.1,96.5z
							 M545.1,94.5c0-0.3,0.2-0.5,0.5-0.5l0,0c0.3,0,0.5,0.2,0.5,0.5l0,0c0,0.3-0.2,0.5-0.5,0.5l0,0C545.3,95,545.1,94.8,545.1,94.5
							z M545.1,92.5c0-0.3,0.2-0.5,0.5-0.5l0,0c0.3,0,0.5,0.2,0.5,0.5l0,0c0,0.3-0.2,0.5-0.5,0.5l0,0
							C545.3,93,545.1,92.8,545.1,92.5z M545.1,90.5c0-0.3,0.2-0.5,0.5-0.5l0,0c0.3,0,0.5,0.2,0.5,0.5l0,0c0,0.3-0.2,0.5-0.5,0.5
							l0,0C545.3,91,545.1,90.8,545.1,90.5z M545.1,88.5c0-0.3,0.2-0.5,0.5-0.5l0,0c0.3,0,0.5,0.2,0.5,0.5l0,0
							c0,0.3-0.2,0.5-0.5,0.5l0,0C545.3,89,545.1,88.8,545.1,88.5z M545.1,86.5c0-0.3,0.2-0.5,0.5-0.5l0,0c0.3,0,0.5,0.2,0.5,0.5
							l0,0c0,0.3-0.2,0.5-0.5,0.5l0,0C545.3,87,545.1,86.8,545.1,86.5z M545.1,84.5c0-0.3,0.2-0.5,0.5-0.5l0,0
							c0.3,0,0.5,0.2,0.5,0.5l0,0c0,0.3-0.2,0.5-0.5,0.5l0,0C545.3,85,545.1,84.8,545.1,84.5z M545.1,82.5c0-0.3,0.2-0.5,0.5-0.5
							l0,0c0.3,0,0.5,0.2,0.5,0.5l0,0c0,0.3-0.2,0.5-0.5,0.5l0,0C545.3,83,545.1,82.8,545.1,82.5z M545.1,80.5
							c0-0.3,0.2-0.5,0.5-0.5l0,0c0.3,0,0.5,0.2,0.5,0.5l0,0c0,0.3-0.2,0.5-0.5,0.5l0,0C545.3,81,545.1,80.8,545.1,80.5z
							 M545.1,78.5c0-0.3,0.2-0.5,0.5-0.5l0,0c0.3,0,0.5,0.2,0.5,0.5l0,0c0,0.3-0.2,0.5-0.5,0.5l0,0C545.3,79,545.1,78.8,545.1,78.5
							z M545.1,76.5c0-0.3,0.2-0.5,0.5-0.5l0,0c0.3,0,0.5,0.2,0.5,0.5l0,0c0,0.3-0.2,0.5-0.5,0.5l0,0
							C545.3,77,545.1,76.8,545.1,76.5z M545.1,74.5c0-0.3,0.2-0.5,0.5-0.5l0,0c0.3,0,0.5,0.2,0.5,0.5l0,0c0,0.3-0.2,0.5-0.5,0.5
							l0,0C545.3,75,545.1,74.8,545.1,74.5z M545.1,72.5c0-0.3,0.2-0.5,0.5-0.5l0,0c0.3,0,0.5,0.2,0.5,0.5l0,0
							c0,0.3-0.2,0.5-0.5,0.5l0,0C545.3,73,545.1,72.8,545.1,72.5z M545.1,70.5c0-0.3,0.2-0.5,0.5-0.5l0,0c0.3,0,0.5,0.2,0.5,0.5
							l0,0c0,0.3-0.2,0.5-0.5,0.5l0,0C545.3,71,545.1,70.8,545.1,70.5z M545.1,68.5c0-0.3,0.2-0.5,0.5-0.5l0,0
							c0.3,0,0.5,0.2,0.5,0.5l0,0c0,0.3-0.2,0.5-0.5,0.5l0,0C545.3,69,545.1,68.8,545.1,68.5z M545.1,66.5c0-0.3,0.2-0.5,0.5-0.5
							l0,0c0.3,0,0.5,0.2,0.5,0.5l0,0c0,0.3-0.2,0.5-0.5,0.5l0,0C545.3,67,545.1,66.8,545.1,66.5z M545.1,64.5
							c0-0.3,0.2-0.5,0.5-0.5l0,0c0.3,0,0.5,0.2,0.5,0.5l0,0c0,0.3-0.2,0.5-0.5,0.5l0,0C545.3,65,545.1,64.8,545.1,64.5z
							 M545.1,62.5c0-0.3,0.2-0.5,0.5-0.5l0,0c0.3,0,0.5,0.2,0.5,0.5l0,0c0,0.3-0.2,0.5-0.5,0.5l0,0C545.3,63,545.1,62.8,545.1,62.5
							z M545.1,60.5c0-0.3,0.2-0.5,0.5-0.5l0,0c0.3,0,0.5,0.2,0.5,0.5l0,0c0,0.3-0.2,0.5-0.5,0.5l0,0
							C545.3,61,545.1,60.8,545.1,60.5z M545.1,58.5c0-0.3,0.2-0.5,0.5-0.5l0,0c0.3,0,0.5,0.2,0.5,0.5l0,0c0,0.3-0.2,0.5-0.5,0.5
							l0,0C545.3,59,545.1,58.8,545.1,58.5z M545.1,56.5c0-0.3,0.2-0.5,0.5-0.5l0,0c0.3,0,0.5,0.2,0.5,0.5l0,0
							c0,0.3-0.2,0.5-0.5,0.5l0,0C545.3,57,545.1,56.8,545.1,56.5z M545.1,54.5c0-0.3,0.2-0.5,0.5-0.5l0,0c0.3,0,0.5,0.2,0.5,0.5
							l0,0c0,0.3-0.2,0.5-0.5,0.5l0,0C545.3,55,545.1,54.8,545.1,54.5z M545.1,52.5c0-0.3,0.2-0.5,0.5-0.5l0,0
							c0.3,0,0.5,0.2,0.5,0.5l0,0c0,0.3-0.2,0.5-0.5,0.5l0,0C545.3,53,545.1,52.8,545.1,52.5z M545.1,50.5c0-0.3,0.2-0.5,0.5-0.5
							l0,0c0.3,0,0.5,0.2,0.5,0.5l0,0c0,0.3-0.2,0.5-0.5,0.5l0,0C545.3,51,545.1,50.8,545.1,50.5z M545.1,48.5
							c0-0.3,0.2-0.5,0.5-0.5l0,0c0.3,0,0.5,0.2,0.5,0.5l0,0c0,0.3-0.2,0.5-0.5,0.5l0,0C545.3,49,545.1,48.8,545.1,48.5z
							 M545.1,46.5c0-0.3,0.2-0.5,0.5-0.5l0,0c0.3,0,0.5,0.2,0.5,0.5l0,0c0,0.3-0.2,0.5-0.5,0.5l0,0C545.3,47,545.1,46.8,545.1,46.5
							z M545.1,44.5c0-0.3,0.2-0.5,0.5-0.5l0,0c0.3,0,0.5,0.2,0.5,0.5l0,0c0,0.3-0.2,0.5-0.5,0.5l0,0
							C545.3,45,545.1,44.8,545.1,44.5z M545.1,42.5c0-0.3,0.2-0.5,0.5-0.5l0,0c0.3,0,0.5,0.2,0.5,0.5l0,0c0,0.3-0.2,0.5-0.5,0.5
							l0,0C545.3,43,545.1,42.8,545.1,42.5z M545.1,40.5c0-0.3,0.2-0.5,0.5-0.5l0,0c0.3,0,0.5,0.2,0.5,0.5l0,0
							c0,0.3-0.2,0.5-0.5,0.5l0,0C545.3,41,545.1,40.8,545.1,40.5z M545.1,38.5c0-0.3,0.2-0.5,0.5-0.5l0,0c0.3,0,0.5,0.2,0.5,0.5
							l0,0c0,0.3-0.2,0.5-0.5,0.5l0,0C545.3,39,545.1,38.8,545.1,38.5z M545.1,36.5c0-0.3,0.2-0.5,0.5-0.5l0,0
							c0.3,0,0.5,0.2,0.5,0.5l0,0c0,0.3-0.2,0.5-0.5,0.5l0,0C545.3,37,545.1,36.8,545.1,36.5z M545.1,34.5c0-0.3,0.2-0.5,0.5-0.5
							l0,0c0.3,0,0.5,0.2,0.5,0.5l0,0c0,0.3-0.2,0.5-0.5,0.5l0,0C545.3,35,545.1,34.8,545.1,34.5z M545.1,32.5
							c0-0.3,0.2-0.5,0.5-0.5l0,0c0.3,0,0.5,0.2,0.5,0.5l0,0c0,0.3-0.2,0.5-0.5,0.5l0,0C545.3,33,545.1,32.8,545.1,32.5z
							 M545.1,30.5c0-0.3,0.2-0.5,0.5-0.5l0,0c0.3,0,0.5,0.2,0.5,0.5l0,0c0,0.3-0.2,0.5-0.5,0.5l0,0C545.3,31,545.1,30.8,545.1,30.5
							z M545.1,28.5c0-0.3,0.2-0.5,0.5-0.5l0,0c0.3,0,0.5,0.2,0.5,0.5l0,0c0,0.3-0.2,0.5-0.5,0.5l0,0
							C545.3,29,545.1,28.8,545.1,28.5z M545.1,26.5c0-0.3,0.2-0.5,0.5-0.5l0,0c0.3,0,0.5,0.2,0.5,0.5l0,0c0,0.3-0.2,0.5-0.5,0.5
							l0,0C545.3,27,545.1,26.8,545.1,26.5z M545.1,24.5c0-0.3,0.2-0.5,0.5-0.5l0,0c0.3,0,0.5,0.2,0.5,0.5l0,0
							c0,0.3-0.2,0.5-0.5,0.5l0,0C545.3,25,545.1,24.8,545.1,24.5z M545.1,22.5c0-0.3,0.2-0.5,0.5-0.5l0,0c0.3,0,0.5,0.2,0.5,0.5
							l0,0c0,0.3-0.2,0.5-0.5,0.5l0,0C545.3,23,545.1,22.8,545.1,22.5z M545.1,20.5c0-0.3,0.2-0.5,0.5-0.5l0,0
							c0.3,0,0.5,0.2,0.5,0.5l0,0c0,0.3-0.2,0.5-0.5,0.5l0,0C545.3,21,545.1,20.8,545.1,20.5z M545.1,18.5c0-0.3,0.2-0.5,0.5-0.5
							l0,0c0.3,0,0.5,0.2,0.5,0.5l0,0c0,0.3-0.2,0.5-0.5,0.5l0,0C545.3,19,545.1,18.8,545.1,18.5z M545.1,16.5
							c0-0.3,0.2-0.5,0.5-0.5l0,0c0.3,0,0.5,0.2,0.5,0.5l0,0c0,0.3-0.2,0.5-0.5,0.5l0,0C545.3,17,545.1,16.8,545.1,16.5z
							 M545.1,14.5c0-0.3,0.2-0.5,0.5-0.5l0,0c0.3,0,0.5,0.2,0.5,0.5l0,0c0,0.3-0.2,0.5-0.5,0.5l0,0C545.3,15,545.1,14.8,545.1,14.5
							z M545.1,12.5c0-0.3,0.2-0.5,0.5-0.5l0,0c0.3,0,0.5,0.2,0.5,0.5l0,0c0,0.3-0.2,0.5-0.5,0.5l0,0
							C545.3,13,545.1,12.8,545.1,12.5z M545.1,10.5c0-0.3,0.2-0.5,0.5-0.5l0,0c0.3,0,0.5,0.2,0.5,0.5l0,0c0,0.3-0.2,0.5-0.5,0.5
							l0,0C545.3,11,545.1,10.8,545.1,10.5z M545.1,8.5c0-0.3,0.2-0.5,0.5-0.5l0,0c0.3,0,0.5,0.2,0.5,0.5l0,0c0,0.3-0.2,0.5-0.5,0.5
							l0,0C545.3,9,545.1,8.8,545.1,8.5z M545.1,6.5c0-0.3,0.2-0.5,0.5-0.5l0,0c0.3,0,0.5,0.2,0.5,0.5l0,0c0,0.3-0.2,0.5-0.5,0.5
							l0,0C545.3,7,545.1,6.8,545.1,6.5z"/>
					</g>
				</g>
			</g>
			<g opacity="0.35">
				<g>
					<g>
						<path fill="#282828" d="M617.1,4.5c0-0.3,0.2-0.5,0.5-0.5l0,0c0.3,0,0.5,0.2,0.5,0.5l0,0c0,0.3-0.2,0.5-0.5,0.5l0,0
							C617.3,5,617.1,4.8,617.1,4.5z M617.1,2.5c0-0.3,0.2-0.5,0.5-0.5l0,0c0.3,0,0.5,0.2,0.5,0.5l0,0c0,0.3-0.2,0.5-0.5,0.5l0,0
							C617.3,3,617.1,2.8,617.1,2.5z M617.1,0.5c0-0.3,0.2-0.5,0.5-0.5l0,0c0.3,0,0.5,0.2,0.5,0.5l0,0c0,0.3-0.2,0.5-0.5,0.5l0,0
							C617.3,1,617.1,0.8,617.1,0.5z"/>
					</g>
					<g>
						<path fill="#282828" d="M617.1,200.5c0-0.3,0.2-0.5,0.5-0.5l0,0c0.3,0,0.5,0.2,0.5,0.5l0,0c0,0.3-0.2,0.5-0.5,0.5l0,0
							C617.3,201,617.1,200.8,617.1,200.5z M617.1,198.5c0-0.3,0.2-0.5,0.5-0.5l0,0c0.3,0,0.5,0.2,0.5,0.5l0,0
							c0,0.3-0.2,0.5-0.5,0.5l0,0C617.3,199,617.1,198.8,617.1,198.5z M617.1,196.5c0-0.3,0.2-0.5,0.5-0.5l0,0
							c0.3,0,0.5,0.2,0.5,0.5l0,0c0,0.3-0.2,0.5-0.5,0.5l0,0C617.3,197,617.1,196.8,617.1,196.5z M617.1,194.5
							c0-0.3,0.2-0.5,0.5-0.5l0,0c0.3,0,0.5,0.2,0.5,0.5l0,0c0,0.3-0.2,0.5-0.5,0.5l0,0C617.3,195,617.1,194.8,617.1,194.5z
							 M617.1,192.5c0-0.3,0.2-0.5,0.5-0.5l0,0c0.3,0,0.5,0.2,0.5,0.5l0,0c0,0.3-0.2,0.5-0.5,0.5l0,0
							C617.3,193,617.1,192.8,617.1,192.5z M617.1,190.5c0-0.3,0.2-0.5,0.5-0.5l0,0c0.3,0,0.5,0.2,0.5,0.5l0,0
							c0,0.3-0.2,0.5-0.5,0.5l0,0C617.3,191,617.1,190.8,617.1,190.5z M617.1,188.5c0-0.3,0.2-0.5,0.5-0.5l0,0
							c0.3,0,0.5,0.2,0.5,0.5l0,0c0,0.3-0.2,0.5-0.5,0.5l0,0C617.3,189,617.1,188.8,617.1,188.5z M617.1,186.5
							c0-0.3,0.2-0.5,0.5-0.5l0,0c0.3,0,0.5,0.2,0.5,0.5l0,0c0,0.3-0.2,0.5-0.5,0.5l0,0C617.3,187,617.1,186.8,617.1,186.5z
							 M617.1,184.5c0-0.3,0.2-0.5,0.5-0.5l0,0c0.3,0,0.5,0.2,0.5,0.5l0,0c0,0.3-0.2,0.5-0.5,0.5l0,0
							C617.3,185,617.1,184.8,617.1,184.5z M617.1,182.5c0-0.3,0.2-0.5,0.5-0.5l0,0c0.3,0,0.5,0.2,0.5,0.5l0,0
							c0,0.3-0.2,0.5-0.5,0.5l0,0C617.3,183,617.1,182.8,617.1,182.5z M617.1,180.5c0-0.3,0.2-0.5,0.5-0.5l0,0
							c0.3,0,0.5,0.2,0.5,0.5l0,0c0,0.3-0.2,0.5-0.5,0.5l0,0C617.3,181,617.1,180.8,617.1,180.5z M617.1,178.5
							c0-0.3,0.2-0.5,0.5-0.5l0,0c0.3,0,0.5,0.2,0.5,0.5l0,0c0,0.3-0.2,0.5-0.5,0.5l0,0C617.3,179,617.1,178.8,617.1,178.5z
							 M617.1,176.5c0-0.3,0.2-0.5,0.5-0.5l0,0c0.3,0,0.5,0.2,0.5,0.5l0,0c0,0.3-0.2,0.5-0.5,0.5l0,0
							C617.3,177,617.1,176.8,617.1,176.5z M617.1,174.5c0-0.3,0.2-0.5,0.5-0.5l0,0c0.3,0,0.5,0.2,0.5,0.5l0,0
							c0,0.3-0.2,0.5-0.5,0.5l0,0C617.3,175,617.1,174.8,617.1,174.5z M617.1,172.5c0-0.3,0.2-0.5,0.5-0.5l0,0
							c0.3,0,0.5,0.2,0.5,0.5l0,0c0,0.3-0.2,0.5-0.5,0.5l0,0C617.3,173,617.1,172.8,617.1,172.5z M617.1,170.5
							c0-0.3,0.2-0.5,0.5-0.5l0,0c0.3,0,0.5,0.2,0.5,0.5l0,0c0,0.3-0.2,0.5-0.5,0.5l0,0C617.3,171,617.1,170.8,617.1,170.5z
							 M617.1,168.5c0-0.3,0.2-0.5,0.5-0.5l0,0c0.3,0,0.5,0.2,0.5,0.5l0,0c0,0.3-0.2,0.5-0.5,0.5l0,0
							C617.3,169,617.1,168.8,617.1,168.5z M617.1,166.5c0-0.3,0.2-0.5,0.5-0.5l0,0c0.3,0,0.5,0.2,0.5,0.5l0,0
							c0,0.3-0.2,0.5-0.5,0.5l0,0C617.3,167,617.1,166.8,617.1,166.5z M617.1,164.5c0-0.3,0.2-0.5,0.5-0.5l0,0
							c0.3,0,0.5,0.2,0.5,0.5l0,0c0,0.3-0.2,0.5-0.5,0.5l0,0C617.3,165,617.1,164.8,617.1,164.5z M617.1,162.5
							c0-0.3,0.2-0.5,0.5-0.5l0,0c0.3,0,0.5,0.2,0.5,0.5l0,0c0,0.3-0.2,0.5-0.5,0.5l0,0C617.3,163,617.1,162.8,617.1,162.5z
							 M617.1,160.5c0-0.3,0.2-0.5,0.5-0.5l0,0c0.3,0,0.5,0.2,0.5,0.5l0,0c0,0.3-0.2,0.5-0.5,0.5l0,0
							C617.3,161,617.1,160.8,617.1,160.5z M617.1,158.5c0-0.3,0.2-0.5,0.5-0.5l0,0c0.3,0,0.5,0.2,0.5,0.5l0,0
							c0,0.3-0.2,0.5-0.5,0.5l0,0C617.3,159,617.1,158.8,617.1,158.5z M617.1,156.5c0-0.3,0.2-0.5,0.5-0.5l0,0
							c0.3,0,0.5,0.2,0.5,0.5l0,0c0,0.3-0.2,0.5-0.5,0.5l0,0C617.3,157,617.1,156.8,617.1,156.5z M617.1,154.5
							c0-0.3,0.2-0.5,0.5-0.5l0,0c0.3,0,0.5,0.2,0.5,0.5l0,0c0,0.3-0.2,0.5-0.5,0.5l0,0C617.3,155,617.1,154.8,617.1,154.5z
							 M617.1,152.5c0-0.3,0.2-0.5,0.5-0.5l0,0c0.3,0,0.5,0.2,0.5,0.5l0,0c0,0.3-0.2,0.5-0.5,0.5l0,0
							C617.3,153,617.1,152.8,617.1,152.5z M617.1,150.5c0-0.3,0.2-0.5,0.5-0.5l0,0c0.3,0,0.5,0.2,0.5,0.5l0,0
							c0,0.3-0.2,0.5-0.5,0.5l0,0C617.3,151,617.1,150.8,617.1,150.5z M617.1,148.5c0-0.3,0.2-0.5,0.5-0.5l0,0
							c0.3,0,0.5,0.2,0.5,0.5l0,0c0,0.3-0.2,0.5-0.5,0.5l0,0C617.3,149,617.1,148.8,617.1,148.5z M617.1,146.5
							c0-0.3,0.2-0.5,0.5-0.5l0,0c0.3,0,0.5,0.2,0.5,0.5l0,0c0,0.3-0.2,0.5-0.5,0.5l0,0C617.3,147,617.1,146.8,617.1,146.5z
							 M617.1,144.5c0-0.3,0.2-0.5,0.5-0.5l0,0c0.3,0,0.5,0.2,0.5,0.5l0,0c0,0.3-0.2,0.5-0.5,0.5l0,0
							C617.3,145,617.1,144.8,617.1,144.5z M617.1,142.5c0-0.3,0.2-0.5,0.5-0.5l0,0c0.3,0,0.5,0.2,0.5,0.5l0,0
							c0,0.3-0.2,0.5-0.5,0.5l0,0C617.3,143,617.1,142.8,617.1,142.5z M617.1,140.5c0-0.3,0.2-0.5,0.5-0.5l0,0
							c0.3,0,0.5,0.2,0.5,0.5l0,0c0,0.3-0.2,0.5-0.5,0.5l0,0C617.3,141,617.1,140.8,617.1,140.5z M617.1,138.5
							c0-0.3,0.2-0.5,0.5-0.5l0,0c0.3,0,0.5,0.2,0.5,0.5l0,0c0,0.3-0.2,0.5-0.5,0.5l0,0C617.3,139,617.1,138.8,617.1,138.5z
							 M617.1,136.5c0-0.3,0.2-0.5,0.5-0.5l0,0c0.3,0,0.5,0.2,0.5,0.5l0,0c0,0.3-0.2,0.5-0.5,0.5l0,0
							C617.3,137,617.1,136.8,617.1,136.5z M617.1,134.5c0-0.3,0.2-0.5,0.5-0.5l0,0c0.3,0,0.5,0.2,0.5,0.5l0,0
							c0,0.3-0.2,0.5-0.5,0.5l0,0C617.3,135,617.1,134.8,617.1,134.5z M617.1,132.5c0-0.3,0.2-0.5,0.5-0.5l0,0
							c0.3,0,0.5,0.2,0.5,0.5l0,0c0,0.3-0.2,0.5-0.5,0.5l0,0C617.3,133,617.1,132.8,617.1,132.5z M617.1,130.5
							c0-0.3,0.2-0.5,0.5-0.5l0,0c0.3,0,0.5,0.2,0.5,0.5l0,0c0,0.3-0.2,0.5-0.5,0.5l0,0C617.3,131,617.1,130.8,617.1,130.5z
							 M617.1,128.5c0-0.3,0.2-0.5,0.5-0.5l0,0c0.3,0,0.5,0.2,0.5,0.5l0,0c0,0.3-0.2,0.5-0.5,0.5l0,0
							C617.3,129,617.1,128.8,617.1,128.5z M617.1,126.5c0-0.3,0.2-0.5,0.5-0.5l0,0c0.3,0,0.5,0.2,0.5,0.5l0,0
							c0,0.3-0.2,0.5-0.5,0.5l0,0C617.3,127,617.1,126.8,617.1,126.5z M617.1,124.5c0-0.3,0.2-0.5,0.5-0.5l0,0
							c0.3,0,0.5,0.2,0.5,0.5l0,0c0,0.3-0.2,0.5-0.5,0.5l0,0C617.3,125,617.1,124.8,617.1,124.5z M617.1,122.5
							c0-0.3,0.2-0.5,0.5-0.5l0,0c0.3,0,0.5,0.2,0.5,0.5l0,0c0,0.3-0.2,0.5-0.5,0.5l0,0C617.3,123,617.1,122.8,617.1,122.5z
							 M617.1,120.5c0-0.3,0.2-0.5,0.5-0.5l0,0c0.3,0,0.5,0.2,0.5,0.5l0,0c0,0.3-0.2,0.5-0.5,0.5l0,0
							C617.3,121,617.1,120.8,617.1,120.5z M617.1,118.5c0-0.3,0.2-0.5,0.5-0.5l0,0c0.3,0,0.5,0.2,0.5,0.5l0,0
							c0,0.3-0.2,0.5-0.5,0.5l0,0C617.3,119,617.1,118.8,617.1,118.5z M617.1,116.5c0-0.3,0.2-0.5,0.5-0.5l0,0
							c0.3,0,0.5,0.2,0.5,0.5l0,0c0,0.3-0.2,0.5-0.5,0.5l0,0C617.3,117,617.1,116.8,617.1,116.5z M617.1,114.5
							c0-0.3,0.2-0.5,0.5-0.5l0,0c0.3,0,0.5,0.2,0.5,0.5l0,0c0,0.3-0.2,0.5-0.5,0.5l0,0C617.3,115,617.1,114.8,617.1,114.5z
							 M617.1,112.5c0-0.3,0.2-0.5,0.5-0.5l0,0c0.3,0,0.5,0.2,0.5,0.5l0,0c0,0.3-0.2,0.5-0.5,0.5l0,0
							C617.3,113,617.1,112.8,617.1,112.5z M617.1,110.5c0-0.3,0.2-0.5,0.5-0.5l0,0c0.3,0,0.5,0.2,0.5,0.5l0,0
							c0,0.3-0.2,0.5-0.5,0.5l0,0C617.3,111,617.1,110.8,617.1,110.5z M617.1,108.5c0-0.3,0.2-0.5,0.5-0.5l0,0
							c0.3,0,0.5,0.2,0.5,0.5l0,0c0,0.3-0.2,0.5-0.5,0.5l0,0C617.3,109,617.1,108.8,617.1,108.5z M617.1,106.5
							c0-0.3,0.2-0.5,0.5-0.5l0,0c0.3,0,0.5,0.2,0.5,0.5l0,0c0,0.3-0.2,0.5-0.5,0.5l0,0C617.3,107,617.1,106.8,617.1,106.5z
							 M617.1,104.5c0-0.3,0.2-0.5,0.5-0.5l0,0c0.3,0,0.5,0.2,0.5,0.5l0,0c0,0.3-0.2,0.5-0.5,0.5l0,0
							C617.3,105,617.1,104.8,617.1,104.5z M617.1,102.5c0-0.3,0.2-0.5,0.5-0.5l0,0c0.3,0,0.5,0.2,0.5,0.5l0,0
							c0,0.3-0.2,0.5-0.5,0.5l0,0C617.3,103,617.1,102.8,617.1,102.5z M617.1,100.5c0-0.3,0.2-0.5,0.5-0.5l0,0
							c0.3,0,0.5,0.2,0.5,0.5l0,0c0,0.3-0.2,0.5-0.5,0.5l0,0C617.3,101,617.1,100.8,617.1,100.5z M617.1,98.5c0-0.3,0.2-0.5,0.5-0.5
							l0,0c0.3,0,0.5,0.2,0.5,0.5l0,0c0,0.3-0.2,0.5-0.5,0.5l0,0C617.3,99,617.1,98.8,617.1,98.5z M617.1,96.5
							c0-0.3,0.2-0.5,0.5-0.5l0,0c0.3,0,0.5,0.2,0.5,0.5l0,0c0,0.3-0.2,0.5-0.5,0.5l0,0C617.3,97,617.1,96.8,617.1,96.5z
							 M617.1,94.5c0-0.3,0.2-0.5,0.5-0.5l0,0c0.3,0,0.5,0.2,0.5,0.5l0,0c0,0.3-0.2,0.5-0.5,0.5l0,0C617.3,95,617.1,94.8,617.1,94.5
							z M617.1,92.5c0-0.3,0.2-0.5,0.5-0.5l0,0c0.3,0,0.5,0.2,0.5,0.5l0,0c0,0.3-0.2,0.5-0.5,0.5l0,0
							C617.3,93,617.1,92.8,617.1,92.5z M617.1,90.5c0-0.3,0.2-0.5,0.5-0.5l0,0c0.3,0,0.5,0.2,0.5,0.5l0,0c0,0.3-0.2,0.5-0.5,0.5
							l0,0C617.3,91,617.1,90.8,617.1,90.5z M617.1,88.5c0-0.3,0.2-0.5,0.5-0.5l0,0c0.3,0,0.5,0.2,0.5,0.5l0,0
							c0,0.3-0.2,0.5-0.5,0.5l0,0C617.3,89,617.1,88.8,617.1,88.5z M617.1,86.5c0-0.3,0.2-0.5,0.5-0.5l0,0c0.3,0,0.5,0.2,0.5,0.5
							l0,0c0,0.3-0.2,0.5-0.5,0.5l0,0C617.3,87,617.1,86.8,617.1,86.5z M617.1,84.5c0-0.3,0.2-0.5,0.5-0.5l0,0
							c0.3,0,0.5,0.2,0.5,0.5l0,0c0,0.3-0.2,0.5-0.5,0.5l0,0C617.3,85,617.1,84.8,617.1,84.5z M617.1,82.5c0-0.3,0.2-0.5,0.5-0.5
							l0,0c0.3,0,0.5,0.2,0.5,0.5l0,0c0,0.3-0.2,0.5-0.5,0.5l0,0C617.3,83,617.1,82.8,617.1,82.5z M617.1,80.5
							c0-0.3,0.2-0.5,0.5-0.5l0,0c0.3,0,0.5,0.2,0.5,0.5l0,0c0,0.3-0.2,0.5-0.5,0.5l0,0C617.3,81,617.1,80.8,617.1,80.5z
							 M617.1,78.5c0-0.3,0.2-0.5,0.5-0.5l0,0c0.3,0,0.5,0.2,0.5,0.5l0,0c0,0.3-0.2,0.5-0.5,0.5l0,0C617.3,79,617.1,78.8,617.1,78.5
							z M617.1,76.5c0-0.3,0.2-0.5,0.5-0.5l0,0c0.3,0,0.5,0.2,0.5,0.5l0,0c0,0.3-0.2,0.5-0.5,0.5l0,0
							C617.3,77,617.1,76.8,617.1,76.5z M617.1,74.5c0-0.3,0.2-0.5,0.5-0.5l0,0c0.3,0,0.5,0.2,0.5,0.5l0,0c0,0.3-0.2,0.5-0.5,0.5
							l0,0C617.3,75,617.1,74.8,617.1,74.5z M617.1,72.5c0-0.3,0.2-0.5,0.5-0.5l0,0c0.3,0,0.5,0.2,0.5,0.5l0,0
							c0,0.3-0.2,0.5-0.5,0.5l0,0C617.3,73,617.1,72.8,617.1,72.5z M617.1,70.5c0-0.3,0.2-0.5,0.5-0.5l0,0c0.3,0,0.5,0.2,0.5,0.5
							l0,0c0,0.3-0.2,0.5-0.5,0.5l0,0C617.3,71,617.1,70.8,617.1,70.5z M617.1,68.5c0-0.3,0.2-0.5,0.5-0.5l0,0
							c0.3,0,0.5,0.2,0.5,0.5l0,0c0,0.3-0.2,0.5-0.5,0.5l0,0C617.3,69,617.1,68.8,617.1,68.5z M617.1,66.5c0-0.3,0.2-0.5,0.5-0.5
							l0,0c0.3,0,0.5,0.2,0.5,0.5l0,0c0,0.3-0.2,0.5-0.5,0.5l0,0C617.3,67,617.1,66.8,617.1,66.5z M617.1,64.5
							c0-0.3,0.2-0.5,0.5-0.5l0,0c0.3,0,0.5,0.2,0.5,0.5l0,0c0,0.3-0.2,0.5-0.5,0.5l0,0C617.3,65,617.1,64.8,617.1,64.5z
							 M617.1,62.5c0-0.3,0.2-0.5,0.5-0.5l0,0c0.3,0,0.5,0.2,0.5,0.5l0,0c0,0.3-0.2,0.5-0.5,0.5l0,0C617.3,63,617.1,62.8,617.1,62.5
							z M617.1,60.5c0-0.3,0.2-0.5,0.5-0.5l0,0c0.3,0,0.5,0.2,0.5,0.5l0,0c0,0.3-0.2,0.5-0.5,0.5l0,0
							C617.3,61,617.1,60.8,617.1,60.5z M617.1,58.5c0-0.3,0.2-0.5,0.5-0.5l0,0c0.3,0,0.5,0.2,0.5,0.5l0,0c0,0.3-0.2,0.5-0.5,0.5
							l0,0C617.3,59,617.1,58.8,617.1,58.5z M617.1,56.5c0-0.3,0.2-0.5,0.5-0.5l0,0c0.3,0,0.5,0.2,0.5,0.5l0,0
							c0,0.3-0.2,0.5-0.5,0.5l0,0C617.3,57,617.1,56.8,617.1,56.5z M617.1,54.5c0-0.3,0.2-0.5,0.5-0.5l0,0c0.3,0,0.5,0.2,0.5,0.5
							l0,0c0,0.3-0.2,0.5-0.5,0.5l0,0C617.3,55,617.1,54.8,617.1,54.5z M617.1,52.5c0-0.3,0.2-0.5,0.5-0.5l0,0
							c0.3,0,0.5,0.2,0.5,0.5l0,0c0,0.3-0.2,0.5-0.5,0.5l0,0C617.3,53,617.1,52.8,617.1,52.5z M617.1,50.5c0-0.3,0.2-0.5,0.5-0.5
							l0,0c0.3,0,0.5,0.2,0.5,0.5l0,0c0,0.3-0.2,0.5-0.5,0.5l0,0C617.3,51,617.1,50.8,617.1,50.5z M617.1,48.5
							c0-0.3,0.2-0.5,0.5-0.5l0,0c0.3,0,0.5,0.2,0.5,0.5l0,0c0,0.3-0.2,0.5-0.5,0.5l0,0C617.3,49,617.1,48.8,617.1,48.5z
							 M617.1,46.5c0-0.3,0.2-0.5,0.5-0.5l0,0c0.3,0,0.5,0.2,0.5,0.5l0,0c0,0.3-0.2,0.5-0.5,0.5l0,0C617.3,47,617.1,46.8,617.1,46.5
							z M617.1,44.5c0-0.3,0.2-0.5,0.5-0.5l0,0c0.3,0,0.5,0.2,0.5,0.5l0,0c0,0.3-0.2,0.5-0.5,0.5l0,0
							C617.3,45,617.1,44.8,617.1,44.5z M617.1,42.5c0-0.3,0.2-0.5,0.5-0.5l0,0c0.3,0,0.5,0.2,0.5,0.5l0,0c0,0.3-0.2,0.5-0.5,0.5
							l0,0C617.3,43,617.1,42.8,617.1,42.5z M617.1,40.5c0-0.3,0.2-0.5,0.5-0.5l0,0c0.3,0,0.5,0.2,0.5,0.5l0,0
							c0,0.3-0.2,0.5-0.5,0.5l0,0C617.3,41,617.1,40.8,617.1,40.5z M617.1,38.5c0-0.3,0.2-0.5,0.5-0.5l0,0c0.3,0,0.5,0.2,0.5,0.5
							l0,0c0,0.3-0.2,0.5-0.5,0.5l0,0C617.3,39,617.1,38.8,617.1,38.5z M617.1,36.5c0-0.3,0.2-0.5,0.5-0.5l0,0
							c0.3,0,0.5,0.2,0.5,0.5l0,0c0,0.3-0.2,0.5-0.5,0.5l0,0C617.3,37,617.1,36.8,617.1,36.5z M617.1,34.5c0-0.3,0.2-0.5,0.5-0.5
							l0,0c0.3,0,0.5,0.2,0.5,0.5l0,0c0,0.3-0.2,0.5-0.5,0.5l0,0C617.3,35,617.1,34.8,617.1,34.5z M617.1,32.5
							c0-0.3,0.2-0.5,0.5-0.5l0,0c0.3,0,0.5,0.2,0.5,0.5l0,0c0,0.3-0.2,0.5-0.5,0.5l0,0C617.3,33,617.1,32.8,617.1,32.5z
							 M617.1,30.5c0-0.3,0.2-0.5,0.5-0.5l0,0c0.3,0,0.5,0.2,0.5,0.5l0,0c0,0.3-0.2,0.5-0.5,0.5l0,0C617.3,31,617.1,30.8,617.1,30.5
							z M617.1,28.5c0-0.3,0.2-0.5,0.5-0.5l0,0c0.3,0,0.5,0.2,0.5,0.5l0,0c0,0.3-0.2,0.5-0.5,0.5l0,0
							C617.3,29,617.1,28.8,617.1,28.5z M617.1,26.5c0-0.3,0.2-0.5,0.5-0.5l0,0c0.3,0,0.5,0.2,0.5,0.5l0,0c0,0.3-0.2,0.5-0.5,0.5
							l0,0C617.3,27,617.1,26.8,617.1,26.5z M617.1,24.5c0-0.3,0.2-0.5,0.5-0.5l0,0c0.3,0,0.5,0.2,0.5,0.5l0,0
							c0,0.3-0.2,0.5-0.5,0.5l0,0C617.3,25,617.1,24.8,617.1,24.5z M617.1,22.5c0-0.3,0.2-0.5,0.5-0.5l0,0c0.3,0,0.5,0.2,0.5,0.5
							l0,0c0,0.3-0.2,0.5-0.5,0.5l0,0C617.3,23,617.1,22.8,617.1,22.5z M617.1,20.5c0-0.3,0.2-0.5,0.5-0.5l0,0
							c0.3,0,0.5,0.2,0.5,0.5l0,0c0,0.3-0.2,0.5-0.5,0.5l0,0C617.3,21,617.1,20.8,617.1,20.5z M617.1,18.5c0-0.3,0.2-0.5,0.5-0.5
							l0,0c0.3,0,0.5,0.2,0.5,0.5l0,0c0,0.3-0.2,0.5-0.5,0.5l0,0C617.3,19,617.1,18.8,617.1,18.5z M617.1,16.5
							c0-0.3,0.2-0.5,0.5-0.5l0,0c0.3,0,0.5,0.2,0.5,0.5l0,0c0,0.3-0.2,0.5-0.5,0.5l0,0C617.3,17,617.1,16.8,617.1,16.5z
							 M617.1,14.5c0-0.3,0.2-0.5,0.5-0.5l0,0c0.3,0,0.5,0.2,0.5,0.5l0,0c0,0.3-0.2,0.5-0.5,0.5l0,0C617.3,15,617.1,14.8,617.1,14.5
							z M617.1,12.5c0-0.3,0.2-0.5,0.5-0.5l0,0c0.3,0,0.5,0.2,0.5,0.5l0,0c0,0.3-0.2,0.5-0.5,0.5l0,0
							C617.3,13,617.1,12.8,617.1,12.5z M617.1,10.5c0-0.3,0.2-0.5,0.5-0.5l0,0c0.3,0,0.5,0.2,0.5,0.5l0,0c0,0.3-0.2,0.5-0.5,0.5
							l0,0C617.3,11,617.1,10.8,617.1,10.5z M617.1,8.5c0-0.3,0.2-0.5,0.5-0.5l0,0c0.3,0,0.5,0.2,0.5,0.5l0,0c0,0.3-0.2,0.5-0.5,0.5
							l0,0C617.3,9,617.1,8.8,617.1,8.5z M617.1,6.5c0-0.3,0.2-0.5,0.5-0.5l0,0c0.3,0,0.5,0.2,0.5,0.5l0,0c0,0.3-0.2,0.5-0.5,0.5
							l0,0C617.3,7,617.1,6.8,617.1,6.5z"/>
					</g>
				</g>
			</g>
			<g opacity="0.35">
				<g>
					<g>
						<path fill="#282828" d="M690.1,4.5c0-0.3,0.2-0.5,0.5-0.5l0,0c0.3,0,0.5,0.2,0.5,0.5l0,0c0,0.3-0.2,0.5-0.5,0.5l0,0
							C690.3,5,690.1,4.8,690.1,4.5z M690.1,2.5c0-0.3,0.2-0.5,0.5-0.5l0,0c0.3,0,0.5,0.2,0.5,0.5l0,0c0,0.3-0.2,0.5-0.5,0.5l0,0
							C690.3,3,690.1,2.8,690.1,2.5z M690.1,0.5c0-0.3,0.2-0.5,0.5-0.5l0,0c0.3,0,0.5,0.2,0.5,0.5l0,0c0,0.3-0.2,0.5-0.5,0.5l0,0
							C690.3,1,690.1,0.8,690.1,0.5z"/>
					</g>
					<g>
						<path fill="#282828" d="M690.1,200.5c0-0.3,0.2-0.5,0.5-0.5l0,0c0.3,0,0.5,0.2,0.5,0.5l0,0c0,0.3-0.2,0.5-0.5,0.5l0,0
							C690.3,201,690.1,200.8,690.1,200.5z M690.1,198.5c0-0.3,0.2-0.5,0.5-0.5l0,0c0.3,0,0.5,0.2,0.5,0.5l0,0
							c0,0.3-0.2,0.5-0.5,0.5l0,0C690.3,199,690.1,198.8,690.1,198.5z M690.1,196.5c0-0.3,0.2-0.5,0.5-0.5l0,0
							c0.3,0,0.5,0.2,0.5,0.5l0,0c0,0.3-0.2,0.5-0.5,0.5l0,0C690.3,197,690.1,196.8,690.1,196.5z M690.1,194.5
							c0-0.3,0.2-0.5,0.5-0.5l0,0c0.3,0,0.5,0.2,0.5,0.5l0,0c0,0.3-0.2,0.5-0.5,0.5l0,0C690.3,195,690.1,194.8,690.1,194.5z
							 M690.1,192.5c0-0.3,0.2-0.5,0.5-0.5l0,0c0.3,0,0.5,0.2,0.5,0.5l0,0c0,0.3-0.2,0.5-0.5,0.5l0,0
							C690.3,193,690.1,192.8,690.1,192.5z M690.1,190.5c0-0.3,0.2-0.5,0.5-0.5l0,0c0.3,0,0.5,0.2,0.5,0.5l0,0
							c0,0.3-0.2,0.5-0.5,0.5l0,0C690.3,191,690.1,190.8,690.1,190.5z M690.1,188.5c0-0.3,0.2-0.5,0.5-0.5l0,0
							c0.3,0,0.5,0.2,0.5,0.5l0,0c0,0.3-0.2,0.5-0.5,0.5l0,0C690.3,189,690.1,188.8,690.1,188.5z M690.1,186.5
							c0-0.3,0.2-0.5,0.5-0.5l0,0c0.3,0,0.5,0.2,0.5,0.5l0,0c0,0.3-0.2,0.5-0.5,0.5l0,0C690.3,187,690.1,186.8,690.1,186.5z
							 M690.1,184.5c0-0.3,0.2-0.5,0.5-0.5l0,0c0.3,0,0.5,0.2,0.5,0.5l0,0c0,0.3-0.2,0.5-0.5,0.5l0,0
							C690.3,185,690.1,184.8,690.1,184.5z M690.1,182.5c0-0.3,0.2-0.5,0.5-0.5l0,0c0.3,0,0.5,0.2,0.5,0.5l0,0
							c0,0.3-0.2,0.5-0.5,0.5l0,0C690.3,183,690.1,182.8,690.1,182.5z M690.1,180.5c0-0.3,0.2-0.5,0.5-0.5l0,0
							c0.3,0,0.5,0.2,0.5,0.5l0,0c0,0.3-0.2,0.5-0.5,0.5l0,0C690.3,181,690.1,180.8,690.1,180.5z M690.1,178.5
							c0-0.3,0.2-0.5,0.5-0.5l0,0c0.3,0,0.5,0.2,0.5,0.5l0,0c0,0.3-0.2,0.5-0.5,0.5l0,0C690.3,179,690.1,178.8,690.1,178.5z
							 M690.1,176.5c0-0.3,0.2-0.5,0.5-0.5l0,0c0.3,0,0.5,0.2,0.5,0.5l0,0c0,0.3-0.2,0.5-0.5,0.5l0,0
							C690.3,177,690.1,176.8,690.1,176.5z M690.1,174.5c0-0.3,0.2-0.5,0.5-0.5l0,0c0.3,0,0.5,0.2,0.5,0.5l0,0
							c0,0.3-0.2,0.5-0.5,0.5l0,0C690.3,175,690.1,174.8,690.1,174.5z M690.1,172.5c0-0.3,0.2-0.5,0.5-0.5l0,0
							c0.3,0,0.5,0.2,0.5,0.5l0,0c0,0.3-0.2,0.5-0.5,0.5l0,0C690.3,173,690.1,172.8,690.1,172.5z M690.1,170.5
							c0-0.3,0.2-0.5,0.5-0.5l0,0c0.3,0,0.5,0.2,0.5,0.5l0,0c0,0.3-0.2,0.5-0.5,0.5l0,0C690.3,171,690.1,170.8,690.1,170.5z
							 M690.1,168.5c0-0.3,0.2-0.5,0.5-0.5l0,0c0.3,0,0.5,0.2,0.5,0.5l0,0c0,0.3-0.2,0.5-0.5,0.5l0,0
							C690.3,169,690.1,168.8,690.1,168.5z M690.1,166.5c0-0.3,0.2-0.5,0.5-0.5l0,0c0.3,0,0.5,0.2,0.5,0.5l0,0
							c0,0.3-0.2,0.5-0.5,0.5l0,0C690.3,167,690.1,166.8,690.1,166.5z M690.1,164.5c0-0.3,0.2-0.5,0.5-0.5l0,0
							c0.3,0,0.5,0.2,0.5,0.5l0,0c0,0.3-0.2,0.5-0.5,0.5l0,0C690.3,165,690.1,164.8,690.1,164.5z M690.1,162.5
							c0-0.3,0.2-0.5,0.5-0.5l0,0c0.3,0,0.5,0.2,0.5,0.5l0,0c0,0.3-0.2,0.5-0.5,0.5l0,0C690.3,163,690.1,162.8,690.1,162.5z
							 M690.1,160.5c0-0.3,0.2-0.5,0.5-0.5l0,0c0.3,0,0.5,0.2,0.5,0.5l0,0c0,0.3-0.2,0.5-0.5,0.5l0,0
							C690.3,161,690.1,160.8,690.1,160.5z M690.1,158.5c0-0.3,0.2-0.5,0.5-0.5l0,0c0.3,0,0.5,0.2,0.5,0.5l0,0
							c0,0.3-0.2,0.5-0.5,0.5l0,0C690.3,159,690.1,158.8,690.1,158.5z M690.1,156.5c0-0.3,0.2-0.5,0.5-0.5l0,0
							c0.3,0,0.5,0.2,0.5,0.5l0,0c0,0.3-0.2,0.5-0.5,0.5l0,0C690.3,157,690.1,156.8,690.1,156.5z M690.1,154.5
							c0-0.3,0.2-0.5,0.5-0.5l0,0c0.3,0,0.5,0.2,0.5,0.5l0,0c0,0.3-0.2,0.5-0.5,0.5l0,0C690.3,155,690.1,154.8,690.1,154.5z
							 M690.1,152.5c0-0.3,0.2-0.5,0.5-0.5l0,0c0.3,0,0.5,0.2,0.5,0.5l0,0c0,0.3-0.2,0.5-0.5,0.5l0,0
							C690.3,153,690.1,152.8,690.1,152.5z M690.1,150.5c0-0.3,0.2-0.5,0.5-0.5l0,0c0.3,0,0.5,0.2,0.5,0.5l0,0
							c0,0.3-0.2,0.5-0.5,0.5l0,0C690.3,151,690.1,150.8,690.1,150.5z M690.1,148.5c0-0.3,0.2-0.5,0.5-0.5l0,0
							c0.3,0,0.5,0.2,0.5,0.5l0,0c0,0.3-0.2,0.5-0.5,0.5l0,0C690.3,149,690.1,148.8,690.1,148.5z M690.1,146.5
							c0-0.3,0.2-0.5,0.5-0.5l0,0c0.3,0,0.5,0.2,0.5,0.5l0,0c0,0.3-0.2,0.5-0.5,0.5l0,0C690.3,147,690.1,146.8,690.1,146.5z
							 M690.1,144.5c0-0.3,0.2-0.5,0.5-0.5l0,0c0.3,0,0.5,0.2,0.5,0.5l0,0c0,0.3-0.2,0.5-0.5,0.5l0,0
							C690.3,145,690.1,144.8,690.1,144.5z M690.1,142.5c0-0.3,0.2-0.5,0.5-0.5l0,0c0.3,0,0.5,0.2,0.5,0.5l0,0
							c0,0.3-0.2,0.5-0.5,0.5l0,0C690.3,143,690.1,142.8,690.1,142.5z M690.1,140.5c0-0.3,0.2-0.5,0.5-0.5l0,0
							c0.3,0,0.5,0.2,0.5,0.5l0,0c0,0.3-0.2,0.5-0.5,0.5l0,0C690.3,141,690.1,140.8,690.1,140.5z M690.1,138.5
							c0-0.3,0.2-0.5,0.5-0.5l0,0c0.3,0,0.5,0.2,0.5,0.5l0,0c0,0.3-0.2,0.5-0.5,0.5l0,0C690.3,139,690.1,138.8,690.1,138.5z
							 M690.1,136.5c0-0.3,0.2-0.5,0.5-0.5l0,0c0.3,0,0.5,0.2,0.5,0.5l0,0c0,0.3-0.2,0.5-0.5,0.5l0,0
							C690.3,137,690.1,136.8,690.1,136.5z M690.1,134.5c0-0.3,0.2-0.5,0.5-0.5l0,0c0.3,0,0.5,0.2,0.5,0.5l0,0
							c0,0.3-0.2,0.5-0.5,0.5l0,0C690.3,135,690.1,134.8,690.1,134.5z M690.1,132.5c0-0.3,0.2-0.5,0.5-0.5l0,0
							c0.3,0,0.5,0.2,0.5,0.5l0,0c0,0.3-0.2,0.5-0.5,0.5l0,0C690.3,133,690.1,132.8,690.1,132.5z M690.1,130.5
							c0-0.3,0.2-0.5,0.5-0.5l0,0c0.3,0,0.5,0.2,0.5,0.5l0,0c0,0.3-0.2,0.5-0.5,0.5l0,0C690.3,131,690.1,130.8,690.1,130.5z
							 M690.1,128.5c0-0.3,0.2-0.5,0.5-0.5l0,0c0.3,0,0.5,0.2,0.5,0.5l0,0c0,0.3-0.2,0.5-0.5,0.5l0,0
							C690.3,129,690.1,128.8,690.1,128.5z M690.1,126.5c0-0.3,0.2-0.5,0.5-0.5l0,0c0.3,0,0.5,0.2,0.5,0.5l0,0
							c0,0.3-0.2,0.5-0.5,0.5l0,0C690.3,127,690.1,126.8,690.1,126.5z M690.1,124.5c0-0.3,0.2-0.5,0.5-0.5l0,0
							c0.3,0,0.5,0.2,0.5,0.5l0,0c0,0.3-0.2,0.5-0.5,0.5l0,0C690.3,125,690.1,124.8,690.1,124.5z M690.1,122.5
							c0-0.3,0.2-0.5,0.5-0.5l0,0c0.3,0,0.5,0.2,0.5,0.5l0,0c0,0.3-0.2,0.5-0.5,0.5l0,0C690.3,123,690.1,122.8,690.1,122.5z
							 M690.1,120.5c0-0.3,0.2-0.5,0.5-0.5l0,0c0.3,0,0.5,0.2,0.5,0.5l0,0c0,0.3-0.2,0.5-0.5,0.5l0,0
							C690.3,121,690.1,120.8,690.1,120.5z M690.1,118.5c0-0.3,0.2-0.5,0.5-0.5l0,0c0.3,0,0.5,0.2,0.5,0.5l0,0
							c0,0.3-0.2,0.5-0.5,0.5l0,0C690.3,119,690.1,118.8,690.1,118.5z M690.1,116.5c0-0.3,0.2-0.5,0.5-0.5l0,0
							c0.3,0,0.5,0.2,0.5,0.5l0,0c0,0.3-0.2,0.5-0.5,0.5l0,0C690.3,117,690.1,116.8,690.1,116.5z M690.1,114.5
							c0-0.3,0.2-0.5,0.5-0.5l0,0c0.3,0,0.5,0.2,0.5,0.5l0,0c0,0.3-0.2,0.5-0.5,0.5l0,0C690.3,115,690.1,114.8,690.1,114.5z
							 M690.1,112.5c0-0.3,0.2-0.5,0.5-0.5l0,0c0.3,0,0.5,0.2,0.5,0.5l0,0c0,0.3-0.2,0.5-0.5,0.5l0,0
							C690.3,113,690.1,112.8,690.1,112.5z M690.1,110.5c0-0.3,0.2-0.5,0.5-0.5l0,0c0.3,0,0.5,0.2,0.5,0.5l0,0
							c0,0.3-0.2,0.5-0.5,0.5l0,0C690.3,111,690.1,110.8,690.1,110.5z M690.1,108.5c0-0.3,0.2-0.5,0.5-0.5l0,0
							c0.3,0,0.5,0.2,0.5,0.5l0,0c0,0.3-0.2,0.5-0.5,0.5l0,0C690.3,109,690.1,108.8,690.1,108.5z M690.1,106.5
							c0-0.3,0.2-0.5,0.5-0.5l0,0c0.3,0,0.5,0.2,0.5,0.5l0,0c0,0.3-0.2,0.5-0.5,0.5l0,0C690.3,107,690.1,106.8,690.1,106.5z
							 M690.1,104.5c0-0.3,0.2-0.5,0.5-0.5l0,0c0.3,0,0.5,0.2,0.5,0.5l0,0c0,0.3-0.2,0.5-0.5,0.5l0,0
							C690.3,105,690.1,104.8,690.1,104.5z M690.1,102.5c0-0.3,0.2-0.5,0.5-0.5l0,0c0.3,0,0.5,0.2,0.5,0.5l0,0
							c0,0.3-0.2,0.5-0.5,0.5l0,0C690.3,103,690.1,102.8,690.1,102.5z M690.1,100.5c0-0.3,0.2-0.5,0.5-0.5l0,0
							c0.3,0,0.5,0.2,0.5,0.5l0,0c0,0.3-0.2,0.5-0.5,0.5l0,0C690.3,101,690.1,100.8,690.1,100.5z M690.1,98.5c0-0.3,0.2-0.5,0.5-0.5
							l0,0c0.3,0,0.5,0.2,0.5,0.5l0,0c0,0.3-0.2,0.5-0.5,0.5l0,0C690.3,99,690.1,98.8,690.1,98.5z M690.1,96.5
							c0-0.3,0.2-0.5,0.5-0.5l0,0c0.3,0,0.5,0.2,0.5,0.5l0,0c0,0.3-0.2,0.5-0.5,0.5l0,0C690.3,97,690.1,96.8,690.1,96.5z
							 M690.1,94.5c0-0.3,0.2-0.5,0.5-0.5l0,0c0.3,0,0.5,0.2,0.5,0.5l0,0c0,0.3-0.2,0.5-0.5,0.5l0,0C690.3,95,690.1,94.8,690.1,94.5
							z M690.1,92.5c0-0.3,0.2-0.5,0.5-0.5l0,0c0.3,0,0.5,0.2,0.5,0.5l0,0c0,0.3-0.2,0.5-0.5,0.5l0,0
							C690.3,93,690.1,92.8,690.1,92.5z M690.1,90.5c0-0.3,0.2-0.5,0.5-0.5l0,0c0.3,0,0.5,0.2,0.5,0.5l0,0c0,0.3-0.2,0.5-0.5,0.5
							l0,0C690.3,91,690.1,90.8,690.1,90.5z M690.1,88.5c0-0.3,0.2-0.5,0.5-0.5l0,0c0.3,0,0.5,0.2,0.5,0.5l0,0
							c0,0.3-0.2,0.5-0.5,0.5l0,0C690.3,89,690.1,88.8,690.1,88.5z M690.1,86.5c0-0.3,0.2-0.5,0.5-0.5l0,0c0.3,0,0.5,0.2,0.5,0.5
							l0,0c0,0.3-0.2,0.5-0.5,0.5l0,0C690.3,87,690.1,86.8,690.1,86.5z M690.1,84.5c0-0.3,0.2-0.5,0.5-0.5l0,0
							c0.3,0,0.5,0.2,0.5,0.5l0,0c0,0.3-0.2,0.5-0.5,0.5l0,0C690.3,85,690.1,84.8,690.1,84.5z M690.1,82.5c0-0.3,0.2-0.5,0.5-0.5
							l0,0c0.3,0,0.5,0.2,0.5,0.5l0,0c0,0.3-0.2,0.5-0.5,0.5l0,0C690.3,83,690.1,82.8,690.1,82.5z M690.1,80.5
							c0-0.3,0.2-0.5,0.5-0.5l0,0c0.3,0,0.5,0.2,0.5,0.5l0,0c0,0.3-0.2,0.5-0.5,0.5l0,0C690.3,81,690.1,80.8,690.1,80.5z
							 M690.1,78.5c0-0.3,0.2-0.5,0.5-0.5l0,0c0.3,0,0.5,0.2,0.5,0.5l0,0c0,0.3-0.2,0.5-0.5,0.5l0,0C690.3,79,690.1,78.8,690.1,78.5
							z M690.1,76.5c0-0.3,0.2-0.5,0.5-0.5l0,0c0.3,0,0.5,0.2,0.5,0.5l0,0c0,0.3-0.2,0.5-0.5,0.5l0,0
							C690.3,77,690.1,76.8,690.1,76.5z M690.1,74.5c0-0.3,0.2-0.5,0.5-0.5l0,0c0.3,0,0.5,0.2,0.5,0.5l0,0c0,0.3-0.2,0.5-0.5,0.5
							l0,0C690.3,75,690.1,74.8,690.1,74.5z M690.1,72.5c0-0.3,0.2-0.5,0.5-0.5l0,0c0.3,0,0.5,0.2,0.5,0.5l0,0
							c0,0.3-0.2,0.5-0.5,0.5l0,0C690.3,73,690.1,72.8,690.1,72.5z M690.1,70.5c0-0.3,0.2-0.5,0.5-0.5l0,0c0.3,0,0.5,0.2,0.5,0.5
							l0,0c0,0.3-0.2,0.5-0.5,0.5l0,0C690.3,71,690.1,70.8,690.1,70.5z M690.1,68.5c0-0.3,0.2-0.5,0.5-0.5l0,0
							c0.3,0,0.5,0.2,0.5,0.5l0,0c0,0.3-0.2,0.5-0.5,0.5l0,0C690.3,69,690.1,68.8,690.1,68.5z M690.1,66.5c0-0.3,0.2-0.5,0.5-0.5
							l0,0c0.3,0,0.5,0.2,0.5,0.5l0,0c0,0.3-0.2,0.5-0.5,0.5l0,0C690.3,67,690.1,66.8,690.1,66.5z M690.1,64.5
							c0-0.3,0.2-0.5,0.5-0.5l0,0c0.3,0,0.5,0.2,0.5,0.5l0,0c0,0.3-0.2,0.5-0.5,0.5l0,0C690.3,65,690.1,64.8,690.1,64.5z
							 M690.1,62.5c0-0.3,0.2-0.5,0.5-0.5l0,0c0.3,0,0.5,0.2,0.5,0.5l0,0c0,0.3-0.2,0.5-0.5,0.5l0,0C690.3,63,690.1,62.8,690.1,62.5
							z M690.1,60.5c0-0.3,0.2-0.5,0.5-0.5l0,0c0.3,0,0.5,0.2,0.5,0.5l0,0c0,0.3-0.2,0.5-0.5,0.5l0,0
							C690.3,61,690.1,60.8,690.1,60.5z M690.1,58.5c0-0.3,0.2-0.5,0.5-0.5l0,0c0.3,0,0.5,0.2,0.5,0.5l0,0c0,0.3-0.2,0.5-0.5,0.5
							l0,0C690.3,59,690.1,58.8,690.1,58.5z M690.1,56.5c0-0.3,0.2-0.5,0.5-0.5l0,0c0.3,0,0.5,0.2,0.5,0.5l0,0
							c0,0.3-0.2,0.5-0.5,0.5l0,0C690.3,57,690.1,56.8,690.1,56.5z M690.1,54.5c0-0.3,0.2-0.5,0.5-0.5l0,0c0.3,0,0.5,0.2,0.5,0.5
							l0,0c0,0.3-0.2,0.5-0.5,0.5l0,0C690.3,55,690.1,54.8,690.1,54.5z M690.1,52.5c0-0.3,0.2-0.5,0.5-0.5l0,0
							c0.3,0,0.5,0.2,0.5,0.5l0,0c0,0.3-0.2,0.5-0.5,0.5l0,0C690.3,53,690.1,52.8,690.1,52.5z M690.1,50.5c0-0.3,0.2-0.5,0.5-0.5
							l0,0c0.3,0,0.5,0.2,0.5,0.5l0,0c0,0.3-0.2,0.5-0.5,0.5l0,0C690.3,51,690.1,50.8,690.1,50.5z M690.1,48.5
							c0-0.3,0.2-0.5,0.5-0.5l0,0c0.3,0,0.5,0.2,0.5,0.5l0,0c0,0.3-0.2,0.5-0.5,0.5l0,0C690.3,49,690.1,48.8,690.1,48.5z
							 M690.1,46.5c0-0.3,0.2-0.5,0.5-0.5l0,0c0.3,0,0.5,0.2,0.5,0.5l0,0c0,0.3-0.2,0.5-0.5,0.5l0,0C690.3,47,690.1,46.8,690.1,46.5
							z M690.1,44.5c0-0.3,0.2-0.5,0.5-0.5l0,0c0.3,0,0.5,0.2,0.5,0.5l0,0c0,0.3-0.2,0.5-0.5,0.5l0,0
							C690.3,45,690.1,44.8,690.1,44.5z M690.1,42.5c0-0.3,0.2-0.5,0.5-0.5l0,0c0.3,0,0.5,0.2,0.5,0.5l0,0c0,0.3-0.2,0.5-0.5,0.5
							l0,0C690.3,43,690.1,42.8,690.1,42.5z M690.1,40.5c0-0.3,0.2-0.5,0.5-0.5l0,0c0.3,0,0.5,0.2,0.5,0.5l0,0
							c0,0.3-0.2,0.5-0.5,0.5l0,0C690.3,41,690.1,40.8,690.1,40.5z M690.1,38.5c0-0.3,0.2-0.5,0.5-0.5l0,0c0.3,0,0.5,0.2,0.5,0.5
							l0,0c0,0.3-0.2,0.5-0.5,0.5l0,0C690.3,39,690.1,38.8,690.1,38.5z M690.1,36.5c0-0.3,0.2-0.5,0.5-0.5l0,0
							c0.3,0,0.5,0.2,0.5,0.5l0,0c0,0.3-0.2,0.5-0.5,0.5l0,0C690.3,37,690.1,36.8,690.1,36.5z M690.1,34.5c0-0.3,0.2-0.5,0.5-0.5
							l0,0c0.3,0,0.5,0.2,0.5,0.5l0,0c0,0.3-0.2,0.5-0.5,0.5l0,0C690.3,35,690.1,34.8,690.1,34.5z M690.1,32.5
							c0-0.3,0.2-0.5,0.5-0.5l0,0c0.3,0,0.5,0.2,0.5,0.5l0,0c0,0.3-0.2,0.5-0.5,0.5l0,0C690.3,33,690.1,32.8,690.1,32.5z
							 M690.1,30.5c0-0.3,0.2-0.5,0.5-0.5l0,0c0.3,0,0.5,0.2,0.5,0.5l0,0c0,0.3-0.2,0.5-0.5,0.5l0,0C690.3,31,690.1,30.8,690.1,30.5
							z M690.1,28.5c0-0.3,0.2-0.5,0.5-0.5l0,0c0.3,0,0.5,0.2,0.5,0.5l0,0c0,0.3-0.2,0.5-0.5,0.5l0,0
							C690.3,29,690.1,28.8,690.1,28.5z M690.1,26.5c0-0.3,0.2-0.5,0.5-0.5l0,0c0.3,0,0.5,0.2,0.5,0.5l0,0c0,0.3-0.2,0.5-0.5,0.5
							l0,0C690.3,27,690.1,26.8,690.1,26.5z M690.1,24.5c0-0.3,0.2-0.5,0.5-0.5l0,0c0.3,0,0.5,0.2,0.5,0.5l0,0
							c0,0.3-0.2,0.5-0.5,0.5l0,0C690.3,25,690.1,24.8,690.1,24.5z M690.1,22.5c0-0.3,0.2-0.5,0.5-0.5l0,0c0.3,0,0.5,0.2,0.5,0.5
							l0,0c0,0.3-0.2,0.5-0.5,0.5l0,0C690.3,23,690.1,22.8,690.1,22.5z M690.1,20.5c0-0.3,0.2-0.5,0.5-0.5l0,0
							c0.3,0,0.5,0.2,0.5,0.5l0,0c0,0.3-0.2,0.5-0.5,0.5l0,0C690.3,21,690.1,20.8,690.1,20.5z M690.1,18.5c0-0.3,0.2-0.5,0.5-0.5
							l0,0c0.3,0,0.5,0.2,0.5,0.5l0,0c0,0.3-0.2,0.5-0.5,0.5l0,0C690.3,19,690.1,18.8,690.1,18.5z M690.1,16.5
							c0-0.3,0.2-0.5,0.5-0.5l0,0c0.3,0,0.5,0.2,0.5,0.5l0,0c0,0.3-0.2,0.5-0.5,0.5l0,0C690.3,17,690.1,16.8,690.1,16.5z
							 M690.1,14.5c0-0.3,0.2-0.5,0.5-0.5l0,0c0.3,0,0.5,0.2,0.5,0.5l0,0c0,0.3-0.2,0.5-0.5,0.5l0,0C690.3,15,690.1,14.8,690.1,14.5
							z M690.1,12.5c0-0.3,0.2-0.5,0.5-0.5l0,0c0.3,0,0.5,0.2,0.5,0.5l0,0c0,0.3-0.2,0.5-0.5,0.5l0,0
							C690.3,13,690.1,12.8,690.1,12.5z M690.1,10.5c0-0.3,0.2-0.5,0.5-0.5l0,0c0.3,0,0.5,0.2,0.5,0.5l0,0c0,0.3-0.2,0.5-0.5,0.5
							l0,0C690.3,11,690.1,10.8,690.1,10.5z M690.1,8.5c0-0.3,0.2-0.5,0.5-0.5l0,0c0.3,0,0.5,0.2,0.5,0.5l0,0c0,0.3-0.2,0.5-0.5,0.5
							l0,0C690.3,9,690.1,8.8,690.1,8.5z M690.1,6.5c0-0.3,0.2-0.5,0.5-0.5l0,0c0.3,0,0.5,0.2,0.5,0.5l0,0c0,0.3-0.2,0.5-0.5,0.5
							l0,0C690.3,7,690.1,6.8,690.1,6.5z"/>
					</g>
				</g>
			</g>
			<g opacity="0.35">
				<g>
					<g>
						<path fill="#282828" d="M762.1,4.5c0-0.3,0.2-0.5,0.5-0.5l0,0c0.3,0,0.5,0.2,0.5,0.5l0,0c0,0.3-0.2,0.5-0.5,0.5l0,0
							C762.3,5,762.1,4.8,762.1,4.5z M762.1,2.5c0-0.3,0.2-0.5,0.5-0.5l0,0c0.3,0,0.5,0.2,0.5,0.5l0,0c0,0.3-0.2,0.5-0.5,0.5l0,0
							C762.3,3,762.1,2.8,762.1,2.5z M762.1,0.5c0-0.3,0.2-0.5,0.5-0.5l0,0c0.3,0,0.5,0.2,0.5,0.5l0,0c0,0.3-0.2,0.5-0.5,0.5l0,0
							C762.3,1,762.1,0.8,762.1,0.5z"/>
					</g>
					<g>
						<path fill="#282828" d="M762.1,200.5c0-0.3,0.2-0.5,0.5-0.5l0,0c0.3,0,0.5,0.2,0.5,0.5l0,0c0,0.3-0.2,0.5-0.5,0.5l0,0
							C762.3,201,762.1,200.8,762.1,200.5z M762.1,198.5c0-0.3,0.2-0.5,0.5-0.5l0,0c0.3,0,0.5,0.2,0.5,0.5l0,0
							c0,0.3-0.2,0.5-0.5,0.5l0,0C762.3,199,762.1,198.8,762.1,198.5z M762.1,196.5c0-0.3,0.2-0.5,0.5-0.5l0,0
							c0.3,0,0.5,0.2,0.5,0.5l0,0c0,0.3-0.2,0.5-0.5,0.5l0,0C762.3,197,762.1,196.8,762.1,196.5z M762.1,194.5
							c0-0.3,0.2-0.5,0.5-0.5l0,0c0.3,0,0.5,0.2,0.5,0.5l0,0c0,0.3-0.2,0.5-0.5,0.5l0,0C762.3,195,762.1,194.8,762.1,194.5z
							 M762.1,192.5c0-0.3,0.2-0.5,0.5-0.5l0,0c0.3,0,0.5,0.2,0.5,0.5l0,0c0,0.3-0.2,0.5-0.5,0.5l0,0
							C762.3,193,762.1,192.8,762.1,192.5z M762.1,190.5c0-0.3,0.2-0.5,0.5-0.5l0,0c0.3,0,0.5,0.2,0.5,0.5l0,0
							c0,0.3-0.2,0.5-0.5,0.5l0,0C762.3,191,762.1,190.8,762.1,190.5z M762.1,188.5c0-0.3,0.2-0.5,0.5-0.5l0,0
							c0.3,0,0.5,0.2,0.5,0.5l0,0c0,0.3-0.2,0.5-0.5,0.5l0,0C762.3,189,762.1,188.8,762.1,188.5z M762.1,186.5
							c0-0.3,0.2-0.5,0.5-0.5l0,0c0.3,0,0.5,0.2,0.5,0.5l0,0c0,0.3-0.2,0.5-0.5,0.5l0,0C762.3,187,762.1,186.8,762.1,186.5z
							 M762.1,184.5c0-0.3,0.2-0.5,0.5-0.5l0,0c0.3,0,0.5,0.2,0.5,0.5l0,0c0,0.3-0.2,0.5-0.5,0.5l0,0
							C762.3,185,762.1,184.8,762.1,184.5z M762.1,182.5c0-0.3,0.2-0.5,0.5-0.5l0,0c0.3,0,0.5,0.2,0.5,0.5l0,0
							c0,0.3-0.2,0.5-0.5,0.5l0,0C762.3,183,762.1,182.8,762.1,182.5z M762.1,180.5c0-0.3,0.2-0.5,0.5-0.5l0,0
							c0.3,0,0.5,0.2,0.5,0.5l0,0c0,0.3-0.2,0.5-0.5,0.5l0,0C762.3,181,762.1,180.8,762.1,180.5z M762.1,178.5
							c0-0.3,0.2-0.5,0.5-0.5l0,0c0.3,0,0.5,0.2,0.5,0.5l0,0c0,0.3-0.2,0.5-0.5,0.5l0,0C762.3,179,762.1,178.8,762.1,178.5z
							 M762.1,176.5c0-0.3,0.2-0.5,0.5-0.5l0,0c0.3,0,0.5,0.2,0.5,0.5l0,0c0,0.3-0.2,0.5-0.5,0.5l0,0
							C762.3,177,762.1,176.8,762.1,176.5z M762.1,174.5c0-0.3,0.2-0.5,0.5-0.5l0,0c0.3,0,0.5,0.2,0.5,0.5l0,0
							c0,0.3-0.2,0.5-0.5,0.5l0,0C762.3,175,762.1,174.8,762.1,174.5z M762.1,172.5c0-0.3,0.2-0.5,0.5-0.5l0,0
							c0.3,0,0.5,0.2,0.5,0.5l0,0c0,0.3-0.2,0.5-0.5,0.5l0,0C762.3,173,762.1,172.8,762.1,172.5z M762.1,170.5
							c0-0.3,0.2-0.5,0.5-0.5l0,0c0.3,0,0.5,0.2,0.5,0.5l0,0c0,0.3-0.2,0.5-0.5,0.5l0,0C762.3,171,762.1,170.8,762.1,170.5z
							 M762.1,168.5c0-0.3,0.2-0.5,0.5-0.5l0,0c0.3,0,0.5,0.2,0.5,0.5l0,0c0,0.3-0.2,0.5-0.5,0.5l0,0
							C762.3,169,762.1,168.8,762.1,168.5z M762.1,166.5c0-0.3,0.2-0.5,0.5-0.5l0,0c0.3,0,0.5,0.2,0.5,0.5l0,0
							c0,0.3-0.2,0.5-0.5,0.5l0,0C762.3,167,762.1,166.8,762.1,166.5z M762.1,164.5c0-0.3,0.2-0.5,0.5-0.5l0,0
							c0.3,0,0.5,0.2,0.5,0.5l0,0c0,0.3-0.2,0.5-0.5,0.5l0,0C762.3,165,762.1,164.8,762.1,164.5z M762.1,162.5
							c0-0.3,0.2-0.5,0.5-0.5l0,0c0.3,0,0.5,0.2,0.5,0.5l0,0c0,0.3-0.2,0.5-0.5,0.5l0,0C762.3,163,762.1,162.8,762.1,162.5z
							 M762.1,160.5c0-0.3,0.2-0.5,0.5-0.5l0,0c0.3,0,0.5,0.2,0.5,0.5l0,0c0,0.3-0.2,0.5-0.5,0.5l0,0
							C762.3,161,762.1,160.8,762.1,160.5z M762.1,158.5c0-0.3,0.2-0.5,0.5-0.5l0,0c0.3,0,0.5,0.2,0.5,0.5l0,0
							c0,0.3-0.2,0.5-0.5,0.5l0,0C762.3,159,762.1,158.8,762.1,158.5z M762.1,156.5c0-0.3,0.2-0.5,0.5-0.5l0,0
							c0.3,0,0.5,0.2,0.5,0.5l0,0c0,0.3-0.2,0.5-0.5,0.5l0,0C762.3,157,762.1,156.8,762.1,156.5z M762.1,154.5
							c0-0.3,0.2-0.5,0.5-0.5l0,0c0.3,0,0.5,0.2,0.5,0.5l0,0c0,0.3-0.2,0.5-0.5,0.5l0,0C762.3,155,762.1,154.8,762.1,154.5z
							 M762.1,152.5c0-0.3,0.2-0.5,0.5-0.5l0,0c0.3,0,0.5,0.2,0.5,0.5l0,0c0,0.3-0.2,0.5-0.5,0.5l0,0
							C762.3,153,762.1,152.8,762.1,152.5z M762.1,150.5c0-0.3,0.2-0.5,0.5-0.5l0,0c0.3,0,0.5,0.2,0.5,0.5l0,0
							c0,0.3-0.2,0.5-0.5,0.5l0,0C762.3,151,762.1,150.8,762.1,150.5z M762.1,148.5c0-0.3,0.2-0.5,0.5-0.5l0,0
							c0.3,0,0.5,0.2,0.5,0.5l0,0c0,0.3-0.2,0.5-0.5,0.5l0,0C762.3,149,762.1,148.8,762.1,148.5z M762.1,146.5
							c0-0.3,0.2-0.5,0.5-0.5l0,0c0.3,0,0.5,0.2,0.5,0.5l0,0c0,0.3-0.2,0.5-0.5,0.5l0,0C762.3,147,762.1,146.8,762.1,146.5z
							 M762.1,144.5c0-0.3,0.2-0.5,0.5-0.5l0,0c0.3,0,0.5,0.2,0.5,0.5l0,0c0,0.3-0.2,0.5-0.5,0.5l0,0
							C762.3,145,762.1,144.8,762.1,144.5z M762.1,142.5c0-0.3,0.2-0.5,0.5-0.5l0,0c0.3,0,0.5,0.2,0.5,0.5l0,0
							c0,0.3-0.2,0.5-0.5,0.5l0,0C762.3,143,762.1,142.8,762.1,142.5z M762.1,140.5c0-0.3,0.2-0.5,0.5-0.5l0,0
							c0.3,0,0.5,0.2,0.5,0.5l0,0c0,0.3-0.2,0.5-0.5,0.5l0,0C762.3,141,762.1,140.8,762.1,140.5z M762.1,138.5
							c0-0.3,0.2-0.5,0.5-0.5l0,0c0.3,0,0.5,0.2,0.5,0.5l0,0c0,0.3-0.2,0.5-0.5,0.5l0,0C762.3,139,762.1,138.8,762.1,138.5z
							 M762.1,136.5c0-0.3,0.2-0.5,0.5-0.5l0,0c0.3,0,0.5,0.2,0.5,0.5l0,0c0,0.3-0.2,0.5-0.5,0.5l0,0
							C762.3,137,762.1,136.8,762.1,136.5z M762.1,134.5c0-0.3,0.2-0.5,0.5-0.5l0,0c0.3,0,0.5,0.2,0.5,0.5l0,0
							c0,0.3-0.2,0.5-0.5,0.5l0,0C762.3,135,762.1,134.8,762.1,134.5z M762.1,132.5c0-0.3,0.2-0.5,0.5-0.5l0,0
							c0.3,0,0.5,0.2,0.5,0.5l0,0c0,0.3-0.2,0.5-0.5,0.5l0,0C762.3,133,762.1,132.8,762.1,132.5z M762.1,130.5
							c0-0.3,0.2-0.5,0.5-0.5l0,0c0.3,0,0.5,0.2,0.5,0.5l0,0c0,0.3-0.2,0.5-0.5,0.5l0,0C762.3,131,762.1,130.8,762.1,130.5z
							 M762.1,128.5c0-0.3,0.2-0.5,0.5-0.5l0,0c0.3,0,0.5,0.2,0.5,0.5l0,0c0,0.3-0.2,0.5-0.5,0.5l0,0
							C762.3,129,762.1,128.8,762.1,128.5z M762.1,126.5c0-0.3,0.2-0.5,0.5-0.5l0,0c0.3,0,0.5,0.2,0.5,0.5l0,0
							c0,0.3-0.2,0.5-0.5,0.5l0,0C762.3,127,762.1,126.8,762.1,126.5z M762.1,124.5c0-0.3,0.2-0.5,0.5-0.5l0,0
							c0.3,0,0.5,0.2,0.5,0.5l0,0c0,0.3-0.2,0.5-0.5,0.5l0,0C762.3,125,762.1,124.8,762.1,124.5z M762.1,122.5
							c0-0.3,0.2-0.5,0.5-0.5l0,0c0.3,0,0.5,0.2,0.5,0.5l0,0c0,0.3-0.2,0.5-0.5,0.5l0,0C762.3,123,762.1,122.8,762.1,122.5z
							 M762.1,120.5c0-0.3,0.2-0.5,0.5-0.5l0,0c0.3,0,0.5,0.2,0.5,0.5l0,0c0,0.3-0.2,0.5-0.5,0.5l0,0
							C762.3,121,762.1,120.8,762.1,120.5z M762.1,118.5c0-0.3,0.2-0.5,0.5-0.5l0,0c0.3,0,0.5,0.2,0.5,0.5l0,0
							c0,0.3-0.2,0.5-0.5,0.5l0,0C762.3,119,762.1,118.8,762.1,118.5z M762.1,116.5c0-0.3,0.2-0.5,0.5-0.5l0,0
							c0.3,0,0.5,0.2,0.5,0.5l0,0c0,0.3-0.2,0.5-0.5,0.5l0,0C762.3,117,762.1,116.8,762.1,116.5z M762.1,114.5
							c0-0.3,0.2-0.5,0.5-0.5l0,0c0.3,0,0.5,0.2,0.5,0.5l0,0c0,0.3-0.2,0.5-0.5,0.5l0,0C762.3,115,762.1,114.8,762.1,114.5z
							 M762.1,112.5c0-0.3,0.2-0.5,0.5-0.5l0,0c0.3,0,0.5,0.2,0.5,0.5l0,0c0,0.3-0.2,0.5-0.5,0.5l0,0
							C762.3,113,762.1,112.8,762.1,112.5z M762.1,110.5c0-0.3,0.2-0.5,0.5-0.5l0,0c0.3,0,0.5,0.2,0.5,0.5l0,0
							c0,0.3-0.2,0.5-0.5,0.5l0,0C762.3,111,762.1,110.8,762.1,110.5z M762.1,108.5c0-0.3,0.2-0.5,0.5-0.5l0,0
							c0.3,0,0.5,0.2,0.5,0.5l0,0c0,0.3-0.2,0.5-0.5,0.5l0,0C762.3,109,762.1,108.8,762.1,108.5z M762.1,106.5
							c0-0.3,0.2-0.5,0.5-0.5l0,0c0.3,0,0.5,0.2,0.5,0.5l0,0c0,0.3-0.2,0.5-0.5,0.5l0,0C762.3,107,762.1,106.8,762.1,106.5z
							 M762.1,104.5c0-0.3,0.2-0.5,0.5-0.5l0,0c0.3,0,0.5,0.2,0.5,0.5l0,0c0,0.3-0.2,0.5-0.5,0.5l0,0
							C762.3,105,762.1,104.8,762.1,104.5z M762.1,102.5c0-0.3,0.2-0.5,0.5-0.5l0,0c0.3,0,0.5,0.2,0.5,0.5l0,0
							c0,0.3-0.2,0.5-0.5,0.5l0,0C762.3,103,762.1,102.8,762.1,102.5z M762.1,100.5c0-0.3,0.2-0.5,0.5-0.5l0,0
							c0.3,0,0.5,0.2,0.5,0.5l0,0c0,0.3-0.2,0.5-0.5,0.5l0,0C762.3,101,762.1,100.8,762.1,100.5z M762.1,98.5c0-0.3,0.2-0.5,0.5-0.5
							l0,0c0.3,0,0.5,0.2,0.5,0.5l0,0c0,0.3-0.2,0.5-0.5,0.5l0,0C762.3,99,762.1,98.8,762.1,98.5z M762.1,96.5
							c0-0.3,0.2-0.5,0.5-0.5l0,0c0.3,0,0.5,0.2,0.5,0.5l0,0c0,0.3-0.2,0.5-0.5,0.5l0,0C762.3,97,762.1,96.8,762.1,96.5z
							 M762.1,94.5c0-0.3,0.2-0.5,0.5-0.5l0,0c0.3,0,0.5,0.2,0.5,0.5l0,0c0,0.3-0.2,0.5-0.5,0.5l0,0C762.3,95,762.1,94.8,762.1,94.5
							z M762.1,92.5c0-0.3,0.2-0.5,0.5-0.5l0,0c0.3,0,0.5,0.2,0.5,0.5l0,0c0,0.3-0.2,0.5-0.5,0.5l0,0
							C762.3,93,762.1,92.8,762.1,92.5z M762.1,90.5c0-0.3,0.2-0.5,0.5-0.5l0,0c0.3,0,0.5,0.2,0.5,0.5l0,0c0,0.3-0.2,0.5-0.5,0.5
							l0,0C762.3,91,762.1,90.8,762.1,90.5z M762.1,88.5c0-0.3,0.2-0.5,0.5-0.5l0,0c0.3,0,0.5,0.2,0.5,0.5l0,0
							c0,0.3-0.2,0.5-0.5,0.5l0,0C762.3,89,762.1,88.8,762.1,88.5z M762.1,86.5c0-0.3,0.2-0.5,0.5-0.5l0,0c0.3,0,0.5,0.2,0.5,0.5
							l0,0c0,0.3-0.2,0.5-0.5,0.5l0,0C762.3,87,762.1,86.8,762.1,86.5z M762.1,84.5c0-0.3,0.2-0.5,0.5-0.5l0,0
							c0.3,0,0.5,0.2,0.5,0.5l0,0c0,0.3-0.2,0.5-0.5,0.5l0,0C762.3,85,762.1,84.8,762.1,84.5z M762.1,82.5c0-0.3,0.2-0.5,0.5-0.5
							l0,0c0.3,0,0.5,0.2,0.5,0.5l0,0c0,0.3-0.2,0.5-0.5,0.5l0,0C762.3,83,762.1,82.8,762.1,82.5z M762.1,80.5
							c0-0.3,0.2-0.5,0.5-0.5l0,0c0.3,0,0.5,0.2,0.5,0.5l0,0c0,0.3-0.2,0.5-0.5,0.5l0,0C762.3,81,762.1,80.8,762.1,80.5z
							 M762.1,78.5c0-0.3,0.2-0.5,0.5-0.5l0,0c0.3,0,0.5,0.2,0.5,0.5l0,0c0,0.3-0.2,0.5-0.5,0.5l0,0C762.3,79,762.1,78.8,762.1,78.5
							z M762.1,76.5c0-0.3,0.2-0.5,0.5-0.5l0,0c0.3,0,0.5,0.2,0.5,0.5l0,0c0,0.3-0.2,0.5-0.5,0.5l0,0
							C762.3,77,762.1,76.8,762.1,76.5z M762.1,74.5c0-0.3,0.2-0.5,0.5-0.5l0,0c0.3,0,0.5,0.2,0.5,0.5l0,0c0,0.3-0.2,0.5-0.5,0.5
							l0,0C762.3,75,762.1,74.8,762.1,74.5z M762.1,72.5c0-0.3,0.2-0.5,0.5-0.5l0,0c0.3,0,0.5,0.2,0.5,0.5l0,0
							c0,0.3-0.2,0.5-0.5,0.5l0,0C762.3,73,762.1,72.8,762.1,72.5z M762.1,70.5c0-0.3,0.2-0.5,0.5-0.5l0,0c0.3,0,0.5,0.2,0.5,0.5
							l0,0c0,0.3-0.2,0.5-0.5,0.5l0,0C762.3,71,762.1,70.8,762.1,70.5z M762.1,68.5c0-0.3,0.2-0.5,0.5-0.5l0,0
							c0.3,0,0.5,0.2,0.5,0.5l0,0c0,0.3-0.2,0.5-0.5,0.5l0,0C762.3,69,762.1,68.8,762.1,68.5z M762.1,66.5c0-0.3,0.2-0.5,0.5-0.5
							l0,0c0.3,0,0.5,0.2,0.5,0.5l0,0c0,0.3-0.2,0.5-0.5,0.5l0,0C762.3,67,762.1,66.8,762.1,66.5z M762.1,64.5
							c0-0.3,0.2-0.5,0.5-0.5l0,0c0.3,0,0.5,0.2,0.5,0.5l0,0c0,0.3-0.2,0.5-0.5,0.5l0,0C762.3,65,762.1,64.8,762.1,64.5z
							 M762.1,62.5c0-0.3,0.2-0.5,0.5-0.5l0,0c0.3,0,0.5,0.2,0.5,0.5l0,0c0,0.3-0.2,0.5-0.5,0.5l0,0C762.3,63,762.1,62.8,762.1,62.5
							z M762.1,60.5c0-0.3,0.2-0.5,0.5-0.5l0,0c0.3,0,0.5,0.2,0.5,0.5l0,0c0,0.3-0.2,0.5-0.5,0.5l0,0
							C762.3,61,762.1,60.8,762.1,60.5z M762.1,58.5c0-0.3,0.2-0.5,0.5-0.5l0,0c0.3,0,0.5,0.2,0.5,0.5l0,0c0,0.3-0.2,0.5-0.5,0.5
							l0,0C762.3,59,762.1,58.8,762.1,58.5z M762.1,56.5c0-0.3,0.2-0.5,0.5-0.5l0,0c0.3,0,0.5,0.2,0.5,0.5l0,0
							c0,0.3-0.2,0.5-0.5,0.5l0,0C762.3,57,762.1,56.8,762.1,56.5z M762.1,54.5c0-0.3,0.2-0.5,0.5-0.5l0,0c0.3,0,0.5,0.2,0.5,0.5
							l0,0c0,0.3-0.2,0.5-0.5,0.5l0,0C762.3,55,762.1,54.8,762.1,54.5z M762.1,52.5c0-0.3,0.2-0.5,0.5-0.5l0,0
							c0.3,0,0.5,0.2,0.5,0.5l0,0c0,0.3-0.2,0.5-0.5,0.5l0,0C762.3,53,762.1,52.8,762.1,52.5z M762.1,50.5c0-0.3,0.2-0.5,0.5-0.5
							l0,0c0.3,0,0.5,0.2,0.5,0.5l0,0c0,0.3-0.2,0.5-0.5,0.5l0,0C762.3,51,762.1,50.8,762.1,50.5z M762.1,48.5
							c0-0.3,0.2-0.5,0.5-0.5l0,0c0.3,0,0.5,0.2,0.5,0.5l0,0c0,0.3-0.2,0.5-0.5,0.5l0,0C762.3,49,762.1,48.8,762.1,48.5z
							 M762.1,46.5c0-0.3,0.2-0.5,0.5-0.5l0,0c0.3,0,0.5,0.2,0.5,0.5l0,0c0,0.3-0.2,0.5-0.5,0.5l0,0C762.3,47,762.1,46.8,762.1,46.5
							z M762.1,44.5c0-0.3,0.2-0.5,0.5-0.5l0,0c0.3,0,0.5,0.2,0.5,0.5l0,0c0,0.3-0.2,0.5-0.5,0.5l0,0
							C762.3,45,762.1,44.8,762.1,44.5z M762.1,42.5c0-0.3,0.2-0.5,0.5-0.5l0,0c0.3,0,0.5,0.2,0.5,0.5l0,0c0,0.3-0.2,0.5-0.5,0.5
							l0,0C762.3,43,762.1,42.8,762.1,42.5z M762.1,40.5c0-0.3,0.2-0.5,0.5-0.5l0,0c0.3,0,0.5,0.2,0.5,0.5l0,0
							c0,0.3-0.2,0.5-0.5,0.5l0,0C762.3,41,762.1,40.8,762.1,40.5z M762.1,38.5c0-0.3,0.2-0.5,0.5-0.5l0,0c0.3,0,0.5,0.2,0.5,0.5
							l0,0c0,0.3-0.2,0.5-0.5,0.5l0,0C762.3,39,762.1,38.8,762.1,38.5z M762.1,36.5c0-0.3,0.2-0.5,0.5-0.5l0,0
							c0.3,0,0.5,0.2,0.5,0.5l0,0c0,0.3-0.2,0.5-0.5,0.5l0,0C762.3,37,762.1,36.8,762.1,36.5z M762.1,34.5c0-0.3,0.2-0.5,0.5-0.5
							l0,0c0.3,0,0.5,0.2,0.5,0.5l0,0c0,0.3-0.2,0.5-0.5,0.5l0,0C762.3,35,762.1,34.8,762.1,34.5z M762.1,32.5
							c0-0.3,0.2-0.5,0.5-0.5l0,0c0.3,0,0.5,0.2,0.5,0.5l0,0c0,0.3-0.2,0.5-0.5,0.5l0,0C762.3,33,762.1,32.8,762.1,32.5z
							 M762.1,30.5c0-0.3,0.2-0.5,0.5-0.5l0,0c0.3,0,0.5,0.2,0.5,0.5l0,0c0,0.3-0.2,0.5-0.5,0.5l0,0C762.3,31,762.1,30.8,762.1,30.5
							z M762.1,28.5c0-0.3,0.2-0.5,0.5-0.5l0,0c0.3,0,0.5,0.2,0.5,0.5l0,0c0,0.3-0.2,0.5-0.5,0.5l0,0
							C762.3,29,762.1,28.8,762.1,28.5z M762.1,26.5c0-0.3,0.2-0.5,0.5-0.5l0,0c0.3,0,0.5,0.2,0.5,0.5l0,0c0,0.3-0.2,0.5-0.5,0.5
							l0,0C762.3,27,762.1,26.8,762.1,26.5z M762.1,24.5c0-0.3,0.2-0.5,0.5-0.5l0,0c0.3,0,0.5,0.2,0.5,0.5l0,0
							c0,0.3-0.2,0.5-0.5,0.5l0,0C762.3,25,762.1,24.8,762.1,24.5z M762.1,22.5c0-0.3,0.2-0.5,0.5-0.5l0,0c0.3,0,0.5,0.2,0.5,0.5
							l0,0c0,0.3-0.2,0.5-0.5,0.5l0,0C762.3,23,762.1,22.8,762.1,22.5z M762.1,20.5c0-0.3,0.2-0.5,0.5-0.5l0,0
							c0.3,0,0.5,0.2,0.5,0.5l0,0c0,0.3-0.2,0.5-0.5,0.5l0,0C762.3,21,762.1,20.8,762.1,20.5z M762.1,18.5c0-0.3,0.2-0.5,0.5-0.5
							l0,0c0.3,0,0.5,0.2,0.5,0.5l0,0c0,0.3-0.2,0.5-0.5,0.5l0,0C762.3,19,762.1,18.8,762.1,18.5z M762.1,16.5
							c0-0.3,0.2-0.5,0.5-0.5l0,0c0.3,0,0.5,0.2,0.5,0.5l0,0c0,0.3-0.2,0.5-0.5,0.5l0,0C762.3,17,762.1,16.8,762.1,16.5z
							 M762.1,14.5c0-0.3,0.2-0.5,0.5-0.5l0,0c0.3,0,0.5,0.2,0.5,0.5l0,0c0,0.3-0.2,0.5-0.5,0.5l0,0C762.3,15,762.1,14.8,762.1,14.5
							z M762.1,12.5c0-0.3,0.2-0.5,0.5-0.5l0,0c0.3,0,0.5,0.2,0.5,0.5l0,0c0,0.3-0.2,0.5-0.5,0.5l0,0
							C762.3,13,762.1,12.8,762.1,12.5z M762.1,10.5c0-0.3,0.2-0.5,0.5-0.5l0,0c0.3,0,0.5,0.2,0.5,0.5l0,0c0,0.3-0.2,0.5-0.5,0.5
							l0,0C762.3,11,762.1,10.8,762.1,10.5z M762.1,8.5c0-0.3,0.2-0.5,0.5-0.5l0,0c0.3,0,0.5,0.2,0.5,0.5l0,0c0,0.3-0.2,0.5-0.5,0.5
							l0,0C762.3,9,762.1,8.8,762.1,8.5z M762.1,6.5c0-0.3,0.2-0.5,0.5-0.5l0,0c0.3,0,0.5,0.2,0.5,0.5l0,0c0,0.3-0.2,0.5-0.5,0.5
							l0,0C762.3,7,762.1,6.8,762.1,6.5z"/>
					</g>
				</g>
			</g>
			<g>
				<rect x="257.1" y="156.5" fill="#8ABABA" width="498" height="38"/>
				<rect x="257.1" y="106.5" fill="#8ABABA" width="372" height="37"/>
				<rect x="257.1" y="55.5" fill="#8ABABA" width="94" height="36"/>
				<rect x="257.1" y="5.5" fill="#8ABABA" width="48" height="36"/>
			</g>
			<line fill="none" stroke="#282828" stroke-miterlimit="10" x1="255.6" y1="0.5" x2="255.6" y2="201.5"/>
			<g>
				<text transform="matrix(1 0 0 1 299.9328 223.6898)" fill="#282828" font-family="'AktivGrotesk-Regular'" font-size="16">$125 M</text>
			</g>
			<g>
				<text transform="matrix(1 0 0 1 372.4733 223.6898)" fill="#282828" font-family="'AktivGrotesk-Regular'" font-size="16">$250 M</text>
			</g>
			<g>
				<text transform="matrix(1 0 0 1 445.014 223.6898)" fill="#282828" font-family="'AktivGrotesk-Regular'" font-size="16">$375 M</text>
			</g>
			<g>
				<text transform="matrix(1 0 0 1 517.5547 223.6898)" fill="#282828" font-family="'AktivGrotesk-Regular'" font-size="16">$500 M</text>
			</g>
			<g>
				<text transform="matrix(1 0 0 1 590.0952 223.6898)" fill="#282828" font-family="'AktivGrotesk-Regular'" font-size="16">$625 M</text>
			</g>
			<g>
				<g>
					<text transform="matrix(1 0 0 1 662.6348 223.6898)" fill="#282828" font-family="'AktivGrotesk-Regular'" font-size="16">$750 M</text>
				</g>
			</g>
			<g>
				<g>
					<text transform="matrix(1 0 0 1 735.1755 223.6898)" fill="#282828" font-family="'AktivGrotesk-Regular'" font-size="16">$875 M</text>
				</g>
			</g>
			<g>
				<text transform="matrix(1 0 0 1 249.8806 223.6898)" fill="#282828" font-family="'AktivGrotesk-Regular'" font-size="18.144">0</text>
			</g>
			<g>
				<g>
					<text transform="matrix(1 0 0 1 2.5738 18.065)" enable-background="new    "><tspan x="0" y="0" fill="#174F65" font-family="'AktivGrotesk-XBold'" font-size="18">U.S. Department of Housing</tspan><tspan x="31.8" y="20" fill="#174F65" font-family="'AktivGrotesk-XBold'" font-size="18">and Urban Development</tspan></text>
				</g>
			</g>
			<g>
				<text transform="matrix(1 0 0 1 68.9037 171.2958)" enable-background="new    "><tspan x="0" y="0" fill="#174F65" font-family="'AktivGrotesk-XBold'" font-size="18">Border Environment</tspan><tspan x="-45.1" y="20" fill="#174F65" font-family="'AktivGrotesk-XBold'" font-size="18">Cooperation Commission</tspan></text>
			</g>
			<g>
				<text transform="matrix(1 0 0 1 135.916 120.2193)" enable-background="new    "><tspan x="0" y="0" fill="#174F65" font-family="'AktivGrotesk-XBold'" font-size="18">Texas Water</tspan><tspan x="-64.2" y="20" fill="#174F65" font-family="'AktivGrotesk-XBold'" font-size="18">Development Board</tspan></text>
			</g>
			<g>
				<text transform="matrix(1 0 0 1 102.0585 69.1423)" enable-background="new    "><tspan x="0" y="0" fill="#174F65" font-family="'AktivGrotesk-XBold'" font-size="18">U.S. Department</tspan><tspan x="21.5" y="20" fill="#174F65" font-family="'AktivGrotesk-XBold'" font-size="18">of Agriculture</tspan></text>
			</g>
		</g>
	</g>
</g>
<g id="Layer_2" display="none">
</g>
</svg>
