<?xml version="1.0" encoding="utf-8"?>
<!-- Generator: Adobe Illustrator 18.1.1, SVG Export Plug-In . SVG Version: 6.00 Build 0)  -->
<!DOCTYPE svg PUBLIC "-//W3C//DTD SVG 1.1//EN" "http://www.w3.org/Graphics/SVG/1.1/DTD/svg11.dtd">
<svg version="1.1" id="Layer_1" xmlns="http://www.w3.org/2000/svg" xmlns:xlink="http://www.w3.org/1999/xlink" x="0px" y="0px"
	 width="790.2px" height="227.7px" viewBox="245 12.3 790.2 227.7" enable-background="new 245 12.3 790.2 227.7"
	 xml:space="preserve">
<g>
	<g>
		<line fill="none" stroke="#282828" stroke-miterlimit="10" x1="645.2" y1="17.8" x2="645.2" y2="18.3"/>
		
			<line fill="none" stroke="#282828" stroke-miterlimit="10" stroke-dasharray="1.0288,3.0864,1.0288,3.0864" x1="645.2" y1="21.4" x2="645.2" y2="28.1"/>
		
			<line fill="none" stroke="#282828" stroke-miterlimit="10" stroke-dasharray="1.0288,3.0864,1.0288,3.0864,1.0288,3.0864" x1="645.2" y1="29.6" x2="645.2" y2="213.3"/>
		<line fill="none" stroke="#282828" stroke-miterlimit="10" x1="645.2" y1="214.8" x2="645.2" y2="215.3"/>
	</g>
</g>
<g>
	<g>
		<line fill="none" stroke="#282828" stroke-miterlimit="10" x1="717.7" y1="17.8" x2="717.7" y2="18.3"/>
		
			<line fill="none" stroke="#282828" stroke-miterlimit="10" stroke-dasharray="1.0288,3.0864,1.0288,3.0864" x1="717.7" y1="21.4" x2="717.7" y2="28.1"/>
		
			<line fill="none" stroke="#282828" stroke-miterlimit="10" stroke-dasharray="1.0288,3.0864,1.0288,3.0864,1.0288,3.0864" x1="717.7" y1="29.6" x2="717.7" y2="213.3"/>
		<line fill="none" stroke="#282828" stroke-miterlimit="10" x1="717.7" y1="214.8" x2="717.7" y2="215.3"/>
	</g>
</g>
<g>
	<g>
		<line fill="none" stroke="#282828" stroke-miterlimit="10" x1="790.3" y1="17.8" x2="790.3" y2="18.3"/>
		
			<line fill="none" stroke="#282828" stroke-miterlimit="10" stroke-dasharray="1.0288,3.0864,1.0288,3.0864" x1="790.3" y1="21.4" x2="790.3" y2="28.1"/>
		
			<line fill="none" stroke="#282828" stroke-miterlimit="10" stroke-dasharray="1.0288,3.0864,1.0288,3.0864,1.0288,3.0864" x1="790.3" y1="29.6" x2="790.3" y2="213.3"/>
		<line fill="none" stroke="#282828" stroke-miterlimit="10" x1="790.3" y1="214.8" x2="790.3" y2="215.3"/>
	</g>
</g>
<g>
	<g>
		<line fill="none" stroke="#282828" stroke-miterlimit="10" x1="862.8" y1="17.8" x2="862.8" y2="18.3"/>
		
			<line fill="none" stroke="#282828" stroke-miterlimit="10" stroke-dasharray="1.0288,3.0864,1.0288,3.0864" x1="862.8" y1="21.4" x2="862.8" y2="28.1"/>
		
			<line fill="none" stroke="#282828" stroke-miterlimit="10" stroke-dasharray="1.0288,3.0864,1.0288,3.0864,1.0288,3.0864" x1="862.8" y1="29.6" x2="862.8" y2="213.3"/>
		<line fill="none" stroke="#282828" stroke-miterlimit="10" x1="862.8" y1="214.8" x2="862.8" y2="215.3"/>
	</g>
</g>
<g>
	<g>
		<line fill="none" stroke="#282828" stroke-miterlimit="10" x1="935.4" y1="17.8" x2="935.4" y2="18.3"/>
		
			<line fill="none" stroke="#282828" stroke-miterlimit="10" stroke-dasharray="1.0288,3.0864,1.0288,3.0864" x1="935.4" y1="21.4" x2="935.4" y2="28.1"/>
		
			<line fill="none" stroke="#282828" stroke-miterlimit="10" stroke-dasharray="1.0288,3.0864,1.0288,3.0864,1.0288,3.0864" x1="935.4" y1="29.6" x2="935.4" y2="213.3"/>
		<line fill="none" stroke="#282828" stroke-miterlimit="10" x1="935.4" y1="214.8" x2="935.4" y2="215.3"/>
	</g>
</g>
<g>
	<g>
		<line fill="none" stroke="#282828" stroke-miterlimit="10" x1="572.7" y1="17.8" x2="572.7" y2="18.3"/>
		
			<line fill="none" stroke="#282828" stroke-miterlimit="10" stroke-dasharray="1.0288,3.0864,1.0288,3.0864" x1="572.7" y1="21.4" x2="572.7" y2="28.1"/>
		
			<line fill="none" stroke="#282828" stroke-miterlimit="10" stroke-dasharray="1.0288,3.0864,1.0288,3.0864,1.0288,3.0864" x1="572.7" y1="29.6" x2="572.7" y2="213.3"/>
		<line fill="none" stroke="#282828" stroke-miterlimit="10" x1="572.7" y1="214.8" x2="572.7" y2="215.3"/>
	</g>
</g>
<g>
	<g>
		<line fill="none" stroke="#282828" stroke-miterlimit="10" x1="1007.9" y1="17.8" x2="1007.9" y2="18.3"/>
		
			<line fill="none" stroke="#282828" stroke-miterlimit="10" stroke-dasharray="1.0288,3.0864,1.0288,3.0864" x1="1007.9" y1="21.4" x2="1007.9" y2="28.1"/>
		
			<line fill="none" stroke="#282828" stroke-miterlimit="10" stroke-dasharray="1.0288,3.0864,1.0288,3.0864,1.0288,3.0864" x1="1007.9" y1="29.6" x2="1007.9" y2="213.3"/>
		<line fill="none" stroke="#282828" stroke-miterlimit="10" x1="1007.9" y1="214.8" x2="1007.9" y2="215.3"/>
	</g>
</g>
<g id="Layer_1_2_">
	<g id="Layer_1_1_">
		<g>
			<g>
				<rect x="502.1" y="168.8" fill="#8ABABA" width="498" height="38"/>
				<rect x="502.1" y="118.8" fill="#8ABABA" width="372" height="37"/>
				<rect x="502.1" y="67.8" fill="#8ABABA" width="94" height="36"/>
				<rect x="502.1" y="17.8" fill="#8ABABA" width="48" height="36"/>
			</g>
			<line fill="none" stroke="#282828" stroke-miterlimit="10" x1="500.6" y1="12.8" x2="500.6" y2="213.8"/>
			<g>
				<text transform="matrix(1 0 0 1 544.9328 235.9898)" fill="#282828" font-family="'AktivGrotesk-Regular'" font-size="16">$125 M</text>
			</g>
			<g>
				<text transform="matrix(1 0 0 1 617.4733 235.9898)" fill="#282828" font-family="'AktivGrotesk-Regular'" font-size="16">$250 M</text>
			</g>
			<g>
				<text transform="matrix(1 0 0 1 690.014 235.9898)" fill="#282828" font-family="'AktivGrotesk-Regular'" font-size="16">$375 M</text>
			</g>
			<g>
				<text transform="matrix(1 0 0 1 762.5547 235.9898)" fill="#282828" font-family="'AktivGrotesk-Regular'" font-size="16">$500 M</text>
			</g>
			<g>
				<text transform="matrix(1 0 0 1 835.0952 235.9898)" fill="#282828" font-family="'AktivGrotesk-Regular'" font-size="16">$625 M</text>
			</g>
			<g>
				<g>
					<text transform="matrix(1 0 0 1 907.6348 235.9898)" fill="#282828" font-family="'AktivGrotesk-Regular'" font-size="16">$750 M</text>
				</g>
			</g>
			<g>
				<g>
					<text transform="matrix(1 0 0 1 980.1755 235.9898)" fill="#282828" font-family="'AktivGrotesk-Regular'" font-size="16">$875 M</text>
				</g>
			</g>
			<g>
				<text transform="matrix(1 0 0 1 494.8806 235.9898)" fill="#282828" font-family="'AktivGrotesk-Regular'" font-size="18.144">0</text>
			</g>
			<g>
				<g>
					<text transform="matrix(1 0 0 1 247.5738 30.365)" fill="#174F65" font-family="'AktivGrotesk-XBold'" font-size="18">U.S. Department of Housing</text>
					<text transform="matrix(1 0 0 1 279.3738 50.365)" fill="#174F65" font-family="'AktivGrotesk-XBold'" font-size="18">and Urban Development</text>
				</g>
			</g>
			<g>
				<text transform="matrix(1 0 0 1 313.9037 183.5958)" fill="#174F65" font-family="'AktivGrotesk-XBold'" font-size="18">Border Environment</text>
				<text transform="matrix(1 0 0 1 268.8037 203.5958)" fill="#174F65" font-family="'AktivGrotesk-XBold'" font-size="18">Cooperation Commission</text>
			</g>
			<g>
				<text transform="matrix(1 0 0 1 380.916 132.5193)" fill="#174F65" font-family="'AktivGrotesk-XBold'" font-size="18">Texas Water</text>
				<text transform="matrix(1 0 0 1 316.716 152.5193)" fill="#174F65" font-family="'AktivGrotesk-XBold'" font-size="18">Development Board</text>
			</g>
			<g>
				<text transform="matrix(1 0 0 1 347.0585 81.4423)" fill="#174F65" font-family="'AktivGrotesk-XBold'" font-size="18">U.S. Department</text>
				<text transform="matrix(1 0 0 1 368.5585 101.4423)" fill="#174F65" font-family="'AktivGrotesk-XBold'" font-size="18">of Agriculture</text>
			</g>
		</g>
	</g>
</g>
</svg>
