<?xml version="1.0" encoding="utf-8"?>
<!-- Generator: Adobe Illustrator 18.1.1, SVG Export Plug-In . SVG Version: 6.00 Build 0)  -->
<!DOCTYPE svg PUBLIC "-//W3C//DTD SVG 1.1//EN" "http://www.w3.org/Graphics/SVG/1.1/DTD/svg11.dtd">
<svg version="1.1" id="Layer_1" xmlns="http://www.w3.org/2000/svg" xmlns:xlink="http://www.w3.org/1999/xlink" x="0px" y="0px"
	 width="789.1px" height="227.1px" viewBox="-646.9 363.9 789.1 227.1" enable-background="new -646.9 363.9 789.1 227.1"
	 xml:space="preserve">
<g>
	<g>
		<g>
			<line fill="none" stroke="#282828" stroke-miterlimit="10" x1="-247.7" y1="368.9" x2="-247.7" y2="369.4"/>
			
				<line fill="none" stroke="#282828" stroke-miterlimit="10" stroke-dasharray="1.0288,3.0864,1.0288,3.0864" x1="-247.7" y1="372.5" x2="-247.7" y2="379.2"/>
			
				<line fill="none" stroke="#282828" stroke-miterlimit="10" stroke-dasharray="1.0288,3.0864,1.0288,3.0864,1.0288,3.0864" x1="-247.7" y1="380.7" x2="-247.7" y2="564.4"/>
			<line fill="none" stroke="#282828" stroke-miterlimit="10" x1="-247.7" y1="565.9" x2="-247.7" y2="566.4"/>
		</g>
	</g>
	<g>
		<g>
			<line fill="none" stroke="#282828" stroke-miterlimit="10" x1="-175.2" y1="368.9" x2="-175.2" y2="369.4"/>
			
				<line fill="none" stroke="#282828" stroke-miterlimit="10" stroke-dasharray="1.0288,3.0864,1.0288,3.0864" x1="-175.2" y1="372.5" x2="-175.2" y2="379.2"/>
			
				<line fill="none" stroke="#282828" stroke-miterlimit="10" stroke-dasharray="1.0288,3.0864,1.0288,3.0864,1.0288,3.0864" x1="-175.2" y1="380.7" x2="-175.2" y2="564.4"/>
			<line fill="none" stroke="#282828" stroke-miterlimit="10" x1="-175.2" y1="565.9" x2="-175.2" y2="566.4"/>
		</g>
	</g>
	<g>
		<g>
			<line fill="none" stroke="#282828" stroke-miterlimit="10" x1="-102.7" y1="368.9" x2="-102.7" y2="369.4"/>
			
				<line fill="none" stroke="#282828" stroke-miterlimit="10" stroke-dasharray="1.0288,3.0864,1.0288,3.0864" x1="-102.7" y1="372.5" x2="-102.7" y2="379.2"/>
			
				<line fill="none" stroke="#282828" stroke-miterlimit="10" stroke-dasharray="1.0288,3.0864,1.0288,3.0864,1.0288,3.0864" x1="-102.7" y1="380.7" x2="-102.7" y2="564.4"/>
			<line fill="none" stroke="#282828" stroke-miterlimit="10" x1="-102.7" y1="565.9" x2="-102.7" y2="566.4"/>
		</g>
	</g>
	<g>
		<g>
			<line fill="none" stroke="#282828" stroke-miterlimit="10" x1="-30.1" y1="368.9" x2="-30.1" y2="369.4"/>
			
				<line fill="none" stroke="#282828" stroke-miterlimit="10" stroke-dasharray="1.0288,3.0864,1.0288,3.0864" x1="-30.1" y1="372.5" x2="-30.1" y2="379.2"/>
			
				<line fill="none" stroke="#282828" stroke-miterlimit="10" stroke-dasharray="1.0288,3.0864,1.0288,3.0864,1.0288,3.0864" x1="-30.1" y1="380.7" x2="-30.1" y2="564.4"/>
			<line fill="none" stroke="#282828" stroke-miterlimit="10" x1="-30.1" y1="565.9" x2="-30.1" y2="566.4"/>
		</g>
	</g>
	<g>
		<g>
			<line fill="none" stroke="#282828" stroke-miterlimit="10" x1="42.4" y1="368.9" x2="42.4" y2="369.4"/>
			
				<line fill="none" stroke="#282828" stroke-miterlimit="10" stroke-dasharray="1.0288,3.0864,1.0288,3.0864" x1="42.4" y1="372.5" x2="42.4" y2="379.2"/>
			
				<line fill="none" stroke="#282828" stroke-miterlimit="10" stroke-dasharray="1.0288,3.0864,1.0288,3.0864,1.0288,3.0864" x1="42.4" y1="380.7" x2="42.4" y2="564.4"/>
			<line fill="none" stroke="#282828" stroke-miterlimit="10" x1="42.4" y1="565.9" x2="42.4" y2="566.4"/>
		</g>
	</g>
	<g>
		<g>
			<line fill="none" stroke="#282828" stroke-miterlimit="10" x1="-320.3" y1="368.9" x2="-320.3" y2="369.4"/>
			
				<line fill="none" stroke="#282828" stroke-miterlimit="10" stroke-dasharray="1.0288,3.0864,1.0288,3.0864" x1="-320.3" y1="372.5" x2="-320.3" y2="379.2"/>
			
				<line fill="none" stroke="#282828" stroke-miterlimit="10" stroke-dasharray="1.0288,3.0864,1.0288,3.0864,1.0288,3.0864" x1="-320.3" y1="380.7" x2="-320.3" y2="564.4"/>
			<line fill="none" stroke="#282828" stroke-miterlimit="10" x1="-320.3" y1="565.9" x2="-320.3" y2="566.4"/>
		</g>
	</g>
	<g>
		<g>
			<line fill="none" stroke="#282828" stroke-miterlimit="10" x1="114.9" y1="368.9" x2="114.9" y2="369.4"/>
			
				<line fill="none" stroke="#282828" stroke-miterlimit="10" stroke-dasharray="1.0288,3.0864,1.0288,3.0864" x1="114.9" y1="372.5" x2="114.9" y2="379.2"/>
			
				<line fill="none" stroke="#282828" stroke-miterlimit="10" stroke-dasharray="1.0288,3.0864,1.0288,3.0864,1.0288,3.0864" x1="114.9" y1="380.7" x2="114.9" y2="564.4"/>
			<line fill="none" stroke="#282828" stroke-miterlimit="10" x1="114.9" y1="565.9" x2="114.9" y2="566.4"/>
		</g>
	</g>
	<g>
		<rect x="-390.9" y="519.9" fill="#8ABABA" width="498" height="38"/>
		<rect x="-390.9" y="469.9" fill="#8ABABA" width="372" height="37"/>
		<rect x="-390.9" y="418.9" fill="#8ABABA" width="94" height="36"/>
		<rect x="-390.9" y="368.9" fill="#8ABABA" width="48" height="36"/>
	</g>
	<line fill="none" stroke="#282828" stroke-miterlimit="10" x1="-392.4" y1="363.9" x2="-392.4" y2="564.9"/>
	<g>
		<text transform="matrix(1 0 0 1 -348.0336 587.0486)" fill="#282828" font-family="'AktivGrotesk-Regular'" font-size="16">$125 M</text>
	</g>
	<g>
		<text transform="matrix(1 0 0 1 -275.493 587.0486)" fill="#282828" font-family="'AktivGrotesk-Regular'" font-size="16">$250 M</text>
	</g>
	<g>
		<text transform="matrix(1 0 0 1 -202.953 587.0486)" fill="#282828" font-family="'AktivGrotesk-Regular'" font-size="16">$375 M</text>
	</g>
	<g>
		<text transform="matrix(1 0 0 1 -130.4124 587.0486)" fill="#282828" font-family="'AktivGrotesk-Regular'" font-size="16">$500 M</text>
	</g>
	<g>
		<text transform="matrix(1 0 0 1 -57.8718 587.0486)" fill="#282828" font-family="'AktivGrotesk-Regular'" font-size="16">$625 M</text>
	</g>
	<g>
		<g>
			<text transform="matrix(1 0 0 1 14.6677 587.0486)" fill="#282828" font-family="'AktivGrotesk-Regular'" font-size="16">$750 M</text>
		</g>
	</g>
	<g>
		<g>
			<text transform="matrix(1 0 0 1 87.2085 587.0486)" fill="#282828" font-family="'AktivGrotesk-Regular'" font-size="16">$875 M</text>
		</g>
	</g>
	<g>
		<text transform="matrix(1 0 0 1 -398.0858 587.0486)" fill="#282828" font-family="'AktivGrotesk-Regular'" font-size="18.144">0</text>
	</g>
	<g>
		<g>
			<text transform="matrix(1 0 0 1 -647.373 381.4239)" fill="#174F65" font-family="'AktivGrotesk-XBold'" font-size="18">U.S. Department of Housing</text>
			<text transform="matrix(1 0 0 1 -615.5852 401.4239)" fill="#174F65" font-family="'AktivGrotesk-XBold'" font-size="18">and Urban Development</text>
		</g>
	</g>
	<text transform="matrix(1 0 0 1 -546.2141 534.6547)" fill="#174F65" font-family="'AktivGrotesk-XBold'" font-size="18">North American </text>
	<text transform="matrix(1 0 0 1 -569.7042 554.6547)" fill="#174F65" font-family="'AktivGrotesk-XBold'" font-size="18">Development Bank</text>
	<text transform="matrix(1 0 0 1 -514.0314 483.5782)" fill="#174F65" font-family="'AktivGrotesk-XBold'" font-size="18">Texas Water</text>
	<text transform="matrix(1 0 0 1 -578.2177 503.5782)" fill="#174F65" font-family="'AktivGrotesk-XBold'" font-size="18">Development Board</text>
	<text transform="matrix(1 0 0 1 -547.8889 432.5012)" fill="#174F65" font-family="'AktivGrotesk-XBold'" font-size="18">U.S. Department</text>
	<text transform="matrix(1 0 0 1 -526.3786 452.5012)" fill="#174F65" font-family="'AktivGrotesk-XBold'" font-size="18">of Agriculture</text>
</g>
<g id="Layer_2" display="none">
</g>
</svg>
