<?xml version="1.0" encoding="utf-8"?>
<!-- Generator: Adobe Illustrator 18.1.1, SVG Export Plug-In . SVG Version: 6.00 Build 0)  -->
<!DOCTYPE svg PUBLIC "-//W3C//DTD SVG 1.1//EN" "http://www.w3.org/Graphics/SVG/1.1/DTD/svg11.dtd">
<svg version="1.1" xmlns="http://www.w3.org/2000/svg" xmlns:xlink="http://www.w3.org/1999/xlink" x="0px" y="0px" width="605.6px"
	 height="238px" viewBox="0 0 605.6 238" enable-background="new 0 0 605.6 238" xml:space="preserve">
<g id="Layer_1">
	<g>
		<g opacity="0.35">
			<g>
				
					<line fill="none" stroke="#282828" stroke-linecap="round" stroke-linejoin="round" x1="142.3" y1="-0.2" x2="142.3" y2="-0.2"/>
				
					<line fill="none" stroke="#282828" stroke-linecap="round" stroke-linejoin="round" stroke-dasharray="0,2,0,2" x1="142.3" y1="1.8" x2="142.3" y2="5.8"/>
				
					<line fill="none" stroke="#282828" stroke-linecap="round" stroke-linejoin="round" stroke-dasharray="0,2,0,2,0,2" x1="142.3" y1="6.8" x2="142.3" y2="200.8"/>
				
					<line fill="none" stroke="#282828" stroke-linecap="round" stroke-linejoin="round" x1="142.3" y1="201.8" x2="142.3" y2="201.8"/>
			</g>
		</g>
		<g opacity="0.35">
			<g>
				
					<line fill="none" stroke="#282828" stroke-linecap="round" stroke-linejoin="round" x1="215.3" y1="-0.2" x2="215.3" y2="-0.2"/>
				
					<line fill="none" stroke="#282828" stroke-linecap="round" stroke-linejoin="round" stroke-dasharray="0,2,0,2" x1="215.3" y1="1.8" x2="215.3" y2="5.8"/>
				
					<line fill="none" stroke="#282828" stroke-linecap="round" stroke-linejoin="round" stroke-dasharray="0,2,0,2,0,2" x1="215.3" y1="6.8" x2="215.3" y2="200.8"/>
				
					<line fill="none" stroke="#282828" stroke-linecap="round" stroke-linejoin="round" x1="215.3" y1="201.8" x2="215.3" y2="201.8"/>
			</g>
		</g>
		<g opacity="0.35">
			<g>
				
					<line fill="none" stroke="#282828" stroke-linecap="round" stroke-linejoin="round" x1="287.3" y1="-0.2" x2="287.3" y2="-0.2"/>
				
					<line fill="none" stroke="#282828" stroke-linecap="round" stroke-linejoin="round" stroke-dasharray="0,2,0,2" x1="287.3" y1="1.8" x2="287.3" y2="5.8"/>
				
					<line fill="none" stroke="#282828" stroke-linecap="round" stroke-linejoin="round" stroke-dasharray="0,2,0,2,0,2" x1="287.3" y1="6.8" x2="287.3" y2="200.8"/>
				
					<line fill="none" stroke="#282828" stroke-linecap="round" stroke-linejoin="round" x1="287.3" y1="201.8" x2="287.3" y2="201.8"/>
			</g>
		</g>
		<g opacity="0.35">
			<g>
				
					<line fill="none" stroke="#282828" stroke-linecap="round" stroke-linejoin="round" x1="360.3" y1="-0.2" x2="360.3" y2="-0.2"/>
				
					<line fill="none" stroke="#282828" stroke-linecap="round" stroke-linejoin="round" stroke-dasharray="0,2,0,2" x1="360.3" y1="1.8" x2="360.3" y2="5.8"/>
				
					<line fill="none" stroke="#282828" stroke-linecap="round" stroke-linejoin="round" stroke-dasharray="0,2,0,2,0,2" x1="360.3" y1="6.8" x2="360.3" y2="200.8"/>
				
					<line fill="none" stroke="#282828" stroke-linecap="round" stroke-linejoin="round" x1="360.3" y1="201.8" x2="360.3" y2="201.8"/>
			</g>
		</g>
		<g opacity="0.35">
			<g>
				
					<line fill="none" stroke="#282828" stroke-linecap="round" stroke-linejoin="round" x1="432.3" y1="-0.2" x2="432.3" y2="-0.2"/>
				
					<line fill="none" stroke="#282828" stroke-linecap="round" stroke-linejoin="round" stroke-dasharray="0,2,0,2" x1="432.3" y1="1.8" x2="432.3" y2="5.8"/>
				
					<line fill="none" stroke="#282828" stroke-linecap="round" stroke-linejoin="round" stroke-dasharray="0,2,0,2,0,2" x1="432.3" y1="6.8" x2="432.3" y2="200.8"/>
				
					<line fill="none" stroke="#282828" stroke-linecap="round" stroke-linejoin="round" x1="432.3" y1="201.8" x2="432.3" y2="201.8"/>
			</g>
		</g>
		<g opacity="0.35">
			<g>
				
					<line fill="none" stroke="#282828" stroke-linecap="round" stroke-linejoin="round" x1="505.3" y1="-0.2" x2="505.3" y2="-0.2"/>
				
					<line fill="none" stroke="#282828" stroke-linecap="round" stroke-linejoin="round" stroke-dasharray="0,2,0,2" x1="505.3" y1="1.8" x2="505.3" y2="5.8"/>
				
					<line fill="none" stroke="#282828" stroke-linecap="round" stroke-linejoin="round" stroke-dasharray="0,2,0,2,0,2" x1="505.3" y1="6.8" x2="505.3" y2="200.8"/>
				
					<line fill="none" stroke="#282828" stroke-linecap="round" stroke-linejoin="round" x1="505.3" y1="201.8" x2="505.3" y2="201.8"/>
			</g>
		</g>
		<g opacity="0.35">
			<g>
				
					<line fill="none" stroke="#282828" stroke-linecap="round" stroke-linejoin="round" x1="577.3" y1="-0.2" x2="577.3" y2="-0.2"/>
				
					<line fill="none" stroke="#282828" stroke-linecap="round" stroke-linejoin="round" stroke-dasharray="0,2,0,2" x1="577.3" y1="1.8" x2="577.3" y2="5.8"/>
				
					<line fill="none" stroke="#282828" stroke-linecap="round" stroke-linejoin="round" stroke-dasharray="0,2,0,2,0,2" x1="577.3" y1="6.8" x2="577.3" y2="200.8"/>
				
					<line fill="none" stroke="#282828" stroke-linecap="round" stroke-linejoin="round" x1="577.3" y1="201.8" x2="577.3" y2="201.8"/>
			</g>
		</g>
		<g>
			<rect x="71.8" y="156.8" fill="#8ABABA" width="498" height="38"/>
			<rect x="71.8" y="106.8" fill="#8ABABA" width="372" height="37"/>
			<rect x="71.8" y="55.8" fill="#8ABABA" width="94" height="36"/>
			<rect x="71.8" y="5.8" fill="#8ABABA" width="48" height="36"/>
		</g>
		<line fill="none" stroke="#282828" stroke-miterlimit="10" x1="70.3" y1="0.8" x2="70.3" y2="201.8"/>
		<g>
			<text transform="matrix(1 0 0 1 118.611 233.9991)" fill="#282828" font-family="'AktivGrotesk-Regular'" font-size="18.144">125 M</text>
		</g>
		<g>
			<text transform="matrix(1 0 0 1 190.8098 233.9991)" fill="#282828" font-family="'AktivGrotesk-Regular'" font-size="18.144">250 M</text>
		</g>
		<g>
			<text transform="matrix(1 0 0 1 263.7668 233.9991)" fill="#282828" font-family="'AktivGrotesk-Regular'" font-size="18.144">375 M</text>
		</g>
		<g>
			<text transform="matrix(1 0 0 1 336.1535 233.9991)" fill="#282828" font-family="'AktivGrotesk-Regular'" font-size="18.144">500 M</text>
		</g>
		<g>
			<text transform="matrix(1 0 0 1 409.3791 233.9991)" fill="#282828" font-family="'AktivGrotesk-Regular'" font-size="18.144">625 M</text>
		</g>
		<g>
			<text transform="matrix(1 0 0 1 482.3117 233.9991)" fill="#282828" font-family="'AktivGrotesk-Regular'" font-size="18.144">750 M</text>
		</g>
		<g>
			<text transform="matrix(1 0 0 1 554.8547 233.9991)" fill="#282828" font-family="'AktivGrotesk-Regular'" font-size="18.144">875 M</text>
		</g>
		<g>
			<text transform="matrix(1 0 0 1 68.5588 233.9991)" fill="#282828" font-family="'AktivGrotesk-Regular'" font-size="18.144">0</text>
		</g>
		<g>
			<text transform="matrix(1 0 0 1 15.5295 29.3751)" fill="#174F65" font-family="'AktivGrotesk-XBold'" font-size="18.144">HUD</text>
		</g>
		<g>
			<text transform="matrix(1 0 0 1 5.8986 184.6075)" fill="#174F65" font-family="'AktivGrotesk-XBold'" font-size="18.144">BECC</text>
		</g>
		<g>
			<text transform="matrix(1 0 0 1 1.831055e-04 132.8633)" fill="#174F65" font-family="'AktivGrotesk-XBold'" font-size="18.144">TWDB</text>
		</g>
		<g>
			<text transform="matrix(1 0 0 1 4.0412 81.1192)" fill="#174F65" font-family="'AktivGrotesk-XBold'" font-size="18.144">USDA</text>
		</g>
	</g>
</g>
<g id="Layer_2" display="none">
</g>
</svg>
