<?xml version="1.0" encoding="utf-8"?>
<!-- Generator: Adobe Illustrator 18.1.1, SVG Export Plug-In . SVG Version: 6.00 Build 0)  -->
<!DOCTYPE svg PUBLIC "-//W3C//DTD SVG 1.1//EN" "http://www.w3.org/Graphics/SVG/1.1/DTD/svg11.dtd">
<svg version="1.1" id="Layer_1" xmlns="http://www.w3.org/2000/svg" xmlns:xlink="http://www.w3.org/1999/xlink" x="0px" y="0px"
	 width="789.1px" height="227.1px" viewBox="-564 427.9 789.1 227.1" enable-background="new -564 427.9 789.1 227.1"
	 xml:space="preserve">
<g>
	<g>
		<g>
			<line fill="none" stroke="#282828" stroke-miterlimit="10" x1="-811.7" y1="796.8" x2="-811.7" y2="797.3"/>
			
				<line fill="none" stroke="#282828" stroke-miterlimit="10" stroke-dasharray="1.0288,3.0864,1.0288,3.0864" x1="-811.7" y1="800.4" x2="-811.7" y2="807.1"/>
			
				<line fill="none" stroke="#282828" stroke-miterlimit="10" stroke-dasharray="1.0288,3.0864,1.0288,3.0864,1.0288,3.0864" x1="-811.7" y1="808.6" x2="-811.7" y2="992.3"/>
			<line fill="none" stroke="#282828" stroke-miterlimit="10" x1="-811.7" y1="993.8" x2="-811.7" y2="994.3"/>
		</g>
	</g>
	<g>
		<g>
			<line fill="none" stroke="#282828" stroke-miterlimit="10" x1="-739.2" y1="796.8" x2="-739.2" y2="797.3"/>
			
				<line fill="none" stroke="#282828" stroke-miterlimit="10" stroke-dasharray="1.0288,3.0864,1.0288,3.0864" x1="-739.2" y1="800.4" x2="-739.2" y2="807.1"/>
			
				<line fill="none" stroke="#282828" stroke-miterlimit="10" stroke-dasharray="1.0288,3.0864,1.0288,3.0864,1.0288,3.0864" x1="-739.2" y1="808.6" x2="-739.2" y2="992.3"/>
			<line fill="none" stroke="#282828" stroke-miterlimit="10" x1="-739.2" y1="993.8" x2="-739.2" y2="994.3"/>
		</g>
	</g>
	<g>
		<g>
			<line fill="none" stroke="#282828" stroke-miterlimit="10" x1="-666.7" y1="796.8" x2="-666.7" y2="797.3"/>
			
				<line fill="none" stroke="#282828" stroke-miterlimit="10" stroke-dasharray="1.0288,3.0864,1.0288,3.0864" x1="-666.7" y1="800.4" x2="-666.7" y2="807.1"/>
			
				<line fill="none" stroke="#282828" stroke-miterlimit="10" stroke-dasharray="1.0288,3.0864,1.0288,3.0864,1.0288,3.0864" x1="-666.7" y1="808.6" x2="-666.7" y2="992.3"/>
			<line fill="none" stroke="#282828" stroke-miterlimit="10" x1="-666.7" y1="993.8" x2="-666.7" y2="994.3"/>
		</g>
	</g>
	<g>
		<g>
			<line fill="none" stroke="#282828" stroke-miterlimit="10" x1="-594.1" y1="796.8" x2="-594.1" y2="797.3"/>
			
				<line fill="none" stroke="#282828" stroke-miterlimit="10" stroke-dasharray="1.0288,3.0864,1.0288,3.0864" x1="-594.1" y1="800.4" x2="-594.1" y2="807.1"/>
			
				<line fill="none" stroke="#282828" stroke-miterlimit="10" stroke-dasharray="1.0288,3.0864,1.0288,3.0864,1.0288,3.0864" x1="-594.1" y1="808.6" x2="-594.1" y2="992.3"/>
			<line fill="none" stroke="#282828" stroke-miterlimit="10" x1="-594.1" y1="993.8" x2="-594.1" y2="994.3"/>
		</g>
	</g>
	<g>
		<g>
			<line fill="none" stroke="#282828" stroke-miterlimit="10" x1="-521.6" y1="796.8" x2="-521.6" y2="797.3"/>
			
				<line fill="none" stroke="#282828" stroke-miterlimit="10" stroke-dasharray="1.0288,3.0864,1.0288,3.0864" x1="-521.6" y1="800.4" x2="-521.6" y2="807.1"/>
			
				<line fill="none" stroke="#282828" stroke-miterlimit="10" stroke-dasharray="1.0288,3.0864,1.0288,3.0864,1.0288,3.0864" x1="-521.6" y1="808.6" x2="-521.6" y2="992.3"/>
			<line fill="none" stroke="#282828" stroke-miterlimit="10" x1="-521.6" y1="993.8" x2="-521.6" y2="994.3"/>
		</g>
	</g>
	<g>
		<g>
			<line fill="none" stroke="#282828" stroke-miterlimit="10" x1="-884.3" y1="796.8" x2="-884.3" y2="797.3"/>
			
				<line fill="none" stroke="#282828" stroke-miterlimit="10" stroke-dasharray="1.0288,3.0864,1.0288,3.0864" x1="-884.3" y1="800.4" x2="-884.3" y2="807.1"/>
			
				<line fill="none" stroke="#282828" stroke-miterlimit="10" stroke-dasharray="1.0288,3.0864,1.0288,3.0864,1.0288,3.0864" x1="-884.3" y1="808.6" x2="-884.3" y2="992.3"/>
			<line fill="none" stroke="#282828" stroke-miterlimit="10" x1="-884.3" y1="993.8" x2="-884.3" y2="994.3"/>
		</g>
	</g>
	<g>
		<g>
			<line fill="none" stroke="#282828" stroke-miterlimit="10" x1="-449.1" y1="796.8" x2="-449.1" y2="797.3"/>
			
				<line fill="none" stroke="#282828" stroke-miterlimit="10" stroke-dasharray="1.0288,3.0864,1.0288,3.0864" x1="-449.1" y1="800.4" x2="-449.1" y2="807.1"/>
			
				<line fill="none" stroke="#282828" stroke-miterlimit="10" stroke-dasharray="1.0288,3.0864,1.0288,3.0864,1.0288,3.0864" x1="-449.1" y1="808.6" x2="-449.1" y2="992.3"/>
			<line fill="none" stroke="#282828" stroke-miterlimit="10" x1="-449.1" y1="993.8" x2="-449.1" y2="994.3"/>
		</g>
	</g>
	<g>
		<rect x="-954.9" y="947.8" fill="#8ABABA" width="498" height="38"/>
		<rect x="-954.9" y="897.8" fill="#8ABABA" width="372" height="37"/>
		<rect x="-954.9" y="846.8" fill="#8ABABA" width="94" height="36"/>
		<rect x="-954.9" y="796.8" fill="#8ABABA" width="48" height="36"/>
	</g>
	<line fill="none" stroke="#282828" stroke-miterlimit="10" x1="-956.4" y1="791.8" x2="-956.4" y2="992.8"/>
	<g>
		<g enable-background="new    ">
			<path fill="#282828" d="M-907.9,1015.2c-1.1-0.1-2-0.4-2.6-1c-0.6-0.6-0.9-1.3-1-2.3h1.4c0.1,1.3,0.9,2,2.2,2.1v-4.1l-0.2,0
				c-0.5-0.1-0.9-0.2-1.3-0.4c-0.4-0.2-0.7-0.4-1-0.6c-0.3-0.3-0.5-0.6-0.6-0.9c-0.1-0.4-0.2-0.8-0.2-1.3c0-0.4,0.1-0.8,0.2-1.1
				s0.4-0.7,0.7-0.9c0.3-0.3,0.6-0.5,1-0.6s0.9-0.3,1.4-0.3v-1.3h1.1v1.3c0.6,0.1,1.1,0.2,1.5,0.4c0.4,0.2,0.7,0.4,1,0.7
				c0.3,0.3,0.4,0.6,0.6,0.9c0.1,0.3,0.2,0.6,0.3,0.9l-1.3,0.2c-0.1-0.3-0.1-0.5-0.2-0.7c-0.1-0.2-0.2-0.4-0.4-0.6
				c-0.1-0.2-0.3-0.3-0.6-0.4s-0.5-0.2-0.8-0.2v4l0.2,0c1,0.2,1.8,0.5,2.4,1c0.5,0.5,0.8,1.3,0.8,2.3c0,0.4-0.1,0.8-0.2,1.2
				c-0.1,0.4-0.3,0.7-0.6,1s-0.6,0.5-1.1,0.7s-0.9,0.3-1.5,0.3v1.5h-1.1V1015.2z M-907.9,1004.8c-0.7,0.1-1.2,0.3-1.5,0.6
				c-0.3,0.3-0.4,0.7-0.4,1.2c0,0.3,0,0.5,0.1,0.7s0.2,0.4,0.3,0.6c0.1,0.2,0.3,0.3,0.6,0.4c0.3,0.1,0.6,0.2,1,0.3V1004.8z
				 M-906.8,1014.1c0.7-0.1,1.2-0.3,1.5-0.7c0.3-0.4,0.5-0.8,0.5-1.4c0-0.2,0-0.4-0.1-0.6c0-0.2-0.1-0.4-0.3-0.6
				c-0.1-0.2-0.3-0.3-0.6-0.5c-0.2-0.1-0.5-0.2-0.9-0.3l-0.1,0V1014.1z"/>
			<path fill="#282828" d="M-897.8,1005.4l-2.5,1.5l-0.6-1l3.3-2h1.3v11.1h-1.4V1005.4z"/>
			<path fill="#282828" d="M-892,1013.8c0.4-0.4,0.8-0.7,1.3-1.1c0.5-0.4,0.9-0.8,1.4-1.2c0.5-0.4,1-0.9,1.3-1.2
				c0.4-0.4,0.7-0.7,1-1.1s0.4-0.7,0.6-1c0.1-0.4,0.2-0.7,0.2-1.1c0-0.7-0.2-1.2-0.5-1.5c-0.4-0.4-0.9-0.5-1.5-0.5
				c-0.4,0-0.7,0-1,0.1c-0.3,0.1-0.5,0.2-0.7,0.4c-0.2,0.2-0.3,0.4-0.5,0.6c-0.1,0.2-0.2,0.5-0.3,0.9l-1.3-0.2
				c0.1-0.4,0.2-0.8,0.4-1.1c0.2-0.4,0.4-0.7,0.7-1s0.7-0.5,1.1-0.7c0.4-0.2,1-0.3,1.6-0.3c0.6,0,1.1,0.1,1.5,0.2
				c0.4,0.2,0.8,0.4,1.1,0.7c0.3,0.3,0.5,0.6,0.7,1c0.2,0.4,0.2,0.8,0.2,1.3c0,0.5-0.1,0.9-0.2,1.3c-0.1,0.4-0.3,0.8-0.6,1.2
				s-0.6,0.8-1.1,1.2s-0.9,0.9-1.5,1.4c-0.3,0.3-0.6,0.5-1,0.8c-0.3,0.3-0.6,0.5-1,0.8h5.4l-0.2,1.3h-7.2V1013.8z"/>
			<path fill="#282828" d="M-881.2,1012.1c0.1,0.7,0.3,1.1,0.7,1.4c0.3,0.3,0.9,0.5,1.6,0.5c0.7,0,1.3-0.2,1.7-0.6
				c0.4-0.4,0.6-1.1,0.6-2c0-0.7-0.2-1.3-0.5-1.8s-0.9-0.7-1.7-0.7c-0.5,0-0.9,0.1-1.3,0.2c-0.4,0.2-0.7,0.4-1,0.7h-1.2l0.5-6h6v1.3
				h-4.8l-0.3,3.4c0.3-0.3,0.7-0.4,1.1-0.6s0.8-0.2,1.3-0.2c0.6,0,1.1,0.1,1.5,0.3s0.8,0.4,1.1,0.8s0.5,0.7,0.6,1.1
				c0.1,0.4,0.2,0.9,0.2,1.4c0,1.3-0.3,2.2-1,2.9c-0.7,0.7-1.5,1-2.6,1c-1.2,0-2.1-0.3-2.7-0.8s-1-1.3-1.1-2.3H-881.2z"/>
			<path fill="#282828" d="M-869.3,1003.5h1.8l3.7,9.7l3.7-9.7h1.8v11.4h-1.4v-9l-3.6,9h-1.2l-3.5-9v9h-1.3V1003.5z"/>
		</g>
	</g>
	<g>
		<g enable-background="new    ">
			<path fill="#282828" d="M-835.3,1015.2c-1.1-0.1-2-0.4-2.6-1c-0.6-0.6-0.9-1.3-1-2.3h1.4c0.1,1.3,0.9,2,2.2,2.1v-4.1l-0.2,0
				c-0.5-0.1-0.9-0.2-1.3-0.4c-0.4-0.2-0.7-0.4-1-0.6c-0.3-0.3-0.5-0.6-0.6-0.9c-0.1-0.4-0.2-0.8-0.2-1.3c0-0.4,0.1-0.8,0.2-1.1
				s0.4-0.7,0.7-0.9c0.3-0.3,0.6-0.5,1-0.6s0.9-0.3,1.4-0.3v-1.3h1.1v1.3c0.6,0.1,1.1,0.2,1.5,0.4c0.4,0.2,0.7,0.4,1,0.7
				c0.3,0.3,0.4,0.6,0.6,0.9c0.1,0.3,0.2,0.6,0.3,0.9l-1.3,0.2c-0.1-0.3-0.1-0.5-0.2-0.7c-0.1-0.2-0.2-0.4-0.4-0.6
				c-0.1-0.2-0.3-0.3-0.6-0.4s-0.5-0.2-0.8-0.2v4l0.2,0c1,0.2,1.8,0.5,2.4,1c0.5,0.5,0.8,1.3,0.8,2.3c0,0.4-0.1,0.8-0.2,1.2
				c-0.1,0.4-0.3,0.7-0.6,1s-0.6,0.5-1.1,0.7s-0.9,0.3-1.5,0.3v1.5h-1.1V1015.2z M-835.3,1004.8c-0.7,0.1-1.2,0.3-1.5,0.6
				c-0.3,0.3-0.4,0.7-0.4,1.2c0,0.3,0,0.5,0.1,0.7s0.2,0.4,0.3,0.6c0.1,0.2,0.3,0.3,0.6,0.4c0.3,0.1,0.6,0.2,1,0.3V1004.8z
				 M-834.3,1014.1c0.7-0.1,1.2-0.3,1.5-0.7c0.3-0.4,0.5-0.8,0.5-1.4c0-0.2,0-0.4-0.1-0.6c0-0.2-0.1-0.4-0.3-0.6
				c-0.1-0.2-0.3-0.3-0.6-0.5c-0.2-0.1-0.5-0.2-0.9-0.3l-0.1,0V1014.1z"/>
			<path fill="#282828" d="M-829,1013.8c0.4-0.4,0.8-0.7,1.3-1.1c0.5-0.4,0.9-0.8,1.4-1.2c0.5-0.4,1-0.9,1.3-1.2
				c0.4-0.4,0.7-0.7,1-1.1s0.4-0.7,0.6-1c0.1-0.4,0.2-0.7,0.2-1.1c0-0.7-0.2-1.2-0.5-1.5c-0.4-0.4-0.9-0.5-1.5-0.5
				c-0.4,0-0.7,0-1,0.1c-0.3,0.1-0.5,0.2-0.7,0.4c-0.2,0.2-0.3,0.4-0.5,0.6c-0.1,0.2-0.2,0.5-0.3,0.9l-1.3-0.2
				c0.1-0.4,0.2-0.8,0.4-1.1c0.2-0.4,0.4-0.7,0.7-1s0.7-0.5,1.1-0.7c0.4-0.2,1-0.3,1.6-0.3c0.6,0,1.1,0.1,1.5,0.2
				c0.4,0.2,0.8,0.4,1.1,0.7c0.3,0.3,0.5,0.6,0.7,1c0.2,0.4,0.2,0.8,0.2,1.3c0,0.5-0.1,0.9-0.2,1.3c-0.1,0.4-0.3,0.8-0.6,1.2
				s-0.6,0.8-1.1,1.2s-0.9,0.9-1.5,1.4c-0.3,0.3-0.6,0.5-1,0.8c-0.3,0.3-0.6,0.5-1,0.8h5.4l-0.2,1.3h-7.2V1013.8z"/>
			<path fill="#282828" d="M-818.1,1012.1c0.1,0.7,0.3,1.1,0.7,1.4c0.3,0.3,0.9,0.5,1.6,0.5c0.7,0,1.3-0.2,1.7-0.6
				c0.4-0.4,0.6-1.1,0.6-2c0-0.7-0.2-1.3-0.5-1.8s-0.9-0.7-1.7-0.7c-0.5,0-0.9,0.1-1.3,0.2c-0.4,0.2-0.7,0.4-1,0.7h-1.2l0.5-6h6v1.3
				h-4.8l-0.3,3.4c0.3-0.3,0.7-0.4,1.1-0.6s0.8-0.2,1.3-0.2c0.6,0,1.1,0.1,1.5,0.3s0.8,0.4,1.1,0.8s0.5,0.7,0.6,1.1
				c0.1,0.4,0.2,0.9,0.2,1.4c0,1.3-0.3,2.2-1,2.9c-0.7,0.7-1.5,1-2.6,1c-1.2,0-2.1-0.3-2.7-0.8s-1-1.3-1.1-2.3H-818.1z"/>
			<path fill="#282828" d="M-806.4,1015.2c-1.3,0-2.3-0.5-3-1.4c-0.7-0.9-1.1-2.4-1.1-4.4c0-1,0.1-1.9,0.3-2.6s0.5-1.3,0.8-1.8
				c0.4-0.5,0.8-0.8,1.3-1.1s1.1-0.3,1.7-0.3s1.2,0.1,1.7,0.3s0.9,0.6,1.3,1.1c0.3,0.5,0.6,1.1,0.8,1.8c0.2,0.7,0.3,1.6,0.3,2.6
				c0,1-0.1,1.9-0.3,2.6c-0.2,0.7-0.4,1.3-0.8,1.8s-0.8,0.8-1.3,1.1C-805.2,1015.1-805.7,1015.2-806.4,1015.2z M-806.3,1014
				c0.5,0,0.9-0.1,1.2-0.3c0.3-0.2,0.6-0.5,0.8-0.9c0.2-0.4,0.3-0.9,0.4-1.4c0.1-0.6,0.1-1.2,0.1-1.9c0-0.7,0-1.4-0.1-1.9
				c-0.1-0.6-0.2-1-0.4-1.4c-0.2-0.4-0.5-0.7-0.8-0.9c-0.3-0.2-0.7-0.3-1.2-0.3s-0.9,0.1-1.2,0.3c-0.3,0.2-0.6,0.5-0.8,0.9
				c-0.2,0.4-0.3,0.9-0.4,1.4s-0.1,1.2-0.1,1.9c0,0.7,0,1.4,0.1,1.9c0.1,0.6,0.2,1,0.4,1.4c0.2,0.4,0.5,0.7,0.8,0.9
				C-807.2,1013.9-806.8,1014-806.3,1014z"/>
			<path fill="#282828" d="M-796.8,1003.5h1.8l3.7,9.7l3.7-9.7h1.8v11.4h-1.4v-9l-3.6,9h-1.2l-3.5-9v9h-1.3V1003.5z"/>
		</g>
	</g>
	<g>
		<g enable-background="new    ">
			<path fill="#282828" d="M-762.8,1015.2c-1.1-0.1-2-0.4-2.6-1c-0.6-0.6-0.9-1.3-1-2.3h1.4c0.1,1.3,0.9,2,2.2,2.1v-4.1l-0.2,0
				c-0.5-0.1-0.9-0.2-1.3-0.4c-0.4-0.2-0.7-0.4-1-0.6c-0.3-0.3-0.5-0.6-0.6-0.9c-0.1-0.4-0.2-0.8-0.2-1.3c0-0.4,0.1-0.8,0.2-1.1
				s0.4-0.7,0.7-0.9c0.3-0.3,0.6-0.5,1-0.6s0.9-0.3,1.4-0.3v-1.3h1.1v1.3c0.6,0.1,1.1,0.2,1.5,0.4c0.4,0.2,0.7,0.4,1,0.7
				c0.3,0.3,0.4,0.6,0.6,0.9c0.1,0.3,0.2,0.6,0.3,0.9l-1.3,0.2c-0.1-0.3-0.1-0.5-0.2-0.7c-0.1-0.2-0.2-0.4-0.4-0.6
				c-0.1-0.2-0.3-0.3-0.6-0.4s-0.5-0.2-0.8-0.2v4l0.2,0c1,0.2,1.8,0.5,2.4,1c0.5,0.5,0.8,1.3,0.8,2.3c0,0.4-0.1,0.8-0.2,1.2
				c-0.1,0.4-0.3,0.7-0.6,1s-0.6,0.5-1.1,0.7s-0.9,0.3-1.5,0.3v1.5h-1.1V1015.2z M-762.8,1004.8c-0.7,0.1-1.2,0.3-1.5,0.6
				c-0.3,0.3-0.4,0.7-0.4,1.2c0,0.3,0,0.5,0.1,0.7s0.2,0.4,0.3,0.6c0.1,0.2,0.3,0.3,0.6,0.4c0.3,0.1,0.6,0.2,1,0.3V1004.8z
				 M-761.7,1014.1c0.7-0.1,1.2-0.3,1.5-0.7c0.3-0.4,0.5-0.8,0.5-1.4c0-0.2,0-0.4-0.1-0.6c0-0.2-0.1-0.4-0.3-0.6
				c-0.1-0.2-0.3-0.3-0.6-0.5c-0.2-0.1-0.5-0.2-0.9-0.3l-0.1,0V1014.1z"/>
			<path fill="#282828" d="M-755.3,1011.9c0.1,0.7,0.3,1.2,0.7,1.6c0.4,0.3,1,0.5,1.8,0.5c0.8,0,1.3-0.2,1.7-0.6s0.6-0.9,0.6-1.6
				c0-0.7-0.2-1.2-0.6-1.6c-0.4-0.3-0.9-0.5-1.6-0.5h-1.3v-1.3h1.3c0.6,0,1.1-0.2,1.4-0.5s0.5-0.8,0.5-1.5c0-0.6-0.2-1-0.5-1.3
				s-0.9-0.5-1.6-0.5c-0.7,0-1.3,0.1-1.6,0.4c-0.4,0.3-0.6,0.8-0.8,1.4l-1.3-0.2c0.1-0.4,0.2-0.7,0.4-1.1c0.2-0.3,0.4-0.7,0.7-0.9
				c0.3-0.3,0.7-0.5,1.1-0.6c0.4-0.2,1-0.2,1.6-0.2c0.6,0,1.1,0.1,1.6,0.2c0.4,0.1,0.8,0.4,1.1,0.6s0.5,0.6,0.6,0.9
				c0.1,0.3,0.2,0.7,0.2,1.1c0,0.6-0.1,1.2-0.4,1.6c-0.3,0.4-0.7,0.8-1.2,1c0.6,0.3,1.1,0.6,1.4,1.1c0.3,0.5,0.4,1,0.4,1.7
				c0,0.5-0.1,1-0.2,1.4c-0.1,0.4-0.4,0.8-0.7,1.1c-0.3,0.3-0.7,0.5-1.2,0.7c-0.5,0.2-1,0.3-1.6,0.3c-0.8,0-1.4-0.1-1.9-0.3
				c-0.5-0.2-0.9-0.5-1.2-0.8c-0.3-0.3-0.5-0.7-0.6-1.1c-0.1-0.4-0.2-0.8-0.2-1.2H-755.3z"/>
			<path fill="#282828" d="M-745.3,1014.9c0.5-1.7,1.1-3.4,1.7-5c0.7-1.6,1.4-3.2,2.2-4.8h-6v-1.3h7.5v1.2c-0.9,1.6-1.6,3.2-2.3,4.8
				c-0.7,1.6-1.2,3.3-1.7,5.1H-745.3z"/>
			<path fill="#282828" d="M-736.1,1012.1c0.1,0.7,0.3,1.1,0.7,1.4c0.3,0.3,0.9,0.5,1.6,0.5c0.7,0,1.3-0.2,1.7-0.6
				c0.4-0.4,0.6-1.1,0.6-2c0-0.7-0.2-1.3-0.5-1.8s-0.9-0.7-1.7-0.7c-0.5,0-0.9,0.1-1.3,0.2c-0.4,0.2-0.7,0.4-1,0.7h-1.2l0.5-6h6v1.3
				h-4.8l-0.3,3.4c0.3-0.3,0.7-0.4,1.1-0.6s0.8-0.2,1.3-0.2c0.6,0,1.1,0.1,1.5,0.3s0.8,0.4,1.1,0.8s0.5,0.7,0.6,1.1
				c0.1,0.4,0.2,0.9,0.2,1.4c0,1.3-0.3,2.2-1,2.9c-0.7,0.7-1.5,1-2.6,1c-1.2,0-2.1-0.3-2.7-0.8s-1-1.3-1.1-2.3H-736.1z"/>
			<path fill="#282828" d="M-724.2,1003.5h1.8l3.7,9.7l3.7-9.7h1.8v11.4h-1.4v-9l-3.6,9h-1.2l-3.5-9v9h-1.3V1003.5z"/>
		</g>
	</g>
	<g>
		<g enable-background="new    ">
			<path fill="#282828" d="M-690.3,1015.2c-1.1-0.1-2-0.4-2.6-1c-0.6-0.6-0.9-1.3-1-2.3h1.4c0.1,1.3,0.9,2,2.2,2.1v-4.1l-0.2,0
				c-0.5-0.1-0.9-0.2-1.3-0.4c-0.4-0.2-0.7-0.4-1-0.6c-0.3-0.3-0.5-0.6-0.6-0.9c-0.1-0.4-0.2-0.8-0.2-1.3c0-0.4,0.1-0.8,0.2-1.1
				s0.4-0.7,0.7-0.9c0.3-0.3,0.6-0.5,1-0.6s0.9-0.3,1.4-0.3v-1.3h1.1v1.3c0.6,0.1,1.1,0.2,1.5,0.4c0.4,0.2,0.7,0.4,1,0.7
				c0.3,0.3,0.4,0.6,0.6,0.9c0.1,0.3,0.2,0.6,0.3,0.9l-1.3,0.2c-0.1-0.3-0.1-0.5-0.2-0.7c-0.1-0.2-0.2-0.4-0.4-0.6
				c-0.1-0.2-0.3-0.3-0.6-0.4s-0.5-0.2-0.8-0.2v4l0.2,0c1,0.2,1.8,0.5,2.4,1c0.5,0.5,0.8,1.3,0.8,2.3c0,0.4-0.1,0.8-0.2,1.2
				c-0.1,0.4-0.3,0.7-0.6,1s-0.6,0.5-1.1,0.7s-0.9,0.3-1.5,0.3v1.5h-1.1V1015.2z M-690.3,1004.8c-0.7,0.1-1.2,0.3-1.5,0.6
				c-0.3,0.3-0.4,0.7-0.4,1.2c0,0.3,0,0.5,0.1,0.7s0.2,0.4,0.3,0.6c0.1,0.2,0.3,0.3,0.6,0.4c0.3,0.1,0.6,0.2,1,0.3V1004.8z
				 M-689.2,1014.1c0.7-0.1,1.2-0.3,1.5-0.7c0.3-0.4,0.5-0.8,0.5-1.4c0-0.2,0-0.4-0.1-0.6c0-0.2-0.1-0.4-0.3-0.6
				c-0.1-0.2-0.3-0.3-0.6-0.5c-0.2-0.1-0.5-0.2-0.9-0.3l-0.1,0V1014.1z"/>
			<path fill="#282828" d="M-682.5,1012.1c0.1,0.7,0.3,1.1,0.7,1.4c0.3,0.3,0.9,0.5,1.6,0.5c0.7,0,1.3-0.2,1.7-0.6
				c0.4-0.4,0.6-1.1,0.6-2c0-0.7-0.2-1.3-0.5-1.8s-0.9-0.7-1.7-0.7c-0.5,0-0.9,0.1-1.3,0.2c-0.4,0.2-0.7,0.4-1,0.7h-1.2l0.5-6h6v1.3
				h-4.8l-0.3,3.4c0.3-0.3,0.7-0.4,1.1-0.6s0.8-0.2,1.3-0.2c0.6,0,1.1,0.1,1.5,0.3s0.8,0.4,1.1,0.8s0.5,0.7,0.6,1.1
				c0.1,0.4,0.2,0.9,0.2,1.4c0,1.3-0.3,2.2-1,2.9c-0.7,0.7-1.5,1-2.6,1c-1.2,0-2.1-0.3-2.7-0.8s-1-1.3-1.1-2.3H-682.5z"/>
			<path fill="#282828" d="M-670.8,1015.2c-1.3,0-2.3-0.5-3-1.4c-0.7-0.9-1.1-2.4-1.1-4.4c0-1,0.1-1.9,0.3-2.6s0.5-1.3,0.8-1.8
				c0.4-0.5,0.8-0.8,1.3-1.1s1.1-0.3,1.7-0.3s1.2,0.1,1.7,0.3s0.9,0.6,1.3,1.1c0.3,0.5,0.6,1.1,0.8,1.8c0.2,0.7,0.3,1.6,0.3,2.6
				c0,1-0.1,1.9-0.3,2.6c-0.2,0.7-0.4,1.3-0.8,1.8s-0.8,0.8-1.3,1.1C-669.6,1015.1-670.1,1015.2-670.8,1015.2z M-670.7,1014
				c0.5,0,0.9-0.1,1.2-0.3c0.3-0.2,0.6-0.5,0.8-0.9c0.2-0.4,0.3-0.9,0.4-1.4c0.1-0.6,0.1-1.2,0.1-1.9c0-0.7,0-1.4-0.1-1.9
				c-0.1-0.6-0.2-1-0.4-1.4c-0.2-0.4-0.5-0.7-0.8-0.9c-0.3-0.2-0.7-0.3-1.2-0.3s-0.9,0.1-1.2,0.3c-0.3,0.2-0.6,0.5-0.8,0.9
				c-0.2,0.4-0.3,0.9-0.4,1.4s-0.1,1.2-0.1,1.9c0,0.7,0,1.4,0.1,1.9c0.1,0.6,0.2,1,0.4,1.4c0.2,0.4,0.5,0.7,0.8,0.9
				C-671.6,1013.9-671.2,1014-670.7,1014z"/>
			<path fill="#282828" d="M-661.3,1015.2c-1.3,0-2.3-0.5-3-1.4c-0.7-0.9-1.1-2.4-1.1-4.4c0-1,0.1-1.9,0.3-2.6s0.5-1.3,0.8-1.8
				c0.4-0.5,0.8-0.8,1.3-1.1s1.1-0.3,1.7-0.3s1.2,0.1,1.7,0.3s0.9,0.6,1.3,1.1c0.3,0.5,0.6,1.1,0.8,1.8c0.2,0.7,0.3,1.6,0.3,2.6
				c0,1-0.1,1.9-0.3,2.6c-0.2,0.7-0.4,1.3-0.8,1.8s-0.8,0.8-1.3,1.1C-660.1,1015.1-660.7,1015.2-661.3,1015.2z M-661.3,1014
				c0.5,0,0.9-0.1,1.2-0.3c0.3-0.2,0.6-0.5,0.8-0.9c0.2-0.4,0.3-0.9,0.4-1.4c0.1-0.6,0.1-1.2,0.1-1.9c0-0.7,0-1.4-0.1-1.9
				c-0.1-0.6-0.2-1-0.4-1.4c-0.2-0.4-0.5-0.7-0.8-0.9c-0.3-0.2-0.7-0.3-1.2-0.3s-0.9,0.1-1.2,0.3c-0.3,0.2-0.6,0.5-0.8,0.9
				c-0.2,0.4-0.3,0.9-0.4,1.4s-0.1,1.2-0.1,1.9c0,0.7,0,1.4,0.1,1.9c0.1,0.6,0.2,1,0.4,1.4c0.2,0.4,0.5,0.7,0.8,0.9
				C-662.1,1013.9-661.7,1014-661.3,1014z"/>
			<path fill="#282828" d="M-651.7,1003.5h1.8l3.7,9.7l3.7-9.7h1.8v11.4h-1.4v-9l-3.6,9h-1.2l-3.5-9v9h-1.3V1003.5z"/>
		</g>
	</g>
	<g>
		<g enable-background="new    ">
			<path fill="#282828" d="M-617.7,1015.2c-1.1-0.1-2-0.4-2.6-1c-0.6-0.6-0.9-1.3-1-2.3h1.4c0.1,1.3,0.9,2,2.2,2.1v-4.1l-0.2,0
				c-0.5-0.1-0.9-0.2-1.3-0.4c-0.4-0.2-0.7-0.4-1-0.6c-0.3-0.3-0.5-0.6-0.6-0.9c-0.1-0.4-0.2-0.8-0.2-1.3c0-0.4,0.1-0.8,0.2-1.1
				s0.4-0.7,0.7-0.9c0.3-0.3,0.6-0.5,1-0.6s0.9-0.3,1.4-0.3v-1.3h1.1v1.3c0.6,0.1,1.1,0.2,1.5,0.4c0.4,0.2,0.7,0.4,1,0.7
				c0.3,0.3,0.4,0.6,0.6,0.9c0.1,0.3,0.2,0.6,0.3,0.9l-1.3,0.2c-0.1-0.3-0.1-0.5-0.2-0.7c-0.1-0.2-0.2-0.4-0.4-0.6
				c-0.1-0.2-0.3-0.3-0.6-0.4s-0.5-0.2-0.8-0.2v4l0.2,0c1,0.2,1.8,0.5,2.4,1c0.5,0.5,0.8,1.3,0.8,2.3c0,0.4-0.1,0.8-0.2,1.2
				c-0.1,0.4-0.3,0.7-0.6,1s-0.6,0.5-1.1,0.7s-0.9,0.3-1.5,0.3v1.5h-1.1V1015.2z M-617.7,1004.8c-0.7,0.1-1.2,0.3-1.5,0.6
				c-0.3,0.3-0.4,0.7-0.4,1.2c0,0.3,0,0.5,0.1,0.7s0.2,0.4,0.3,0.6c0.1,0.2,0.3,0.3,0.6,0.4c0.3,0.1,0.6,0.2,1,0.3V1004.8z
				 M-616.7,1014.1c0.7-0.1,1.2-0.3,1.5-0.7c0.3-0.4,0.5-0.8,0.5-1.4c0-0.2,0-0.4-0.1-0.6c0-0.2-0.1-0.4-0.3-0.6
				c-0.1-0.2-0.3-0.3-0.6-0.5c-0.2-0.1-0.5-0.2-0.9-0.3l-0.1,0V1014.1z"/>
			<path fill="#282828" d="M-605.2,1006.3c-0.1-0.3-0.2-0.5-0.3-0.7c-0.1-0.2-0.2-0.4-0.4-0.5s-0.3-0.2-0.6-0.3s-0.5-0.1-0.8-0.1
				c-0.4,0-0.8,0.1-1.1,0.2c-0.3,0.2-0.6,0.4-0.8,0.8c-0.2,0.4-0.4,0.8-0.6,1.4c-0.1,0.6-0.2,1.3-0.3,2.1c0.3-0.5,0.8-0.9,1.2-1.1
				s1-0.3,1.7-0.3c0.6,0,1.1,0.1,1.5,0.3s0.8,0.4,1,0.8s0.5,0.7,0.6,1.2c0.1,0.4,0.2,0.9,0.2,1.4c0,0.6-0.1,1.1-0.3,1.5
				c-0.2,0.5-0.4,0.9-0.8,1.2c-0.3,0.3-0.7,0.6-1.2,0.8c-0.5,0.2-1,0.3-1.6,0.3c-0.8,0-1.4-0.2-1.9-0.5s-0.9-0.7-1.2-1.2
				s-0.5-1-0.6-1.6c-0.1-0.6-0.2-1.2-0.2-1.8c0-1.3,0.1-2.4,0.4-3.2c0.2-0.8,0.5-1.5,0.9-2c0.4-0.5,0.8-0.8,1.3-1
				c0.5-0.2,1-0.3,1.6-0.3c1,0,1.8,0.2,2.3,0.6s0.8,1.1,1,1.9L-605.2,1006.3z M-607.6,1014.1c0.7,0,1.3-0.2,1.8-0.7s0.7-1.1,0.7-1.9
				c0-0.4,0-0.7-0.1-1s-0.2-0.6-0.4-0.8c-0.2-0.2-0.4-0.4-0.7-0.5c-0.3-0.1-0.6-0.2-1.1-0.2c-0.3,0-0.6,0-0.9,0.1s-0.6,0.2-0.8,0.4
				c-0.2,0.2-0.4,0.5-0.6,0.8c-0.1,0.3-0.2,0.7-0.2,1.1c0,0.4,0.1,0.7,0.2,1.1c0.1,0.3,0.3,0.6,0.5,0.8s0.4,0.4,0.7,0.5
				C-608.2,1014-607.9,1014.1-607.6,1014.1z"/>
			<path fill="#282828" d="M-601.9,1013.8c0.4-0.4,0.8-0.7,1.3-1.1c0.5-0.4,0.9-0.8,1.4-1.2c0.5-0.4,1-0.9,1.3-1.2
				c0.4-0.4,0.7-0.7,1-1.1s0.4-0.7,0.6-1c0.1-0.4,0.2-0.7,0.2-1.1c0-0.7-0.2-1.2-0.5-1.5c-0.4-0.4-0.9-0.5-1.5-0.5
				c-0.4,0-0.7,0-1,0.1c-0.3,0.1-0.5,0.2-0.7,0.4c-0.2,0.2-0.3,0.4-0.5,0.6c-0.1,0.2-0.2,0.5-0.3,0.9l-1.3-0.2
				c0.1-0.4,0.2-0.8,0.4-1.1c0.2-0.4,0.4-0.7,0.7-1s0.7-0.5,1.1-0.7c0.4-0.2,1-0.3,1.6-0.3c0.6,0,1.1,0.1,1.5,0.2
				c0.4,0.2,0.8,0.4,1.1,0.7c0.3,0.3,0.5,0.6,0.7,1c0.2,0.4,0.2,0.8,0.2,1.3c0,0.5-0.1,0.9-0.2,1.3c-0.1,0.4-0.3,0.8-0.6,1.2
				s-0.6,0.8-1.1,1.2s-0.9,0.9-1.5,1.4c-0.3,0.3-0.6,0.5-1,0.8c-0.3,0.3-0.6,0.5-1,0.8h5.4l-0.2,1.3h-7.2V1013.8z"/>
			<path fill="#282828" d="M-591,1012.1c0.1,0.7,0.3,1.1,0.7,1.4c0.3,0.3,0.9,0.5,1.6,0.5c0.7,0,1.3-0.2,1.7-0.6
				c0.4-0.4,0.6-1.1,0.6-2c0-0.7-0.2-1.3-0.5-1.8s-0.9-0.7-1.7-0.7c-0.5,0-0.9,0.1-1.3,0.2c-0.4,0.2-0.7,0.4-1,0.7h-1.2l0.5-6h6v1.3
				h-4.8l-0.3,3.4c0.3-0.3,0.7-0.4,1.1-0.6s0.8-0.2,1.3-0.2c0.6,0,1.1,0.1,1.5,0.3s0.8,0.4,1.1,0.8s0.5,0.7,0.6,1.1
				c0.1,0.4,0.2,0.9,0.2,1.4c0,1.3-0.3,2.2-1,2.9c-0.7,0.7-1.5,1-2.6,1c-1.2,0-2.1-0.3-2.7-0.8s-1-1.3-1.1-2.3H-591z"/>
			<path fill="#282828" d="M-579.2,1003.5h1.8l3.7,9.7l3.7-9.7h1.8v11.4h-1.4v-9l-3.6,9h-1.2l-3.5-9v9h-1.3V1003.5z"/>
		</g>
	</g>
	<g>
		<g>
			<g enable-background="new    ">
				<path fill="#282828" d="M-545.2,1015.2c-1.1-0.1-2-0.4-2.6-1c-0.6-0.6-0.9-1.3-1-2.3h1.4c0.1,1.3,0.9,2,2.2,2.1v-4.1l-0.2,0
					c-0.5-0.1-0.9-0.2-1.3-0.4c-0.4-0.2-0.7-0.4-1-0.6c-0.3-0.3-0.5-0.6-0.6-0.9c-0.1-0.4-0.2-0.8-0.2-1.3c0-0.4,0.1-0.8,0.2-1.1
					c0.2-0.3,0.4-0.7,0.7-0.9s0.6-0.5,1-0.6s0.9-0.3,1.4-0.3v-1.3h1.1v1.3c0.6,0.1,1.1,0.2,1.5,0.4c0.4,0.2,0.7,0.4,1,0.7
					c0.2,0.3,0.4,0.6,0.6,0.9c0.1,0.3,0.2,0.6,0.3,0.9l-1.3,0.2c-0.1-0.3-0.1-0.5-0.2-0.7c-0.1-0.2-0.2-0.4-0.4-0.6
					c-0.2-0.2-0.3-0.3-0.6-0.4c-0.2-0.1-0.5-0.2-0.8-0.2v4l0.2,0c1,0.2,1.8,0.5,2.4,1c0.5,0.5,0.8,1.3,0.8,2.3
					c0,0.4-0.1,0.8-0.2,1.2c-0.1,0.4-0.3,0.7-0.6,1c-0.3,0.3-0.6,0.5-1.1,0.7c-0.4,0.2-0.9,0.3-1.5,0.3v1.5h-1.1V1015.2z
					 M-545.2,1004.8c-0.7,0.1-1.2,0.3-1.5,0.6c-0.3,0.3-0.4,0.7-0.4,1.2c0,0.3,0,0.5,0.1,0.7c0.1,0.2,0.2,0.4,0.3,0.6
					c0.1,0.2,0.3,0.3,0.6,0.4c0.2,0.1,0.6,0.2,1,0.3V1004.8z M-544.1,1014.1c0.7-0.1,1.2-0.3,1.5-0.7c0.3-0.4,0.5-0.8,0.5-1.4
					c0-0.2,0-0.4-0.1-0.6c0-0.2-0.1-0.4-0.3-0.6c-0.1-0.2-0.3-0.3-0.6-0.5c-0.2-0.1-0.5-0.2-0.9-0.3l-0.1,0V1014.1z"/>
				<path fill="#282828" d="M-537.2,1014.9c0.5-1.7,1.1-3.4,1.7-5c0.7-1.6,1.4-3.2,2.2-4.8h-6v-1.3h7.5v1.2
					c-0.9,1.6-1.6,3.2-2.3,4.8c-0.7,1.6-1.2,3.3-1.7,5.1H-537.2z"/>
				<path fill="#282828" d="M-528,1012.1c0.1,0.7,0.3,1.1,0.7,1.4c0.3,0.3,0.9,0.5,1.6,0.5c0.7,0,1.3-0.2,1.7-0.6
					c0.4-0.4,0.6-1.1,0.6-2c0-0.7-0.2-1.3-0.5-1.8s-0.9-0.7-1.7-0.7c-0.5,0-0.9,0.1-1.3,0.2s-0.7,0.4-1,0.7h-1.2l0.5-6h6v1.3h-4.8
					l-0.3,3.4c0.3-0.3,0.7-0.4,1.1-0.6c0.4-0.1,0.8-0.2,1.3-0.2c0.6,0,1.1,0.1,1.5,0.3c0.4,0.2,0.8,0.4,1.1,0.8
					c0.3,0.3,0.5,0.7,0.6,1.1s0.2,0.9,0.2,1.4c0,1.3-0.3,2.2-1,2.9c-0.7,0.7-1.5,1-2.6,1c-1.2,0-2.1-0.3-2.7-0.8s-1-1.3-1.1-2.3
					H-528z"/>
				<path fill="#282828" d="M-516.2,1015.2c-1.3,0-2.3-0.5-3-1.4c-0.7-0.9-1.1-2.4-1.1-4.4c0-1,0.1-1.9,0.3-2.6
					c0.2-0.7,0.5-1.3,0.8-1.8c0.4-0.5,0.8-0.8,1.3-1.1c0.5-0.2,1.1-0.3,1.7-0.3c0.6,0,1.2,0.1,1.7,0.3s0.9,0.6,1.3,1.1
					c0.3,0.5,0.6,1.1,0.8,1.8s0.3,1.6,0.3,2.6c0,1-0.1,1.9-0.3,2.6s-0.4,1.3-0.8,1.8c-0.4,0.5-0.8,0.8-1.3,1.1
					C-515,1015.1-515.6,1015.2-516.2,1015.2z M-516.2,1014c0.5,0,0.9-0.1,1.2-0.3c0.3-0.2,0.6-0.5,0.8-0.9s0.3-0.9,0.4-1.4
					c0.1-0.6,0.1-1.2,0.1-1.9c0-0.7,0-1.4-0.1-1.9c-0.1-0.6-0.2-1-0.4-1.4c-0.2-0.4-0.5-0.7-0.8-0.9c-0.3-0.2-0.7-0.3-1.2-0.3
					c-0.5,0-0.9,0.1-1.2,0.3c-0.3,0.2-0.6,0.5-0.8,0.9c-0.2,0.4-0.3,0.9-0.4,1.4s-0.1,1.2-0.1,1.9c0,0.7,0,1.4,0.1,1.9
					c0.1,0.6,0.2,1,0.4,1.4s0.5,0.7,0.8,0.9C-517.1,1013.9-516.7,1014-516.2,1014z"/>
				<path fill="#282828" d="M-506.6,1003.5h1.8l3.7,9.7l3.7-9.7h1.8v11.4h-1.4v-9l-3.6,9h-1.2l-3.5-9v9h-1.3V1003.5z"/>
			</g>
		</g>
	</g>
	<g>
		<g>
			<g enable-background="new    ">
				<path fill="#282828" d="M-472.6,1015.2c-1.1-0.1-2-0.4-2.6-1c-0.6-0.6-0.9-1.3-1-2.3h1.4c0.1,1.3,0.9,2,2.2,2.1v-4.1l-0.2,0
					c-0.5-0.1-0.9-0.2-1.3-0.4c-0.4-0.2-0.7-0.4-1-0.6c-0.3-0.3-0.5-0.6-0.6-0.9c-0.1-0.4-0.2-0.8-0.2-1.3c0-0.4,0.1-0.8,0.2-1.1
					s0.4-0.7,0.7-0.9c0.3-0.3,0.6-0.5,1-0.6s0.9-0.3,1.4-0.3v-1.3h1.1v1.3c0.6,0.1,1.1,0.2,1.5,0.4c0.4,0.2,0.7,0.4,1,0.7
					c0.3,0.3,0.4,0.6,0.6,0.9c0.1,0.3,0.2,0.6,0.3,0.9l-1.3,0.2c-0.1-0.3-0.1-0.5-0.2-0.7c-0.1-0.2-0.2-0.4-0.4-0.6
					c-0.1-0.2-0.3-0.3-0.6-0.4s-0.5-0.2-0.8-0.2v4l0.2,0c1,0.2,1.8,0.5,2.4,1c0.5,0.5,0.8,1.3,0.8,2.3c0,0.4-0.1,0.8-0.2,1.2
					c-0.1,0.4-0.3,0.7-0.6,1s-0.6,0.5-1.1,0.7s-0.9,0.3-1.5,0.3v1.5h-1.1V1015.2z M-472.6,1004.8c-0.7,0.1-1.2,0.3-1.5,0.6
					c-0.3,0.3-0.4,0.7-0.4,1.2c0,0.3,0,0.5,0.1,0.7s0.2,0.4,0.3,0.6c0.1,0.2,0.3,0.3,0.6,0.4c0.3,0.1,0.6,0.2,1,0.3V1004.8z
					 M-471.6,1014.1c0.7-0.1,1.2-0.3,1.5-0.7c0.3-0.4,0.5-0.8,0.5-1.4c0-0.2,0-0.4-0.1-0.6c0-0.2-0.1-0.4-0.3-0.6
					c-0.1-0.2-0.3-0.3-0.6-0.5c-0.2-0.1-0.5-0.2-0.9-0.3l-0.1,0V1014.1z"/>
				<path fill="#282828" d="M-464.6,1009.3c-0.5-0.2-0.9-0.5-1.2-0.9c-0.3-0.4-0.5-1-0.5-1.7c0-0.4,0.1-0.8,0.2-1.2
					c0.1-0.4,0.4-0.7,0.7-1c0.3-0.3,0.7-0.5,1.2-0.7s1-0.2,1.7-0.2c0.7,0,1.2,0.1,1.7,0.2c0.5,0.2,0.9,0.4,1.2,0.6
					c0.3,0.3,0.5,0.6,0.7,1c0.1,0.4,0.2,0.8,0.2,1.2c0,0.7-0.2,1.3-0.5,1.7c-0.3,0.4-0.7,0.7-1.2,0.9c0.6,0.2,1.1,0.6,1.4,1
					c0.4,0.5,0.6,1,0.6,1.7c0,1-0.3,1.8-1,2.4c-0.7,0.6-1.7,0.9-3,0.9s-2.4-0.3-3.1-0.9c-0.7-0.6-1-1.4-1-2.4c0-0.7,0.2-1.2,0.6-1.7
					C-465.7,1009.9-465.2,1009.5-464.6,1009.3z M-465.2,1012c0,0.6,0.2,1.1,0.6,1.5c0.4,0.4,1.1,0.6,2,0.6c0.9,0,1.6-0.2,2-0.6
					c0.4-0.4,0.6-0.9,0.6-1.5c0-0.3,0-0.6-0.1-0.8c-0.1-0.2-0.2-0.5-0.4-0.6s-0.5-0.3-0.8-0.4c-0.3-0.1-0.7-0.1-1.2-0.1
					c-0.5,0-0.9,0.1-1.3,0.2s-0.6,0.2-0.8,0.4s-0.4,0.4-0.4,0.6C-465.2,1011.4-465.2,1011.7-465.2,1012z M-465,1006.7
					c0,0.7,0.2,1.2,0.6,1.5c0.4,0.3,1,0.5,1.8,0.5s1.4-0.2,1.8-0.5c0.4-0.3,0.6-0.8,0.6-1.5c0-0.3,0-0.5-0.1-0.8
					c-0.1-0.2-0.2-0.5-0.4-0.6c-0.2-0.2-0.4-0.3-0.7-0.4c-0.3-0.1-0.7-0.2-1.1-0.2s-0.8,0.1-1.1,0.2c-0.3,0.1-0.6,0.3-0.7,0.4
					c-0.2,0.2-0.3,0.4-0.4,0.6S-465,1006.5-465,1006.7z"/>
				<path fill="#282828" d="M-455.1,1014.9c0.5-1.7,1.1-3.4,1.7-5c0.7-1.6,1.4-3.2,2.2-4.8h-6v-1.3h7.5v1.2
					c-0.9,1.6-1.6,3.2-2.3,4.8c-0.7,1.6-1.2,3.3-1.7,5.1H-455.1z"/>
				<path fill="#282828" d="M-445.9,1012.1c0.1,0.7,0.3,1.1,0.7,1.4c0.3,0.3,0.9,0.5,1.6,0.5c0.7,0,1.3-0.2,1.7-0.6
					c0.4-0.4,0.6-1.1,0.6-2c0-0.7-0.2-1.3-0.5-1.8s-0.9-0.7-1.7-0.7c-0.5,0-0.9,0.1-1.3,0.2c-0.4,0.2-0.7,0.4-1,0.7h-1.2l0.5-6h6
					v1.3h-4.8l-0.3,3.4c0.3-0.3,0.7-0.4,1.1-0.6s0.8-0.2,1.3-0.2c0.6,0,1.1,0.1,1.5,0.3s0.8,0.4,1.1,0.8s0.5,0.7,0.6,1.1
					c0.1,0.4,0.2,0.9,0.2,1.4c0,1.3-0.3,2.2-1,2.9c-0.7,0.7-1.5,1-2.6,1c-1.2,0-2.1-0.3-2.7-0.8s-1-1.3-1.1-2.3H-445.9z"/>
				<path fill="#282828" d="M-434.1,1003.5h1.8l3.7,9.7l3.7-9.7h1.8v11.4h-1.4v-9l-3.6,9h-1.2l-3.5-9v9h-1.3V1003.5z"/>
			</g>
		</g>
	</g>
	<g>
		<g enable-background="new    ">
			<path fill="#282828" d="M-956.8,1015.3c-1.4,0-2.6-0.5-3.4-1.6c-0.8-1.1-1.2-2.7-1.2-5c0-1.1,0.1-2.1,0.3-3
				c0.2-0.8,0.5-1.5,0.9-2.1c0.4-0.5,0.9-0.9,1.5-1.2c0.6-0.3,1.2-0.4,1.9-0.4s1.4,0.1,1.9,0.4c0.6,0.3,1,0.7,1.4,1.2
				c0.4,0.5,0.7,1.2,0.9,2.1c0.2,0.8,0.3,1.8,0.3,3s-0.1,2.1-0.3,2.9c-0.2,0.8-0.5,1.5-0.9,2.1c-0.4,0.5-0.9,0.9-1.5,1.2
				S-956,1015.3-956.8,1015.3z M-956.7,1013.9c0.5,0,1-0.1,1.4-0.4c0.4-0.2,0.7-0.6,0.9-1s0.4-1,0.5-1.6c0.1-0.6,0.2-1.4,0.2-2.2
				c0-0.8-0.1-1.5-0.2-2.2c-0.1-0.6-0.3-1.2-0.5-1.6c-0.2-0.4-0.5-0.8-0.9-1c-0.4-0.2-0.8-0.4-1.4-0.4s-1,0.1-1.4,0.4
				s-0.7,0.6-0.9,1c-0.2,0.4-0.4,1-0.5,1.6c-0.1,0.6-0.2,1.4-0.2,2.2c0,0.8,0.1,1.5,0.2,2.2c0.1,0.6,0.3,1.2,0.5,1.6
				c0.2,0.4,0.5,0.8,0.9,1S-957.3,1013.9-956.7,1013.9z"/>
		</g>
	</g>
	<g>
		<g>
			<g enable-background="new    ">
				<path fill="#174F65" d="M-1204.9,809.6c-0.9,0-1.6-0.1-2.3-0.3c-0.7-0.2-1.2-0.6-1.7-1s-0.8-1-1.1-1.8c-0.2-0.7-0.4-1.6-0.4-2.6
					v-7.5h3.5v7.6c0,0.9,0.1,1.5,0.5,1.9c0.3,0.4,0.8,0.6,1.5,0.6c0.7,0,1.2-0.2,1.5-0.6c0.3-0.4,0.4-1.1,0.4-1.9v-7.6h3.5v7.5
					c0,1-0.1,1.9-0.4,2.6s-0.6,1.3-1.1,1.8c-0.5,0.5-1,0.8-1.7,1C-1203.3,809.5-1204.1,809.6-1204.9,809.6z"/>
				<path fill="#174F65" d="M-1198.2,805.9h3.1v3.4h-3.1V805.9z"/>
				<path fill="#174F65" d="M-1190.4,805.1c0.1,0.6,0.3,1,0.7,1.3s0.9,0.4,1.6,0.4c0.6,0,1.1-0.1,1.4-0.3c0.3-0.2,0.5-0.5,0.5-0.9
					c0-0.3-0.1-0.5-0.3-0.7c-0.2-0.2-0.6-0.4-1.1-0.5l-1.7-0.3c-1.4-0.3-2.5-0.7-3.2-1.3s-1-1.5-1-2.6c0-1.3,0.5-2.3,1.4-3
					c0.9-0.7,2.2-1,3.8-1c0.9,0,1.7,0.1,2.4,0.3c0.7,0.2,1.2,0.5,1.6,0.9c0.4,0.4,0.7,0.8,1,1.3c0.2,0.5,0.4,1,0.4,1.5l-3.3,0.3
					c-0.1-0.5-0.3-0.9-0.6-1.2c-0.3-0.3-0.8-0.4-1.4-0.4c-0.6,0-1,0.1-1.3,0.3c-0.3,0.2-0.4,0.5-0.4,0.8c0,0.3,0.1,0.5,0.3,0.7
					s0.6,0.3,1.1,0.4l1.7,0.3c1.5,0.3,2.6,0.8,3.2,1.4s1,1.5,1,2.5c0,0.6-0.1,1.2-0.3,1.7c-0.2,0.5-0.5,1-1,1.3
					c-0.4,0.4-1,0.7-1.7,0.9c-0.7,0.2-1.5,0.3-2.4,0.3c-3.6,0-5.4-1.5-5.6-4.6H-1190.4z"/>
				<path fill="#174F65" d="M-1181.3,805.9h3.1v3.4h-3.1V805.9z"/>
				<path fill="#174F65" d="M-1172.2,809.3v-12.9h5.1c2.1,0,3.8,0.5,4.9,1.6c1.1,1.1,1.6,2.6,1.6,4.7c0,2.1-0.6,3.7-1.7,4.9
					s-2.8,1.7-5,1.7H-1172.2z M-1168.8,806.4h1.5c1.1,0,1.8-0.3,2.3-0.9s0.7-1.5,0.7-2.6s-0.2-2-0.7-2.6s-1.2-0.9-2.2-0.9h-1.6
					V806.4z"/>
				<path fill="#174F65" d="M-1149.8,805.4h-6.2c0.1,0.7,0.2,1.2,0.5,1.5c0.2,0.3,0.6,0.4,1.2,0.4c0.8,0,1.3-0.3,1.5-1h3
					c-0.2,1.1-0.7,2-1.4,2.5s-1.8,0.8-3.1,0.8c-1.6,0-2.8-0.4-3.6-1.3c-0.8-0.8-1.2-2-1.2-3.6c0-0.8,0.1-1.6,0.3-2.2
					c0.2-0.6,0.5-1.2,1-1.6c0.4-0.4,0.9-0.8,1.5-1c0.6-0.2,1.3-0.3,2-0.3s1.4,0.1,2,0.3c0.6,0.2,1,0.5,1.4,1
					c0.4,0.4,0.7,0.9,0.9,1.5s0.3,1.2,0.3,2V805.4z M-1154.4,801.9c-0.6,0-1,0.1-1.2,0.4s-0.4,0.7-0.5,1.2h3.2c0-0.6-0.2-1-0.4-1.2
					S-1153.9,801.9-1154.4,801.9z"/>
				<path fill="#174F65" d="M-1145,799.9v1.1c0.7-0.9,1.6-1.3,2.8-1.3c1.2,0,2.1,0.4,2.8,1.3c0.7,0.9,1,2.1,1,3.6
					c0,0.8-0.1,1.5-0.3,2.2c-0.2,0.6-0.5,1.2-0.8,1.6c-0.3,0.4-0.8,0.8-1.3,1c-0.5,0.2-1,0.3-1.6,0.3c-1.1,0-1.9-0.4-2.5-1.1v4.3
					h-3.3v-13H-1145z M-1144.9,804.7c0,0.4,0,0.8,0.1,1.1c0.1,0.3,0.2,0.5,0.3,0.7c0.1,0.2,0.3,0.3,0.5,0.4c0.2,0.1,0.4,0.1,0.6,0.1
					c0.5,0,0.9-0.2,1.2-0.6c0.3-0.4,0.4-1,0.4-1.8c0-0.8-0.1-1.4-0.4-1.8c-0.3-0.4-0.7-0.6-1.2-0.6c-0.2,0-0.4,0-0.6,0.1
					s-0.4,0.2-0.5,0.5c-0.3,0.4-0.4,0.9-0.4,1.6V804.7z"/>
				<path fill="#174F65" d="M-1131.2,809.3v-1c-0.4,0.4-0.8,0.7-1.3,0.9c-0.4,0.2-1,0.3-1.6,0.3c-0.4,0-0.8-0.1-1.2-0.2
					c-0.4-0.1-0.7-0.3-1-0.5c-0.3-0.2-0.5-0.5-0.7-0.9c-0.2-0.4-0.3-0.8-0.3-1.3c0-0.6,0.1-1.1,0.4-1.4s0.6-0.7,1-1
					c0.4-0.2,0.9-0.4,1.4-0.5c0.6-0.1,1.1-0.2,1.8-0.2l1.4-0.1v-0.4c0-0.5-0.1-0.8-0.3-1c-0.2-0.2-0.5-0.3-0.9-0.3
					c-0.7,0-1.2,0.3-1.3,0.9l-2.9-0.2c0.2-1,0.6-1.8,1.4-2.2c0.7-0.5,1.7-0.7,3-0.7c0.8,0,1.5,0.1,2,0.3c0.5,0.2,1,0.4,1.3,0.8
					c0.3,0.3,0.6,0.7,0.7,1.2c0.1,0.5,0.2,1,0.2,1.6v5.9H-1131.2z M-1131.3,805.3l-1,0.1c-0.7,0-1.1,0.2-1.4,0.3
					c-0.2,0.2-0.4,0.4-0.4,0.8c0,0.3,0.1,0.5,0.3,0.7c0.2,0.1,0.4,0.2,0.8,0.2c0.5,0,0.9-0.1,1.3-0.4c0.3-0.3,0.5-0.7,0.5-1.3V805.3
					z"/>
				<path fill="#174F65" d="M-1126.3,799.9h3.2v1.2c0.3-0.5,0.7-0.8,1.2-1s0.9-0.3,1.5-0.3c0.3,0,0.7,0,0.9,0.1l-0.4,2.8
					c-0.1,0-0.3-0.1-0.5-0.1c-0.2,0-0.4,0-0.5,0c-0.3,0-0.5,0-0.8,0.1c-0.3,0.1-0.5,0.2-0.7,0.3c-0.2,0.2-0.4,0.4-0.5,0.6
					s-0.2,0.6-0.2,1v4.8h-3.3V799.9z"/>
				<path fill="#174F65" d="M-1117.1,802.4h-1.5v-2.5h1.5v-2.5h3.3v2.5h2.1v2.5h-2.1v3.4c0,0.4,0.1,0.7,0.3,0.9
					c0.2,0.2,0.5,0.2,0.8,0.2c0.3,0,0.6,0,0.9-0.1l0.4,2.4c-0.7,0.2-1.5,0.3-2.2,0.3c-1.2,0-2.1-0.3-2.6-0.9s-0.8-1.5-0.8-2.7V802.4
					z"/>
				<path fill="#174F65" d="M-1104.5,799.6c0.6,0,1.1,0.1,1.5,0.4c0.4,0.3,0.7,0.6,1,1.1c0.4-0.5,0.8-0.9,1.3-1.1
					c0.5-0.2,1-0.4,1.6-0.4c0.9,0,1.7,0.3,2.2,0.8c0.5,0.6,0.8,1.4,0.8,2.5v6.4h-3.3v-6c0-0.4-0.1-0.7-0.2-0.8
					c-0.2-0.1-0.4-0.2-0.7-0.2c-0.2,0-0.4,0-0.5,0.1c-0.1,0-0.3,0.1-0.4,0.3c-0.1,0.1-0.2,0.2-0.3,0.4c-0.1,0.1-0.1,0.3-0.1,0.6v5.7
					h-3.3v-6c0-0.4-0.1-0.7-0.2-0.8c-0.2-0.1-0.4-0.2-0.7-0.2c-0.2,0-0.4,0-0.5,0.1c-0.1,0-0.3,0.1-0.4,0.3
					c-0.1,0.1-0.2,0.2-0.3,0.4c-0.1,0.1-0.1,0.3-0.1,0.6v5.7h-3.3v-9.5h3.2v1.1c0.3-0.4,0.7-0.8,1.1-1
					C-1105.5,799.7-1105,799.6-1104.5,799.6z"/>
				<path fill="#174F65" d="M-1085.2,805.4h-6.2c0.1,0.7,0.2,1.2,0.5,1.5c0.2,0.3,0.6,0.4,1.2,0.4c0.8,0,1.3-0.3,1.5-1h3
					c-0.2,1.1-0.7,2-1.4,2.5s-1.8,0.8-3.1,0.8c-1.6,0-2.8-0.4-3.6-1.3c-0.8-0.8-1.2-2-1.2-3.6c0-0.8,0.1-1.6,0.3-2.2
					c0.2-0.6,0.5-1.2,1-1.6c0.4-0.4,0.9-0.8,1.5-1c0.6-0.2,1.3-0.3,2-0.3s1.4,0.1,2,0.3c0.6,0.2,1,0.5,1.4,1
					c0.4,0.4,0.7,0.9,0.9,1.5s0.3,1.2,0.3,2V805.4z M-1089.7,801.9c-0.6,0-1,0.1-1.2,0.4s-0.4,0.7-0.5,1.2h3.2c0-0.6-0.2-1-0.4-1.2
					S-1089.2,801.9-1089.7,801.9z"/>
				<path fill="#174F65" d="M-1080.3,799.9v1.1c0.4-0.5,0.8-0.9,1.3-1.1s1-0.3,1.6-0.3c1,0,1.7,0.3,2.3,0.9c0.5,0.6,0.8,1.4,0.8,2.6
					v6.3h-3.3v-5.8c0-0.5-0.1-0.8-0.3-1s-0.4-0.3-0.8-0.3c-0.4,0-0.8,0.1-1.1,0.4c-0.1,0.1-0.2,0.3-0.3,0.4
					c-0.1,0.2-0.1,0.4-0.1,0.7v5.5h-3.3v-9.5H-1080.3z"/>
				<path fill="#174F65" d="M-1071.7,802.4h-1.5v-2.5h1.5v-2.5h3.3v2.5h2.1v2.5h-2.1v3.4c0,0.4,0.1,0.7,0.3,0.9
					c0.2,0.2,0.5,0.2,0.8,0.2c0.3,0,0.6,0,0.9-0.1l0.4,2.4c-0.7,0.2-1.5,0.3-2.2,0.3c-1.2,0-2.1-0.3-2.6-0.9s-0.8-1.5-0.8-2.7V802.4
					z"/>
				<path fill="#174F65" d="M-1051.5,804.6c0,1.6-0.4,2.8-1.3,3.7c-0.9,0.9-2.1,1.3-3.6,1.3c-1.5,0-2.7-0.4-3.6-1.3
					s-1.3-2.1-1.3-3.7c0-1.6,0.4-2.8,1.3-3.7s2.1-1.3,3.6-1.3c1.5,0,2.7,0.4,3.6,1.3S-1051.5,803-1051.5,804.6z M-1058,804.6
					c0,0.9,0.1,1.5,0.4,1.9c0.3,0.4,0.7,0.6,1.2,0.6c0.5,0,0.9-0.2,1.2-0.6c0.3-0.4,0.4-1,0.4-1.9c0-0.9-0.1-1.5-0.4-1.9
					c-0.3-0.4-0.7-0.6-1.2-0.6c-0.5,0-0.9,0.2-1.2,0.6C-1057.9,803.1-1058,803.7-1058,804.6z"/>
				<path fill="#174F65" d="M-1049.1,802.8h-1.5v-2.5h1.5v-0.3c0-1.1,0.3-2,1-2.7c0.7-0.6,1.6-1,2.7-1c0.4,0,0.7,0,1.1,0.1
					c0.4,0.1,0.7,0.1,1.1,0.2l-0.4,2.3c-0.2,0-0.3-0.1-0.5-0.1s-0.4,0-0.6,0c-0.3,0-0.6,0.1-0.8,0.2c-0.2,0.2-0.3,0.4-0.3,0.9v0.3
					h2.1v2.5h-2.1v6.6h-3.3V802.8z"/>
				<path fill="#174F65" d="M-1038.4,796.5h3.5v4.7h4.2v-4.7h3.5v12.9h-3.5v-5.1h-4.2v5.1h-3.5V796.5z"/>
				<path fill="#174F65" d="M-1015.6,804.6c0,1.6-0.4,2.8-1.3,3.7c-0.9,0.9-2.1,1.3-3.6,1.3c-1.5,0-2.7-0.4-3.6-1.3
					s-1.3-2.1-1.3-3.7c0-1.6,0.4-2.8,1.3-3.7s2.1-1.3,3.6-1.3c1.5,0,2.7,0.4,3.6,1.3S-1015.6,803-1015.6,804.6z M-1022.1,804.6
					c0,0.9,0.1,1.5,0.4,1.9c0.3,0.4,0.7,0.6,1.2,0.6c0.5,0,0.9-0.2,1.2-0.6c0.3-0.4,0.4-1,0.4-1.9c0-0.9-0.1-1.5-0.4-1.9
					c-0.3-0.4-0.7-0.6-1.2-0.6c-0.5,0-0.9,0.2-1.2,0.6C-1021.9,803.1-1022.1,803.7-1022.1,804.6z"/>
				<path fill="#174F65" d="M-1008.1,809.3v-1.1c-0.4,0.5-0.8,0.9-1.3,1.1s-1,0.3-1.6,0.3c-1,0-1.7-0.3-2.2-0.9s-0.8-1.4-0.8-2.5
					v-6.3h3.3v5.8c0,0.5,0.1,0.8,0.3,1c0.2,0.2,0.4,0.3,0.8,0.3c0.4,0,0.8-0.1,1-0.4c0.1-0.1,0.2-0.3,0.3-0.5s0.1-0.4,0.1-0.7v-5.5
					h3.3v9.5H-1008.1z"/>
				<path fill="#174F65" d="M-1000.4,806.3c0.1,0.4,0.2,0.6,0.5,0.8s0.6,0.2,1,0.2c0.4,0,0.7-0.1,0.9-0.2c0.2-0.1,0.3-0.3,0.3-0.6
					c0-0.2-0.1-0.3-0.2-0.5s-0.4-0.2-0.7-0.3l-1.1-0.2c-1.2-0.2-2.1-0.5-2.7-1c-0.6-0.5-0.9-1.1-0.9-1.9c0-1,0.4-1.8,1.1-2.3
					c0.7-0.5,1.8-0.8,3.1-0.8c0.8,0,1.4,0.1,1.9,0.2s1,0.4,1.3,0.6c0.3,0.3,0.6,0.6,0.8,0.9c0.2,0.3,0.3,0.7,0.4,1.1l-3,0.3
					c-0.1-0.3-0.2-0.6-0.4-0.7c-0.2-0.2-0.5-0.2-1-0.2c-0.4,0-0.7,0.1-0.9,0.2c-0.2,0.1-0.3,0.3-0.3,0.5c0,0.2,0.1,0.3,0.2,0.5
					c0.1,0.1,0.4,0.2,0.9,0.3l1.1,0.2c0.7,0.1,1.2,0.3,1.7,0.5c0.5,0.2,0.8,0.4,1.1,0.6s0.5,0.5,0.6,0.8c0.1,0.3,0.2,0.7,0.2,1.1
					c0,1.1-0.4,1.9-1.1,2.4c-0.7,0.5-1.8,0.8-3.2,0.8c-0.6,0-1.1-0.1-1.7-0.2s-1-0.3-1.4-0.5c-0.4-0.3-0.8-0.6-1-1s-0.4-1-0.5-1.6
					H-1000.4z"/>
				<path fill="#174F65" d="M-989.9,796.5v2.4h-3.3v-2.4H-989.9z M-989.9,799.9v9.5h-3.3v-9.5H-989.9z"/>
				<path fill="#174F65" d="M-984.8,799.9v1.1c0.4-0.5,0.8-0.9,1.3-1.1s1-0.3,1.6-0.3c1,0,1.7,0.3,2.3,0.9c0.5,0.6,0.8,1.4,0.8,2.6
					v6.3h-3.3v-5.8c0-0.5-0.1-0.8-0.3-1s-0.4-0.3-0.8-0.3c-0.4,0-0.8,0.1-1.1,0.4c-0.1,0.1-0.2,0.3-0.3,0.4
					c-0.1,0.2-0.1,0.4-0.1,0.7v5.5h-3.3v-9.5H-984.8z"/>
				<path fill="#174F65" d="M-970.8,807.8c-0.6,0.8-1.5,1.1-2.7,1.1c-1.2,0-2.1-0.4-2.8-1.2c-0.7-0.8-1-1.9-1-3.3
					c0-0.8,0.1-1.4,0.3-2s0.5-1.1,0.8-1.5s0.8-0.7,1.3-0.9c0.5-0.2,1-0.3,1.6-0.3c1.1,0,2,0.4,2.6,1.2v-0.9h3.2v8.3
					c0,1.6-0.4,2.8-1.2,3.7c-0.8,0.8-2,1.2-3.7,1.2c-1.4,0-2.5-0.3-3.2-0.9s-1.1-1.4-1.2-2.5h3.2c0,0.3,0.2,0.6,0.4,0.7
					c0.2,0.2,0.5,0.3,1,0.3c0.3,0,0.6-0.1,0.8-0.2c0.2-0.1,0.4-0.3,0.5-0.5s0.2-0.5,0.2-0.8c0-0.3,0.1-0.7,0.1-1.1V807.8z
					 M-970.8,804.2c0-0.4,0-0.7-0.1-0.9c-0.1-0.2-0.2-0.4-0.3-0.6c-0.1-0.2-0.3-0.3-0.5-0.4c-0.2-0.1-0.4-0.1-0.7-0.1
					c-0.5,0-0.8,0.2-1.1,0.5s-0.4,0.9-0.4,1.6c0,0.7,0.1,1.2,0.4,1.6c0.3,0.3,0.7,0.5,1.1,0.5c0.5,0,0.9-0.2,1.2-0.6
					c0.3-0.3,0.4-0.8,0.4-1.3V804.2z"/>
			</g>
			<g enable-background="new    ">
				<path fill="#174F65" d="M-1173,829.3v-1c-0.4,0.4-0.8,0.7-1.3,0.9s-1,0.3-1.6,0.3c-0.4,0-0.8-0.1-1.2-0.2
					c-0.4-0.1-0.7-0.3-1-0.5c-0.3-0.2-0.5-0.5-0.7-0.9c-0.2-0.4-0.3-0.8-0.3-1.3c0-0.6,0.1-1.1,0.4-1.4c0.2-0.4,0.6-0.7,1-1
					s0.9-0.4,1.4-0.5c0.6-0.1,1.1-0.2,1.8-0.2l1.4-0.1v-0.4c0-0.5-0.1-0.8-0.3-1c-0.2-0.2-0.5-0.3-0.9-0.3c-0.7,0-1.2,0.3-1.3,0.9
					l-2.9-0.2c0.2-1,0.6-1.8,1.3-2.2c0.7-0.5,1.7-0.7,3-0.7c0.8,0,1.5,0.1,2,0.3c0.5,0.2,1,0.4,1.3,0.8s0.6,0.7,0.7,1.2
					c0.1,0.5,0.2,1,0.2,1.6v5.9H-1173z M-1173.1,825.3l-1,0.1c-0.7,0-1.1,0.2-1.4,0.3c-0.2,0.2-0.4,0.4-0.4,0.8
					c0,0.3,0.1,0.5,0.3,0.7c0.2,0.1,0.4,0.2,0.8,0.2c0.5,0,0.9-0.1,1.3-0.4c0.3-0.3,0.5-0.7,0.5-1.3V825.3z"/>
				<path fill="#174F65" d="M-1164.9,819.9v1.1c0.4-0.5,0.8-0.9,1.3-1.1c0.5-0.2,1-0.3,1.6-0.3c1,0,1.7,0.3,2.3,0.9s0.8,1.4,0.8,2.6
					v6.3h-3.3v-5.8c0-0.5-0.1-0.8-0.3-1c-0.2-0.2-0.4-0.3-0.8-0.3c-0.4,0-0.8,0.1-1.1,0.4c-0.1,0.1-0.2,0.3-0.3,0.4
					c-0.1,0.2-0.1,0.4-0.1,0.7v5.5h-3.3v-9.5H-1164.9z"/>
				<path fill="#174F65" d="M-1150.8,829.3v-1.1c-0.7,0.9-1.6,1.3-2.8,1.3c-1.2,0-2.1-0.4-2.8-1.3c-0.7-0.9-1-2.1-1-3.6
					c0-0.8,0.1-1.5,0.3-2.2c0.2-0.6,0.5-1.2,0.8-1.6c0.3-0.4,0.8-0.8,1.3-1c0.5-0.2,1-0.3,1.6-0.3c1.1,0,1.9,0.4,2.5,1.1v-4.2h3.3
					v12.9H-1150.8z M-1150.9,824.5c0-0.4,0-0.8-0.1-1.1c-0.1-0.3-0.2-0.5-0.3-0.7c-0.1-0.2-0.3-0.3-0.5-0.4
					c-0.2-0.1-0.4-0.1-0.6-0.1c-0.5,0-0.9,0.2-1.2,0.5c-0.3,0.4-0.4,1-0.4,1.9c0,0.9,0.1,1.5,0.4,1.9c0.3,0.4,0.7,0.5,1.2,0.5
					c0.2,0,0.4,0,0.6-0.1c0.2-0.1,0.4-0.2,0.5-0.5c0.3-0.4,0.4-0.9,0.4-1.6V824.5z"/>
				<path fill="#174F65" d="M-1136.4,829.6c-0.9,0-1.6-0.1-2.3-0.3c-0.7-0.2-1.2-0.6-1.7-1s-0.8-1-1.1-1.8c-0.2-0.7-0.4-1.6-0.4-2.6
					v-7.5h3.5v7.6c0,0.9,0.1,1.5,0.5,1.9c0.3,0.4,0.8,0.6,1.5,0.6c0.7,0,1.2-0.2,1.5-0.6c0.3-0.4,0.5-1.1,0.5-1.9v-7.6h3.5v7.5
					c0,1-0.1,1.9-0.4,2.6s-0.6,1.3-1.1,1.8s-1,0.8-1.7,1C-1134.8,829.5-1135.5,829.6-1136.4,829.6z"/>
				<path fill="#174F65" d="M-1128.9,819.9h3.2v1.2c0.3-0.5,0.7-0.8,1.2-1c0.4-0.2,0.9-0.3,1.5-0.3c0.3,0,0.7,0,0.9,0.1l-0.4,2.8
					c-0.1,0-0.3-0.1-0.5-0.1c-0.2,0-0.4,0-0.5,0c-0.3,0-0.5,0-0.8,0.1c-0.3,0.1-0.5,0.2-0.7,0.3c-0.2,0.2-0.4,0.4-0.5,0.6
					c-0.1,0.3-0.2,0.6-0.2,1v4.8h-3.3V819.9z"/>
				<path fill="#174F65" d="M-1117.6,816.5v4.3c0.6-0.8,1.5-1.2,2.7-1.2c1.2,0,2.1,0.4,2.8,1.3c0.7,0.9,1,2.1,1,3.6
					c0,0.8-0.1,1.5-0.3,2.2c-0.2,0.6-0.5,1.2-0.8,1.6c-0.3,0.4-0.8,0.8-1.3,1c-0.5,0.2-1,0.3-1.6,0.3c-1.1,0-2-0.4-2.6-1.3v1h-3.2
					v-12.9H-1117.6z M-1117.6,824.7c0,0.4,0,0.8,0.1,1.1c0.1,0.3,0.2,0.5,0.3,0.7c0.1,0.2,0.3,0.3,0.5,0.4c0.2,0.1,0.4,0.1,0.6,0.1
					c0.5,0,0.9-0.2,1.2-0.5c0.3-0.4,0.4-1,0.4-1.9c0-0.9-0.1-1.5-0.4-1.9c-0.3-0.4-0.7-0.5-1.2-0.5c-0.2,0-0.4,0-0.6,0.1
					s-0.4,0.2-0.5,0.5c-0.3,0.4-0.4,0.9-0.4,1.6V824.7z"/>
				<path fill="#174F65" d="M-1104,829.3v-1c-0.4,0.4-0.8,0.7-1.3,0.9s-1,0.3-1.6,0.3c-0.4,0-0.8-0.1-1.2-0.2
					c-0.4-0.1-0.7-0.3-1-0.5c-0.3-0.2-0.5-0.5-0.7-0.9c-0.2-0.4-0.3-0.8-0.3-1.3c0-0.6,0.1-1.1,0.4-1.4c0.2-0.4,0.6-0.7,1-1
					s0.9-0.4,1.4-0.5c0.6-0.1,1.1-0.2,1.8-0.2l1.4-0.1v-0.4c0-0.5-0.1-0.8-0.3-1c-0.2-0.2-0.5-0.3-0.9-0.3c-0.7,0-1.2,0.3-1.3,0.9
					l-2.9-0.2c0.2-1,0.6-1.8,1.3-2.2c0.7-0.5,1.7-0.7,3-0.7c0.8,0,1.5,0.1,2,0.3c0.5,0.2,1,0.4,1.3,0.8s0.6,0.7,0.7,1.2
					c0.1,0.5,0.2,1,0.2,1.6v5.9H-1104z M-1104.1,825.3l-1,0.1c-0.7,0-1.1,0.2-1.4,0.3c-0.2,0.2-0.4,0.4-0.4,0.8
					c0,0.3,0.1,0.5,0.3,0.7c0.2,0.1,0.4,0.2,0.8,0.2c0.5,0,0.9-0.1,1.3-0.4c0.3-0.3,0.5-0.7,0.5-1.3V825.3z"/>
				<path fill="#174F65" d="M-1095.9,819.9v1.1c0.4-0.5,0.8-0.9,1.3-1.1c0.5-0.2,1-0.3,1.6-0.3c1,0,1.7,0.3,2.3,0.9s0.8,1.4,0.8,2.6
					v6.3h-3.3v-5.8c0-0.5-0.1-0.8-0.3-1c-0.2-0.2-0.4-0.3-0.8-0.3c-0.4,0-0.8,0.1-1.1,0.4c-0.1,0.1-0.2,0.3-0.3,0.4
					c-0.1,0.2-0.1,0.4-0.1,0.7v5.5h-3.3v-9.5H-1095.9z"/>
				<path fill="#174F65" d="M-1084,829.3v-12.9h5.1c2.1,0,3.8,0.5,4.9,1.6c1.1,1.1,1.6,2.6,1.6,4.7c0,2.1-0.6,3.7-1.7,4.9
					s-2.8,1.7-5,1.7H-1084z M-1080.5,826.4h1.5c1.1,0,1.8-0.3,2.3-0.9s0.7-1.5,0.7-2.6s-0.2-2-0.7-2.6s-1.2-0.9-2.2-0.9h-1.6V826.4z
					"/>
				<path fill="#174F65" d="M-1061.6,825.4h-6.2c0.1,0.7,0.2,1.2,0.5,1.5c0.2,0.3,0.6,0.4,1.2,0.4c0.8,0,1.3-0.3,1.5-1h3
					c-0.2,1.1-0.7,2-1.4,2.5c-0.8,0.6-1.8,0.8-3.1,0.8c-1.6,0-2.8-0.4-3.6-1.3c-0.8-0.8-1.2-2-1.2-3.6c0-0.8,0.1-1.6,0.3-2.2
					c0.2-0.6,0.5-1.2,1-1.6c0.4-0.4,0.9-0.8,1.5-1c0.6-0.2,1.3-0.3,2-0.3s1.4,0.1,2,0.3c0.6,0.2,1,0.5,1.4,1
					c0.4,0.4,0.7,0.9,0.9,1.5c0.2,0.6,0.3,1.2,0.3,2V825.4z M-1066.1,821.9c-0.6,0-1,0.1-1.2,0.4c-0.3,0.3-0.4,0.7-0.5,1.2h3.2
					c0-0.6-0.2-1-0.4-1.2S-1065.6,821.9-1066.1,821.9z"/>
				<path fill="#174F65" d="M-1057.8,829.3l-3.4-9.5h3.5l1.7,6l1.7-6h3.4l-3.4,9.5H-1057.8z"/>
				<path fill="#174F65" d="M-1041.3,825.4h-6.2c0.1,0.7,0.2,1.2,0.5,1.5s0.6,0.4,1.2,0.4c0.8,0,1.3-0.3,1.5-1h3
					c-0.2,1.1-0.7,2-1.4,2.5c-0.8,0.6-1.8,0.8-3.1,0.8c-1.6,0-2.8-0.4-3.6-1.3s-1.2-2-1.2-3.6c0-0.8,0.1-1.6,0.3-2.2
					c0.2-0.6,0.5-1.2,1-1.6c0.4-0.4,0.9-0.8,1.5-1c0.6-0.2,1.3-0.3,2-0.3s1.4,0.1,2,0.3c0.6,0.2,1,0.5,1.4,1s0.7,0.9,0.9,1.5
					c0.2,0.6,0.3,1.2,0.3,2V825.4z M-1045.8,821.9c-0.6,0-1,0.1-1.2,0.4c-0.3,0.3-0.4,0.7-0.5,1.2h3.2c0-0.6-0.2-1-0.4-1.2
					S-1045.3,821.9-1045.8,821.9z"/>
				<path fill="#174F65" d="M-1036.3,816.5v12.9h-3.3v-12.9H-1036.3z"/>
				<path fill="#174F65" d="M-1024.9,824.6c0,1.6-0.4,2.8-1.3,3.7c-0.9,0.9-2.1,1.3-3.6,1.3c-1.5,0-2.7-0.4-3.6-1.3
					c-0.9-0.9-1.3-2.1-1.3-3.7c0-1.6,0.4-2.8,1.3-3.7s2.1-1.3,3.6-1.3c1.5,0,2.7,0.4,3.6,1.3C-1025.3,821.8-1024.9,823-1024.9,824.6
					z M-1031.4,824.6c0,0.9,0.1,1.5,0.4,1.9s0.7,0.6,1.2,0.6c0.5,0,0.9-0.2,1.2-0.6c0.3-0.4,0.4-1,0.4-1.9c0-0.9-0.1-1.5-0.4-1.9
					c-0.3-0.4-0.7-0.6-1.2-0.6c-0.5,0-0.9,0.2-1.2,0.6S-1031.4,823.7-1031.4,824.6z"/>
				<path fill="#174F65" d="M-1020.1,819.9v1.1c0.7-0.9,1.6-1.3,2.8-1.3c1.2,0,2.1,0.4,2.8,1.3c0.7,0.9,1,2.1,1,3.6
					c0,0.8-0.1,1.5-0.3,2.2c-0.2,0.6-0.5,1.2-0.8,1.6c-0.3,0.4-0.8,0.8-1.3,1c-0.5,0.2-1,0.3-1.6,0.3c-1.1,0-1.9-0.4-2.5-1.1v4.3
					h-3.3v-13H-1020.1z M-1020,824.7c0,0.4,0,0.8,0.1,1.1c0.1,0.3,0.2,0.5,0.3,0.7c0.1,0.2,0.3,0.3,0.5,0.4c0.2,0.1,0.4,0.1,0.6,0.1
					c0.5,0,0.9-0.2,1.2-0.6c0.3-0.4,0.4-1,0.4-1.8c0-0.8-0.1-1.4-0.4-1.8c-0.3-0.4-0.7-0.6-1.2-0.6c-0.2,0-0.4,0-0.6,0.1
					s-0.4,0.2-0.5,0.5c-0.3,0.4-0.4,0.9-0.4,1.6V824.7z"/>
				<path fill="#174F65" d="M-1006.1,819.6c0.6,0,1.1,0.1,1.5,0.4c0.4,0.3,0.7,0.6,1,1.1c0.4-0.5,0.8-0.9,1.3-1.1s1-0.4,1.6-0.4
					c0.9,0,1.7,0.3,2.2,0.8c0.5,0.6,0.8,1.4,0.8,2.5v6.4h-3.3v-6c0-0.4-0.1-0.7-0.2-0.8c-0.2-0.1-0.4-0.2-0.7-0.2
					c-0.2,0-0.4,0-0.5,0.1c-0.1,0-0.3,0.1-0.4,0.3c-0.1,0.1-0.2,0.2-0.3,0.4c-0.1,0.1-0.1,0.3-0.1,0.6v5.7h-3.3v-6
					c0-0.4-0.1-0.7-0.2-0.8c-0.2-0.1-0.4-0.2-0.7-0.2c-0.2,0-0.4,0-0.5,0.1c-0.1,0-0.3,0.1-0.4,0.3c-0.1,0.1-0.2,0.2-0.3,0.4
					c-0.1,0.1-0.1,0.3-0.1,0.6v5.7h-3.3v-9.5h3.2v1.1c0.3-0.4,0.7-0.8,1.1-1C-1007.2,819.7-1006.6,819.6-1006.1,819.6z"/>
				<path fill="#174F65" d="M-986.8,825.4h-6.2c0.1,0.7,0.2,1.2,0.5,1.5c0.2,0.3,0.6,0.4,1.2,0.4c0.8,0,1.3-0.3,1.5-1h3
					c-0.2,1.1-0.7,2-1.4,2.5c-0.8,0.6-1.8,0.8-3.1,0.8c-1.6,0-2.8-0.4-3.6-1.3c-0.8-0.8-1.2-2-1.2-3.6c0-0.8,0.1-1.6,0.3-2.2
					c0.2-0.6,0.5-1.2,1-1.6c0.4-0.4,0.9-0.8,1.5-1c0.6-0.2,1.3-0.3,2-0.3s1.4,0.1,2,0.3c0.6,0.2,1,0.5,1.4,1
					c0.4,0.4,0.7,0.9,0.9,1.5c0.2,0.6,0.3,1.2,0.3,2V825.4z M-991.3,821.9c-0.6,0-1,0.1-1.2,0.4c-0.3,0.3-0.4,0.7-0.5,1.2h3.2
					c0-0.6-0.2-1-0.4-1.2S-990.8,821.9-991.3,821.9z"/>
				<path fill="#174F65" d="M-981.9,819.9v1.1c0.4-0.5,0.8-0.9,1.3-1.1c0.5-0.2,1-0.3,1.6-0.3c1,0,1.7,0.3,2.3,0.9s0.8,1.4,0.8,2.6
					v6.3h-3.3v-5.8c0-0.5-0.1-0.8-0.3-1c-0.2-0.2-0.4-0.3-0.8-0.3c-0.4,0-0.8,0.1-1.1,0.4c-0.1,0.1-0.2,0.3-0.3,0.4
					c-0.1,0.2-0.1,0.4-0.1,0.7v5.5h-3.3v-9.5H-981.9z"/>
				<path fill="#174F65" d="M-973.4,822.4h-1.5v-2.5h1.5v-2.5h3.3v2.5h2.1v2.5h-2.1v3.4c0,0.4,0.1,0.7,0.3,0.9
					c0.2,0.2,0.5,0.2,0.8,0.2c0.3,0,0.6,0,0.9-0.1l0.4,2.4c-0.7,0.2-1.5,0.3-2.2,0.3c-1.2,0-2.1-0.3-2.6-0.9
					c-0.5-0.6-0.8-1.5-0.8-2.7V822.4z"/>
			</g>
		</g>
	</g>
	<g enable-background="new    ">
		<path fill="#174F65" d="M-1109,949.7h3l4.6,7.4v-7.4h3.3v12.9h-3l-4.7-7.3v7.3h-3.3V949.7z"/>
		<path fill="#174F65" d="M-1086.4,957.8c0,1.6-0.4,2.8-1.3,3.7s-2.1,1.3-3.6,1.3c-1.5,0-2.7-0.4-3.6-1.3c-0.9-0.9-1.3-2.1-1.3-3.7
			c0-1.6,0.4-2.8,1.3-3.7c0.9-0.9,2.1-1.3,3.6-1.3c1.5,0,2.7,0.4,3.6,1.3C-1086.8,955-1086.4,956.2-1086.4,957.8z M-1092.9,957.8
			c0,0.9,0.1,1.5,0.4,1.9c0.3,0.4,0.7,0.6,1.2,0.6c0.5,0,0.9-0.2,1.2-0.6c0.3-0.4,0.4-1,0.4-1.9c0-0.9-0.1-1.5-0.4-1.9
			c-0.3-0.4-0.7-0.6-1.2-0.6c-0.5,0-0.9,0.2-1.2,0.6C-1092.8,956.3-1092.9,957-1092.9,957.8z"/>
		<path fill="#174F65" d="M-1084.7,953.1h3.2v1.2c0.3-0.5,0.7-0.8,1.2-1c0.4-0.2,0.9-0.3,1.5-0.3c0.3,0,0.7,0,0.9,0.1l-0.4,2.8
			c-0.1,0-0.3-0.1-0.5-0.1c-0.2,0-0.4,0-0.5,0c-0.3,0-0.5,0-0.8,0.1c-0.3,0.1-0.5,0.2-0.7,0.3c-0.2,0.2-0.4,0.4-0.5,0.6
			c-0.1,0.3-0.2,0.6-0.2,1v4.8h-3.3V953.1z"/>
		<path fill="#174F65" d="M-1075.5,955.6h-1.5v-2.5h1.5v-2.5h3.3v2.5h2.1v2.5h-2.1v3.4c0,0.4,0.1,0.7,0.3,0.9
			c0.2,0.2,0.5,0.2,0.8,0.2c0.3,0,0.6,0,0.9-0.1l0.4,2.4c-0.7,0.2-1.5,0.3-2.2,0.3c-1.2,0-2.1-0.3-2.6-0.9c-0.5-0.6-0.8-1.5-0.8-2.7
			V955.6z"/>
		<path fill="#174F65" d="M-1065.4,949.7v4.4c0.4-0.5,0.8-0.8,1.3-1c0.5-0.2,1-0.3,1.5-0.3c1,0,1.7,0.3,2.3,0.9
			c0.5,0.6,0.8,1.4,0.8,2.6v6.3h-3.3v-5.8c0-0.5-0.1-0.8-0.3-1c-0.2-0.2-0.4-0.3-0.8-0.3c-0.4,0-0.8,0.1-1.1,0.4
			c-0.1,0.1-0.2,0.3-0.3,0.4c-0.1,0.2-0.1,0.4-0.1,0.7v5.5h-3.3v-12.9H-1065.4z"/>
		<path fill="#174F65" d="M-1046.2,949.7l4.5,12.9h-3.6l-0.7-2.5h-4.3l-0.7,2.5h-3.5l4.5-12.9H-1046.2z M-1049.5,957.3h2.6l-1.3-4.4
			L-1049.5,957.3z"/>
		<path fill="#174F65" d="M-1034.7,952.8c0.6,0,1.1,0.1,1.5,0.4c0.4,0.3,0.7,0.6,1,1.1c0.4-0.5,0.8-0.9,1.3-1.1s1-0.4,1.6-0.4
			c0.9,0,1.7,0.3,2.2,0.8c0.5,0.6,0.8,1.4,0.8,2.5v6.4h-3.3v-6c0-0.4-0.1-0.7-0.2-0.8c-0.2-0.1-0.4-0.2-0.7-0.2
			c-0.2,0-0.4,0-0.5,0.1c-0.1,0-0.3,0.1-0.4,0.3c-0.1,0.1-0.2,0.2-0.3,0.4c-0.1,0.1-0.1,0.3-0.1,0.6v5.7h-3.3v-6
			c0-0.4-0.1-0.7-0.2-0.8c-0.2-0.1-0.4-0.2-0.7-0.2c-0.2,0-0.4,0-0.5,0.1c-0.1,0-0.3,0.1-0.4,0.3c-0.1,0.1-0.2,0.2-0.3,0.4
			c-0.1,0.1-0.1,0.3-0.1,0.6v5.7h-3.3v-9.4h3.2v1.1c0.3-0.4,0.7-0.8,1.1-1C-1035.7,952.9-1035.2,952.8-1034.7,952.8z"/>
		<path fill="#174F65" d="M-1015.4,958.6h-6.2c0.1,0.7,0.2,1.2,0.5,1.5c0.2,0.3,0.6,0.4,1.2,0.4c0.8,0,1.3-0.3,1.5-1h3
			c-0.2,1.1-0.7,1.9-1.4,2.5c-0.8,0.6-1.8,0.8-3.1,0.8c-1.6,0-2.8-0.4-3.6-1.3c-0.8-0.8-1.2-2-1.2-3.6c0-0.8,0.1-1.6,0.3-2.2
			c0.2-0.6,0.5-1.2,1-1.6s0.9-0.8,1.5-1c0.6-0.2,1.3-0.3,2-0.3s1.4,0.1,2,0.3c0.6,0.2,1,0.5,1.4,1c0.4,0.4,0.7,0.9,0.9,1.5
			c0.2,0.6,0.3,1.2,0.3,2V958.6z M-1019.9,955.1c-0.6,0-1,0.1-1.2,0.4c-0.3,0.3-0.4,0.7-0.5,1.2h3.2c0-0.6-0.2-1-0.4-1.2
			S-1019.4,955.1-1019.9,955.1z"/>
		<path fill="#174F65" d="M-1013.7,953.1h3.2v1.2c0.3-0.5,0.7-0.8,1.2-1c0.4-0.2,0.9-0.3,1.5-0.3c0.3,0,0.7,0,0.9,0.1l-0.4,2.8
			c-0.1,0-0.3-0.1-0.5-0.1c-0.2,0-0.4,0-0.5,0c-0.3,0-0.5,0-0.8,0.1c-0.3,0.1-0.5,0.2-0.7,0.3c-0.2,0.2-0.4,0.4-0.5,0.6
			c-0.1,0.3-0.2,0.6-0.2,1v4.8h-3.3V953.1z"/>
		<path fill="#174F65" d="M-1002.4,949.7v2.4h-3.3v-2.4H-1002.4z M-1002.5,953.1v9.4h-3.3v-9.4H-1002.5z"/>
		<path fill="#174F65" d="M-991.6,958.9c-0.1,0.6-0.2,1.1-0.4,1.6c-0.2,0.5-0.5,0.9-0.8,1.2s-0.8,0.6-1.3,0.8
			c-0.5,0.2-1.2,0.3-1.9,0.3c-0.8,0-1.5-0.1-2.1-0.4c-0.6-0.2-1.1-0.6-1.5-1c-0.4-0.4-0.7-0.9-0.9-1.6c-0.2-0.6-0.3-1.3-0.3-2
			c0-0.8,0.1-1.5,0.3-2.1c0.2-0.6,0.5-1.2,0.9-1.6c0.4-0.4,0.9-0.8,1.5-1c0.6-0.2,1.3-0.4,2.1-0.4c0.7,0,1.3,0.1,1.8,0.3
			c0.5,0.2,0.9,0.4,1.3,0.8c0.3,0.3,0.6,0.7,0.8,1.1c0.2,0.4,0.3,0.9,0.4,1.4l-3.1,0.3c0-0.3-0.2-0.6-0.3-0.9
			c-0.2-0.2-0.5-0.4-0.9-0.4c-0.5,0-0.9,0.2-1.1,0.6c-0.2,0.4-0.4,1-0.4,1.8c0,0.8,0.1,1.3,0.3,1.8s0.6,0.6,1.1,0.6
			c0.8,0,1.2-0.4,1.3-1.3H-991.6z"/>
		<path fill="#174F65" d="M-984.6,962.6v-1c-0.4,0.4-0.8,0.7-1.3,0.9c-0.4,0.2-1,0.3-1.6,0.3c-0.4,0-0.8-0.1-1.2-0.2
			c-0.4-0.1-0.7-0.3-1-0.5c-0.3-0.2-0.5-0.5-0.7-0.9s-0.3-0.8-0.3-1.3c0-0.6,0.1-1.1,0.4-1.4c0.2-0.4,0.6-0.7,1-1
			c0.4-0.2,0.9-0.4,1.4-0.5c0.6-0.1,1.1-0.2,1.8-0.2l1.4-0.1v-0.4c0-0.5-0.1-0.8-0.3-1c-0.2-0.2-0.5-0.3-0.9-0.3
			c-0.7,0-1.2,0.3-1.3,0.9l-2.9-0.2c0.2-1,0.6-1.8,1.4-2.2c0.7-0.5,1.7-0.7,3-0.7c0.8,0,1.5,0.1,2,0.3c0.5,0.2,1,0.4,1.3,0.8
			c0.3,0.3,0.6,0.7,0.7,1.2c0.1,0.5,0.2,1,0.2,1.6v5.9H-984.6z M-984.7,958.6l-1,0.1c-0.7,0-1.1,0.2-1.4,0.3s-0.4,0.4-0.4,0.8
			s0.1,0.5,0.3,0.7c0.2,0.1,0.4,0.2,0.8,0.2c0.5,0,0.9-0.1,1.3-0.4s0.5-0.7,0.5-1.3V958.6z"/>
		<path fill="#174F65" d="M-976.5,953.1v1.1c0.4-0.5,0.8-0.9,1.3-1.1c0.5-0.2,1-0.3,1.6-0.3c1,0,1.7,0.3,2.3,0.9
			c0.5,0.6,0.8,1.4,0.8,2.6v6.3h-3.3v-5.8c0-0.5-0.1-0.8-0.3-1c-0.2-0.2-0.4-0.3-0.8-0.3c-0.4,0-0.8,0.1-1.1,0.4
			c-0.1,0.1-0.2,0.3-0.3,0.4c-0.1,0.2-0.1,0.4-0.1,0.7v5.5h-3.3v-9.4H-976.5z"/>
	</g>
	<g enable-background="new    ">
		<path fill="#174F65" d="M-1132.5,982.6v-12.9h5.1c2.1,0,3.8,0.5,4.9,1.6c1.1,1.1,1.6,2.6,1.6,4.7c0,2.1-0.6,3.7-1.7,4.9
			c-1.2,1.1-2.8,1.7-5,1.7H-1132.5z M-1129.1,979.6h1.5c1.1,0,1.8-0.3,2.3-0.9c0.5-0.6,0.7-1.5,0.7-2.6c0-1.1-0.2-2-0.7-2.6
			s-1.2-0.9-2.2-0.9h-1.6V979.6z"/>
		<path fill="#174F65" d="M-1110.1,978.6h-6.2c0.1,0.7,0.2,1.2,0.5,1.5c0.2,0.3,0.6,0.4,1.2,0.4c0.8,0,1.3-0.3,1.5-1h3
			c-0.2,1.1-0.7,1.9-1.4,2.5c-0.8,0.6-1.8,0.8-3.1,0.8c-1.6,0-2.8-0.4-3.6-1.3c-0.8-0.8-1.2-2-1.2-3.6c0-0.8,0.1-1.6,0.3-2.2
			c0.2-0.6,0.5-1.2,1-1.6s0.9-0.8,1.5-1c0.6-0.2,1.3-0.3,2-0.3s1.4,0.1,2,0.3s1,0.5,1.4,1c0.4,0.4,0.7,0.9,0.9,1.5s0.3,1.2,0.3,2
			V978.6z M-1114.7,975.1c-0.6,0-1,0.1-1.2,0.4c-0.3,0.3-0.4,0.7-0.5,1.2h3.2c0-0.6-0.2-1-0.4-1.2S-1114.2,975.1-1114.7,975.1z"/>
		<path fill="#174F65" d="M-1106.3,982.6l-3.4-9.4h3.5l1.7,6l1.7-6h3.4l-3.4,9.4H-1106.3z"/>
		<path fill="#174F65" d="M-1089.8,978.6h-6.2c0.1,0.7,0.2,1.2,0.5,1.5c0.2,0.3,0.6,0.4,1.2,0.4c0.8,0,1.3-0.3,1.5-1h3
			c-0.2,1.1-0.7,1.9-1.4,2.5c-0.8,0.6-1.8,0.8-3.1,0.8c-1.6,0-2.8-0.4-3.6-1.3c-0.8-0.8-1.2-2-1.2-3.6c0-0.8,0.1-1.6,0.3-2.2
			c0.2-0.6,0.5-1.2,1-1.6s0.9-0.8,1.5-1c0.6-0.2,1.3-0.3,2-0.3s1.4,0.1,2,0.3s1,0.5,1.4,1c0.4,0.4,0.7,0.9,0.9,1.5s0.3,1.2,0.3,2
			V978.6z M-1094.3,975.1c-0.6,0-1,0.1-1.2,0.4c-0.3,0.3-0.4,0.7-0.5,1.2h3.2c0-0.6-0.2-1-0.4-1.2S-1093.8,975.1-1094.3,975.1z"/>
		<path fill="#174F65" d="M-1084.9,969.7v12.9h-3.3v-12.9H-1084.9z"/>
		<path fill="#174F65" d="M-1073.4,977.8c0,1.6-0.4,2.8-1.3,3.7c-0.9,0.9-2.1,1.3-3.6,1.3c-1.5,0-2.7-0.4-3.6-1.3
			c-0.9-0.9-1.3-2.1-1.3-3.7c0-1.6,0.4-2.8,1.3-3.7c0.9-0.9,2.1-1.3,3.6-1.3c1.5,0,2.7,0.4,3.6,1.3
			C-1073.9,975-1073.4,976.2-1073.4,977.8z M-1079.9,977.8c0,0.9,0.1,1.5,0.4,1.9c0.3,0.4,0.7,0.6,1.2,0.6c0.5,0,0.9-0.2,1.2-0.6
			c0.3-0.4,0.4-1,0.4-1.9c0-0.9-0.1-1.5-0.4-1.9c-0.3-0.4-0.7-0.6-1.2-0.6c-0.5,0-0.9,0.2-1.2,0.6
			C-1079.8,976.3-1079.9,977-1079.9,977.8z"/>
		<path fill="#174F65" d="M-1068.6,973.1v1.1c0.7-0.9,1.6-1.3,2.8-1.3c1.2,0,2.1,0.4,2.8,1.3c0.7,0.9,1,2.1,1,3.6
			c0,0.8-0.1,1.5-0.3,2.2c-0.2,0.6-0.5,1.2-0.8,1.6s-0.8,0.8-1.3,1c-0.5,0.2-1,0.3-1.6,0.3c-1.1,0-1.9-0.4-2.5-1.1v4.3h-3.3v-13
			H-1068.6z M-1068.5,977.9c0,0.4,0,0.8,0.1,1.1c0.1,0.3,0.2,0.5,0.3,0.7c0.1,0.2,0.3,0.3,0.5,0.4c0.2,0.1,0.4,0.1,0.6,0.1
			c0.5,0,0.9-0.2,1.2-0.6c0.3-0.4,0.4-1,0.4-1.8c0-0.8-0.1-1.4-0.4-1.8s-0.7-0.6-1.2-0.6c-0.2,0-0.4,0-0.6,0.1s-0.4,0.2-0.5,0.5
			c-0.3,0.4-0.4,0.9-0.4,1.6V977.9z"/>
		<path fill="#174F65" d="M-1054.6,972.8c0.6,0,1.1,0.1,1.5,0.4c0.4,0.3,0.7,0.6,1,1.1c0.4-0.5,0.8-0.9,1.3-1.1
			c0.5-0.2,1-0.4,1.6-0.4c0.9,0,1.7,0.3,2.2,0.8c0.5,0.6,0.8,1.4,0.8,2.5v6.4h-3.3v-6c0-0.4-0.1-0.7-0.2-0.8
			c-0.2-0.1-0.4-0.2-0.7-0.2c-0.2,0-0.4,0-0.5,0.1c-0.1,0-0.3,0.1-0.4,0.3c-0.1,0.1-0.2,0.2-0.3,0.4c-0.1,0.1-0.1,0.3-0.1,0.6v5.7
			h-3.3v-6c0-0.4-0.1-0.7-0.2-0.8s-0.4-0.2-0.7-0.2c-0.2,0-0.4,0-0.5,0.1c-0.1,0-0.3,0.1-0.4,0.3c-0.1,0.1-0.2,0.2-0.3,0.4
			c-0.1,0.1-0.1,0.3-0.1,0.6v5.7h-3.3v-9.4h3.2v1.1c0.3-0.4,0.7-0.8,1.1-1C-1055.7,972.9-1055.2,972.8-1054.6,972.8z"/>
		<path fill="#174F65" d="M-1035.3,978.6h-6.2c0.1,0.7,0.2,1.2,0.5,1.5c0.2,0.3,0.6,0.4,1.2,0.4c0.8,0,1.3-0.3,1.5-1h3
			c-0.2,1.1-0.7,1.9-1.4,2.5c-0.8,0.6-1.8,0.8-3.1,0.8c-1.6,0-2.8-0.4-3.6-1.3c-0.8-0.8-1.2-2-1.2-3.6c0-0.8,0.1-1.6,0.3-2.2
			c0.2-0.6,0.5-1.2,1-1.6s0.9-0.8,1.5-1c0.6-0.2,1.3-0.3,2-0.3s1.4,0.1,2,0.3s1,0.5,1.4,1c0.4,0.4,0.7,0.9,0.9,1.5s0.3,1.2,0.3,2
			V978.6z M-1039.9,975.1c-0.6,0-1,0.1-1.2,0.4c-0.3,0.3-0.4,0.7-0.5,1.2h3.2c0-0.6-0.2-1-0.4-1.2S-1039.3,975.1-1039.9,975.1z"/>
		<path fill="#174F65" d="M-1030.5,973.1v1.1c0.4-0.5,0.8-0.9,1.3-1.1c0.5-0.2,1-0.3,1.6-0.3c1,0,1.7,0.3,2.3,0.9
			c0.5,0.6,0.8,1.4,0.8,2.6v6.3h-3.3v-5.8c0-0.5-0.1-0.8-0.3-1s-0.4-0.3-0.8-0.3c-0.4,0-0.8,0.1-1.1,0.4c-0.1,0.1-0.2,0.3-0.3,0.4
			c-0.1,0.2-0.1,0.4-0.1,0.7v5.5h-3.3v-9.4H-1030.5z"/>
		<path fill="#174F65" d="M-1021.9,975.6h-1.5v-2.5h1.5v-2.5h3.3v2.5h2.1v2.5h-2.1v3.4c0,0.4,0.1,0.7,0.3,0.9
			c0.2,0.2,0.5,0.2,0.8,0.2c0.3,0,0.6,0,0.9-0.1l0.4,2.4c-0.7,0.2-1.5,0.3-2.2,0.3c-1.2,0-2.1-0.3-2.6-0.9s-0.8-1.5-0.8-2.7V975.6z"
			/>
		<path fill="#174F65" d="M-1011,969.7h5.4c0.9,0,1.6,0.1,2.2,0.3c0.6,0.2,1.1,0.4,1.4,0.7c0.4,0.3,0.6,0.7,0.7,1.1s0.2,0.8,0.2,1.3
			c0,0.6-0.1,1.1-0.4,1.5c-0.2,0.5-0.6,0.8-1.2,1.2c0.7,0.3,1.2,0.8,1.5,1.3s0.4,1.1,0.4,1.8c0,0.5-0.1,1-0.3,1.4
			c-0.2,0.5-0.4,0.9-0.8,1.2c-0.4,0.3-0.9,0.6-1.5,0.8c-0.6,0.2-1.4,0.3-2.3,0.3h-5.4V969.7z M-1007.7,974.6h1.9
			c0.6,0,1-0.1,1.2-0.3c0.2-0.2,0.3-0.5,0.3-0.9c0-0.4-0.1-0.7-0.4-0.9c-0.3-0.2-0.7-0.3-1.3-0.3h-1.7V974.6z M-1007.7,980h1.9
			c0.7,0,1.2-0.1,1.5-0.4c0.3-0.3,0.4-0.6,0.4-1.1s-0.1-0.8-0.4-1s-0.7-0.4-1.4-0.4h-2V980z"/>
		<path fill="#174F65" d="M-993.4,982.6v-1c-0.4,0.4-0.8,0.7-1.3,0.9c-0.4,0.2-1,0.3-1.6,0.3c-0.4,0-0.8-0.1-1.2-0.2
			c-0.4-0.1-0.7-0.3-1-0.5c-0.3-0.2-0.5-0.5-0.7-0.9s-0.3-0.8-0.3-1.3c0-0.6,0.1-1.1,0.4-1.4c0.2-0.4,0.6-0.7,1-1
			c0.4-0.2,0.9-0.4,1.4-0.5c0.6-0.1,1.1-0.2,1.8-0.2l1.4-0.1v-0.4c0-0.5-0.1-0.8-0.3-1s-0.5-0.3-0.9-0.3c-0.7,0-1.2,0.3-1.3,0.9
			l-2.9-0.2c0.2-1,0.6-1.8,1.4-2.2c0.7-0.5,1.7-0.7,3-0.7c0.8,0,1.5,0.1,2,0.3c0.5,0.2,1,0.4,1.3,0.8c0.3,0.3,0.6,0.7,0.7,1.2
			c0.1,0.5,0.2,1,0.2,1.6v5.9H-993.4z M-993.6,978.6l-1,0.1c-0.7,0-1.1,0.2-1.4,0.3c-0.2,0.2-0.4,0.4-0.4,0.8s0.1,0.5,0.3,0.7
			c0.2,0.1,0.4,0.2,0.8,0.2c0.5,0,0.9-0.1,1.3-0.4s0.5-0.7,0.5-1.3V978.6z"/>
		<path fill="#174F65" d="M-985.3,973.1v1.1c0.4-0.5,0.8-0.9,1.3-1.1c0.5-0.2,1-0.3,1.6-0.3c1,0,1.7,0.3,2.3,0.9
			c0.5,0.6,0.8,1.4,0.8,2.6v6.3h-3.3v-5.8c0-0.5-0.1-0.8-0.3-1s-0.4-0.3-0.8-0.3c-0.4,0-0.8,0.1-1.1,0.4c-0.1,0.1-0.2,0.3-0.3,0.4
			c-0.1,0.2-0.1,0.4-0.1,0.7v5.5h-3.3v-9.4H-985.3z"/>
		<path fill="#174F65" d="M-973.3,978.2l-1.1,1v3.3h-3.2v-12.9h3.2v6.3l3-2.9h3.7l-3.3,3.2l3.6,6.3h-3.4L-973.3,978.2z"/>
	</g>
	<g enable-background="new    ">
		<path fill="#174F65" d="M-1073.9,901.6h-3.7v-2.9h10.9v2.9h-3.7v9.9h-3.5V901.6z"/>
		<path fill="#174F65" d="M-1058.3,907.5h-6.2c0.1,0.7,0.2,1.2,0.5,1.5c0.2,0.3,0.6,0.4,1.2,0.4c0.8,0,1.3-0.3,1.5-1h3
			c-0.2,1.1-0.7,2-1.4,2.5s-1.8,0.8-3.1,0.8c-1.6,0-2.8-0.4-3.6-1.3c-0.8-0.8-1.2-2-1.2-3.6c0-0.8,0.1-1.6,0.3-2.2
			c0.2-0.6,0.5-1.2,1-1.6c0.4-0.4,0.9-0.8,1.5-1c0.6-0.2,1.3-0.3,2-0.3s1.4,0.1,2,0.3c0.6,0.2,1,0.5,1.4,1c0.4,0.4,0.7,0.9,0.9,1.5
			s0.3,1.2,0.3,2V907.5z M-1062.8,904c-0.6,0-1,0.1-1.2,0.4s-0.4,0.7-0.5,1.2h3.2c0-0.6-0.2-1-0.4-1.2S-1062.3,904-1062.8,904z"/>
		<path fill="#174F65" d="M-1051.1,906.5l3.2,5h-3.6l-1.6-2.6l-1.6,2.6h-3.4l3.3-4.8l-3-4.6h3.6l1.3,2.3l1.4-2.3h3.3L-1051.1,906.5z
			"/>
		<path fill="#174F65" d="M-1041.4,911.5v-1c-0.4,0.4-0.8,0.7-1.3,0.9c-0.4,0.2-1,0.3-1.6,0.3c-0.4,0-0.8-0.1-1.2-0.2
			c-0.4-0.1-0.7-0.3-1-0.5c-0.3-0.2-0.5-0.5-0.7-0.9c-0.2-0.4-0.3-0.8-0.3-1.3c0-0.6,0.1-1.1,0.4-1.4s0.6-0.7,1-1
			c0.4-0.2,0.9-0.4,1.4-0.5c0.6-0.1,1.1-0.2,1.8-0.2l1.4-0.1v-0.4c0-0.5-0.1-0.8-0.3-1c-0.2-0.2-0.5-0.3-0.9-0.3
			c-0.7,0-1.2,0.3-1.3,0.9l-2.9-0.2c0.2-1,0.6-1.8,1.4-2.2c0.7-0.5,1.7-0.7,3-0.7c0.8,0,1.5,0.1,2,0.3c0.5,0.2,1,0.4,1.3,0.8
			c0.3,0.3,0.6,0.7,0.7,1.2c0.1,0.5,0.2,1,0.2,1.6v5.9H-1041.4z M-1041.5,907.5l-1,0.1c-0.7,0-1.1,0.2-1.4,0.3
			c-0.2,0.2-0.4,0.4-0.4,0.8c0,0.3,0.1,0.5,0.3,0.7c0.2,0.1,0.4,0.2,0.8,0.2c0.5,0,0.9-0.1,1.3-0.4c0.3-0.3,0.5-0.7,0.5-1.3V907.5z"
			/>
		<path fill="#174F65" d="M-1034,908.5c0.1,0.4,0.2,0.6,0.5,0.8s0.6,0.2,1,0.2c0.4,0,0.7-0.1,0.9-0.2c0.2-0.1,0.3-0.3,0.3-0.6
			c0-0.2-0.1-0.3-0.2-0.5s-0.4-0.2-0.7-0.3l-1.1-0.2c-1.2-0.2-2.1-0.5-2.7-1c-0.6-0.5-0.9-1.1-0.9-1.9c0-1,0.4-1.8,1.1-2.3
			c0.7-0.5,1.8-0.8,3.1-0.8c0.8,0,1.4,0.1,1.9,0.2s1,0.4,1.3,0.6c0.3,0.3,0.6,0.6,0.8,0.9c0.2,0.3,0.3,0.7,0.4,1.1l-3,0.3
			c-0.1-0.3-0.2-0.6-0.4-0.7c-0.2-0.2-0.5-0.2-1-0.2c-0.4,0-0.7,0.1-0.9,0.2c-0.2,0.1-0.3,0.3-0.3,0.5c0,0.2,0.1,0.3,0.2,0.5
			c0.1,0.1,0.4,0.2,0.9,0.3l1.1,0.2c0.7,0.1,1.2,0.3,1.7,0.5c0.5,0.2,0.8,0.4,1.1,0.6s0.5,0.5,0.6,0.8c0.1,0.3,0.2,0.7,0.2,1.1
			c0,1.1-0.4,1.9-1.1,2.4c-0.7,0.5-1.8,0.8-3.2,0.8c-0.6,0-1.1-0.1-1.7-0.2s-1-0.3-1.4-0.5c-0.4-0.3-0.8-0.6-1-1s-0.4-1-0.5-1.6
			H-1034z"/>
		<path fill="#174F65" d="M-1011.4,907l1.6-8.4h3.6l-3.3,12.9h-3.5l-1.9-8.2l-1.8,8.2h-3.4l-3.4-12.9h3.7l1.7,8.4l1.8-8.3h3.2
			L-1011.4,907z"/>
		<path fill="#174F65" d="M-1000.4,911.5v-1c-0.4,0.4-0.8,0.7-1.3,0.9c-0.4,0.2-1,0.3-1.6,0.3c-0.4,0-0.8-0.1-1.2-0.2
			c-0.4-0.1-0.7-0.3-1-0.5c-0.3-0.2-0.5-0.5-0.7-0.9c-0.2-0.4-0.3-0.8-0.3-1.3c0-0.6,0.1-1.1,0.4-1.4s0.6-0.7,1-1
			c0.4-0.2,0.9-0.4,1.4-0.5c0.6-0.1,1.1-0.2,1.8-0.2l1.4-0.1v-0.4c0-0.5-0.1-0.8-0.3-1c-0.2-0.2-0.5-0.3-0.9-0.3
			c-0.7,0-1.2,0.3-1.3,0.9l-2.9-0.2c0.2-1,0.6-1.8,1.4-2.2c0.7-0.5,1.7-0.7,3-0.7c0.8,0,1.5,0.1,2,0.3c0.5,0.2,1,0.4,1.3,0.8
			c0.3,0.3,0.6,0.7,0.7,1.2c0.1,0.5,0.2,1,0.2,1.6v5.9H-1000.4z M-1000.5,907.5l-1,0.1c-0.7,0-1.1,0.2-1.4,0.3
			c-0.2,0.2-0.4,0.4-0.4,0.8c0,0.3,0.1,0.5,0.3,0.7c0.2,0.1,0.4,0.2,0.8,0.2c0.5,0,0.9-0.1,1.3-0.4c0.3-0.3,0.5-0.7,0.5-1.3V907.5z"
			/>
		<path fill="#174F65" d="M-994.9,904.6h-1.5V902h1.5v-2.5h3.3v2.5h2.1v2.5h-2.1v3.4c0,0.4,0.1,0.7,0.3,0.9c0.2,0.2,0.5,0.2,0.8,0.2
			c0.3,0,0.6,0,0.9-0.1l0.4,2.4c-0.7,0.2-1.5,0.3-2.2,0.3c-1.2,0-2.1-0.3-2.6-0.9s-0.8-1.5-0.8-2.7V904.6z"/>
		<path fill="#174F65" d="M-979,907.5h-6.2c0.1,0.7,0.2,1.2,0.5,1.5c0.2,0.3,0.6,0.4,1.2,0.4c0.8,0,1.3-0.3,1.5-1h3
			c-0.2,1.1-0.7,2-1.4,2.5s-1.8,0.8-3.1,0.8c-1.6,0-2.8-0.4-3.6-1.3c-0.8-0.8-1.2-2-1.2-3.6c0-0.8,0.1-1.6,0.3-2.2
			c0.2-0.6,0.5-1.2,1-1.6c0.4-0.4,0.9-0.8,1.5-1c0.6-0.2,1.3-0.3,2-0.3s1.4,0.1,2,0.3c0.6,0.2,1,0.5,1.4,1c0.4,0.4,0.7,0.9,0.9,1.5
			s0.3,1.2,0.3,2V907.5z M-983.6,904c-0.6,0-1,0.1-1.2,0.4s-0.4,0.7-0.5,1.2h3.2c0-0.6-0.2-1-0.4-1.2S-983.1,904-983.6,904z"/>
		<path fill="#174F65" d="M-977.4,902h3.2v1.2c0.3-0.5,0.7-0.8,1.2-1s0.9-0.3,1.5-0.3c0.3,0,0.7,0,0.9,0.1l-0.4,2.8
			c-0.1,0-0.3-0.1-0.5-0.1c-0.2,0-0.4,0-0.5,0c-0.3,0-0.5,0-0.8,0.1c-0.3,0.1-0.5,0.2-0.7,0.3c-0.2,0.2-0.4,0.4-0.5,0.6
			s-0.2,0.6-0.2,1v4.8h-3.3V902z"/>
	</g>
	<g enable-background="new    ">
		<path fill="#174F65" d="M-1141,931.5v-12.9h5.1c2.1,0,3.8,0.5,4.9,1.6c1.1,1.1,1.6,2.6,1.6,4.7c0,2.1-0.6,3.7-1.7,4.9
			s-2.8,1.7-5,1.7H-1141z M-1137.6,928.6h1.5c1.1,0,1.8-0.3,2.3-0.9s0.7-1.5,0.7-2.6s-0.2-2-0.7-2.6s-1.2-0.9-2.2-0.9h-1.6V928.6z"
			/>
		<path fill="#174F65" d="M-1118.6,927.5h-6.2c0.1,0.7,0.2,1.2,0.5,1.5c0.2,0.3,0.6,0.4,1.2,0.4c0.8,0,1.3-0.3,1.5-1h3
			c-0.2,1.1-0.7,2-1.4,2.5s-1.8,0.8-3.1,0.8c-1.6,0-2.8-0.4-3.6-1.3c-0.8-0.8-1.2-2-1.2-3.6c0-0.8,0.1-1.6,0.3-2.2
			c0.2-0.6,0.5-1.2,1-1.6c0.4-0.4,0.9-0.8,1.5-1c0.6-0.2,1.3-0.3,2-0.3s1.4,0.1,2,0.3c0.6,0.2,1,0.5,1.4,1c0.4,0.4,0.7,0.9,0.9,1.5
			s0.3,1.2,0.3,2V927.5z M-1123.2,924c-0.6,0-1,0.1-1.2,0.4s-0.4,0.7-0.5,1.2h3.2c0-0.6-0.2-1-0.4-1.2S-1122.7,924-1123.2,924z"/>
		<path fill="#174F65" d="M-1114.8,931.5l-3.4-9.5h3.5l1.7,6l1.7-6h3.4l-3.4,9.5H-1114.8z"/>
		<path fill="#174F65" d="M-1098.3,927.5h-6.2c0.1,0.7,0.2,1.2,0.5,1.5c0.2,0.3,0.6,0.4,1.2,0.4c0.8,0,1.3-0.3,1.5-1h3
			c-0.2,1.1-0.7,2-1.4,2.5s-1.8,0.8-3.1,0.8c-1.6,0-2.8-0.4-3.6-1.3c-0.8-0.8-1.2-2-1.2-3.6c0-0.8,0.1-1.6,0.3-2.2
			c0.2-0.6,0.5-1.2,1-1.6c0.4-0.4,0.9-0.8,1.5-1c0.6-0.2,1.3-0.3,2-0.3s1.4,0.1,2,0.3c0.6,0.2,1,0.5,1.4,1c0.4,0.4,0.7,0.9,0.9,1.5
			s0.3,1.2,0.3,2V927.5z M-1102.9,924c-0.6,0-1,0.1-1.2,0.4s-0.4,0.7-0.5,1.2h3.2c0-0.6-0.2-1-0.4-1.2S-1102.3,924-1102.9,924z"/>
		<path fill="#174F65" d="M-1093.4,918.6v12.9h-3.3v-12.9H-1093.4z"/>
		<path fill="#174F65" d="M-1082,926.7c0,1.6-0.4,2.8-1.3,3.7c-0.9,0.9-2.1,1.3-3.6,1.3c-1.5,0-2.7-0.4-3.6-1.3s-1.3-2.1-1.3-3.7
			c0-1.6,0.4-2.8,1.3-3.7s2.1-1.3,3.6-1.3c1.5,0,2.7,0.4,3.6,1.3S-1082,925.1-1082,926.7z M-1088.5,926.7c0,0.9,0.1,1.5,0.4,1.9
			c0.3,0.4,0.7,0.6,1.2,0.6c0.5,0,0.9-0.2,1.2-0.6c0.3-0.4,0.4-1,0.4-1.9c0-0.9-0.1-1.5-0.4-1.9c-0.3-0.4-0.7-0.6-1.2-0.6
			c-0.5,0-0.9,0.2-1.2,0.6C-1088.3,925.3-1088.5,925.9-1088.5,926.7z"/>
		<path fill="#174F65" d="M-1077.1,922v1.1c0.7-0.9,1.6-1.3,2.8-1.3c1.2,0,2.1,0.4,2.8,1.3c0.7,0.9,1,2.1,1,3.6
			c0,0.8-0.1,1.5-0.3,2.2c-0.2,0.6-0.5,1.2-0.8,1.6c-0.3,0.4-0.8,0.8-1.3,1c-0.5,0.2-1,0.3-1.6,0.3c-1.1,0-1.9-0.4-2.5-1.1v4.3h-3.3
			v-13H-1077.1z M-1077,926.9c0,0.4,0,0.8,0.1,1.1c0.1,0.3,0.2,0.5,0.3,0.7c0.1,0.2,0.3,0.3,0.5,0.4c0.2,0.1,0.4,0.1,0.6,0.1
			c0.5,0,0.9-0.2,1.2-0.6c0.3-0.4,0.4-1,0.4-1.8c0-0.8-0.1-1.4-0.4-1.8c-0.3-0.4-0.7-0.6-1.2-0.6c-0.2,0-0.4,0-0.6,0.1
			s-0.4,0.2-0.5,0.5c-0.3,0.4-0.4,0.9-0.4,1.6V926.9z"/>
		<path fill="#174F65" d="M-1063.1,921.7c0.6,0,1.1,0.1,1.5,0.4c0.4,0.3,0.7,0.6,1,1.1c0.4-0.5,0.8-0.9,1.3-1.1
			c0.5-0.2,1-0.4,1.6-0.4c0.9,0,1.7,0.3,2.2,0.8c0.5,0.6,0.8,1.4,0.8,2.5v6.4h-3.3v-6c0-0.4-0.1-0.7-0.2-0.8
			c-0.2-0.1-0.4-0.2-0.7-0.2c-0.2,0-0.4,0-0.5,0.1c-0.1,0-0.3,0.1-0.4,0.3c-0.1,0.1-0.2,0.2-0.3,0.4c-0.1,0.1-0.1,0.3-0.1,0.6v5.7
			h-3.3v-6c0-0.4-0.1-0.7-0.2-0.8c-0.2-0.1-0.4-0.2-0.7-0.2c-0.2,0-0.4,0-0.5,0.1c-0.1,0-0.3,0.1-0.4,0.3c-0.1,0.1-0.2,0.2-0.3,0.4
			c-0.1,0.1-0.1,0.3-0.1,0.6v5.7h-3.3V922h3.2v1.1c0.3-0.4,0.7-0.8,1.1-1C-1064.2,921.9-1063.7,921.7-1063.1,921.7z"/>
		<path fill="#174F65" d="M-1043.8,927.5h-6.2c0.1,0.7,0.2,1.2,0.5,1.5c0.2,0.3,0.6,0.4,1.2,0.4c0.8,0,1.3-0.3,1.5-1h3
			c-0.2,1.1-0.7,2-1.4,2.5s-1.8,0.8-3.1,0.8c-1.6,0-2.8-0.4-3.6-1.3c-0.8-0.8-1.2-2-1.2-3.6c0-0.8,0.1-1.6,0.3-2.2
			c0.2-0.6,0.5-1.2,1-1.6c0.4-0.4,0.9-0.8,1.5-1c0.6-0.2,1.3-0.3,2-0.3s1.4,0.1,2,0.3c0.6,0.2,1,0.5,1.4,1c0.4,0.4,0.7,0.9,0.9,1.5
			s0.3,1.2,0.3,2V927.5z M-1048.4,924c-0.6,0-1,0.1-1.2,0.4s-0.4,0.7-0.5,1.2h3.2c0-0.6-0.2-1-0.4-1.2S-1047.9,924-1048.4,924z"/>
		<path fill="#174F65" d="M-1039,922v1.1c0.4-0.5,0.8-0.9,1.3-1.1s1-0.3,1.6-0.3c1,0,1.7,0.3,2.3,0.9c0.5,0.6,0.8,1.4,0.8,2.6v6.3
			h-3.3v-5.8c0-0.5-0.1-0.8-0.3-1s-0.4-0.3-0.8-0.3c-0.4,0-0.8,0.1-1.1,0.4c-0.1,0.1-0.2,0.3-0.3,0.4c-0.1,0.2-0.1,0.4-0.1,0.7v5.5
			h-3.3V922H-1039z"/>
		<path fill="#174F65" d="M-1030.4,924.6h-1.5V922h1.5v-2.5h3.3v2.5h2.1v2.5h-2.1v3.4c0,0.4,0.1,0.7,0.3,0.9
			c0.2,0.2,0.5,0.2,0.8,0.2c0.3,0,0.6,0,0.9-0.1l0.4,2.4c-0.7,0.2-1.5,0.3-2.2,0.3c-1.2,0-2.1-0.3-2.6-0.9s-0.8-1.5-0.8-2.7V924.6z"
			/>
		<path fill="#174F65" d="M-1019.5,918.6h5.4c0.9,0,1.6,0.1,2.2,0.3c0.6,0.2,1.1,0.4,1.4,0.7s0.6,0.7,0.7,1.1
			c0.1,0.4,0.2,0.8,0.2,1.3c0,0.6-0.1,1.1-0.4,1.5c-0.2,0.5-0.6,0.8-1.2,1.2c0.7,0.3,1.2,0.8,1.5,1.3s0.4,1.1,0.4,1.8
			c0,0.5-0.1,1-0.3,1.4c-0.2,0.5-0.4,0.9-0.8,1.2c-0.4,0.3-0.9,0.6-1.5,0.8s-1.4,0.3-2.3,0.3h-5.4V918.6z M-1016.3,923.6h1.9
			c0.6,0,1-0.1,1.2-0.3s0.3-0.5,0.3-0.9c0-0.4-0.1-0.7-0.4-0.9c-0.3-0.2-0.7-0.3-1.3-0.3h-1.7V923.6z M-1016.3,928.9h1.9
			c0.7,0,1.2-0.1,1.5-0.4c0.3-0.3,0.4-0.6,0.4-1.1c0-0.4-0.1-0.8-0.4-1c-0.3-0.2-0.7-0.4-1.4-0.4h-2V928.9z"/>
		<path fill="#174F65" d="M-998,926.7c0,1.6-0.4,2.8-1.3,3.7c-0.9,0.9-2.1,1.3-3.6,1.3c-1.5,0-2.7-0.4-3.6-1.3s-1.3-2.1-1.3-3.7
			c0-1.6,0.4-2.8,1.3-3.7s2.1-1.3,3.6-1.3c1.5,0,2.7,0.4,3.6,1.3S-998,925.1-998,926.7z M-1004.5,926.7c0,0.9,0.1,1.5,0.4,1.9
			c0.3,0.4,0.7,0.6,1.2,0.6c0.5,0,0.9-0.2,1.2-0.6c0.3-0.4,0.4-1,0.4-1.9c0-0.9-0.1-1.5-0.4-1.9c-0.3-0.4-0.7-0.6-1.2-0.6
			c-0.5,0-0.9,0.2-1.2,0.6C-1004.4,925.3-1004.5,925.9-1004.5,926.7z"/>
		<path fill="#174F65" d="M-990.8,931.5v-1c-0.4,0.4-0.8,0.7-1.3,0.9c-0.4,0.2-1,0.3-1.6,0.3c-0.4,0-0.8-0.1-1.2-0.2
			c-0.4-0.1-0.7-0.3-1-0.5c-0.3-0.2-0.5-0.5-0.7-0.9c-0.2-0.4-0.3-0.8-0.3-1.3c0-0.6,0.1-1.1,0.4-1.4s0.6-0.7,1-1
			c0.4-0.2,0.9-0.4,1.4-0.5c0.6-0.1,1.1-0.2,1.8-0.2l1.4-0.1v-0.4c0-0.5-0.1-0.8-0.3-1c-0.2-0.2-0.5-0.3-0.9-0.3
			c-0.7,0-1.2,0.3-1.3,0.9l-2.9-0.2c0.2-1,0.6-1.8,1.4-2.2c0.7-0.5,1.7-0.7,3-0.7c0.8,0,1.5,0.1,2,0.3c0.5,0.2,1,0.4,1.3,0.8
			c0.3,0.3,0.6,0.7,0.7,1.2c0.1,0.5,0.2,1,0.2,1.6v5.9H-990.8z M-990.9,927.5l-1,0.1c-0.7,0-1.1,0.2-1.4,0.3
			c-0.2,0.2-0.4,0.4-0.4,0.8c0,0.3,0.1,0.5,0.3,0.7c0.2,0.1,0.4,0.2,0.8,0.2c0.5,0,0.9-0.1,1.3-0.4c0.3-0.3,0.5-0.7,0.5-1.3V927.5z"
			/>
		<path fill="#174F65" d="M-985.9,922h3.2v1.2c0.3-0.5,0.7-0.8,1.2-1s0.9-0.3,1.5-0.3c0.3,0,0.7,0,0.9,0.1l-0.4,2.8
			c-0.1,0-0.3-0.1-0.5-0.1c-0.2,0-0.4,0-0.5,0c-0.3,0-0.5,0-0.8,0.1c-0.3,0.1-0.5,0.2-0.7,0.3c-0.2,0.2-0.4,0.4-0.5,0.6
			s-0.2,0.6-0.2,1v4.8h-3.3V922z"/>
		<path fill="#174F65" d="M-972,931.5v-1.1c-0.7,0.9-1.6,1.3-2.8,1.3c-1.2,0-2.1-0.4-2.8-1.3c-0.7-0.9-1-2.1-1-3.6
			c0-0.8,0.1-1.5,0.3-2.2c0.2-0.6,0.5-1.2,0.8-1.6c0.3-0.4,0.8-0.8,1.3-1c0.5-0.2,1-0.3,1.6-0.3c1.1,0,1.9,0.4,2.5,1.1v-4.2h3.3
			v12.9H-972z M-972.1,926.6c0-0.4,0-0.8-0.1-1.1s-0.2-0.5-0.3-0.7c-0.1-0.2-0.3-0.3-0.5-0.4c-0.2-0.1-0.4-0.1-0.6-0.1
			c-0.5,0-0.9,0.2-1.2,0.5c-0.3,0.4-0.4,1-0.4,1.9c0,0.9,0.1,1.5,0.4,1.9c0.3,0.4,0.7,0.5,1.2,0.5c0.2,0,0.4,0,0.6-0.1
			c0.2-0.1,0.4-0.2,0.5-0.5c0.3-0.4,0.4-0.9,0.4-1.6V926.6z"/>
	</g>
	<g enable-background="new    ">
		<path fill="#174F65" d="M-1105.5,860.7c-0.9,0-1.6-0.1-2.3-0.3s-1.2-0.6-1.7-1s-0.8-1-1.1-1.8s-0.4-1.6-0.4-2.6v-7.5h3.5v7.6
			c0,0.9,0.2,1.5,0.5,1.9c0.3,0.4,0.8,0.6,1.5,0.6s1.2-0.2,1.5-0.6c0.3-0.4,0.4-1.1,0.4-1.9v-7.6h3.5v7.5c0,1-0.1,1.9-0.4,2.6
			s-0.6,1.3-1.1,1.8c-0.5,0.5-1,0.8-1.7,1S-1104.6,860.7-1105.5,860.7z"/>
		<path fill="#174F65" d="M-1098.7,857h3.1v3.4h-3.1V857z"/>
		<path fill="#174F65" d="M-1090.9,856.2c0.1,0.6,0.3,1,0.7,1.3s0.9,0.4,1.6,0.4c0.6,0,1.1-0.1,1.4-0.3c0.3-0.2,0.5-0.5,0.5-0.9
			c0-0.3-0.1-0.5-0.3-0.7c-0.2-0.2-0.6-0.4-1.1-0.5l-1.7-0.3c-1.4-0.3-2.5-0.7-3.2-1.3c-0.7-0.6-1-1.5-1-2.6c0-1.3,0.5-2.3,1.4-3
			c0.9-0.7,2.2-1,3.8-1c0.9,0,1.7,0.1,2.4,0.3c0.7,0.2,1.2,0.5,1.6,0.9c0.4,0.4,0.7,0.8,1,1.3c0.2,0.5,0.4,1,0.4,1.5l-3.3,0.3
			c-0.1-0.5-0.3-0.9-0.6-1.2c-0.3-0.3-0.8-0.4-1.4-0.4c-0.6,0-1,0.1-1.3,0.3c-0.3,0.2-0.4,0.5-0.4,0.8c0,0.3,0.1,0.5,0.3,0.7
			c0.2,0.2,0.6,0.3,1.1,0.4l1.7,0.3c1.5,0.3,2.6,0.8,3.2,1.4c0.6,0.7,1,1.5,1,2.5c0,0.6-0.1,1.2-0.3,1.7c-0.2,0.5-0.5,1-1,1.3
			c-0.4,0.4-1,0.7-1.7,0.9c-0.7,0.2-1.5,0.3-2.4,0.3c-3.6,0-5.4-1.5-5.6-4.6H-1090.9z"/>
		<path fill="#174F65" d="M-1081.8,857h3.1v3.4h-3.1V857z"/>
		<path fill="#174F65" d="M-1072.8,860.4v-12.9h5.1c2.1,0,3.8,0.5,4.9,1.6c1.1,1.1,1.6,2.6,1.6,4.7c0,2.1-0.6,3.7-1.7,4.9
			s-2.8,1.7-5,1.7H-1072.8z M-1069.3,857.5h1.5c1.1,0,1.8-0.3,2.3-0.9s0.7-1.5,0.7-2.6s-0.2-2-0.7-2.6s-1.2-0.9-2.2-0.9h-1.6V857.5z
			"/>
		<path fill="#174F65" d="M-1050.4,856.4h-6.2c0.1,0.7,0.2,1.2,0.5,1.5c0.2,0.3,0.6,0.4,1.2,0.4c0.8,0,1.3-0.3,1.5-1h3
			c-0.2,1.1-0.7,2-1.4,2.5c-0.8,0.6-1.8,0.8-3.1,0.8c-1.6,0-2.8-0.4-3.6-1.3c-0.8-0.8-1.2-2-1.2-3.6c0-0.8,0.1-1.6,0.3-2.2
			c0.2-0.6,0.5-1.2,1-1.6c0.4-0.4,0.9-0.8,1.5-1c0.6-0.2,1.3-0.3,2-0.3s1.4,0.1,2,0.3c0.6,0.2,1,0.5,1.4,1c0.4,0.4,0.7,0.9,0.9,1.5
			c0.2,0.6,0.3,1.2,0.3,2V856.4z M-1054.9,853c-0.6,0-1,0.1-1.2,0.4c-0.3,0.3-0.4,0.7-0.5,1.2h3.2c0-0.6-0.2-1-0.4-1.2
			S-1054.4,853-1054.9,853z"/>
		<path fill="#174F65" d="M-1045.5,850.9v1.1c0.7-0.9,1.6-1.3,2.8-1.3c1.2,0,2.1,0.4,2.8,1.3c0.7,0.9,1,2.1,1,3.6
			c0,0.8-0.1,1.5-0.3,2.2c-0.2,0.6-0.5,1.2-0.8,1.6c-0.3,0.4-0.8,0.8-1.3,1c-0.5,0.2-1,0.3-1.6,0.3c-1.1,0-1.9-0.4-2.5-1.1v4.3h-3.3
			v-13H-1045.5z M-1045.5,855.8c0,0.4,0,0.8,0.1,1.1c0.1,0.3,0.2,0.5,0.3,0.7c0.1,0.2,0.3,0.3,0.5,0.4c0.2,0.1,0.4,0.1,0.6,0.1
			c0.5,0,0.9-0.2,1.2-0.6c0.3-0.4,0.4-1,0.4-1.8c0-0.8-0.1-1.4-0.4-1.8c-0.3-0.4-0.7-0.6-1.2-0.6c-0.2,0-0.4,0-0.6,0.1
			s-0.4,0.2-0.5,0.5c-0.3,0.4-0.4,0.9-0.4,1.6V855.8z"/>
		<path fill="#174F65" d="M-1031.8,860.4v-1c-0.4,0.4-0.8,0.7-1.3,0.9s-1,0.3-1.6,0.3c-0.4,0-0.8-0.1-1.2-0.2
			c-0.4-0.1-0.7-0.3-1-0.5c-0.3-0.2-0.5-0.5-0.7-0.9c-0.2-0.4-0.3-0.8-0.3-1.3c0-0.6,0.1-1.1,0.4-1.4c0.2-0.4,0.6-0.7,1-1
			s0.9-0.4,1.4-0.5c0.6-0.1,1.1-0.2,1.8-0.2l1.4-0.1v-0.4c0-0.5-0.1-0.8-0.3-1c-0.2-0.2-0.5-0.3-0.9-0.3c-0.7,0-1.2,0.3-1.3,0.9
			l-2.9-0.2c0.2-1,0.6-1.8,1.3-2.2c0.7-0.5,1.7-0.7,3-0.7c0.8,0,1.5,0.1,2,0.3c0.5,0.2,1,0.4,1.3,0.8s0.6,0.7,0.7,1.2
			c0.1,0.5,0.2,1,0.2,1.6v5.9H-1031.8z M-1031.9,856.4l-1,0.1c-0.7,0-1.1,0.2-1.4,0.3c-0.2,0.2-0.4,0.4-0.4,0.8
			c0,0.3,0.1,0.5,0.3,0.7c0.2,0.1,0.4,0.2,0.8,0.2c0.5,0,0.9-0.1,1.3-0.4c0.3-0.3,0.5-0.7,0.5-1.3V856.4z"/>
		<path fill="#174F65" d="M-1026.8,851h3.2v1.2c0.3-0.5,0.7-0.8,1.2-1c0.4-0.2,0.9-0.3,1.5-0.3c0.3,0,0.7,0,0.9,0.1l-0.4,2.8
			c-0.1,0-0.3-0.1-0.5-0.1c-0.2,0-0.4,0-0.5,0c-0.3,0-0.5,0-0.8,0.1c-0.3,0.1-0.5,0.2-0.7,0.3c-0.2,0.2-0.4,0.4-0.5,0.6
			c-0.1,0.3-0.2,0.6-0.2,1v4.8h-3.3V851z"/>
		<path fill="#174F65" d="M-1017.6,853.5h-1.5V851h1.5v-2.5h3.3v2.5h2.1v2.5h-2.1v3.4c0,0.4,0.1,0.7,0.3,0.9
			c0.2,0.2,0.5,0.2,0.8,0.2c0.3,0,0.6,0,0.9-0.1l0.4,2.4c-0.7,0.2-1.5,0.3-2.2,0.3c-1.2,0-2.1-0.3-2.6-0.9c-0.5-0.6-0.8-1.5-0.8-2.7
			V853.5z"/>
		<path fill="#174F65" d="M-1005,850.7c0.6,0,1.1,0.1,1.5,0.4c0.4,0.3,0.7,0.6,1,1.1c0.4-0.5,0.8-0.9,1.3-1.1s1-0.4,1.6-0.4
			c0.9,0,1.7,0.3,2.2,0.8c0.5,0.6,0.8,1.4,0.8,2.5v6.4h-3.3v-6c0-0.4-0.1-0.7-0.2-0.8c-0.2-0.1-0.4-0.2-0.7-0.2
			c-0.2,0-0.4,0-0.5,0.1c-0.1,0-0.3,0.1-0.4,0.3c-0.1,0.1-0.2,0.2-0.3,0.4c-0.1,0.1-0.1,0.3-0.1,0.6v5.7h-3.3v-6
			c0-0.4-0.1-0.7-0.2-0.8c-0.2-0.1-0.4-0.2-0.7-0.2c-0.2,0-0.4,0-0.5,0.1c-0.1,0-0.3,0.1-0.4,0.3c-0.1,0.1-0.2,0.2-0.3,0.4
			c-0.1,0.1-0.1,0.3-0.1,0.6v5.7h-3.3V851h3.2v1.1c0.3-0.4,0.7-0.8,1.1-1C-1006.1,850.8-1005.5,850.7-1005,850.7z"/>
		<path fill="#174F65" d="M-985.7,856.4h-6.2c0.1,0.7,0.2,1.2,0.5,1.5c0.2,0.3,0.6,0.4,1.2,0.4c0.8,0,1.3-0.3,1.5-1h3
			c-0.2,1.1-0.7,2-1.4,2.5c-0.8,0.6-1.8,0.8-3.1,0.8c-1.6,0-2.8-0.4-3.6-1.3c-0.8-0.8-1.2-2-1.2-3.6c0-0.8,0.1-1.6,0.3-2.2
			c0.2-0.6,0.5-1.2,1-1.6c0.4-0.4,0.9-0.8,1.5-1c0.6-0.2,1.3-0.3,2-0.3s1.4,0.1,2,0.3c0.6,0.2,1,0.5,1.4,1c0.4,0.4,0.7,0.9,0.9,1.5
			c0.2,0.6,0.3,1.2,0.3,2V856.4z M-990.2,853c-0.6,0-1,0.1-1.2,0.4c-0.3,0.3-0.4,0.7-0.5,1.2h3.2c0-0.6-0.2-1-0.4-1.2
			S-989.7,853-990.2,853z"/>
		<path fill="#174F65" d="M-980.8,851v1.1c0.4-0.5,0.8-0.9,1.3-1.1c0.5-0.2,1-0.3,1.6-0.3c1,0,1.7,0.3,2.3,0.9
			c0.5,0.6,0.8,1.4,0.8,2.6v6.3h-3.3v-5.8c0-0.5-0.1-0.8-0.3-1c-0.2-0.2-0.4-0.3-0.8-0.3c-0.4,0-0.8,0.1-1.1,0.4
			c-0.1,0.1-0.2,0.3-0.3,0.4c-0.1,0.2-0.1,0.4-0.1,0.7v5.5h-3.3V851H-980.8z"/>
		<path fill="#174F65" d="M-972.3,853.5h-1.5V851h1.5v-2.5h3.3v2.5h2.1v2.5h-2.1v3.4c0,0.4,0.1,0.7,0.3,0.9c0.2,0.2,0.5,0.2,0.8,0.2
			c0.3,0,0.6,0,0.9-0.1l0.4,2.4c-0.7,0.2-1.5,0.3-2.2,0.3c-1.2,0-2.1-0.3-2.6-0.9c-0.5-0.6-0.8-1.5-0.8-2.7V853.5z"/>
	</g>
	<g enable-background="new    ">
		<path fill="#174F65" d="M-1079.9,875.6c0,1.6-0.4,2.8-1.3,3.7c-0.9,0.9-2.1,1.3-3.6,1.3c-1.5,0-2.7-0.4-3.6-1.3s-1.3-2.1-1.3-3.7
			c0-1.6,0.4-2.8,1.3-3.7s2.1-1.3,3.6-1.3c1.5,0,2.7,0.4,3.6,1.3S-1079.9,874.1-1079.9,875.6z M-1086.4,875.7c0,0.9,0.1,1.5,0.4,1.9
			c0.3,0.4,0.7,0.6,1.2,0.6c0.5,0,0.9-0.2,1.2-0.6c0.3-0.4,0.4-1,0.4-1.9c0-0.9-0.1-1.5-0.4-1.9c-0.3-0.4-0.7-0.6-1.2-0.6
			c-0.5,0-0.9,0.2-1.2,0.6C-1086.2,874.2-1086.4,874.8-1086.4,875.7z"/>
		<path fill="#174F65" d="M-1077.4,873.8h-1.5v-2.5h1.5V871c0-1.1,0.3-2,1-2.7c0.7-0.6,1.6-1,2.7-1c0.4,0,0.7,0,1.1,0.1
			c0.4,0.1,0.7,0.1,1.1,0.2l-0.4,2.3c-0.2,0-0.3-0.1-0.5-0.1s-0.4,0-0.6,0c-0.3,0-0.6,0.1-0.8,0.2c-0.2,0.2-0.3,0.4-0.3,0.9v0.3h2.1
			v2.5h-2.1v6.6h-3.3V873.8z"/>
		<path fill="#174F65" d="M-1059.3,867.5l4.5,12.9h-3.6l-0.7-2.5h-4.3l-0.7,2.5h-3.5l4.5-12.9H-1059.3z M-1062.6,875.2h2.6l-1.3-4.4
			L-1062.6,875.2z"/>
		<path fill="#174F65" d="M-1047.9,878.9c-0.6,0.8-1.5,1.1-2.7,1.1c-1.2,0-2.1-0.4-2.8-1.2c-0.7-0.8-1-1.9-1-3.3
			c0-0.8,0.1-1.4,0.3-2s0.5-1.1,0.8-1.5s0.8-0.7,1.3-0.9c0.5-0.2,1-0.3,1.6-0.3c1.1,0,2,0.4,2.6,1.2v-0.9h3.2v8.3
			c0,1.6-0.4,2.8-1.2,3.7c-0.8,0.8-2,1.2-3.7,1.2c-1.4,0-2.5-0.3-3.2-0.9s-1.1-1.4-1.2-2.5h3.2c0,0.3,0.2,0.6,0.4,0.7
			c0.2,0.2,0.5,0.3,1,0.3c0.3,0,0.6-0.1,0.8-0.2c0.2-0.1,0.4-0.3,0.5-0.5s0.2-0.5,0.2-0.8c0-0.3,0.1-0.7,0.1-1.1V878.9z
			 M-1047.9,875.2c0-0.4,0-0.7-0.1-0.9c-0.1-0.2-0.2-0.4-0.3-0.6c-0.1-0.2-0.3-0.3-0.5-0.4c-0.2-0.1-0.4-0.1-0.7-0.1
			c-0.5,0-0.8,0.2-1.1,0.5s-0.4,0.9-0.4,1.6c0,0.7,0.1,1.2,0.4,1.6c0.3,0.3,0.7,0.5,1.1,0.5c0.5,0,0.9-0.2,1.2-0.6
			c0.3-0.3,0.4-0.8,0.4-1.3V875.2z"/>
		<path fill="#174F65" d="M-1042.6,871h3.2v1.2c0.3-0.5,0.7-0.8,1.2-1s0.9-0.3,1.5-0.3c0.3,0,0.7,0,0.9,0.1l-0.4,2.8
			c-0.1,0-0.3-0.1-0.5-0.1c-0.2,0-0.4,0-0.5,0c-0.3,0-0.5,0-0.8,0.1c-0.3,0.1-0.5,0.2-0.7,0.3c-0.2,0.2-0.4,0.4-0.5,0.6
			s-0.2,0.6-0.2,1v4.8h-3.3V871z"/>
		<path fill="#174F65" d="M-1031.4,867.5v2.4h-3.3v-2.4H-1031.4z M-1031.4,871v9.5h-3.3V871H-1031.4z"/>
		<path fill="#174F65" d="M-1020.6,876.8c-0.1,0.6-0.2,1.1-0.4,1.6s-0.5,0.9-0.8,1.2c-0.4,0.3-0.8,0.6-1.3,0.8
			c-0.5,0.2-1.2,0.3-1.9,0.3c-0.8,0-1.5-0.1-2.1-0.4c-0.6-0.2-1.1-0.6-1.5-1c-0.4-0.4-0.7-0.9-0.9-1.6c-0.2-0.6-0.3-1.3-0.3-2
			c0-0.8,0.1-1.5,0.3-2.1s0.5-1.2,0.9-1.6c0.4-0.4,0.9-0.8,1.5-1c0.6-0.2,1.3-0.4,2.1-0.4c0.7,0,1.3,0.1,1.8,0.3
			c0.5,0.2,0.9,0.4,1.3,0.8c0.3,0.3,0.6,0.7,0.8,1.1c0.2,0.4,0.3,0.9,0.4,1.4l-3.1,0.3c0-0.3-0.2-0.6-0.3-0.9
			c-0.2-0.2-0.5-0.4-0.9-0.4c-0.5,0-0.9,0.2-1.1,0.6c-0.2,0.4-0.4,1-0.4,1.8c0,0.8,0.1,1.3,0.3,1.8c0.2,0.4,0.6,0.6,1.1,0.6
			c0.8,0,1.2-0.4,1.3-1.3H-1020.6z"/>
		<path fill="#174F65" d="M-1013.3,880.4v-1.1c-0.4,0.5-0.8,0.9-1.3,1.1s-1,0.3-1.6,0.3c-1,0-1.7-0.3-2.2-0.9s-0.8-1.4-0.8-2.5V871
			h3.3v5.8c0,0.5,0.1,0.8,0.3,1c0.2,0.2,0.4,0.3,0.8,0.3c0.4,0,0.8-0.1,1-0.4c0.1-0.1,0.2-0.3,0.3-0.5s0.1-0.4,0.1-0.7V871h3.3v9.5
			H-1013.3z"/>
		<path fill="#174F65" d="M-1004.9,867.5v12.9h-3.3v-12.9H-1004.9z"/>
		<path fill="#174F65" d="M-1002.2,873.5h-1.5V871h1.5v-2.5h3.3v2.5h2.1v2.5h-2.1v3.4c0,0.4,0.1,0.7,0.3,0.9
			c0.2,0.2,0.5,0.2,0.8,0.2c0.3,0,0.6,0,0.9-0.1l0.4,2.4c-0.7,0.2-1.5,0.3-2.2,0.3c-1.2,0-2.1-0.3-2.6-0.9s-0.8-1.5-0.8-2.7V873.5z"
			/>
		<path fill="#174F65" d="M-989.6,880.4v-1.1c-0.4,0.5-0.8,0.9-1.3,1.1s-1,0.3-1.6,0.3c-1,0-1.7-0.3-2.2-0.9s-0.8-1.4-0.8-2.5V871
			h3.3v5.8c0,0.5,0.1,0.8,0.3,1c0.2,0.2,0.4,0.3,0.8,0.3c0.4,0,0.8-0.1,1-0.4c0.1-0.1,0.2-0.3,0.3-0.5s0.1-0.4,0.1-0.7V871h3.3v9.5
			H-989.6z"/>
		<path fill="#174F65" d="M-984.4,871h3.2v1.2c0.3-0.5,0.7-0.8,1.2-1s0.9-0.3,1.5-0.3c0.3,0,0.7,0,0.9,0.1l-0.4,2.8
			c-0.1,0-0.3-0.1-0.5-0.1c-0.2,0-0.4,0-0.5,0c-0.3,0-0.5,0-0.8,0.1c-0.3,0.1-0.5,0.2-0.7,0.3c-0.2,0.2-0.4,0.4-0.5,0.6
			s-0.2,0.6-0.2,1v4.8h-3.3V871z"/>
		<path fill="#174F65" d="M-967.7,876.4h-6.2c0.1,0.7,0.2,1.2,0.5,1.5c0.2,0.3,0.6,0.4,1.2,0.4c0.8,0,1.3-0.3,1.5-1h3
			c-0.2,1.1-0.7,2-1.4,2.5s-1.8,0.8-3.1,0.8c-1.6,0-2.8-0.4-3.6-1.3c-0.8-0.8-1.2-2-1.2-3.6c0-0.8,0.1-1.6,0.3-2.2
			c0.2-0.6,0.5-1.2,1-1.6c0.4-0.4,0.9-0.8,1.5-1c0.6-0.2,1.3-0.3,2-0.3s1.4,0.1,2,0.3c0.6,0.2,1,0.5,1.4,1c0.4,0.4,0.7,0.9,0.9,1.5
			s0.3,1.2,0.3,2V876.4z M-972.3,873c-0.6,0-1,0.1-1.2,0.4s-0.4,0.7-0.5,1.2h3.2c0-0.6-0.2-1-0.4-1.2S-971.8,873-972.3,873z"/>
	</g>
</g>
<g id="Layer_2" display="none">
</g>
</svg>
