<?xml version="1.0" encoding="utf-8"?>
<!-- Generator: Adobe Illustrator 18.1.1, SVG Export Plug-In . SVG Version: 6.00 Build 0)  -->
<!DOCTYPE svg PUBLIC "-//W3C//DTD SVG 1.1//EN" "http://www.w3.org/Graphics/SVG/1.1/DTD/svg11.dtd">
<svg version="1.1" id="Layer_1" xmlns="http://www.w3.org/2000/svg" xmlns:xlink="http://www.w3.org/1999/xlink" x="0px" y="0px"
	 width="790.2px" height="227.7px" viewBox="-84 -63.7 790.2 227.7" enable-background="new -84 -63.7 790.2 227.7"
	 xml:space="preserve">
<g>
	<g>
		<g>
			<line fill="none" stroke="#282828" stroke-miterlimit="10" x1="316.3" y1="-58.4" x2="316.3" y2="-57.9"/>
			
				<line fill="none" stroke="#282828" stroke-miterlimit="10" stroke-dasharray="1.0288,3.0864,1.0288,3.0864" x1="316.3" y1="-54.8" x2="316.3" y2="-48.1"/>
			
				<line fill="none" stroke="#282828" stroke-miterlimit="10" stroke-dasharray="1.0288,3.0864,1.0288,3.0864,1.0288,3.0864" x1="316.3" y1="-46.6" x2="316.3" y2="137.1"/>
			<line fill="none" stroke="#282828" stroke-miterlimit="10" x1="316.3" y1="138.6" x2="316.3" y2="139.1"/>
		</g>
	</g>
	<g>
		<g>
			<line fill="none" stroke="#282828" stroke-miterlimit="10" x1="388.8" y1="-58.4" x2="388.8" y2="-57.9"/>
			
				<line fill="none" stroke="#282828" stroke-miterlimit="10" stroke-dasharray="1.0288,3.0864,1.0288,3.0864" x1="388.8" y1="-54.8" x2="388.8" y2="-48.1"/>
			
				<line fill="none" stroke="#282828" stroke-miterlimit="10" stroke-dasharray="1.0288,3.0864,1.0288,3.0864,1.0288,3.0864" x1="388.8" y1="-46.6" x2="388.8" y2="137.1"/>
			<line fill="none" stroke="#282828" stroke-miterlimit="10" x1="388.8" y1="138.6" x2="388.8" y2="139.1"/>
		</g>
	</g>
	<g>
		<g>
			<line fill="none" stroke="#282828" stroke-miterlimit="10" x1="461.3" y1="-58.4" x2="461.3" y2="-57.9"/>
			
				<line fill="none" stroke="#282828" stroke-miterlimit="10" stroke-dasharray="1.0288,3.0864,1.0288,3.0864" x1="461.3" y1="-54.8" x2="461.3" y2="-48.1"/>
			
				<line fill="none" stroke="#282828" stroke-miterlimit="10" stroke-dasharray="1.0288,3.0864,1.0288,3.0864,1.0288,3.0864" x1="461.3" y1="-46.6" x2="461.3" y2="137.1"/>
			<line fill="none" stroke="#282828" stroke-miterlimit="10" x1="461.3" y1="138.6" x2="461.3" y2="139.1"/>
		</g>
	</g>
	<g>
		<g>
			<line fill="none" stroke="#282828" stroke-miterlimit="10" x1="533.9" y1="-58.4" x2="533.9" y2="-57.9"/>
			
				<line fill="none" stroke="#282828" stroke-miterlimit="10" stroke-dasharray="1.0288,3.0864,1.0288,3.0864" x1="533.9" y1="-54.8" x2="533.9" y2="-48.1"/>
			
				<line fill="none" stroke="#282828" stroke-miterlimit="10" stroke-dasharray="1.0288,3.0864,1.0288,3.0864,1.0288,3.0864" x1="533.9" y1="-46.6" x2="533.9" y2="137.1"/>
			<line fill="none" stroke="#282828" stroke-miterlimit="10" x1="533.9" y1="138.6" x2="533.9" y2="139.1"/>
		</g>
	</g>
	<g>
		<g>
			<line fill="none" stroke="#282828" stroke-miterlimit="10" x1="606.4" y1="-58.4" x2="606.4" y2="-57.9"/>
			
				<line fill="none" stroke="#282828" stroke-miterlimit="10" stroke-dasharray="1.0288,3.0864,1.0288,3.0864" x1="606.4" y1="-54.8" x2="606.4" y2="-48.1"/>
			
				<line fill="none" stroke="#282828" stroke-miterlimit="10" stroke-dasharray="1.0288,3.0864,1.0288,3.0864,1.0288,3.0864" x1="606.4" y1="-46.6" x2="606.4" y2="137.1"/>
			<line fill="none" stroke="#282828" stroke-miterlimit="10" x1="606.4" y1="138.6" x2="606.4" y2="139.1"/>
		</g>
	</g>
	<g>
		<g>
			<line fill="none" stroke="#282828" stroke-miterlimit="10" x1="243.7" y1="-58.4" x2="243.7" y2="-57.9"/>
			
				<line fill="none" stroke="#282828" stroke-miterlimit="10" stroke-dasharray="1.0288,3.0864,1.0288,3.0864" x1="243.7" y1="-54.8" x2="243.7" y2="-48.1"/>
			
				<line fill="none" stroke="#282828" stroke-miterlimit="10" stroke-dasharray="1.0288,3.0864,1.0288,3.0864,1.0288,3.0864" x1="243.7" y1="-46.6" x2="243.7" y2="137.1"/>
			<line fill="none" stroke="#282828" stroke-miterlimit="10" x1="243.7" y1="138.6" x2="243.7" y2="139.1"/>
		</g>
	</g>
	<g>
		<g>
			<line fill="none" stroke="#282828" stroke-miterlimit="10" x1="678.9" y1="-58.4" x2="678.9" y2="-57.9"/>
			
				<line fill="none" stroke="#282828" stroke-miterlimit="10" stroke-dasharray="1.0288,3.0864,1.0288,3.0864" x1="678.9" y1="-54.8" x2="678.9" y2="-48.1"/>
			
				<line fill="none" stroke="#282828" stroke-miterlimit="10" stroke-dasharray="1.0288,3.0864,1.0288,3.0864,1.0288,3.0864" x1="678.9" y1="-46.6" x2="678.9" y2="137.1"/>
			<line fill="none" stroke="#282828" stroke-miterlimit="10" x1="678.9" y1="138.6" x2="678.9" y2="139.1"/>
		</g>
	</g>
	<g id="Layer_1_2_">
		<g id="Layer_1_1_">
			<g>
				<g>
					<rect x="173.1" y="92.6" fill="#8ABABA" width="498" height="38"/>
					<rect x="173.1" y="42.6" fill="#8ABABA" width="372" height="37"/>
					<rect x="173.1" y="-8.4" fill="#8ABABA" width="94" height="36"/>
					<rect x="173.1" y="-58.4" fill="#8ABABA" width="48" height="36"/>
				</g>
				<line fill="none" stroke="#282828" stroke-miterlimit="10" x1="171.6" y1="-63.4" x2="171.6" y2="137.6"/>
				<g>
					<text transform="matrix(1 0 0 1 215.9664 159.7486)" fill="#282828" font-family="'AktivGrotesk-Regular'" font-size="16">$125 M</text>
				</g>
				<g>
					<text transform="matrix(1 0 0 1 288.507 159.7486)" fill="#282828" font-family="'AktivGrotesk-Regular'" font-size="16">$250 M</text>
				</g>
				<g>
					<text transform="matrix(1 0 0 1 361.047 159.7486)" fill="#282828" font-family="'AktivGrotesk-Regular'" font-size="16">$375 M</text>
				</g>
				<g>
					<text transform="matrix(1 0 0 1 433.5876 159.7486)" fill="#282828" font-family="'AktivGrotesk-Regular'" font-size="16">$500 M</text>
				</g>
				<g>
					<text transform="matrix(1 0 0 1 506.1282 159.7486)" fill="#282828" font-family="'AktivGrotesk-Regular'" font-size="16">$625 M</text>
				</g>
				<g>
					<g>
						<text transform="matrix(1 0 0 1 578.6678 159.7486)" fill="#282828" font-family="'AktivGrotesk-Regular'" font-size="16">$750 M</text>
					</g>
				</g>
				<g>
					<g>
						<text transform="matrix(1 0 0 1 651.2085 159.7486)" fill="#282828" font-family="'AktivGrotesk-Regular'" font-size="16">$875 M</text>
					</g>
				</g>
				<g>
					<text transform="matrix(1 0 0 1 165.9142 159.7486)" fill="#282828" font-family="'AktivGrotesk-Regular'" font-size="18.144">0</text>
				</g>
				<g>
					<g>
						<text transform="matrix(1 0 0 1 -81.2842 -45.8762)" fill="#174F65" font-family="'AktivGrotesk-XBold'" font-size="18">U.S. Department of Housing</text>
						<text transform="matrix(1 0 0 1 -48.5061 -25.8762)" fill="#174F65" font-family="'AktivGrotesk-XBold'" font-size="18">and Urban Development</text>
					</g>
				</g>
				<g>
					<text transform="matrix(1 0 0 1 -14.2175 107.3546)" fill="#174F65" font-family="'AktivGrotesk-XBold'" font-size="18">Border Environment</text>
					<text transform="matrix(1 0 0 1 -59.4874 127.3546)" fill="#174F65" font-family="'AktivGrotesk-XBold'" font-size="18">Cooperation Commission</text>
				</g>
				<g>
					<text transform="matrix(1 0 0 1 55.9452 56.2781)" fill="#174F65" font-family="'AktivGrotesk-XBold'" font-size="18">Texas Water</text>
					<text transform="matrix(1 0 0 1 -10.8334 76.2781)" fill="#174F65" font-family="'AktivGrotesk-XBold'" font-size="18">Development Board</text>
				</g>
				<g>
					<text transform="matrix(1 0 0 1 18.0921 5.2011)" fill="#174F65" font-family="'AktivGrotesk-XBold'" font-size="18">U.S. Department</text>
					<text transform="matrix(1 0 0 1 40.2142 25.2011)" fill="#174F65" font-family="'AktivGrotesk-XBold'" font-size="18">of Agriculture</text>
				</g>
			</g>
		</g>
	</g>
	<g id="Layer_2" display="none">
	</g>
</g>
</svg>
