<?xml version="1.0" encoding="utf-8"?>
<!-- Generator: Adobe Illustrator 18.1.1, SVG Export Plug-In . SVG Version: 6.00 Build 0)  -->
<!DOCTYPE svg PUBLIC "-//W3C//DTD SVG 1.1//EN" "http://www.w3.org/Graphics/SVG/1.1/DTD/svg11.dtd">
<svg version="1.1" id="Layer_1" xmlns="http://www.w3.org/2000/svg" xmlns:xlink="http://www.w3.org/1999/xlink" x="0px" y="0px"
	 width="605.6px" height="230.3px" viewBox="-60 -74 605.6 230.3" enable-background="new -60 -74 605.6 230.3"
	 xml:space="preserve">
<g id="Layer_1_1_">
	<g>
		<g opacity="0.35">
			<g>
				<line fill="none" stroke="#282828" stroke-linecap="round" stroke-linejoin="round" x1="82.3" y1="-73" x2="82.3" y2="-73"/>
				
					<line fill="none" stroke="#282828" stroke-linecap="round" stroke-linejoin="round" stroke-dasharray="0,2,0,2" x1="82.3" y1="-71" x2="82.3" y2="-67"/>
				
					<line fill="none" stroke="#282828" stroke-linecap="round" stroke-linejoin="round" stroke-dasharray="0,2,0,2,0,2" x1="82.3" y1="-66" x2="82.3" y2="128"/>
				<line fill="none" stroke="#282828" stroke-linecap="round" stroke-linejoin="round" x1="82.3" y1="129" x2="82.3" y2="129"/>
			</g>
		</g>
		<g opacity="0.35">
			<g>
				<line fill="none" stroke="#282828" stroke-linecap="round" stroke-linejoin="round" x1="155.3" y1="-73" x2="155.3" y2="-73"/>
				
					<line fill="none" stroke="#282828" stroke-linecap="round" stroke-linejoin="round" stroke-dasharray="0,2,0,2" x1="155.3" y1="-71" x2="155.3" y2="-67"/>
				
					<line fill="none" stroke="#282828" stroke-linecap="round" stroke-linejoin="round" stroke-dasharray="0,2,0,2,0,2" x1="155.3" y1="-66" x2="155.3" y2="128"/>
				<line fill="none" stroke="#282828" stroke-linecap="round" stroke-linejoin="round" x1="155.3" y1="129" x2="155.3" y2="129"/>
			</g>
		</g>
		<g opacity="0.35">
			<g>
				<line fill="none" stroke="#282828" stroke-linecap="round" stroke-linejoin="round" x1="227.3" y1="-73" x2="227.3" y2="-73"/>
				
					<line fill="none" stroke="#282828" stroke-linecap="round" stroke-linejoin="round" stroke-dasharray="0,2,0,2" x1="227.3" y1="-71" x2="227.3" y2="-67"/>
				
					<line fill="none" stroke="#282828" stroke-linecap="round" stroke-linejoin="round" stroke-dasharray="0,2,0,2,0,2" x1="227.3" y1="-66" x2="227.3" y2="128"/>
				<line fill="none" stroke="#282828" stroke-linecap="round" stroke-linejoin="round" x1="227.3" y1="129" x2="227.3" y2="129"/>
			</g>
		</g>
		<g opacity="0.35">
			<g>
				<line fill="none" stroke="#282828" stroke-linecap="round" stroke-linejoin="round" x1="300.3" y1="-73" x2="300.3" y2="-73"/>
				
					<line fill="none" stroke="#282828" stroke-linecap="round" stroke-linejoin="round" stroke-dasharray="0,2,0,2" x1="300.3" y1="-71" x2="300.3" y2="-67"/>
				
					<line fill="none" stroke="#282828" stroke-linecap="round" stroke-linejoin="round" stroke-dasharray="0,2,0,2,0,2" x1="300.3" y1="-66" x2="300.3" y2="128"/>
				<line fill="none" stroke="#282828" stroke-linecap="round" stroke-linejoin="round" x1="300.3" y1="129" x2="300.3" y2="129"/>
			</g>
		</g>
		<g opacity="0.35">
			<g>
				<line fill="none" stroke="#282828" stroke-linecap="round" stroke-linejoin="round" x1="372.3" y1="-73" x2="372.3" y2="-73"/>
				
					<line fill="none" stroke="#282828" stroke-linecap="round" stroke-linejoin="round" stroke-dasharray="0,2,0,2" x1="372.3" y1="-71" x2="372.3" y2="-67"/>
				
					<line fill="none" stroke="#282828" stroke-linecap="round" stroke-linejoin="round" stroke-dasharray="0,2,0,2,0,2" x1="372.3" y1="-66" x2="372.3" y2="128"/>
				<line fill="none" stroke="#282828" stroke-linecap="round" stroke-linejoin="round" x1="372.3" y1="129" x2="372.3" y2="129"/>
			</g>
		</g>
		<g opacity="0.35">
			<g>
				<line fill="none" stroke="#282828" stroke-linecap="round" stroke-linejoin="round" x1="445.3" y1="-73" x2="445.3" y2="-73"/>
				
					<line fill="none" stroke="#282828" stroke-linecap="round" stroke-linejoin="round" stroke-dasharray="0,2,0,2" x1="445.3" y1="-71" x2="445.3" y2="-67"/>
				
					<line fill="none" stroke="#282828" stroke-linecap="round" stroke-linejoin="round" stroke-dasharray="0,2,0,2,0,2" x1="445.3" y1="-66" x2="445.3" y2="128"/>
				<line fill="none" stroke="#282828" stroke-linecap="round" stroke-linejoin="round" x1="445.3" y1="129" x2="445.3" y2="129"/>
			</g>
		</g>
		<g opacity="0.35">
			<g>
				<line fill="none" stroke="#282828" stroke-linecap="round" stroke-linejoin="round" x1="517.3" y1="-73" x2="517.3" y2="-73"/>
				
					<line fill="none" stroke="#282828" stroke-linecap="round" stroke-linejoin="round" stroke-dasharray="0,2,0,2" x1="517.3" y1="-71" x2="517.3" y2="-67"/>
				
					<line fill="none" stroke="#282828" stroke-linecap="round" stroke-linejoin="round" stroke-dasharray="0,2,0,2,0,2" x1="517.3" y1="-66" x2="517.3" y2="128"/>
				<line fill="none" stroke="#282828" stroke-linecap="round" stroke-linejoin="round" x1="517.3" y1="129" x2="517.3" y2="129"/>
			</g>
		</g>
		<g>
			<rect x="11.8" y="84" fill="#8ABABA" width="498" height="38"/>
			<rect x="11.8" y="34" fill="#8ABABA" width="372" height="37"/>
			<rect x="11.8" y="-17" fill="#8ABABA" width="94" height="36"/>
			<rect x="11.8" y="-67" fill="#8ABABA" width="48" height="36"/>
		</g>
		<line fill="none" stroke="#282828" stroke-miterlimit="10" x1="10.3" y1="-72" x2="10.3" y2="129"/>
		<g>
			<text transform="matrix(1 0 0 1 54.6078 151.1919)" fill="#282828" font-family="'AktivGrotesk-Regular'" font-size="16">$125 M</text>
		</g>
		<g>
			<text transform="matrix(1 0 0 1 127.1483 151.1919)" fill="#282828" font-family="'AktivGrotesk-Regular'" font-size="16">$250 M</text>
		</g>
		<g>
			<text transform="matrix(1 0 0 1 199.689 151.1919)" fill="#282828" font-family="'AktivGrotesk-Regular'" font-size="16">$375 M</text>
		</g>
		<g>
			<text transform="matrix(1 0 0 1 272.2297 151.1919)" fill="#282828" font-family="'AktivGrotesk-Regular'" font-size="16">$500 M</text>
		</g>
		<g>
			<text transform="matrix(1 0 0 1 344.7701 151.1919)" fill="#282828" font-family="'AktivGrotesk-Regular'" font-size="16">$625 M</text>
		</g>
		<g>
			<g>
				<text transform="matrix(1 0 0 1 417.3098 151.1919)" fill="#282828" font-family="'AktivGrotesk-Regular'" font-size="16">$750 M</text>
			</g>
		</g>
		<g>
			<g>
				<text transform="matrix(1 0 0 1 489.8506 151.1919)" fill="#282828" font-family="'AktivGrotesk-Regular'" font-size="16">$875 M</text>
			</g>
		</g>
		<g>
			<text transform="matrix(1 0 0 1 4.5556 151.1919)" fill="#282828" font-family="'AktivGrotesk-Regular'" font-size="18.144">0</text>
		</g>
		<g>
			<text transform="matrix(1 0 0 1 -44.4705 -43.4241)" fill="#174F65" font-family="'AktivGrotesk-XBold'" font-size="18.144">HUD</text>
		</g>
		<g>
			<text transform="matrix(1 0 0 1 -54.1014 111.8083)" fill="#174F65" font-family="'AktivGrotesk-XBold'" font-size="18.144">BECC</text>
		</g>
		<g>
			<text transform="matrix(1 0 0 1 -59.9998 60.0641)" fill="#174F65" font-family="'AktivGrotesk-XBold'" font-size="18.144">TWDB</text>
		</g>
		<g>
			<text transform="matrix(1 0 0 1 -55.9588 8.32)" fill="#174F65" font-family="'AktivGrotesk-XBold'" font-size="18.144">USDA</text>
		</g>
	</g>
</g>
</svg>
