<?xml version="1.0" encoding="utf-8"?>
<!-- Generator: Adobe Illustrator 18.1.1, SVG Export Plug-In . SVG Version: 6.00 Build 0)  -->
<!DOCTYPE svg PUBLIC "-//W3C//DTD SVG 1.1//EN" "http://www.w3.org/Graphics/SVG/1.1/DTD/svg11.dtd">
<svg version="1.1" id="Layer_1" xmlns="http://www.w3.org/2000/svg" xmlns:xlink="http://www.w3.org/1999/xlink" x="0px" y="0px"
	 width="254.1px" height="300px" viewBox="0 0 254.1 300" enable-background="new 0 0 254.1 300" xml:space="preserve">
<g>
	<path fill="#8ABABA" d="M53.6,68.5c-6,0-10.8-4.8-10.8-10.8V10.8c0-6,4.8-10.8,10.8-10.8s10.8,4.8,10.8,10.8v46.9
		C64.4,63.7,59.6,68.5,53.6,68.5z"/>
	<path fill="#8ABABA" d="M200.7,68.5c-6,0-10.8-4.8-10.8-10.8V10.8c0-6,4.8-10.8,10.8-10.8c6,0,10.8,4.8,10.8,10.8v46.9
		C211.5,63.7,206.6,68.5,200.7,68.5z"/>
	<g>
		<path fill="#174F65" d="M254.1,61c0-19.9-15.9-36-35.8-36H216v32.7c0,8.7-6.8,15.8-15.5,15.8S185,66.4,185,57.7V25H69v32.7
			c0,8.7-6.8,15.8-15.5,15.8S38,66.4,38,57.7V25h-2.1C16,25,0,41,0,60.9v203.3C0,284,16,300,35.9,300h182.4
			c19.9,0,35.8-16,35.8-35.8V61.1L254.1,61z M232,264.2c0,7.9-5.8,14.8-13.8,14.8H35.9c-8,0-13.9-6.9-13.9-14.8V113h210V264.2z"/>
	</g>
	<g>
		<g>
			<path fill="#E8513A" d="M56.5,194.6c0-17,3.1-29.3,9.2-37.1c6.2-7.8,15-11.7,26.4-11.7c11.6,0,20.3,4,26.1,11.9
				c5.8,7.9,8.7,20,8.7,36.4c0,17-3.1,29.3-9.2,37.1c-6.2,7.8-15,11.7-26.4,11.7c-11.6,0-20.3-3.9-26.1-11.8
				C59.4,223.2,56.5,211.1,56.5,194.6z M81.4,194.4c0,9.7,0.7,16.7,2.2,21c1.5,4.3,4.2,6.4,8.2,6.4c4,0,6.7-2.1,8.2-6.4
				c1.5-4.3,2.2-11.3,2.2-21c0-9.7-0.7-16.7-2.2-21c-1.5-4.3-4.2-6.4-8.2-6.4c-4,0-6.7,2.1-8.2,6.4
				C82.1,177.6,81.4,184.6,81.4,194.4z"/>
			<path fill="#E8513A" d="M161.2,175.8l-14.9,10l-11.2-17.4l30.2-19.8h20.4v91.9h-24.5V175.8z"/>
		</g>
	</g>
</g>
</svg>
