<?xml version="1.0" encoding="utf-8"?>
<!-- Generator: Adobe Illustrator 18.1.1, SVG Export Plug-In . SVG Version: 6.00 Build 0)  -->
<!DOCTYPE svg PUBLIC "-//W3C//DTD SVG 1.1//EN" "http://www.w3.org/Graphics/SVG/1.1/DTD/svg11.dtd">
<svg version="1.1" id="Layer_1" xmlns="http://www.w3.org/2000/svg" xmlns:xlink="http://www.w3.org/1999/xlink" x="0px" y="0px"
	 width="236.6px" height="300px" viewBox="0 0 236.6 300" enable-background="new 0 0 236.6 300" xml:space="preserve">
<g>
	<path fill="#8ABABA" d="M214.1,19.7h-31.9c0,2.4,0,3.3,0,16h21.2c8,0,14.5,7.1,14.5,15.7v215.3c0,8.7-6.5,15.7-14.5,15.7h-173
		c-8,0-14.4-7.1-14.4-15.7V51.4c0-8.6,6.5-15.7,14.4-15.7h21.2c0-12.7,0-13.7,0-16H22.6C10.1,19.7,0,29.9,0,42.3v235.2
		C0,289.8,10.1,300,22.6,300h191.5c12.4,0,22.6-10.2,22.6-22.6V42.3C236.6,29.9,226.5,19.7,214.1,19.7z"/>
	<path fill="#174F65" d="M173.5,61.7c-0.1-16.5,0-41.9,0-41.9h-34.6C138.8,8.9,129.6,0,118.3,0c-11.3,0-20.4,8.9-20.5,19.8H63.2
		c0,0,0.1,25.4,0,41.9L173.5,61.7L173.5,61.7z M118.3,10.1c4.8,0,8.8,3.8,8.8,8.5c0,4.7-4,8.5-8.8,8.5c-4.8,0-8.8-3.8-8.8-8.5
		C109.5,13.9,113.5,10.1,118.3,10.1z"/>
	<path fill="#174F65" d="M191,140.9h-90.9c-3,0-5.5,2.7-5.5,6.1c0,3.4,2.4,6.1,5.5,6.1H191c3,0,5.5-2.7,5.5-6.1
		C196.5,143.7,194.1,140.9,191,140.9z"/>
	<path fill="#174F65" d="M94.6,101.2c0,3.3,2.4,6.1,5.5,6.1H191c3,0,5.5-2.7,5.5-6.1c0-3.4-2.4-6.1-5.5-6.1h-90.9
		C97.1,95.1,94.6,97.9,94.6,101.2z"/>
	<path fill="#174F65" d="M191,186.7h-90.9c-3,0-5.5,2.7-5.5,6.1c0,3.3,2.4,6.1,5.5,6.1H191c3,0,5.5-2.7,5.5-6.1
		C196.5,189.4,194.1,186.7,191,186.7z"/>
	<path fill="#E8513A" d="M58.7,182c-6,0-10.8,4.9-10.8,10.8c0,6,4.9,10.8,10.8,10.8c6,0,10.8-4.9,10.8-10.8
		C69.5,186.8,64.7,182,58.7,182z"/>
	<path fill="#174F65" d="M191,232.5h-90.9c-3,0-5.5,2.7-5.5,6.1c0,3.3,2.4,6.1,5.5,6.1H191c3,0,5.5-2.7,5.5-6.1
		C196.5,235.2,194.1,232.5,191,232.5z"/>
	<path fill="#E8513A" d="M58.7,227.8c-6,0-10.8,4.9-10.8,10.8c0,6,4.9,10.8,10.8,10.8c6,0,10.8-4.9,10.8-10.8
		C69.5,232.6,64.7,227.8,58.7,227.8z"/>
	<path fill="#4EB036" d="M49.3,114c0.9,0.9,2,1.3,3.2,1.3c1,0,2.1-0.3,2.9-1l23.2-19.1c1.9-1.6,2.2-4.4,0.6-6.4
		c-1.6-1.9-4.4-2.2-6.4-0.6l-20,16.5l-7.9-7.9c-1.8-1.8-4.6-1.8-6.4,0c-1.8,1.8-1.8,4.6,0,6.4L49.3,114z"/>
	<path fill="#4EB036" d="M49.3,159.8c0.9,0.9,2,1.3,3.2,1.3c1,0,2.1-0.3,2.9-1l23.2-19.1c1.9-1.6,2.2-4.4,0.6-6.4
		c-1.6-1.9-4.4-2.2-6.4-0.6l-20,16.5l-7.9-7.9c-1.8-1.8-4.6-1.8-6.4,0c-1.8,1.8-1.8,4.6,0,6.4L49.3,159.8z"/>
</g>
</svg>
