<?xml version="1.0" encoding="utf-8"?>
<!-- Generator: Adobe Illustrator 18.1.1, SVG Export Plug-In . SVG Version: 6.00 Build 0)  -->
<!DOCTYPE svg PUBLIC "-//W3C//DTD SVG 1.1//EN" "http://www.w3.org/Graphics/SVG/1.1/DTD/svg11.dtd">
<svg version="1.1" id="Layer_1" xmlns="http://www.w3.org/2000/svg" xmlns:xlink="http://www.w3.org/1999/xlink" x="0px" y="0px"
	 width="1111.2px" height="300px" viewBox="306 101 1111.2 300" enable-background="new 306 101 1111.2 300" xml:space="preserve">
<rect x="742.6" y="256.2" fill="#FFFFFF" width="72.4" height="72.4"/>
<g id="Your_Icon">
	<path fill="#8ABABA" d="M665,101v20.7l46.6,10.7V401h186.2V256.2h72.4V401h51.7V203.9l36.2,8.3v-20.7L665,101z M742.6,256.2H815
		v72.4h-72.4V256.2z"/>
</g>
<rect x="1317.2" y="204.4" fill="#8ABABA" width="48.3" height="48.3"/>
<path fill="#FFFCF8" d="M1155.1,161.3v13.8l24.1-5.6V301h34.5v-96.6h48.3V301h124.1V121.9l31-7.1V101L1155.1,161.3z M1365.4,252.7
	h-48.3v-48.3h48.3V252.7z"/>
<rect x="468.1" y="204.4" fill="#8ABABA" width="48.3" height="48.3"/>
<path fill="#FFFCF8" d="M306,161.3v13.8l24.1-5.6V301h34.5v-96.6h48.3V301H537V121.9l31-7.1V101L306,161.3z M516.3,252.7H468v-48.3
	h48.3V252.7z"/>
</svg>
