<?xml version="1.0" encoding="utf-8"?>
<!-- Generator: Adobe Illustrator 18.1.1, SVG Export Plug-In . SVG Version: 6.00 Build 0)  -->
<!DOCTYPE svg PUBLIC "-//W3C//DTD SVG 1.1//EN" "http://www.w3.org/Graphics/SVG/1.1/DTD/svg11.dtd">
<svg version="1.1" id="Layer_1" xmlns="http://www.w3.org/2000/svg" xmlns:xlink="http://www.w3.org/1999/xlink" x="0px" y="0px"
	 width="351.2px" height="300px" viewBox="0 0 351.2 300" enable-background="new 0 0 351.2 300" xml:space="preserve">
<g>
	<g>
		<path fill="#E8513A" d="M211,73.7h-70.8c-11.3,0-20.6,9.2-20.6,20.5v96.4c0,11.3,9.2,20.6,20.6,20.6h0.1v68.3
			c0,11.4,8.9,20.6,20,20.6h30.6c11,0,20-9.2,20-20.6v-68.3h0.1c11.4,0,20.6-9.2,20.6-20.6V94.3C231.6,82.9,222.4,73.7,211,73.7z"/>
		<circle fill="#E8513A" cx="175.6" cy="33.5" r="33.5"/>
	</g>
	<g>
		<path fill="#E8513A" d="M333.6,81.7h-60.7c-9.8,0-17.6,7.9-17.6,17.6v82.6c0,9.7,7.9,17.6,17.6,17.6h0.1V258
			c0,9.7,7.7,17.6,17.1,17.6h26.3c9.5,0,17.1-7.9,17.1-17.6v-58.5h0.1c9.7,0,17.6-7.9,17.6-17.6V99.3
			C351.2,89.6,343.3,81.7,333.6,81.7z"/>
		<path fill="#E8513A" d="M303.3,18.6c15.9,0,28.7,12.9,28.7,28.7c0,15.9-12.9,28.8-28.7,28.8c-15.9,0-28.7-12.9-28.7-28.8
			C274.5,31.4,287.4,18.6,303.3,18.6z"/>
	</g>
	<g>
		<path fill="#E8513A" d="M78.3,81.7H17.6C7.9,81.7,0,89.6,0,99.3v82.6c0,9.7,7.9,17.6,17.6,17.6h0.1V258c0,9.7,7.7,17.6,17.1,17.6
			h26.2c9.4,0,17.1-7.9,17.1-17.6v-58.5h0.1c9.7,0,17.6-7.9,17.6-17.6V99.3C95.9,89.6,88,81.7,78.3,81.7z"/>
		<circle fill="#E8513A" cx="47.9" cy="47.3" r="28.7"/>
	</g>
</g>
</svg>
