<?xml version="1.0" encoding="utf-8"?>
<!-- Generator: Adobe Illustrator 18.1.1, SVG Export Plug-In . SVG Version: 6.00 Build 0)  -->
<!DOCTYPE svg PUBLIC "-//W3C//DTD SVG 1.1//EN" "http://www.w3.org/Graphics/SVG/1.1/DTD/svg11.dtd">
<svg version="1.1" id="Layer_1" xmlns="http://www.w3.org/2000/svg" xmlns:xlink="http://www.w3.org/1999/xlink" x="0px" y="0px"
	 width="550.5px" height="300px" viewBox="0 0 550.5 300" enable-background="new 0 0 550.5 300" xml:space="preserve">
<g>
	<g>
		<path fill="#FFFCF8" d="M190.5,21.9C188.6,21.3,142,7.1,95.7,7.1C49.3,7.1,5,21.3,3.1,21.9c-2.1,0.7-3.4,2.8-3.1,5L40,296.1
			c0.3,2.2,2.2,3.9,4.4,3.9h104.9c2.2,0,4.1-1.6,4.5-3.9l39.9-269.3C194,24.7,192.7,22.5,190.5,21.9z M48.3,291L9.5,29.4
			C21.1,26,58.2,16.1,95.7,16.1c37.6,0,76.5,10,88.5,13.3L145.4,291H48.3z"/>
		<path fill="#8ABABA" d="M161.7,98.6c-0.5-0.3-11.9-7.9-31.6-7.9c-11.3,0-23.1,2.5-35,7.5c-10.8,4.5-21.4,6.8-31.5,6.8
			c-16.7,0-26.4-6.3-26.5-6.4c-1.5-1-3.4-1-4.9-0.1c-1.5,1-2.3,2.7-2.1,4.5L56,277.5c0.3,2.2,2.2,3.8,4.4,3.8h72.8
			c2.2,0,4.1-1.6,4.4-3.8L163.6,103C163.9,101.3,163.1,99.6,161.7,98.6z M64.3,272.3L40.2,110c5.4,2,13.3,4,23.3,4
			c11.3,0,23.1-2.5,35-7.5c10.8-4.5,21.4-6.8,31.5-6.8c11.9,0,20.2,3.2,24.1,5.1l-24.9,167.6H64.3z"/>
		<path fill="#FFFCF8" d="M165,35.6c-0.3,0-19,3.1-42.3,4.7l-52.2,0.4c-23.2-1.4-41.6-4.1-41.9-4.2c-2.5-0.4-4.8,1.3-5.1,3.8
			c-0.4,2.5,1.3,4.8,3.8,5.1c0.3,0.1,33.4,5,67.1,5h2.3c34.4-0.3,69.5-5.9,69.8-6c2.5-0.4,4.1-2.7,3.7-5.2
			C169.8,36.9,167.5,35.2,165,35.6z"/>
	</g>
	<path fill="#E8513A" d="M136.4,127.6c0.1,0,0.2,0.1,0.3,0.2c0.1,0.1,0.1,0.2,0,0.4l-0.2,0.7c0,0.1-0.1,0.2-0.2,0.3
		c-0.1,0.1-0.2,0.1-0.4,0l-1.9-0.5l0.5,1.9c0,0.1,0,0.3-0.1,0.4c-0.1,0.1-0.2,0.2-0.3,0.2l-0.7,0.2c-0.1,0-0.3,0-0.4-0.1
		c-0.1-0.1-0.2-0.2-0.2-0.3l-0.5-1.9l-1.4,1.3c-0.1,0.1-0.2,0.1-0.3,0.1c-0.1,0-0.2-0.1-0.3-0.1l-0.5-0.5c-0.1-0.1-0.1-0.2-0.1-0.3
		c0-0.1,0-0.2,0.1-0.3l1.4-1.4l-1.9-0.5c-0.1,0-0.2-0.1-0.3-0.2c-0.1-0.1-0.1-0.2,0-0.4l0.2-0.7c0-0.1,0.1-0.2,0.2-0.3
		c0.1-0.1,0.2-0.1,0.4,0l1.9,0.5l-0.5-1.9c0-0.1,0-0.3,0.1-0.4c0.1-0.1,0.2-0.2,0.3-0.2l0.7-0.2c0.1,0,0.3,0,0.4,0
		c0.1,0.1,0.2,0.2,0.2,0.3l0.5,1.9l1.4-1.3c0.1-0.1,0.2-0.1,0.3-0.1c0.1,0,0.2,0,0.3,0.1l0.5,0.5c0.1,0.1,0.1,0.2,0.1,0.3
		c0,0.1,0,0.2-0.1,0.3l-1.4,1.4L136.4,127.6L136.4,127.6z"/>
	<path fill="#8ABABA" d="M62.8,131.8c0.2,0,0.3,0,0.4,0.1s0.3,0.1,0.4,0.2c0.1,0.1,0.2,0.2,0.2,0.4c0.1,0.1,0.1,0.3,0.1,0.4
		s0,0.3-0.1,0.4c-0.1,0.1-0.1,0.3-0.2,0.4c-0.1,0.1-0.2,0.2-0.4,0.2c-0.1,0.1-0.3,0.1-0.4,0.1s-0.3,0-0.4-0.1
		c-0.1-0.1-0.3-0.1-0.4-0.2c-0.1-0.1-0.2-0.2-0.2-0.4c-0.1-0.1-0.1-0.3-0.1-0.4s0-0.3,0.1-0.4c0.1-0.1,0.1-0.3,0.2-0.4
		c0.1-0.1,0.2-0.2,0.4-0.2C62.5,131.8,62.6,131.8,62.8,131.8z"/>
	<path fill="#E8513A" d="M113.5,255.5c0.1,0.1,0.1,0.2,0.1,0.4c0,0.1-0.1,0.2-0.2,0.3l-0.6,0.4c-0.1,0.1-0.2,0.1-0.4,0
		c-0.1,0-0.2-0.1-0.3-0.2l-1-1.7l-1,1.7c-0.1,0.1-0.2,0.2-0.3,0.2c-0.1,0-0.3,0-0.4-0.1l-0.6-0.4c-0.1-0.1-0.2-0.2-0.2-0.3
		c0-0.1,0-0.2,0-0.4l1-1.7l-1.9,0c-0.1,0-0.3,0-0.3-0.1c-0.1-0.1-0.1-0.2-0.1-0.3l0-0.7c0-0.1,0.1-0.2,0.1-0.3
		c0.1-0.1,0.2-0.1,0.3-0.1l1.9,0l-1-1.7c-0.1-0.1-0.1-0.2-0.1-0.4c0-0.1,0.1-0.2,0.2-0.3l0.6-0.4c0.1-0.1,0.2-0.1,0.4,0
		c0.1,0,0.2,0.1,0.3,0.2l1,1.7l1-1.7c0.1-0.1,0.2-0.2,0.3-0.2c0.1,0,0.2,0,0.4,0.1l0.6,0.4c0.1,0.1,0.2,0.2,0.2,0.3
		c0,0.1,0,0.2,0,0.4l-1,1.7l1.9,0c0.1,0,0.2,0.1,0.3,0.1c0.1,0.1,0.1,0.2,0.1,0.3l0,0.7c0,0.1,0,0.3-0.1,0.3
		c-0.1,0.1-0.2,0.1-0.3,0.1l-1.9,0L113.5,255.5L113.5,255.5z"/>
	<path fill="#8ABABA" d="M72.1,125.4c0-0.1,0-0.1-0.1-0.1c0,0-0.1-0.1-0.1-0.1h-1.2c-0.1,0-0.1,0-0.1,0.1c0,0-0.1,0.1-0.1,0.1v1.2
		c0,0.1,0,0.1,0.1,0.1c0,0,0.1,0.1,0.1,0.1h1.2c0.1,0,0.1,0,0.1-0.1c0,0,0.1-0.1,0.1-0.2V125.4z"/>
	<path fill="#8ABABA" d="M132.3,165.9c0-0.1,0-0.1-0.1-0.1c0,0-0.1-0.1-0.1-0.1h-1.2c-0.1,0-0.1,0-0.1,0.1c0,0-0.1,0.1-0.1,0.1v1.2
		c0,0.1,0,0.1,0.1,0.1c0,0,0.1,0.1,0.1,0.1h1.2c0.1,0,0.1,0,0.1-0.1c0,0,0.1-0.1,0.1-0.2V165.9z"/>
	<path fill="#8ABABA" d="M73.7,238.7c0-0.1,0-0.1-0.1-0.1c0,0-0.1-0.1-0.1-0.1h-1.2c-0.1,0-0.1,0-0.1,0.1c0,0-0.1,0.1-0.1,0.1v1.2
		c0,0.1,0,0.1,0.1,0.1c0,0,0.1,0.1,0.1,0.1h1.2c0.1,0,0.1,0,0.1-0.1c0,0,0.1-0.1,0.1-0.2V238.7z"/>
	<path fill="#8ABABA" d="M112.7,114.5c0.2,0,0.3,0,0.4,0.1s0.3,0.1,0.4,0.2c0.1,0.1,0.2,0.2,0.2,0.4c0.1,0.1,0.1,0.3,0.1,0.4
		s0,0.3-0.1,0.4c-0.1,0.1-0.1,0.3-0.2,0.4c-0.1,0.1-0.2,0.2-0.4,0.2c-0.1,0.1-0.3,0.1-0.4,0.1s-0.3,0-0.4-0.1
		c-0.1-0.1-0.3-0.1-0.4-0.2c-0.1-0.1-0.2-0.2-0.2-0.4c-0.1-0.1-0.1-0.3-0.1-0.4s0-0.3,0.1-0.4c0.1-0.1,0.1-0.3,0.2-0.4
		c0.1-0.1,0.2-0.2,0.4-0.2C112.4,114.6,112.5,114.5,112.7,114.5z"/>
	<path fill="#8ABABA" d="M66.7,180.7c0.2,0,0.3,0,0.4,0.1s0.3,0.1,0.4,0.2c0.1,0.1,0.2,0.2,0.2,0.4c0.1,0.1,0.1,0.3,0.1,0.4
		s0,0.3-0.1,0.4c-0.1,0.1-0.1,0.3-0.2,0.4c-0.1,0.1-0.2,0.2-0.4,0.2c-0.1,0.1-0.3,0.1-0.4,0.1c-0.2,0-0.3,0-0.4-0.1
		c-0.1-0.1-0.3-0.1-0.4-0.2c-0.1-0.1-0.2-0.2-0.2-0.4c-0.1-0.1-0.1-0.3-0.1-0.4s0-0.3,0.1-0.4c0.1-0.1,0.1-0.3,0.2-0.4
		c0.1-0.1,0.2-0.2,0.4-0.2C66.4,180.7,66.6,180.7,66.7,180.7z"/>
	<path fill="#8ABABA" d="M106.8,121.6c0.2,0,0.3,0,0.4,0.1s0.3,0.1,0.4,0.2c0.1,0.1,0.2,0.2,0.2,0.4c0.1,0.1,0.1,0.3,0.1,0.4
		c0,0.2,0,0.3-0.1,0.4c-0.1,0.1-0.1,0.3-0.2,0.4c-0.1,0.1-0.2,0.2-0.4,0.2c-0.1,0.1-0.3,0.1-0.4,0.1c-0.2,0-0.3,0-0.4-0.1
		c-0.1-0.1-0.3-0.1-0.4-0.2c-0.1-0.1-0.2-0.2-0.2-0.4c-0.1-0.1-0.1-0.3-0.1-0.4c0-0.2,0-0.3,0.1-0.4c0.1-0.1,0.1-0.3,0.2-0.4
		c0.1-0.1,0.2-0.2,0.4-0.2C106.5,121.6,106.6,121.6,106.8,121.6z"/>
	<path fill="#8ABABA" d="M80.6,256.1c0.2,0,0.3,0,0.4,0.1c0.1,0.1,0.3,0.1,0.4,0.2c0.1,0.1,0.2,0.2,0.2,0.4c0.1,0.1,0.1,0.3,0.1,0.4
		s0,0.3-0.1,0.4c-0.1,0.1-0.1,0.3-0.2,0.4c-0.1,0.1-0.2,0.2-0.4,0.2c-0.1,0.1-0.3,0.1-0.4,0.1s-0.3,0-0.4-0.1
		c-0.1-0.1-0.3-0.1-0.4-0.2s-0.2-0.2-0.2-0.4c-0.1-0.1-0.1-0.3-0.1-0.4s0-0.3,0.1-0.4c0.1-0.1,0.1-0.3,0.2-0.4
		c0.1-0.1,0.2-0.2,0.4-0.2C80.3,256.2,80.5,256.1,80.6,256.1z"/>
	<path fill="#FFFCF8" d="M137.7,122.9c-0.3,0-0.5-0.1-0.7-0.3c-0.4-0.4-0.4-1.1,0-1.5L239.5,11.9c0.2-0.2,0.5-0.5,0.8-0.5h93.2
		c0.6,0,1.1,0.4,1.1,1s-0.5,1-1.1,1h-92.8l-102.2,109C138.2,122.6,138,122.9,137.7,122.9z"/>
	<path fill="#FFFCF8" d="M240.2,148.4H75.2c-0.6,0-1.1-0.4-1.1-1c0-0.6,0.5-1,1.1-1h164.6l50.5-57.6c0.2-0.2,0.5-0.4,0.8-0.4h45.5
		c0.6,0,1.1,0.4,1.1,1c0,0.6-0.5,1-1.1,1h-45L241,148C240.8,148.3,240.5,148.4,240.2,148.4z"/>
	<path fill="#FFFCF8" d="M333.5,181.4H116.3c-0.6,0-1.1-0.9-1.1-1.5c0-0.6,0.5-1.5,1.1-1.5h217.2c0.6,0,1.1,0.9,1.1,1.5
		C334.5,180.5,334,181.4,333.5,181.4z"/>
	<path fill="#FFFCF8" d="M333.5,253.4h-214c-0.6,0-1.1-0.4-1.1-1c0-0.6,0.5-1,1.1-1h214c0.6,0,1.1,0.4,1.1,1
		C334.5,253,334,253.4,333.5,253.4z"/>
	<g>
		<path fill="#FFFCF8" d="M367,166.5l8,23.1h-6.4l-1.3-4.4h-7.8l-1.3,4.4h-6.3l8-23.1H367z M360.9,180.3h4.8l-2.4-8L360.9,180.3z"/>
		<path fill="#FFFCF8" d="M377.3,172.6h5.7v2.1c0.6-0.8,1.3-1.4,2.1-1.8c0.8-0.4,1.7-0.6,2.7-0.6c0.6,0,1.2,0.1,1.7,0.2l-0.6,5
			c-0.2-0.1-0.5-0.1-0.8-0.1c-0.3,0-0.6,0-1,0c-0.5,0-0.9,0-1.4,0.1c-0.5,0.1-0.9,0.3-1.2,0.5c-0.4,0.3-0.7,0.7-0.9,1.1
			c-0.2,0.5-0.3,1-0.3,1.8v8.7h-5.9V172.6z"/>
		<path fill="#FFFCF8" d="M396.3,184.2c0.1,0.7,0.4,1.1,0.9,1.4c0.5,0.2,1.1,0.4,1.8,0.4c0.8,0,1.3-0.1,1.6-0.3
			c0.3-0.2,0.5-0.6,0.5-1c0-0.3-0.1-0.6-0.3-0.8c-0.2-0.2-0.7-0.4-1.3-0.5l-2-0.3c-2.2-0.4-3.8-1-4.8-1.8c-1-0.8-1.5-2-1.5-3.5
			c0-1.8,0.7-3.2,2-4.1c1.3-0.9,3.2-1.4,5.6-1.4c1.4,0,2.5,0.1,3.5,0.4s1.7,0.7,2.3,1.1c0.6,0.5,1.1,1,1.4,1.7
			c0.3,0.6,0.6,1.3,0.7,1.9l-5.4,0.6c-0.1-0.6-0.4-1-0.7-1.3c-0.4-0.3-1-0.4-1.7-0.4c-0.8,0-1.3,0.1-1.6,0.4
			c-0.3,0.2-0.5,0.6-0.5,0.9c0,0.3,0.1,0.6,0.4,0.8c0.3,0.2,0.8,0.4,1.5,0.5l1.9,0.4c1.2,0.2,2.2,0.5,3,0.8c0.8,0.3,1.5,0.7,1.9,1.1
			c0.5,0.4,0.8,0.9,1,1.5c0.2,0.6,0.3,1.2,0.3,1.9c0,1.9-0.6,3.3-1.9,4.3c-1.3,1-3.2,1.4-5.8,1.4c-1,0-2-0.1-3-0.3
			c-1-0.2-1.8-0.5-2.6-1c-0.8-0.5-1.4-1.1-1.9-1.8c-0.5-0.8-0.8-1.7-0.8-2.9H396.3z"/>
		<path fill="#FFFCF8" d="M425.8,182.5h-11.2c0.1,1.2,0.4,2.1,0.8,2.6c0.4,0.5,1.1,0.8,2.1,0.8c1.5,0,2.4-0.6,2.7-1.8h5.5
			c-0.3,2-1.2,3.5-2.6,4.5c-1.4,1-3.2,1.5-5.5,1.5c-2.9,0-5-0.8-6.4-2.3c-1.4-1.5-2.2-3.7-2.2-6.5c0-1.5,0.2-2.8,0.6-4
			c0.4-1.2,1-2.1,1.7-2.9c0.7-0.8,1.7-1.4,2.7-1.8c1.1-0.4,2.3-0.6,3.6-0.6c1.3,0,2.5,0.2,3.5,0.6s1.9,1,2.6,1.7
			c0.7,0.7,1.2,1.6,1.6,2.7c0.3,1.1,0.5,2.2,0.5,3.5V182.5z M417.6,176.3c-1,0-1.7,0.3-2.2,0.8c-0.5,0.5-0.8,1.2-0.8,2.1h5.8
			c0-1-0.3-1.8-0.7-2.2C419.2,176.5,418.5,176.3,417.6,176.3z"/>
		<path fill="#FFFCF8" d="M434.6,172.6v2c0.7-0.9,1.5-1.6,2.3-1.9c0.9-0.4,1.8-0.6,2.8-0.6c1.7,0,3.1,0.5,4.1,1.5
			c1,1,1.4,2.6,1.4,4.6v11.4h-5.9v-10.4c0-0.9-0.2-1.5-0.5-1.8c-0.3-0.3-0.8-0.5-1.4-0.5c-0.8,0-1.4,0.2-1.9,0.7
			c-0.2,0.2-0.4,0.5-0.6,0.8c-0.1,0.3-0.2,0.7-0.2,1.3v9.8h-5.9v-17H434.6z"/>
		<path fill="#FFFCF8" d="M454.7,166.5v4.2h-5.9v-4.2H454.7z M454.7,172.6v17h-5.9v-17H454.7z"/>
		<path fill="#FFFCF8" d="M474.2,183.1c-0.1,1-0.3,2-0.7,2.9c-0.3,0.9-0.8,1.6-1.5,2.2c-0.6,0.6-1.5,1.1-2.4,1.4
			c-1,0.3-2.1,0.5-3.4,0.5c-1.5,0-2.7-0.2-3.8-0.7c-1.1-0.4-2-1-2.6-1.8c-0.7-0.8-1.2-1.7-1.5-2.8c-0.3-1.1-0.5-2.3-0.5-3.6
			c0-1.4,0.2-2.7,0.6-3.8c0.4-1.1,1-2.1,1.7-2.9c0.7-0.8,1.6-1.4,2.7-1.8c1.1-0.4,2.3-0.6,3.7-0.6c1.3,0,2.3,0.2,3.2,0.5
			c0.9,0.3,1.7,0.8,2.3,1.4c0.6,0.6,1.1,1.2,1.4,2c0.3,0.8,0.6,1.6,0.6,2.5l-5.6,0.6c-0.1-0.6-0.3-1.1-0.6-1.6
			c-0.3-0.4-0.8-0.7-1.6-0.7c-0.9,0-1.5,0.4-2,1.1c-0.4,0.7-0.6,1.8-0.6,3.3c0,1.4,0.2,2.4,0.6,3.2c0.4,0.8,1.1,1.1,2,1.1
			c1.4,0,2.1-0.8,2.3-2.4H474.2z"/>
	</g>
	<g>
		<path fill="#FFFCF8" d="M353.5,253.5v-23.1h9.1c3.8,0,6.8,1,8.7,2.9c2,1.9,3,4.7,3,8.4c0,3.8-1,6.7-3.1,8.8
			c-2.1,2-5.1,3.1-8.9,3.1H353.5z M359.7,248.3h2.6c1.9,0,3.3-0.6,4.2-1.7c0.9-1.1,1.3-2.7,1.3-4.7c0-2-0.4-3.6-1.2-4.6
			c-0.8-1.1-2.1-1.6-4-1.6h-2.9V248.3z"/>
		<path fill="#FFFCF8" d="M383.5,230.4v4.2h-5.9v-4.2H383.5z M383.5,236.5v17h-5.9v-17H383.5z"/>
		<path fill="#FFFCF8" d="M391.8,248.1c0.1,0.7,0.4,1.1,0.9,1.4c0.5,0.2,1.1,0.4,1.8,0.4c0.8,0,1.3-0.1,1.6-0.3
			c0.3-0.2,0.5-0.6,0.5-1c0-0.3-0.1-0.6-0.3-0.8c-0.2-0.2-0.7-0.4-1.3-0.5l-2-0.3c-2.2-0.4-3.8-1-4.8-1.8c-1-0.8-1.5-2-1.5-3.5
			c0-1.8,0.7-3.2,2-4.1c1.3-0.9,3.2-1.4,5.6-1.4c1.4,0,2.5,0.1,3.5,0.4s1.7,0.7,2.3,1.1s1.1,1,1.4,1.7c0.3,0.6,0.6,1.3,0.7,1.9
			l-5.4,0.6c-0.1-0.6-0.4-1-0.7-1.3c-0.4-0.3-1-0.4-1.7-0.4c-0.8,0-1.3,0.1-1.6,0.4c-0.3,0.2-0.5,0.6-0.5,0.9c0,0.3,0.1,0.6,0.4,0.8
			c0.3,0.2,0.8,0.4,1.5,0.5l1.9,0.4c1.2,0.2,2.2,0.5,3,0.8c0.8,0.3,1.5,0.7,1.9,1.1c0.5,0.4,0.8,0.9,1,1.5c0.2,0.6,0.3,1.2,0.3,1.9
			c0,1.9-0.6,3.3-1.9,4.3c-1.3,1-3.2,1.4-5.8,1.4c-1,0-2-0.1-3-0.3c-1-0.2-1.8-0.5-2.6-1c-0.8-0.5-1.4-1.1-1.9-1.8
			c-0.5-0.8-0.8-1.7-0.8-2.9H391.8z"/>
		<path fill="#FFFCF8" d="M411.1,230.4v4.2h-5.9v-4.2H411.1z M411.1,236.5v17h-5.9v-17H411.1z"/>
		<path fill="#FFFCF8" d="M420.5,236.5v2c0.7-0.9,1.5-1.6,2.3-1.9c0.9-0.4,1.8-0.6,2.8-0.6c1.7,0,3.1,0.5,4.1,1.5
			c1,1,1.4,2.6,1.4,4.6v11.4h-5.9v-10.4c0-0.9-0.2-1.5-0.5-1.8c-0.3-0.3-0.8-0.5-1.4-0.5c-0.8,0-1.4,0.2-1.9,0.7
			c-0.2,0.2-0.4,0.5-0.6,0.8c-0.1,0.3-0.2,0.7-0.2,1.3v9.8h-5.9v-17H420.5z"/>
		<path fill="#FFFCF8" d="M436,241.7h-2.7v-4.6h2.7v-0.5c0-2.1,0.6-3.6,1.8-4.8c1.2-1.1,2.8-1.7,4.9-1.7c0.6,0,1.3,0.1,2,0.2
			c0.7,0.1,1.3,0.2,1.9,0.4l-0.7,4.1c-0.3-0.1-0.6-0.1-1-0.2c-0.3-0.1-0.7-0.1-1-0.1c-0.6,0-1.1,0.1-1.5,0.4
			c-0.4,0.3-0.5,0.8-0.5,1.5v0.6h3.7v4.6h-3.7v11.8H436V241.7z"/>
		<path fill="#FFFCF8" d="M464.3,246.4h-11.2c0.1,1.2,0.4,2.1,0.8,2.6c0.4,0.5,1.1,0.8,2.1,0.8c1.5,0,2.4-0.6,2.7-1.8h5.5
			c-0.3,2-1.2,3.5-2.6,4.5c-1.4,1-3.2,1.5-5.5,1.5c-2.9,0-5-0.8-6.4-2.3c-1.4-1.5-2.2-3.7-2.2-6.5c0-1.5,0.2-2.8,0.6-4
			c0.4-1.2,1-2.1,1.7-2.9c0.7-0.8,1.7-1.4,2.7-1.8c1.1-0.4,2.3-0.6,3.6-0.6c1.3,0,2.5,0.2,3.5,0.6s1.9,1,2.6,1.7
			c0.7,0.7,1.2,1.6,1.6,2.7c0.3,1.1,0.5,2.2,0.5,3.5V246.4z M456.1,240.1c-1,0-1.7,0.3-2.2,0.8c-0.5,0.5-0.8,1.2-0.8,2.1h5.8
			c0-1-0.3-1.8-0.7-2.2C457.7,240.4,457,240.1,456.1,240.1z"/>
		<path fill="#FFFCF8" d="M483.2,247c-0.1,1-0.3,2-0.7,2.9s-0.8,1.6-1.5,2.2c-0.6,0.6-1.5,1.1-2.4,1.4c-1,0.3-2.1,0.5-3.4,0.5
			c-1.5,0-2.7-0.2-3.8-0.7c-1.1-0.4-2-1-2.6-1.8c-0.7-0.8-1.2-1.7-1.5-2.8c-0.3-1.1-0.5-2.3-0.5-3.6c0-1.4,0.2-2.7,0.6-3.8
			c0.4-1.1,1-2.1,1.7-2.9c0.7-0.8,1.6-1.4,2.7-1.8c1.1-0.4,2.3-0.6,3.7-0.6c1.3,0,2.3,0.2,3.2,0.5c0.9,0.3,1.7,0.8,2.3,1.4
			c0.6,0.6,1.1,1.2,1.4,2c0.3,0.8,0.6,1.6,0.6,2.5l-5.6,0.6c-0.1-0.6-0.3-1.1-0.6-1.6c-0.3-0.4-0.8-0.7-1.6-0.7
			c-0.9,0-1.5,0.4-2,1.1c-0.4,0.7-0.6,1.8-0.6,3.3c0,1.4,0.2,2.4,0.6,3.2c0.4,0.8,1.1,1.1,2,1.1c1.4,0,2.1-0.8,2.3-2.4H483.2z"/>
		<path fill="#FFFCF8" d="M487.6,241.1h-2.7v-4.6h2.7V232h5.9v4.5h3.7v4.6h-3.7v6.1c0,0.8,0.2,1.3,0.5,1.6c0.3,0.3,0.8,0.4,1.4,0.4
			c0.5,0,1-0.1,1.6-0.2l0.7,4.2c-1.3,0.4-2.7,0.6-4,0.6c-2.2,0-3.8-0.5-4.7-1.6c-0.9-1-1.4-2.7-1.4-4.9V241.1z"/>
		<path fill="#FFFCF8" d="M510.1,253.5v-1.8c-0.7,0.7-1.4,1.3-2.3,1.7c-0.8,0.4-1.8,0.6-2.9,0.6c-0.8,0-1.5-0.1-2.2-0.3
			c-0.7-0.2-1.3-0.5-1.8-0.9c-0.5-0.4-1-1-1.3-1.6c-0.3-0.6-0.5-1.4-0.5-2.3c0-1,0.2-1.9,0.6-2.6c0.4-0.7,1-1.3,1.7-1.7
			c0.7-0.4,1.6-0.8,2.6-1c1-0.2,2.1-0.3,3.2-0.4l2.6-0.1v-0.7c0-0.8-0.2-1.4-0.6-1.7c-0.4-0.3-0.9-0.5-1.6-0.5
			c-1.3,0-2.1,0.6-2.3,1.7l-5.3-0.4c0.3-1.8,1.1-3.2,2.4-4c1.3-0.9,3.1-1.3,5.4-1.3c1.4,0,2.6,0.2,3.6,0.5c1,0.3,1.7,0.8,2.3,1.4
			s1,1.3,1.3,2.2c0.3,0.9,0.4,1.8,0.4,2.9v10.6H510.1z M509.9,246.3l-1.9,0.1c-1.2,0.1-2.1,0.3-2.5,0.6c-0.4,0.3-0.7,0.8-0.7,1.4
			c0,0.6,0.2,1,0.5,1.2c0.3,0.2,0.8,0.4,1.4,0.4c0.9,0,1.7-0.3,2.3-0.8c0.6-0.5,0.9-1.3,0.9-2.3V246.3z"/>
		<path fill="#FFFCF8" d="M524.8,236.5v2c0.7-0.9,1.5-1.6,2.3-1.9c0.9-0.4,1.8-0.6,2.8-0.6c1.7,0,3.1,0.5,4.1,1.5
			c1,1,1.4,2.6,1.4,4.6v11.4h-5.9v-10.4c0-0.9-0.2-1.5-0.5-1.8c-0.3-0.3-0.8-0.5-1.4-0.5c-0.8,0-1.4,0.2-1.9,0.7
			c-0.2,0.2-0.4,0.5-0.6,0.8c-0.1,0.3-0.2,0.7-0.2,1.3v9.8h-5.9v-17H524.8z"/>
		<path fill="#FFFCF8" d="M540.3,241.1h-2.7v-4.6h2.7V232h5.9v4.5h3.7v4.6h-3.7v6.1c0,0.8,0.2,1.3,0.5,1.6c0.3,0.3,0.8,0.4,1.4,0.4
			c0.5,0,1-0.1,1.6-0.2l0.7,4.2c-1.3,0.4-2.7,0.6-4,0.6c-2.2,0-3.8-0.5-4.7-1.6c-0.9-1-1.4-2.7-1.4-4.9V241.1z"/>
		<path fill="#FFFCF8" d="M359,259.9v7.8c1.2-1.5,2.8-2.2,4.8-2.2c2.2,0,3.8,0.8,5,2.3c1.2,1.5,1.8,3.7,1.8,6.5
			c0,1.5-0.2,2.8-0.5,3.9c-0.3,1.2-0.8,2.1-1.4,2.9c-0.6,0.8-1.4,1.4-2.3,1.8c-0.9,0.4-1.9,0.6-2.9,0.6c-2,0-3.6-0.8-4.6-2.3v1.8
			h-5.7v-23.1H359z M359,274.7c0,0.8,0.1,1.4,0.2,1.9c0.1,0.5,0.3,0.9,0.5,1.2c0.3,0.4,0.6,0.6,1,0.8c0.4,0.1,0.8,0.2,1.1,0.2
			c0.9,0,1.6-0.3,2.1-1c0.5-0.6,0.8-1.8,0.8-3.4c0-1.6-0.3-2.7-0.8-3.3c-0.5-0.6-1.2-1-2.1-1c-0.4,0-0.8,0.1-1.2,0.2
			c-0.4,0.2-0.7,0.4-1,0.8c-0.5,0.6-0.7,1.6-0.7,2.9V274.7z"/>
		<path fill="#FFFCF8" d="M377.9,266l3.2,9.5l3-9.5h6.1l-6.8,17.1c-0.5,1.1-0.9,2.1-1.3,2.9c-0.4,0.8-0.8,1.4-1.3,1.9
			c-0.5,0.5-1.1,0.9-1.7,1.1c-0.6,0.2-1.4,0.3-2.3,0.3c-0.7,0-1.4-0.1-2-0.2c-0.7-0.1-1.3-0.3-1.8-0.4l0.9-4.2
			c0.3,0.1,0.6,0.1,1,0.2c0.3,0.1,0.7,0.1,1,0.1c0.5,0,1-0.1,1.4-0.4c0.4-0.3,0.7-0.8,1-1.5l0.4-1l-7-15.7H377.9z"/>
		<path fill="#FFFCF8" d="M398,266v1.9c1.2-1.6,2.8-2.4,5-2.4c2.2,0,3.8,0.8,5,2.3c1.2,1.5,1.8,3.7,1.8,6.5c0,1.5-0.2,2.8-0.5,3.9
			c-0.3,1.2-0.8,2.1-1.4,2.9c-0.6,0.8-1.4,1.4-2.3,1.8c-0.9,0.4-1.9,0.6-2.9,0.6c-1.9,0-3.4-0.7-4.5-2v7.8h-5.9V266H398z
			 M398.2,274.7c0,0.8,0.1,1.4,0.2,1.9c0.1,0.5,0.3,0.9,0.5,1.2c0.3,0.4,0.6,0.6,1,0.8c0.4,0.1,0.8,0.2,1.1,0.2c0.9,0,1.6-0.3,2.1-1
			c0.5-0.7,0.8-1.8,0.8-3.3c0-1.5-0.2-2.6-0.7-3.3c-0.5-0.7-1.2-1-2.1-1c-0.4,0-0.8,0.1-1.2,0.2c-0.4,0.2-0.7,0.4-1,0.8
			c-0.5,0.6-0.7,1.6-0.7,2.9V274.7z"/>
		<path fill="#FFFCF8" d="M412.8,266h5.7v2.1c0.6-0.8,1.3-1.4,2.1-1.8c0.8-0.4,1.7-0.6,2.7-0.6c0.6,0,1.2,0.1,1.7,0.2l-0.6,5
			c-0.2-0.1-0.5-0.1-0.8-0.1c-0.3,0-0.6,0-1,0c-0.5,0-0.9,0-1.4,0.1c-0.5,0.1-0.9,0.3-1.2,0.5c-0.4,0.3-0.7,0.7-0.9,1.1
			c-0.2,0.5-0.3,1-0.3,1.8v8.7h-5.9V266z"/>
		<path fill="#FFFCF8" d="M444,274.4c0,2.8-0.8,5-2.3,6.7c-1.6,1.6-3.7,2.4-6.5,2.4c-2.8,0-4.9-0.8-6.4-2.3
			c-1.5-1.6-2.3-3.8-2.3-6.6c0-2.9,0.8-5.1,2.3-6.7c1.6-1.6,3.7-2.4,6.5-2.4c2.8,0,4.9,0.8,6.4,2.3C443.3,269.4,444,271.6,444,274.4
			z M432.3,274.5c0,1.6,0.3,2.7,0.8,3.3c0.5,0.7,1.2,1,2.1,1s1.6-0.3,2.1-1s0.8-1.8,0.8-3.3c0-1.6-0.3-2.7-0.8-3.3s-1.2-1-2.1-1
			s-1.6,0.3-2.1,1C432.6,271.8,432.3,273,432.3,274.5z"/>
		<path fill="#FFFCF8" d="M458.2,283v-1.9c-1.2,1.6-2.9,2.4-5,2.4c-2.2,0-3.9-0.8-5-2.3c-1.2-1.5-1.8-3.7-1.8-6.5
			c0-1.5,0.2-2.8,0.5-3.9c0.3-1.2,0.8-2.1,1.4-2.9c0.6-0.8,1.4-1.4,2.3-1.8c0.9-0.4,1.9-0.6,2.9-0.6c1.9,0,3.4,0.7,4.5,2v-7.6h5.9
			V283H458.2z M458.1,274.3c0-0.8-0.1-1.4-0.2-1.9c-0.1-0.5-0.3-0.9-0.5-1.2c-0.3-0.4-0.6-0.6-1-0.8c-0.4-0.1-0.8-0.2-1.1-0.2
			c-0.9,0-1.6,0.3-2.1,1c-0.5,0.6-0.8,1.8-0.8,3.4c0,1.6,0.3,2.7,0.8,3.3c0.5,0.6,1.2,1,2.1,1c0.4,0,0.8-0.1,1.2-0.2
			c0.4-0.2,0.7-0.4,1-0.8c0.5-0.6,0.7-1.6,0.7-2.9V274.3z"/>
		<path fill="#FFFCF8" d="M478,283v-2c-0.7,0.9-1.4,1.6-2.3,1.9c-0.9,0.4-1.8,0.6-2.8,0.6c-1.7,0-3.1-0.5-4-1.6
			c-0.9-1-1.4-2.6-1.4-4.6V266h5.9v10.4c0,0.9,0.2,1.5,0.5,1.8c0.3,0.3,0.8,0.5,1.4,0.5c0.7,0,1.4-0.2,1.9-0.7
			c0.2-0.2,0.4-0.5,0.5-0.8c0.1-0.3,0.2-0.7,0.2-1.3V266h5.9v17H478z"/>
		<path fill="#FFFCF8" d="M503.2,276.5c-0.1,1-0.3,2-0.7,2.9c-0.3,0.9-0.8,1.6-1.5,2.2c-0.6,0.6-1.5,1.1-2.4,1.4
			c-1,0.3-2.1,0.5-3.4,0.5c-1.5,0-2.7-0.2-3.8-0.7c-1.1-0.4-2-1-2.6-1.8c-0.7-0.8-1.2-1.7-1.5-2.8c-0.3-1.1-0.5-2.3-0.5-3.6
			c0-1.4,0.2-2.7,0.6-3.8c0.4-1.1,1-2.1,1.7-2.9c0.7-0.8,1.6-1.4,2.7-1.8c1.1-0.4,2.3-0.6,3.7-0.6c1.3,0,2.3,0.2,3.2,0.5
			c0.9,0.3,1.7,0.8,2.3,1.4c0.6,0.6,1.1,1.2,1.4,2c0.3,0.8,0.6,1.6,0.6,2.5l-5.6,0.6c-0.1-0.6-0.3-1.1-0.6-1.6
			c-0.3-0.4-0.8-0.7-1.6-0.7c-0.9,0-1.5,0.4-2,1.1c-0.4,0.7-0.6,1.8-0.6,3.3c0,1.4,0.2,2.4,0.6,3.2s1.1,1.1,2,1.1
			c1.4,0,2.1-0.8,2.3-2.4H503.2z"/>
		<path fill="#FFFCF8" d="M507.6,270.6h-2.7V266h2.7v-4.5h5.9v4.5h3.7v4.6h-3.7v6.1c0,0.8,0.2,1.3,0.5,1.6c0.3,0.3,0.8,0.4,1.4,0.4
			c0.5,0,1-0.1,1.6-0.2l0.7,4.2c-1.3,0.4-2.7,0.6-4,0.6c-2.2,0-3.8-0.5-4.7-1.6c-0.9-1-1.4-2.7-1.4-4.9V270.6z"/>
		<path fill="#FFFCF8" d="M524.7,277.6c0.1,0.7,0.4,1.1,0.9,1.4c0.5,0.2,1.1,0.4,1.8,0.4c0.8,0,1.3-0.1,1.6-0.3
			c0.3-0.2,0.5-0.6,0.5-1c0-0.3-0.1-0.6-0.3-0.8c-0.2-0.2-0.7-0.4-1.3-0.5l-2-0.3c-2.2-0.4-3.8-1-4.8-1.8c-1-0.8-1.5-2-1.5-3.5
			c0-1.8,0.7-3.2,2-4.1c1.3-0.9,3.2-1.4,5.6-1.4c1.4,0,2.5,0.1,3.5,0.4c1,0.3,1.7,0.7,2.3,1.1c0.6,0.5,1.1,1,1.4,1.7
			c0.3,0.6,0.6,1.3,0.7,1.9l-5.4,0.6c-0.1-0.6-0.4-1-0.7-1.3c-0.4-0.3-1-0.4-1.7-0.4c-0.8,0-1.3,0.1-1.6,0.4
			c-0.3,0.2-0.5,0.6-0.5,0.9c0,0.3,0.1,0.6,0.4,0.8c0.3,0.2,0.8,0.4,1.5,0.5l1.9,0.4c1.2,0.2,2.2,0.5,3,0.8c0.8,0.3,1.5,0.7,1.9,1.1
			c0.5,0.4,0.8,0.9,1,1.5c0.2,0.6,0.3,1.2,0.3,1.9c0,1.9-0.6,3.3-1.9,4.3c-1.3,1-3.2,1.4-5.8,1.4c-1,0-2-0.1-3-0.3s-1.8-0.5-2.6-1
			c-0.8-0.5-1.4-1.1-1.9-1.8c-0.5-0.8-0.8-1.7-0.8-2.9H524.7z"/>
	</g>
	<g>
		<path fill="#FFFCF8" d="M358.8,69.1h-6.7v-5.3h19.6v5.3H365V87h-6.2V69.1z"/>
		<path fill="#FFFCF8" d="M388.4,78.4c0,2.8-0.8,5-2.3,6.7c-1.6,1.6-3.7,2.4-6.5,2.4c-2.8,0-4.9-0.8-6.4-2.3
			c-1.5-1.6-2.3-3.8-2.3-6.6c0-2.9,0.8-5.1,2.3-6.7c1.6-1.6,3.7-2.4,6.5-2.4c2.8,0,4.9,0.8,6.4,2.3
			C387.7,73.4,388.4,75.6,388.4,78.4z M376.8,78.5c0,1.6,0.3,2.7,0.8,3.3c0.5,0.7,1.2,1,2.1,1s1.6-0.3,2.1-1s0.8-1.8,0.8-3.3
			c0-1.6-0.3-2.7-0.8-3.3s-1.2-1-2.1-1s-1.6,0.3-2.1,1C377,75.8,376.8,76.9,376.8,78.5z"/>
		<path fill="#FFFCF8" d="M392.9,74.5h-2.7V70h2.7v-4.5h5.9V70h3.7v4.6h-3.7v6.1c0,0.8,0.2,1.3,0.5,1.6c0.3,0.3,0.8,0.4,1.4,0.4
			c0.5,0,1-0.1,1.6-0.2l0.7,4.2c-1.3,0.4-2.7,0.6-4,0.6c-2.2,0-3.8-0.5-4.7-1.6c-0.9-1-1.4-2.7-1.4-4.9V74.5z"/>
		<path fill="#FFFCF8" d="M415.5,87v-1.8c-0.7,0.7-1.4,1.3-2.3,1.7c-0.8,0.4-1.8,0.6-2.9,0.6c-0.8,0-1.5-0.1-2.2-0.3
			c-0.7-0.2-1.3-0.5-1.8-0.9c-0.5-0.4-1-1-1.3-1.6c-0.3-0.6-0.5-1.4-0.5-2.3c0-1,0.2-1.9,0.6-2.6c0.4-0.7,1-1.3,1.7-1.7
			c0.7-0.4,1.6-0.8,2.6-1c1-0.2,2.1-0.3,3.2-0.4l2.6-0.1v-0.7c0-0.8-0.2-1.4-0.6-1.7c-0.4-0.3-0.9-0.5-1.6-0.5
			c-1.3,0-2.1,0.6-2.3,1.7l-5.3-0.4c0.3-1.8,1.1-3.2,2.4-4c1.3-0.9,3.1-1.3,5.4-1.3c1.4,0,2.6,0.2,3.6,0.5c1,0.3,1.7,0.8,2.3,1.4
			c0.6,0.6,1,1.3,1.3,2.2s0.4,1.8,0.4,2.9V87H415.5z M415.3,79.8l-1.9,0.1c-1.2,0.1-2.1,0.3-2.5,0.6c-0.4,0.3-0.7,0.8-0.7,1.4
			c0,0.6,0.2,1,0.5,1.2c0.3,0.2,0.8,0.4,1.4,0.4c0.9,0,1.7-0.3,2.3-0.8c0.6-0.5,0.9-1.3,0.9-2.3V79.8z"/>
		<path fill="#FFFCF8" d="M430.4,63.9V87h-5.9V63.9H430.4z"/>
		<path fill="#FFFCF8" d="M369.2,119.3c-0.1,1-0.3,2-0.7,2.9c-0.3,0.9-0.8,1.6-1.5,2.2c-0.6,0.6-1.5,1.1-2.4,1.4
			c-1,0.3-2.1,0.5-3.4,0.5c-1.5,0-2.7-0.2-3.8-0.7c-1.1-0.4-2-1-2.6-1.8c-0.7-0.8-1.2-1.7-1.5-2.8c-0.3-1.1-0.5-2.3-0.5-3.6
			c0-1.4,0.2-2.7,0.6-3.8c0.4-1.1,1-2.1,1.7-2.9c0.7-0.8,1.6-1.4,2.7-1.8c1.1-0.4,2.3-0.6,3.7-0.6c1.3,0,2.3,0.2,3.2,0.5
			c0.9,0.3,1.7,0.8,2.3,1.4c0.6,0.6,1.1,1.2,1.4,2c0.3,0.8,0.6,1.6,0.6,2.5l-5.6,0.6c-0.1-0.6-0.3-1.1-0.6-1.6
			c-0.3-0.4-0.8-0.7-1.6-0.7c-0.9,0-1.5,0.4-2,1.1s-0.6,1.8-0.6,3.3c0,1.4,0.2,2.4,0.6,3.2c0.4,0.8,1.1,1.1,2,1.1
			c1.4,0,2.1-0.8,2.3-2.4H369.2z"/>
		<path fill="#FFFCF8" d="M389,117.2c0,2.8-0.8,5-2.3,6.7c-1.6,1.6-3.7,2.4-6.5,2.4c-2.8,0-4.9-0.8-6.4-2.3
			c-1.5-1.6-2.3-3.8-2.3-6.6c0-2.9,0.8-5.1,2.3-6.7c1.6-1.6,3.7-2.4,6.5-2.4c2.8,0,4.9,0.8,6.4,2.3C388.2,112.2,389,114.4,389,117.2
			z M377.3,117.3c0,1.6,0.3,2.7,0.8,3.3c0.5,0.7,1.2,1,2.1,1s1.6-0.3,2.1-1c0.5-0.7,0.8-1.8,0.8-3.3c0-1.6-0.3-2.7-0.8-3.3
			c-0.5-0.7-1.2-1-2.1-1s-1.6,0.3-2.1,1C377.5,114.6,377.3,115.7,377.3,117.3z"/>
		<path fill="#FFFCF8" d="M397.9,102.7v23.1H392v-23.1H397.9z"/>
		<path fill="#FFFCF8" d="M407.5,102.7v4.2h-5.9v-4.2H407.5z M407.4,108.8v17h-5.9v-17H407.4z"/>
		<path fill="#FFFCF8" d="M412.6,114h-2.7v-4.6h2.7v-0.5c0-2.1,0.6-3.6,1.8-4.8s2.8-1.7,4.9-1.7c0.6,0,1.3,0.1,2,0.2
			c0.7,0.1,1.3,0.2,1.9,0.4l-0.7,4.1c-0.3-0.1-0.6-0.1-1-0.2c-0.3-0.1-0.7-0.1-1-0.1c-0.6,0-1.1,0.1-1.5,0.4
			c-0.4,0.3-0.5,0.8-0.5,1.5v0.6h3.7v4.6h-3.7v11.8h-5.9V114z"/>
		<path fill="#FFFCF8" d="M441.7,117.2c0,2.8-0.8,5-2.3,6.7c-1.6,1.6-3.7,2.4-6.5,2.4c-2.8,0-4.9-0.8-6.4-2.3
			c-1.5-1.6-2.3-3.8-2.3-6.6c0-2.9,0.8-5.1,2.3-6.7c1.6-1.6,3.7-2.4,6.5-2.4c2.8,0,4.9,0.8,6.4,2.3
			C440.9,112.2,441.7,114.4,441.7,117.2z M430,117.3c0,1.6,0.3,2.7,0.8,3.3c0.5,0.7,1.2,1,2.1,1s1.6-0.3,2.1-1
			c0.5-0.7,0.8-1.8,0.8-3.3c0-1.6-0.3-2.7-0.8-3.3c-0.5-0.7-1.2-1-2.1-1s-1.6,0.3-2.1,1C430.2,114.6,430,115.7,430,117.3z"/>
		<path fill="#FFFCF8" d="M444.7,108.8h5.7v2.1c0.6-0.8,1.3-1.4,2.1-1.8c0.8-0.4,1.7-0.6,2.7-0.6c0.6,0,1.2,0.1,1.7,0.2l-0.6,5
			c-0.2-0.1-0.5-0.1-0.8-0.1c-0.3,0-0.6,0-1,0c-0.5,0-0.9,0-1.4,0.1c-0.5,0.1-0.9,0.3-1.2,0.5c-0.4,0.3-0.7,0.7-0.9,1.1
			c-0.2,0.5-0.3,1-0.3,1.8v8.7h-5.9V108.8z"/>
		<path fill="#FFFCF8" d="M469.5,108.3c1.1,0,2,0.2,2.7,0.7c0.8,0.5,1.3,1.1,1.7,2c0.7-0.9,1.5-1.5,2.3-2c0.8-0.4,1.8-0.7,2.9-0.7
			c1.7,0,3,0.5,3.9,1.5c0.9,1,1.4,2.5,1.4,4.6v11.4h-5.9V115c0-0.8-0.1-1.3-0.4-1.5c-0.3-0.3-0.7-0.4-1.2-0.4c-0.3,0-0.6,0-0.9,0.1
			c-0.3,0.1-0.5,0.2-0.7,0.5c-0.2,0.2-0.4,0.4-0.5,0.7c-0.1,0.3-0.2,0.6-0.2,1.1v10.3h-5.9V115c0-0.8-0.1-1.3-0.4-1.5
			c-0.3-0.3-0.7-0.4-1.2-0.4c-0.3,0-0.6,0-0.9,0.1c-0.3,0.1-0.5,0.2-0.7,0.5c-0.2,0.2-0.4,0.4-0.5,0.7s-0.2,0.6-0.2,1.1v10.3H459
			v-17h5.7v2c0.6-0.8,1.2-1.4,2-1.8C467.5,108.5,468.5,108.3,469.5,108.3z"/>
		<path fill="#FFFCF8" d="M492.7,120.4c0.1,0.7,0.4,1.1,0.9,1.4c0.5,0.2,1.1,0.4,1.8,0.4c0.8,0,1.3-0.1,1.6-0.3
			c0.3-0.2,0.5-0.6,0.5-1c0-0.3-0.1-0.6-0.3-0.8c-0.2-0.2-0.7-0.4-1.3-0.5l-2-0.3c-2.2-0.4-3.8-1-4.8-1.8c-1-0.8-1.5-2-1.5-3.5
			c0-1.8,0.7-3.2,2-4.1c1.3-0.9,3.2-1.4,5.6-1.4c1.4,0,2.5,0.1,3.5,0.4c1,0.3,1.7,0.7,2.3,1.1c0.6,0.5,1.1,1,1.4,1.7
			c0.3,0.6,0.6,1.3,0.7,1.9l-5.4,0.6c-0.1-0.6-0.4-1-0.7-1.3c-0.4-0.3-1-0.4-1.7-0.4c-0.8,0-1.3,0.1-1.6,0.4
			c-0.3,0.2-0.5,0.6-0.5,0.9c0,0.3,0.1,0.6,0.4,0.8c0.3,0.2,0.8,0.4,1.5,0.5l1.9,0.4c1.2,0.2,2.2,0.5,3,0.8c0.8,0.3,1.5,0.7,1.9,1.1
			c0.5,0.4,0.8,0.9,1,1.5c0.2,0.6,0.3,1.2,0.3,1.9c0,1.9-0.6,3.3-1.9,4.3c-1.3,1-3.2,1.4-5.8,1.4c-1,0-2-0.1-3-0.3
			c-1-0.2-1.8-0.5-2.6-1c-0.8-0.5-1.4-1.1-1.9-1.8c-0.5-0.8-0.8-1.7-0.8-2.9H492.7z"/>
	</g>
	<g>
		<path fill="#FFFCF8" d="M352.5,0H369v5.1h-10.5v3.7h9.8v5.1h-9.8V18h11.2l-0.5,5.1h-16.7V0z"/>
		<path fill="#FFFCF8" d="M373.1,16.9h5.6v6.2h-5.6V16.9z"/>
		<path fill="#FFFCF8" d="M405,16.6c-0.1,1-0.3,2-0.7,2.9c-0.3,0.9-0.8,1.6-1.5,2.2c-0.6,0.6-1.5,1.1-2.4,1.4
			c-1,0.3-2.1,0.5-3.4,0.5c-1.5,0-2.7-0.2-3.8-0.7c-1.1-0.4-2-1-2.6-1.8c-0.7-0.8-1.2-1.7-1.5-2.8c-0.3-1.1-0.5-2.3-0.5-3.6
			c0-1.4,0.2-2.7,0.6-3.8c0.4-1.1,1-2.1,1.7-2.9c0.7-0.8,1.6-1.4,2.7-1.8c1.1-0.4,2.3-0.6,3.7-0.6c1.3,0,2.3,0.2,3.2,0.5
			c0.9,0.3,1.7,0.8,2.3,1.4s1.1,1.2,1.4,2c0.3,0.8,0.6,1.6,0.6,2.5l-5.6,0.6c-0.1-0.6-0.3-1.1-0.6-1.6c-0.3-0.4-0.8-0.7-1.6-0.7
			c-0.9,0-1.5,0.4-2,1.1c-0.4,0.7-0.6,1.8-0.6,3.3c0,1.4,0.2,2.4,0.6,3.2s1.1,1.1,2,1.1c1.4,0,2.1-0.8,2.3-2.4H405z"/>
		<path fill="#FFFCF8" d="M424.8,14.5c0,2.8-0.8,5-2.3,6.7c-1.6,1.6-3.7,2.4-6.5,2.4c-2.8,0-4.9-0.8-6.4-2.3s-2.3-3.8-2.3-6.6
			c0-2.9,0.8-5.1,2.3-6.7c1.6-1.6,3.7-2.4,6.5-2.4c2.8,0,4.9,0.8,6.4,2.3C424,9.5,424.8,11.7,424.8,14.5z M413.1,14.6
			c0,1.6,0.3,2.7,0.8,3.3c0.5,0.7,1.2,1,2.1,1s1.6-0.3,2.1-1c0.5-0.7,0.8-1.8,0.8-3.3c0-1.6-0.3-2.7-0.8-3.3c-0.5-0.7-1.2-1-2.1-1
			s-1.6,0.3-2.1,1C413.3,11.9,413.1,13.1,413.1,14.6z"/>
		<path fill="#FFFCF8" d="M433.7,0v23.1h-5.9V0H433.7z"/>
		<path fill="#FFFCF8" d="M443.2,0v4.2h-5.9V0H443.2z M443.2,6.1v17h-5.9v-17H443.2z"/>
	</g>
	<path fill="#E8513A" d="M69.7,146.4c0.1,0,0.3,0,0.4,0.1c0.1,0.1,0.2,0.2,0.2,0.3l0.1,0.7c0,0.1,0,0.3-0.1,0.4
		c-0.1,0.1-0.2,0.2-0.3,0.2l-1.9,0.2l1.1,1.6c0.1,0.1,0.1,0.2,0.1,0.4c0,0.1-0.1,0.2-0.2,0.3l-0.6,0.4c-0.1,0.1-0.2,0.1-0.4,0.1
		c-0.1,0-0.2-0.1-0.3-0.2l-1.2-1.6l-0.8,1.8c-0.1,0.1-0.1,0.2-0.3,0.3c-0.1,0-0.2,0-0.4,0l-0.7-0.3c-0.1-0.1-0.2-0.1-0.3-0.3
		c0-0.1,0-0.2,0-0.4l0.8-1.8l-1.9,0.2c-0.1,0-0.3,0-0.4-0.1c-0.1-0.1-0.2-0.2-0.2-0.3l-0.1-0.7c0-0.1,0-0.3,0.1-0.4
		c0.1-0.1,0.2-0.2,0.3-0.2l1.9-0.2l-1.1-1.6c-0.1-0.1-0.1-0.2-0.1-0.4c0-0.1,0.1-0.2,0.2-0.3l0.6-0.4c0.1-0.1,0.2-0.1,0.4-0.1
		c0.1,0,0.2,0.1,0.3,0.2l1.2,1.6l0.8-1.8c0.1-0.1,0.1-0.2,0.3-0.3c0.1-0.1,0.2-0.1,0.4,0l0.7,0.3c0.1,0.1,0.2,0.1,0.3,0.3
		c0,0.1,0,0.2,0,0.4l-0.8,1.8L69.7,146.4L69.7,146.4z"/>
	<path fill="#E8513A" d="M109.5,183.1c0.1,0.1,0.1,0.2,0.1,0.4c0,0.1-0.1,0.2-0.2,0.3l-0.6,0.4c-0.1,0.1-0.2,0.1-0.4,0.1
		c-0.1,0-0.2-0.1-0.3-0.2l-1-1.7l-1,1.7c-0.1,0.1-0.2,0.2-0.3,0.2c-0.1,0-0.3,0-0.4-0.1l-0.6-0.3c-0.1-0.1-0.2-0.2-0.2-0.3
		c0-0.1,0-0.2,0-0.4l1-1.7l-1.9,0c-0.1,0-0.3,0-0.3-0.1c-0.1-0.1-0.1-0.2-0.1-0.3l0-0.7c0-0.1,0.1-0.2,0.1-0.3
		c0.1-0.1,0.2-0.1,0.3-0.1l1.9,0l-1-1.7c-0.1-0.1-0.1-0.2-0.1-0.4c0-0.1,0.1-0.2,0.2-0.3l0.6-0.4c0.1-0.1,0.2-0.1,0.4-0.1
		c0.1,0,0.2,0.1,0.3,0.2l1,1.7l1-1.7c0.1-0.1,0.2-0.2,0.3-0.2c0.1,0,0.2,0,0.4,0l0.6,0.3c0.1,0.1,0.2,0.2,0.2,0.3c0,0.1,0,0.2,0,0.4
		l-1,1.7l1.9,0c0.1,0,0.2,0.1,0.3,0.1c0.1,0.1,0.1,0.2,0.1,0.3l0,0.7c0,0.1,0,0.3-0.1,0.3c-0.1,0.1-0.2,0.1-0.3,0.1l-1.9,0
		L109.5,183.1L109.5,183.1z"/>
	<path fill="#8ABABA" d="M93.9,205c0-0.1,0-0.1-0.1-0.1c0,0-0.1-0.1-0.1-0.1h-1.2c-0.1,0-0.1,0-0.1,0.1c0,0-0.1,0.1-0.1,0.1v1.2
		c0,0.1,0,0.1,0.1,0.1c0,0,0.1,0.1,0.1,0.1h1.2c0.1,0,0.1,0,0.1-0.1c0,0,0.1-0.1,0.1-0.2V205z"/>
	<path fill="#8ABABA" d="M100.8,222.5c0.2,0,0.3,0,0.4,0.1s0.3,0.1,0.4,0.2c0.1,0.1,0.2,0.2,0.2,0.4c0.1,0.1,0.1,0.3,0.1,0.4
		c0,0.2,0,0.3-0.1,0.4c-0.1,0.1-0.1,0.3-0.2,0.4c-0.1,0.1-0.2,0.2-0.4,0.2c-0.1,0.1-0.3,0.1-0.4,0.1c-0.2,0-0.3,0-0.4-0.1
		c-0.1-0.1-0.3-0.1-0.4-0.2c-0.1-0.1-0.2-0.2-0.2-0.4c-0.1-0.1-0.1-0.3-0.1-0.4c0-0.2,0-0.3,0.1-0.4c0.1-0.1,0.1-0.3,0.2-0.4
		c0.1-0.1,0.2-0.2,0.4-0.2C100.5,222.5,100.7,222.5,100.8,222.5z"/>
	<path fill="#8ABABA" d="M57.9,172.3c0,0-0.1,0.1-0.1,0.1c0,0.1,0,0.1,0,0.2l0.7,1c0,0,0.1,0.1,0.1,0.1c0.1,0,0.1,0,0.2,0l1-0.7
		c0,0,0.1-0.1,0.1-0.1c0-0.1,0-0.1,0-0.2l-0.7-1c0,0-0.1-0.1-0.1-0.1c-0.1,0-0.1,0-0.2,0L57.9,172.3z"/>
	<path fill="#8ABABA" d="M105.8,162.2c-0.1-0.1-0.1-0.3-0.2-0.4c0-0.1,0-0.3,0-0.4c0-0.1,0.1-0.3,0.2-0.4c0.1-0.1,0.2-0.2,0.3-0.3
		c0.1-0.1,0.3-0.1,0.4-0.2c0.1,0,0.3,0,0.4,0c0.1,0,0.3,0.1,0.4,0.2c0.1,0.1,0.2,0.2,0.3,0.3c0.1,0.1,0.1,0.3,0.2,0.4
		c0,0.1,0,0.3,0,0.4c0,0.1-0.1,0.3-0.2,0.4c-0.1,0.1-0.2,0.2-0.3,0.3c-0.1,0.1-0.3,0.1-0.4,0.2c-0.1,0-0.3,0-0.4,0
		c-0.1,0-0.3-0.1-0.4-0.2C106,162.5,105.9,162.4,105.8,162.2z"/>
	<path fill="#8ABABA" d="M121.9,214.1c0.2,0,0.3,0,0.4,0.1s0.3,0.1,0.4,0.2c0.1,0.1,0.2,0.2,0.2,0.4c0.1,0.1,0.1,0.3,0.1,0.4
		c0,0.2,0,0.3-0.1,0.4c-0.1,0.1-0.1,0.3-0.2,0.4c-0.1,0.1-0.2,0.2-0.4,0.2c-0.1,0.1-0.3,0.1-0.4,0.1c-0.2,0-0.3,0-0.4-0.1
		c-0.1-0.1-0.3-0.1-0.4-0.2c-0.1-0.1-0.2-0.2-0.2-0.4c-0.1-0.1-0.1-0.3-0.1-0.4c0-0.2,0-0.3,0.1-0.4c0.1-0.1,0.1-0.3,0.2-0.4
		c0.1-0.1,0.2-0.2,0.4-0.2C121.6,214.1,121.8,214.1,121.9,214.1z"/>
</g>
</svg>
