<?xml version="1.0" encoding="utf-8"?>
<!-- Generator: Adobe Illustrator 18.1.1, SVG Export Plug-In . SVG Version: 6.00 Build 0)  -->
<!DOCTYPE svg PUBLIC "-//W3C//DTD SVG 1.1//EN" "http://www.w3.org/Graphics/SVG/1.1/DTD/svg11.dtd">
<svg version="1.1" xmlns="http://www.w3.org/2000/svg" xmlns:xlink="http://www.w3.org/1999/xlink" x="0px" y="0px" width="522.5px"
	 height="308.1px" viewBox="0 0 522.5 308.1" enable-background="new 0 0 522.5 308.1" xml:space="preserve">
<g id="Layer_1">
	<g>
		<g>
			<path fill="#FFFCF8" d="M180.7,25.2c-1.8-0.6-46-14.1-89.9-14.1c-44,0-86,13.5-87.8,14.1c-2,0.7-3.2,2.6-2.9,4.7l37.9,255.4
				c0.3,2.1,2.1,3.7,4.2,3.7h99.5c2.1,0,3.9-1.5,4.2-3.7l37.9-255.4C184,27.8,182.7,25.8,180.7,25.2z M45.8,280.4L9,32.3
				c11-3.2,46.2-12.6,81.7-12.6c35.7,0,72.6,9.5,83.9,12.7l-36.8,248.1H45.8z"/>
			<path fill="#8ABABA" d="M153.4,97.9c-0.5-0.3-11.3-7.5-29.9-7.5c-10.7,0-21.9,2.4-33.2,7.1c-10.3,4.3-20.3,6.4-29.9,6.4
				c-15.9,0-25.1-6-25.1-6c-1.4-1-3.3-1-4.7-0.1c-1.4,0.9-2.2,2.6-2,4.3l24.6,165.6c0.3,2.1,2.1,3.6,4.2,3.6h69.1
				c2.1,0,3.9-1.5,4.2-3.6l24.6-165.6C155.4,100.5,154.7,98.8,153.4,97.9z M61,262.7l-22.9-154c5.1,1.9,12.6,3.8,22.1,3.8
				c10.7,0,21.9-2.4,33.2-7.1c10.3-4.3,20.3-6.5,29.9-6.5c11.3,0,19.2,3,22.9,4.8l-23.6,159H61z"/>
			<path fill="#FFFCF8" d="M156.6,38.2c-0.2,0-18,2.9-40.1,4.5L66.9,43c-22-1.3-39.5-3.9-39.7-4c-2.3-0.3-4.5,1.3-4.9,3.6
				c-0.3,2.3,1.3,4.5,3.6,4.9c0.3,0.1,31.7,4.8,63.6,4.8h2.2c32.6-0.2,65.9-5.6,66.2-5.6c2.3-0.4,3.9-2.6,3.6-4.9
				C161.1,39.4,158.9,37.8,156.6,38.2z"/>
		</g>
		<path fill="#E8513A" d="M129.4,125.4c0.1,0,0.2,0.1,0.3,0.2c0.1,0.1,0.1,0.2,0,0.3l-0.2,0.7c0,0.1-0.1,0.2-0.2,0.3
			c-0.1,0.1-0.2,0.1-0.4,0l-1.8-0.5l0.4,1.8c0,0.1,0,0.2,0,0.4c-0.1,0.1-0.2,0.2-0.3,0.2l-0.7,0.2c-0.1,0-0.2,0-0.4,0
			c-0.1-0.1-0.2-0.2-0.2-0.3l-0.4-1.8l-1.3,1.3c-0.1,0.1-0.2,0.1-0.3,0.1c-0.1,0-0.2,0-0.3-0.1l-0.5-0.5c-0.1-0.1-0.1-0.2-0.1-0.3
			c0-0.1,0-0.2,0.1-0.3l1.3-1.3l-1.8-0.5c-0.1,0-0.2-0.1-0.3-0.2c-0.1-0.1-0.1-0.2,0-0.3l0.2-0.7c0-0.1,0.1-0.2,0.2-0.3
			c0.1-0.1,0.2-0.1,0.4,0l1.8,0.5l-0.4-1.8c0-0.1,0-0.2,0-0.3c0.1-0.1,0.2-0.2,0.3-0.2l0.7-0.2c0.1,0,0.2,0,0.4,0
			c0.1,0.1,0.2,0.2,0.2,0.3l0.4,1.8l1.3-1.3c0.1-0.1,0.2-0.1,0.3-0.1c0.1,0,0.2,0,0.3,0.1l0.5,0.5c0.1,0.1,0.1,0.2,0.1,0.3
			c0,0.1,0,0.2-0.1,0.3l-1.3,1.3L129.4,125.4L129.4,125.4z"/>
		<path fill="#8ABABA" d="M59.6,129.4c0.1,0,0.3,0,0.4,0.1s0.2,0.1,0.3,0.2c0.1,0.1,0.2,0.2,0.2,0.3c0.1,0.1,0.1,0.3,0.1,0.4
			c0,0.1,0,0.3-0.1,0.4c-0.1,0.1-0.1,0.2-0.2,0.3c-0.1,0.1-0.2,0.2-0.3,0.2c-0.1,0.1-0.3,0.1-0.4,0.1c-0.1,0-0.3,0-0.4-0.1
			c-0.1-0.1-0.2-0.1-0.3-0.2c-0.1-0.1-0.2-0.2-0.2-0.3c-0.1-0.1-0.1-0.3-0.1-0.4c0-0.1,0-0.3,0.1-0.4c0.1-0.1,0.1-0.2,0.2-0.3
			c0.1-0.1,0.2-0.2,0.3-0.2C59.3,129.4,59.4,129.4,59.6,129.4z"/>
		<path fill="#E8513A" d="M107.7,246.8c0.1,0.1,0.1,0.2,0,0.3c0,0.1-0.1,0.2-0.2,0.3l-0.6,0.3c-0.1,0.1-0.2,0.1-0.3,0
			c-0.1,0-0.2-0.1-0.3-0.2l-0.9-1.6l-0.9,1.6c-0.1,0.1-0.2,0.2-0.3,0.2c-0.1,0-0.2,0-0.4,0l-0.6-0.3c-0.1-0.1-0.2-0.2-0.2-0.3
			c0-0.1,0-0.2,0-0.3l0.9-1.6l-1.8,0c-0.1,0-0.2,0-0.3-0.1c-0.1-0.1-0.1-0.2-0.1-0.3l0-0.7c0-0.1,0.1-0.2,0.1-0.3
			c0.1-0.1,0.2-0.1,0.3-0.1l1.8,0L103,242c-0.1-0.1-0.1-0.2-0.1-0.3c0-0.1,0.1-0.2,0.2-0.3l0.6-0.3c0.1-0.1,0.2-0.1,0.3,0
			c0.1,0,0.2,0.1,0.3,0.2l0.9,1.6l0.9-1.6c0.1-0.1,0.2-0.2,0.3-0.2c0.1,0,0.2,0,0.4,0l0.6,0.3c0.1,0.1,0.2,0.2,0.2,0.3
			c0,0.1,0,0.2,0,0.3l-0.9,1.6l1.8,0c0.1,0,0.2,0.1,0.3,0.1c0.1,0.1,0.1,0.2,0.1,0.3l0,0.7c0,0.1,0,0.2-0.1,0.3
			c-0.1,0.1-0.2,0.1-0.3,0.1l-1.8,0L107.7,246.8L107.7,246.8z"/>
		<path fill="#8ABABA" d="M68.4,123.3c0-0.1,0-0.1-0.1-0.1c0,0-0.1-0.1-0.1-0.1H67c-0.1,0-0.1,0-0.1,0.1c0,0-0.1,0.1-0.1,0.1v1.1
			c0,0.1,0,0.1,0.1,0.1c0,0,0.1,0.1,0.1,0.1h1.2c0.1,0,0.1,0,0.1-0.1c0,0,0.1-0.1,0.1-0.1V123.3z"/>
		<path fill="#8ABABA" d="M125.5,161.8c0-0.1,0-0.1-0.1-0.1c0,0-0.1-0.1-0.1-0.1h-1.2c-0.1,0-0.1,0-0.1,0.1c0,0-0.1,0.1-0.1,0.1v1.1
			c0,0.1,0,0.1,0.1,0.1c0,0,0.1,0.1,0.1,0.1h1.2c0.1,0,0.1,0,0.1-0.1c0,0,0.1-0.1,0.1-0.1V161.8z"/>
		<path fill="#8ABABA" d="M69.9,230.8c0-0.1,0-0.1-0.1-0.1c0,0-0.1-0.1-0.1-0.1h-1.2c-0.1,0-0.1,0-0.1,0.1c0,0-0.1,0.1-0.1,0.1v1.1
			c0,0.1,0,0.1,0.1,0.1c0,0,0.1,0.1,0.1,0.1h1.2c0.1,0,0.1,0,0.1-0.1c0,0,0.1-0.1,0.1-0.1V230.8z"/>
		<path fill="#8ABABA" d="M106.9,113.1c0.1,0,0.3,0,0.4,0.1c0.1,0.1,0.2,0.1,0.3,0.2c0.1,0.1,0.2,0.2,0.2,0.3
			c0.1,0.1,0.1,0.3,0.1,0.4c0,0.1,0,0.3-0.1,0.4c-0.1,0.1-0.1,0.2-0.2,0.3c-0.1,0.1-0.2,0.2-0.3,0.2c-0.1,0.1-0.3,0.1-0.4,0.1
			c-0.1,0-0.3,0-0.4-0.1c-0.1-0.1-0.2-0.1-0.3-0.2c-0.1-0.1-0.2-0.2-0.2-0.3c-0.1-0.1-0.1-0.3-0.1-0.4c0-0.1,0-0.3,0.1-0.4
			c0.1-0.1,0.1-0.2,0.2-0.3c0.1-0.1,0.2-0.2,0.3-0.2C106.6,113.1,106.7,113.1,106.9,113.1z"/>
		<path fill="#8ABABA" d="M63.3,175.8c0.1,0,0.3,0,0.4,0.1c0.1,0.1,0.2,0.1,0.3,0.2c0.1,0.1,0.2,0.2,0.2,0.3
			c0.1,0.1,0.1,0.3,0.1,0.4c0,0.1,0,0.3-0.1,0.4c-0.1,0.1-0.1,0.2-0.2,0.3c-0.1,0.1-0.2,0.2-0.3,0.2c-0.1,0.1-0.3,0.1-0.4,0.1
			c-0.1,0-0.3,0-0.4-0.1c-0.1-0.1-0.2-0.1-0.3-0.2c-0.1-0.1-0.2-0.2-0.2-0.3c-0.1-0.1-0.1-0.3-0.1-0.4c0-0.1,0-0.3,0.1-0.4
			c0.1-0.1,0.1-0.2,0.2-0.3c0.1-0.1,0.2-0.2,0.3-0.2C63,175.8,63.2,175.8,63.3,175.8z"/>
		<path fill="#8ABABA" d="M101.3,119.7c0.1,0,0.3,0,0.4,0.1c0.1,0.1,0.2,0.1,0.3,0.2c0.1,0.1,0.2,0.2,0.2,0.3
			c0.1,0.1,0.1,0.3,0.1,0.4c0,0.1,0,0.3-0.1,0.4c-0.1,0.1-0.1,0.2-0.2,0.3c-0.1,0.1-0.2,0.2-0.3,0.2c-0.1,0.1-0.3,0.1-0.4,0.1
			s-0.3,0-0.4-0.1c-0.1-0.1-0.2-0.1-0.3-0.2c-0.1-0.1-0.2-0.2-0.2-0.3c-0.1-0.1-0.1-0.3-0.1-0.4c0-0.1,0-0.3,0.1-0.4
			c0.1-0.1,0.1-0.2,0.2-0.3c0.1-0.1,0.2-0.2,0.3-0.2C101,119.7,101.1,119.7,101.3,119.7z"/>
		<path fill="#8ABABA" d="M76.5,247.4c0.1,0,0.3,0,0.4,0.1c0.1,0.1,0.2,0.1,0.3,0.2c0.1,0.1,0.2,0.2,0.2,0.3
			c0.1,0.1,0.1,0.3,0.1,0.4s0,0.3-0.1,0.4c-0.1,0.1-0.1,0.2-0.2,0.3c-0.1,0.1-0.2,0.2-0.3,0.2c-0.1,0.1-0.3,0.1-0.4,0.1
			c-0.1,0-0.3,0-0.4-0.1c-0.1-0.1-0.2-0.1-0.3-0.2c-0.1-0.1-0.2-0.2-0.2-0.3c-0.1-0.1-0.1-0.3-0.1-0.4s0-0.3,0.1-0.4
			c0.1-0.1,0.1-0.2,0.2-0.3c0.1-0.1,0.2-0.2,0.3-0.2C76.2,247.4,76.3,247.4,76.5,247.4z"/>
		
			<polyline fill="none" stroke="#FFFCF8" stroke-width="2" stroke-linecap="round" stroke-linejoin="round" stroke-miterlimit="10" points="
			130.6,120 227.9,16.5 316.3,16.5 		"/>
		
			<polyline fill="none" stroke="#FFFCF8" stroke-width="2" stroke-linecap="round" stroke-linejoin="round" stroke-miterlimit="10" points="
			71.3,144.5 227.9,144.5 276.1,89.5 319.3,89.5 		"/>
		
			<line fill="none" stroke="#FFFCF8" stroke-width="2" stroke-linecap="round" stroke-linejoin="round" stroke-miterlimit="10" x1="110.3" y1="175.5" x2="316.3" y2="175.5"/>
		
			<line fill="none" stroke="#FFFCF8" stroke-width="2" stroke-linecap="round" stroke-linejoin="round" stroke-miterlimit="10" x1="113.3" y1="244.5" x2="316.3" y2="244.5"/>
		<text transform="matrix(1 0 0 1 333.3239 184.2952)" fill="#FFFCF8" font-family="'AktivGrotesk-XBold'" font-size="30.7252">Arsenic</text>
		<text transform="matrix(1 0 0 1 333.3239 244.871)"><tspan x="0" y="0" fill="#FFFCF8" font-family="'AktivGrotesk-XBold'" font-size="30.7252">Disinfectant</tspan><tspan x="0" y="28" fill="#FFFCF8" font-family="'AktivGrotesk-XBold'" font-size="30.7252">byproducts</tspan></text>
		<text transform="matrix(1 0 0 1 333.3239 86.9075)"><tspan x="0" y="0" fill="#FFFCF8" font-family="'AktivGrotesk-XBold'" font-size="30.7252">Total</tspan><tspan x="0" y="36.8" fill="#FFFCF8" font-family="'AktivGrotesk-XBold'" font-size="30.7252">Coliforms</tspan></text>
		<text transform="matrix(1 0 0 1 332.323 26.3311)" fill="#FFFCF8" font-family="'AktivGrotesk-XBold'" font-size="30.7252">E.Coli</text>
		<path fill="#E8513A" d="M66.1,143.2c0.1,0,0.2,0,0.3,0.1c0.1,0.1,0.2,0.2,0.2,0.3l0.1,0.7c0,0.1,0,0.2-0.1,0.3
			c-0.1,0.1-0.2,0.2-0.3,0.2l-1.8,0.2l1.1,1.5c0.1,0.1,0.1,0.2,0.1,0.3c0,0.1-0.1,0.2-0.2,0.3l-0.5,0.4c-0.1,0.1-0.2,0.1-0.3,0.1
			c-0.1,0-0.2-0.1-0.3-0.2l-1.1-1.5l-0.7,1.7c-0.1,0.1-0.1,0.2-0.3,0.2c-0.1,0-0.2,0-0.4,0l-0.6-0.3c-0.1-0.1-0.2-0.1-0.2-0.3
			c0-0.1,0-0.2,0-0.3l0.7-1.7l-1.8,0.2c-0.1,0-0.2,0-0.3-0.1c-0.1-0.1-0.2-0.2-0.2-0.3l-0.1-0.7c0-0.1,0-0.2,0.1-0.3
			c0.1-0.1,0.2-0.2,0.3-0.2l1.8-0.2l-1.1-1.5c-0.1-0.1-0.1-0.2-0.1-0.3c0-0.1,0.1-0.2,0.2-0.3l0.5-0.4c0.1-0.1,0.2-0.1,0.3-0.1
			c0.1,0,0.2,0.1,0.3,0.2l1.1,1.5l0.7-1.7c0.1-0.1,0.1-0.2,0.3-0.2c0.1,0,0.2,0,0.3,0l0.6,0.3c0.1,0.1,0.2,0.1,0.2,0.2
			c0,0.1,0,0.2,0,0.3l-0.7,1.7L66.1,143.2L66.1,143.2z"/>
		<path fill="#E8513A" d="M103.8,178.1c0.1,0.1,0.1,0.2,0.1,0.3c0,0.1-0.1,0.2-0.2,0.3l-0.6,0.3c-0.1,0.1-0.2,0.1-0.3,0
			c-0.1,0-0.2-0.1-0.3-0.2l-0.9-1.6l-0.9,1.6c-0.1,0.1-0.2,0.2-0.3,0.2c-0.1,0-0.2,0-0.4,0l-0.6-0.3c-0.1-0.1-0.2-0.2-0.2-0.3
			c0-0.1,0-0.2,0-0.3l0.9-1.6l-1.8,0c-0.1,0-0.2,0-0.3-0.1c-0.1-0.1-0.1-0.2-0.1-0.3l0-0.7c0-0.1,0-0.2,0.1-0.3
			c0.1-0.1,0.2-0.1,0.3-0.1l1.8,0l-0.9-1.6c-0.1-0.1-0.1-0.2-0.1-0.3c0-0.1,0.1-0.2,0.2-0.3l0.6-0.3c0.1-0.1,0.2-0.1,0.3,0
			c0.1,0,0.2,0.1,0.3,0.2l0.9,1.6l0.9-1.6c0.1-0.1,0.2-0.2,0.3-0.2c0.1,0,0.2,0,0.4,0l0.6,0.3c0.1,0.1,0.2,0.2,0.2,0.3
			c0,0.1,0,0.2,0,0.3l-0.9,1.6l1.8,0c0.1,0,0.2,0,0.3,0.1c0.1,0.1,0.1,0.2,0.1,0.3l0,0.7c0,0.1,0,0.2-0.1,0.3
			c-0.1,0.1-0.2,0.1-0.3,0.1l-1.8,0L103.8,178.1L103.8,178.1z"/>
		<path fill="#8ABABA" d="M89,198.9c0-0.1,0-0.1-0.1-0.1c0,0-0.1-0.1-0.1-0.1h-1.2c-0.1,0-0.1,0-0.1,0.1c0,0-0.1,0.1-0.1,0.1v1.1
			c0,0.1,0,0.1,0.1,0.1c0,0,0.1,0.1,0.1,0.1h1.2c0.1,0,0.1,0,0.1-0.1c0,0,0.1-0.1,0.1-0.1V198.9z"/>
		<path fill="#8ABABA" d="M95.6,215.5c0.1,0,0.3,0,0.4,0.1c0.1,0.1,0.2,0.1,0.3,0.2c0.1,0.1,0.2,0.2,0.2,0.3
			c0.1,0.1,0.1,0.3,0.1,0.4s0,0.3-0.1,0.4c-0.1,0.1-0.1,0.2-0.2,0.3c-0.1,0.1-0.2,0.2-0.3,0.2c-0.1,0.1-0.3,0.1-0.4,0.1
			c-0.1,0-0.3,0-0.4-0.1c-0.1-0.1-0.2-0.1-0.3-0.2c-0.1-0.1-0.2-0.2-0.2-0.3c-0.1-0.1-0.1-0.3-0.1-0.4s0-0.3,0.1-0.4
			c0.1-0.1,0.1-0.2,0.2-0.3c0.1-0.1,0.2-0.2,0.3-0.2C95.3,215.5,95.5,215.5,95.6,215.5z"/>
		<path fill="#8ABABA" d="M54.9,167.9c0,0-0.1,0.1-0.1,0.1c0,0.1,0,0.1,0,0.2l0.7,1c0,0,0.1,0.1,0.1,0.1c0.1,0,0.1,0,0.1,0l1-0.6
			c0,0,0.1-0.1,0.1-0.1c0-0.1,0-0.1,0-0.2l-0.7-1c0,0-0.1-0.1-0.1-0.1c-0.1,0-0.1,0-0.2,0L54.9,167.9z"/>
		<path fill="#8ABABA" d="M100.4,158.3c-0.1-0.1-0.1-0.3-0.2-0.4c0-0.1,0-0.3,0-0.4c0-0.1,0.1-0.3,0.2-0.4c0.1-0.1,0.2-0.2,0.3-0.3
			s0.3-0.1,0.4-0.2c0.1,0,0.3,0,0.4,0c0.1,0,0.3,0.1,0.4,0.2c0.1,0.1,0.2,0.2,0.3,0.3c0.1,0.1,0.1,0.3,0.2,0.4c0,0.1,0,0.3,0,0.4
			c0,0.1-0.1,0.3-0.2,0.4c-0.1,0.1-0.2,0.2-0.3,0.3s-0.3,0.1-0.4,0.2c-0.1,0-0.3,0-0.4,0c-0.1,0-0.3-0.1-0.4-0.2
			C100.6,158.5,100.5,158.4,100.4,158.3z"/>
		<path fill="#8ABABA" d="M115.7,207.5c0.1,0,0.3,0,0.4,0.1c0.1,0.1,0.2,0.1,0.3,0.2c0.1,0.1,0.2,0.2,0.2,0.3
			c0.1,0.1,0.1,0.3,0.1,0.4s0,0.3-0.1,0.4c-0.1,0.1-0.1,0.2-0.2,0.3c-0.1,0.1-0.2,0.2-0.3,0.2c-0.1,0.1-0.3,0.1-0.4,0.1
			c-0.1,0-0.3,0-0.4-0.1c-0.1-0.1-0.2-0.1-0.3-0.2c-0.1-0.1-0.2-0.2-0.2-0.3c-0.1-0.1-0.1-0.3-0.1-0.4s0-0.3,0.1-0.4
			c0.1-0.1,0.1-0.2,0.2-0.3c0.1-0.1,0.2-0.2,0.3-0.2C115.4,207.5,115.5,207.5,115.7,207.5z"/>
	</g>
</g>
<g id="Layer_2" display="none">
</g>
</svg>
