<?xml version="1.0" encoding="utf-8"?>
<!-- Generator: Adobe Illustrator 18.1.1, SVG Export Plug-In . SVG Version: 6.00 Build 0)  -->
<!DOCTYPE svg PUBLIC "-//W3C//DTD SVG 1.1//EN" "http://www.w3.org/Graphics/SVG/1.1/DTD/svg11.dtd">
<svg version="1.1" xmlns="http://www.w3.org/2000/svg" xmlns:xlink="http://www.w3.org/1999/xlink" x="0px" y="0px" width="119.8px"
	 height="160.7px" viewBox="0 0 119.8 160.7" enable-background="new 0 0 119.8 160.7" xml:space="preserve">
<g id="Layer_1">
	<g>
		<g>
			<path fill="#174F65" d="M85.3,13.7H56.8c-7.4,0-14,4.8-14,12.2V140c0,7.4,6.5,14.7,14,14.7h50.5c7.4,0,12.5-7.3,12.5-14.7V63.5
				C119.8,43.9,104.9,13.7,85.3,13.7z M106.8,58.4c0,4-1.2,8.3-4.3,8.3H92c-3.1,0-6.2-4.3-6.2-8.3V37.5c0-4,3.1-5.9,6.2-5.9h1.2
				c8.3,0,13.6,15.6,13.6,26.1V58.4z"/>
		</g>
		<path fill="#8ABABA" d="M72.1,12.4H55.6c-0.6,0-1-0.4-1-1V1c0-0.6,0.4-1,1-1h16.5c0.6,0,1,0.4,1,1v10.4
			C73.1,12,72.6,12.4,72.1,12.4z"/>
		<path fill="#FFFCF8" d="M99.4,137.3H43.7V91h55.7c5,0,9,4,9,9v28.4C108.4,133.3,104.4,137.3,99.4,137.3z"/>
		<g>
			<path fill="#8ABABA" d="M49.5,83.7L32.7,51.7H23l-16,32.1c-0.2,0.6-0.1,1.4-0.1,2v7.7l3,23.8l-3,30.6v6.7c0,3.3,1.4,6.1,3.7,6.1
				h35.1c2.3,0,4.2-2.8,4.2-6.1V85.8C49.8,85.1,49.7,84.4,49.5,83.7z M13.5,92.5L13.5,92.5c-0.3,0.1-0.5,0-0.8,0
				C13,92.6,13.3,92.5,13.5,92.5z M12.8,148.8c0.3,0,0.5,0,0.8,0l0,0.1C13.3,148.8,13,148.8,12.8,148.8z"/>
			<g>
				<polygon fill="#8ABABA" points="65.3,40.3 59.2,41.7 59.2,28.7 65.3,30.1 				"/>
				<path fill="#8ABABA" stroke="#8ABABA" stroke-linejoin="round" stroke-miterlimit="10" d="M56.6,71.2c-3.9-6-4.2-17.1-4.2-17.1
					V41.2h-4.4l-7.2,8.2l4.5-0.2c0,0,1.5,16,9.6,22H56.6z"/>
				<path fill="#E8513A" d="M57.8,28.7H35.1H21.3h-5.9c-0.6,0-1.2,0.1-1.5,0.7L0.1,49.9c-0.2,0.3,0,0.8,0.4,0.8h13.7
					c2.3,0,3.7,1.6,3.7,3.9v0.1h19l11.8-12h9.2V28.7z"/>
				<path fill="#FFFCF8" d="M58.8,42.8L58.8,42.8c-0.8,0-1.4-0.6-1.4-1.4V29c0-0.8,0.6-1.4,1.4-1.4h0c0.8,0,1.4,0.6,1.4,1.4v12.4
					C60.2,42.2,59.6,42.8,58.8,42.8z"/>
			</g>
		</g>
		<path fill="#174F65" d="M38.7,120.7c0-15.5-11.3-28.1-25.6-28.1c-2.2,0-4.3,0.3-6.3,0.9v54.4c2,0.6,4,0.9,6.3,0.9
			C27.4,148.8,38.7,136.2,38.7,120.7z"/>
	</g>
</g>
<g id="Layer_2" display="none">
	<g display="inline">
		<path fill="#174F65" d="M39.6-55.6c-0.1,0-6.7-4.1-18-10.5c-8.6-4.9-23.1,0-35.8,4.2c-3,1-5.9,2-8.6,2.8
			c15-18.1,42.2-17.6,42.6-17.6c0.8,0.1,1.5-0.6,1.5-1.5s-0.6-1.5-1.5-1.5c-0.3,0-32-0.6-47.3,21.8c-0.2,0-0.4,0.1-0.6,0.1
			c-6.5,1.3-12.6,0.3-18.9-0.8c-0.4-0.1-0.8-0.1-1.1-0.2c1.6-1.9,3.2-4.1,4.8-6.4c4.2-5.8,8.9-12.5,14.7-15.2
			c4.3-2,8.5-3.2,12.6-4.3c5.8-1.6,10.8-3,14.3-6.4c0.6-0.6,0.6-1.5,0-2.1s-1.5-0.6-2.1,0c-2.9,2.9-7.6,4.2-13,5.7
			c-4,1.1-8.6,2.4-13.1,4.5c-6.5,3.1-11.5,10.1-15.8,16.2c-2,2.9-4,5.6-5.9,7.6c-4.5-0.7-9.2-1.1-14.3-0.5
			c-5.6,0.6-12.5,4.6-19.2,9.7c-3,0.5-5.9,1.1-8.5,1.8c-3.6,1-6.6,3.1-8.9,5.7l3-6.1c4.9-1,18.4-5.1,23.8-21.2
			c3.6-10.7,10.4-11.4,17.6-12.2c3.1-0.3,6.3-0.7,9.1-1.8c12.5-5.2,18.9-21.4,19.2-22.1c0.3-0.8-0.1-1.6-0.9-1.9
			c-0.8-0.3-1.6,0.1-1.9,0.9c-0.1,0.2-6.2,15.6-17.5,20.4c-2.4,1-5.2,1.3-8.2,1.6c-7.5,0.8-16,1.7-20.1,14.2
			C-82.8-58-92.5-53.6-97.8-52.1l9.1-18.5c2.1-4.2,2.4-8.9,0.9-13.4c-1.5-4.4-4.7-8-8.8-10.1l-2.1-1c-2.4-1.2-5-1.8-7.7-1.8
			c-6.7,0-12.8,3.8-15.7,9.8l-0.7,1.4c-2.5,1.2-8.6,4.2-13.5,7.7c-0.6-0.4-1.2-0.8-1.8-1.2c-3.6-2.4-6.7-4.5-7-8.2
			c-0.2-2.8,1-4.1,2.5-6c2.3-2.7,5.1-5.9,4.5-14.6c-0.1-0.8-0.8-1.5-1.6-1.4c-0.8,0.1-1.4,0.8-1.4,1.6c0.5,7.4-1.7,9.9-3.8,12.4
			c-1.7,2-3.5,4.1-3.2,8.1c0.3,5.2,4.4,7.9,8.3,10.5c0.3,0.2,0.6,0.4,1,0.6c-1.6,1.3-2.9,2.7-3.7,4c-4.9,8.2-3.4,15.6-2.3,21.5
			c0.6,3,1.1,5.7,0.8,8.1l-1.3,2.6c-3.6-0.4-20-1.4-27.2,8.2c-2.3,3-3.8,8.2-5.6,14.7c-2.1,7.4-4.7,16.1-9,23.8
			c-15.7-3.1-36-4.9-50.8,11.4c-3.1,3.5-6,7.4-8.6,11.3c-12,0.5-21.8,1.6-24.4,7.5c-0.3,0.8,0,1.6,0.8,2c0.2,0.1,0.4,0.1,0.6,0.1
			c0.6,0,1.1-0.3,1.4-0.9c1.8-4,9.8-5.1,19.6-5.6c-1.4,2.2-2.8,4.4-4.1,6.6c-6.4,10.4-11.9,19.4-17.8,18.9c-0.8-0.1-1.5,0.6-1.6,1.4
			c-0.1,0.8,0.6,1.5,1.4,1.6c0.2,0,0.4,0,0.6,0c7.3,0,13.2-9.5,19.9-20.4c1.7-2.7,3.4-5.5,5.2-8.3c1.6-0.1,3.2-0.1,4.8-0.2
			c9.8-0.3,20-0.6,28.6-2.7c12.4-3,20.4-10.6,25.8-19.5c1.6,0.3,3.1,0.7,4.7,1c6.7,1.4,11.9,2.6,15.6,2
			c12.3-1.8,19.2-17.7,20.3-20.3c0.8,0.6,1.6,1.1,2.5,1.5l2.1,1c2.4,1.2,5,1.8,7.7,1.8c6.7,0,12.8-3.8,15.7-9.8l3-6.2c0,0,0,0,0,0
			c0,0,3.4,2.7,2.5,10.1c-0.5,3.6-3.9,35.6,20.4,40.4c0.1,0,0.2,0,0.3,0c0.7,0,1.3-0.5,1.5-1.2c0.2-0.8-0.4-1.6-1.2-1.8
			c-8.5-1.7-14.1-7.3-16.8-16.7c-2.5-8.7-1.6-17.8-1.2-20.4c0.8-6.1-1-9.7-2.3-11.5c13.6-11.2,29.9-12.2,44.3-13.2
			c16.2-1,31.5-2,38.6-17.6c0.8-1.7,1.7-3.3,2.6-4.8c3.6-0.9,7.9-2.3,12.3-3.8c12.1-4.1,25.8-8.7,33.3-4.5
			c11.3,6.4,17.9,10.4,18,10.5c0.7,0.4,1.6,0.2,2.1-0.5S40.3-55.2,39.6-55.6z M-212.3,26.8c-8.3,2-18.3,2.3-28,2.6
			c-0.9,0-1.8,0.1-2.6,0.1c2.2-3.2,4.6-6.4,7.1-9.2c13.4-14.9,31.7-13.6,46.9-10.7C-193.9,17.5-201.2,24.1-212.3,26.8z M-65.5-56.8
			c3.8-0.4,7.4-0.3,10.9,0.1c-4.2,2.6-13.1,3.9-21.7,5.2c-0.7,0.1-1.4,0.2-2.1,0.3C-73.8-54.2-69.3-56.4-65.5-56.8z M-125.1-81.3
			l-5.1,10.3c-0.1-0.1-0.1-0.3-0.2-0.4c-0.8-1.9-2.1-3.4-3.6-4.7C-131.1-78-127.8-79.8-125.1-81.3z M-140-70.6
			c0.7-1.2,2-2.4,3.6-3.7c1.5,1.2,2.7,2.5,3.4,4c0.6,1.3,0.5,3,0.2,4.8l-8,16.2l-0.5,1.1c0-0.3-0.1-0.5-0.1-0.8
			c-0.1-0.8-0.3-1.5-0.4-2.3C-143-56.8-144.3-63.3-140-70.6z M-147.9-8.5c-0.1,0.2-6.7,17.1-18,18.8c-3.2,0.5-8.5-0.7-14.5-2
			c-1.2-0.3-2.4-0.5-3.7-0.8c4.3-8,6.8-16.6,8.9-23.6c1.7-6,3.2-11.2,5.2-13.7c5.6-7.5,18.7-7.4,23.4-7.1l-3.9,8
			c-2.1,4.2-2.4,8.9-0.9,13.4c0.9,2.5,2.2,4.7,4,6.6C-147.7-8.9-147.8-8.7-147.9-8.5z M-121.2-15.8l-0.5,1c-0.6,1.2-1.4,2.3-2.3,3.2
			c-0.6,0.6-1.2,1.1-1.8,1.6c-1.7,1.2-3.7,1.9-5.8,2.1c-0.4,0-0.9,0.1-1.3,0.1c-1.9,0-3.8-0.4-5.5-1.3l-2.1-1c-3-1.5-5.2-4-6.3-7.2
			c-1.1-3.2-0.9-6.6,0.6-9.5l1.9-3.8l2.2-4.5l1-2l2.2-4.5l0.8-1.7l2.2-4.5l18.2-37.1c2.1-4.3,6.4-7,11.2-7c1.9,0,3.8,0.4,5.5,1.3
			l2.1,1c3,1.5,5.2,4,6.3,7.2c0.2,0.4,0.3,0.9,0.4,1.4c0.3,1.6,0.4,3.2,0.1,4.8c-0.2,1.2-0.6,2.3-1.1,3.4l-0.3,0.7l-1.5,3.1
			l-1.2,2.5l-2.2,4.5l-1.4,2.8l-2.2,4.5L-121.2-15.8z M-92.8-45.4c0.8-0.2,1.7-0.4,2.6-0.7c-6,5-11.6,10.6-16,15.2
			C-103.9-36.3-99.7-43.4-92.8-45.4z M-30.9-51.7C-37.3-37.8-51-36.9-67-35.8c-12.3,0.8-26,1.7-38.5,8.7C-100-33-92-41-83.9-47.3
			c2.6-0.4,5.3-0.9,8-1.3c9.8-1.5,19-2.8,23.6-6.1c0.6-0.4,1.2-1,1.8-1.5c1,0.2,2.1,0.3,3.1,0.5c5.7,0.9,11.6,1.9,17.9,1.1
			C-30-53.6-30.5-52.7-30.9-51.7z"/>
	</g>
</g>
</svg>
