<?xml version="1.0" encoding="utf-8"?>
<!-- Generator: Adobe Illustrator 18.1.1, SVG Export Plug-In . SVG Version: 6.00 Build 0)  -->
<!DOCTYPE svg PUBLIC "-//W3C//DTD SVG 1.1//EN" "http://www.w3.org/Graphics/SVG/1.1/DTD/svg11.dtd">
<svg version="1.1" id="Layer_1" xmlns="http://www.w3.org/2000/svg" xmlns:xlink="http://www.w3.org/1999/xlink" x="0px" y="0px"
	 width="515px" height="300px" viewBox="0 0 515 300" enable-background="new 0 0 515 300" xml:space="preserve">
<g>
	<g>
		<path fill="#174F65" d="M97,72.8l97,27.4c4.6,1.1,9.1-1.1,10.3-5.7l16-56.5c1.1-4.6-1.1-9.1-5.7-10.3l-97-27.4
			c-4.6-1.1-9.1,1.1-10.3,5.7l-16,56.5C89.6,67.1,92.5,71.7,97,72.8z"/>
		<path fill="#174F65" d="M54.8,212.1l97,27.4c4.6,1.1,9.1-1.1,10.3-5.7l16-56.5c1.1-4.6-1.1-9.1-5.7-10.3l-97-27.4
			c-4.6-1.1-9.1,1.1-10.3,5.7l-16,56.5C48,205.8,50.2,210.4,54.8,212.1z"/>
		<path fill="#174F65" d="M498.9,199.5l-319.1-78.8l2.3-7.4c0.6-2.9-0.6-5.7-3.4-6.3l-73.1-20.6c-2.9-0.6-5.7,0.6-6.3,3.4
			l-10.3,35.4c-0.6,2.9,0.6,5.7,3.4,6.3l73.1,21.1c2.9,0.6,5.7-0.6,6.3-3.4l1.7-6.3l0,0L487,242.3c11.4,3.4,24-3.4,27.4-15.4
			C517.2,214.9,510.4,203,498.9,199.5z"/>
	</g>
	<path fill="#8ABABA" d="M231.8,250.9H18.8C8.6,250.9,0,259.5,0,269.7V300h250v-30.3C250,258.9,242.1,250.9,231.8,250.9z"/>
</g>
</svg>
