<?xml version="1.0" encoding="utf-8"?>
<!-- Generator: Adobe Illustrator 18.1.1, SVG Export Plug-In . SVG Version: 6.00 Build 0)  -->
<!DOCTYPE svg PUBLIC "-//W3C//DTD SVG 1.1//EN" "http://www.w3.org/Graphics/SVG/1.1/DTD/svg11.dtd">
<svg version="1.1" xmlns="http://www.w3.org/2000/svg" xmlns:xlink="http://www.w3.org/1999/xlink" x="0px" y="0px" width="113px"
	 height="170.9px" viewBox="0 0 113 170.9" enable-background="new 0 0 113 170.9" xml:space="preserve">
<g id="Layer_1">
	<g>
		<g>
			<path fill="#174F65" d="M111.1,8.7C110,8.3,82.8,0,55.8,0c-27,0-52.9,8.3-54,8.7c-1.2,0.4-2,1.6-1.8,2.9l23.3,157.1
				c0.2,1.3,1.3,2.3,2.6,2.3h61.2c1.3,0,2.4-1,2.6-2.3L113,11.6C113.2,10.3,112.4,9,111.1,8.7z M28.2,165.6L5.6,13
				c6.7-2,28.4-7.8,50.3-7.8c21.9,0,44.6,5.8,51.6,7.8L84.8,165.6H28.2z"/>
			<path fill="#8ABABA" d="M94.3,53.4c-0.3-0.2-7-4.6-18.4-4.6c-6.6,0-13.5,1.5-20.4,4.4c-6.3,2.6-12.5,4-18.4,4
				c-9.7,0-15.4-3.7-15.4-3.7c-0.9-0.6-2-0.6-2.9-0.1c-0.9,0.6-1.3,1.6-1.2,2.6l15.1,101.8c0.2,1.3,1.3,2.2,2.6,2.2h42.5
				c1.3,0,2.4-1,2.6-2.2L95.4,56C95.6,55,95.1,54,94.3,53.4z M37.5,154.7L23.5,60c3.2,1.2,7.8,2.3,13.6,2.3c6.6,0,13.5-1.5,20.4-4.4
				c6.3-2.7,12.5-4,18.4-4c6.9,0,11.8,1.9,14.1,3l-14.5,97.7H37.5z"/>
			<path fill="#174F65" d="M96.3,16.6c-0.1,0-11.1,1.8-24.7,2.8l-30.5,0.2c-13.5-0.8-24.3-2.4-24.4-2.4c-1.4-0.2-2.8,0.8-3,2.2
				c-0.2,1.4,0.8,2.8,2.2,3c0.2,0,19.5,2.9,39.1,2.9h1.4c20.1-0.1,40.5-3.5,40.7-3.5c1.4-0.2,2.4-1.6,2.2-3
				C99.1,17.4,97.7,16.4,96.3,16.6z"/>
		</g>
		<g>
			<path fill="#E8513A" d="M51.9,107.8v-1.2c0-1.5,0.2-2.9,0.7-4c0.4-1.1,1-2.1,1.6-2.9c0.6-0.8,1.3-1.6,2.1-2.2
				c0.7-0.7,1.4-1.3,2.1-1.9c0.6-0.6,1.2-1.3,1.6-2c0.4-0.7,0.7-1.5,0.7-2.4c0-1.1-0.4-2-1.1-2.7c-0.7-0.6-1.7-0.9-3-0.9
				s-2.4,0.4-3.2,1.1c-0.8,0.7-1.4,1.9-1.6,3.6l-9.9-1c0.5-3.9,2-7.1,4.6-9.4c2.6-2.3,6.2-3.5,10.8-3.5c2.1,0,4.1,0.2,5.8,0.7
				c1.8,0.5,3.3,1.2,4.5,2.2c1.3,0.9,2.2,2.1,2.9,3.5c0.7,1.4,1,3,1,4.7c0,1.1-0.1,2-0.4,2.9s-0.6,1.7-1,2.5c-0.4,0.7-0.9,1.4-1.4,2
				c-0.5,0.6-1.1,1.2-1.6,1.7c-0.9,0.9-1.6,1.6-2.3,2.2c-0.7,0.6-1.2,1.3-1.7,1.9c-0.5,0.6-0.8,1.3-1.1,1.9
				c-0.2,0.7-0.4,1.5-0.4,2.4v0.8H51.9z M51.7,111.1h10v10.2h-10V111.1z"/>
		</g>
		<path fill="#8ABABA" d="M79.3,66.2c0.1,0,0.1,0.1,0.1,0.2c0,0.1,0,0.1,0,0.2l-0.2,0.4c0,0.1-0.1,0.1-0.2,0.1c-0.1,0-0.1,0-0.2,0
			l-1-0.6v1.1c0,0.1,0,0.1-0.1,0.2c-0.1,0.1-0.1,0.1-0.2,0.1h-0.4c-0.1,0-0.1,0-0.2-0.1c-0.1-0.1-0.1-0.1-0.1-0.2v-1.1l-1,0.6
			c-0.1,0-0.1,0-0.2,0c-0.1,0-0.1-0.1-0.2-0.1l-0.2-0.4c0-0.1,0-0.1,0-0.2c0-0.1,0.1-0.1,0.1-0.2l1-0.6l-1-0.6
			c-0.1,0-0.1-0.1-0.1-0.2c0-0.1,0-0.1,0-0.2l0.2-0.4c0-0.1,0.1-0.1,0.2-0.1c0.1,0,0.1,0,0.2,0l1,0.6v-1.1c0-0.1,0-0.1,0.1-0.2
			c0.1-0.1,0.1-0.1,0.2-0.1h0.4c0.1,0,0.1,0,0.2,0.1c0.1,0.1,0.1,0.1,0.1,0.2v1.1l1-0.6c0.1,0,0.1,0,0.2,0c0.1,0,0.1,0.1,0.2,0.1
			l0.2,0.4c0,0.1,0.1,0.1,0,0.2c0,0.1-0.1,0.1-0.1,0.2l-1,0.6L79.3,66.2L79.3,66.2z"/>
		<path fill="#8ABABA" d="M36.6,72.7c0.1,0,0.2,0,0.3,0.1s0.1,0.1,0.2,0.1c0.1,0.1,0.1,0.1,0.1,0.2c0,0.1,0.1,0.2,0.1,0.3
			c0,0.1,0,0.2-0.1,0.3c0,0.1-0.1,0.1-0.1,0.2C37,73.9,37,74,36.9,74c-0.1,0-0.2,0.1-0.3,0.1c-0.1,0-0.2,0-0.3-0.1
			c-0.1,0-0.2-0.1-0.2-0.1c-0.1-0.1-0.1-0.1-0.1-0.2c0-0.1-0.1-0.2-0.1-0.3c0-0.1,0-0.2,0.1-0.3c0-0.1,0.1-0.2,0.1-0.2
			c0.1-0.1,0.1-0.1,0.2-0.1C36.4,72.8,36.5,72.7,36.6,72.7z"/>
		<path fill="#8ABABA" d="M66.1,141.6c0.1,0,0.1,0.1,0.1,0.2c0,0.1,0,0.1,0,0.2l-0.2,0.4c0,0.1-0.1,0.1-0.2,0.1c-0.1,0-0.1,0-0.2,0
			l-1-0.6v1.1c0,0.1,0,0.1-0.1,0.2c-0.1,0.1-0.1,0.1-0.2,0.1H64c-0.1,0-0.1,0-0.2-0.1c-0.1-0.1-0.1-0.1-0.1-0.2v-1.1l-1,0.6
			c-0.1,0-0.1,0-0.2,0c-0.1,0-0.1-0.1-0.2-0.1l-0.2-0.4c0-0.1,0-0.1,0-0.2c0-0.1,0.1-0.1,0.1-0.2l1-0.6l-1-0.6
			c-0.1,0-0.1-0.1-0.1-0.2c0-0.1,0-0.1,0-0.2l0.2-0.4c0-0.1,0.1-0.1,0.2-0.1c0.1,0,0.1,0,0.2,0l1,0.6V139c0-0.1,0-0.1,0.1-0.2
			c0.1-0.1,0.1-0.1,0.2-0.1h0.4c0.1,0,0.1,0,0.2,0.1c0.1,0.1,0.1,0.1,0.1,0.2v1.1l1-0.6c0.1,0,0.1,0,0.2,0c0.1,0,0.1,0.1,0.2,0.1
			l0.2,0.4c0,0.1,0.1,0.1,0,0.2c0,0.1-0.1,0.1-0.1,0.2l-1,0.6L66.1,141.6L66.1,141.6z"/>
		<path fill="#8ABABA" d="M42.1,69C42.1,69,42.1,68.9,42.1,69C42,68.9,42,68.9,42,68.9h-0.7c0,0-0.1,0-0.1,0c0,0,0,0.1,0,0.1v0.7
			c0,0,0,0.1,0,0.1c0,0,0,0,0.1,0H42c0,0,0.1,0,0.1,0c0,0,0-0.1,0-0.1V69z"/>
		<path fill="#8ABABA" d="M79.5,79.6C79.5,79.5,79.5,79.5,79.5,79.6c-0.1-0.1-0.1-0.1-0.1-0.1h-0.7c0,0-0.1,0-0.1,0c0,0,0,0.1,0,0.1
			v0.7c0,0,0,0.1,0,0.1c0,0,0,0,0.1,0h0.7c0,0,0.1,0,0.1,0c0,0,0-0.1,0-0.1V79.6z"/>
		<path fill="#8ABABA" d="M43,135.1C43,135.1,43,135.1,43,135.1c-0.1-0.1-0.1-0.1-0.1-0.1h-0.7c0,0-0.1,0-0.1,0c0,0,0,0.1,0,0.1v0.7
			c0,0,0,0.1,0,0.1c0,0,0,0,0.1,0h0.7c0,0,0.1,0,0.1,0c0,0,0-0.1,0-0.1V135.1z"/>
		<path fill="#8ABABA" d="M65.7,62.7c0.1,0,0.2,0,0.3,0.1c0.1,0,0.1,0.1,0.2,0.1c0.1,0.1,0.1,0.1,0.1,0.2c0,0.1,0.1,0.2,0.1,0.3
			c0,0.1,0,0.2-0.1,0.3c0,0.1-0.1,0.1-0.1,0.2c-0.1,0.1-0.1,0.1-0.2,0.1c-0.1,0-0.2,0.1-0.3,0.1c-0.1,0-0.2,0-0.3-0.1
			c-0.1,0-0.2-0.1-0.2-0.1c-0.1-0.1-0.1-0.1-0.1-0.2c0-0.1-0.1-0.2-0.1-0.3c0-0.1,0-0.2,0.1-0.3c0-0.1,0.1-0.2,0.1-0.2
			c0.1-0.1,0.1-0.1,0.2-0.1C65.6,62.7,65.6,62.7,65.7,62.7z"/>
		<path fill="#8ABABA" d="M38.9,101.3c0.1,0,0.2,0,0.3,0.1s0.1,0.1,0.2,0.1c0.1,0.1,0.1,0.1,0.1,0.2c0,0.1,0.1,0.2,0.1,0.3
			c0,0.1,0,0.2-0.1,0.3c0,0.1-0.1,0.1-0.1,0.2c-0.1,0.1-0.1,0.1-0.2,0.1c-0.1,0-0.2,0.1-0.3,0.1s-0.2,0-0.3-0.1
			c-0.1,0-0.2-0.1-0.2-0.1c-0.1-0.1-0.1-0.1-0.1-0.2c0-0.1-0.1-0.2-0.1-0.3c0-0.1,0-0.2,0.1-0.3c0-0.1,0.1-0.2,0.1-0.2
			c0.1-0.1,0.1-0.1,0.2-0.1C38.7,101.3,38.8,101.3,38.9,101.3z"/>
		<path fill="#8ABABA" d="M72.9,118.5c0.1,0,0.2,0,0.3,0.1c0.1,0,0.1,0.1,0.2,0.1c0.1,0.1,0.1,0.1,0.1,0.2c0,0.1,0.1,0.2,0.1,0.3
			c0,0.1,0,0.2-0.1,0.3c0,0.1-0.1,0.1-0.1,0.2c-0.1,0.1-0.1,0.1-0.2,0.1c-0.1,0-0.2,0.1-0.3,0.1c-0.1,0-0.2,0-0.3-0.1
			c-0.1,0-0.2-0.1-0.2-0.1c-0.1-0.1-0.1-0.1-0.1-0.2c0-0.1-0.1-0.2-0.1-0.3c0-0.1,0-0.2,0.1-0.3c0-0.1,0.1-0.2,0.1-0.2
			c0.1-0.1,0.1-0.1,0.2-0.1C72.7,118.5,72.8,118.5,72.9,118.5z"/>
		<path fill="#8ABABA" d="M47,145.3c0.1,0,0.2,0,0.3,0.1s0.1,0.1,0.2,0.1c0.1,0.1,0.1,0.1,0.1,0.2c0,0.1,0.1,0.2,0.1,0.3
			c0,0.1,0,0.2-0.1,0.3c0,0.1-0.1,0.1-0.1,0.2c-0.1,0.1-0.1,0.1-0.2,0.1c-0.1,0-0.2,0.1-0.3,0.1s-0.2,0-0.3-0.1
			c-0.1,0-0.2-0.1-0.2-0.1c-0.1-0.1-0.1-0.1-0.1-0.2c0-0.1-0.1-0.2-0.1-0.3c0-0.1,0-0.2,0.1-0.3c0-0.1,0.1-0.2,0.1-0.2
			c0.1-0.1,0.1-0.1,0.2-0.1C46.8,145.3,46.9,145.3,47,145.3z"/>
	</g>
</g>
<g id="Layer_2" display="none">
</g>
</svg>
