<?xml version="1.0" encoding="utf-8"?>
<!-- Generator: Adobe Illustrator 18.1.1, SVG Export Plug-In . SVG Version: 6.00 Build 0)  -->
<!DOCTYPE svg PUBLIC "-//W3C//DTD SVG 1.1//EN" "http://www.w3.org/Graphics/SVG/1.1/DTD/svg11.dtd">
<svg version="1.1" id="Layer_1" xmlns="http://www.w3.org/2000/svg" xmlns:xlink="http://www.w3.org/1999/xlink" x="0px" y="0px"
	 width="380.9px" height="300px" viewBox="0 0 380.9 300" enable-background="new 0 0 380.9 300" xml:space="preserve">
<g>
	<path fill="#8ABABA" d="M187.2,22.6l-7-5.9l-88,28.8l5.6,4.5L0,80.3l18.3,16.6l-18.3,5.6l18.6,16.7L0.1,125l18.6,16.7l-18.6,5.7
		l18.6,16.7l-18.6,5.7l18.6,16.7l-18.6,5.7L118.5,300l83.1-33.9v8.2l89.5-31.5v-11.1l89.2-35.7l-19.9-14.4l20.3-8.1l-20.1-14.4
		l20.2-8.1l-20.1-14.4l20.1-8.1l-20.1-14.3l20.1-8.1l-20.6-14.7l18.7-7.6L260.8,0l-73.3,22.6 M277.1,123.6v111.5l-61.2,23.3V148.8
		v-11.9v-4.9l-11.8-9.5l-68.4-55.7l-10-8.3l-4.7-3.9l-6-4.9l62.8-20.5l6.9,5.8l4.3,3.6l10,8.4l63.4,53.2l9,8.1l5.6,6.5L277.1,123.6
		L277.1,123.6z"/>
	<path fill="#174F65" d="M360.7,114.4l20.1-8.1l-20.6-14.7l18.7-7.6L260.8,0l-73.3,22.6l10,8.5l61-18.8l97.1,69.2L289.8,108
		l-0.4,0.1l-5.7-4.6l61.2-24l-87.4-62.9l-56,17.7l-4.2-3.5l-10.1-8.5l-7-5.9l-88,28.8l5.6,4.5L0,80.3l18.3,16.6l-18.3,5.6l18.6,16.7
		L0.1,125l18.6,16.7l-18.6,5.7l18.6,16.7l-18.6,5.7l18.6,16.7l-18.6,5.7L118.5,300l83.1-33.9v8.2l89.5-31.5v-11.1l89.2-35.7
		l-19.9-14.4l20.3-8.1l-20.1-14.4l20.2-8.1l-20.1-14.4l20.1-8.1L360.7,114.4z M255.6,29l66.5,47.8l-47.9,18.8L264,87
		c-3.3-26.8-29.8-36.1-46.7-39.3l-5.7-4.8L255.6,29z M108.4,58.5l5,4L34.9,87.3l88.5,79.1l78.4-31.3l-0.1,2v4.1l-81.9,33.8l-99-90.1
		L108.4,58.5z M181.3,117.2l12.3,9.9l-68,26.6L56.7,92l67-21.2l4.8,3.9C127.5,87.3,131.1,115.1,181.3,117.2z M117.5,188l84.2-34.8
		v11.1l-80.9,33l-99.5-90l5.6-1.8L117.5,188z M118.5,210.2l83.1-33.9v10.5l-80.9,33l-99.5-90l6-1.9L118.5,210.2z M118.5,232.6
		l83.1-33.9v10.5l-80.9,33l-99.5-90l6-1.9L118.5,232.6z M118.5,255.1l83.1-33.9v10.5l-80.9,33l-99.5-90l6-1.9L118.5,255.1z
		 M120.8,287.2l-99.5-90l6.6-1.9l90.5,82.3l83.3-33.9v10.5L120.8,287.2z M277.1,123.6v111.5l-61.2,23.3V148.8v-11.9v-4.9l-11.8-9.5
		l-68.4-55.7l-10-8.3l-4.7-3.9l-6-4.9l62.8-20.5l6.9,5.8l4.3,3.6l10,8.4l63.4,53.2l9,8.1l5.6,6.5L277.1,123.6L277.1,123.6z
		 M357.6,126l-66.4,26.5V142l56.7-22.7L357.6,126z M347.7,96.5l9.7,7.1l-66.2,26.5v-10.9L347.7,96.5z M357.6,193.4l-66.4,26.5v-10.5
		l56.7-22.7L357.6,193.4z M357.6,170.9l-66.4,26.5v-10.5l56.7-22.7L357.6,170.9z M357.6,148.5L291.2,175v-10.5l56.7-22.7
		L357.6,148.5z"/>
	<path fill="#E8513A" d="M255.6,172.1c-8.7-2-12.3-3.9-12.3-7.8c0-3.5,2.2-7.5,8.7-8.9c7.3-1.6,12.1,0.3,14.6,1.2l3.1-14.5
		c-3.6-1.2-8.1-2.1-14.8-0.9l0-10.8l-10,2.1l0,11.7c-10.9,4.8-17.2,14.6-17.2,25.5c0,11.9,7.4,16.5,18.2,18.6
		c7.6,1.5,10.8,3.7,10.8,8.4c0,4.8-4,8.5-9.9,9.7c-6.6,1.4-12.6,0.1-16.8-1.8l-3.1,15c3.8,1.8,10.4,2.7,17.2,1.6l0,11.7l10.1-2.1
		l0-12.7c11.7-4.8,18-15.5,18-26.4C272.4,180.4,267.6,174.7,255.6,172.1z"/>
</g>
</svg>
