<?xml version="1.0" encoding="utf-8"?>
<!-- Generator: Adobe Illustrator 18.1.1, SVG Export Plug-In . SVG Version: 6.00 Build 0)  -->
<!DOCTYPE svg PUBLIC "-//W3C//DTD SVG 1.1//EN" "http://www.w3.org/Graphics/SVG/1.1/DTD/svg11.dtd">
<svg version="1.1" xmlns="http://www.w3.org/2000/svg" xmlns:xlink="http://www.w3.org/1999/xlink" x="0px" y="0px" width="115.3px"
	 height="163.3px" viewBox="0 0 115.3 163.3" enable-background="new 0 0 115.3 163.3" xml:space="preserve">
<g id="Layer_1">
	<g>
		<g>
			<path fill="#E8513A" d="M39.4,144.8v-4.6c-1.8-0.1-3.3-0.5-4.6-1c-1.3-0.6-2.3-1.3-3.2-2.2c-0.9-0.9-1.5-2-1.9-3.3
				c-0.4-1.2-0.7-2.6-0.7-4.1h7.4c0.1,1.1,0.3,2.1,0.8,2.9c0.4,0.8,1.2,1.4,2.3,1.7v-6.7c-3.5-0.7-6-1.8-7.6-3.2
				c-1.6-1.5-2.4-3.5-2.4-6c0-2.6,0.8-4.7,2.5-6.4c1.7-1.7,4.2-2.6,7.6-2.8v-4.3H42v4.3c1.8,0.1,3.3,0.5,4.5,1c1.2,0.5,2.2,1.2,3,2
				c0.8,0.8,1.4,1.8,1.7,2.8c0.4,1.1,0.6,2.2,0.8,3.3l-7.2,0.7c-0.3-2.2-1.3-3.6-2.8-4.1v6.1l1.7,0.3c3.2,0.7,5.5,1.9,6.9,3.4
				c1.3,1.6,2,3.5,2,5.8c0,1.3-0.2,2.5-0.6,3.6c-0.4,1.1-1,2.1-1.9,3c-0.8,0.9-1.9,1.6-3.3,2.1c-1.3,0.5-3,0.8-4.8,0.9v4.6H39.4z
				 M36.6,117.6c0,0.7,0.2,1.3,0.6,1.7c0.4,0.5,1.2,0.8,2.2,1.2v-5.7c-1.1,0.1-1.9,0.5-2.3,1C36.8,116.3,36.6,116.9,36.6,117.6z
				 M45.1,131.3c0-0.7-0.2-1.4-0.6-2c-0.4-0.6-1.3-1-2.5-1.3v6.4c1.1-0.1,2-0.5,2.4-1.1C44.9,132.8,45.1,132.1,45.1,131.3z"/>
		</g>
		<g>
			<path fill="#8ABABA" d="M41,163.3h-0.7c-5.1,0-9.9-1-14.3-2.9c-4.4-1.9-8.4-4.6-11.7-7.9c-3.3-3.3-6-7.3-7.9-11.8
				c-1.9-4.5-2.9-9.3-2.9-14.4c0-3.7,0.5-7.2,1.5-10.5c1-3.2,2.4-6.3,4.3-9.2c0,0,0,0,0-0.1c0-0.2,0.1-0.3,0.2-0.4l29.7-43.9
				c0.3-0.5,0.8-0.8,1.4-0.8c0,0,0,0,0,0c0.6,0,1.1,0.3,1.4,0.7l29.8,44c0.1,0.1,0.2,0.3,0.2,0.4c0,0,0,0.1,0,0.1
				c1.8,2.8,3.3,5.9,4.3,9.2c1,3.3,1.5,6.8,1.5,10.5c0,5.1-1,9.9-2.9,14.4c-1.9,4.5-4.6,8.4-7.9,11.8c-3.3,3.3-7.3,6-11.7,7.9
				C50.9,162.3,46,163.3,41,163.3z M12.4,107.9c-0.1,0.2-0.2,0.4-0.2,0.5c-1.7,2.7-3.1,5.5-4,8.4c-0.9,3-1.4,6.2-1.4,9.5
				c0,4.6,0.9,9,2.6,13.1c1.7,4.1,4.1,7.7,7.2,10.7c3,3,6.6,5.5,10.7,7.2c4,1.7,8.4,2.6,13,2.6H41c4.6,0,9-0.9,13-2.6
				c4-1.7,7.6-4.1,10.7-7.2c3-3,5.4-6.6,7.2-10.7c1.7-4.1,2.6-8.5,2.6-13.1c0-3.4-0.5-6.6-1.4-9.5c-0.9-3-2.2-5.8-3.9-8.4
				c-0.1-0.2-0.2-0.4-0.3-0.6L40.6,66.2L12.4,107.9z"/>
		</g>
		<g>
			<path fill="#8ABABA" d="M10.7,75.5h-0.2c-1.4,0-2.7-0.3-3.9-0.8c-1.2-0.5-2.3-1.2-3.2-2.2c-0.9-0.9-1.6-2-2.2-3.2
				c-0.5-1.2-0.8-2.6-0.8-3.9c0-1,0.1-2,0.4-2.9c0.3-0.8,0.6-1.7,1.1-2.4c0-0.1,0.1-0.2,0.1-0.2L9.5,49c0.2-0.4,0.7-0.6,1.1-0.6
				c0,0,0,0,0,0c0.4,0,0.9,0.2,1.1,0.6l7.4,10.9c0,0.1,0.1,0.1,0.1,0.2c0.5,0.7,0.9,1.6,1.1,2.4c0.3,0.9,0.4,1.9,0.4,2.9
				c0,1.4-0.3,2.7-0.8,3.9c-0.5,1.2-1.2,2.3-2.2,3.2c-0.9,0.9-2,1.6-3.2,2.2C13.4,75.3,12.1,75.5,10.7,75.5z M4.4,61.3
				c0,0.1-0.1,0.1-0.1,0.2c-0.4,0.6-0.7,1.2-0.9,1.9c-0.2,0.7-0.3,1.4-0.3,2.1c0,1,0.2,2,0.6,2.9c0.4,0.9,0.9,1.7,1.6,2.4
				c0.7,0.7,1.5,1.2,2.4,1.6c0.9,0.4,1.9,0.6,2.9,0.6h0.2c1,0,2-0.2,2.9-0.6c0.9-0.4,1.7-0.9,2.4-1.6c0.7-0.7,1.2-1.5,1.6-2.4
				c0.4-0.9,0.6-1.9,0.6-2.9c0-0.7-0.1-1.4-0.3-2.1c-0.2-0.7-0.5-1.3-0.9-1.9c0-0.1-0.1-0.1-0.1-0.2l-6.2-9.2L4.4,61.3z"/>
		</g>
		<g>
			<path fill="#8ABABA" d="M82.1,80.9h-0.4c-3,0-5.8-0.6-8.4-1.7c-2.6-1.1-4.9-2.7-6.9-4.6c-1.9-1.9-3.5-4.3-4.6-6.9
				c-1.1-2.6-1.7-5.5-1.7-8.4c0-2.2,0.3-4.2,0.9-6.2c0.6-1.9,1.4-3.7,2.5-5.3c0-0.1,0.1-0.2,0.2-0.3l17.1-25.2
				c0.2-0.4,0.7-0.6,1.1-0.6c0,0,0,0,0,0c0.4,0,0.9,0.2,1.1,0.6l17.1,25.3c0.1,0.1,0.1,0.2,0.2,0.3c1.1,1.6,1.9,3.4,2.5,5.3
				c0.6,1.9,0.9,4,0.9,6.2c0,3-0.6,5.8-1.7,8.4c-1.1,2.6-2.7,4.9-4.6,6.9c-2,2-4.3,3.5-6.9,4.6C87.9,80.3,85.1,80.9,82.1,80.9z
				 M66,48.8c0,0.1-0.1,0.2-0.2,0.3c-1,1.5-1.7,3.1-2.2,4.8c-0.5,1.7-0.8,3.5-0.8,5.4c0,2.6,0.5,5.1,1.5,7.4c1,2.3,2.3,4.3,4,6
				c1.7,1.7,3.7,3.1,6,4c2.3,1,4.7,1.5,7.3,1.5h0.4c2.6,0,5.1-0.5,7.3-1.5c2.3-1,4.3-2.3,6-4c1.7-1.7,3.1-3.7,4-6
				c1-2.3,1.5-4.8,1.5-7.4c0-1.9-0.3-3.7-0.8-5.4c-0.5-1.7-1.3-3.3-2.2-4.7c-0.1-0.1-0.1-0.2-0.2-0.3L81.9,25.3L66,48.8z"/>
		</g>
		<g>
			<path fill="#FFFCF8" d="M82.5,46.4V49c1.9,0.1,3.3,0.7,4.3,1.7c1,1,1.6,2.3,1.8,3.8L83.9,55c-0.1-0.5-0.2-0.9-0.4-1.3
				c-0.2-0.3-0.5-0.6-0.9-0.7v7.6c0.9-0.2,1.4-0.9,1.4-2.1h4.8c-0.1,0.9-0.3,1.7-0.6,2.4c-0.3,0.7-0.7,1.3-1.2,1.9
				c-0.5,0.5-1.1,1-1.9,1.3c-0.7,0.3-1.6,0.5-2.6,0.6v2.7h-1.6v-2.7c-1.2-0.1-2.2-0.3-3-0.7c-0.8-0.4-1.5-1-2.1-1.6
				c-0.5-0.7-0.9-1.5-1.2-2.4c-0.3-0.9-0.4-1.9-0.4-3c0-2.3,0.6-4.1,1.7-5.5c1.1-1.4,2.8-2.2,5-2.4v-2.7H82.5z M79.2,56.8
				c0,1,0.1,1.8,0.4,2.4c0.3,0.7,0.7,1.1,1.3,1.3l0-7.5c-0.6,0.2-1,0.7-1.3,1.3C79.3,55.1,79.2,55.9,79.2,56.8z"/>
		</g>
		<g>
			<path fill="#8ABABA" d="M48.9,27.1h-0.2c-1.4,0-2.7-0.3-3.9-0.8c-1.2-0.5-2.3-1.2-3.2-2.2c-0.9-0.9-1.6-2-2.2-3.2
				c-0.5-1.2-0.8-2.6-0.8-3.9c0-1,0.1-2,0.4-2.9c0.3-0.8,0.6-1.7,1.1-2.4c0-0.1,0.1-0.2,0.1-0.2l7.4-10.9C47.9,0.2,48.3,0,48.8,0
				c0.4,0,0.9,0.2,1.1,0.6l7.4,10.9c0,0.1,0.1,0.1,0.1,0.2c0.5,0.7,0.9,1.6,1.1,2.4c0.3,0.9,0.4,1.9,0.4,2.9c0,1.4-0.3,2.7-0.8,3.9
				c-0.5,1.2-1.2,2.3-2.2,3.2c-0.9,0.9-2,1.6-3.2,2.2C51.6,26.8,50.3,27.1,48.9,27.1z M42.6,12.9c0,0.1-0.1,0.1-0.1,0.2
				c-0.4,0.6-0.7,1.2-0.9,1.9c-0.2,0.7-0.3,1.4-0.3,2.1c0,1,0.2,2,0.6,2.9c0.4,0.9,0.9,1.7,1.6,2.4c0.7,0.7,1.5,1.2,2.4,1.6
				c0.9,0.4,1.9,0.6,2.9,0.6h0.2c1,0,2-0.2,2.9-0.6c0.9-0.4,1.7-0.9,2.4-1.6c0.7-0.7,1.2-1.5,1.6-2.4c0.4-0.9,0.6-1.9,0.6-2.9
				c0-0.7-0.1-1.4-0.3-2.1c-0.2-0.7-0.5-1.3-0.9-1.9c0-0.1-0.1-0.1-0.1-0.2l-6.2-9.2L42.6,12.9z"/>
		</g>
		<g>
			<path fill="#8ABABA" d="M105.2,116.8H105c-1.4,0-2.7-0.3-3.9-0.8c-1.2-0.5-2.3-1.2-3.2-2.2c-0.9-0.9-1.6-2-2.2-3.2
				c-0.5-1.2-0.8-2.6-0.8-3.9c0-1,0.1-2,0.4-2.9c0.3-0.8,0.6-1.7,1.1-2.4c0-0.1,0.1-0.2,0.1-0.2l7.4-10.9c0.2-0.4,0.7-0.6,1.1-0.6
				c0,0,0,0,0,0c0.4,0,0.9,0.2,1.1,0.6l7.4,10.9c0,0.1,0.1,0.1,0.1,0.2c0.5,0.7,0.9,1.6,1.1,2.4c0.3,0.9,0.4,1.9,0.4,2.9
				c0,1.4-0.3,2.7-0.8,3.9c-0.5,1.2-1.2,2.3-2.2,3.2c-0.9,0.9-2,1.6-3.2,2.2C107.9,116.5,106.6,116.8,105.2,116.8z M98.9,102.5
				c0,0.1-0.1,0.1-0.1,0.2c-0.4,0.6-0.7,1.2-0.9,1.9c-0.2,0.7-0.3,1.4-0.3,2.1c0,1,0.2,2,0.6,2.9c0.4,0.9,0.9,1.7,1.6,2.4
				c0.7,0.7,1.5,1.2,2.4,1.6c0.9,0.4,1.9,0.6,2.9,0.6h0.2c1,0,2-0.2,2.9-0.6c0.9-0.4,1.7-0.9,2.4-1.6c0.7-0.7,1.2-1.5,1.6-2.4
				c0.4-0.9,0.6-1.9,0.6-2.9c0-0.7-0.1-1.4-0.3-2.1c-0.2-0.7-0.5-1.3-0.9-1.9c0-0.1-0.1-0.1-0.1-0.2l-6.2-9.2L98.9,102.5z"/>
		</g>
	</g>
</g>
<g id="Layer_2" display="none">
</g>
</svg>
