<?xml version="1.0" encoding="utf-8"?>
<!-- Generator: Adobe Illustrator 18.1.1, SVG Export Plug-In . SVG Version: 6.00 Build 0)  -->
<!DOCTYPE svg PUBLIC "-//W3C//DTD SVG 1.1//EN" "http://www.w3.org/Graphics/SVG/1.1/DTD/svg11.dtd">
<svg version="1.1" xmlns="http://www.w3.org/2000/svg" xmlns:xlink="http://www.w3.org/1999/xlink" x="0px" y="0px" width="714.8px"
	 height="317.8px" viewBox="0 0 714.8 317.8" enable-background="new 0 0 714.8 317.8" xml:space="preserve">
<g id="Layer_1">
	<g>
		<polyline fill="none" stroke="#175065" stroke-width="2" stroke-miterlimit="10" points="164.9,266.8 428.9,266.8 446,205.6 
			504.2,205.6 		"/>
		<circle fill="#175065" cx="162.8" cy="266.8" r="2.9"/>
		<g>
			<text transform="matrix(1 0 0 1 524.1631 217.2493)" fill="#8ABABA" font-family="'AktivGrotesk-XBold'" font-size="37">2006</text>
		</g>
		<g>
			<text transform="matrix(1 0 0 1 637.0098 217.5455)" fill="#8ABABA" font-family="'AktivGrotesk-Regular'" font-size="37">40%</text>
		</g>
		<line fill="none" stroke="#175065" stroke-width="2" stroke-miterlimit="10" x1="624.3" y1="180.7" x2="624.3" y2="230.8"/>
		<line fill="none" stroke="#175065" stroke-width="2" stroke-miterlimit="10" x1="162.8" y1="294" x2="504.2" y2="294"/>
		<circle fill="#175065" cx="162.8" cy="294" r="2.9"/>
		<g>
			<text transform="matrix(1 0 0 1 524.1631 304.3165)" fill="#8ABABA" font-family="'AktivGrotesk-XBold'" font-size="37">2014</text>
		</g>
		<g>
			<text transform="matrix(1 0 0 1 636.5653 304.6127)" fill="#8ABABA" font-family="'AktivGrotesk-Regular'" font-size="37">58%</text>
		</g>
		<line fill="none" stroke="#175065" stroke-width="2" stroke-miterlimit="10" x1="624.4" y1="267.8" x2="624.4" y2="317.8"/>
		<path opacity="0.1" fill="#175065" d="M303.7,147.6c-0.3-11.9-2.1-24-5.4-36c-9.9-35.9-31.9-65.2-60.4-84.8
			c-4.5-3.1-9.1-5.9-13.8-8.5l-10.6,19.3c1.8,0.9,3.5,1.9,5.2,3c2.3,1.4,4.6,2.9,6.8,4.4c24.3,16.7,43.1,41.8,51.6,72.4l0,0
			c4.8,17.6,5.8,35.3,3.4,52.3c-1.8,12.8-5.5,25.2-10.9,36.8l0,0c-1.3,2.8-2.7,5.5-4.2,8.2c-9.3,16.8-22.4,31.6-38.4,42.9
			c-3.1,2.2-6.2,4.3-9.5,6.2l0,0c-5.9,3.4-12.1,6.5-18.6,9c-4.1,1.6-8.3,3-12.6,4.2c-5.4,1.5-10.8,2.6-16.2,3.4
			c-5.8,0.8-11.6,1.2-17.3,1.3c-0.2,0-0.3,0-0.5,0l0,0c-0.2,0-0.5,0-0.7,0v22c0.2,0,0.5,0,0.7,0c13.2,0,26.6-1.8,39.9-5.4
			c17.6-4.8,33.7-12.6,47.8-22.7c1.7-1.2,3.3-2.4,4.9-3.6c8.4-6.5,16-13.8,22.8-21.8c10-11.8,18.2-25.1,24.2-39.4
			C300.1,191.2,304.3,169.6,303.7,147.6z"/>
		<path opacity="0.1" fill="#175065" d="M272.5,117.3L272.5,117.3L272.5,117.3c-8.3-29-26.3-52.7-49.4-68.6
			c-1.9-1.3-3.8-2.5-5.7-3.7c-1.9-1.2-3.9-2.3-5.9-3.4c-1-0.5-2-1-3-1.5c-13.1-6.6-27.4-11-42.3-12.7c-2.3-0.3-4.6-0.5-6.9-0.6
			c-5.8-0.3-11.6-0.3-17.4,0.2c-8.2,0.7-16.4,2.1-24.6,4.5c-0.6,0.2-1.2,0.3-1.7,0.5c-3.7,1.1-7.3,2.4-10.8,3.8
			c-7.9,3.2-15.3,7.1-22.1,11.7c-0.8,0.5-1.5,1-2.3,1.5L92.8,67c8.6-6,18.2-10.7,28.7-14c0.6-0.2,1.2-0.4,1.7-0.5
			c27-7.8,54.6-4,77.5,8.4c3.4,1.8,6.6,3.8,9.8,6c19,13.1,33.8,32.6,40.7,56.5v0h0l0,0c2.9,10.1,4.2,20.2,4,30.1
			c-0.2,15.1-3.8,29.8-10.2,43.1c-5.1,10.7-12.1,20.5-20.5,28.9c-11.9,11.8-26.9,20.9-44.1,25.9c-9.4,2.7-18.9,4-28.2,4
			c0,0-0.1,0-0.1,0c-0.2,0-0.4,0-0.6,0v22c0.2,0,0.4,0,0.6,0c0,0,0.1,0,0.1,0c11.3,0,22.8-1.6,34.2-4.9
			c32.2-9.3,57.9-30.4,73.6-57.2c1.8-3,3.4-6.1,4.9-9.2c1.2-2.5,2.3-5,3.3-7.5c5.4-13.3,8.5-27.6,9-42.2
			C277.7,143.5,276.2,130.3,272.5,117.3z"/>
		<path fill="#89BABA" d="M150.7,255.3c-7.2-0.1-14.4-0.9-21.3-2.5c-7.5-1.7-14.8-4.2-21.7-7.5c-9.2-4.4-17.8-10.1-25.4-16.9
			c-13.8-12.5-24.3-28.8-29.8-47.9c-1.6-5.5-2.7-11-3.3-16.5C44.7,125.7,62,88.5,92.8,67L80.4,48.8c-0.8,0.5-1.5,1.1-2.2,1.6
			c-2.9,2.1-5.8,4.4-8.5,6.8c-2.7,2.4-5.3,4.9-7.8,7.5c-1.2,1.3-2.5,2.6-3.7,4c-1.8,2-3.5,4.1-5.2,6.2c-3.3,4.2-6.3,8.7-9,13.3
			c-0.9,1.5-1.8,3.1-2.6,4.7c-0.8,1.6-1.7,3.2-2.4,4.8c-1.9,4-3.7,8.2-5.2,12.4c-0.6,1.7-1.2,3.4-1.7,5.1c-1.1,3.4-2,6.9-2.7,10.4
			c-0.4,1.8-0.7,3.5-1,5.3s-0.6,3.6-0.8,5.4c-0.1,0.9-0.2,1.8-0.3,2.7c-0.2,1.8-0.3,3.6-0.5,5.4c-0.1,1.8-0.2,3.6-0.2,5.5
			c0,0.9,0,1.8,0,2.8c0,1.8,0.1,3.7,0.2,5.5c0,0.9,0.1,1.8,0.2,2.8c0.1,1.8,0.3,3.7,0.5,5.6c0.1,0.8,0.2,1.7,0.3,2.5
			c0.5,3.3,1.1,6.7,1.8,10c0.4,1.7,0.8,3.3,1.2,5c0.2,0.8,0.5,1.7,0.7,2.5c2.9,10.1,7,19.6,12.1,28.4c2.2,3.7,4.5,7.4,7.1,10.8
			c1.7,2.3,3.4,4.5,5.3,6.7c1.8,2.2,3.7,4.3,5.7,6.3c2,2,4,4,6.1,5.9c2.1,1.9,4.4,3.8,6.6,5.6c0.8,0.6,1.5,1.2,2.3,1.8
			c1.5,1.2,3.1,2.3,4.7,3.4c4.8,3.3,9.8,6.2,14.9,8.8c2.6,1.3,5.2,2.5,7.9,3.6c1.8,0.7,3.6,1.4,5.4,2.1c0.9,0.3,1.8,0.6,2.7,1
			c12.3,4.2,25.4,6.4,38.7,6.5c0.3,0,0.6,0,0.9,0v-22C151.3,255.3,151,255.3,150.7,255.3z"/>
		<path fill="#89BABA" d="M111.6,5.5c-0.6,0.2-1.2,0.3-1.8,0.5c-16.3,4.7-31.2,11.9-44.5,21.1C20.5,58.2-5.1,112.2,0.8,167.8
			c0.9,8.1,2.4,16.2,4.6,24.3c7.7,28.2,23,52.3,43,70.9c15.6,14.5,34.2,25.6,54.3,32.5c9.9,3.4,20.2,5.8,30.7,7.1
			c5.7,0.7,11.4,1.1,17.2,1.1c0.2,0,0.4,0,0.6,0c0.1,0,0.2,0,0.3,0v-22c-0.1,0-0.3,0-0.4,0c-0.2,0-0.3,0-0.5,0
			c-32.7-0.3-63.8-13.1-87.2-34.8c-17.1-15.9-30.1-36.5-36.7-60.6c-1.9-6.9-3.2-13.9-3.9-20.8c-0.5-4.4-0.7-8.8-0.7-13.1
			c-0.1-18.9,4-37.2,11.6-54c1.7-3.6,3.5-7.2,5.4-10.7c1-1.8,2.1-3.6,3.2-5.3c1.6-2.5,3.2-4.9,4.9-7.2c0.3-0.4,0.6-0.8,0.9-1.2
			c0.8-1.1,1.7-2.2,2.5-3.3c7.7-9.7,16.9-18.3,27.2-25.4c9.9-6.9,21-12.5,33-16.5c0.1,0,0.2-0.1,0.3-0.1c1-0.3,2-0.7,3.1-1
			c0.5-0.1,1-0.3,1.5-0.4c0.6-0.2,1.2-0.3,1.8-0.5c1.1-0.3,2.2-0.6,3.2-0.8c3.2-0.8,6.5-1.5,9.7-2c29.2-4.9,58.2,0.5,82.9,13.7
			c0.1,0,0.2,0.1,0.2,0.1l10.6-19.3C190.9,0.4,150.9-5.3,111.6,5.5z"/>
	</g>
</g>
<g id="Layer_2" display="none">
</g>
</svg>
