<?xml version="1.0" encoding="utf-8"?>
<!-- Generator: Adobe Illustrator 18.1.1, SVG Export Plug-In . SVG Version: 6.00 Build 0)  -->
<!DOCTYPE svg PUBLIC "-//W3C//DTD SVG 1.1//EN" "http://www.w3.org/Graphics/SVG/1.1/DTD/svg11.dtd">
<svg version="1.1" id="Layer_1" xmlns="http://www.w3.org/2000/svg" xmlns:xlink="http://www.w3.org/1999/xlink" x="0px" y="0px"
	 width="714.8px" height="317.8px" viewBox="-602 382.2 714.8 317.8" enable-background="new -602 382.2 714.8 317.8"
	 xml:space="preserve">
<g id="Layer_1_1_">
	<g>
		<polyline fill="none" stroke="#175065" stroke-width="2" stroke-miterlimit="10" points="-437.1,649 -173.1,649 -156,587.8 
			-97.8,587.8 		"/>
		<circle fill="#175065" cx="-439.2" cy="649" r="2.9"/>
		<g>
			<g enable-background="new    ">
				<path fill="#8ABABA" d="M-76.2,599.4v-5c0.5-0.4,1-0.8,1.4-1.2s0.9-0.7,1.3-1.1c0.5-0.4,0.9-0.8,1.5-1.2c0.5-0.4,1.2-1,1.9-1.6
					c1-0.8,1.8-1.6,2.5-2.2s1.3-1.3,1.7-1.9c0.5-0.6,0.8-1.2,1-1.7c0.2-0.6,0.4-1.2,0.4-1.8c0-0.9-0.2-1.5-0.6-2
					c-0.4-0.5-1.1-0.7-2-0.7c-0.8,0-1.5,0.3-2.1,0.8c-0.5,0.5-0.9,1.4-1.1,2.5l-6.4-0.6c0.2-1.2,0.5-2.3,0.9-3.3
					c0.5-1,1.1-1.9,1.9-2.6c0.8-0.7,1.8-1.3,3-1.7c1.2-0.4,2.5-0.6,4.1-0.6c2.9,0,5.1,0.7,6.7,2.1c1.6,1.4,2.3,3.4,2.3,5.9
					c0,1-0.1,1.9-0.4,2.7c-0.2,0.8-0.6,1.6-1,2.3s-1,1.5-1.7,2.2c-0.7,0.7-1.4,1.4-2.2,2.2c-0.7,0.6-1.4,1.2-2,1.8
					c-0.6,0.5-1.2,1-1.8,1.5h9.4l-0.6,5.6H-76.2z"/>
				<path fill="#8ABABA" d="M-54.8,586.7c0-4.7,0.9-8.2,2.6-10.3c1.7-2.2,4.2-3.2,7.3-3.2c3.2,0,5.7,1.1,7.3,3.3
					c1.6,2.2,2.4,5.6,2.4,10.1c0,4.7-0.9,8.2-2.6,10.3s-4.2,3.2-7.3,3.2c-3.2,0-5.7-1.1-7.3-3.3C-54,594.7-54.8,591.3-54.8,586.7z
					 M-47.9,586.6c0,2.7,0.2,4.7,0.6,5.9s1.2,1.8,2.3,1.8c1.1,0,1.9-0.6,2.3-1.8c0.4-1.2,0.6-3.1,0.6-5.9s-0.2-4.7-0.6-5.9
					c-0.4-1.2-1.2-1.8-2.3-1.8c-1.1,0-1.9,0.6-2.3,1.8S-47.9,583.9-47.9,586.6z"/>
				<path fill="#8ABABA" d="M-32.9,586.7c0-4.7,0.9-8.2,2.6-10.3c1.7-2.2,4.2-3.2,7.3-3.2c3.2,0,5.7,1.1,7.3,3.3
					c1.6,2.2,2.4,5.6,2.4,10.1c0,4.7-0.9,8.2-2.6,10.3c-1.7,2.2-4.2,3.2-7.3,3.2c-3.2,0-5.7-1.1-7.3-3.3
					C-32.1,594.7-32.9,591.3-32.9,586.7z M-26,586.6c0,2.7,0.2,4.7,0.6,5.9c0.4,1.2,1.2,1.8,2.3,1.8s1.9-0.6,2.3-1.8
					s0.6-3.1,0.6-5.9s-0.2-4.7-0.6-5.9s-1.2-1.8-2.3-1.8s-1.9,0.6-2.3,1.8C-25.8,582-26,583.9-26,586.6z"/>
				<path fill="#8ABABA" d="M-0.5,578.7c-1.3,0-2.2,0.5-2.7,1.6s-0.9,2.5-0.9,4.4c0.6-0.5,1.3-1,2.1-1.3c0.8-0.3,1.8-0.5,2.9-0.5
					c1.1,0,2.2,0.2,3.1,0.5c1,0.4,1.8,0.9,2.5,1.6s1.2,1.5,1.6,2.5c0.4,1,0.6,2.2,0.6,3.5c0,1.4-0.2,2.7-0.7,3.8
					c-0.4,1.1-1.1,2.1-1.9,2.9c-0.8,0.8-1.8,1.4-3,1.8c-1.2,0.4-2.5,0.6-3.9,0.6c-1.7,0-3.2-0.3-4.4-0.9c-1.2-0.6-2.2-1.4-3-2.6
					c-0.8-1.1-1.4-2.4-1.7-4c-0.4-1.6-0.6-3.3-0.6-5.3c0-2.4,0.3-4.5,0.8-6.3c0.5-1.8,1.2-3.2,2.1-4.4c0.9-1.2,2-2,3.3-2.6
					s2.7-0.9,4.3-0.9c1.1,0,2.1,0.1,3.1,0.4c0.9,0.3,1.8,0.7,2.5,1.3s1.4,1.3,1.8,2.2c0.5,0.9,0.8,2,1,3.2l-6.2,0.6
					c-0.1-0.7-0.4-1.2-0.8-1.6C0.9,578.9,0.3,578.7-0.5,578.7z M-0.9,594.9c0.9,0,1.6-0.3,2.2-0.9c0.6-0.6,0.9-1.5,0.9-2.8
					c0-1-0.2-1.8-0.7-2.4s-1.2-0.9-2.3-0.9c-0.9,0-1.6,0.3-2.2,0.8s-0.9,1.4-0.9,2.6c0,1,0.2,1.9,0.7,2.6
					C-2.7,594.5-2,594.9-0.9,594.9z"/>
			</g>
		</g>
		<g>
			<g enable-background="new    ">
				<path fill="#8ABABA" d="M36.5,591l12.2-16.8h3.1v16.5h3.5l-0.4,2.7h-3.1v6.4h-3.1v-6.4H36.5V591z M48.7,590.7v-12.3l-8.8,12.3
					L48.7,590.7z"/>
				<path fill="#8ABABA" d="M67.8,600.4c-2.9,0-5.2-1.1-6.9-3.2s-2.5-5.6-2.5-10.2c0-2.3,0.2-4.3,0.7-6s1.1-3.1,1.9-4.2
					c0.8-1.1,1.8-1.9,3-2.5c1.2-0.5,2.5-0.8,3.9-0.8s2.8,0.3,3.9,0.8c1.1,0.5,2.1,1.4,2.9,2.5c0.8,1.1,1.4,2.5,1.8,4.2
					c0.4,1.7,0.6,3.7,0.6,6s-0.2,4.3-0.6,6c-0.4,1.7-1,3.1-1.8,4.2c-0.8,1.1-1.8,1.9-3,2.4C70.6,600.1,69.3,600.4,67.8,600.4z
					 M67.9,597.5c1.1,0,2-0.2,2.8-0.7c0.8-0.5,1.4-1.2,1.8-2.1c0.5-0.9,0.8-2,1-3.3c0.2-1.3,0.3-2.8,0.3-4.4c0-1.7-0.1-3.1-0.3-4.4
					s-0.5-2.4-1-3.3c-0.5-0.9-1.1-1.6-1.8-2.1c-0.8-0.5-1.7-0.7-2.8-0.7c-1.1,0-2,0.2-2.8,0.7c-0.8,0.5-1.4,1.2-1.8,2.1
					c-0.5,0.9-0.8,2-1,3.3s-0.3,2.8-0.3,4.4c0,1.6,0.1,3.1,0.3,4.4c0.2,1.3,0.5,2.4,1,3.3c0.5,0.9,1.1,1.6,1.8,2.1
					C65.8,597.3,66.8,597.5,67.9,597.5z"/>
				<path fill="#8ABABA" d="M86.6,589.5c-0.9,0-1.8-0.2-2.6-0.5c-0.8-0.3-1.5-0.8-2-1.4c-0.6-0.6-1-1.5-1.3-2.5
					c-0.3-1-0.5-2.2-0.5-3.6c0-1.4,0.2-2.5,0.5-3.5c0.3-1,0.8-1.8,1.4-2.5c0.6-0.7,1.3-1.1,2-1.5s1.6-0.5,2.5-0.5
					c0.9,0,1.8,0.2,2.6,0.5c0.8,0.3,1.5,0.8,2,1.5c0.6,0.7,1,1.5,1.3,2.5c0.3,1,0.5,2.2,0.5,3.5c0,1.4-0.2,2.6-0.5,3.6
					s-0.7,1.8-1.3,2.5c-0.6,0.6-1.2,1.1-2,1.4C88.4,589.3,87.5,589.5,86.6,589.5z M86.6,586.8c1.1,0,2-0.4,2.6-1.3
					c0.6-0.8,0.9-2.2,0.9-4c0-1.8-0.3-3.1-0.9-4s-1.4-1.3-2.6-1.3c-1.1,0-2,0.4-2.6,1.3c-0.6,0.9-0.9,2.2-0.9,4c0,1.8,0.3,3.2,0.9,4
					C84.6,586.4,85.4,586.8,86.6,586.8z M90.8,599.7h-3.1l13-25.6h3.1L90.8,599.7z M105,600.4c-0.9,0-1.8-0.2-2.6-0.5
					c-0.8-0.3-1.5-0.8-2-1.4c-0.6-0.6-1-1.5-1.3-2.5c-0.3-1-0.5-2.2-0.5-3.6c0-1.4,0.2-2.5,0.5-3.5c0.3-1,0.8-1.8,1.4-2.5
					c0.6-0.7,1.3-1.1,2-1.5s1.6-0.5,2.5-0.5c0.9,0,1.8,0.2,2.6,0.5c0.8,0.3,1.5,0.8,2,1.5c0.6,0.7,1,1.5,1.3,2.5
					c0.3,1,0.5,2.2,0.5,3.5c0,1.4-0.2,2.6-0.5,3.6s-0.7,1.8-1.3,2.5c-0.6,0.6-1.2,1.1-2,1.4C106.9,600.3,106,600.4,105,600.4z
					 M105,597.8c1.1,0,2-0.4,2.6-1.3c0.6-0.8,0.9-2.2,0.9-4c0-1.8-0.3-3.1-0.9-4s-1.4-1.3-2.6-1.3c-1.1,0-2,0.4-2.6,1.3
					c-0.6,0.9-0.9,2.2-0.9,4c0,1.8,0.3,3.2,0.9,4C103.1,597.4,103.9,597.8,105,597.8z"/>
			</g>
		</g>
		<line fill="none" stroke="#175065" stroke-width="2" stroke-miterlimit="10" x1="22.3" y1="562.9" x2="22.3" y2="613"/>
		<line fill="none" stroke="#175065" stroke-width="2" stroke-miterlimit="10" x1="-439.2" y1="676.2" x2="-97.8" y2="676.2"/>
		<circle fill="#175065" cx="-439.2" cy="676.2" r="2.9"/>
		<g>
			<g enable-background="new    ">
				<path fill="#8ABABA" d="M-76.2,686.5v-5c0.5-0.4,1-0.8,1.4-1.2s0.9-0.7,1.3-1.1c0.5-0.4,0.9-0.8,1.5-1.2c0.5-0.4,1.2-1,1.9-1.6
					c1-0.8,1.8-1.6,2.5-2.2s1.3-1.3,1.7-1.9c0.5-0.6,0.8-1.2,1-1.7c0.2-0.6,0.4-1.2,0.4-1.8c0-0.9-0.2-1.5-0.6-2
					c-0.4-0.5-1.1-0.7-2-0.7c-0.8,0-1.5,0.3-2.1,0.8c-0.5,0.5-0.9,1.4-1.1,2.5l-6.4-0.6c0.2-1.2,0.5-2.3,0.9-3.3
					c0.5-1,1.1-1.9,1.9-2.6c0.8-0.7,1.8-1.3,3-1.7c1.2-0.4,2.5-0.6,4.1-0.6c2.9,0,5.1,0.7,6.7,2.1c1.6,1.4,2.3,3.4,2.3,5.9
					c0,1-0.1,1.9-0.4,2.7c-0.2,0.8-0.6,1.6-1,2.3s-1,1.5-1.7,2.2c-0.7,0.7-1.4,1.4-2.2,2.2c-0.7,0.6-1.4,1.2-2,1.8
					c-0.6,0.5-1.2,1-1.8,1.5h9.4l-0.6,5.6H-76.2z"/>
				<path fill="#8ABABA" d="M-54.8,673.8c0-4.7,0.9-8.2,2.6-10.3c1.7-2.2,4.2-3.2,7.3-3.2c3.2,0,5.7,1.1,7.3,3.3
					c1.6,2.2,2.4,5.6,2.4,10.1c0,4.7-0.9,8.2-2.6,10.3s-4.2,3.2-7.3,3.2c-3.2,0-5.7-1.1-7.3-3.3C-54,681.7-54.8,678.3-54.8,673.8z
					 M-47.9,673.7c0,2.7,0.2,4.7,0.6,5.9s1.2,1.8,2.3,1.8c1.1,0,1.9-0.6,2.3-1.8c0.4-1.2,0.6-3.1,0.6-5.9s-0.2-4.7-0.6-5.9
					c-0.4-1.2-1.2-1.8-2.3-1.8c-1.1,0-1.9,0.6-2.3,1.8S-47.9,671-47.9,673.7z"/>
				<path fill="#8ABABA" d="M-24.5,668.5l-4.1,2.8l-3.1-4.8l8.4-5.5h5.7v25.6h-6.8V668.5z"/>
				<path fill="#8ABABA" d="M-11.3,676.5l10.8-15.5h6.6v15.4H9l-0.6,5.1H6.1v5.1h-6.4v-5.1h-11.1V676.5z M-0.2,669.1l-5.1,7.3h5.1
					V669.1z"/>
			</g>
		</g>
		<g>
			<g enable-background="new    ">
				<path fill="#8ABABA" d="M40.2,680.3c0.3,1.5,0.8,2.6,1.6,3.3c0.8,0.7,2.1,1.1,3.8,1.1c1.6,0,2.9-0.5,3.8-1.4s1.4-2.5,1.4-4.6
					c0-1.7-0.4-3-1.2-4.1s-2.1-1.5-4-1.5c-1.2,0-2.2,0.2-3,0.5s-1.6,0.9-2.3,1.6h-2.8l1.1-14h13.9v3H41.4l-0.7,7.9
					c0.8-0.6,1.6-1,2.5-1.3c0.9-0.3,1.9-0.4,3.1-0.4c1.4,0,2.6,0.2,3.6,0.6s1.8,1,2.4,1.8c0.6,0.8,1.1,1.6,1.4,2.6s0.4,2.1,0.4,3.2
					c0,2.9-0.8,5.1-2.3,6.6c-1.5,1.5-3.6,2.3-6.1,2.3c-2.7,0-4.8-0.6-6.2-1.8c-1.4-1.2-2.3-3-2.5-5.4H40.2z"/>
				<path fill="#8ABABA" d="M62.7,673.8c-1.1-0.4-2-1.1-2.8-2.1c-0.8-1-1.1-2.3-1.1-3.9c0-1,0.2-1.9,0.5-2.8
					c0.3-0.9,0.9-1.6,1.6-2.3c0.7-0.6,1.6-1.1,2.7-1.5c1.1-0.4,2.4-0.6,3.8-0.6c1.5,0,2.8,0.2,3.9,0.5c1.1,0.4,2,0.9,2.7,1.5
					c0.7,0.6,1.2,1.4,1.6,2.3c0.3,0.9,0.5,1.8,0.5,2.8c0,1.6-0.4,2.9-1.1,3.9c-0.8,1-1.7,1.7-2.8,2.1c1.4,0.5,2.5,1.3,3.3,2.3
					c0.9,1.1,1.3,2.4,1.3,4c0,2.3-0.8,4.1-2.3,5.5c-1.6,1.4-3.9,2.1-7,2.1s-5.5-0.7-7.1-2.1c-1.6-1.4-2.4-3.2-2.4-5.5
					c0-1.6,0.4-2.8,1.3-3.9C60.2,675.1,61.3,674.3,62.7,673.8z M61.3,679.9c0,1.5,0.5,2.6,1.5,3.5s2.5,1.4,4.7,1.4
					c2.1,0,3.7-0.5,4.6-1.4s1.4-2.1,1.4-3.6c0-0.7-0.1-1.3-0.3-1.9c-0.2-0.6-0.5-1.1-1-1.5c-0.5-0.4-1.1-0.7-1.9-1
					c-0.8-0.2-1.7-0.3-2.9-0.3c-1.2,0-2.1,0.1-2.9,0.4c-0.8,0.2-1.4,0.6-1.9,1c-0.5,0.4-0.8,0.9-1,1.5
					C61.4,678.6,61.3,679.2,61.3,679.9z M61.9,667.8c0,1.5,0.4,2.7,1.3,3.4c0.9,0.8,2.3,1.1,4.2,1.1s3.3-0.4,4.2-1.1
					c0.9-0.8,1.3-1.9,1.3-3.5c0-0.6-0.1-1.2-0.3-1.8c-0.2-0.6-0.5-1.1-1-1.5c-0.4-0.4-1-0.7-1.7-1c-0.7-0.2-1.5-0.4-2.5-0.4
					s-1.8,0.1-2.5,0.4c-0.7,0.2-1.3,0.6-1.7,1c-0.4,0.4-0.8,0.9-1,1.5C62,666.6,61.9,667.2,61.9,667.8z"/>
				<path fill="#8ABABA" d="M86.1,676.6c-0.9,0-1.8-0.2-2.6-0.5c-0.8-0.3-1.5-0.8-2-1.4s-1-1.5-1.4-2.5s-0.5-2.2-0.5-3.6
					c0-1.4,0.2-2.5,0.5-3.5s0.8-1.8,1.4-2.5c0.6-0.7,1.3-1.1,2-1.5s1.6-0.5,2.5-0.5c0.9,0,1.8,0.2,2.6,0.5c0.8,0.3,1.5,0.8,2,1.5
					c0.6,0.7,1,1.5,1.3,2.5s0.5,2.2,0.5,3.5c0,1.4-0.2,2.6-0.5,3.6s-0.7,1.8-1.3,2.5s-1.2,1.1-2,1.4
					C87.9,676.4,87.1,676.6,86.1,676.6z M86.1,673.9c1.1,0,2-0.4,2.6-1.3c0.6-0.8,0.9-2.2,0.9-4c0-1.8-0.3-3.1-0.9-4
					c-0.6-0.9-1.4-1.3-2.6-1.3c-1.1,0-2,0.4-2.6,1.3s-0.9,2.2-0.9,4c0,1.8,0.3,3.2,0.9,4C84.1,673.5,85,673.9,86.1,673.9z
					 M90.4,686.8h-3.1l13-25.6h3.1L90.4,686.8z M104.6,687.5c-0.9,0-1.8-0.2-2.6-0.5c-0.8-0.3-1.5-0.8-2-1.4c-0.6-0.6-1-1.5-1.4-2.5
					s-0.5-2.2-0.5-3.6c0-1.4,0.2-2.5,0.5-3.5s0.8-1.8,1.4-2.5c0.6-0.7,1.3-1.1,2-1.5s1.6-0.5,2.5-0.5c0.9,0,1.8,0.2,2.6,0.5
					c0.8,0.3,1.5,0.8,2,1.5c0.6,0.7,1,1.5,1.3,2.5s0.5,2.2,0.5,3.5c0,1.4-0.2,2.6-0.5,3.6s-0.7,1.8-1.3,2.5s-1.2,1.1-2,1.4
					C106.4,687.4,105.5,687.5,104.6,687.5z M104.6,684.9c1.1,0,2-0.4,2.6-1.3c0.6-0.8,0.9-2.2,0.9-4c0-1.8-0.3-3.1-0.9-4
					s-1.4-1.3-2.6-1.3c-1.1,0-2,0.4-2.6,1.3s-0.9,2.2-0.9,4c0,1.8,0.3,3.2,0.9,4C102.6,684.4,103.5,684.9,104.6,684.9z"/>
			</g>
		</g>
		<line fill="none" stroke="#175065" stroke-width="2" stroke-miterlimit="10" x1="22.4" y1="650" x2="22.4" y2="700"/>
		<path opacity="0.1" fill="#175065" enable-background="new    " d="M-298.3,529.8c-0.3-11.9-2.1-24-5.4-36
			c-9.9-35.9-31.9-65.2-60.4-84.8c-4.5-3.1-9.1-5.9-13.8-8.5l-10.6,19.3c1.8,0.9,3.5,1.9,5.2,3c2.3,1.4,4.6,2.9,6.8,4.4
			c24.3,16.7,43.1,41.8,51.6,72.4l0,0c4.8,17.6,5.8,35.3,3.4,52.3c-1.8,12.8-5.5,25.2-10.9,36.8l0,0c-1.3,2.8-2.7,5.5-4.2,8.2
			c-9.3,16.8-22.4,31.6-38.4,42.9c-3.1,2.2-6.2,4.3-9.5,6.2l0,0c-5.9,3.4-12.1,6.5-18.6,9c-4.1,1.6-8.3,3-12.6,4.2
			c-5.4,1.5-10.8,2.6-16.2,3.4c-5.8,0.8-11.6,1.2-17.3,1.3c-0.2,0-0.3,0-0.5,0l0,0c-0.2,0-0.5,0-0.7,0v22c0.2,0,0.5,0,0.7,0
			c13.2,0,26.6-1.8,39.9-5.4c17.6-4.8,33.7-12.6,47.8-22.7c1.7-1.2,3.3-2.4,4.9-3.6c8.4-6.5,16-13.8,22.8-21.8
			c10-11.8,18.2-25.1,24.2-39.4C-301.9,573.4-297.7,551.8-298.3,529.8z"/>
		<path opacity="0.1" fill="#175065" enable-background="new    " d="M-329.5,499.5L-329.5,499.5L-329.5,499.5
			c-8.3-29-26.3-52.7-49.4-68.6c-1.9-1.3-3.8-2.5-5.7-3.7c-1.9-1.2-3.9-2.3-5.9-3.4c-1-0.5-2-1-3-1.5c-13.1-6.6-27.4-11-42.3-12.7
			c-2.3-0.3-4.6-0.5-6.9-0.6c-5.8-0.3-11.6-0.3-17.4,0.2c-8.2,0.7-16.4,2.1-24.6,4.5c-0.6,0.2-1.2,0.3-1.7,0.5
			c-3.7,1.1-7.3,2.4-10.8,3.8c-7.9,3.2-15.3,7.1-22.1,11.7c-0.8,0.5-1.5,1-2.3,1.5l12.4,18c8.6-6,18.2-10.7,28.7-14
			c0.6-0.2,1.2-0.4,1.7-0.5c27-7.8,54.6-4,77.5,8.4c3.4,1.8,6.6,3.8,9.8,6c19,13.1,33.8,32.6,40.7,56.5l0,0l0,0l0,0
			c2.9,10.1,4.2,20.2,4,30.1c-0.2,15.1-3.8,29.8-10.2,43.1c-5.1,10.7-12.1,20.5-20.5,28.9c-11.9,11.8-26.9,20.9-44.1,25.9
			c-9.4,2.7-18.9,4-28.2,4h-0.1c-0.2,0-0.4,0-0.6,0v22c0.2,0,0.4,0,0.6,0h0.1c11.3,0,22.8-1.6,34.2-4.9
			c32.2-9.3,57.9-30.4,73.6-57.2c1.8-3,3.4-6.1,4.9-9.2c1.2-2.5,2.3-5,3.3-7.5c5.4-13.3,8.5-27.6,9-42.2
			C-324.3,525.7-325.8,512.5-329.5,499.5z"/>
		<path fill="#89BABA" d="M-451.3,637.5c-7.2-0.1-14.4-0.9-21.3-2.5c-7.5-1.7-14.8-4.2-21.7-7.5c-9.2-4.4-17.8-10.1-25.4-16.9
			c-13.8-12.5-24.3-28.8-29.8-47.9c-1.6-5.5-2.7-11-3.3-16.5c-4.5-38.3,12.8-75.5,43.6-97l-12.4-18.2c-0.8,0.5-1.5,1.1-2.2,1.6
			c-2.9,2.1-5.8,4.4-8.5,6.8c-2.7,2.4-5.3,4.9-7.8,7.5c-1.2,1.3-2.5,2.6-3.7,4c-1.8,2-3.5,4.1-5.2,6.2c-3.3,4.2-6.3,8.7-9,13.3
			c-0.9,1.5-1.8,3.1-2.6,4.7c-0.8,1.6-1.7,3.2-2.4,4.8c-1.9,4-3.7,8.2-5.2,12.4c-0.6,1.7-1.2,3.4-1.7,5.1c-1.1,3.4-2,6.9-2.7,10.4
			c-0.4,1.8-0.7,3.5-1,5.3c-0.3,1.8-0.6,3.6-0.8,5.4c-0.1,0.9-0.2,1.8-0.3,2.7c-0.2,1.8-0.3,3.6-0.5,5.4c-0.1,1.8-0.2,3.6-0.2,5.5
			c0,0.9,0,1.8,0,2.8c0,1.8,0.1,3.7,0.2,5.5c0,0.9,0.1,1.8,0.2,2.8c0.1,1.8,0.3,3.7,0.5,5.6c0.1,0.8,0.2,1.7,0.3,2.5
			c0.5,3.3,1.1,6.7,1.8,10c0.4,1.7,0.8,3.3,1.2,5c0.2,0.8,0.5,1.7,0.7,2.5c2.9,10.1,7,19.6,12.1,28.4c2.2,3.7,4.5,7.4,7.1,10.8
			c1.7,2.3,3.4,4.5,5.3,6.7c1.8,2.2,3.7,4.3,5.7,6.3s4,4,6.1,5.9c2.1,1.9,4.4,3.8,6.6,5.6c0.8,0.6,1.5,1.2,2.3,1.8
			c1.5,1.2,3.1,2.3,4.7,3.4c4.8,3.3,9.8,6.2,14.9,8.8c2.6,1.3,5.2,2.5,7.9,3.6c1.8,0.7,3.6,1.4,5.4,2.1c0.9,0.3,1.8,0.6,2.7,1
			c12.3,4.2,25.4,6.4,38.7,6.5c0.3,0,0.6,0,0.9,0v-22C-450.7,637.5-451,637.5-451.3,637.5z"/>
		<path fill="#89BABA" d="M-490.4,387.7c-0.6,0.2-1.2,0.3-1.8,0.5c-16.3,4.7-31.2,11.9-44.5,21.1c-44.8,31.1-70.4,85.1-64.5,140.7
			c0.9,8.1,2.4,16.2,4.6,24.3c7.7,28.2,23,52.3,43,70.9c15.6,14.5,34.2,25.6,54.3,32.5c9.9,3.4,20.2,5.8,30.7,7.1
			c5.7,0.7,11.4,1.1,17.2,1.1c0.2,0,0.4,0,0.6,0c0.1,0,0.2,0,0.3,0v-22c-0.1,0-0.3,0-0.4,0c-0.2,0-0.3,0-0.5,0
			c-32.7-0.3-63.8-13.1-87.2-34.8c-17.1-15.9-30.1-36.5-36.7-60.6c-1.9-6.9-3.2-13.9-3.9-20.8c-0.5-4.4-0.7-8.8-0.7-13.1
			c-0.1-18.9,4-37.2,11.6-54c1.7-3.6,3.5-7.2,5.4-10.7c1-1.8,2.1-3.6,3.2-5.3c1.6-2.5,3.2-4.9,4.9-7.2c0.3-0.4,0.6-0.8,0.9-1.2
			c0.8-1.1,1.7-2.2,2.5-3.3c7.7-9.7,16.9-18.3,27.2-25.4c9.9-6.9,21-12.5,33-16.5c0.1,0,0.2-0.1,0.3-0.1c1-0.3,2-0.7,3.1-1
			c0.5-0.1,1-0.3,1.5-0.4c0.6-0.2,1.2-0.3,1.8-0.5c1.1-0.3,2.2-0.6,3.2-0.8c3.2-0.8,6.5-1.5,9.7-2c29.2-4.9,58.2,0.5,82.9,13.7
			c0.1,0,0.2,0.1,0.2,0.1l10.6-19.3C-411.1,382.6-451.1,376.9-490.4,387.7z"/>
	</g>
</g>
<g id="Layer_2" display="none">
</g>
</svg>
