<?xml version="1.0" encoding="utf-8"?>
<!-- Generator: Adobe Illustrator 18.1.1, SVG Export Plug-In . SVG Version: 6.00 Build 0)  -->
<!DOCTYPE svg PUBLIC "-//W3C//DTD SVG 1.1//EN" "http://www.w3.org/Graphics/SVG/1.1/DTD/svg11.dtd">
<svg version="1.1" id="Layer_1" xmlns="http://www.w3.org/2000/svg" xmlns:xlink="http://www.w3.org/1999/xlink" x="0px" y="0px"
	 width="1548px" height="400px" viewBox="0 0 1548 400" enable-background="new 0 0 1548 400" xml:space="preserve">
<g>
	<path fill="#174F65" d="M551,172.1v-69.6c0-18.1-14.7-32.7-32.7-32.7h-69.6V57.5h-24.5v81.8h24.5V127h45v45h-12.3v24.5h81.8v-24.5
		H551z"/>
	<path fill="#174F65" d="M1053.5,172.1v24.5h81.8v-24.5h-12.3v-45h45v12.3h24.6V57.5h-24.6v12.3h-69.6c-18.1,0-32.7,14.7-32.7,32.7
		v69.6H1053.5z"/>
	<path fill="#174F65" d="M596.2,277h-45v-45h12.3v-24.5h-81.8V232h12.3v69.6c0,18.1,14.7,32.7,32.7,32.7h69.6v12.3h24.5v-81.8h-24.5
		V277z"/>
	<path fill="#174F65" d="M1065.8,231.9v45h-45v-12.3h-24.5v81.8h24.5v-12.3h69.6c18.1,0,32.7-14.7,32.7-32.7v-69.6h12.3v-24.5h-81.8
		v24.5H1065.8z"/>
	<path fill="#174F65" d="M388,57v13h-44V26h12V0h-80v26h12v44H24V57H0v84h24v-15h293.4c0.7,0,1.4,0,2.1,0H388v15h25V57H388z"/>
	<polygon fill="#174F65" points="957,265 957,277 773,277 773,26 784,26 784,0 702,0 702,26 716,26 716,277 662,277 662,265 
		637,265 637,347 662,347 662,334 846,334 846,374 833,374 833,400 917,400 917,374 903,374 903,334 957,334 957,347 980,347 
		980,265 	"/>
	<polygon fill="#174F65" points="1524,57 1524,70 1408,70 1408,26 1419,26 1419,0 1337,0 1337,26 1349,26 1349,70 1228,70 1228,57 
		1204,57 1204,141 1228,141 1228,126 1524,126 1524,141 1548,141 1548,57 	"/>
</g>
</svg>
