<?xml version="1.0" encoding="utf-8"?>
<!-- Generator: Adobe Illustrator 18.1.1, SVG Export Plug-In . SVG Version: 6.00 Build 0)  -->
<!DOCTYPE svg PUBLIC "-//W3C//DTD SVG 1.1//EN" "http://www.w3.org/Graphics/SVG/1.1/DTD/svg11.dtd">
<svg version="1.1" id="Layer_1" xmlns="http://www.w3.org/2000/svg" xmlns:xlink="http://www.w3.org/1999/xlink" x="0px" y="0px"
	 width="378.4px" height="300px" viewBox="0 0 378.4 300" enable-background="new 0 0 378.4 300" xml:space="preserve">
<g>
	<path fill="#174F65" d="M264.9,183.7c13.5-27.2,14.1-59,0.3-86.2c-11.1-21.8-28.9-37.9-51.2-45.9V0H0v300h213.9v-69.6
		c4.5-1.4,7-3,10.6-4.9c9.2-4.8,17.2-11,24.3-18.6l108,73.4c5.9,4,13.9,2.4,17.8-3.5l1.6-2.4c3.9-5.8,2.3-13.7-3.5-17.6L264.9,183.7
		z M196.1,282H17.8V18h178.3v29.2c-2.7-0.5-5.8-1-8.9-1.4V33H26.7v13.5h137.5c-5.6,0.8-11.2,2.2-16.6,4.5c-1.8,1-6.7,3.1-9.9,4.8
		c-2.7,1.4-5.3,2.6-7.8,4.2H26.7v13.5h88.3c-1.5,1.5-3,3-4.4,4.5c-2.4,3-4.5,6-6.5,9H26.7v13.5h69.8c-0.7,1.5-1.4,3-2.1,4.5
		c-1.8,4.5-3.3,4.5-4.4,9H26.7v13.5h60.8c-0.5,4.5-0.8,9-0.8,13.5h-60v13.5h60.9c0.6,4.5,1.5,9,2.7,13.5H26.7v13.5h68.2h0.7
		c2.8,5.5,5.7,9.9,8.5,13.5H26.7v13.5h89.7c4.4,3.8,10.8,8.8,17.9,13.5H26.7v13.5h140.4c4.4,0.5,9,0.6,13.6,0.6c0.8,0,2-0.1,2-0.1
		c4.5-0.1,8.9-0.5,13.4-1.2L196.1,282L196.1,282z M196.1,205.8V204h-32c-9.2,0-17.7-4.5-24.9-13.5h57V168h-8.9h-67
		c-1.8-4.5-3.1-9-4-13.5c-0.3-1.5-0.4-3-0.6-4.5h80.5v-27h-78.9c0.3-1.4,0.5-2.8,0.9-3.8c0.5-1.6,1-3.4,1.8-5.2
		c0.6-1.6,1.3-3.1,2.1-4.5h74.2v-27h-45.3c3.5-1.9,12.2-7.7,30-7.8c5.2,0,10.8,0.5,15.3,1.6c4.5,1.4,13.4,3.6,17.8,6.5v116.4
		C213.9,199.5,205,203.7,196.1,205.8z M240.7,171.3v-60.6C250.7,130.5,250,152.9,240.7,171.3z"/>
	<rect x="26.7" y="249" fill="#174F65" width="144.1" height="13.5"/>
	<circle opacity="0.2" fill="#8ABABA" cx="181.8" cy="140.3" r="67.6"/>
</g>
</svg>
