<?xml version="1.0" encoding="utf-8"?>
<!-- Generator: Adobe Illustrator 18.1.1, SVG Export Plug-In . SVG Version: 6.00 Build 0)  -->
<!DOCTYPE svg PUBLIC "-//W3C//DTD SVG 1.1//EN" "http://www.w3.org/Graphics/SVG/1.1/DTD/svg11.dtd">
<svg version="1.1" xmlns="http://www.w3.org/2000/svg" xmlns:xlink="http://www.w3.org/1999/xlink" x="0px" y="0px" width="88.7px"
	 height="120.4px" viewBox="0 0 88.7 120.4" enable-background="new 0 0 88.7 120.4" xml:space="preserve">
<g id="Layer_1">
	<g>
		<path fill="#FFFCF8" d="M43,98.4V93c-2.1-0.1-3.9-0.5-5.4-1.2c-1.5-0.7-2.8-1.5-3.8-2.6c-1-1.1-1.8-2.4-2.3-3.8
			c-0.5-1.4-0.8-3.1-0.9-4.9h8.6c0.1,1.3,0.4,2.4,0.9,3.4c0.5,1,1.4,1.7,2.8,2v-7.9c-4.1-0.8-7.1-2.1-8.9-3.8
			c-1.9-1.7-2.8-4.1-2.8-7.1c0-3.1,1-5.6,2.9-7.5c1.9-1.9,4.9-3,8.9-3.3v-5h3v5c2.1,0.2,3.8,0.6,5.3,1.2c1.4,0.6,2.6,1.4,3.5,2.4
			c0.9,1,1.6,2.1,2,3.3c0.5,1.2,0.7,2.5,0.9,3.8l-8.4,0.9c-0.4-2.6-1.5-4.2-3.3-4.8v7.2l2,0.4c3.8,0.8,6.5,2.2,8.1,4
			c1.6,1.8,2.3,4.1,2.3,6.8c0,1.5-0.2,2.9-0.7,4.2c-0.5,1.3-1.2,2.5-2.2,3.5c-1,1-2.3,1.8-3.8,2.5c-1.6,0.6-3.5,1-5.7,1.1v5.4H43z
			 M39.7,66.5c0,0.8,0.3,1.5,0.8,2c0.5,0.5,1.4,1,2.6,1.4v-6.7c-1.3,0.2-2.2,0.6-2.7,1.2C39.9,65,39.7,65.7,39.7,66.5z M49.7,82.5
			c0-0.9-0.3-1.7-0.8-2.4c-0.5-0.7-1.5-1.2-2.9-1.5v7.5c1.3-0.1,2.3-0.5,2.8-1.2C49.4,84.3,49.7,83.5,49.7,82.5z"/>
	</g>
	<path fill="#8ABABA" d="M86.9,64.2c-1.2-3.8-2.9-7.5-5.1-10.8c-0.1-0.2-0.2-0.5-0.3-0.7L46.6,1.2C46.1,0.4,45.3,0,44.4,0
		c-0.9,0-1.8,0.5-2.3,1.2L7.2,52.7c-0.1,0.2-0.2,0.4-0.3,0.7c-2.2,3.4-3.9,7-5.1,10.8C0.6,68.2,0,72.4,0,76.8c0,6,1.2,11.8,3.4,17.2
		c2.3,5.3,5.4,10,9.4,14c4,4,8.7,6.9,14,9.2c5.3,2.3,11.1,3.2,17.1,3.2h0.9c6,0,11.8-0.9,17.1-3.2c5.3-2.3,10-5.3,14-9.3
		c4-4,7.1-8.6,9.4-14c2.3-5.4,3.4-11.1,3.4-17.1C88.7,72.4,88.1,68.2,86.9,64.2z M83.3,76.8c0,5.3-1,10.4-3,15
		c-2,4.7-4.8,8.8-8.2,12.3c-3.5,3.5-7.6,6.3-12.3,8.3c-4.7,2-9.7,3-15,3h-0.9c-5.3,0-10.3-1-15-3c-4.7-2-8.8-4.8-12.3-8.3
		c-3.5-3.5-6.2-7.6-8.2-12.3c-2-4.7-3-9.7-3-15c0-3.9,0.5-7.6,1.6-11c1-3.4,2.6-6.7,4.6-9.7c0.1-0.2,0.2-0.4,0.3-0.6L44.4,7.5
		l32.5,47.9c0.1,0.2,0.2,0.5,0.4,0.7c2,3,3.5,6.2,4.5,9.7C82.8,69.3,83.3,72.9,83.3,76.8z"/>
</g>
<g id="Layer_2" display="none">
</g>
</svg>
