<?xml version="1.0" encoding="utf-8"?>
<!-- Generator: Adobe Illustrator 18.1.1, SVG Export Plug-In . SVG Version: 6.00 Build 0)  -->
<!DOCTYPE svg PUBLIC "-//W3C//DTD SVG 1.1//EN" "http://www.w3.org/Graphics/SVG/1.1/DTD/svg11.dtd">
<svg version="1.1" xmlns="http://www.w3.org/2000/svg" xmlns:xlink="http://www.w3.org/1999/xlink" x="0px" y="0px" width="148.2px"
	 height="148.2px" viewBox="0 0 148.2 148.2" enable-background="new 0 0 148.2 148.2" xml:space="preserve">
<g id="Layer_1">
	<g>
		<circle fill="none" stroke="#174F65" stroke-width="2" stroke-miterlimit="10" cx="74.1" cy="74.1" r="66.6"/>
		<circle fill="none" stroke="#174F65" stroke-width="5" stroke-miterlimit="10" cx="74.1" cy="74.1" r="71.6"/>
		<path fill="#8ABABA" d="M19.6,87.5L19.6,87.5c-1.3-0.2-2.2-1.3-2-2.6l1-7.9c0.2-1.3,1.3-2.2,2.6-2h0c1.3,0.2,2.2,1.3,2,2.6l-1,7.9
			C22.1,86.7,20.9,87.6,19.6,87.5z"/>
		<path fill="#8ABABA" d="M58.9,114.9L58.9,114.9c-0.9,0.9-2.4,0.9-3.3,0l-5.6-5.6c-0.9-0.9-0.9-2.4,0-3.3h0c0.9-0.9,2.4-0.9,3.3,0
			l5.6,5.6C59.9,112.5,59.9,114,58.9,114.9z"/>
		<path fill="#8ABABA" d="M50.1,105.7L50.1,105.7c-1.3,0-2.4-1.1-2.4-2.4v-8c0-1.3,1.1-2.4,2.4-2.4h0c1.3,0,2.4,1.1,2.4,2.4v8
			C52.5,104.7,51.4,105.7,50.1,105.7z"/>
		<path fill="#8ABABA" d="M50,93L50,93c-1.2,0.5-2.6-0.1-3.1-1.3l-3.1-7.4c-0.5-1.2,0.1-2.6,1.3-3.1h0c1.2-0.5,2.6,0.1,3.1,1.3
			l3.1,7.4C51.8,91.2,51.2,92.5,50,93z"/>
		<path fill="#8ABABA" d="M27.5,96.4L27.5,96.4c-1,0.8-2.5,0.7-3.3-0.3l-5-6.2c-0.8-1-0.7-2.5,0.3-3.3l0,0c1-0.8,2.5-0.7,3.3,0.3
			l5,6.2C28.6,94.1,28.5,95.6,27.5,96.4z"/>
		<path fill="#8ABABA" d="M86.3,45.6L86.3,45.6c-1.1,0.7-2.6,0.3-3.2-0.8l-4.1-6.8c-0.7-1.1-0.3-2.6,0.8-3.2h0
			c1.1-0.7,2.6-0.3,3.2,0.8l4.1,6.8C87.8,43.5,87.4,44.9,86.3,45.6z"/>
		<path fill="#8ABABA" d="M80.6,34.6L80.6,34.6c-1.1,0.7-2.6,0.3-3.2-0.8l-4.1-6.8c-0.7-1.1-0.3-2.6,0.8-3.2l0,0
			c1.1-0.7,2.6-0.3,3.2,0.8l4.1,6.8C82,32.5,81.7,33.9,80.6,34.6z"/>
		<path fill="#8ABABA" d="M93.3,84L93.3,84c-1.2,0.5-2.6-0.2-3-1.4l-4.6-12.2c-0.5-1.2,0.2-2.6,1.4-3h0c1.2-0.5,2.6,0.2,3,1.4
			l4.6,12.2C95.1,82.2,94.5,83.5,93.3,84z"/>
		<path fill="#8ABABA" d="M87,67.5L87,67.5c-1,0.9-2.5,0.8-3.3-0.2l-8.8-9.6c-0.9-1-0.8-2.5,0.2-3.3h0c1-0.9,2.5-0.8,3.3,0.2
			l8.8,9.6C88,65.2,88,66.7,87,67.5z"/>
		<path fill="#8ABABA" d="M38,73L38,73c-1.2-0.5-1.8-1.8-1.4-3l4.5-12.2c0.5-1.2,1.8-1.8,3-1.4l0,0c1.2,0.5,1.8,1.8,1.4,3L41,71.6
			C40.5,72.8,39.2,73.4,38,73z"/>
		<path fill="#8ABABA" d="M44.2,56.2L44.2,56.2c-1.3,0-2.4-1-2.4-2.3l-0.3-13c0-1.3,1-2.4,2.3-2.4h0c1.3,0,2.4,1,2.4,2.3l0.3,13
			C46.5,55.1,45.5,56.2,44.2,56.2z"/>
		<path fill="#8ABABA" d="M125.5,66.9L125.5,66.9c-0.2,1.3-1.5,2.1-2.7,1.9l-7.8-1.4c-1.3-0.2-2.1-1.5-1.9-2.7v0
			c0.2-1.3,1.5-2.1,2.7-1.9l7.8,1.4C124.9,64.4,125.8,65.6,125.5,66.9z"/>
		<path fill="#8ABABA" d="M113.5,63.9L113.5,63.9c-0.2,1.3-1.5,2.1-2.7,1.9l-7.8-1.4c-1.3-0.2-2.1-1.5-1.9-2.7v0
			c0.2-1.3,1.5-2.1,2.7-1.9l7.8,1.4C112.9,61.4,113.7,62.6,113.5,63.9z"/>
		<path fill="#8ABABA" d="M102.3,59.8L102.3,59.8c-1.2,0.4-2.6-0.2-3-1.5L95.2,46c-0.4-1.2,0.2-2.6,1.5-3v0c1.2-0.4,2.6,0.2,3,1.5
			l4.2,12.3C104.2,58,103.6,59.4,102.3,59.8z"/>
		<path fill="#8ABABA" d="M85.6,99L85.6,99c-0.2-1.3,0.6-2.5,1.9-2.7l12.8-2.2c1.3-0.2,2.5,0.6,2.7,1.9l0,0c0.2,1.3-0.6,2.5-1.9,2.7
			L88.3,101C87.1,101.2,85.8,100.3,85.6,99z"/>
		<path fill="#8ABABA" d="M103,95.8L103,95.8c-0.7-1.1-0.4-2.6,0.7-3.3l11-7c1.1-0.7,2.6-0.4,3.3,0.7h0c0.7,1.1,0.4,2.6-0.7,3.3
			l-11,7C105.2,97.2,103.7,96.9,103,95.8z"/>
		<path fill="#8ABABA" d="M65.8,131.3L65.8,131.3c-1.1-0.2-1.9-1.3-1.7-2.4l0.6-3.2c0.2-1.1,1.3-1.9,2.4-1.7h0
			c1.1,0.2,1.9,1.3,1.7,2.4l-0.6,3.2C68,130.8,67,131.6,65.8,131.3z"/>
		<path fill="#8ABABA" d="M57.8,41.2L57.8,41.2c-0.3-1.1,0.4-2.2,1.5-2.5l3.2-0.8c1.1-0.3,2.2,0.4,2.5,1.5v0
			c0.3,1.1-0.4,2.2-1.5,2.5l-3.2,0.8C59.1,43,58,42.3,57.8,41.2z"/>
		<path fill="#8ABABA" d="M127.9,89.7L127.9,89.7c1.1,0.3,1.8,1.4,1.5,2.5l-0.8,3.2c-0.3,1.1-1.4,1.8-2.5,1.5h0
			c-1.1-0.3-1.8-1.4-1.5-2.5l0.8-3.2C125.6,90.1,126.7,89.4,127.9,89.7z"/>
		<path fill="#E8513A" d="M109.7,42.4c0.1,0,0.1,0.1,0.1,0.2c0,0.1,0,0.1-0.1,0.2l-0.2,0.3c0,0.1-0.1,0.1-0.2,0.1
			c-0.1,0-0.1,0-0.2-0.1l-0.7-0.6l-0.2,0.9c0,0.1,0,0.1-0.1,0.2c-0.1,0-0.1,0-0.2,0l-0.3-0.1c-0.1,0-0.1,0-0.2-0.1
			c0-0.1,0-0.1,0-0.2l0.2-0.9l-0.9,0.3c-0.1,0-0.1,0-0.2,0c-0.1,0-0.1-0.1-0.1-0.1l-0.1-0.3c0-0.1,0-0.1,0-0.2
			c0-0.1,0.1-0.1,0.1-0.1l0.9-0.3l-0.7-0.6c-0.1,0-0.1-0.1-0.1-0.2c0-0.1,0-0.1,0.1-0.2l0.2-0.3c0-0.1,0.1-0.1,0.2-0.1
			c0.1,0,0.1,0,0.2,0.1l0.7,0.6l0.2-0.9c0-0.1,0-0.1,0.1-0.2c0.1,0,0.1,0,0.2,0l0.3,0.1c0.1,0,0.1,0,0.2,0.1c0,0.1,0,0.1,0,0.2
			l-0.2,0.9l0.9-0.3c0.1,0,0.1,0,0.2,0c0.1,0,0.1,0.1,0.1,0.1l0.1,0.3c0,0.1,0,0.1,0,0.2c0,0.1-0.1,0.1-0.1,0.1l-0.9,0.3L109.7,42.4
			L109.7,42.4z"/>
		<path fill="#174F65" d="M62.7,25.8c0,0,0-0.1,0-0.1c0,0,0-0.1-0.1-0.1l-0.9-0.4c0,0-0.1,0-0.1,0c0,0-0.1,0-0.1,0.1l-0.4,0.8
			c0,0,0,0.1,0,0.1c0,0,0,0.1,0.1,0.1l0.9,0.4c0,0,0.1,0,0.1,0c0,0,0.1,0,0.1-0.1L62.7,25.8z"/>
		<path fill="#174F65" d="M108.7,78.9c0,0,0-0.1,0-0.1c0,0,0-0.1-0.1-0.1l-0.9-0.4c0,0-0.1,0-0.1,0c0,0-0.1,0-0.1,0.1l-0.4,0.8
			c0,0,0,0.1,0,0.1c0,0,0,0.1,0.1,0.1l0.9,0.4c0,0,0.1,0,0.1,0c0,0,0.1,0,0.1-0.1L108.7,78.9z"/>
		<path fill="#174F65" d="M97,26c0.1,0.1,0.2,0.1,0.3,0.2s0.1,0.2,0.2,0.3c0,0.1,0.1,0.2,0.1,0.3c0,0.1,0,0.2-0.1,0.3
			c-0.1,0.1-0.1,0.2-0.2,0.3c-0.1,0.1-0.2,0.1-0.3,0.2c-0.1,0-0.2,0.1-0.3,0.1c-0.1,0-0.2,0-0.3-0.1s-0.2-0.1-0.3-0.2
			c-0.1-0.1-0.1-0.2-0.2-0.3c0-0.1-0.1-0.2-0.1-0.3c0-0.1,0-0.2,0.1-0.3c0.1-0.1,0.1-0.2,0.2-0.3c0.1-0.1,0.2-0.1,0.3-0.2
			c0.1,0,0.2-0.1,0.3-0.1C96.8,25.9,96.9,26,97,26z"/>
		<path fill="#174F65" d="M58.4,53.7c0.1,0.1,0.2,0.1,0.3,0.2c0.1,0.1,0.1,0.2,0.2,0.3c0,0.1,0.1,0.2,0.1,0.3c0,0.1,0,0.2-0.1,0.3
			c-0.1,0.1-0.1,0.2-0.2,0.3c-0.1,0.1-0.2,0.1-0.3,0.2c-0.1,0-0.2,0.1-0.3,0.1c-0.1,0-0.2,0-0.3-0.1c-0.1-0.1-0.2-0.1-0.3-0.2
			c-0.1-0.1-0.1-0.2-0.2-0.3c0-0.1-0.1-0.2-0.1-0.3c0-0.1,0-0.2,0.1-0.3c0.1-0.1,0.1-0.2,0.2-0.3c0.1-0.1,0.2-0.1,0.3-0.2
			c0.1,0,0.2-0.1,0.3-0.1C58.2,53.7,58.3,53.7,58.4,53.7z"/>
		<path fill="#E8513A" d="M32.9,39.5c0,0-0.1-0.1-0.1-0.1c0,0,0-0.1,0-0.1l0.2-0.2c0,0,0.1-0.1,0.1-0.1c0,0,0.1,0,0.1,0l0.5,0.5
			l0.1-0.7c0,0,0-0.1,0.1-0.1c0,0,0.1,0,0.1,0l0.3,0.1c0,0,0.1,0,0.1,0.1c0,0,0,0.1,0,0.1l-0.1,0.7l0.7-0.2c0,0,0.1,0,0.1,0
			c0,0,0.1,0.1,0.1,0.1l0.1,0.3c0,0,0,0.1,0,0.1c0,0-0.1,0.1-0.1,0.1l-0.7,0.2l0.5,0.5c0,0,0.1,0.1,0.1,0.1c0,0,0,0.1,0,0.1
			l-0.2,0.2c0,0-0.1,0.1-0.1,0.1c0,0-0.1,0-0.1,0l-0.5-0.5l-0.1,0.7c0,0,0,0.1-0.1,0.1c0,0-0.1,0-0.1,0l-0.3-0.1c0,0-0.1,0-0.1-0.1
			c0,0,0-0.1,0-0.1l0.1-0.7L33,40.8c0,0-0.1,0-0.1,0c0,0-0.1-0.1-0.1-0.1l-0.1-0.3c0,0,0-0.1,0-0.1c0,0,0.1-0.1,0.1-0.1l0.7-0.2
			L32.9,39.5L32.9,39.5z"/>
		<path fill="#174F65" d="M97,123.4C97,123.4,97,123.4,97,123.4c0,0.1,0,0.1,0.1,0.1l0.6,0.3c0,0,0.1,0,0.1,0c0,0,0,0,0.1-0.1
			l0.3-0.6c0,0,0-0.1,0-0.1c0,0,0-0.1-0.1-0.1l-0.6-0.3c0,0-0.1,0-0.1,0c0,0-0.1,0-0.1,0.1L97,123.4z"/>
		<path fill="#174F65" d="M111.9,115.7c-0.1,0-0.1-0.1-0.2-0.1s-0.1-0.1-0.1-0.2c0-0.1,0-0.1,0-0.2c0-0.1,0-0.2,0.1-0.2
			s0.1-0.1,0.1-0.2c0.1-0.1,0.1-0.1,0.2-0.1c0.1,0,0.1,0,0.2,0c0.1,0,0.2,0,0.2,0.1c0.1,0,0.1,0.1,0.2,0.1c0.1,0.1,0.1,0.1,0.1,0.2
			c0,0.1,0,0.1,0,0.2c0,0.1,0,0.2-0.1,0.2c0,0.1-0.1,0.1-0.1,0.2c-0.1,0.1-0.1,0.1-0.2,0.1c-0.1,0-0.1,0-0.2,0
			C112.1,115.8,112,115.8,111.9,115.7z"/>
		<path fill="#174F65" d="M123,51.8C123,51.8,123.1,51.8,123,51.8c0.1-0.1,0.1-0.1,0.1-0.1L123,51c0,0,0-0.1,0-0.1c0,0-0.1,0-0.1,0
			l-0.6,0.1c0,0-0.1,0-0.1,0c0,0,0,0,0,0.1l0.1,0.6c0,0,0,0.1,0,0.1c0,0,0.1,0,0.1,0L123,51.8z"/>
		<path fill="#174F65" d="M24.9,46.7c0.1,0,0.2,0,0.2,0c0.1,0,0.1,0.1,0.2,0.1c0.1,0.1,0.1,0.1,0.1,0.2c0,0.1,0,0.1,0.1,0.2
			c0,0.1,0,0.2,0,0.2c0,0.1-0.1,0.1-0.1,0.2c-0.1,0.1-0.1,0.1-0.2,0.1c-0.1,0-0.1,0-0.2,0.1c-0.1,0-0.2,0-0.2,0
			c-0.1,0-0.1-0.1-0.2-0.1c-0.1-0.1-0.1-0.1-0.1-0.2c0-0.1,0-0.1-0.1-0.2c0-0.1,0-0.2,0-0.2c0-0.1,0.1-0.1,0.1-0.2
			c0.1-0.1,0.1-0.1,0.2-0.1C24.8,46.7,24.8,46.7,24.9,46.7z"/>
		<path fill="#174F65" d="M39,121.5c0-0.1,0-0.2,0-0.2s0-0.2,0.1-0.2c0-0.1,0.1-0.1,0.1-0.2c0.1-0.1,0.1-0.1,0.2-0.1
			c0.1,0,0.2,0,0.2,0c0.1,0,0.2,0,0.2,0.1c0.1,0,0.1,0.1,0.2,0.1c0.1,0.1,0.1,0.1,0.1,0.2c0,0.1,0,0.2,0,0.2c0,0.1,0,0.2-0.1,0.2
			c0,0.1-0.1,0.1-0.1,0.2c-0.1,0.1-0.1,0.1-0.2,0.1c-0.1,0-0.2,0-0.2,0c-0.1,0-0.2,0-0.2-0.1c-0.1,0-0.1-0.1-0.2-0.1
			C39.1,121.6,39,121.6,39,121.5z"/>
		<path fill="#174F65" d="M36.2,113.6C36.2,113.6,36.2,113.6,36.2,113.6c-0.1,0.1-0.1,0.1-0.1,0.1l0.2,0.6c0,0,0,0,0.1,0.1
			c0,0,0.1,0,0.1,0l0.6-0.2c0,0,0,0,0.1-0.1c0,0,0-0.1,0-0.1l-0.2-0.6c0,0,0,0-0.1-0.1c0,0-0.1,0-0.1,0L36.2,113.6z"/>
		<path fill="#174F65" d="M63.1,85.4C63,85.4,63,85.4,63.1,85.4C63,85.5,63,85.5,63,85.5l0.2,0.6c0,0,0,0,0.1,0.1c0,0,0.1,0,0.1,0
			L64,86c0,0,0,0,0.1-0.1c0,0,0-0.1,0-0.1l-0.2-0.6c0,0,0,0-0.1-0.1c0,0-0.1,0-0.1,0L63.1,85.4z"/>
		<path fill="#174F65" d="M61.3,89.5c0-0.1,0-0.2,0-0.2c0-0.1,0-0.2,0.1-0.2c0-0.1,0.1-0.1,0.1-0.2c0.1-0.1,0.1-0.1,0.2-0.1
			c0.1,0,0.2,0,0.2,0c0.1,0,0.2,0,0.2,0.1c0.1,0,0.1,0.1,0.2,0.1c0.1,0.1,0.1,0.1,0.1,0.2c0,0.1,0,0.2,0,0.2c0,0.1,0,0.2-0.1,0.2
			c0,0.1-0.1,0.1-0.1,0.2c-0.1,0.1-0.1,0.1-0.2,0.1c-0.1,0-0.2,0-0.2,0c-0.1,0-0.2,0-0.2-0.1c-0.1,0-0.1-0.1-0.2-0.1
			C61.4,89.7,61.3,89.6,61.3,89.5z"/>
		<path fill="#174F65" d="M80.5,115.5c-0.1,0-0.1,0-0.2,0.1c-0.1,0-0.1,0.1-0.1,0.2l-0.3,1.7c0,0.1,0,0.1,0,0.2
			c0,0.1,0.1,0.1,0.2,0.1l1.6,0.3c0.1,0,0.1,0,0.2,0c0.1,0,0.1-0.1,0.1-0.2l0.3-1.7c0-0.1,0-0.1,0-0.2c0-0.1-0.1-0.1-0.2-0.1
			L80.5,115.5z"/>
		<path fill="#174F65" d="M121.1,102.4C121.1,102.5,121.1,102.5,121.1,102.4c0.1,0.1,0.2,0.1,0.2,0.1l0.9-0.3c0,0,0.1,0,0.1-0.1
			c0,0,0-0.1,0-0.1l-0.3-0.9c0,0,0-0.1-0.1-0.1c0,0-0.1,0-0.1,0l-0.9,0.3c0,0-0.1,0-0.1,0.1c0,0,0,0.1,0,0.1L121.1,102.4z"/>
		<path fill="#174F65" d="M97.3,113.3c0.1,0,0.2,0,0.2,0c0.1,0,0.2,0,0.2,0.1c0.1,0,0.1,0.1,0.2,0.1c0.1,0.1,0.1,0.1,0.1,0.2
			s0,0.2,0,0.2c0,0.1,0,0.2-0.1,0.2c0,0.1-0.1,0.1-0.1,0.2c-0.1,0.1-0.1,0.1-0.2,0.1c-0.1,0-0.2,0-0.2,0c-0.1,0-0.2,0-0.2-0.1
			c-0.1,0-0.1-0.1-0.2-0.1c-0.1-0.1-0.1-0.1-0.1-0.2c0-0.1,0-0.2,0-0.2c0-0.1,0-0.2,0.1-0.2c0-0.1,0.1-0.1,0.1-0.2
			C97.1,113.4,97.2,113.3,97.3,113.3z"/>
		<path fill="#174F65" d="M100.5,85.4C100.5,85.4,100.5,85.5,100.5,85.4c0,0.1,0,0.1,0,0.2l0.5,0.4c0,0,0.1,0,0.1,0c0,0,0.1,0,0.1,0
			l0.4-0.5c0,0,0,0,0-0.1c0,0,0-0.1,0-0.1l-0.5-0.4c0,0-0.1,0-0.1,0c0,0-0.1,0-0.1,0L100.5,85.4z"/>
		<path fill="#E8513A" d="M65.3,103.3c0,0-0.1-0.1-0.1-0.1c0,0,0-0.1,0-0.1l0.2-0.2c0,0,0.1-0.1,0.1-0.1c0,0,0.1,0,0.1,0l0.5,0.5
			l0.1-0.7c0,0,0-0.1,0.1-0.1c0,0,0.1,0,0.1,0l0.3,0.1c0,0,0.1,0,0.1,0.1c0,0,0,0.1,0,0.1l-0.1,0.7l0.7-0.2c0,0,0.1,0,0.1,0
			c0,0,0.1,0.1,0.1,0.1l0.1,0.3c0,0,0,0.1,0,0.1c0,0-0.1,0.1-0.1,0.1l-0.7,0.2l0.5,0.5c0,0,0.1,0.1,0.1,0.1c0,0,0,0.1,0,0.1
			l-0.2,0.2c0,0-0.1,0.1-0.1,0.1c0,0-0.1,0-0.1,0l-0.5-0.5l-0.1,0.7c0,0,0,0.1-0.1,0.1c0,0-0.1,0-0.1,0l-0.3-0.1c0,0-0.1,0-0.1-0.1
			c0,0,0-0.1,0-0.1l0.1-0.7l-0.7,0.2c0,0-0.1,0-0.1,0c0,0-0.1-0.1-0.1-0.1l-0.1-0.3c0,0,0-0.1,0-0.1c0,0,0.1-0.1,0.1-0.1l0.7-0.2
			L65.3,103.3L65.3,103.3z"/>
		<path fill="#174F65" d="M53.8,67.5C53.8,67.5,53.9,67.5,53.8,67.5c0.1,0.1,0.2,0.1,0.2,0.1l0.9-0.3c0,0,0.1,0,0.1-0.1
			c0,0,0-0.1,0-0.1l-0.3-0.9c0,0,0-0.1-0.1-0.1c0,0-0.1,0-0.1,0l-0.9,0.3c0,0-0.1,0-0.1,0.1c0,0,0,0.1,0,0.1L53.8,67.5z"/>
		<path fill="#174F65" d="M80,91.1C80,91.1,80.1,91.1,80,91.1c0.1,0.1,0.2,0.1,0.2,0.1l0.9-0.3c0,0,0.1,0,0.1-0.1c0,0,0-0.1,0-0.1
			l-0.3-0.9c0,0,0-0.1-0.1-0.1c0,0-0.1,0-0.1,0L79.8,90c0,0-0.1,0-0.1,0.1c0,0,0,0.1,0,0.1L80,91.1z"/>
		<path fill="#174F65" d="M71.9,70.5c0.1,0,0.1,0.1,0.2,0.1s0.1,0.1,0.1,0.2c0,0.1,0,0.1,0,0.2c0,0.1,0,0.2-0.1,0.2
			c0,0.1-0.1,0.1-0.1,0.2c-0.1,0.1-0.1,0.1-0.2,0.1c-0.1,0-0.1,0-0.2,0c-0.1,0-0.2,0-0.2-0.1c-0.1,0-0.1-0.1-0.2-0.1
			c-0.1-0.1-0.1-0.1-0.1-0.2c0-0.1,0-0.1,0-0.2c0-0.1,0-0.2,0.1-0.2c0-0.1,0.1-0.1,0.1-0.2c0.1-0.1,0.1-0.1,0.2-0.1
			c0.1,0,0.1,0,0.2,0C71.7,70.4,71.8,70.5,71.9,70.5z"/>
		<path fill="#174F65" d="M24.8,63.8C24.7,63.9,24.7,63.9,24.8,63.8c0,0.1,0,0.1,0,0.2l0.5,0.4c0,0,0.1,0,0.1,0c0,0,0.1,0,0.1,0
			l0.4-0.5c0,0,0,0,0-0.1c0,0,0-0.1,0-0.1l-0.5-0.4c0,0-0.1,0-0.1,0c0,0-0.1,0-0.1,0L24.8,63.8z"/>
	</g>
</g>
<g id="Layer_2" display="none">
</g>
</svg>
