<?xml version="1.0" encoding="utf-8"?>
<!-- Generator: Adobe Illustrator 18.1.1, SVG Export Plug-In . SVG Version: 6.00 Build 0)  -->
<!DOCTYPE svg PUBLIC "-//W3C//DTD SVG 1.1//EN" "http://www.w3.org/Graphics/SVG/1.1/DTD/svg11.dtd">
<svg version="1.1" id="Layer_1" xmlns="http://www.w3.org/2000/svg" xmlns:xlink="http://www.w3.org/1999/xlink" x="0px" y="0px"
	 width="229.1px" height="300px" viewBox="-134 101 229.1 300" enable-background="new -134 101 229.1 300" xml:space="preserve">
<g>
	<path fill="#FFFCF8" d="M95,206.4c0-8,1.1-13.2-4.7-17.4c0-8.5-7.7-11.8-18.1-17.7C44.4,155.1,34,158.9,34,145.5
		c0-4.1,0-7.5,0-11.5h0.7c0.5,0,1.3-0.9,1.3-1.4v-3.4c0-0.5-0.8-1.2-1.3-1.2H34c0-0.6,0-1.3,0-1.9H3c0,0.6,0,1.2,0,1.9H1.7
		c-0.5,0-0.7,0.6-0.7,1.2v3.4c0,0.5,0.2,1.4,0.7,1.4H3c0,4,0,7.4,0,11.5c0,13.4-10.7,9.6-38.5,25.7c-10.3,6-18.4,9.3-18.4,17.7
		c-5.9,4.2-5,9.4-5,17.4s3.8,9.3,3.8,9.3v53c7.2,4.3,16.1,10,19.7,14.9c6.2,8.5,9.2,80.9,8.5,87.2c-0.7,5.7-5.7,15.2-9.6,19.9
		c13.1,4,31.7,4.3,39.6,4.3H34v0.1c13,0,53.1-0.7,53.1-16.9c6.8,0,7.3-8,7.3-13.7c0-10.9,0.6-12.4-3.4-15c0-3.6,0-9.1,0-9.1
		s4-1.3,4-9.6s0-5.9,0-10.4c0-4.6-4-4.9-4-4.9v-99.8C91,215.7,95,214.4,95,206.4z"/>
	<polygon fill="#FFFCF8" points="-67.7,253.4 -67.7,247.8 -90.9,247.8 -90.9,253.2 	"/>
	<path fill="#8ABABA" d="M-35.3,283.6c-6.2-8.5-28.4-19.6-30.1-20.9c-1-0.7-1.7-1.5-1.5-2.5s1.5-1.2,1.5-2.2s-1-1.5-1-1.5v-3.1h-1.2
		l-23.2-0.1H-92v3.2c0,0-1,0.5-1,1.2c0,1.5,1.6,0.7,1.6,2.2s-1.1,2.2-2.1,2.7c-1.3,0.6-18.9,7.2-22.2,12c-3.2,4.7-15.7,61-16.4,66.3
		c-0.9,5.2-2.9,21.7-1.4,29.2c1.5,7.4,3.8,16.9,7.5,20.1s35.6,13.2,42.3,10.2c6.7-3,6.7-8,9.5-8c2.7,0,4.5,4.5,8.5,6.2
		s24.2-2.7,28.1-6.7c4-4,10-14.9,10.7-21.2C-26.1,364.6-29.1,292.1-35.3,283.6z M-104.8,316.8c0,2.6-1.9,5.2-4.5,4.5
		c-2.6-0.7-6-6.4-3.4-22c2.6-15.7,2.6-17.6,4.9-19.1c2.2-1.5,7.1-1.5,8.2,1.1C-99.1,282.4-104.8,314.1-104.8,316.8z"/>
</g>
<rect x="-1.3" y="101" fill="#8ABABA" width="39" height="25.1"/>
</svg>
