<?xml version="1.0" encoding="utf-8"?>
<!-- Generator: Adobe Illustrator 18.1.1, SVG Export Plug-In . SVG Version: 6.00 Build 0)  -->
<!DOCTYPE svg PUBLIC "-//W3C//DTD SVG 1.1//EN" "http://www.w3.org/Graphics/SVG/1.1/DTD/svg11.dtd">
<svg version="1.1" id="Layer_1" xmlns="http://www.w3.org/2000/svg" xmlns:xlink="http://www.w3.org/1999/xlink" x="0px" y="0px"
	 width="498.8px" height="34.4px" viewBox="0 0 498.8 34.4" enable-background="new 0 0 498.8 34.4" xml:space="preserve">
<g>
	<g>
		
			<text transform="matrix(1 0 0 1 -2.3023 23.5796)" fill="#FFFFFF" font-family="'HelveticaNeue-Light'" font-size="22.5478" letter-spacing="1">A PROJECT BY</text>
	</g>
	<g>
		<g>
			<g>
				<path fill="#FFFFFF" d="M231.8,5.5v24.5h-5.5V5.5h-5.4V0.6h16.3v4.8H231.8z"/>
				<path fill="#FFFFFF" d="M250.5,29.9v-12h-6.1v12h-5.5V0.6h5.5V13h6.1V0.6h5.5v29.3H250.5z"/>
				<path fill="#FFFFFF" d="M259.4,29.9V0.6h14v4.7h-8.5v7.3h5.9v4.3h-5.9V25h8.5v4.9H259.4z"/>
				<path fill="#FFFFFF" d="M292.4,5.5v24.5h-5.5V5.5h-5.4V0.6h16.3v4.8H292.4z"/>
				<path fill="#FFFFFF" d="M300.1,29.9V0.6h14v4.7h-8.5v7.3h5.9v4.3h-5.9V25h8.5v4.9H300.1z"/>
				<path fill="#FFFFFF" d="M328.3,29.9l-3.4-10.1l-3.7,10.1h-5.3l6-14.8l-5.7-14.5h5.7l3.2,10.1l3.5-10.1h5.4l-5.8,14.1l5.9,15.2
					H328.3z"/>
				<path fill="#FFFFFF" d="M347.4,29.9l-1-5.8h-5.2l-1.1,5.8H335l5.9-29.3h6.1l5.9,29.3H347.4z M343.9,8.5l-2,11.3h3.7L343.9,8.5z"
					/>
				<path fill="#FFFFFF" d="M361.7,30.6c-5,0-8.1-3-8.1-7.6v-2h5v1.7c0,2.2,1,3.3,3,3.3c1.9,0,2.9-1.1,2.9-2.9
					c0-2.3-1.5-3.9-4.4-6.1c-3-2.2-6.2-5.1-6.2-9.1c0-4.2,2.7-7.9,8-7.9c4.6,0,7.7,3.2,7.7,7.5v1.9h-5V7.7c0-1.8-0.9-3.1-2.8-3.1
					c-1.6,0-2.6,1-2.6,2.6c0,2.5,1.5,3.7,4.7,6.1c3.5,2.6,5.9,5.2,5.9,9.2C369.8,27.2,366.6,30.6,361.7,30.6z"/>
				<path fill="#FFFFFF" d="M388,5.5v24.5h-5.5V5.5h-5.4V0.6h16.3v4.8H388z"/>
				<path fill="#FFFFFF" d="M409.1,30.1c-2.2,0-3-1.8-3-4.3v-5.5c0-1.4-0.7-2.5-2.2-2.5h-2.9v12.1h-5.5V0.6h9c4,0,6.7,2.3,6.7,6.4
					v4.1c0,2.2-1,3.8-3.3,4.5c2.3,0.6,3.4,2.5,3.4,4.4v5.4c0,1.4,0.4,2.3,1.1,3v1.6H409.1z M406,7.2c0-1.3-0.6-2.1-1.9-2.1h-3v8.6
					h2.8c1.4,0,2.2-0.8,2.2-2.3V7.2z"/>
				<path fill="#FFFFFF" d="M415.7,29.9V0.6h5.5v29.3H415.7z"/>
				<path fill="#FFFFFF" d="M434.8,29.9h-9.2V0.6h9.1c4,0,6.5,2.2,6.5,6.2V10c0,2.5-1,4.4-3.5,4.9c2.6,0.7,3.6,2.5,3.6,5v3.8
					C441.3,27.8,438.8,29.9,434.8,29.9z M435.9,7.2c0-1.3-0.6-2.1-1.9-2.1H431v8.1h2.7c1.4,0,2.2-0.7,2.2-2.3V7.2z M436,19.5
					c0-1.5-0.7-2.3-2.2-2.3H431v8.3h3.1c1.4,0,1.9-0.7,1.9-2.1V19.5z"/>
				<path fill="#FFFFFF" d="M452.8,30.6c-4.8,0-8.3-3-8.3-7.4V0.6h5.5v22.5c0,1.7,1,2.7,2.7,2.7c1.8,0,2.8-1,2.8-2.7V0.6h5.3v22.5
					C460.8,27.5,457.5,30.6,452.8,30.6z"/>
				<path fill="#FFFFFF" d="M476.9,29.9l-5.7-12.5l-2.1-4.7v17.2h-5V0.6h4.7l5.4,12.7l1.9,4.7V0.6h4.9v29.3H476.9z"/>
				<path fill="#FFFFFF" d="M484.8,29.9V0.6h14v4.7h-8.5v7.3h5.9v4.3h-5.9V25h8.5v4.9H484.8z"/>
			</g>
			<path fill="#FCB918" d="M186.5,0.3v34.1l6.9-4.3h22.9V0.3H186.5z M207.8,24.1l-6.5-4.3l-6.5,4.3l2.1-7.5l-6.1-4.9l7.8-0.4
				l2.8-7.3l2.8,7.3l7.8,0.4l-6.1,4.9L207.8,24.1z"/>
		</g>
	</g>
</g>
</svg>
