<?xml version="1.0" encoding="utf-8"?>
<!-- Generator: Adobe Illustrator 18.1.1, SVG Export Plug-In . SVG Version: 6.00 Build 0)  -->
<!DOCTYPE svg PUBLIC "-//W3C//DTD SVG 1.1//EN" "http://www.w3.org/Graphics/SVG/1.1/DTD/svg11.dtd">
<svg version="1.1" id="Layer_1" xmlns="http://www.w3.org/2000/svg" xmlns:xlink="http://www.w3.org/1999/xlink" x="0px" y="0px"
	 width="621px" height="61.1px" viewBox="58 205.9 621 61.1" enable-background="new 58 205.9 621 61.1" xml:space="preserve">
<g>
	<g>
		<path fill="#174F65" d="M110.5,205.9h-19v35.5c0,3.2-0.6,5.5-1.7,7.1c-1.1,1.5-3,2.3-5.6,2.3s-4.5-0.8-5.6-2.3s-1.7-3.9-1.7-7.1
			v-35.5H58v34.7c0,4.7,0.6,8.7,1.8,12c1.2,3.3,2.9,6.1,5.1,8.2c2.2,2.1,5,3.7,8.2,4.7c3.2,1,6.9,1.5,10.9,1.5
			c8.5,0,15.1-2.2,19.6-6.6c4.6-4.4,6.8-11,6.8-19.9v-34.6H110.5z"/>
		<path fill="#174F65" d="M173.1,205.9h-17.7v30.2l-19-30.2h-16.3v59.6h17.7v-30.3l19.2,30.4h16.1V205.9L173.1,205.9z"/>
		<path fill="#174F65" d="M296,225.5c0,4-0.8,7.4-2.3,10.3c-1.5,2.8-3.7,5.2-6.5,6.9l12.4,22.9h-19.4l-9.5-19.1H264v19.1h-17.9
			v-59.7h25.6c4.6,0,8.4,0.5,11.5,1.5s5.6,2.4,7.5,4.2s3.2,3.8,4.1,6.2C295.6,220.3,296,222.8,296,225.5z M264.1,232.7h6.3
			c2.8,0,4.8-0.5,6-1.6c1.2-1.1,1.8-2.6,1.8-4.8c0-2.1-0.6-3.7-1.8-4.8c-1.2-1.1-3.2-1.6-6-1.6h-6.3V232.7z"/>
		<path fill="#174F65" d="M305,205.9h19v59.6h-19V205.9z"/>
		<path fill="#174F65" d="M334,205.9h16.3l19,30.2v-30.2H387v59.6h-16.1l-19.2-30.3v30.3H334V205.9z"/>
		<path fill="#174F65" d="M420.7,242l-4.8,5.8v17.8h-19v-59.7h19v19.8l15.7-19.8h19.9L433,228.1l20.7,37.4h-20.6L420.7,242z"/>
		<path fill="#174F65" d="M496.4,256h-18.9l-2.6,9.6h-18.7l19.4-59.6H499l19.2,59.6h-19.1L496.4,256z M481.5,241.2h10.9l-5.4-19.8
			L481.5,241.2z"/>
		<path fill="#174F65" d="M524.9,205.9h27.8c4,0,7.3,0.4,10,1.2s4.8,1.9,6.4,3.3s2.7,3,3.4,4.9c0.7,1.9,1,3.8,1,5.9
			c0,2.7-0.6,5.2-1.7,7.3c-1.2,2.1-3,3.9-5.7,5.4c6,2.7,9.1,7.4,9.1,14.1c0,2.3-0.4,4.6-1.2,6.7c-0.8,2.1-2.1,4-3.9,5.6
			c-1.8,1.6-4.2,2.9-7.2,3.8c-2.9,0.9-6.6,1.4-10.9,1.4h-27.1L524.9,205.9L524.9,205.9z M542.2,228.6h7.4c2.3,0,3.9-0.4,4.8-1.2
			c0.8-0.8,1.3-1.9,1.3-3.3c0-1.4-0.4-2.6-1.3-3.3c-0.8-0.8-2.4-1.2-4.8-1.2h-7.4V228.6z M542.2,252h7.9c2.8,0,4.8-0.5,5.8-1.4
			c1-0.9,1.5-2.3,1.5-4c0-1.8-0.5-3.1-1.5-4.1c-1-0.9-2.9-1.4-5.8-1.4h-7.9V252z"/>
		<path fill="#174F65" d="M582.4,205.9h19v43.3h25l-1.6,16.3h-42.3v-59.6H582.4z"/>
		<path fill="#174F65" d="M633,205.9h44.3v14.6h-25.7v7.6h24.1v14.6h-24.1v8.2H679l-1.4,14.6H633V205.9z"/>
		<path fill="#174F65" d="M230.9,213.5c-5.2-5-12.9-7.5-23.3-7.6h-24.5v59.6h24.5c10.1,0,17.8-2.6,23.1-7.8c5.3-5.2,8-12.7,8-22.5
			C238.7,225.8,236.1,218.5,230.9,213.5z M219.8,243.9c-0.6,1.3-1.3,2.5-2.3,3.5s-2.1,1.8-3.4,2.3c-1.3,0.6-2.7,0.8-4.2,0.8h-0.1
			l0,0h-0.1c-1.5,0-2.9-0.3-4.2-0.8c-1.3-0.6-2.5-1.3-3.4-2.3c-1-1-1.8-2.1-2.3-3.5c-0.6-1.3-0.8-2.7-0.8-4.2c0-1.1,0.2-2.1,0.5-3.1
			s0.7-1.9,1.3-2.7c0,0,0-0.1,0.1-0.1l9.1-13.5l0,0l0,0l0,0l0,0l9.1,13.5c0,0,0,0.1,0.1,0.1c0.6,0.8,1,1.7,1.3,2.7s0.5,2,0.5,3.1
			C220.6,241.2,220.3,242.6,219.8,243.9z"/>
	</g>
	<polyline fill="#8ABABA" points="170.6,208.4 170.6,263.1 158.3,263.1 139.9,233.9 135.3,226.7 135.3,235.2 135.3,263.1 
		122.5,263.1 122.5,208.4 135,208.4 153.3,237.4 157.9,244.6 157.9,236.1 157.9,208.4 170.6,208.4 	"/>
	<path fill="#8ABABA" d="M108,208.4v32.2c0,8.2-2,14.3-6.1,18.1c-4.1,3.9-10.1,5.9-17.9,5.9c-3.8,0-7.2-0.5-10.2-1.4
		c-2.8-0.9-5.3-2.3-7.2-4.1c-1.9-1.9-3.4-4.3-4.5-7.3c-1.1-3.1-1.6-6.8-1.6-11.2v-32.2h14v33c0,3.7,0.7,6.5,2.1,8.5
		c1.6,2.2,4.2,3.3,7.6,3.3s6-1.1,7.6-3.3c1.4-2,2.1-4.8,2.1-8.5v-33H108"/>
</g>
</svg>
