<?xml version="1.0" encoding="utf-8"?>
<!-- Generator: Adobe Illustrator 18.1.1, SVG Export Plug-In . SVG Version: 6.00 Build 0)  -->
<!DOCTYPE svg PUBLIC "-//W3C//DTD SVG 1.1//EN" "http://www.w3.org/Graphics/SVG/1.1/DTD/svg11.dtd">
<svg version="1.1" id="Layer_1" xmlns="http://www.w3.org/2000/svg" xmlns:xlink="http://www.w3.org/1999/xlink" x="0px" y="0px"
	 width="635px" height="70px" viewBox="0 0 635 70" enable-background="new 0 0 635 70" xml:space="preserve">
<g>
	<g>
		<path fill="#174F65" d="M59.5,4.4h-19v35.5c0,3.2-0.6,5.5-1.7,7.1c-1.1,1.5-3,2.3-5.6,2.3c-2.6,0-4.5-0.8-5.6-2.3
			c-1.1-1.5-1.7-3.9-1.7-7.1V4.4H7v34.7c0,4.7,0.6,8.7,1.8,12c1.2,3.3,2.9,6.1,5.1,8.2c2.2,2.1,5,3.7,8.2,4.7
			c3.2,1,6.9,1.5,10.9,1.5c8.5,0,15.1-2.2,19.6-6.6c4.6-4.4,6.8-11,6.8-19.9V4.4L59.5,4.4z"/>
		<path fill="#174F65" d="M122.1,4.4h-17.7v30.2l-19-30.2H69.1v59.6h17.7V33.7L106,64.1h16.1V4.4L122.1,4.4z"/>
		<path fill="#174F65" d="M245,24c0,4-0.8,7.4-2.3,10.3c-1.5,2.8-3.7,5.2-6.5,6.9l12.4,22.9h-19.4l-9.5-19.1h-6.7v19.1h-17.9V4.4
			h25.6c4.6,0,8.4,0.5,11.5,1.5c3.1,1,5.6,2.4,7.5,4.2c1.9,1.8,3.2,3.8,4.1,6.2C244.6,18.8,245,21.3,245,24z M213.1,31.2h6.3
			c2.8,0,4.8-0.5,6-1.6c1.2-1.1,1.8-2.6,1.8-4.8c0-2.1-0.6-3.7-1.8-4.8c-1.2-1.1-3.2-1.6-6-1.6h-6.3V31.2z"/>
		<path fill="#174F65" d="M254,4.4h19v59.6h-19V4.4z"/>
		<path fill="#174F65" d="M283,4.4h16.3l19,30.2V4.4H336v59.6h-16.1l-19.2-30.3v30.3H283V4.4z"/>
		<path fill="#174F65" d="M369.7,40.5l-4.8,5.8v17.8h-19V4.4h19v19.8l15.7-19.8h19.9L382,26.6l20.7,37.4h-20.6L369.7,40.5z"/>
		<path fill="#174F65" d="M445.4,54.5h-18.9l-2.6,9.6h-18.7l19.4-59.6H448l19.2,59.6h-19.1L445.4,54.5z M430.5,39.7h10.9L436,19.9
			L430.5,39.7z"/>
		<path fill="#174F65" d="M473.9,4.4h27.8c4,0,7.3,0.4,10,1.2c2.7,0.8,4.8,1.9,6.4,3.3c1.6,1.4,2.7,3,3.4,4.9c0.7,1.9,1,3.8,1,5.9
			c0,2.7-0.6,5.2-1.7,7.3c-1.2,2.1-3,3.9-5.7,5.4c6,2.7,9.1,7.4,9.1,14.1c0,2.3-0.4,4.6-1.2,6.7c-0.8,2.1-2.1,4-3.9,5.6
			c-1.8,1.6-4.2,2.9-7.2,3.8c-2.9,0.9-6.6,1.4-10.9,1.4h-27.1V4.4z M491.2,27.1h7.4c2.3,0,3.9-0.4,4.8-1.2c0.8-0.8,1.3-1.9,1.3-3.3
			c0-1.4-0.4-2.6-1.3-3.3c-0.8-0.8-2.4-1.2-4.8-1.2h-7.4V27.1z M491.2,50.5h7.9c2.8,0,4.8-0.5,5.8-1.4c1-0.9,1.5-2.3,1.5-4
			c0-1.8-0.5-3.1-1.5-4.1c-1-0.9-2.9-1.4-5.8-1.4h-7.9V50.5z"/>
		<path fill="#174F65" d="M531.4,4.4h19v43.3h25l-1.6,16.3h-42.3V4.4z"/>
		<path fill="#174F65" d="M582,4.4h44.3V19h-25.7v7.6h24.1v14.6h-24.1v8.2H628l-1.4,14.6H582V4.4z"/>
		<path fill="#174F65" d="M179.9,12c-5.2-5-12.9-7.5-23.3-7.6h-24.5v59.6h24.5c10.1,0,17.8-2.6,23.1-7.8c5.3-5.2,8-12.7,8-22.5
			C187.7,24.3,185.1,17,179.9,12z M168.8,42.4c-0.6,1.3-1.3,2.5-2.3,3.5c-1,1-2.1,1.8-3.4,2.3c-1.3,0.6-2.7,0.8-4.2,0.8h-0.1h0h-0.1
			c-1.5,0-2.9-0.3-4.2-0.8c-1.3-0.6-2.5-1.3-3.4-2.3c-1-1-1.8-2.1-2.3-3.5c-0.6-1.3-0.8-2.7-0.8-4.2c0-1.1,0.2-2.1,0.5-3.1
			c0.3-1,0.7-1.9,1.3-2.7c0,0,0-0.1,0.1-0.1l9.1-13.5v0l0,0l0,0v0l9.1,13.5c0,0,0,0.1,0.1,0.1c0.6,0.8,1,1.7,1.3,2.7
			c0.3,1,0.5,2,0.5,3.1C169.6,39.7,169.3,41.1,168.8,42.4z"/>
	</g>
	<polyline fill="#8ABABA" points="119.6,6.9 119.6,61.6 107.3,61.6 88.9,32.4 84.3,25.2 84.3,33.7 84.3,61.6 71.5,61.6 71.5,6.9 
		84,6.9 102.3,35.9 106.9,43.1 106.9,34.6 106.9,6.9 119.6,6.9 	"/>
	<path fill="#8ABABA" d="M57,6.9v32.2c0,8.2-2,14.3-6.1,18.1c-4.1,3.9-10.1,5.9-17.9,5.9c-3.8,0-7.2-0.5-10.2-1.4
		c-2.8-0.9-5.3-2.3-7.2-4.1c-1.9-1.9-3.4-4.3-4.5-7.3c-1.1-3.1-1.6-6.8-1.6-11.2V6.9h14v33c0,3.7,0.7,6.5,2.1,8.5
		c1.6,2.2,4.2,3.3,7.6,3.3c3.4,0,6-1.1,7.6-3.3c1.4-2,2.1-4.8,2.1-8.5v-33H57"/>
</g>
</svg>
