<?xml version="1.0" encoding="utf-8"?>
<!-- Generator: Adobe Illustrator 18.1.1, SVG Export Plug-In . SVG Version: 6.00 Build 0)  -->
<!DOCTYPE svg PUBLIC "-//W3C//DTD SVG 1.1//EN" "http://www.w3.org/Graphics/SVG/1.1/DTD/svg11.dtd">
<svg version="1.1" id="Layer_1" xmlns="http://www.w3.org/2000/svg" xmlns:xlink="http://www.w3.org/1999/xlink" x="0px" y="0px"
	 width="650px" height="210px" viewBox="0 0 650 210" enable-background="new 0 0 650 210" xml:space="preserve">
<g>
	<g>
		<path fill="#8ABABA" d="M108.1,85c3.2,0,5.5-1.2,6.8-3.7c1.4-2.5,2.1-6.3,2.1-11.4c-1.5,1.4-3.3,2.5-5.3,3.3
			c-2.1,0.8-4.5,1.2-7.3,1.2c-2.9,0-5.5-0.5-8-1.4c-2.4-0.9-4.5-2.2-6.3-4c-1.7-1.7-3.1-3.9-4.1-6.5c-1-2.6-1.5-5.6-1.5-8.9
			c0-3.6,0.6-6.8,1.7-9.6c1.1-2.8,2.7-5.2,4.8-7.2c2.1-2,4.6-3.5,7.6-4.5c3-1.1,6.3-1.6,10-1.6c4.4,0,8.2,0.8,11.3,2.3
			c3.1,1.5,5.7,3.7,7.7,6.6c2,2.8,3.4,6.3,4.4,10.4c0.9,4.1,1.4,8.8,1.4,14c0,6.6-0.7,12.1-2,16.5c-1.3,4.5-3.1,8.1-5.4,10.8
			c-2.3,2.7-5,4.7-8.1,5.9s-6.4,1.8-10.1,1.8c-6.6,0-11.9-1.7-15.7-5.1c-3.9-3.4-6.1-8.1-6.6-14.3h15.9C102,83.1,104.2,85,108.1,85z
			 M108.8,43.9c-2.3,0-4.2,0.7-5.8,2.2c-1.5,1.5-2.3,3.8-2.3,6.9c0,2.5,0.6,4.6,1.7,6.2c1.2,1.7,3.1,2.5,5.9,2.5
			c0.9,0,1.9-0.1,2.9-0.4c1-0.2,1.8-0.7,2.6-1.3c0.7-0.6,1.4-1.5,1.9-2.6c0.5-1.1,0.7-2.5,0.7-4.2c0-2.7-0.6-5-1.9-6.7
			C113.4,44.8,111.4,43.9,108.8,43.9z"/>
		<path fill="#8ABABA" d="M140.2,64.8c0-11.9,2.2-20.6,6.5-26.1c4.3-5.5,10.5-8.2,18.6-8.2c8.2,0,14.3,2.8,18.4,8.3
			c4.1,5.6,6.1,14.1,6.1,25.6c0,11.9-2.2,20.6-6.5,26.1c-4.3,5.5-10.5,8.2-18.6,8.2c-8.2,0-14.3-2.8-18.4-8.3
			C142.2,84.9,140.2,76.4,140.2,64.8z M157.7,64.6c0,6.9,0.5,11.8,1.5,14.8c1,3,2.9,4.5,5.8,4.5s4.7-1.5,5.8-4.5c1-3,1.5-8,1.5-14.8
			s-0.5-11.8-1.5-14.8c-1-3-2.9-4.5-5.8-4.5s-4.7,1.5-5.8,4.5C158.2,52.8,157.7,57.8,157.7,64.6z"/>
		<path fill="#8ABABA" d="M197.5,79.2h16.2l-6.6,26.7h-12.9L197.5,79.2z"/>
		<path fill="#8ABABA" d="M219.2,64.8c0-11.9,2.2-20.6,6.5-26.1c4.3-5.5,10.5-8.2,18.6-8.2c8.2,0,14.3,2.8,18.4,8.3
			c4.1,5.6,6.1,14.1,6.1,25.6c0,11.9-2.2,20.6-6.5,26.1c-4.3,5.5-10.5,8.2-18.6,8.2c-8.2,0-14.3-2.8-18.4-8.3
			C221.2,84.9,219.2,76.4,219.2,64.8z M236.7,64.6c0,6.9,0.5,11.8,1.5,14.8c1,3,2.9,4.5,5.8,4.5s4.7-1.5,5.8-4.5c1-3,1.5-8,1.5-14.8
			s-0.5-11.8-1.5-14.8c-1-3-2.9-4.5-5.8-4.5s-4.7,1.5-5.8,4.5C237.2,52.8,236.7,57.8,236.7,64.6z"/>
		<path fill="#8ABABA" d="M275,64.8c0-11.9,2.2-20.6,6.5-26.1c4.3-5.5,10.5-8.2,18.6-8.2c8.2,0,14.3,2.8,18.4,8.3
			c4.1,5.6,6.1,14.1,6.1,25.6c0,11.9-2.2,20.6-6.5,26.1c-4.3,5.5-10.5,8.2-18.6,8.2c-8.2,0-14.3-2.8-18.4-8.3
			C277.1,84.9,275,76.4,275,64.8z M292.5,64.6c0,6.9,0.5,11.8,1.5,14.8c1,3,2.9,4.5,5.8,4.5s4.7-1.5,5.8-4.5c1-3,1.5-8,1.5-14.8
			s-0.5-11.8-1.5-14.8c-1-3-2.9-4.5-5.8-4.5s-4.7,1.5-5.8,4.5C293,52.8,292.5,57.8,292.5,64.6z"/>
		<path fill="#8ABABA" d="M330.9,64.8c0-11.9,2.2-20.6,6.5-26.1c4.3-5.5,10.5-8.2,18.6-8.2c8.2,0,14.3,2.8,18.4,8.3
			c4.1,5.6,6.1,14.1,6.1,25.6c0,11.9-2.2,20.6-6.5,26.1c-4.3,5.5-10.5,8.2-18.6,8.2c-8.2,0-14.3-2.8-18.4-8.3
			C332.9,84.9,330.9,76.4,330.9,64.8z M348.4,64.6c0,6.9,0.5,11.8,1.5,14.8c1,3,2.9,4.5,5.8,4.5s4.7-1.5,5.8-4.5c1-3,1.5-8,1.5-14.8
			s-0.5-11.8-1.5-14.8c-1-3-2.9-4.5-5.8-4.5s-4.7,1.5-5.8,4.5C348.9,52.8,348.4,57.8,348.4,64.6z"/>
	</g>
	<g>
		<g>
			<path fill="#174F65" d="M488.2,52.8c-4.4,0-8.3-2.9-9.8-5.8c-0.4,0.1-0.9,0.2-1.3,0.3c-4.4,1.4-17.5,3.5-21,3.5
				c-6.1,0-11.1-5.5-11.1-12.2c0-6.7,5-12.2,11.1-12.2c3.5,0,16.6,2.1,21,3.5c0.6,0.2,1,0.3,1.3,0.3c1.5-3,5.4-5.8,9.8-5.8
				c4.4,0,8.3,2.9,9.8,5.8c0.4-0.1,0.9-0.2,1.3-0.3c4.4-1.4,17.5-3.5,21-3.5c6.1,0,11.1,5.5,11.1,12.2c0,6.7-5,12.2-11.1,12.2
				c-3.5,0-16.7-2.1-21.1-3.5c-1.6-0.5-2.5-2.2-1.9-3.8s2.2-2.5,3.8-1.9c3.9,1.3,16.6,3.2,19.2,3.2c2.8,0,5.1-2.8,5.1-6.2
				c0-3.4-2.3-6.2-5.1-6.2c-2.6,0-15.3,2-19.2,3.2c-1.2,0.4-4.3,1.2-6.5-0.1c-1-0.6-1.8-1.5-2.1-2.7c-0.2-0.6-2.1-2.5-4.4-2.5
				c-2.3,0-4.2,1.9-4.4,2.5c-0.1,0.4-0.5,1.8-2.1,2.7c-1.6,0.9-3.8,0.9-6.4,0.1c-4-1.3-16.5-3.2-19.1-3.2c-2.8,0-5.1,2.8-5.1,6.2
				c0,3.4,2.3,6.2,5.1,6.2c2.7,0,15.2-1.9,19.1-3.2c1.2-0.4,4.3-1.2,6.5,0c1,0.6,1.8,1.5,2.1,2.7c0.2,0.6,2,2.5,4.4,2.5
				c1.7,0,3,1.4,3,3S489.8,52.8,488.2,52.8z"/>
		</g>
		<g>
			<path fill="#174F65" d="M534.6,123.8c-0.8,0-1.6-0.3-2.2-0.9l-19.8-20.3H449c-1.7,0-3-1.4-3-3v-22c0-1.7,1.4-3,3-3h27.8V57.4
				c0-1.7,1.4-3,3-3c1.7,0,3,1.4,3,3v20.2c0,1.7-1.4,3-3,3h-27.8v16H514c0.8,0,1.6,0.3,2.2,0.9l18.5,19l10.6-10.9l-19.6-20.1
				c-0.6-0.5-5.9-4.9-11.7-4.9h-15.2c-1.7,0-3-1.4-3-3V57.4c0-1.7,1.4-3,3-3c1.7,0,3,1.4,3,3v17.2H514c8.5,0,15.5,6.2,15.8,6.5
				l21.9,22.4c1.1,1.2,1.1,3,0,4.2l-14.8,15.2C536.2,123.5,535.4,123.8,534.6,123.8z"/>
		</g>
	</g>
	<g>
		<path fill="none" d="M532.9,150.7c0,0.1-0.1,0.2-0.1,0.3c-0.6,0.9-1,1.8-1.3,2.7c-0.3,0.9-0.4,1.9-0.4,3c0,1.5,0.3,2.8,0.8,4.1
			c0.4,0.8,0.8,1.6,1.3,2.3l13-18.4l-4.6-6.7L532.9,150.7z"/>
		<path fill="none" d="M537.4,166.5c1.2,0.5,2.6,1,4.1,1h0.3c1.4,0,2.8-0.5,4.1-1c1.3-0.5,2.4-1.4,3.3-2.3c0.9-0.9,1.7-2.1,2.2-3.4
			c0.5-1.3,0.8-2.6,0.8-4.1c0-1-0.1-2-0.4-3c-0.3-0.9-0.7-1.8-1.2-2.6c-0.1-0.1-0.1-0.2-0.2-0.3l-1.2-1.7L537,166.2
			C537.1,166.3,537.3,166.4,537.4,166.5z"/>
		<path fill="#174F65" d="M531.8,160.7c-0.5-1.3-0.8-2.6-0.8-4.1c0-1,0.1-2,0.4-3c0.3-0.9,0.7-1.8,1.3-2.7c0.1-0.1,0.1-0.2,0.1-0.3
			l8.7-12.9l4.6,6.7l3.6-5.1l-5.6-8.3c-0.4-0.6-1-1.1-1.7-1.4c-0.6-0.2-1.2-0.2-1.8,0c-0.7,0.2-1.2,0.7-1.6,1.3l-11.2,16.6
			c-0.1,0.1-0.2,0.3-0.2,0.4c-0.8,1.2-1.4,2.5-1.8,3.8c-0.5,1.5-0.7,3-0.7,4.7c0,2.2,0.4,4.4,1.3,6.4c0.8,1.8,1.9,3.5,3.2,4.9
			l3.5-4.9C532.6,162.3,532.2,161.5,531.8,160.7z"/>
		<path fill="#174F65" d="M550.3,150.7c0.1,0.1,0.1,0.2,0.2,0.3c0.5,0.8,0.9,1.7,1.2,2.6c0.3,0.9,0.4,1.9,0.4,2.9
			c0,1.5-0.3,2.8-0.8,4.1c-0.5,1.3-1.3,2.4-2.2,3.3c-1,1-2.1,1.9-3.3,2.4c-1.3,0.5-2.6,1-4.1,1h-0.3c-1.4,0-2.8-0.5-4.1-1
			c-0.1-0.1-0.2-0.2-0.4-0.3l-3.4,4.8c0.5,0.3,1,0.8,1.5,1c2,0.8,4.1,1.5,6.3,1.5h0.3c2.2,0,4.4-0.7,6.3-1.6c2-0.8,3.7-2.1,5.2-3.6
			c1.5-1.5,2.6-3.3,3.5-5.3c0.8-2,1.3-4.2,1.3-6.4c0-1.6-0.2-3.2-0.7-4.7c-0.4-1.4-1-2.7-1.8-3.9c-0.1-0.1-0.1-0.3-0.2-0.4l-2.6-3.8
			l-3.6,5.1L550.3,150.7z"/>
		<path fill="#E8513A" d="M564.4,123.1c-1.1-0.8-2.7-0.5-3.5,0.6l-11.2,15.8l-3.6,5.1l-13,18.4l-3.5,4.9l-9.8,13.9
			c-0.8,1.1-0.5,2.7,0.6,3.5c0.4,0.3,0.9,0.5,1.4,0.5c0.8,0,1.6-0.4,2-1.1l9.7-13.7l3.4-4.8l12.1-17.1l3.6-5.1l12.2-17.3
			C565.8,125.4,565.5,123.9,564.4,123.1z"/>
	</g>
</g>
</svg>
